v -0.199030797016678 -0.2 -0.198803170057471
v -0.2 -0.2 -0.125
v -0.2 -0.198772929408031 -0.0493193814341645
v -0.2 -0.2 0.2
v -0.2 -0.15 -0.2
v -0.2 -0.15126868225034 0.2
v -0.2 -0.116781588591165 0.0942584223630848
v -0.2 -0.112485247545225 -0.136531003739424
v -0.2 -0.075 0.2
v -0.2 -0.0560565705844552 -0.19939714726768
v -0.2 -0.000968676590029289 0.199378278884061
v -0.2 0.0421875 -0.09140625
v -0.2 0.0755345001006176 0.0809835805621173
v -0.2 0.0875 0.2
v -0.2 0.123979506631755 -0.2
v -0.2 0.2 -0.2
v -0.2 0.2 -0.0875
v -0.2 0.2 0.09375
v -0.2 0.2 0.2
v -0.15 -0.2 0.2
v -0.147378991501503 -0.0790881120149363 -0.2
v -0.15 0.15 -0.2
v -0.15 0.2 -0.2
v -0.15 0.2 0.2
v -0.125541839658839 0.149967880868824 0.2
v -0.111458345534062 0.2 0.105087933166328
v -0.0848097370785628 -0.2 0.007031391685315
v -0.0795990303778887 0.00400546526595405 0.2
v -0.0613081183046212 -0.2 0.2
v -0.0625 0.2 -0.2
v -0.06015625 0.0529296875 -0.2
v -0.0125 -0.2 -0.2
v 0.00729553295990068 0.2 0.199041763803284
v 0.0375 -0.2 0.1375
v 0.0598710004031167 0.2 0.051848397327972
v 0.075 0.2 -0.2
v 0.0875 -0.2 0.2
v 0.103125 0.2 -0.03125
v 0.1125 -0.15 0.2
v 0.1234375 0.0171875 -0.2
v 0.125 -0.2 -0.2
v 0.121917248057852 0.198135426462365 0.2
v 0.131105352953648 -0.2 0.0226758419142148
v 0.145784613599078 -0.2 -0.145792314307796
v 0.15 0.2 -0.2
v 0.2 -0.2 -0.2
v 0.2 -0.2 -0.125
v 0.2 -0.2 0.0875
v 0.2 -0.2 0.2
v 0.2 -0.15 -0.2
v 0.2 -0.0786573479132126 0.2
v 0.197517596799203 -0.0712219223813801 -0.2
v 0.2 -0.059765625 0.067578125
v 0.2 -0.03984375 -0.06171875
v 0.2 0.0788802966038164 -0.198659792096146
v 0.2 0.125 0.2
v 0.2 0.2 -0.2
v 0.2 0.2 -0.125
v 0.2 0.2 0.05625
v 0.199077323544287 0.2 0.197416681328001
v 0.00625000000000001 0.2 -0.2
v 0.146928203230276 0.2 0.161732050807569
v 0.2 -0.0955366718719024 0.136830877749307
v -0.141666666666667 -0.1375 -0.2
v -0.170392304845413 0 -0.2
v -0.166666651263271 0.092884153856257 -0.2
v -0.140004211104078 -0.0314576485174619 -0.2
v 0.158905939546679 -0.110107343660123 0.2
v 0.0872965562261949 0.2 -0.0845992868841195
v 0.0382679491924311 0.0851961524227066 0.2
v -0.2 0.00866025403784438 -0.0851961524227066
v -0.093856406460551 0 -0.2
v 0.2 -0.0941254072437938 -0.0854992917327657
v 0.161732050807569 -0.0110335737772481 0.2
v 0.136017304845413 -0.2 -0.0383344532302755
v -0.140784609690827 -0.00866025403784441 0.2
v -0.0173205080756888 1.40234555956128e-33 0.2
v -0.0469282032302755 0.0469282032302755 0.2
v -0.00180499265666129 0.0251524717803087 0.2
v 0.0296076951545867 0.0296076951545867 0.2
v -2.10558052049531e-33 0.093856406460551 0.2
v 0.0945179491924311 -0.0984641016151378 0.2
v 0.0596348851827339 0.2 -0.0718525203610458
v 0.0258743556529821 -0.161732050807569 -0.2
v 0.0483243446060729 0.139654632177951 0.2
v 0.0212079483336542 -0.2 -0.159123177648267
v 0.2 0.161732050807569 0.161732050807569
v -0.101439347349564 0.0852675003094772 0.2
v 0.147962586635727 0.0812601869505722 -0.2
v 0.0892243986641747 0.171365242813127 0.2
v 0.126098942114453 0.147177259422122 0.2
v 0.134453201374243 0.0903922517453558 0.2
v -0.0879438282302755 -0.2 -0.0406293751052755
v -0.00549405935649499 -0.2 -0.14221646770965
v -0.093856406460551 0.2 0.140784609690827
v 0.146504398899118 -0.2 0.0946321645775321
v -0.0589638767477511 0.2 0.136353411245791
v -0.0642487113059643 0.2 0.170392304845413
v 0.003125 0.146928203230276 0.2
v 0.2 0.161892044940743 0.0138154906289945
v -0.2 -0.2 0.146928203230276
v 0.158933542645599 0.160780449298676 0.2
v 0.2 -0.140784609690827 0.140784609690827
v 0.171122486551545 0.0538850141821479 0.2
v 0.0765358983848622 0.00614359353944897 0.2
v -0.04616990097732 -0.0222433676239297 0.2
v 0.014781354730913 -0.0189991614985215 -0.2
v -0.00581374558909623 -0.0447796865290544 0.2
v 0.0765358983848622 -0.0469282032302755 0.2
v -0.0363553015981697 0.159820024307504 0.2
v 0.11692051231699 0.0233663076651001 0.2
v 0.140784609690827 -0.0642487113059643 0.2
v 0.157390985875024 -0.175252466149042 0.2
v -0.0378177364995313 0.198182367778771 0.2
v -0.075150133902492 -0.2 0.0434344277783068
v -0.0432372919090156 -0.2 0.000890857189796469
v 0.0851828516151377 -0.0148703516151378 -0.2
v -0.0296076951545867 -0.2 0.0469282032302755
v -0.055398752184102 -0.2 0.0935225125691557
v -0.0297706426217774 -0.2 0.114586516571247
v 0 -0.2 0
v 0 -0.2 0.0469282032302755
v -0.0885917012912151 -0.2 -0.163803265235696
v 0 -0.2 0.11117691453624
v 0.0498732309143823 -0.2 0.043518249029151
v 0.0469282032302755 -0.2 0.093856406460551
v 0.168549142442858 -0.2 0.0572282817481291
v 0.093856406460551 -0.2 0.093856406460551
v -0.0919054066049441 0.2 -0.170564021084055
v 0.0946243556529821 -0.161732050807569 -0.2
v -0.158991886720151 0.113638327409726 0.2
v -0.0627139632574013 0.2 -0.14225928374453
v -0.131642749397234 0.2 0.155403737122717
v -0.093856406460551 0.2 -0.0469282032302755
v -0.0642487113059643 0.2 -0.0469282032302755
v -0.0642487113059643 0.2 -0.0173205080756888
v 0.2 0.160211199648219 -0.167107812015521
v -0.0173205080756888 0.2 -0.0642487113059643
v -0.000330014218588616 0.2 -0.0983947874936468
v 0.0296076951545867 0.2 -0.0469282032302755
v 0.0252977431837147 0.2 -0.0126441528737987
v 0 0.2 0
v -0.2 -0.121486726388194 0.137258614629346
v -0.2 -0.0469282032302755 0.140784609690827
v -0.0321128435116505 0.0965051360088572 -0.2
v -0.00363578678253099 0.0109363058839386 -0.2
v 0.0021145796012026 0.0521452225464235 -0.2
v 0.16171875 0.04609375 -0.2
v -0.2 -0.107084453230276 0.04609375
v 0 0.093856406460551 -0.2
v 0.0375 0.170392304845413 -0.2
v 0.0375 0.2 -0.170392304845413
v 0 0.140784609690827 -0.2
v 0.132124355652982 -0.0173205080756888 0.2
v 0.0469282032302755 0.0469282032302755 -0.2
v -0.2 0.0298676082221317 0.108930287532542
v 0.0469282032302755 0.11117691453624 -0.2
v 0.113267949192431 0.2 -0.170392304845413
v 0.093856406460551 0.093856406460551 -0.2
v 0.0990320083803672 0.138492356382837 -0.2
v 0.093856406460551 0.123464101615138 0.2
v 0 -0.2 -0.0469282032302755
v -0.0469282032302755 0.140784609690827 -0.2
v -0.0967590491533062 -0.14470784217277 0.2
v -0.093856406460551 -0.11117691453624 0.2
v 0.0939252765649355 -0.0532727394432441 -0.2
v -0.0642487113059643 -0.11117691453624 0.2
v -0.2 0 0.093856406460551
v -0.2 0.093856406460551 0.140784609690827
v -0.2 0.138069162254035 0.0900920532979543
v -0.0591441715986535 -0.0663116114637208 0.2
v 0.2 -0.145717619576295 -0.0663967318025188
v -0.0980689058453462 0.0504535630294859 0.2
v -0.0173205080756888 -0.140784609690827 0.2
v -0.018583851477396 -0.110474777618726 0.2
v -0.0173205080756888 0.2 0.140784609690827
v -0.066428951500614 0.2 -0.0930985917819024
v -0.2 -0.199434845210409 -0.00190890694092246
v 0.0802605220000163 0.2 0.0104352564614908
v 0.0644468311243364 0.15625208301992 -0.2
v 0.0296076951545867 -0.0642487113059643 0.2
v 0.0487742501702612 -0.141259736727429 0.2
v -0.2 -0.170392304845413 0.140784609690827
v -0.141993385164877 -0.143007084802275 0.2
v -0.140784609690827 -0.11117691453624 0.2
v -0.140740338250368 -0.0645814864892838 0.2
v 0.142220893746987 0.2 -0.154158100384634
v 0.14110341822081 -0.2 -0.0937275509814365
v -0.2 0.0776307372071212 -0.0616064661637022
v 0.166981429161737 -0.2 -0.0470912118265196
v -0.0296104152230146 0.2 0.170025379591849
v -0.0469282032302755 -0.2 -0.093856406460551
v -0.0469282032302755 -0.2 -0.0469282032302755
v -0.109137422032913 -0.0313431056529821 0.2
v 0 -0.2 -0.093856406460551
v -0.0321243556529821 -0.0790525588832577 0.2
v -0.2 -0.0130712535544375 -0.0648355608831048
v -0.2 -0.104194799055463 -0.0623729615817719
v 0.0469282032302755 -0.2 -0.0765358983848623
v 0.093856406460551 -0.2 -0.0469282032302755
v 0.170097976611703 0.2 0.0866902157194803
v 0.170392304845413 0.2 0.123464101615138
v -0.140784609690827 -0.2 -0.093856406460551
v -0.142337799902797 -0.2 -0.0487987075134365
v 0.126642304845413 -0.107124355652982 0.2
v -0.140517264768783 -0.2 0.0016383028786924
v -0.0929861158954438 -0.2 -0.0915154996404842
v -0.1625 0.175 0.2
v -0.123464101615138 -0.2 -0.170392304845413
v -0.138637608364766 -0.2 -0.136805318015083
v -0.173619263782876 -0.115734618870323 -0.2
v 0.1 -0.0086602540378444 0.2
v 0.2 -0.00419456809661319 0.140361281773161
v 0.2 -0.155276339917679 0.0820316319376934
v -0.0296076951545867 -0.093856406460551 -0.2
v 0.0890891016151377 -0.2 0.0320578516151377
v -0.0296076951545867 -0.0469282032302755 -0.2
v -0.0499594075176622 -0.00759244887295351 -0.2
v 0.00380452479880955 -0.125849946234497 -0.2
v -0.000943145209441809 -0.0900764111925195 -0.2
v -0.2 0.107501679845413 0.111017304845413
v 0.15558845726812 -0.145392304845413 -0.2
v 0.0642487113059642 -0.123464101615138 -0.2
v 0.0613006232521943 -0.0921196504906381 -0.2
v 0.0428673260522467 -0.0520733692894272 -0.2
v 0.060126787295409 0.00162222878164007 -0.2
v 0.093856406460551 -0.093856406460551 -0.2
v 0.0947556046837303 -0.2 -0.093529918695533
v 0.2 -0.0173205080756888 0.093856406460551
v 0.2 0.00209743344801733 0.0491433125085157
v 0.2 0.0206542643664737 0.0809119166989461
v 0.2 0.0296076951545867 0.140784609690827
v 0.2 0.0274174370151409 0.171781858843664
v 0.2 0.0765358983848622 0.0469282032302755
v 0.2 0.0748673700853954 0.0762602206288642
v 0.2 0.12061232119497 0.085105566411669
v 0.2 0.0939288593907087 0.119328094144796
v 0.2 0.126884997877211 0.123260299067639
v 0.2 0.140378542365554 0.0422562490413083
v 0.2 0.181224027802271 0.115907006564254
v -0.0642487113059643 0.2 0.093856406460551
v -0.018764390483176 0.2 0.0800919256691782
v -0.0670951612410858 -0.152457265250825 0.2
v 0.0296076951545867 0.2 0.093856406460551
v 0.0276214014981454 0.2 0.135868873495675
v -0.093856406460551 -0.0469282032302755 -0.2
v -0.0664488761347984 0.0820741528382099 0.2
v -0.0671662977047252 0.124739953977739 0.2
v -0.0612905996245856 0.179024516027334 0.2
v -0.2 -0.0836203516151378 0.116486054845413
v 0.153740466657463 -0.144511984383043 0.2
v -0.2 -0.0711036735263098 -0.14390094070422
v -0.2 0.04375 0.2
v -0.17322349363144 0.0452158389559554 0.2
v -0.10625 -0.2 0.2
v -0.101603495902294 0.198435983303335 -0.2
v -0.165241066997039 -0.0372673513503877 0.2
v -0.155455270608956 0.2 0.0980993223165377
v 0.0936349987339546 -0.2 -0.168099280554965
v 0.2 0.2 0.012762125375872
v -0.2 0.0504288250341091 -0.2
v -0.2 -0.0242576856215623 0.0623199586032039
v -0.2 -0.0469282032302755 0.093856406460551
v -0.2 -0.00302699339751582 0.141764109877808
v -0.2 0.0506260012096574 0.139783056607424
v -0.2 0.140784609690827 0.140784609690827
v -0.050216909439928 -0.177358027072876 -0.2
v 0.121109362712882 0.2 -0.106085038931124
v 0.0754933579971261 -0.12083859850827 0.2
v 0.166328774643725 0.2 -0.0918123169364923
v 0.2 -0.109526207638895 0.171500832161778
v -0.2 -0.141203213155143 -0.0927410143130563
v -0.115466943747722 -0.156119242981174 -0.2
v -0.0303889967722874 -0.2 0.168262519163816
v -0.03125 0.170392304845413 -0.2
v -0.03125 0.2 -0.170392304845413
v -0.2 -0.093856406460551 -0.093856406460551
v -0.2 -0.0524052145821498 -0.093811379720934
v -0.2 -0.0437348660960347 -0.0457841804200363
v -0.2 0.11117691453624 -0.0296076951545867
v -0.2 0.0958115162168812 0.0449322403208496
v -0.2 0.140784609690827 0
v -0.2 0.140784609690827 0.0469282032302755
v -0.2 0.168662199983557 -0.000806001521784988
v -0.2 0.170392304845413 0.0469282032302755
v -0.0925033303162036 -0.173260425761496 -0.2
v -0.093856406460551 -0.123464101615138 -0.2
v -0.0469282032302755 -0.140784609690827 -0.2
v 0.141741759854895 -0.0900522533284984 -0.2
v -0.127112772953221 0.2 0.0624653335154297
v 0.141708693842765 0.141735432017772 -0.2
v -0.2 -0.155112948993174 -0.134537986714356
v -0.133333333333333 -0.2 -0.2
v -0.2 0.140784609690827 -0.140784609690827
v -0.2 -0.114621322107072 -0.0311436390591099
v -0.2 -0.140784609690827 0
v -0.2 -0.140784609690827 0.0469282032302755
v -0.2 -0.0765358983848623 -0.0296076951545867
v -0.2 -0.09620345104923 0.00610991552649387
v -0.2 -0.0292323145768311 0.0198285724897842
v -0.2 0.168490949491279 0.170179208441908
v 0.167527898375164 -0.2 0.169348851534717
v 0.17361152135 0.167590178502151 -0.2
v -0.2 0.0173205080756888 -0.0296076951545867
v -0.2 0.000267144699442015 -0.0018604242826193
v -0.2 0.170392304845413 -0.170392304845413
v -0.00181611411074342 -0.2 0.140893435562164
v 0.2 -0.170392304845413 0.170392304845413
v -0.16435990598981 -0.2 -0.168964035624868
v 0.0128605501148649 -0.2 0.2
v 0.0474796801087216 -0.2 0.2
v -0.114001691706846 -0.2 -0.020063421479992
v 0.0899585178170094 0.2 0.0900549346828038
v 0.0947970759223927 0.2 0.125167410600131
v -0.093856406460551 -0.2 0.093856406460551
v -0.0469282032302755 -0.2 0.140784609690827
v 0 0.2 -0.140784609690827
v 0.0296076951545867 0.2 -0.11117691453624
v 0.2 -0.0625266016151378 0.161732050807569
v 0.132046035125862 -0.2 0.2
v 0.139301727207036 -0.2 0.14075522818086
v 0.2 0.106892517616116 0.157865511428526
v 0.2 -0.2 0.140784609690827
v 0.109930467689628 0.2 -0.0679098694119695
v 0.123464101615138 0.2 0.0296076951545867
v 0.2 0.0337743618212534 -0.2
v 0.103895284849056 0.0597141353872995 -0.2
v 0.124316046256876 0.2 0.0769042906030499
v 0.140784609690827 0.2 0
v -0.140946514181171 -0.2 0.0463819483278405
v 0.0851828516151377 0.0320578516151377 -0.2
v -0.136130883213191 -0.2 0.0906069361694518
v -0.126499544197758 -0.2 0.142689655622308
v -0.0910887428483176 -0.2 0.138867365289061
v 0.2 -0.0984061515525179 -0.116014640460235
v 0.2 0.044929420862992 0.0533951973335539
v -0.0993334315553342 -0.2 -0.130036988264901
v 0.2 -0.0750076174249379 -0.0235538256987424
v -0.2 0.0532181056529821 -0.130899277422707
v 0.0792366707699691 0.198273747298616 0.2
v 0.0421815637514682 0.2 0.2
v 0.169019514861226 0.2 0.0252564400683756
v -0.2 0.0659987223770535 -0.171061507569512
v -0.2 0.093856406460551 -0.140784609690827
v 0.170392304845413 -0.121928203230276 -0.2
v -0.128655824902306 -0.171073625730327 0.2
v -0.2 0.0877368549581814 -0.0928323330684686
v -0.0671166994164928 -0.2 -0.2
v 0.2 -0.067934963502214 -0.143505255826649
v 0.2 -0.0642487113059643 -0.11117691453624
v 0.2 -0.045216449994793 -0.164826161170819
v 0.2 -0.0170889597211257 -0.169706514603734
v 0.2 0.0296076951545867 -0.170392304845413
v 0.2 0.0282058229383139 -0.105812733961257
v 0.2 -0.00341269519657395 -0.0958668985710427
v -0.2 0.0519854138914164 -0.0442037572762203
v -0.2 0.0654637301144549 5.82973527248482e-05
v 0.140605703024999 -0.0510506916625525 -0.2
v 0.0469282032302755 -0.2 -0.2
v 0.0868551628528839 -0.2 -0.2
v 0.2 -0.137804367166254 -0.11839353655111
v 0.2 -0.115669081427825 -0.061366749705733
v 0.2 -0.143451047151365 -0.0215144223869114
v 0.2 -0.093856406460551 0
v 0.2 -0.0469282032302755 0
v -0.170392304845413 0.2 0.140784609690827
v -0.0940016843599894 0.136670645398418 -0.2
v -0.170392304845413 0.2 0.0469282032302755
v -0.140784609690827 0.2 -0.093856406460551
v -0.140784609690827 0.2 -0.0469282032302755
v -0.11117691453624 0.2 -0.0173205080756888
v -0.142741578150507 0.2 0.0283080801816518
v -0.105494972418532 0.2 0.0269480783053757
v -0.2 0 0.0469282032302755
v 0.2 -0.140784609690827 0.0469282032302755
v 0.2 -0.11117691453624 0.0765358983848622
v 0.2 -0.2 -0.093856406460551
v 0.2 -0.2 -0.0597887533451405
v 0.0765358983848622 0.2 -0.140784609690827
v -0.093856406460551 -0.093856406460551 -0.2
v -0.0648636908108042 -0.0419828066900759 -0.2
v 0.04758722290122 -0.0978226133213999 0.2
v 0.093856406460551 -0.2 0.140784609690827
v 0.2 -0.140784609690827 0.2
v -0.093856406460551 0.2 0.2
v 0.2 -0.0478386315728726 0.122232229147388
v 0.2 0.0849364905389033 0.2
v 0.2 0.00728598638223212 0.2
v -0.2 -0.033601973827071 -0.138405283762559
v -0.2 0 -0.140784609690827
v -0.2 0.00718305827404877 -0.2
v -0.2 0.093856406460551 -0.2
v 0.2 -0.2 0.00318254121270749
v 0.2 -0.2 0.0396308305152822
v 0.2 0.00172234562533478 -0.0626966578803311
v 0.2 0.0469282032302755 -0.0642487113059643
v 0.2 0.0765358983848622 -0.0642487113059643
v 0.2 0.122858585343677 -0.135079188642694
v 0.2 0.124744069664816 -0.0942815324280901
v 0.2 0.140784609690827 -0.2
v 0.2 0 -0.0173205080756888
v 0.2 0.0469282032302755 0
v 0.2 0.11819152831159 -0.0521402934037029
v 0.2 0.122026717647469 -0.0124330607108217
v 0.0197049941098957 0.2 0.0589432696525984
v 0.2 0.171509974288184 -0.0491133658826716
v -0.2 0.2 -0.0472506218038336
v 0.0625 -0.2 0.16875
v 0.154048581184374 0.019171956462055 0.2
v -0.2 -0.165662456587545 0.0887627536608023
v 0.2 0.2 0.093856406460551
v 0.2 0.2 0.133333333333333
v -0.2 0.170392304845413 -0.114142304845413
v -0.2 0.114142304845413 0.170392304845413
v 0.170517334763719 -0.2 0.11326091713165
v 0.0703923048454132 0.108660254037844 0.2
v -0.0407846096908265 0.2 0.108660254037844
v -0.0308084826990897 0.2 -0.0272667094505865
v -0.0617320508075689 0.117320508075689 -0.2
v -0.0576053018979191 -0.0733905038956635 -0.2
v -0.2 0.2 -0.00700124360766712
v 0.2 -0.0790525588832577 0.1
v -0.2 0.2 0.0216408768896507
v 0.2 0.0563745273165374 0.100806978397608
v 0.00484759391368596 0.2 0.113822696792649
v -0.0877128129211021 0.2 0.0617320508075689
v 0.0234641016151377 0.0790525588832576 -0.2
v 0.0234641016151377 -0.2 -0.0617320508075689
v 0.2 0.106325487755938 0.0194499835258974
v 0.2 0.0234641016151377 -0.0321243556529821
v 0.0168833094988891 -0.121695885126323 0.2
v -0.2 0.140784609690827 0.2
v -0.2 0.198105348460931 0.138839674219936
v -0.2 0.0315283575465246 0.0278248545654997
v -0.120139083360202 0.115500474064486 -0.2
v 0.168612552726959 -0.00265578067923969 -0.2
v 0.121864821161542 -0.2 -0.126408881478049
v 0.2 -0.00745127635749319 -0.2
v -0.2 -0.153532228776587 -0.0438219884725254
v 0.2 0.153979343756179 0.0699344751680623
v 0.156530176542669 0.2 0.0579442393736971
v 0.025527270302626 0.2 0.0269227914550877
v 0.0607539592570815 -0.157719557257365 -0.2
v -0.0098239215258459 0.2 0.0421841782801722
v -0.197713694930019 0.2 -0.135826092122523
v 0.2 -0.00866025403784439 -0.132124355652982
v -0.2 -0.095136414571053 -0.199632487440724
v 0.2 -0.170392304845413 -0.0854828339406901
v -0.0642487113059643 0.2 0.0296076951545867
v 0.141196850709834 0.2 -0.0374804969720851
v 0.169483238860946 0.2 -0.051312453761079
v 0.2 0.0458146259994482 0.2
v 0.2 0.161732050807569 -0.132892304845413
v 0.0838243185162117 0.2 0.161844524159209
v -0.109137422032913 0.0242453516151377 0.2
v 0.15251260649232 0.2 -0.123290196005338
v -0.170392304845413 -0.2 0.0688032032302755
v 0.2 0.2 -0.0307257492482559
v -0.00625 -0.161732050807569 -0.2
v 0.2 0.2 -0.0913730615835872
v -0.170392304845413 -0.2 -0.025
v -0.2 -0.170241599496525 -0.0181915494834498
v 0.0544221829622779 0.199136873649308 0.170392304845413
v 0.2 0.163383353447416 -0.0999538211717985
v 0.129997444071947 0.2 0.123282767240005
v 0.2 0.0864029736655805 -0.142231010933818
v -0.097728783298723 -0.0662565134104436 0.2
v -0.134172980441151 0.0892314401538897 -0.2
v -0.140784609690827 0.00866025403784436 -0.2
v 0.0378474254197018 -0.2 0.00513829262636523
v 0.00866025403784436 -0.0469282032302755 -0.2
v 0.0385044194554771 0.2 -0.139926488508966
v -0.2 -0.100578731266583 0.167296754289654
v -0.043057064381115 -0.2 -0.170418170628825
v -0.14375 0.2 -0.1625
v 0.2 -0.0768110157302755 0.0337890625
v -0.2 0.170392304845413 0.117267304845413
v -0.2 -0.0234203703109657 0.176415660273819
v -0.2 0.0234641016151377 0.170392304845413
v -0.0248197249425675 -0.2 0.2
v 0.135088980957091 -0.2 0.0635137670339122
v -0.2 -0.2 -0.1625
v -0.2 -0.0375 0.2
v -0.2 0.1625 -0.2
v 0.1625 -0.2 -0.2
v 0.1625 0.2 0.2
v 0.2 -0.2 -0.1625
v 0.2 0.1625 0.2
v 0.2 0.2 -0.1625
v -0.2 -0.2 -0.0875
v -0.2 -0.1125 0.2
v 0.108823132788225 0.2 -0.19785548237436
v 0.2 -0.1125 -0.2
v -0.2 0.111895739305171 0.0685355794425458
v 0.0506188999963306 0.2 0.0106183494959736
v 0.0633605519131595 0.2 -0.0309515430581794
v -0.036925866800679 -0.168834362928056 0.2
v 0.112553203230275 -0.2 -0.0148703516151378
v -0.127082105621189 -0.104577443552847 -0.2
v -0.2 0.0227094159992917 0.0718980290099199
v -0.2 0.198931797982974 0.0550393473106859
v -0.2 -0.170392304845413 -0.0719282032302755
v -0.171209866221006 -0.2 0.0136391395022238
v -0.2 -0.170392304845413 0.021875
v -0.2 -0.077668578368287 0.0852811801543288
v -0.170821719864871 0.2 -0.103835374723694
v 0.2 -0.170392304845413 -0.0385546307104146
v -0.0280353972625923 0.0655196557939271 -0.2
v 0.0265891016151377 0.170392304845413 0.2
v -0.2 0.0672141016151377 0.170392304845413
v 0.0672141016151377 -0.170392304845413 0.2
v -0.170392304845413 0.2 -0.0672141016151378
v 0.2 -0.0805349782212866 -0.0546285722102013
v 0.0656782032302755 -0.2 0.115678203230276
v -0.0261847537351154 -0.2 -0.117636399542026
v -0.170392304845413 -0.13058845726812 0.2
v 0.2 -0.129077027587633 0.113149356537454
v -0.0629710097457466 -0.107732383813492 -0.2
v -0.0375045951657 0.2 0.0186461887719207
v 0.0321243556529821 -0.2 -0.108660254037844
v -0.2 0.0321243556529821 -0.15558845726812
v -0.171397395329513 -0.16845777338406 0.2
v 0.172829860474446 -0.2 -0.172830282096742
v 0.170249612619959 -0.2 0.00857272710085791
v -0.030078125 0.0351250977878444 -0.2
v -0.169412367434322 -0.0939460293212509 0.2
v -0.0663304461774693 -0.2 -0.0183420768296574
v -0.028125 0.2 -0.2
v 0.040625 0.2 -0.2
v -0.111480339371154 0.119425798004902 0.2
v 0.175308868502151 -0.2 -0.0804851998123128
v 0.0339284931566852 -0.173060215167288 0.2
v -0.111407929845413 -0.2 0.0297629297401377
v 0.16442276753947 -0.2 0.198556658305299
v 0.0922487774907034 0.2 0.0463519089114882
v 0.2 -0.0412256381787466 -0.2
v 0.0284119783750542 -0.2 0.169188855039202
v -0.0739851099983573 -0.2 0.169329630317106
v -0.075969376958308 0.170323382682453 -0.2
v 0.2 0.0596613579591255 0.156771337755618
v 0.170392304845413 0.109428203230275 0.2
v -0.2 0.105786871204488 -0.166016446939939
v 0.170437281208695 -0.2 -0.11033852093281
v -0.170079233566386 -0.2 -0.10503287930114
v 0.170217550375604 0.2 -0.00951924860665618
v 0.2 0.2 0.166666666666667
v -0.166666666666667 -0.2 -0.2
v -0.2 0.0301492709966842 -0.0619443620165096
v -0.0333381635648332 0.0819997873331104 0.2
v -0.0339632515929579 -0.0509432823705092 0.2
v 0.108660254037844 -0.0555884572681199 0.2
v -0.2 -0.132124355652982 -0.0617320508075689
v -0.2 -0.0585019599777477 0.00525981349952438
v 0.2 -0.0321411427464974 -0.100793229274377
v 0.2 -0.104605956625724 -0.0324309283630057
v -0.00391509286562713 -0.0799655138451812 0.2
v -0.2 -0.0379688693700289 -0.0134324486875109
v 0.132124355652982 0.0617320508075689 0.2
v 0.0617320508075689 0.2 0.132124355652982
v 0.0321243556529821 0.00866025403784438 -0.2
v -0.00251295013004217 -0.166172562129852 0.2
v 0.132111054845413 -0.0148703516151378 -0.2
v 0.2 0.144742452266311 -0.069180183740445
v -0.0234641016151378 -0.2 -0.0234641016151378
v 0.0765138316723887 0.0688099592902447 -0.2
v -0.0234641016151378 -0.2 -0.0703923048454133
v -0.0703923048454133 -0.2 -0.0703923048454133
v 0.117320508075689 -0.0703923048454133 -0.2
v -0.2 -0.0234641016151378 0.117320508075689
v -0.2 -0.0703923048454133 -0.0703923048454133
v -0.0724808314571564 -0.2 0.118094367203887
v -0.0470714771551582 0.2 0.0574421802227641
v -0.117320508075689 0.2 -0.0703923048454133
v -0.117320508075689 -0.2 -0.0703923048454133
v -0.2 0.117320508075689 -0.117320508075689
v 0.2 0.0703923048454132 -0.117320508075689
v 0.2 0.00895271196024076 0.107934087126849
v 0.0234641016151377 0.117320508075689 0.2
v 0.0234641016151377 -0.2 0.0703923048454132
v 0.2 -0.0240046250239138 0.0223772900014015
v -0.117320508075689 0.0234641016151377 -0.2
v 0.2 0.0263813503707951 0.0245030958813085
v -0.100023085839522 -0.2 -0.2
v 0.2 0.107892304845413 -0.2
v -0.2 -0.0609641016151378 0.170392304845413
v 0.170392304845413 -0.0609641016151378 -0.2
v 0.2 0.0609641016151377 -0.170392304845413
v -0.2 0.0660433485615302 0.114561402111418
v 0.063702176849804 0.2 -0.105229322604428
v -0.2 0.01414748172186 -0.112368760312794
v -0.170392304845413 -0.0429288475772934 -0.2
v -0.2 -0.0481968258917017 -0.16423581981755
v -0.2 -0.136896468690824 0.165172007054684
v -0.144657721245163 -0.2 0.164511408171771
v -0.142227402422707 0.2 0.125079804845413
v -0.0261146126935195 -0.2 0.0829719024277697
v 0.2 0.051978492001038 -0.032160585946479
v 0.026256096058838 0.2 -0.0760322308204626
v -2.84617094217454e-33 0.0617320508075689 0.2
v 0.0617320508075689 0.2 0.093856406460551
v 0.0313053376632999 -0.0955860615338557 -0.2
v -0.2 0.0321243556529821 0
v 0.2 -0.13700710147026 0.0133422837324759
v 0.109906925711359 0.2 0.000595925839904979
v -0.109137422032913 -0.0035488770189222 0.2
v 0.2 -0.2 -0.0277857581814771
v 0.0154052239724894 0.2 0.16911874108867
v -0.121041722555115 0.2 -0.17851347214645
v -0.2 0.2 -0.168313161977841
v -0.2 -0.0246243781961665 -0.2
v 0.2 -0.0313746111151665 0.058509168647859
v -0.112745412058589 0.2 -0.151390169910962
v -0.121928203230276 -0.0609641016151378 -0.2
v -0.0704027944200756 0.0235806993494177 -0.2
v 0.2 -0.109454804845413 0.2
v -0.156942413409596 0.2 0.167305028134622
v 0.171861692718372 -0.0900836500132101 -0.2
v 0.0935618949911003 0.169644464058763 -0.2
v 0.2 -0.0421895018095668 -0.0281213067348531
v 0.0914727540378444 -0.2 0.0629571290378444
v 0.2 0.130140777629342 -0.169199396702354
v -0.137870992371235 0.2 -0.00743042619643628
v 0.2 -0.16406919030418 -0.135184009414848
v -0.167727986635046 -0.2 -0.134932898440749
v 0.2 -0.128946152422707 -0.17779422863406
v 0.170390673952724 -0.0720401124983505 0.2
v 0.2 0.2 -0.0610494054159216
v -0.00212230653518134 -0.2 0.173470499233245
v -0.2 -0.0770063282302755 0.0465109766151377
v 0.115811972436191 0.2 -0.137377665036385
v 0.0336243850672303 0.142484105866116 -0.2
v 0.145392304845413 0.170392304845413 -0.2
v -0.170392304845413 -0.00433012701892221 0.2
v -0.160196152422707 0.121928203230275 -0.2
v 0.2 -0.171499194934075 0.0455410277679269
v -0.170139601850054 -0.144869365902162 -0.2
v -0.2 0.00350062180383356 -0.170392304845413
v -0.2 0.169729518614559 -0.0810917064703797
v 0.0906782032302755 -0.2 0.170392304845413
v 0.0172141016151377 -0.2 -0.2
v 0.0560460580012919 0.171242730727886 0.2
v -0.0627836463804005 0.2 -0.170734183849985
v -0.2 0.169774290872318 0.2
v -0.2 0.2 0.170392304845413
v 0.2 -0.2 0.169873802121705
v 0.2 0.170392304845413 -0.2
v -0.0927932215794888 0.2 0.168633281886652
v 0.2 -0.140784609690827 0.170392304845413
v 0.2 -0.170392304845413 0.2
v 0.2 -0.170392304845413 0.140784609690827
v -0.109428203230276 0.175 0.2
v 0.2 -0.0224910406245449 0.2
v -0.0700174358306703 -0.2 -0.114773066338193
v 0.151258330249198 -0.0376411425416062 0.2
v 0.143696802395648 0.112770292689392 -0.2
v -0.2 -0.0241226806130549 -0.0928289414839249
v 0.066062177826491 0.0808660254037844 0.2
v -0.121928203230276 0.2 0.2
v 0.100751854988684 -0.175614740286096 0.2
v 0.13840095726812 -0.2 -0.0660954298454133
v -0.140784609690827 0.0191339745962155 0.2
v -0.179609040386498 0.2 0.11390166375587
v 0.065869650733076 -0.0743813334109722 0.2
v 0.0748297658350968 0.124416405206706 -0.2
v 0.0703923048454132 -0.2 -0.0617320508075689
v 0.2 0.15264705369942 -0.0257081223619788
v -0.159086890178976 0.0639042835468582 -0.2
v -0.0703923048454133 -0.15558845726812 -0.2
v 0.2 -0.125654875376762 -0.0905338699229651
v -0.120834461204595 -0.0123787277410884 -0.2
v 0.123750001172219 -0.116296502978165 -0.2
v 0.0209019704689235 -0.2 -0.0185854709270095
v 0.2 0.0617320508075688 0.0234641016151377
v -0.2 0.15558845726812 0.0234641016151377
v 0.2 -0.0914461524227067 -0.17779422863406
v 0.12777107080386 0.117480004867712 0.2
v 0.0436273244027639 -0.2 -0.137189519155061
v -0.115678203230276 0.2 -0.109428203230276
v 0.0491459039300958 -0.00178584723669198 0.2
v 0.0791121526900719 -0.2 -0.0212871449501754
v -0.130192206406841 0.0717979173364694 0.2
v -0.2 -0.2 0.0688032032302755
v -0.2 0.144315498312497 -0.0699030246559568
v -0.0958167149919539 0.0710588166977213 -0.2
f 1 482 5
f 1 5 547
f 1 309 482
f 1 547 309
f 2 292 482
f 2 502 292
f 2 482 624
f 2 490 502
f 2 544 490
f 2 624 544
f 3 461 178
f 3 178 462
f 3 462 439
f 3 439 502
f 3 544 461
f 3 502 490
f 3 490 544
f 4 522 6
f 4 6 593
f 4 20 522
f 4 594 20
f 4 183 101
f 4 101 594
f 4 593 183
f 5 447 211
f 5 211 636
f 5 482 447
f 5 636 547
f 6 516 491
f 6 491 593
f 6 522 516
f 7 183 143
f 7 143 250
f 7 149 297
f 7 629 149
f 7 410 183
f 7 250 505
f 7 297 410
f 7 505 629
f 8 277 252
f 8 252 447
f 8 272 277
f 8 292 272
f 8 447 292
f 9 257 483
f 9 526 257
f 9 473 491
f 9 585 473
f 9 483 585
f 9 491 526
f 10 591 447
f 10 447 592
f 10 610 591
f 10 592 610
f 11 254 253
f 11 253 479
f 11 633 254
f 11 483 257
f 11 257 633
f 11 479 478
f 11 478 483
f 12 71 548
f 12 590 71
f 12 189 347
f 12 356 189
f 12 347 339
f 12 339 590
f 12 548 356
f 13 500 156
f 13 156 588
f 13 221 494
f 13 588 221
f 13 494 281
f 13 281 500
f 14 131 432
f 14 681 131
f 14 253 254
f 14 510 253
f 14 254 681
f 14 432 414
f 14 414 510
f 15 484 22
f 15 22 634
f 15 66 392
f 15 634 66
f 15 392 542
f 15 542 484
f 16 23 484
f 16 609 23
f 16 484 306
f 16 306 609
f 17 407 512
f 17 638 407
f 17 445 413
f 17 413 638
f 17 506 445
f 17 512 506
f 18 258 368
f 18 662 258
f 18 285 477
f 18 501 285
f 18 368 501
f 18 477 433
f 18 433 662
f 19 208 24
f 19 24 644
f 19 643 208
f 19 301 643
f 19 644 301
f 20 255 346
f 20 594 255
f 20 346 522
f 21 591 67
f 21 67 613
f 21 499 211
f 21 211 591
f 21 613 499
f 22 23 256
f 22 484 23
f 22 256 367
f 22 367 435
f 22 435 634
f 23 608 256
f 23 475 608
f 23 609 475
f 24 208 25
f 24 25 651
f 24 133 616
f 24 658 133
f 24 616 644
f 24 651 658
f 25 208 131
f 25 131 530
f 25 530 651
f 26 133 95
f 26 95 241
f 26 595 133
f 26 241 426
f 26 290 258
f 26 258 595
f 26 426 290
f 27 312 93
f 27 93 527
f 27 116 115
f 27 115 533
f 27 527 116
f 27 533 312
f 28 106 78
f 28 78 173
f 28 194 106
f 28 173 455
f 28 605 194
f 28 455 605
f 29 243 164
f 29 164 255
f 29 497 243
f 29 255 538
f 29 274 480
f 29 538 274
f 29 480 497
f 30 256 129
f 30 129 642
f 30 539 256
f 30 528 275
f 30 275 539
f 30 276 528
f 30 642 276
f 31 419 508
f 31 684 419
f 31 508 525
f 31 525 614
f 31 614 684
f 32 459 84
f 32 84 640
f 32 86 94
f 32 640 86
f 32 94 474
f 32 348 267
f 32 267 459
f 32 474 348
f 33 114 99
f 33 99 509
f 33 191 114
f 33 607 191
f 33 509 341
f 33 341 607
f 34 124 126
f 34 307 124
f 34 126 514
f 34 537 307
f 34 514 408
f 34 408 537
f 35 179 495
f 35 535 179
f 35 405 244
f 35 244 600
f 35 313 535
f 35 600 313
f 35 442 405
f 35 495 442
f 36 152 158
f 36 529 152
f 36 158 492
f 36 180 529
f 36 618 180
f 36 492 618
f 37 311 408
f 37 511 311
f 37 639 320
f 37 320 659
f 37 408 639
f 37 659 511
f 38 69 83
f 38 324 69
f 38 83 496
f 38 496 179
f 38 179 604
f 38 450 324
f 38 329 450
f 38 604 329
f 39 205 82
f 39 82 269
f 39 113 251
f 39 659 113
f 39 251 205
f 39 269 511
f 39 511 659
f 40 89 148
f 40 327 89
f 40 117 331
f 40 562 117
f 40 148 436
f 40 331 327
f 40 436 562
f 41 44 437
f 41 523 44
f 41 130 222
f 41 360 130
f 41 222 485
f 41 259 360
f 41 437 259
f 41 485 523
f 42 62 454
f 42 486 62
f 42 90 91
f 42 340 90
f 42 91 102
f 42 102 486
f 42 454 340
f 43 498 75
f 43 75 524
f 43 127 481
f 43 524 127
f 43 216 498
f 43 620 216
f 43 481 620
f 44 543 437
f 44 523 543
f 45 57 303
f 45 489 57
f 45 158 187
f 45 492 158
f 45 187 489
f 45 303 632
f 45 632 492
f 46 485 50
f 46 50 487
f 46 523 485
f 46 487 523
f 47 448 377
f 47 377 543
f 47 623 448
f 47 543 487
f 47 487 623
f 48 127 394
f 48 415 127
f 48 635 214
f 48 214 650
f 48 323 415
f 48 650 323
f 48 394 635
f 49 113 534
f 49 649 113
f 49 534 302
f 49 302 645
f 49 645 308
f 49 308 649
f 50 222 345
f 50 485 222
f 50 345 493
f 50 625 487
f 50 493 625
f 51 271 319
f 51 615 271
f 51 319 652
f 51 626 615
f 51 654 626
f 51 652 654
f 52 536 351
f 52 351 675
f 52 493 617
f 52 675 493
f 52 586 536
f 52 617 586
f 53 229 386
f 53 611 229
f 53 422 376
f 53 376 476
f 53 386 422
f 53 476 580
f 53 580 611
f 54 338 513
f 54 619 338
f 54 513 350
f 54 350 554
f 54 355 395
f 54 554 355
f 54 395 619
f 55 148 89
f 55 89 655
f 55 326 148
f 55 587 326
f 55 584 466
f 55 466 587
f 55 655 584
f 56 488 102
f 56 102 541
f 56 387 322
f 56 322 488
f 56 541 387
f 57 489 137
f 57 137 646
f 57 646 303
f 58 456 270
f 58 270 460
f 58 464 453
f 58 453 489
f 58 489 456
f 58 460 464
f 59 239 100
f 59 100 260
f 59 201 411
f 59 441 201
f 59 440 239
f 59 411 240
f 59 240 440
f 59 260 342
f 59 342 441
f 60 486 488
f 60 546 486
f 60 488 546
f 61 151 153
f 61 529 151
f 61 317 152
f 61 152 529
f 61 153 275
f 61 275 528
f 61 276 317
f 61 528 276
f 62 202 465
f 62 546 202
f 62 465 454
f 62 486 546
f 63 271 103
f 63 103 517
f 63 319 271
f 63 386 319
f 63 422 386
f 63 517 422
f 64 211 499
f 64 636 211
f 64 287 273
f 64 273 547
f 64 499 287
f 64 547 636
f 65 469 67
f 65 67 591
f 65 391 261
f 65 261 469
f 65 610 391
f 65 591 610
f 66 667 392
f 66 634 468
f 66 468 667
f 67 246 613
f 67 670 246
f 67 469 670
f 68 112 205
f 68 626 112
f 68 205 251
f 68 251 384
f 68 384 615
f 68 615 626
f 69 589 83
f 69 324 268
f 69 268 589
f 70 578 81
f 70 81 599
f 70 416 578
f 70 657 416
f 70 599 657
f 71 197 548
f 71 656 197
f 71 590 389
f 71 389 656
f 72 218 381
f 72 614 218
f 72 381 246
f 72 246 670
f 72 670 581
f 72 581 684
f 72 684 614
f 73 335 350
f 73 669 335
f 73 350 513
f 73 513 362
f 73 362 669
f 74 409 154
f 74 154 654
f 74 388 409
f 74 652 388
f 74 654 652
f 75 190 606
f 75 660 190
f 75 498 200
f 75 200 660
f 75 606 524
f 76 257 194
f 76 194 605
f 76 254 633
f 76 661 254
f 76 633 257
f 76 605 455
f 76 455 661
f 77 79 106
f 77 679 79
f 77 106 108
f 77 108 679
f 78 106 79
f 78 79 549
f 78 247 173
f 78 549 247
f 79 80 599
f 79 679 80
f 79 599 549
f 80 657 599
f 80 679 657
f 81 578 549
f 81 549 599
f 82 205 551
f 82 382 269
f 82 663 382
f 82 551 663
f 83 140 496
f 83 598 140
f 83 589 598
f 84 219 223
f 84 459 219
f 84 223 443
f 84 443 359
f 84 359 640
f 85 509 99
f 85 99 578
f 85 416 161
f 85 161 641
f 85 578 416
f 85 641 509
f 86 520 94
f 86 640 359
f 86 359 677
f 86 677 520
f 87 238 240
f 87 322 238
f 87 240 412
f 87 488 322
f 87 412 546
f 87 546 488
f 88 173 247
f 88 681 173
f 88 247 248
f 88 248 530
f 88 530 681
f 89 327 159
f 89 159 655
f 90 161 91
f 90 641 161
f 90 340 641
f 91 676 102
f 91 161 676
f 92 161 657
f 92 676 161
f 92 558 541
f 92 541 676
f 92 657 558
f 93 193 527
f 93 567 193
f 93 312 204
f 93 204 574
f 93 207 567
f 93 574 207
f 94 195 515
f 94 520 195
f 94 653 474
f 94 515 653
f 95 98 97
f 95 97 241
f 95 647 98
f 95 133 647
f 96 127 415
f 96 481 127
f 96 383 128
f 96 128 620
f 96 321 383
f 96 415 321
f 96 620 481
f 97 98 191
f 97 191 176
f 97 176 417
f 97 417 241
f 98 114 191
f 98 385 114
f 98 647 385
f 99 114 110
f 99 110 578
f 100 239 404
f 100 666 260
f 100 404 666
f 101 183 682
f 101 457 594
f 101 682 457
f 102 488 486
f 102 676 541
f 103 271 648
f 103 648 308
f 103 308 650
f 103 650 517
f 104 452 387
f 104 387 541
f 104 409 388
f 104 388 452
f 104 558 409
f 104 541 558
f 105 109 212
f 105 679 109
f 105 212 111
f 105 111 657
f 105 657 679
f 106 550 108
f 106 467 171
f 106 171 550
f 106 194 467
f 107 117 225
f 107 226 117
f 107 217 146
f 107 146 560
f 107 471 217
f 107 225 471
f 107 560 226
f 108 556 181
f 108 181 679
f 108 550 196
f 108 196 556
f 109 181 663
f 109 679 181
f 109 551 212
f 109 663 551
f 110 114 249
f 110 248 549
f 110 651 248
f 110 249 651
f 110 549 578
f 111 212 154
f 111 154 409
f 111 409 558
f 111 558 657
f 112 154 551
f 112 654 154
f 112 551 205
f 112 626 654
f 113 384 251
f 113 320 534
f 113 659 320
f 113 649 384
f 114 385 249
f 115 116 118
f 115 118 119
f 115 119 315
f 115 315 533
f 116 121 118
f 116 564 121
f 116 527 193
f 116 193 564
f 117 166 224
f 117 562 166
f 117 224 225
f 117 226 331
f 118 596 119
f 118 121 122
f 118 122 596
f 119 120 316
f 119 596 120
f 119 571 315
f 119 316 571
f 120 124 307
f 120 596 124
f 120 307 316
f 121 470 122
f 121 672 470
f 121 564 672
f 122 470 125
f 122 125 579
f 122 579 596
f 123 337 209
f 123 209 583
f 123 653 337
f 123 348 474
f 123 583 348
f 123 474 653
f 124 579 126
f 124 596 579
f 125 126 579
f 125 620 126
f 125 216 620
f 125 680 216
f 125 470 680
f 126 128 514
f 126 620 128
f 127 524 394
f 128 383 514
f 129 612 132
f 129 132 642
f 129 256 608
f 129 608 612
f 130 671 222
f 130 223 227
f 130 443 223
f 130 227 671
f 130 360 359
f 130 359 443
f 131 208 432
f 131 681 530
f 132 177 276
f 132 612 177
f 132 276 642
f 133 595 366
f 133 366 616
f 133 385 647
f 133 658 385
f 134 136 135
f 134 135 177
f 134 371 136
f 134 177 678
f 134 370 371
f 134 573 370
f 134 678 573
f 135 136 418
f 135 138 177
f 135 418 138
f 136 371 373
f 136 373 449
f 136 519 418
f 136 449 519
f 137 453 398
f 137 398 621
f 137 621 400
f 137 400 646
f 137 489 453
f 138 139 177
f 138 598 139
f 138 418 140
f 138 140 598
f 139 317 177
f 139 318 317
f 139 598 318
f 140 418 141
f 140 141 496
f 141 418 142
f 141 142 442
f 141 442 495
f 141 495 496
f 142 418 519
f 142 444 442
f 142 519 444
f 143 183 593
f 143 473 250
f 143 593 473
f 144 263 250
f 144 250 473
f 144 569 263
f 144 478 264
f 144 264 569
f 144 473 585
f 144 585 478
f 145 153 150
f 145 150 508
f 145 419 153
f 145 508 419
f 146 147 155
f 146 525 147
f 146 155 560
f 146 217 218
f 146 218 525
f 147 150 427
f 147 508 150
f 147 427 155
f 147 525 508
f 148 326 436
f 149 296 297
f 149 299 296
f 149 629 299
f 150 153 157
f 150 157 427
f 151 631 153
f 151 529 180
f 151 180 631
f 152 379 158
f 152 317 472
f 152 472 379
f 153 631 157
f 153 163 275
f 153 419 163
f 154 212 551
f 155 331 226
f 155 226 560
f 155 565 331
f 155 427 565
f 156 168 264
f 156 500 168
f 156 264 265
f 156 265 588
f 157 159 565
f 157 664 159
f 157 631 180
f 157 180 664
f 157 565 427
f 158 630 187
f 158 379 630
f 159 160 655
f 159 664 160
f 159 327 565
f 160 180 618
f 160 664 180
f 160 632 291
f 160 291 655
f 160 618 632
f 161 416 657
f 162 564 193
f 162 193 566
f 162 566 428
f 162 428 672
f 162 672 564
f 163 539 275
f 163 419 367
f 163 367 539
f 164 167 165
f 164 165 184
f 164 243 167
f 164 184 346
f 164 346 255
f 165 167 467
f 165 185 184
f 165 467 185
f 166 227 224
f 166 568 227
f 166 562 568
f 167 196 171
f 167 171 467
f 167 174 175
f 167 243 174
f 167 175 196
f 168 262 263
f 168 500 262
f 168 263 569
f 168 569 264
f 169 266 221
f 169 221 588
f 169 265 510
f 169 588 265
f 169 414 266
f 169 510 414
f 170 221 266
f 170 494 221
f 170 266 477
f 170 285 283
f 170 283 494
f 170 477 285
f 171 196 550
f 172 362 363
f 172 669 362
f 172 363 507
f 172 507 448
f 172 448 669
f 173 681 455
f 174 431 175
f 174 243 497
f 174 561 431
f 174 497 561
f 175 556 196
f 175 431 556
f 176 191 607
f 176 245 425
f 176 607 245
f 176 425 417
f 177 317 276
f 177 612 678
f 178 461 503
f 178 504 462
f 178 503 682
f 178 682 504
f 179 535 325
f 179 325 604
f 179 496 495
f 181 431 382
f 181 382 663
f 181 556 431
f 182 269 382
f 182 511 269
f 182 382 431
f 182 431 532
f 182 532 511
f 183 410 682
f 184 185 516
f 184 522 346
f 184 516 522
f 185 467 186
f 185 186 526
f 185 526 516
f 186 194 257
f 186 467 194
f 186 257 526
f 187 456 489
f 187 630 456
f 188 228 437
f 188 660 228
f 188 437 543
f 188 543 531
f 188 531 660
f 189 356 280
f 189 280 683
f 189 683 347
f 190 531 378
f 190 378 606
f 190 660 531
f 192 566 193
f 192 193 567
f 192 515 195
f 192 195 566
f 192 567 207
f 192 207 653
f 192 653 515
f 195 199 428
f 195 520 199
f 195 428 566
f 197 278 570
f 197 656 278
f 197 279 557
f 197 570 279
f 197 305 304
f 197 304 548
f 197 557 305
f 198 277 272
f 198 272 552
f 198 570 277
f 198 295 298
f 198 552 295
f 198 298 570
f 199 228 665
f 199 677 228
f 199 672 428
f 199 520 677
f 199 665 672
f 200 228 660
f 200 665 228
f 200 498 680
f 200 680 665
f 201 202 411
f 201 465 202
f 201 441 328
f 201 328 465
f 202 412 411
f 202 546 412
f 203 204 544
f 203 574 204
f 203 337 207
f 203 207 574
f 203 210 337
f 203 544 210
f 204 312 206
f 204 206 461
f 204 461 544
f 206 312 533
f 206 330 503
f 206 533 330
f 206 503 461
f 207 337 653
f 208 643 432
f 209 210 309
f 209 337 210
f 209 309 293
f 209 293 583
f 210 624 309
f 210 544 624
f 211 447 591
f 213 386 229
f 213 229 577
f 213 232 233
f 213 577 232
f 213 233 388
f 213 319 386
f 213 652 319
f 213 388 652
f 214 375 376
f 214 635 375
f 214 376 517
f 214 517 650
f 215 217 220
f 215 420 217
f 215 220 219
f 215 219 288
f 215 288 518
f 215 518 420
f 216 680 498
f 217 381 218
f 217 471 220
f 217 420 381
f 218 614 525
f 219 220 601
f 219 601 223
f 219 459 288
f 220 471 601
f 222 671 345
f 223 224 227
f 223 601 224
f 224 601 225
f 225 601 471
f 227 568 289
f 227 289 671
f 228 677 437
f 229 230 231
f 229 611 230
f 229 231 577
f 230 336 231
f 230 582 336
f 230 580 582
f 230 611 580
f 231 336 235
f 231 235 424
f 231 424 577
f 232 540 233
f 232 424 540
f 232 577 424
f 233 452 388
f 233 540 452
f 234 235 336
f 234 429 235
f 234 336 673
f 234 673 429
f 235 236 237
f 235 429 236
f 235 237 424
f 236 238 237
f 236 240 238
f 236 429 239
f 236 239 440
f 236 440 240
f 237 238 322
f 237 322 424
f 239 429 404
f 240 411 412
f 241 417 242
f 241 242 572
f 241 572 426
f 242 244 405
f 242 425 244
f 242 405 444
f 242 417 425
f 242 444 572
f 244 425 245
f 244 245 600
f 245 463 559
f 245 607 463
f 245 559 600
f 246 420 380
f 246 380 613
f 246 381 420
f 247 549 248
f 248 651 530
f 249 385 651
f 250 263 505
f 252 277 389
f 252 389 592
f 252 592 447
f 253 510 479
f 254 661 681
f 255 594 538
f 256 539 367
f 258 290 368
f 258 366 595
f 258 662 366
f 259 359 360
f 259 677 359
f 259 437 677
f 260 545 342
f 260 458 545
f 260 666 458
f 261 343 392
f 261 521 343
f 261 391 521
f 261 392 667
f 261 667 469
f 262 629 263
f 262 374 300
f 262 300 629
f 262 500 374
f 263 629 505
f 264 479 265
f 264 478 479
f 265 479 510
f 266 414 301
f 266 301 477
f 267 348 286
f 267 286 668
f 267 288 459
f 267 668 288
f 268 324 270
f 268 270 456
f 268 456 630
f 268 630 589
f 270 324 451
f 270 451 627
f 270 627 460
f 271 615 384
f 271 384 648
f 272 292 502
f 272 502 552
f 273 287 286
f 273 286 293
f 273 293 547
f 274 316 307
f 274 307 628
f 274 538 316
f 274 628 480
f 277 278 389
f 277 570 278
f 278 656 389
f 279 298 557
f 279 570 298
f 280 281 282
f 280 357 281
f 280 282 683
f 280 356 357
f 281 283 282
f 281 494 283
f 281 357 434
f 281 434 500
f 282 283 674
f 282 284 407
f 282 674 284
f 282 407 683
f 283 285 674
f 284 421 407
f 284 423 421
f 284 674 423
f 285 501 423
f 285 423 674
f 286 287 668
f 286 583 293
f 286 348 583
f 287 518 288
f 287 288 668
f 287 499 380
f 287 380 518
f 289 617 345
f 289 345 671
f 289 568 358
f 289 358 586
f 289 586 617
f 290 372 368
f 290 373 372
f 290 426 373
f 291 632 303
f 291 303 655
f 292 447 482
f 293 309 547
f 294 413 306
f 294 306 542
f 294 542 344
f 294 344 575
f 294 683 413
f 294 575 683
f 295 296 299
f 295 439 296
f 295 299 298
f 295 552 439
f 296 504 297
f 296 439 462
f 296 462 504
f 297 682 410
f 297 504 682
f 298 299 553
f 298 553 557
f 299 629 553
f 300 374 305
f 300 305 557
f 300 557 553
f 300 553 629
f 301 414 432
f 301 432 643
f 301 433 477
f 301 644 433
f 302 534 320
f 302 320 639
f 302 321 415
f 302 639 321
f 302 415 323
f 302 323 645
f 303 646 400
f 303 400 655
f 304 305 602
f 304 356 548
f 304 602 356
f 305 374 434
f 305 434 602
f 306 413 445
f 306 445 609
f 306 484 542
f 307 537 628
f 308 645 323
f 308 323 650
f 308 648 384
f 308 384 649
f 309 624 482
f 310 311 532
f 310 537 311
f 310 561 480
f 310 480 628
f 310 532 561
f 310 628 537
f 311 537 408
f 311 511 532
f 313 314 465
f 313 600 314
f 313 465 328
f 313 328 535
f 314 454 465
f 314 559 454
f 314 600 559
f 315 333 332
f 315 332 533
f 315 334 333
f 315 571 334
f 316 538 334
f 316 334 571
f 317 318 472
f 318 589 472
f 318 598 589
f 321 639 383
f 322 387 540
f 322 540 424
f 324 450 451
f 325 328 441
f 325 535 328
f 325 342 329
f 325 329 604
f 325 441 342
f 326 353 438
f 326 587 353
f 326 438 436
f 327 331 565
f 329 342 545
f 329 545 450
f 330 332 457
f 330 533 332
f 330 457 503
f 332 333 457
f 333 334 594
f 333 594 457
f 334 538 594
f 335 349 350
f 335 675 349
f 335 669 361
f 335 361 675
f 336 582 673
f 338 365 364
f 338 364 555
f 338 619 365
f 338 555 513
f 339 344 343
f 339 343 521
f 339 347 344
f 339 521 590
f 340 463 341
f 340 341 641
f 340 454 463
f 341 463 607
f 341 509 641
f 343 344 542
f 343 542 392
f 344 347 575
f 345 617 493
f 347 683 575
f 349 446 350
f 349 351 446
f 349 675 351
f 350 446 554
f 351 352 446
f 351 536 352
f 352 438 353
f 352 353 446
f 352 536 438
f 353 576 446
f 353 587 576
f 354 395 355
f 354 355 446
f 354 396 395
f 354 576 396
f 354 446 576
f 355 554 446
f 356 602 357
f 357 602 434
f 358 562 536
f 358 536 586
f 358 568 562
f 361 448 623
f 361 669 448
f 361 623 625
f 361 625 675
f 362 555 363
f 362 513 555
f 363 393 507
f 363 603 393
f 363 555 603
f 364 365 476
f 364 476 603
f 364 603 555
f 365 401 580
f 365 619 401
f 365 580 476
f 366 433 644
f 366 662 433
f 366 644 616
f 367 419 684
f 367 684 435
f 368 372 622
f 368 423 501
f 368 622 423
f 369 512 370
f 369 370 573
f 369 506 512
f 369 678 506
f 369 573 678
f 370 622 371
f 370 407 421
f 370 512 407
f 370 421 622
f 371 622 373
f 372 373 622
f 373 426 449
f 374 500 434
f 375 476 376
f 375 603 476
f 375 635 603
f 376 422 517
f 377 448 378
f 377 378 531
f 377 531 543
f 378 448 507
f 378 507 606
f 379 472 589
f 379 589 630
f 380 420 518
f 380 499 613
f 383 408 514
f 383 639 408
f 385 658 651
f 387 452 540
f 389 590 390
f 389 390 610
f 389 610 592
f 390 590 521
f 390 521 637
f 390 637 610
f 391 637 521
f 391 610 637
f 393 394 524
f 393 635 394
f 393 606 507
f 393 524 606
f 393 603 635
f 395 396 430
f 395 430 401
f 395 401 619
f 396 576 397
f 396 397 597
f 396 597 430
f 397 576 403
f 397 403 597
f 398 464 399
f 398 399 576
f 398 453 464
f 398 576 466
f 398 466 621
f 399 563 403
f 399 403 576
f 399 464 563
f 400 621 584
f 400 584 655
f 401 430 402
f 401 402 582
f 401 582 580
f 402 430 597
f 402 673 582
f 402 597 673
f 403 404 429
f 403 666 404
f 403 429 673
f 403 563 666
f 403 673 597
f 405 442 444
f 406 627 458
f 406 458 666
f 406 563 627
f 406 666 563
f 407 638 683
f 413 683 638
f 421 423 622
f 426 572 449
f 431 561 532
f 435 468 634
f 435 684 468
f 436 438 536
f 436 536 562
f 439 552 502
f 444 519 572
f 445 506 609
f 449 572 519
f 450 545 451
f 451 545 458
f 451 458 627
f 454 559 463
f 455 681 661
f 457 682 503
f 460 627 464
f 464 627 563
f 466 576 587
f 466 584 621
f 468 684 667
f 469 667 581
f 469 581 670
f 470 672 680
f 473 593 491
f 475 609 506
f 475 506 678
f 475 612 608
f 475 678 612
f 478 585 483
f 480 561 497
f 487 543 523
f 487 625 623
f 491 516 526
f 492 632 618
f 493 675 625
f 581 667 684
f 665 680 672
