# Blender 4.4.3
# www.blender.org
o ball_1_x-0-0
v 0.089586 -0.000602 0.399776
v 0.134074 -0.000602 0.355000
v 0.158152 -0.000602 0.296498
v 0.161250 -0.000602 0.264837
v 0.158152 -0.000602 0.233176
v 0.134074 -0.000602 0.174674
v 0.032000 -0.006967 0.423892
v 0.060522 -0.012641 0.414773
v 0.087864 -0.018079 0.399776
v 0.111830 -0.022846 0.379593
v 0.131498 -0.026759 0.355000
v 0.146113 -0.029666 0.326943
v 0.155113 -0.031456 0.296498
v 0.158152 -0.032060 0.264837
v 0.155113 -0.031456 0.233176
v 0.146113 -0.029666 0.202732
v 0.131498 -0.026759 0.174674
v 0.111830 -0.022846 0.150081
v 0.087864 -0.018079 0.129898
v 0.060522 -0.012641 0.114901
v 0.032000 -0.006967 0.105782
v 0.030144 -0.013088 0.423892
v 0.057010 -0.024217 0.414773
v 0.082766 -0.034885 0.399776
v 0.105342 -0.044236 0.379593
v 0.123869 -0.051910 0.355000
v 0.137635 -0.057613 0.326943
v 0.146113 -0.061124 0.296498
v 0.148976 -0.062310 0.264837
v 0.146113 -0.061124 0.233176
v 0.137635 -0.057613 0.202732
v 0.123869 -0.051910 0.174674
v 0.105342 -0.044236 0.150081
v 0.082766 -0.034885 0.129898
v 0.057010 -0.024217 0.114901
v 0.030144 -0.013088 0.105782
v 0.027128 -0.018729 0.423892
v 0.051308 -0.034885 0.414773
v 0.074488 -0.050373 0.399776
v 0.094805 -0.063949 0.379593
v 0.111479 -0.075090 0.355000
v 0.123869 -0.083368 0.326943
v 0.131498 -0.088466 0.296498
v 0.134074 -0.090188 0.264837
v 0.131498 -0.088466 0.233176
v 0.123869 -0.083368 0.202732
v 0.111479 -0.075090 0.174674
v 0.094805 -0.063949 0.150081
v 0.074488 -0.050373 0.129898
v 0.051308 -0.034885 0.114901
v 0.027128 -0.018729 0.105782
v 0.023071 -0.023673 0.423892
v 0.043634 -0.044236 0.414773
v 0.063347 -0.063949 0.399776
v 0.080625 -0.081227 0.379593
v 0.094805 -0.095407 0.355000
v 0.105342 -0.105944 0.326943
v 0.111830 -0.112432 0.296498
v 0.114021 -0.114623 0.264837
v 0.111830 -0.112432 0.233176
v 0.105342 -0.105944 0.202732
v 0.094805 -0.095407 0.174674
v 0.080625 -0.081227 0.150081
v 0.063347 -0.063949 0.129898
v 0.043634 -0.044236 0.114901
v 0.023071 -0.023673 0.105782
v 0.018127 -0.027731 0.423892
v 0.034283 -0.051910 0.414773
v 0.049771 -0.075090 0.399776
v 0.063347 -0.095407 0.379593
v 0.074488 -0.112081 0.355000
v 0.082766 -0.124471 0.326943
v 0.087864 -0.132100 0.296498
v 0.089586 -0.134676 0.264837
v 0.087864 -0.132100 0.233176
v 0.082766 -0.124471 0.202732
v 0.074488 -0.112081 0.174674
v 0.063347 -0.095407 0.150081
v 0.049771 -0.075090 0.129898
v 0.034283 -0.051910 0.114901
v 0.018127 -0.027731 0.105782
v -0.000000 -0.000602 0.427777
v 0.012486 -0.030746 0.423892
v 0.023615 -0.057613 0.414773
v 0.034283 -0.083368 0.399776
v 0.043634 -0.105944 0.379593
v 0.051308 -0.124471 0.355000
v 0.057010 -0.138237 0.326943
v 0.060522 -0.146715 0.296498
v 0.061708 -0.149578 0.264837
v 0.060522 -0.146715 0.233176
v 0.057010 -0.138237 0.202732
v 0.051308 -0.124471 0.174674
v 0.043634 -0.105944 0.150081
v 0.034283 -0.083368 0.129898
v 0.023615 -0.057613 0.114901
v 0.012486 -0.030746 0.105782
v 0.006365 -0.032602 0.423892
v 0.012039 -0.061124 0.414773
v 0.017477 -0.088466 0.399776
v 0.022244 -0.112432 0.379593
v 0.026157 -0.132100 0.355000
v 0.029064 -0.146715 0.326943
v 0.030854 -0.155715 0.296498
v 0.031458 -0.158754 0.264837
v 0.030854 -0.155715 0.233176
v 0.029064 -0.146715 0.202732
v 0.026157 -0.132100 0.174674
v 0.022244 -0.112432 0.150081
v 0.017477 -0.088466 0.129898
v 0.012039 -0.061124 0.114901
v 0.006365 -0.032602 0.105782
v -0.000000 -0.033229 0.423892
v -0.000000 -0.062310 0.414773
v -0.000000 -0.090188 0.399776
v -0.000000 -0.114623 0.379593
v -0.000000 -0.134676 0.355000
v 0.000000 -0.149578 0.326943
v -0.000000 -0.158754 0.296498
v -0.000000 -0.161852 0.264837
v -0.000000 -0.158754 0.233176
v 0.000000 -0.149578 0.202732
v -0.000000 -0.134676 0.174674
v -0.000000 -0.114623 0.150081
v -0.000000 -0.090188 0.129898
v -0.000000 -0.062310 0.114901
v -0.000000 -0.033229 0.105782
v -0.006365 -0.032602 0.423892
v -0.012039 -0.061124 0.414773
v -0.017477 -0.088466 0.399776
v -0.022244 -0.112432 0.379593
v -0.026157 -0.132100 0.355000
v -0.029064 -0.146715 0.326943
v -0.030854 -0.155715 0.296498
v -0.031458 -0.158754 0.264837
v -0.030854 -0.155715 0.233176
v -0.029064 -0.146715 0.202732
v -0.026157 -0.132100 0.174674
v -0.022244 -0.112432 0.150081
v -0.017477 -0.088466 0.129898
v -0.012039 -0.061124 0.114901
v -0.006365 -0.032602 0.105782
v -0.012486 -0.030746 0.423892
v -0.023615 -0.057613 0.414773
v -0.034283 -0.083368 0.399776
v -0.043634 -0.105944 0.379593
v -0.051308 -0.124471 0.355000
v -0.057010 -0.138237 0.326943
v -0.060522 -0.146715 0.296498
v -0.061708 -0.149578 0.264837
v -0.060522 -0.146715 0.233176
v -0.057010 -0.138237 0.202732
v -0.051308 -0.124471 0.174674
v -0.043634 -0.105944 0.150081
v -0.034283 -0.083368 0.129898
v -0.023615 -0.057613 0.114901
v -0.012486 -0.030746 0.105782
v -0.018127 -0.027731 0.423892
v -0.034283 -0.051910 0.414773
v -0.049771 -0.075090 0.399776
v -0.063347 -0.095407 0.379593
v -0.074488 -0.112081 0.355000
v -0.082766 -0.124471 0.326943
v -0.087864 -0.132100 0.296498
v -0.089586 -0.134676 0.264837
v -0.087864 -0.132100 0.233176
v -0.082766 -0.124471 0.202732
v -0.074488 -0.112081 0.174674
v -0.063347 -0.095407 0.150081
v -0.049771 -0.075090 0.129898
v -0.034283 -0.051910 0.114901
v -0.018127 -0.027731 0.105782
v -0.023071 -0.023673 0.423892
v -0.043634 -0.044236 0.414773
v -0.063347 -0.063949 0.399776
v -0.080625 -0.081227 0.379593
v -0.094805 -0.095407 0.355000
v -0.105342 -0.105944 0.326943
v -0.111830 -0.112432 0.296498
v -0.114021 -0.114623 0.264837
v -0.111830 -0.112432 0.233176
v -0.105342 -0.105944 0.202732
v -0.094805 -0.095407 0.174674
v -0.080625 -0.081227 0.150081
v -0.063347 -0.063949 0.129898
v -0.043634 -0.044236 0.114901
v -0.023071 -0.023673 0.105782
v -0.027128 -0.018729 0.423892
v -0.051308 -0.034885 0.414773
v -0.074488 -0.050373 0.399776
v -0.094805 -0.063949 0.379593
v -0.111479 -0.075090 0.355000
v -0.123869 -0.083368 0.326943
v -0.131498 -0.088466 0.296498
v -0.134074 -0.090188 0.264837
v -0.131498 -0.088466 0.233176
v -0.123869 -0.083368 0.202732
v -0.111479 -0.075090 0.174674
v -0.094805 -0.063949 0.150081
v -0.074488 -0.050373 0.129898
v -0.051308 -0.034885 0.114901
v -0.027128 -0.018729 0.105782
v -0.030144 -0.013088 0.423892
v -0.057010 -0.024217 0.414773
v -0.082766 -0.034885 0.399776
v -0.105342 -0.044236 0.379593
v -0.123869 -0.051910 0.355000
v -0.137635 -0.057613 0.326943
v -0.146113 -0.061124 0.296498
v -0.148975 -0.062310 0.264837
v -0.146113 -0.061124 0.233176
v -0.137635 -0.057613 0.202732
v -0.123869 -0.051910 0.174674
v -0.105342 -0.044236 0.150081
v -0.082766 -0.034885 0.129898
v -0.057010 -0.024217 0.114901
v -0.030144 -0.013088 0.105782
v -0.032000 -0.006967 0.423892
v -0.060522 -0.012641 0.414773
v -0.087864 -0.018079 0.399776
v -0.111830 -0.022846 0.379593
v -0.131498 -0.026759 0.355000
v -0.146113 -0.029666 0.326943
v -0.155113 -0.031456 0.296498
v -0.158151 -0.032060 0.264837
v -0.155113 -0.031456 0.233176
v -0.146113 -0.029666 0.202732
v -0.131498 -0.026759 0.174674
v -0.111830 -0.022846 0.150081
v -0.087864 -0.018079 0.129898
v -0.060522 -0.012641 0.114901
v -0.032000 -0.006967 0.105782
v -0.032627 -0.000602 0.423892
v -0.061708 -0.000602 0.414773
v -0.089586 -0.000602 0.399776
v -0.114021 -0.000602 0.379593
v -0.134074 -0.000602 0.355000
v -0.148975 -0.000602 0.326943
v -0.158152 -0.000602 0.296498
v -0.161250 -0.000602 0.264837
v -0.158152 -0.000602 0.233176
v -0.148975 -0.000602 0.202732
v -0.134074 -0.000602 0.174674
v -0.114021 -0.000602 0.150081
v -0.089586 -0.000602 0.129898
v -0.061708 -0.000602 0.114901
v -0.032627 -0.000602 0.105782
v -0.032000 0.005763 0.423892
v -0.060522 0.011437 0.414773
v -0.087864 0.016875 0.399776
v -0.111830 0.021642 0.379593
v -0.131498 0.025555 0.355000
v -0.146113 0.028462 0.326943
v -0.155113 0.030252 0.296498
v -0.158151 0.030856 0.264837
v -0.155113 0.030252 0.233176
v -0.146113 0.028462 0.202732
v -0.131498 0.025555 0.174674
v -0.111830 0.021642 0.150081
v -0.087864 0.016875 0.129898
v -0.060522 0.011437 0.114901
v -0.032000 0.005763 0.105782
v -0.030144 0.011884 0.423892
v -0.057010 0.023012 0.414773
v -0.082766 0.033681 0.399776
v -0.105342 0.043032 0.379593
v -0.123869 0.050706 0.355000
v -0.137635 0.056408 0.326943
v -0.146113 0.059920 0.296498
v -0.148975 0.061106 0.264837
v -0.146113 0.059920 0.233176
v -0.137635 0.056408 0.202732
v -0.123869 0.050706 0.174674
v -0.105342 0.043032 0.150081
v -0.082766 0.033681 0.129898
v -0.057010 0.023012 0.114901
v -0.030144 0.011884 0.105782
v -0.027128 0.017525 0.423892
v -0.051308 0.033681 0.414773
v -0.074488 0.049169 0.399776
v -0.094805 0.062745 0.379593
v -0.111479 0.073886 0.355000
v -0.123869 0.082164 0.326943
v -0.131498 0.087262 0.296498
v -0.134074 0.088984 0.264837
v -0.131498 0.087262 0.233176
v -0.123869 0.082164 0.202732
v -0.111479 0.073886 0.174674
v -0.094805 0.062745 0.150081
v -0.074488 0.049169 0.129898
v -0.051308 0.033681 0.114901
v -0.027128 0.017525 0.105782
v -0.023071 0.022469 0.423892
v -0.043634 0.043032 0.414773
v -0.063347 0.062745 0.399776
v -0.080625 0.080023 0.379593
v -0.094805 0.094203 0.355000
v -0.105342 0.104739 0.326943
v -0.111830 0.111228 0.296498
v -0.114021 0.113419 0.264837
v -0.111830 0.111228 0.233176
v -0.105342 0.104739 0.202732
v -0.094805 0.094203 0.174674
v -0.080625 0.080023 0.150081
v -0.063347 0.062745 0.129898
v -0.043634 0.043032 0.114901
v -0.023071 0.022469 0.105782
v -0.000000 -0.000602 0.101897
v -0.018127 0.026526 0.423892
v -0.034283 0.050706 0.414773
v -0.049771 0.073886 0.399776
v -0.063347 0.094203 0.379593
v -0.074488 0.110877 0.355000
v -0.082766 0.123267 0.326943
v -0.087864 0.130896 0.296498
v -0.089586 0.133472 0.264837
v -0.087864 0.130896 0.233176
v -0.082766 0.123267 0.202732
v -0.074488 0.110877 0.174674
v -0.063347 0.094203 0.150081
v -0.049771 0.073886 0.129898
v -0.034283 0.050706 0.114901
v -0.018127 0.026526 0.105782
v -0.012486 0.029541 0.423892
v -0.023614 0.056408 0.414773
v -0.034283 0.082164 0.399776
v -0.043634 0.104740 0.379593
v -0.051308 0.123267 0.355000
v -0.057010 0.137033 0.326943
v -0.060522 0.145511 0.296498
v -0.061708 0.148373 0.264837
v -0.060522 0.145511 0.233176
v -0.057010 0.137033 0.202732
v -0.051308 0.123266 0.174674
v -0.043634 0.104740 0.150081
v -0.034283 0.082164 0.129898
v -0.023614 0.056408 0.114901
v -0.012486 0.029541 0.105782
v -0.006365 0.031398 0.423892
v -0.012039 0.059920 0.414773
v -0.017477 0.087262 0.399776
v -0.022244 0.111228 0.379593
v -0.026157 0.130896 0.355000
v -0.029064 0.145511 0.326943
v -0.030854 0.154511 0.296498
v -0.031458 0.157549 0.264837
v -0.030854 0.154511 0.233176
v -0.029064 0.145511 0.202732
v -0.026157 0.130896 0.174674
v -0.022244 0.111228 0.150081
v -0.017477 0.087262 0.129898
v -0.012039 0.059920 0.114901
v -0.006365 0.031398 0.105782
v 0.000000 0.032025 0.423892
v 0.000000 0.061106 0.414773
v 0.000000 0.088984 0.399776
v 0.000000 0.113419 0.379593
v 0.000000 0.133472 0.355000
v 0.000000 0.148373 0.326943
v 0.000000 0.157549 0.296498
v 0.000000 0.160648 0.264837
v 0.000000 0.157549 0.233176
v 0.000000 0.148373 0.202732
v 0.000000 0.133472 0.174674
v 0.000000 0.113419 0.150081
v 0.000000 0.088984 0.129898
v 0.000000 0.061106 0.114901
v 0.000000 0.032025 0.105782
v 0.006365 0.031398 0.423892
v 0.012039 0.059920 0.414773
v 0.017477 0.087262 0.399776
v 0.022244 0.111228 0.379593
v 0.026157 0.130896 0.355000
v 0.029064 0.145511 0.326943
v 0.030854 0.154511 0.296498
v 0.031458 0.157549 0.264837
v 0.030854 0.154511 0.233176
v 0.029064 0.145511 0.202732
v 0.026157 0.130896 0.174674
v 0.022244 0.111228 0.150081
v 0.017477 0.087262 0.129898
v 0.012039 0.059920 0.114901
v 0.006365 0.031398 0.105782
v 0.012486 0.029541 0.423892
v 0.023615 0.056408 0.414773
v 0.034283 0.082164 0.399776
v 0.043634 0.104739 0.379593
v 0.051308 0.123266 0.355000
v 0.057010 0.137033 0.326943
v 0.060522 0.145511 0.296498
v 0.061708 0.148373 0.264837
v 0.060522 0.145511 0.233176
v 0.057010 0.137033 0.202732
v 0.051308 0.123266 0.174674
v 0.043634 0.104739 0.150081
v 0.034283 0.082164 0.129898
v 0.023615 0.056408 0.114901
v 0.012486 0.029541 0.105782
v 0.018127 0.026526 0.423892
v 0.034283 0.050706 0.414773
v 0.049771 0.073886 0.399776
v 0.063347 0.094203 0.379593
v 0.074488 0.110877 0.355000
v 0.082766 0.123266 0.326943
v 0.087864 0.130896 0.296498
v 0.089586 0.133472 0.264837
v 0.087864 0.130896 0.233176
v 0.082766 0.123266 0.202732
v 0.074488 0.110877 0.174674
v 0.063347 0.094203 0.150081
v 0.049771 0.073886 0.129898
v 0.034283 0.050706 0.114901
v 0.018127 0.026526 0.105782
v 0.023071 0.022469 0.423892
v 0.043634 0.043032 0.414773
v 0.063347 0.062744 0.399776
v 0.080625 0.080023 0.379593
v 0.094805 0.094203 0.355000
v 0.105342 0.104739 0.326943
v 0.111830 0.111228 0.296498
v 0.114021 0.113419 0.264837
v 0.111830 0.111228 0.233176
v 0.105342 0.104739 0.202732
v 0.094805 0.094203 0.174674
v 0.080625 0.080023 0.150081
v 0.063347 0.062744 0.129898
v 0.043634 0.043032 0.114901
v 0.023071 0.022469 0.105782
v 0.027128 0.017525 0.423892
v 0.051308 0.033681 0.414773
v 0.074488 0.049169 0.399776
v 0.094805 0.062745 0.379593
v 0.111479 0.073886 0.355000
v 0.123869 0.082164 0.326943
v 0.131498 0.087262 0.296498
v 0.134074 0.088983 0.264837
v 0.131498 0.087262 0.233176
v 0.123869 0.082164 0.202732
v 0.111479 0.073886 0.174674
v 0.094805 0.062745 0.150081
v 0.074488 0.049169 0.129898
v 0.051308 0.033681 0.114901
v 0.027128 0.017525 0.105782
v 0.030144 0.011884 0.423892
v 0.057010 0.023012 0.414773
v 0.082766 0.033681 0.399776
v 0.105342 0.043032 0.379593
v 0.123869 0.050706 0.355000
v 0.137635 0.056408 0.326943
v 0.146113 0.059920 0.296498
v 0.148975 0.061105 0.264837
v 0.146113 0.059920 0.233176
v 0.137635 0.056408 0.202732
v 0.123869 0.050706 0.174674
v 0.105342 0.043032 0.150081
v 0.082766 0.033681 0.129898
v 0.057010 0.023012 0.114901
v 0.030144 0.011884 0.105782
v 0.032000 0.005763 0.423892
v 0.060522 0.011436 0.414773
v 0.087864 0.016875 0.399776
v 0.111830 0.021642 0.379593
v 0.131498 0.025555 0.355000
v 0.146113 0.028462 0.326943
v 0.155113 0.030252 0.296498
v 0.158151 0.030856 0.264837
v 0.155113 0.030252 0.233176
v 0.146113 0.028462 0.202732
v 0.131498 0.025555 0.174674
v 0.111830 0.021642 0.150081
v 0.087864 0.016875 0.129898
v 0.060522 0.011436 0.114901
v 0.032000 0.005763 0.105782
v 0.032627 -0.000602 0.423892
v 0.061708 -0.000602 0.414773
v 0.114021 -0.000602 0.379593
v 0.148975 -0.000602 0.326943
v 0.148975 -0.000602 0.202732
v 0.114021 -0.000602 0.150081
v 0.089586 -0.000602 0.129898
v 0.061708 -0.000602 0.114901
v 0.032627 -0.000602 0.105782
v 0.160473 -0.000602 0.280744
v 0.160473 -0.000602 0.248930
v 0.046052 -0.009762 0.420123
v 0.074552 -0.015431 0.407963
v 0.100330 -0.020559 0.390288
v 0.122252 -0.024920 0.367792
v 0.139477 -0.028346 0.341339
v 0.151341 -0.030706 0.311947
v 0.157389 -0.031909 0.280744
v 0.157389 -0.031909 0.248930
v 0.151341 -0.030706 0.217727
v 0.139477 -0.028346 0.188335
v 0.122252 -0.024920 0.161882
v 0.100330 -0.020559 0.139386
v 0.074552 -0.015431 0.121711
v 0.046052 -0.009762 0.109551
v 0.160473 -0.016407 0.264837
v 0.157389 -0.016104 0.296498
v 0.157389 -0.016104 0.233176
v 0.089154 -0.009383 0.399776
v 0.133428 -0.013744 0.174674
v 0.133428 -0.013744 0.355000
v 0.043380 -0.018571 0.420123
v 0.070226 -0.029691 0.407963
v 0.094509 -0.039749 0.390288
v 0.115159 -0.048303 0.367792
v 0.131384 -0.055023 0.341339
v 0.142560 -0.059652 0.311947
v 0.148258 -0.062012 0.280744
v 0.148258 -0.062012 0.248930
v 0.142560 -0.059652 0.217727
v 0.131384 -0.055023 0.188335
v 0.115159 -0.048303 0.161882
v 0.094509 -0.039749 0.139386
v 0.070226 -0.029691 0.121711
v 0.043380 -0.018571 0.109551
v 0.142560 -0.043847 0.326943
v 0.128301 -0.039522 0.355000
v 0.059050 -0.018515 0.114901
v 0.085728 -0.026607 0.129898
v 0.151341 -0.046511 0.296498
v 0.031506 -0.010159 0.105811
v 0.154306 -0.047410 0.264837
v 0.031506 -0.010159 0.423863
v 0.151341 -0.046511 0.233176
v 0.059050 -0.018515 0.414773
v 0.142560 -0.043847 0.202732
v 0.085728 -0.026607 0.399776
v 0.128301 -0.039522 0.174674
v 0.109111 -0.033700 0.379593
v 0.109111 -0.033700 0.150081
v 0.039041 -0.026688 0.420123
v 0.063202 -0.042832 0.407963
v 0.085056 -0.057434 0.390288
v 0.103641 -0.069852 0.367792
v 0.118243 -0.079609 0.341339
v 0.128301 -0.086330 0.311947
v 0.133428 -0.089756 0.280744
v 0.133428 -0.089756 0.248930
v 0.128301 -0.086330 0.217727
v 0.118243 -0.079609 0.188335
v 0.103641 -0.069852 0.161882
v 0.085056 -0.057434 0.139386
v 0.063202 -0.042832 0.121711
v 0.039041 -0.026688 0.109551
v 0.131384 -0.070828 0.202732
v 0.139477 -0.075154 0.233176
v 0.079007 -0.042832 0.399776
v 0.054421 -0.029691 0.414773
v 0.118243 -0.063804 0.174674
v 0.100557 -0.054351 0.379593
v 0.100557 -0.054351 0.150081
v 0.118243 -0.063804 0.355000
v 0.079007 -0.042832 0.129898
v 0.131384 -0.070828 0.326943
v 0.054421 -0.029691 0.114901
v 0.139477 -0.075154 0.296498
v 0.029036 -0.016122 0.105811
v 0.142209 -0.076614 0.264837
v 0.029036 -0.016122 0.423863
v 0.033202 -0.033804 0.420123
v 0.053749 -0.054351 0.407963
v 0.072334 -0.072936 0.390288
v 0.088139 -0.088741 0.367792
v 0.100557 -0.101159 0.341339
v 0.109111 -0.109713 0.311947
v 0.113471 -0.114074 0.280744
v 0.113471 -0.114074 0.248930
v 0.109111 -0.109713 0.217727
v 0.100557 -0.101159 0.188335
v 0.088139 -0.088741 0.161882
v 0.072334 -0.072936 0.139386
v 0.053749 -0.054351 0.121711
v 0.033202 -0.033804 0.109551
v 0.047700 -0.039749 0.114901
v 0.069250 -0.057434 0.129898
v 0.122252 -0.100932 0.296498
v 0.115159 -0.095111 0.326943
v 0.025450 -0.021489 0.105811
v 0.124647 -0.102898 0.264837
v 0.025450 -0.021489 0.423863
v 0.122252 -0.100932 0.233176
v 0.047700 -0.039749 0.414773
v 0.115159 -0.095111 0.202732
v 0.069250 -0.057434 0.399776
v 0.103641 -0.085658 0.174674
v 0.088139 -0.072936 0.379593
v 0.088139 -0.072936 0.150081
v 0.103641 -0.085658 0.355000
v 0.026086 -0.039643 0.420123
v 0.042230 -0.063804 0.407963
v 0.056832 -0.085658 0.390288
v 0.069250 -0.104243 0.367792
v 0.079007 -0.118845 0.341339
v 0.085728 -0.128903 0.311947
v 0.089154 -0.134030 0.280744
v 0.089154 -0.134030 0.248930
v 0.085728 -0.128903 0.217727
v 0.079007 -0.118845 0.188335
v 0.069250 -0.104243 0.161882
v 0.056832 -0.085658 0.139386
v 0.042230 -0.063804 0.121711
v 0.026086 -0.039643 0.109551
v 0.085056 -0.104243 0.174674
v 0.094509 -0.115761 0.202732
v 0.072334 -0.088741 0.379593
v 0.056832 -0.069852 0.399776
v 0.072334 -0.088741 0.150081
v 0.085056 -0.104243 0.355000
v 0.056832 -0.069852 0.129898
v 0.094509 -0.115761 0.326943
v 0.039147 -0.048303 0.114901
v 0.100330 -0.122854 0.296498
v 0.020886 -0.026052 0.105811
v 0.102295 -0.125249 0.264837
v 0.020886 -0.026052 0.423863
v 0.100330 -0.122854 0.233176
v 0.039147 -0.048303 0.414773
v 0.007384 -0.018430 0.426108
v 0.017969 -0.043982 0.420123
v 0.029089 -0.070828 0.407963
v 0.039147 -0.095111 0.390288
v 0.047700 -0.115761 0.367792
v 0.054421 -0.131986 0.341339
v 0.059050 -0.143162 0.311947
v 0.061410 -0.148860 0.280744
v 0.061410 -0.148860 0.248930
v 0.059050 -0.143162 0.217727
v 0.054421 -0.131986 0.188335
v 0.047700 -0.115761 0.161882
v 0.039147 -0.095111 0.139386
v 0.029089 -0.070828 0.121711
v 0.017969 -0.043982 0.109551
v 0.015520 -0.029638 0.105811
v 0.029089 -0.055023 0.114901
v 0.076012 -0.142811 0.264837
v 0.074552 -0.140079 0.296498
v 0.015520 -0.029638 0.423863
v 0.074552 -0.140079 0.233176
v 0.029089 -0.055023 0.414773
v 0.070226 -0.131986 0.202732
v 0.042230 -0.079609 0.399776
v 0.063202 -0.118845 0.174674
v 0.053749 -0.101159 0.379593
v 0.053749 -0.101159 0.150081
v 0.063202 -0.118845 0.355000
v 0.042230 -0.079609 0.129898
v 0.070226 -0.131986 0.326943
v 0.009160 -0.046654 0.420123
v 0.014829 -0.075154 0.407963
v 0.019957 -0.100932 0.390288
v 0.024317 -0.122854 0.367792
v 0.027744 -0.140079 0.341339
v 0.030104 -0.151943 0.311947
v 0.031307 -0.157991 0.280744
v 0.031307 -0.157991 0.248930
v 0.030104 -0.151943 0.217727
v 0.027744 -0.140079 0.188335
v 0.024317 -0.122854 0.161882
v 0.019957 -0.100932 0.139386
v 0.014829 -0.075154 0.121711
v 0.009160 -0.046654 0.109551
v 0.033098 -0.109713 0.379593
v 0.026005 -0.086330 0.399776
v 0.033098 -0.109713 0.150081
v 0.038920 -0.128903 0.174674
v 0.038920 -0.128903 0.355000
v 0.026005 -0.086330 0.129898
v 0.043245 -0.143162 0.326943
v 0.017913 -0.059652 0.114901
v 0.045909 -0.151943 0.296498
v 0.009557 -0.032108 0.105811
v 0.046808 -0.154908 0.264837
v 0.009557 -0.032108 0.423863
v 0.045909 -0.151943 0.233176
v 0.017913 -0.059652 0.414773
v 0.043245 -0.143162 0.202732
v -0.000000 -0.047556 0.420123
v -0.000000 -0.076614 0.407963
v -0.000000 -0.102898 0.390288
v -0.000000 -0.125249 0.367792
v -0.000000 -0.142811 0.341339
v -0.000000 -0.154908 0.311947
v -0.000000 -0.161075 0.280744
v -0.000000 -0.161075 0.248930
v -0.000000 -0.154908 0.217727
v -0.000000 -0.142811 0.188335
v -0.000000 -0.125249 0.161882
v -0.000000 -0.102898 0.139386
v -0.000000 -0.076614 0.121711
v -0.000000 -0.047556 0.109551
v 0.015805 -0.161075 0.264837
v 0.015501 -0.157991 0.296498
v 0.003227 -0.033367 0.423863
v 0.003227 -0.033367 0.105811
v 0.015501 -0.157991 0.233176
v 0.006048 -0.062012 0.414773
v 0.014602 -0.148860 0.202732
v 0.008781 -0.089756 0.399776
v 0.013142 -0.134030 0.174674
v 0.011176 -0.114074 0.379593
v 0.011176 -0.114074 0.150081
v 0.013142 -0.134030 0.355000
v 0.008781 -0.089756 0.129898
v 0.014602 -0.148860 0.326943
v 0.006048 -0.062012 0.114901
v -0.009160 -0.046654 0.420123
v -0.014829 -0.075154 0.407963
v -0.019957 -0.100932 0.390288
v -0.024318 -0.122854 0.367792
v -0.027744 -0.140079 0.341339
v -0.030104 -0.151943 0.311947
v -0.031307 -0.157991 0.280744
v -0.031307 -0.157991 0.248930
v -0.030104 -0.151943 0.217727
v -0.027744 -0.140079 0.188335
v -0.024318 -0.122854 0.161882
v -0.019957 -0.100932 0.139386
v -0.014829 -0.075154 0.121711
v -0.009160 -0.046654 0.109551
v -0.011176 -0.114074 0.150081
v -0.013142 -0.134030 0.174674
v -0.013142 -0.134030 0.355000
v -0.011176 -0.114074 0.379593
v -0.008781 -0.089756 0.129898
v -0.014602 -0.148860 0.326943
v -0.006048 -0.062012 0.114901
v -0.015502 -0.157991 0.296498
v -0.003227 -0.033367 0.105811
v -0.015805 -0.161075 0.264837
v -0.003227 -0.033367 0.423863
v -0.015502 -0.157991 0.233176
v -0.006048 -0.062012 0.414773
v -0.014602 -0.148860 0.202732
v -0.008781 -0.089756 0.399776
v -0.017969 -0.043982 0.420123
v -0.029089 -0.070828 0.407963
v -0.039147 -0.095111 0.390288
v -0.047700 -0.115761 0.367792
v -0.054421 -0.131986 0.341339
v -0.059050 -0.143162 0.311947
v -0.061410 -0.148860 0.280744
v -0.061410 -0.148860 0.248930
v -0.059050 -0.143162 0.217727
v -0.054421 -0.131986 0.188335
v -0.047700 -0.115761 0.161882
v -0.039147 -0.095111 0.139386
v -0.029089 -0.070828 0.121711
v -0.017969 -0.043982 0.109551
v -0.009557 -0.032108 0.423863
v -0.009557 -0.032108 0.105811
v -0.045909 -0.151943 0.233176
v -0.046808 -0.154908 0.264837
v -0.017913 -0.059652 0.414773
v -0.043245 -0.143162 0.202732
v -0.026005 -0.086330 0.399776
v -0.038920 -0.128903 0.174674
v -0.033098 -0.109713 0.379593
v -0.033098 -0.109713 0.150081
v -0.038920 -0.128903 0.355000
v -0.026005 -0.086330 0.129898
v -0.043245 -0.143162 0.326943
v -0.017913 -0.059652 0.114901
v -0.045909 -0.151943 0.296498
v -0.026086 -0.039643 0.420123
v -0.042230 -0.063804 0.407963
v -0.056832 -0.085658 0.390288
v -0.069250 -0.104243 0.367792
v -0.079007 -0.118845 0.341339
v -0.085728 -0.128903 0.311947
v -0.089154 -0.134030 0.280744
v -0.089154 -0.134030 0.248930
v -0.085728 -0.128903 0.217727
v -0.079007 -0.118845 0.188335
v -0.069250 -0.104243 0.161882
v -0.056832 -0.085658 0.139386
v -0.042230 -0.063804 0.121711
v -0.026086 -0.039643 0.109551
v -0.063202 -0.118845 0.355000
v -0.053749 -0.101159 0.379593
v -0.042230 -0.079609 0.129898
v -0.053749 -0.101159 0.150081
v -0.070226 -0.131986 0.326943
v -0.029089 -0.055023 0.114901
v -0.074552 -0.140079 0.296498
v -0.015520 -0.029638 0.105811
v -0.076012 -0.142811 0.264837
v -0.015520 -0.029638 0.423863
v -0.074552 -0.140079 0.233176
v -0.029089 -0.055023 0.414773
v -0.070226 -0.131986 0.202732
v -0.042230 -0.079609 0.399776
v -0.063202 -0.118845 0.174674
v -0.033202 -0.033804 0.420123
v -0.053749 -0.054351 0.407963
v -0.072334 -0.072936 0.390288
v -0.088139 -0.088741 0.367792
v -0.100557 -0.101159 0.341339
v -0.109111 -0.109713 0.311947
v -0.113471 -0.114073 0.280744
v -0.113471 -0.114073 0.248930
v -0.109111 -0.109713 0.217727
v -0.100557 -0.101159 0.188335
v -0.088139 -0.088741 0.161882
v -0.072334 -0.072936 0.139386
v -0.053749 -0.054351 0.121711
v -0.033202 -0.033804 0.109551
v -0.100330 -0.122854 0.233176
v -0.102295 -0.125249 0.264837
v -0.039147 -0.048303 0.414773
v -0.020886 -0.026052 0.423863
v -0.094509 -0.115761 0.202732
v -0.056832 -0.069852 0.399776
v -0.085056 -0.104243 0.174674
v -0.072334 -0.088741 0.379593
v -0.072334 -0.088741 0.150081
v -0.085056 -0.104243 0.355000
v -0.056832 -0.069852 0.129898
v -0.094509 -0.115761 0.326943
v -0.039147 -0.048303 0.114901
v -0.100330 -0.122854 0.296498
v -0.020886 -0.026052 0.105811
v -0.039041 -0.026688 0.420123
v -0.063202 -0.042832 0.407963
v -0.085056 -0.057434 0.390288
v -0.103641 -0.069852 0.367792
v -0.118243 -0.079609 0.341339
v -0.128301 -0.086330 0.311947
v -0.133428 -0.089756 0.280744
v -0.133428 -0.089756 0.248930
v -0.128301 -0.086330 0.217727
v -0.118243 -0.079609 0.188335
v -0.103641 -0.069852 0.161882
v -0.085056 -0.057434 0.139386
v -0.063202 -0.042832 0.121711
v -0.039041 -0.026688 0.109551
v -0.069250 -0.057434 0.129898
v -0.088139 -0.072936 0.150081
v -0.115159 -0.095111 0.326943
v -0.103641 -0.085658 0.355000
v -0.047700 -0.039749 0.114901
v -0.122252 -0.100932 0.296498
v -0.025450 -0.021489 0.105811
v -0.124647 -0.102898 0.264837
v -0.025450 -0.021489 0.423863
v -0.122252 -0.100932 0.233176
v -0.047700 -0.039749 0.414773
v -0.115159 -0.095111 0.202732
v -0.069250 -0.057434 0.399776
v -0.103641 -0.085658 0.174674
v -0.088139 -0.072936 0.379593
v -0.043380 -0.018571 0.420123
v -0.070226 -0.029691 0.407963
v -0.094509 -0.039749 0.390288
v -0.115159 -0.048303 0.367792
v -0.131384 -0.055023 0.341339
v -0.142560 -0.059652 0.311947
v -0.148258 -0.062012 0.280744
v -0.148258 -0.062012 0.248930
v -0.142560 -0.059652 0.217727
v -0.131384 -0.055023 0.188335
v -0.115159 -0.048303 0.161882
v -0.094509 -0.039749 0.139386
v -0.070226 -0.029691 0.121711
v -0.043380 -0.018571 0.109551
v -0.131384 -0.070828 0.202732
v -0.139477 -0.075154 0.233176
v -0.079007 -0.042832 0.399776
v -0.054421 -0.029691 0.414773
v -0.118243 -0.063804 0.174674
v -0.100557 -0.054351 0.379593
v -0.100557 -0.054351 0.150081
v -0.118243 -0.063804 0.355000
v -0.079007 -0.042832 0.129898
v -0.131384 -0.070828 0.326943
v -0.054421 -0.029691 0.114901
v -0.139477 -0.075154 0.296498
v -0.029036 -0.016122 0.105811
v -0.142209 -0.076614 0.264837
v -0.029036 -0.016122 0.423863
v -0.046052 -0.009762 0.420123
v -0.074552 -0.015431 0.407963
v -0.100330 -0.020559 0.390288
v -0.122252 -0.024920 0.367792
v -0.139477 -0.028346 0.341339
v -0.151341 -0.030706 0.311947
v -0.157389 -0.031909 0.280744
v -0.157389 -0.031909 0.248930
v -0.151341 -0.030706 0.217727
v -0.139477 -0.028346 0.188335
v -0.122252 -0.024920 0.161882
v -0.100330 -0.020559 0.139386
v -0.074552 -0.015431 0.121711
v -0.046052 -0.009762 0.109551
v -0.059050 -0.018515 0.114901
v -0.085728 -0.026607 0.129898
v -0.151341 -0.046511 0.296498
v -0.142560 -0.043847 0.326943
v -0.031506 -0.010159 0.105811
v -0.154306 -0.047410 0.264837
v -0.031506 -0.010159 0.423863
v -0.151341 -0.046511 0.233176
v -0.059050 -0.018515 0.414773
v -0.142560 -0.043847 0.202732
v -0.085728 -0.026607 0.399776
v -0.128301 -0.039522 0.174674
v -0.109111 -0.033700 0.379593
v -0.109111 -0.033700 0.150081
v -0.128301 -0.039522 0.355000
v -0.046954 -0.000602 0.420123
v -0.076012 -0.000602 0.407963
v -0.102295 -0.000602 0.390288
v -0.124647 -0.000602 0.367792
v -0.142209 -0.000602 0.341339
v -0.154306 -0.000602 0.311947
v -0.160473 -0.000602 0.280744
v -0.160473 -0.000602 0.248930
v -0.154306 -0.000602 0.217727
v -0.142209 -0.000602 0.188335
v -0.124647 -0.000602 0.161882
v -0.102295 -0.000602 0.139386
v -0.076012 -0.000602 0.121711
v -0.046954 -0.000602 0.109551
v -0.089154 -0.009383 0.399776
v -0.061410 -0.006650 0.414773
v -0.133428 -0.013744 0.174674
v -0.148258 -0.015204 0.202732
v -0.113471 -0.011778 0.379593
v -0.113471 -0.011778 0.150081
v -0.133428 -0.013744 0.355000
v -0.089154 -0.009383 0.129898
v -0.148258 -0.015204 0.326943
v -0.061410 -0.006650 0.114901
v -0.157389 -0.016104 0.296498
v -0.032765 -0.003829 0.105811
v -0.160473 -0.016407 0.264837
v -0.032765 -0.003829 0.423863
v -0.157389 -0.016104 0.233176
v -0.046052 0.008558 0.420123
v -0.074552 0.014227 0.407963
v -0.100330 0.019355 0.390288
v -0.122252 0.023715 0.367792
v -0.139477 0.027142 0.341339
v -0.151341 0.029502 0.311947
v -0.157389 0.030705 0.280744
v -0.157389 0.030705 0.248930
v -0.151341 0.029502 0.217727
v -0.139477 0.027142 0.188335
v -0.122252 0.023715 0.161882
v -0.100330 0.019355 0.139386
v -0.074552 0.014227 0.121711
v -0.046052 0.008558 0.109551
v -0.157389 0.014899 0.296498
v -0.148258 0.014000 0.326943
v -0.032765 0.002625 0.105811
v -0.061410 0.005446 0.114901
v -0.160473 0.015203 0.264837
v -0.032765 0.002625 0.423863
v -0.157389 0.014899 0.233176
v -0.061410 0.005446 0.414773
v -0.148258 0.014000 0.202732
v -0.089154 0.008179 0.399776
v -0.133428 0.012539 0.174674
v -0.113471 0.010574 0.379593
v -0.113471 0.010574 0.150081
v -0.133428 0.012539 0.355000
v -0.089154 0.008179 0.129898
v -0.043380 0.017367 0.420123
v -0.070226 0.028487 0.407963
v -0.094509 0.038545 0.390288
v -0.115159 0.047098 0.367792
v -0.131384 0.053819 0.341339
v -0.142560 0.058448 0.311947
v -0.148257 0.060808 0.280744
v -0.148257 0.060808 0.248930
v -0.142560 0.058448 0.217727
v -0.131384 0.053819 0.188335
v -0.115159 0.047098 0.161882
v -0.094509 0.038545 0.139386
v -0.070226 0.028487 0.121711
v -0.043380 0.017367 0.109551
v -0.128301 0.038318 0.174674
v -0.142560 0.042643 0.202732
v -0.109111 0.032496 0.379593
v -0.085728 0.025403 0.399776
v -0.109111 0.032496 0.150081
v -0.128301 0.038318 0.355000
v -0.085728 0.025403 0.129898
v -0.142560 0.042643 0.326943
v -0.059050 0.017311 0.114901
v -0.151341 0.045307 0.296498
v -0.031506 0.008955 0.105811
v -0.154306 0.046206 0.264837
v -0.031506 0.008955 0.423863
v -0.151341 0.045307 0.233176
v -0.059050 0.017311 0.414773
v -0.039041 0.025484 0.420123
v -0.063202 0.041628 0.407963
v -0.085056 0.056230 0.390288
v -0.103640 0.068648 0.367792
v -0.118243 0.078405 0.341339
v -0.128301 0.085126 0.311947
v -0.133428 0.088552 0.280744
v -0.133428 0.088552 0.248930
v -0.128301 0.085126 0.217727
v -0.118243 0.078405 0.188335
v -0.103640 0.068648 0.161882
v -0.085056 0.056230 0.139386
v -0.063202 0.041628 0.121711
v -0.039041 0.025484 0.109551
v -0.029036 0.014918 0.105811
v -0.054421 0.028487 0.114901
v -0.142209 0.075410 0.264837
v -0.139477 0.073950 0.296498
v -0.029036 0.014918 0.423863
v -0.139477 0.073950 0.233176
v -0.054421 0.028487 0.414773
v -0.131384 0.069624 0.202732
v -0.079007 0.041628 0.399776
v -0.118243 0.062600 0.174674
v -0.100557 0.053147 0.379593
v -0.100557 0.053147 0.150081
v -0.118243 0.062600 0.355000
v -0.079007 0.041628 0.129898
v -0.131384 0.069624 0.326943
v -0.033202 0.032600 0.420123
v -0.053749 0.053147 0.407963
v -0.072334 0.071732 0.390288
v -0.088139 0.087537 0.367792
v -0.100557 0.099955 0.341339
v -0.109111 0.108509 0.311947
v -0.113471 0.112869 0.280744
v -0.113471 0.112869 0.248930
v -0.109111 0.108509 0.217727
v -0.100557 0.099955 0.188335
v -0.088139 0.087537 0.161882
v -0.072334 0.071732 0.139386
v -0.053749 0.053147 0.121711
v -0.033202 0.032600 0.109551
v -0.013645 0.013042 0.103566
v -0.088139 0.071732 0.379593
v -0.069250 0.056230 0.399776
v -0.088139 0.071732 0.150081
v -0.103640 0.084454 0.174674
v -0.103640 0.084453 0.355000
v -0.069250 0.056230 0.129898
v -0.115159 0.093907 0.326943
v -0.047700 0.038545 0.114901
v -0.122252 0.099728 0.296498
v -0.025450 0.020284 0.105811
v -0.124647 0.101693 0.264837
v -0.025450 0.020284 0.423863
v -0.122252 0.099728 0.233176
v -0.047700 0.038545 0.414773
v -0.115159 0.093907 0.202732
v -0.026086 0.038439 0.420123
v -0.042230 0.062600 0.407963
v -0.056832 0.084453 0.390288
v -0.069250 0.103038 0.367792
v -0.079007 0.117641 0.341339
v -0.085728 0.127699 0.311947
v -0.089154 0.132826 0.280744
v -0.089154 0.132826 0.248930
v -0.085728 0.127699 0.217727
v -0.079007 0.117641 0.188335
v -0.069250 0.103038 0.161882
v -0.056832 0.084453 0.139386
v -0.042230 0.062600 0.121711
v -0.026086 0.038439 0.109551
v -0.102295 0.124045 0.264837
v -0.100330 0.121650 0.296498
v -0.020886 0.024848 0.423863
v -0.020886 0.024848 0.105811
v -0.100330 0.121650 0.233176
v -0.039147 0.047098 0.414773
v -0.094509 0.114557 0.202732
v -0.056832 0.068648 0.399776
v -0.085056 0.103038 0.174674
v -0.072334 0.087537 0.379593
v -0.072334 0.087537 0.150081
v -0.085056 0.103038 0.355000
v -0.056832 0.068648 0.129898
v -0.094509 0.114557 0.326943
v -0.039147 0.047098 0.114901
v -0.017969 0.042778 0.420123
v -0.029089 0.069624 0.407963
v -0.039147 0.093907 0.390288
v -0.047700 0.114557 0.367792
v -0.054421 0.130782 0.341339
v -0.059050 0.141958 0.311947
v -0.061410 0.147655 0.280744
v -0.061410 0.147655 0.248930
v -0.059050 0.141958 0.217727
v -0.054421 0.130782 0.188335
v -0.047700 0.114557 0.161882
v -0.039147 0.093907 0.139386
v -0.029089 0.069624 0.121711
v -0.017969 0.042778 0.109551
v -0.053749 0.099955 0.150081
v -0.063202 0.117641 0.174674
v -0.063202 0.117641 0.355000
v -0.053749 0.099955 0.379593
v -0.042230 0.078405 0.129898
v -0.070226 0.130782 0.326943
v -0.029089 0.053819 0.114901
v -0.074552 0.138875 0.296498
v -0.015520 0.028434 0.105811
v -0.076012 0.141607 0.264837
v -0.015520 0.028434 0.423863
v -0.074552 0.138875 0.233176
v -0.029089 0.053819 0.414773
v -0.070226 0.130782 0.202732
v -0.042230 0.078405 0.399776
v -0.009160 0.045450 0.420123
v -0.014829 0.073950 0.407963
v -0.019957 0.099728 0.390288
v -0.024317 0.121650 0.367792
v -0.027744 0.138875 0.341339
v -0.030104 0.150739 0.311947
v -0.031307 0.156787 0.280744
v -0.031307 0.156787 0.248930
v -0.030104 0.150739 0.217727
v -0.027744 0.138875 0.188335
v -0.024317 0.121650 0.161882
v -0.019957 0.099728 0.139386
v -0.014829 0.073950 0.121711
v -0.009160 0.045450 0.109551
v -0.009557 0.030904 0.105811
v -0.045909 0.150739 0.233176
v -0.046808 0.153704 0.264837
v -0.017913 0.058448 0.414773
v -0.009557 0.030904 0.423863
v -0.043245 0.141958 0.202732
v -0.026005 0.085126 0.399776
v -0.038920 0.127699 0.174674
v -0.033098 0.108509 0.379593
v -0.033098 0.108509 0.150081
v -0.038920 0.127699 0.355000
v -0.026005 0.085126 0.129898
v -0.043245 0.141958 0.326943
v -0.017913 0.058448 0.114901
v -0.045909 0.150739 0.296498
v 0.000000 0.046352 0.420123
v 0.000000 0.075410 0.407963
v 0.000000 0.101693 0.390288
v 0.000000 0.124045 0.367792
v 0.000000 0.141607 0.341339
v 0.000000 0.153704 0.311947
v 0.000000 0.159871 0.280744
v 0.000000 0.159871 0.248930
v 0.000000 0.153704 0.217727
v 0.000000 0.141607 0.188335
v 0.000000 0.124045 0.161882
v 0.000000 0.101693 0.139386
v 0.000000 0.075410 0.121711
v 0.000000 0.046352 0.109551
v -0.008781 0.088552 0.129898
v -0.011176 0.112869 0.150081
v -0.014602 0.147655 0.326943
v -0.013142 0.132826 0.355000
v -0.006048 0.060808 0.114901
v -0.015501 0.156787 0.296498
v -0.003227 0.032163 0.105811
v -0.015805 0.159871 0.264837
v -0.003227 0.032163 0.423863
v -0.015501 0.156787 0.233176
v -0.006048 0.060808 0.414773
v -0.014602 0.147655 0.202732
v -0.008781 0.088552 0.399776
v -0.013142 0.132826 0.174674
v -0.011176 0.112869 0.379593
v 0.009160 0.045450 0.420123
v 0.014829 0.073950 0.407963
v 0.019957 0.099728 0.390288
v 0.024318 0.121650 0.367792
v 0.027744 0.138875 0.341339
v 0.030104 0.150739 0.311947
v 0.031307 0.156787 0.280744
v 0.031307 0.156787 0.248930
v 0.030104 0.150739 0.217727
v 0.027744 0.138875 0.188335
v 0.024318 0.121650 0.161882
v 0.019957 0.099728 0.139386
v 0.014829 0.073950 0.121711
v 0.009160 0.045450 0.109551
v 0.006048 0.060808 0.414773
v 0.003227 0.032163 0.423863
v 0.014602 0.147655 0.202732
v 0.015502 0.156787 0.233176
v 0.008781 0.088552 0.399776
v 0.013142 0.132826 0.174674
v 0.011176 0.112869 0.379593
v 0.011176 0.112869 0.150081
v 0.013142 0.132826 0.355000
v 0.008781 0.088552 0.129898
v 0.014602 0.147655 0.326943
v 0.006048 0.060808 0.114901
v 0.015502 0.156787 0.296498
v 0.003227 0.032163 0.105811
v 0.015805 0.159871 0.264837
v 0.017969 0.042778 0.420123
v 0.029089 0.069624 0.407963
v 0.039147 0.093907 0.390288
v 0.047700 0.114557 0.367792
v 0.054421 0.130782 0.341339
v 0.059050 0.141958 0.311947
v 0.061410 0.147655 0.280744
v 0.061410 0.147655 0.248930
v 0.059050 0.141958 0.217727
v 0.054421 0.130782 0.188335
v 0.047700 0.114557 0.161882
v 0.039147 0.093907 0.139386
v 0.029089 0.069624 0.121711
v 0.017969 0.042778 0.109551
v 0.043245 0.141958 0.326943
v 0.038920 0.127699 0.355000
v 0.017913 0.058448 0.114901
v 0.026005 0.085126 0.129898
v 0.045909 0.150739 0.296498
v 0.009557 0.030904 0.105811
v 0.046808 0.153704 0.264837
v 0.009557 0.030904 0.423863
v 0.045909 0.150739 0.233176
v 0.017913 0.058448 0.414773
v 0.043245 0.141958 0.202732
v 0.026005 0.085126 0.399776
v 0.038920 0.127699 0.174674
v 0.033098 0.108509 0.379593
v 0.033098 0.108509 0.150081
v 0.026086 0.038439 0.420123
v 0.042230 0.062600 0.407963
v 0.056832 0.084453 0.390288
v 0.069250 0.103038 0.367792
v 0.079007 0.117640 0.341339
v 0.085728 0.127699 0.311947
v 0.089154 0.132826 0.280744
v 0.089154 0.132826 0.248930
v 0.085728 0.127699 0.217727
v 0.079007 0.117640 0.188335
v 0.069250 0.103038 0.161882
v 0.056832 0.084453 0.139386
v 0.042230 0.062600 0.121711
v 0.026086 0.038439 0.109551
v 0.070226 0.130782 0.202732
v 0.074552 0.138875 0.233176
v 0.042230 0.078405 0.399776
v 0.029089 0.053819 0.414773
v 0.063202 0.117640 0.174674
v 0.053749 0.099955 0.379593
v 0.053749 0.099955 0.150081
v 0.063202 0.117640 0.355000
v 0.042230 0.078405 0.129898
v 0.070226 0.130782 0.326943
v 0.029089 0.053819 0.114901
v 0.074552 0.138875 0.296498
v 0.015520 0.028434 0.105811
v 0.076012 0.141607 0.264837
v 0.015520 0.028434 0.423863
v 0.033202 0.032600 0.420123
v 0.053749 0.053147 0.407963
v 0.072334 0.071732 0.390288
v 0.088139 0.087537 0.367792
v 0.100557 0.099955 0.341339
v 0.109111 0.108509 0.311947
v 0.113471 0.112869 0.280744
v 0.113471 0.112869 0.248930
v 0.109111 0.108509 0.217727
v 0.100557 0.099955 0.188335
v 0.088139 0.087537 0.161882
v 0.072334 0.071732 0.139386
v 0.053749 0.053147 0.121711
v 0.033202 0.032600 0.109551
v 0.039147 0.047098 0.114901
v 0.056832 0.068648 0.129898
v 0.100330 0.121650 0.296498
v 0.094509 0.114557 0.326943
v 0.020886 0.024848 0.105811
v 0.102295 0.124045 0.264837
v 0.020886 0.024848 0.423863
v 0.100330 0.121650 0.233176
v 0.039147 0.047098 0.414773
v 0.094509 0.114557 0.202732
v 0.056832 0.068648 0.399776
v 0.085056 0.103038 0.174674
v 0.072334 0.087537 0.379593
v 0.072334 0.087537 0.150081
v 0.085056 0.103038 0.355000
v 0.039041 0.025484 0.420123
v 0.063202 0.041628 0.407963
v 0.085056 0.056230 0.390288
v 0.103640 0.068648 0.367792
v 0.118243 0.078405 0.341339
v 0.128301 0.085126 0.311947
v 0.133428 0.088552 0.280744
v 0.133428 0.088552 0.248930
v 0.128301 0.085126 0.217727
v 0.118243 0.078405 0.188335
v 0.103640 0.068648 0.161882
v 0.085056 0.056230 0.139386
v 0.063202 0.041628 0.121711
v 0.039041 0.025484 0.109551
v 0.069250 0.056230 0.399776
v 0.047700 0.038545 0.414773
v 0.103640 0.084453 0.174674
v 0.115159 0.093907 0.202732
v 0.088139 0.071732 0.379593
v 0.088139 0.071732 0.150081
v 0.103640 0.084453 0.355000
v 0.069250 0.056230 0.129898
v 0.115159 0.093907 0.326943
v 0.047700 0.038545 0.114901
v 0.122252 0.099728 0.296498
v 0.025450 0.020284 0.105811
v 0.124647 0.101693 0.264837
v 0.025450 0.020284 0.423863
v 0.122252 0.099728 0.233176
v 0.043380 0.017367 0.420123
v 0.070226 0.028487 0.407963
v 0.094509 0.038545 0.390288
v 0.115159 0.047098 0.367792
v 0.131384 0.053819 0.341339
v 0.142560 0.058448 0.311947
v 0.148257 0.060808 0.280744
v 0.148257 0.060808 0.248930
v 0.142560 0.058448 0.217727
v 0.131384 0.053819 0.188335
v 0.115159 0.047098 0.161882
v 0.094509 0.038545 0.139386
v 0.070226 0.028487 0.121711
v 0.043380 0.017367 0.109551
v 0.139477 0.073950 0.296498
v 0.131384 0.069624 0.326943
v 0.029036 0.014918 0.105811
v 0.054421 0.028487 0.114901
v 0.142209 0.075410 0.264837
v 0.029036 0.014918 0.423863
v 0.139477 0.073950 0.233176
v 0.054421 0.028487 0.414773
v 0.131384 0.069624 0.202732
v 0.079007 0.041628 0.399776
v 0.118243 0.062600 0.174674
v 0.100557 0.053147 0.379593
v 0.100557 0.053147 0.150081
v 0.118243 0.062600 0.355000
v 0.079007 0.041628 0.129898
v 0.046052 0.008558 0.420123
v 0.074552 0.014227 0.407963
v 0.100330 0.019355 0.390288
v 0.122252 0.023715 0.367792
v 0.139477 0.027142 0.341339
v 0.151341 0.029501 0.311947
v 0.157389 0.030705 0.280744
v 0.157389 0.030705 0.248930
v 0.151341 0.029501 0.217727
v 0.139477 0.027142 0.188335
v 0.122252 0.023715 0.161882
v 0.100330 0.019355 0.139386
v 0.074552 0.014227 0.121711
v 0.046052 0.008558 0.109551
v 0.128301 0.038317 0.174674
v 0.142560 0.042643 0.202732
v 0.109111 0.032496 0.379593
v 0.085728 0.025403 0.399776
v 0.109111 0.032496 0.150081
v 0.128301 0.038317 0.355000
v 0.085728 0.025403 0.129898
v 0.142560 0.042643 0.326943
v 0.059050 0.017311 0.114901
v 0.151341 0.045307 0.296498
v 0.031506 0.008955 0.105811
v 0.154306 0.046206 0.264837
v 0.031506 0.008955 0.423863
v 0.151341 0.045307 0.233176
v 0.059050 0.017311 0.414773
v 0.046954 -0.000602 0.420123
v 0.102295 -0.000602 0.139386
v 0.076012 -0.000602 0.121711
v 0.046954 -0.000602 0.109551
v 0.032765 0.002625 0.105811
v 0.061410 0.005446 0.114901
v 0.032765 0.002625 0.423863
v 0.061410 0.005446 0.414773
v 0.148258 0.014000 0.202732
v 0.113471 0.010574 0.379593
v 0.113471 0.010574 0.150081
v 0.089154 0.008179 0.129898
v 0.148258 0.014000 0.326943
v 0.019296 -0.000602 0.426108
v 0.076012 -0.000602 0.407963
v 0.102295 -0.000602 0.390288
v 0.124647 -0.000602 0.367792
v 0.142209 -0.000602 0.341339
v 0.154306 -0.000602 0.311947
v 0.154306 -0.000602 0.217727
v 0.142209 -0.000602 0.188335
v 0.124647 -0.000602 0.161882
v 0.019296 -0.000602 0.103566
v 0.018925 -0.004367 0.426108
v 0.018926 -0.004367 0.103566
v 0.032765 -0.003829 0.105811
v 0.061410 -0.006650 0.114901
v 0.032765 -0.003829 0.423863
v 0.061410 -0.006650 0.414773
v 0.148258 -0.015204 0.202732
v 0.113471 -0.011778 0.379593
v 0.113471 -0.011778 0.150081
v 0.089154 -0.009383 0.129898
v 0.148258 -0.015204 0.326943
v 0.017827 -0.007986 0.426108
v 0.017827 -0.007986 0.103566
v 0.016044 -0.011323 0.426108
v 0.016044 -0.011323 0.103566
v 0.013645 -0.014247 0.426108
v 0.013645 -0.014247 0.103566
v 0.010720 -0.016646 0.426108
v 0.010720 -0.016646 0.103566
v 0.007384 -0.018430 0.103566
v 0.003765 -0.019528 0.426108
v 0.003765 -0.019528 0.103566
v -0.000000 -0.019898 0.426108
v -0.000000 -0.019898 0.103566
v -0.003765 -0.019528 0.426108
v -0.003765 -0.019528 0.103566
v -0.007384 -0.018430 0.426108
v -0.007384 -0.018430 0.103566
v -0.010720 -0.016646 0.426108
v -0.010720 -0.016646 0.103566
v -0.013645 -0.014247 0.426108
v -0.013645 -0.014247 0.103566
v -0.016044 -0.011323 0.426108
v -0.016044 -0.011323 0.103566
v -0.017827 -0.007986 0.426108
v -0.017827 -0.007986 0.103566
v -0.018925 -0.004367 0.426108
v -0.018925 -0.004367 0.103566
v -0.019296 -0.000602 0.426108
v -0.019296 -0.000602 0.103566
v -0.018925 0.003162 0.426108
v -0.018925 0.003162 0.103566
v -0.017827 0.006782 0.426108
v -0.017827 0.006782 0.103566
v -0.016044 0.010118 0.426108
v -0.016044 0.010118 0.103566
v -0.013645 0.013042 0.426108
v -0.010720 0.015442 0.426108
v -0.010720 0.015442 0.103566
v -0.007384 0.017225 0.426108
v -0.007384 0.017225 0.103566
v -0.003765 0.018323 0.426108
v -0.003765 0.018323 0.103566
v 0.000000 0.018694 0.426108
v 0.000000 0.018694 0.103566
v 0.003765 0.018323 0.426108
v 0.003765 0.018323 0.103566
v 0.007384 0.017225 0.426108
v 0.007384 0.017225 0.103566
v 0.010720 0.015442 0.426108
v 0.010720 0.015442 0.103566
v 0.013645 0.013042 0.426108
v 0.013645 0.013042 0.103566
v 0.016044 0.010118 0.426108
v 0.016044 0.010118 0.103566
v 0.017827 0.006782 0.426108
v 0.017827 0.006782 0.103566
v 0.018925 0.003162 0.426108
v 0.018925 0.003162 0.103566
v 0.160473 0.015203 0.264837
v 0.157389 0.014899 0.296498
v 0.157389 0.014899 0.233176
v 0.089154 0.008179 0.399776
v 0.133428 0.012539 0.174674
v 0.133428 0.012539 0.355000
v 0.046765 -0.005208 0.109555
v 0.159699 -0.016331 0.280744
v 0.022105 -0.002779 0.425767
v 0.022105 -0.002779 0.103907
v 0.159699 -0.016331 0.248930
v 0.046765 -0.005208 0.420120
v 0.153562 -0.015727 0.217727
v 0.075646 -0.008053 0.407963
v 0.141524 -0.014541 0.188335
v 0.101803 -0.010629 0.390288
v 0.124047 -0.012820 0.161882
v 0.124047 -0.012820 0.367792
v 0.101802 -0.010629 0.139386
v 0.141524 -0.014541 0.341339
v 0.075646 -0.008053 0.121711
v 0.153562 -0.015727 0.311947
v 0.136085 -0.041883 0.341339
v 0.072739 -0.022667 0.121711
v 0.147661 -0.045395 0.311947
v 0.044968 -0.014243 0.109555
v 0.153562 -0.047185 0.280744
v 0.021256 -0.007050 0.425767
v 0.021256 -0.007050 0.103907
v 0.153562 -0.047185 0.248930
v 0.044968 -0.014243 0.420120
v 0.147661 -0.045395 0.217727
v 0.072739 -0.022667 0.407963
v 0.136085 -0.041883 0.188335
v 0.097890 -0.030297 0.390288
v 0.119280 -0.036785 0.161882
v 0.119280 -0.036785 0.367792
v 0.097890 -0.030297 0.139386
v 0.136085 -0.073341 0.217727
v 0.067037 -0.036434 0.407963
v 0.125417 -0.067639 0.188335
v 0.090216 -0.048824 0.390288
v 0.109929 -0.059360 0.161882
v 0.109929 -0.059360 0.367792
v 0.090216 -0.048824 0.139386
v 0.125417 -0.067639 0.341339
v 0.067037 -0.036434 0.121711
v 0.136085 -0.073341 0.311947
v 0.041443 -0.022754 0.109555
v 0.141524 -0.076248 0.280744
v 0.019589 -0.011073 0.425767
v 0.019589 -0.011073 0.103907
v 0.141524 -0.076248 0.248930
v 0.041443 -0.022754 0.420120
v 0.058758 -0.048824 0.121711
v 0.119280 -0.098492 0.311947
v 0.036325 -0.030413 0.109555
v 0.124047 -0.102405 0.280744
v 0.017170 -0.014693 0.425767
v 0.017170 -0.014693 0.103907
v 0.124047 -0.102405 0.248930
v 0.036325 -0.030413 0.420120
v 0.119280 -0.098492 0.217727
v 0.058758 -0.048824 0.407963
v 0.109929 -0.090818 0.188335
v 0.079075 -0.065497 0.390288
v 0.096353 -0.079677 0.161882
v 0.096353 -0.079677 0.367792
v 0.079075 -0.065497 0.139386
v 0.109929 -0.090818 0.341339
v 0.090216 -0.110531 0.188335
v 0.064895 -0.079677 0.390288
v 0.079075 -0.096955 0.161882
v 0.079075 -0.096955 0.367792
v 0.064895 -0.079677 0.139386
v 0.090216 -0.110531 0.341339
v 0.048222 -0.059360 0.121711
v 0.097890 -0.119882 0.311947
v 0.029811 -0.036927 0.109555
v 0.101802 -0.124649 0.280744
v 0.014091 -0.017772 0.425767
v 0.014091 -0.017772 0.103907
v 0.101802 -0.124649 0.248930
v 0.029811 -0.036927 0.420120
v 0.097890 -0.119882 0.217727
v 0.048222 -0.059360 0.407963
v 0.022151 -0.042045 0.109555
v 0.075646 -0.142126 0.280744
v 0.010471 -0.020192 0.425767
v 0.010471 -0.020191 0.103907
v 0.075646 -0.142126 0.248930
v 0.022151 -0.042045 0.420120
v 0.072739 -0.136687 0.217727
v 0.035832 -0.067639 0.407963
v 0.067037 -0.126019 0.188335
v 0.048222 -0.090818 0.390288
v 0.058758 -0.110531 0.161882
v 0.058758 -0.110531 0.367792
v 0.048222 -0.090818 0.139386
v 0.067037 -0.126019 0.341339
v 0.035832 -0.067639 0.121711
v 0.072739 -0.136687 0.311947
v 0.029695 -0.098492 0.390288
v 0.036183 -0.119882 0.161882
v 0.036183 -0.119882 0.367792
v 0.029695 -0.098492 0.139386
v 0.041281 -0.136687 0.341339
v 0.022065 -0.073341 0.121711
v 0.044792 -0.148263 0.311947
v 0.013641 -0.045570 0.109555
v 0.046583 -0.154164 0.280744
v 0.006448 -0.021858 0.425767
v 0.006448 -0.021858 0.103907
v 0.046583 -0.154164 0.248930
v 0.013641 -0.045570 0.420120
v 0.044792 -0.148263 0.217727
v 0.022065 -0.073341 0.407963
v 0.041281 -0.136687 0.188335
v 0.015729 -0.160302 0.280744
v 0.002177 -0.022707 0.425767
v 0.002177 -0.022707 0.103907
v 0.015729 -0.160302 0.248930
v 0.004606 -0.047367 0.420120
v 0.015125 -0.154164 0.217727
v 0.007450 -0.076248 0.407963
v 0.013939 -0.142126 0.188335
v 0.010027 -0.102405 0.390288
v 0.012218 -0.124649 0.161882
v 0.012218 -0.124649 0.367792
v 0.010027 -0.102405 0.139386
v 0.013939 -0.142126 0.341339
v 0.007450 -0.076248 0.121711
v 0.015125 -0.154164 0.311947
v 0.004606 -0.047367 0.109555
v -0.012218 -0.124649 0.161882
v -0.012218 -0.124649 0.367792
v -0.010027 -0.102405 0.139386
v -0.013939 -0.142126 0.341339
v -0.007450 -0.076248 0.121711
v -0.015125 -0.154164 0.311947
v -0.004606 -0.047367 0.109555
v -0.015729 -0.160302 0.280744
v -0.002177 -0.022707 0.425767
v -0.002177 -0.022707 0.103907
v -0.015729 -0.160302 0.248930
v -0.004606 -0.047367 0.420120
v -0.015125 -0.154164 0.217727
v -0.007450 -0.076248 0.407963
v -0.013939 -0.142126 0.188335
v -0.010027 -0.102405 0.390288
v -0.006448 -0.021858 0.425767
v -0.006448 -0.021858 0.103907
v -0.046583 -0.154164 0.248930
v -0.013641 -0.045570 0.420120
v -0.044792 -0.148263 0.217727
v -0.022065 -0.073341 0.407963
v -0.041281 -0.136687 0.188335
v -0.029695 -0.098492 0.390288
v -0.036183 -0.119882 0.161882
v -0.036183 -0.119882 0.367792
v -0.029695 -0.098492 0.139386
v -0.041281 -0.136687 0.341339
v -0.022065 -0.073341 0.121711
v -0.044792 -0.148263 0.311947
v -0.013641 -0.045570 0.109555
v -0.046583 -0.154164 0.280744
v -0.058758 -0.110531 0.367792
v -0.048222 -0.090818 0.139386
v -0.067037 -0.126019 0.341339
v -0.035832 -0.067639 0.121711
v -0.072739 -0.136687 0.311947
v -0.022151 -0.042045 0.109555
v -0.075646 -0.142126 0.280744
v -0.010471 -0.020191 0.425767
v -0.010471 -0.020191 0.103907
v -0.075646 -0.142126 0.248930
v -0.022151 -0.042045 0.420120
v -0.072739 -0.136687 0.217727
v -0.035832 -0.067639 0.407963
v -0.067037 -0.126019 0.188335
v -0.048222 -0.090818 0.390288
v -0.058758 -0.110531 0.161882
v -0.101802 -0.124649 0.248930
v -0.029811 -0.036927 0.420120
v -0.097890 -0.119882 0.217727
v -0.048222 -0.059360 0.407963
v -0.090216 -0.110531 0.188335
v -0.064895 -0.079677 0.390288
v -0.079075 -0.096955 0.161882
v -0.079075 -0.096955 0.367792
v -0.064895 -0.079677 0.139386
v -0.090216 -0.110531 0.341339
v -0.048222 -0.059360 0.121711
v -0.097890 -0.119882 0.311947
v -0.029811 -0.036927 0.109555
v -0.101803 -0.124649 0.280744
v -0.014091 -0.017772 0.425767
v -0.014091 -0.017772 0.103907
v -0.079075 -0.065497 0.139386
v -0.109929 -0.090818 0.341339
v -0.058758 -0.048824 0.121711
v -0.119280 -0.098492 0.311947
v -0.036325 -0.030413 0.109555
v -0.124047 -0.102405 0.280744
v -0.017170 -0.014693 0.425767
v -0.017170 -0.014693 0.103907
v -0.124047 -0.102405 0.248930
v -0.036325 -0.030413 0.420120
v -0.119280 -0.098492 0.217727
v -0.058758 -0.048824 0.407963
v -0.109929 -0.090818 0.188335
v -0.079075 -0.065497 0.390288
v -0.096353 -0.079677 0.161882
v -0.096353 -0.079677 0.367792
v -0.136085 -0.073341 0.217727
v -0.067037 -0.036434 0.407963
v -0.125417 -0.067639 0.188335
v -0.090216 -0.048824 0.390288
v -0.109929 -0.059360 0.161882
v -0.109929 -0.059360 0.367792
v -0.090216 -0.048824 0.139386
v -0.125417 -0.067639 0.341339
v -0.067037 -0.036434 0.121711
v -0.136085 -0.073341 0.311947
v -0.041443 -0.022754 0.109555
v -0.141524 -0.076248 0.280744
v -0.019589 -0.011073 0.425767
v -0.019589 -0.011073 0.103907
v -0.141524 -0.076248 0.248930
v -0.041443 -0.022754 0.420120
v -0.072739 -0.022667 0.121711
v -0.147661 -0.045395 0.311947
v -0.044968 -0.014243 0.109555
v -0.153562 -0.047185 0.280744
v -0.021256 -0.007050 0.425767
v -0.021256 -0.007050 0.103907
v -0.153562 -0.047185 0.248930
v -0.044968 -0.014243 0.420120
v -0.147661 -0.045395 0.217727
v -0.072739 -0.022667 0.407963
v -0.136085 -0.041883 0.188335
v -0.097890 -0.030297 0.390288
v -0.119280 -0.036785 0.161882
v -0.119280 -0.036785 0.367792
v -0.097890 -0.030297 0.139386
v -0.136085 -0.041883 0.341339
v -0.075646 -0.008053 0.407963
v -0.141524 -0.014541 0.188335
v -0.101802 -0.010629 0.390288
v -0.124047 -0.012820 0.161882
v -0.124047 -0.012820 0.367792
v -0.101802 -0.010629 0.139386
v -0.141524 -0.014541 0.341339
v -0.075646 -0.008053 0.121711
v -0.153562 -0.015727 0.311947
v -0.046765 -0.005208 0.109555
v -0.159699 -0.016331 0.280744
v -0.022105 -0.002779 0.425767
v -0.022105 -0.002779 0.103907
v -0.159699 -0.016331 0.248930
v -0.046765 -0.005208 0.420120
v -0.153562 -0.015727 0.217727
v -0.153562 0.014523 0.311947
v -0.046765 0.004004 0.109555
v -0.159699 0.015127 0.280744
v -0.022105 0.001575 0.425767
v -0.022105 0.001575 0.103907
v -0.159699 0.015127 0.248930
v -0.046765 0.004004 0.420120
v -0.153562 0.014523 0.217727
v -0.075646 0.006848 0.407963
v -0.141524 0.013337 0.188335
v -0.101802 0.009425 0.390288
v -0.124047 0.011615 0.161882
v -0.124047 0.011615 0.367792
v -0.101802 0.009425 0.139386
v -0.141524 0.013337 0.341339
v -0.075646 0.006848 0.121711
v -0.136085 0.040679 0.188335
v -0.097890 0.029093 0.390288
v -0.119280 0.035581 0.161882
v -0.119280 0.035581 0.367792
v -0.097890 0.029093 0.139386
v -0.136085 0.040679 0.341339
v -0.072739 0.021463 0.121711
v -0.147661 0.044190 0.311947
v -0.044968 0.013039 0.109555
v -0.153562 0.045981 0.280744
v -0.021256 0.005846 0.425767
v -0.021256 0.005846 0.103907
v -0.153562 0.045981 0.248930
v -0.044968 0.013039 0.420120
v -0.147661 0.044190 0.217727
v -0.072739 0.021463 0.407963
v -0.041443 0.021549 0.109555
v -0.141524 0.075044 0.280744
v -0.019589 0.009869 0.425767
v -0.019589 0.009869 0.103907
v -0.141524 0.075044 0.248930
v -0.041443 0.021549 0.420120
v -0.136085 0.072137 0.217727
v -0.067037 0.035230 0.407963
v -0.125417 0.066435 0.188335
v -0.090216 0.047619 0.390288
v -0.109929 0.058156 0.161882
v -0.109929 0.058156 0.367792
v -0.090216 0.047619 0.139386
v -0.125417 0.066435 0.341339
v -0.067037 0.035230 0.121711
v -0.136085 0.072137 0.311947
v -0.079075 0.064293 0.390288
v -0.096353 0.078473 0.161882
v -0.096353 0.078473 0.367792
v -0.079075 0.064293 0.139386
v -0.109929 0.089614 0.341339
v -0.058758 0.047619 0.121711
v -0.119280 0.097288 0.311947
v -0.036325 0.029209 0.109555
v -0.124047 0.101200 0.280744
v -0.017170 0.013489 0.425767
v -0.017170 0.013489 0.103907
v -0.124047 0.101200 0.248930
v -0.036325 0.029209 0.420120
v -0.119280 0.097288 0.217727
v -0.058758 0.047619 0.407963
v -0.109929 0.089614 0.188335
v -0.101802 0.123445 0.280744
v -0.014091 0.016568 0.425767
v -0.014091 0.016568 0.103907
v -0.101802 0.123445 0.248930
v -0.029811 0.035723 0.420120
v -0.097890 0.118678 0.217727
v -0.048222 0.058156 0.407963
v -0.090216 0.109327 0.188335
v -0.064895 0.078473 0.390288
v -0.079075 0.095751 0.161882
v -0.079075 0.095751 0.367792
v -0.064895 0.078473 0.139386
v -0.090216 0.109327 0.341339
v -0.048222 0.058156 0.121711
v -0.097890 0.118678 0.311947
v -0.029811 0.035723 0.109555
v -0.058758 0.109327 0.161882
v -0.058758 0.109327 0.367792
v -0.048222 0.089614 0.139386
v -0.067037 0.124815 0.341339
v -0.035832 0.066435 0.121711
v -0.072739 0.135483 0.311947
v -0.022151 0.040840 0.109555
v -0.075646 0.140922 0.280744
v -0.010471 0.018987 0.425767
v -0.010471 0.018987 0.103907
v -0.075646 0.140922 0.248930
v -0.022151 0.040840 0.420120
v -0.072739 0.135483 0.217727
v -0.035832 0.066435 0.407963
v -0.067037 0.124815 0.188335
v -0.048222 0.089614 0.390288
v -0.006448 0.020654 0.103907
v -0.046583 0.152960 0.248930
v -0.013641 0.044366 0.420120
v -0.044792 0.147059 0.217727
v -0.022065 0.072137 0.407963
v -0.041281 0.135483 0.188335
v -0.029695 0.097288 0.390288
v -0.036183 0.118678 0.161882
v -0.036183 0.118678 0.367792
v -0.029695 0.097288 0.139386
v -0.041281 0.135483 0.341339
v -0.022065 0.072137 0.121711
v -0.044792 0.147059 0.311947
v -0.013641 0.044366 0.109555
v -0.046583 0.152960 0.280744
v -0.006448 0.020654 0.425767
v -0.010027 0.101200 0.139386
v -0.013939 0.140922 0.341339
v -0.007450 0.075044 0.121711
v -0.015125 0.152960 0.311947
v -0.004606 0.046163 0.109555
v -0.015729 0.159097 0.280744
v -0.002177 0.021503 0.425767
v -0.002177 0.021503 0.103907
v -0.015729 0.159097 0.248930
v -0.004606 0.046163 0.420120
v -0.015125 0.152960 0.217727
v -0.007450 0.075044 0.407963
v -0.013939 0.140922 0.188335
v -0.010027 0.101200 0.390288
v -0.012218 0.123445 0.161882
v -0.012218 0.123445 0.367792
v 0.004606 0.046163 0.420120
v 0.015125 0.152960 0.217727
v 0.007450 0.075044 0.407963
v 0.013939 0.140922 0.188335
v 0.010027 0.101200 0.390288
v 0.012218 0.123445 0.161882
v 0.012218 0.123445 0.367792
v 0.010027 0.101200 0.139386
v 0.013939 0.140922 0.341339
v 0.007451 0.075044 0.121711
v 0.015125 0.152960 0.311947
v 0.004606 0.046163 0.109555
v 0.015729 0.159097 0.280744
v 0.002177 0.021503 0.425767
v 0.002177 0.021503 0.103907
v 0.015729 0.159097 0.248930
v 0.041281 0.135483 0.341339
v 0.022065 0.072137 0.121711
v 0.044792 0.147059 0.311947
v 0.013641 0.044366 0.109555
v 0.046583 0.152960 0.280744
v 0.006448 0.020654 0.425767
v 0.006448 0.020654 0.103907
v 0.046583 0.152960 0.248930
v 0.013641 0.044366 0.420120
v 0.044792 0.147059 0.217727
v 0.022065 0.072137 0.407963
v 0.041281 0.135483 0.188335
v 0.029695 0.097288 0.390288
v 0.036183 0.118678 0.161882
v 0.036183 0.118678 0.367792
v 0.029695 0.097288 0.139386
v 0.072739 0.135483 0.217727
v 0.035832 0.066435 0.407963
v 0.067037 0.124815 0.188335
v 0.048222 0.089614 0.390288
v 0.058758 0.109327 0.161882
v 0.058758 0.109327 0.367792
v 0.048222 0.089614 0.139386
v 0.067037 0.124815 0.341339
v 0.035832 0.066435 0.121711
v 0.072739 0.135483 0.311947
v 0.022151 0.040840 0.109555
v 0.075646 0.140922 0.280744
v 0.010471 0.018987 0.425767
v 0.010471 0.018987 0.103907
v 0.075646 0.140922 0.248930
v 0.022151 0.040840 0.420120
v 0.048222 0.058156 0.121711
v 0.097890 0.118678 0.311947
v 0.029811 0.035723 0.109555
v 0.101802 0.123444 0.280744
v 0.014091 0.016568 0.425767
v 0.014091 0.016568 0.103907
v 0.101802 0.123444 0.248930
v 0.029811 0.035723 0.420120
v 0.097890 0.118678 0.217727
v 0.048222 0.058156 0.407963
v 0.090216 0.109327 0.188335
v 0.064895 0.078473 0.390288
v 0.079075 0.095751 0.161882
v 0.079075 0.095751 0.367792
v 0.064895 0.078473 0.139386
v 0.090216 0.109327 0.341339
v 0.058758 0.047619 0.407963
v 0.109929 0.089614 0.188335
v 0.079075 0.064293 0.390288
v 0.096353 0.078473 0.161882
v 0.096353 0.078473 0.367792
v 0.079075 0.064293 0.139386
v 0.109929 0.089614 0.341339
v 0.058758 0.047619 0.121711
v 0.119280 0.097288 0.311947
v 0.036325 0.029209 0.109555
v 0.124047 0.101200 0.280744
v 0.017170 0.013489 0.425767
v 0.017170 0.013489 0.103907
v 0.124047 0.101200 0.248930
v 0.036325 0.029209 0.420120
v 0.119280 0.097288 0.217727
v 0.136085 0.072137 0.311947
v 0.041443 0.021549 0.109555
v 0.141524 0.075044 0.280744
v 0.019589 0.009869 0.425767
v 0.019589 0.009869 0.103907
v 0.141524 0.075044 0.248930
v 0.041443 0.021549 0.420120
v 0.136085 0.072137 0.217727
v 0.067037 0.035230 0.407963
v 0.125417 0.066435 0.188335
v 0.090216 0.047619 0.390288
v 0.109929 0.058156 0.161882
v 0.109929 0.058156 0.367792
v 0.090216 0.047619 0.139386
v 0.125417 0.066435 0.341339
v 0.067037 0.035230 0.121711
v 0.136085 0.040679 0.188335
v 0.097890 0.029093 0.390288
v 0.119280 0.035581 0.161882
v 0.119280 0.035581 0.367792
v 0.097890 0.029093 0.139386
v 0.136085 0.040679 0.341339
v 0.072739 0.021463 0.121711
v 0.147661 0.044190 0.311947
v 0.044968 0.013039 0.109555
v 0.153562 0.045980 0.280744
v 0.021256 0.005846 0.425767
v 0.021256 0.005846 0.103907
v 0.153562 0.045980 0.248930
v 0.044968 0.013039 0.420120
v 0.147661 0.044190 0.217727
v 0.072739 0.021463 0.407963
v 0.046765 0.004004 0.109555
v 0.159699 0.015127 0.280744
v 0.022105 0.001575 0.425767
v 0.022105 0.001575 0.103907
v 0.159699 0.015127 0.248930
v 0.046765 0.004004 0.420120
v 0.153562 0.014522 0.217727
v 0.075646 0.006848 0.407963
v 0.141524 0.013337 0.188335
v 0.101802 0.009425 0.390288
v 0.124047 0.011615 0.161882
v 0.124047 0.011615 0.367792
v 0.101802 0.009425 0.139386
v 0.141524 0.013337 0.341339
v 0.075646 0.006848 0.121711
v 0.153562 0.014522 0.311947
s 0
f 482 1380 1475 1402
f 1380 481 1403 1475
f 1475 1403 20 498
f 1402 1475 498 21
f 4 483 1476 499
f 483 3 500 1476
f 1476 500 13 491
f 499 1476 491 14
f 474 1390 1477 1404
f 82 1400 1477 1390
f 7 1404 1477 1400
f 308 1399 1478 1401
f 482 1402 1478 1399
f 21 1401 1478 1402
f 5 484 1479 501
f 484 4 499 1479
f 1479 499 14 492
f 501 1479 492 15
f 475 1377 1480 1405
f 1377 474 1404 1480
f 1480 1404 7 485
f 1405 1480 485 8
f 478 1396 1481 1406
f 1396 5 501 1481
f 1481 501 15 493
f 1406 1481 493 16
f 1 1391 1482 502
f 1391 475 1405 1482
f 1482 1405 8 486
f 502 1482 486 9
f 6 1397 1483 503
f 1397 478 1406 1483
f 1483 1406 16 494
f 503 1483 494 17
f 476 1392 1484 1407
f 1392 1 502 1484
f 1484 502 9 487
f 1407 1484 487 10
f 479 1398 1485 1408
f 1398 6 503 1485
f 1485 503 17 495
f 1408 1485 495 18
f 2 1393 1486 504
f 1393 476 1407 1486
f 1486 1407 10 488
f 504 1486 488 11
f 480 1378 1487 1409
f 1378 479 1408 1487
f 1487 1408 18 496
f 1409 1487 496 19
f 477 1394 1488 1410
f 1394 2 504 1488
f 1488 504 11 489
f 1410 1488 489 12
f 481 1379 1489 1403
f 1379 480 1409 1489
f 1489 1409 19 497
f 1403 1489 497 20
f 3 1395 1490 500
f 1395 477 1410 1490
f 1490 1410 12 490
f 500 1490 490 13
f 12 489 1491 519
f 489 11 520 1491
f 1491 520 26 509
f 519 1491 509 27
f 20 497 1492 521
f 497 19 522 1492
f 1492 522 34 517
f 521 1492 517 35
f 13 490 1493 523
f 490 12 519 1493
f 1493 519 27 510
f 523 1493 510 28
f 21 498 1494 524
f 498 20 521 1494
f 1494 521 35 518
f 524 1494 518 36
f 14 491 1495 525
f 491 13 523 1495
f 1495 523 28 511
f 525 1495 511 29
f 7 1400 1496 526
f 82 1411 1496 1400
f 22 526 1496 1411
f 308 1401 1497 1412
f 21 524 1497 1401
f 36 1412 1497 524
f 15 492 1498 527
f 492 14 525 1498
f 1498 525 29 512
f 527 1498 512 30
f 8 485 1499 528
f 485 7 526 1499
f 1499 526 22 505
f 528 1499 505 23
f 16 493 1500 529
f 493 15 527 1500
f 1500 527 30 513
f 529 1500 513 31
f 9 486 1501 530
f 486 8 528 1501
f 1501 528 23 506
f 530 1501 506 24
f 17 494 1502 531
f 494 16 529 1502
f 1502 529 31 514
f 531 1502 514 32
f 10 487 1503 532
f 487 9 530 1503
f 1503 530 24 507
f 532 1503 507 25
f 18 495 1504 533
f 495 17 531 1504
f 1504 531 32 515
f 533 1504 515 33
f 11 488 1505 520
f 488 10 532 1505
f 1505 532 25 508
f 520 1505 508 26
f 19 496 1506 522
f 496 18 533 1506
f 1506 533 33 516
f 522 1506 516 34
f 31 513 1507 548
f 513 30 549 1507
f 1507 549 45 542
f 548 1507 542 46
f 24 506 1508 550
f 506 23 551 1508
f 1508 551 38 535
f 550 1508 535 39
f 32 514 1509 552
f 514 31 548 1509
f 1509 548 46 543
f 552 1509 543 47
f 25 507 1510 553
f 507 24 550 1510
f 1510 550 39 536
f 553 1510 536 40
f 33 515 1511 554
f 515 32 552 1511
f 1511 552 47 544
f 554 1511 544 48
f 26 508 1512 555
f 508 25 553 1512
f 1512 553 40 537
f 555 1512 537 41
f 34 516 1513 556
f 516 33 554 1513
f 1513 554 48 545
f 556 1513 545 49
f 27 509 1514 557
f 509 26 555 1514
f 1514 555 41 538
f 557 1514 538 42
f 35 517 1515 558
f 517 34 556 1515
f 1515 556 49 546
f 558 1515 546 50
f 28 510 1516 559
f 510 27 557 1516
f 1516 557 42 539
f 559 1516 539 43
f 36 518 1517 560
f 518 35 558 1517
f 1517 558 50 547
f 560 1517 547 51
f 29 511 1518 561
f 511 28 559 1518
f 1518 559 43 540
f 561 1518 540 44
f 22 1411 1519 562
f 82 1413 1519 1411
f 37 562 1519 1413
f 308 1412 1520 1414
f 36 560 1520 1412
f 51 1414 1520 560
f 30 512 1521 549
f 512 29 561 1521
f 1521 561 44 541
f 549 1521 541 45
f 23 505 1522 551
f 505 22 562 1522
f 1522 562 37 534
f 551 1522 534 38
f 50 546 1523 577
f 546 49 578 1523
f 1523 578 64 575
f 577 1523 575 65
f 43 539 1524 579
f 539 42 580 1524
f 1524 580 57 568
f 579 1524 568 58
f 51 547 1525 581
f 547 50 577 1525
f 1525 577 65 576
f 581 1525 576 66
f 44 540 1526 582
f 540 43 579 1526
f 1526 579 58 569
f 582 1526 569 59
f 37 1413 1527 583
f 82 1415 1527 1413
f 52 583 1527 1415
f 308 1414 1528 1416
f 51 581 1528 1414
f 66 1416 1528 581
f 45 541 1529 584
f 541 44 582 1529
f 1529 582 59 570
f 584 1529 570 60
f 38 534 1530 585
f 534 37 583 1530
f 1530 583 52 563
f 585 1530 563 53
f 46 542 1531 586
f 542 45 584 1531
f 1531 584 60 571
f 586 1531 571 61
f 39 535 1532 587
f 535 38 585 1532
f 1532 585 53 564
f 587 1532 564 54
f 47 543 1533 588
f 543 46 586 1533
f 1533 586 61 572
f 588 1533 572 62
f 40 536 1534 589
f 536 39 587 1534
f 1534 587 54 565
f 589 1534 565 55
f 48 544 1535 590
f 544 47 588 1535
f 1535 588 62 573
f 590 1535 573 63
f 41 537 1536 591
f 537 40 589 1536
f 1536 589 55 566
f 591 1536 566 56
f 49 545 1537 578
f 545 48 590 1537
f 1537 590 63 574
f 578 1537 574 64
f 42 538 1538 580
f 538 41 591 1538
f 1538 591 56 567
f 580 1538 567 57
f 62 572 1539 606
f 572 61 607 1539
f 1539 607 76 601
f 606 1539 601 77
f 55 565 1540 608
f 565 54 609 1540
f 1540 609 69 594
f 608 1540 594 70
f 63 573 1541 610
f 573 62 606 1541
f 1541 606 77 602
f 610 1541 602 78
f 56 566 1542 611
f 566 55 608 1542
f 1542 608 70 595
f 611 1542 595 71
f 64 574 1543 612
f 574 63 610 1543
f 1543 610 78 603
f 612 1543 603 79
f 57 567 1544 613
f 567 56 611 1544
f 1544 611 71 596
f 613 1544 596 72
f 65 575 1545 614
f 575 64 612 1545
f 1545 612 79 604
f 614 1545 604 80
f 58 568 1546 615
f 568 57 613 1546
f 1546 613 72 597
f 615 1546 597 73
f 66 576 1547 616
f 576 65 614 1547
f 1547 614 80 605
f 616 1547 605 81
f 59 569 1548 617
f 569 58 615 1548
f 1548 615 73 598
f 617 1548 598 74
f 52 1415 1549 618
f 82 1417 1549 1415
f 67 618 1549 1417
f 308 1416 1550 1418
f 66 616 1550 1416
f 81 1418 1550 616
f 60 570 1551 619
f 570 59 617 1551
f 1551 617 74 599
f 619 1551 599 75
f 53 563 1552 620
f 563 52 618 1552
f 1552 618 67 592
f 620 1552 592 68
f 61 571 1553 607
f 571 60 619 1553
f 1553 619 75 600
f 607 1553 600 76
f 54 564 1554 609
f 564 53 620 1554
f 1554 620 68 593
f 609 1554 593 69
f 81 605 1555 636
f 605 80 637 1555
f 1555 637 96 635
f 636 1555 635 97
f 74 598 1556 638
f 598 73 639 1556
f 1556 639 89 628
f 638 1556 628 90
f 67 1417 1557 640
f 82 621 1557 1417
f 83 640 1557 621
f 308 1418 1558 1419
f 81 636 1558 1418
f 97 1419 1558 636
f 75 599 1559 641
f 599 74 638 1559
f 1559 638 90 629
f 641 1559 629 91
f 68 592 1560 642
f 592 67 640 1560
f 1560 640 83 622
f 642 1560 622 84
f 76 600 1561 643
f 600 75 641 1561
f 1561 641 91 630
f 643 1561 630 92
f 69 593 1562 644
f 593 68 642 1562
f 1562 642 84 623
f 644 1562 623 85
f 77 601 1563 645
f 601 76 643 1563
f 1563 643 92 631
f 645 1563 631 93
f 70 594 1564 646
f 594 69 644 1564
f 1564 644 85 624
f 646 1564 624 86
f 78 602 1565 647
f 602 77 645 1565
f 1565 645 93 632
f 647 1565 632 94
f 71 595 1566 648
f 595 70 646 1566
f 1566 646 86 625
f 648 1566 625 87
f 79 603 1567 649
f 603 78 647 1567
f 1567 647 94 633
f 649 1567 633 95
f 72 596 1568 650
f 596 71 648 1568
f 1568 648 87 626
f 650 1568 626 88
f 80 604 1569 637
f 604 79 649 1569
f 1569 649 95 634
f 637 1569 634 96
f 73 597 1570 639
f 597 72 650 1570
f 1570 650 88 627
f 639 1570 627 89
f 86 624 1571 665
f 624 85 666 1571
f 1571 666 100 653
f 665 1571 653 101
f 94 632 1572 667
f 632 93 668 1572
f 1572 668 108 661
f 667 1572 661 109
f 87 625 1573 669
f 625 86 665 1573
f 1573 665 101 654
f 669 1573 654 102
f 95 633 1574 670
f 633 94 667 1574
f 1574 667 109 662
f 670 1574 662 110
f 88 626 1575 671
f 626 87 669 1575
f 1575 669 102 655
f 671 1575 655 103
f 96 634 1576 672
f 634 95 670 1576
f 1576 670 110 663
f 672 1576 663 111
f 89 627 1577 673
f 627 88 671 1577
f 1577 671 103 656
f 673 1577 656 104
f 97 635 1578 674
f 635 96 672 1578
f 1578 672 111 664
f 674 1578 664 112
f 90 628 1579 675
f 628 89 673 1579
f 1579 673 104 657
f 675 1579 657 105
f 83 621 1580 676
f 82 1420 1580 621
f 98 676 1580 1420
f 308 1419 1581 1421
f 97 674 1581 1419
f 112 1421 1581 674
f 91 629 1582 677
f 629 90 675 1582
f 1582 675 105 658
f 677 1582 658 106
f 84 622 1583 678
f 622 83 676 1583
f 1583 676 98 651
f 678 1583 651 99
f 92 630 1584 679
f 630 91 677 1584
f 1584 677 106 659
f 679 1584 659 107
f 85 623 1585 666
f 623 84 678 1585
f 1585 678 99 652
f 666 1585 652 100
f 93 631 1586 668
f 631 92 679 1586
f 1586 679 107 660
f 668 1586 660 108
f 105 657 1587 694
f 657 104 695 1587
f 1587 695 119 686
f 694 1587 686 120
f 98 1420 1588 696
f 82 1422 1588 1420
f 113 696 1588 1422
f 308 1421 1589 1423
f 112 697 1589 1421
f 127 1423 1589 697
f 106 658 1590 698
f 658 105 694 1590
f 1590 694 120 687
f 698 1590 687 121
f 99 651 1591 699
f 651 98 696 1591
f 1591 696 113 680
f 699 1591 680 114
f 107 659 1592 700
f 659 106 698 1592
f 1592 698 121 688
f 700 1592 688 122
f 100 652 1593 701
f 652 99 699 1593
f 1593 699 114 681
f 701 1593 681 115
f 108 660 1594 702
f 660 107 700 1594
f 1594 700 122 689
f 702 1594 689 123
f 101 653 1595 703
f 653 100 701 1595
f 1595 701 115 682
f 703 1595 682 116
f 109 661 1596 704
f 661 108 702 1596
f 1596 702 123 690
f 704 1596 690 124
f 102 654 1597 705
f 654 101 703 1597
f 1597 703 116 683
f 705 1597 683 117
f 110 662 1598 706
f 662 109 704 1598
f 1598 704 124 691
f 706 1598 691 125
f 103 655 1599 707
f 655 102 705 1599
f 1599 705 117 684
f 707 1599 684 118
f 111 663 1600 708
f 663 110 706 1600
f 1600 706 125 692
f 708 1600 692 126
f 104 656 1601 695
f 656 103 707 1601
f 1601 707 118 685
f 695 1601 685 119
f 112 664 1602 697
f 664 111 708 1602
f 1602 708 126 693
f 697 1602 693 127
f 124 690 1603 723
f 690 123 724 1603
f 1603 724 138 719
f 723 1603 719 139
f 117 683 1604 725
f 683 116 726 1604
f 1604 726 131 712
f 725 1604 712 132
f 125 691 1605 727
f 691 124 723 1605
f 1605 723 139 720
f 727 1605 720 140
f 118 684 1606 728
f 684 117 725 1606
f 1606 725 132 713
f 728 1606 713 133
f 126 692 1607 729
f 692 125 727 1607
f 1607 727 140 721
f 729 1607 721 141
f 119 685 1608 730
f 685 118 728 1608
f 1608 728 133 714
f 730 1608 714 134
f 127 693 1609 731
f 693 126 729 1609
f 1609 729 141 722
f 731 1609 722 142
f 120 686 1610 732
f 686 119 730 1610
f 1610 730 134 715
f 732 1610 715 135
f 113 1422 1611 733
f 82 1424 1611 1422
f 128 733 1611 1424
f 308 1423 1612 1425
f 127 731 1612 1423
f 142 1425 1612 731
f 121 687 1613 734
f 687 120 732 1613
f 1613 732 135 716
f 734 1613 716 136
f 114 680 1614 735
f 680 113 733 1614
f 1614 733 128 709
f 735 1614 709 129
f 122 688 1615 736
f 688 121 734 1615
f 1615 734 136 717
f 736 1615 717 137
f 115 681 1616 737
f 681 114 735 1616
f 1616 735 129 710
f 737 1616 710 130
f 123 689 1617 724
f 689 122 736 1617
f 1617 736 137 718
f 724 1617 718 138
f 116 682 1618 726
f 682 115 737 1618
f 1618 737 130 711
f 726 1618 711 131
f 128 1424 1619 752
f 82 1426 1619 1424
f 143 752 1619 1426
f 308 1425 1620 1427
f 142 753 1620 1425
f 157 1427 1620 753
f 136 716 1621 754
f 716 135 755 1621
f 1621 755 150 745
f 754 1621 745 151
f 129 709 1622 756
f 709 128 752 1622
f 1622 752 143 738
f 756 1622 738 144
f 137 717 1623 757
f 717 136 754 1623
f 1623 754 151 746
f 757 1623 746 152
f 130 710 1624 758
f 710 129 756 1624
f 1624 756 144 739
f 758 1624 739 145
f 138 718 1625 759
f 718 137 757 1625
f 1625 757 152 747
f 759 1625 747 153
f 131 711 1626 760
f 711 130 758 1626
f 1626 758 145 740
f 760 1626 740 146
f 139 719 1627 761
f 719 138 759 1627
f 1627 759 153 748
f 761 1627 748 154
f 132 712 1628 762
f 712 131 760 1628
f 1628 760 146 741
f 762 1628 741 147
f 140 720 1629 763
f 720 139 761 1629
f 1629 761 154 749
f 763 1629 749 155
f 133 713 1630 764
f 713 132 762 1630
f 1630 762 147 742
f 764 1630 742 148
f 141 721 1631 765
f 721 140 763 1631
f 1631 763 155 750
f 765 1631 750 156
f 134 714 1632 766
f 714 133 764 1632
f 1632 764 148 743
f 766 1632 743 149
f 142 722 1633 753
f 722 141 765 1633
f 1633 765 156 751
f 753 1633 751 157
f 135 715 1634 755
f 715 134 766 1634
f 1634 766 149 744
f 755 1634 744 150
f 147 741 1635 781
f 741 146 782 1635
f 1635 782 161 770
f 781 1635 770 162
f 155 749 1636 783
f 749 154 784 1636
f 1636 784 169 778
f 783 1636 778 170
f 148 742 1637 785
f 742 147 781 1637
f 1637 781 162 771
f 785 1637 771 163
f 156 750 1638 786
f 750 155 783 1638
f 1638 783 170 779
f 786 1638 779 171
f 149 743 1639 787
f 743 148 785 1639
f 1639 785 163 772
f 787 1639 772 164
f 157 751 1640 788
f 751 156 786 1640
f 1640 786 171 780
f 788 1640 780 172
f 150 744 1641 789
f 744 149 787 1641
f 1641 787 164 773
f 789 1641 773 165
f 143 1426 1642 790
f 82 1428 1642 1426
f 158 790 1642 1428
f 308 1427 1643 1429
f 157 788 1643 1427
f 172 1429 1643 788
f 151 745 1644 791
f 745 150 789 1644
f 1644 789 165 774
f 791 1644 774 166
f 144 738 1645 792
f 738 143 790 1645
f 1645 790 158 767
f 792 1645 767 159
f 152 746 1646 793
f 746 151 791 1646
f 1646 791 166 775
f 793 1646 775 167
f 145 739 1647 794
f 739 144 792 1647
f 1647 792 159 768
f 794 1647 768 160
f 153 747 1648 795
f 747 152 793 1648
f 1648 793 167 776
f 795 1648 776 168
f 146 740 1649 782
f 740 145 794 1649
f 1649 794 160 769
f 782 1649 769 161
f 154 748 1650 784
f 748 153 795 1650
f 1650 795 168 777
f 784 1650 777 169
f 166 774 1651 810
f 774 165 811 1651
f 1651 811 180 803
f 810 1651 803 181
f 159 767 1652 812
f 767 158 813 1652
f 1652 813 173 796
f 812 1652 796 174
f 167 775 1653 814
f 775 166 810 1653
f 1653 810 181 804
f 814 1653 804 182
f 160 768 1654 815
f 768 159 812 1654
f 1654 812 174 797
f 815 1654 797 175
f 168 776 1655 816
f 776 167 814 1655
f 1655 814 182 805
f 816 1655 805 183
f 161 769 1656 817
f 769 160 815 1656
f 1656 815 175 798
f 817 1656 798 176
f 169 777 1657 818
f 777 168 816 1657
f 1657 816 183 806
f 818 1657 806 184
f 162 770 1658 819
f 770 161 817 1658
f 1658 817 176 799
f 819 1658 799 177
f 170 778 1659 820
f 778 169 818 1659
f 1659 818 184 807
f 820 1659 807 185
f 163 771 1660 821
f 771 162 819 1660
f 1660 819 177 800
f 821 1660 800 178
f 171 779 1661 822
f 779 170 820 1661
f 1661 820 185 808
f 822 1661 808 186
f 164 772 1662 823
f 772 163 821 1662
f 1662 821 178 801
f 823 1662 801 179
f 172 780 1663 824
f 780 171 822 1663
f 1663 822 186 809
f 824 1663 809 187
f 165 773 1664 811
f 773 164 823 1664
f 1664 823 179 802
f 811 1664 802 180
f 158 1428 1665 813
f 82 1430 1665 1428
f 173 813 1665 1430
f 308 1429 1666 1431
f 172 824 1666 1429
f 187 1431 1666 824
f 185 807 1667 839
f 807 184 840 1667
f 1667 840 199 836
f 839 1667 836 200
f 178 800 1668 841
f 800 177 842 1668
f 1668 842 192 829
f 841 1668 829 193
f 186 808 1669 843
f 808 185 839 1669
f 1669 839 200 837
f 843 1669 837 201
f 179 801 1670 844
f 801 178 841 1670
f 1670 841 193 830
f 844 1670 830 194
f 187 809 1671 845
f 809 186 843 1671
f 1671 843 201 838
f 845 1671 838 202
f 180 802 1672 846
f 802 179 844 1672
f 1672 844 194 831
f 846 1672 831 195
f 173 1430 1673 847
f 82 1432 1673 1430
f 188 847 1673 1432
f 308 1431 1674 1433
f 187 845 1674 1431
f 202 1433 1674 845
f 181 803 1675 848
f 803 180 846 1675
f 1675 846 195 832
f 848 1675 832 196
f 174 796 1676 849
f 796 173 847 1676
f 1676 847 188 825
f 849 1676 825 189
f 182 804 1677 850
f 804 181 848 1677
f 1677 848 196 833
f 850 1677 833 197
f 175 797 1678 851
f 797 174 849 1678
f 1678 849 189 826
f 851 1678 826 190
f 183 805 1679 852
f 805 182 850 1679
f 1679 850 197 834
f 852 1679 834 198
f 176 798 1680 853
f 798 175 851 1680
f 1680 851 190 827
f 853 1680 827 191
f 184 806 1681 840
f 806 183 852 1681
f 1681 852 198 835
f 840 1681 835 199
f 177 799 1682 842
f 799 176 853 1682
f 1682 853 191 828
f 842 1682 828 192
f 197 833 1683 868
f 833 196 869 1683
f 1683 869 211 862
f 868 1683 862 212
f 190 826 1684 870
f 826 189 871 1684
f 1684 871 204 855
f 870 1684 855 205
f 198 834 1685 872
f 834 197 868 1685
f 1685 868 212 863
f 872 1685 863 213
f 191 827 1686 873
f 827 190 870 1686
f 1686 870 205 856
f 873 1686 856 206
f 199 835 1687 874
f 835 198 872 1687
f 1687 872 213 864
f 874 1687 864 214
f 192 828 1688 875
f 828 191 873 1688
f 1688 873 206 857
f 875 1688 857 207
f 200 836 1689 876
f 836 199 874 1689
f 1689 874 214 865
f 876 1689 865 215
f 193 829 1690 877
f 829 192 875 1690
f 1690 875 207 858
f 877 1690 858 208
f 201 837 1691 878
f 837 200 876 1691
f 1691 876 215 866
f 878 1691 866 216
f 194 830 1692 879
f 830 193 877 1692
f 1692 877 208 859
f 879 1692 859 209
f 202 838 1693 880
f 838 201 878 1693
f 1693 878 216 867
f 880 1693 867 217
f 195 831 1694 881
f 831 194 879 1694
f 1694 879 209 860
f 881 1694 860 210
f 188 1432 1695 882
f 82 1434 1695 1432
f 203 882 1695 1434
f 308 1433 1696 1435
f 202 880 1696 1433
f 217 1435 1696 880
f 196 832 1697 869
f 832 195 881 1697
f 1697 881 210 861
f 869 1697 861 211
f 189 825 1698 871
f 825 188 882 1698
f 1698 882 203 854
f 871 1698 854 204
f 216 866 1699 897
f 866 215 898 1699
f 1699 898 230 895
f 897 1699 895 231
f 209 859 1700 899
f 859 208 900 1700
f 1700 900 223 888
f 899 1700 888 224
f 217 867 1701 901
f 867 216 897 1701
f 1701 897 231 896
f 901 1701 896 232
f 210 860 1702 902
f 860 209 899 1702
f 1702 899 224 889
f 902 1702 889 225
f 203 1434 1703 903
f 82 1436 1703 1434
f 218 903 1703 1436
f 308 1435 1704 1437
f 217 901 1704 1435
f 232 1437 1704 901
f 211 861 1705 904
f 861 210 902 1705
f 1705 902 225 890
f 904 1705 890 226
f 204 854 1706 905
f 854 203 903 1706
f 1706 903 218 883
f 905 1706 883 219
f 212 862 1707 906
f 862 211 904 1707
f 1707 904 226 891
f 906 1707 891 227
f 205 855 1708 907
f 855 204 905 1708
f 1708 905 219 884
f 907 1708 884 220
f 213 863 1709 908
f 863 212 906 1709
f 1709 906 227 892
f 908 1709 892 228
f 206 856 1710 909
f 856 205 907 1710
f 1710 907 220 885
f 909 1710 885 221
f 214 864 1711 910
f 864 213 908 1711
f 1711 908 228 893
f 910 1711 893 229
f 207 857 1712 911
f 857 206 909 1712
f 1712 909 221 886
f 911 1712 886 222
f 215 865 1713 898
f 865 214 910 1713
f 1713 910 229 894
f 898 1713 894 230
f 208 858 1714 900
f 858 207 911 1714
f 1714 911 222 887
f 900 1714 887 223
f 220 884 1715 926
f 884 219 927 1715
f 1715 927 234 913
f 926 1715 913 235
f 228 892 1716 928
f 892 227 929 1716
f 1716 929 242 921
f 928 1716 921 243
f 221 885 1717 930
f 885 220 926 1717
f 1717 926 235 914
f 930 1717 914 236
f 229 893 1718 931
f 893 228 928 1718
f 1718 928 243 922
f 931 1718 922 244
f 222 886 1719 932
f 886 221 930 1719
f 1719 930 236 915
f 932 1719 915 237
f 230 894 1720 933
f 894 229 931 1720
f 1720 931 244 923
f 933 1720 923 245
f 223 887 1721 934
f 887 222 932 1721
f 1721 932 237 916
f 934 1721 916 238
f 231 895 1722 935
f 895 230 933 1722
f 1722 933 245 924
f 935 1722 924 246
f 224 888 1723 936
f 888 223 934 1723
f 1723 934 238 917
f 936 1723 917 239
f 232 896 1724 937
f 896 231 935 1724
f 1724 935 246 925
f 937 1724 925 247
f 225 889 1725 938
f 889 224 936 1725
f 1725 936 239 918
f 938 1725 918 240
f 218 1436 1726 939
f 82 1438 1726 1436
f 233 939 1726 1438
f 308 1437 1727 1439
f 232 937 1727 1437
f 247 1439 1727 937
f 226 890 1728 940
f 890 225 938 1728
f 1728 938 240 919
f 940 1728 919 241
f 219 883 1729 927
f 883 218 939 1729
f 1729 939 233 912
f 927 1729 912 234
f 227 891 1730 929
f 891 226 940 1730
f 1730 940 241 920
f 929 1730 920 242
f 239 917 1731 955
f 917 238 956 1731
f 1731 956 253 946
f 955 1731 946 254
f 247 925 1732 957
f 925 246 958 1732
f 1732 958 261 954
f 957 1732 954 262
f 240 918 1733 959
f 918 239 955 1733
f 1733 955 254 947
f 959 1733 947 255
f 233 1438 1734 960
f 82 1440 1734 1438
f 248 960 1734 1440
f 308 1439 1735 1441
f 247 957 1735 1439
f 262 1441 1735 957
f 241 919 1736 961
f 919 240 959 1736
f 1736 959 255 948
f 961 1736 948 256
f 234 912 1737 962
f 912 233 960 1737
f 1737 960 248 941
f 962 1737 941 249
f 242 920 1738 963
f 920 241 961 1738
f 1738 961 256 949
f 963 1738 949 257
f 235 913 1739 964
f 913 234 962 1739
f 1739 962 249 942
f 964 1739 942 250
f 243 921 1740 965
f 921 242 963 1740
f 1740 963 257 950
f 965 1740 950 258
f 236 914 1741 966
f 914 235 964 1741
f 1741 964 250 943
f 966 1741 943 251
f 244 922 1742 967
f 922 243 965 1742
f 1742 965 258 951
f 967 1742 951 259
f 237 915 1743 968
f 915 236 966 1743
f 1743 966 251 944
f 968 1743 944 252
f 245 923 1744 969
f 923 244 967 1744
f 1744 967 259 952
f 969 1744 952 260
f 238 916 1745 956
f 916 237 968 1745
f 1745 968 252 945
f 956 1745 945 253
f 246 924 1746 958
f 924 245 969 1746
f 1746 969 260 953
f 958 1746 953 261
f 258 950 1747 984
f 950 257 985 1747
f 1747 985 272 979
f 984 1747 979 273
f 251 943 1748 986
f 943 250 987 1748
f 1748 987 265 972
f 986 1748 972 266
f 259 951 1749 988
f 951 258 984 1749
f 1749 984 273 980
f 988 1749 980 274
f 252 944 1750 989
f 944 251 986 1750
f 1750 986 266 973
f 989 1750 973 267
f 260 952 1751 990
f 952 259 988 1751
f 1751 988 274 981
f 990 1751 981 275
f 253 945 1752 991
f 945 252 989 1752
f 1752 989 267 974
f 991 1752 974 268
f 261 953 1753 992
f 953 260 990 1753
f 1753 990 275 982
f 992 1753 982 276
f 254 946 1754 993
f 946 253 991 1754
f 1754 991 268 975
f 993 1754 975 269
f 262 954 1755 994
f 954 261 992 1755
f 1755 992 276 983
f 994 1755 983 277
f 255 947 1756 995
f 947 254 993 1756
f 1756 993 269 976
f 995 1756 976 270
f 248 1440 1757 996
f 82 1442 1757 1440
f 263 996 1757 1442
f 308 1441 1758 1443
f 262 994 1758 1441
f 277 1443 1758 994
f 256 948 1759 997
f 948 255 995 1759
f 1759 995 270 977
f 997 1759 977 271
f 249 941 1760 998
f 941 248 996 1760
f 1760 996 263 970
f 998 1760 970 264
f 257 949 1761 985
f 949 256 997 1761
f 1761 997 271 978
f 985 1761 978 272
f 250 942 1762 987
f 942 249 998 1762
f 1762 998 264 971
f 987 1762 971 265
f 277 983 1763 1013
f 983 276 1014 1763
f 1763 1014 291 1012
f 1013 1763 1012 292
f 270 976 1764 1015
f 976 269 1016 1764
f 1764 1016 284 1005
f 1015 1764 1005 285
f 263 1442 1765 1017
f 82 1444 1765 1442
f 278 1017 1765 1444
f 308 1443 1766 1445
f 277 1013 1766 1443
f 292 1445 1766 1013
f 271 977 1767 1018
f 977 270 1015 1767
f 1767 1015 285 1006
f 1018 1767 1006 286
f 264 970 1768 1019
f 970 263 1017 1768
f 1768 1017 278 999
f 1019 1768 999 279
f 272 978 1769 1020
f 978 271 1018 1769
f 1769 1018 286 1007
f 1020 1769 1007 287
f 265 971 1770 1021
f 971 264 1019 1770
f 1770 1019 279 1000
f 1021 1770 1000 280
f 273 979 1771 1022
f 979 272 1020 1771
f 1771 1020 287 1008
f 1022 1771 1008 288
f 266 972 1772 1023
f 972 265 1021 1772
f 1772 1021 280 1001
f 1023 1772 1001 281
f 274 980 1773 1024
f 980 273 1022 1773
f 1773 1022 288 1009
f 1024 1773 1009 289
f 267 973 1774 1025
f 973 266 1023 1774
f 1774 1023 281 1002
f 1025 1774 1002 282
f 275 981 1775 1026
f 981 274 1024 1775
f 1775 1024 289 1010
f 1026 1775 1010 290
f 268 974 1776 1027
f 974 267 1025 1776
f 1776 1025 282 1003
f 1027 1776 1003 283
f 276 982 1777 1014
f 982 275 1026 1777
f 1777 1026 290 1011
f 1014 1777 1011 291
f 269 975 1778 1016
f 975 268 1027 1778
f 1778 1027 283 1004
f 1016 1778 1004 284
f 281 1001 1779 1043
f 1001 280 1044 1779
f 1779 1044 295 1030
f 1043 1779 1030 296
f 289 1009 1780 1045
f 1009 288 1046 1780
f 1780 1046 303 1038
f 1045 1780 1038 304
f 282 1002 1781 1047
f 1002 281 1043 1781
f 1781 1043 296 1031
f 1047 1781 1031 297
f 290 1010 1782 1048
f 1010 289 1045 1782
f 1782 1045 304 1039
f 1048 1782 1039 305
f 283 1003 1783 1049
f 1003 282 1047 1783
f 1783 1047 297 1032
f 1049 1783 1032 298
f 291 1011 1784 1050
f 1011 290 1048 1784
f 1784 1048 305 1040
f 1050 1784 1040 306
f 284 1004 1785 1051
f 1004 283 1049 1785
f 1785 1049 298 1033
f 1051 1785 1033 299
f 292 1012 1786 1052
f 1012 291 1050 1786
f 1786 1050 306 1041
f 1052 1786 1041 307
f 285 1005 1787 1053
f 1005 284 1051 1787
f 1787 1051 299 1034
f 1053 1787 1034 300
f 278 1444 1788 1054
f 82 1446 1788 1444
f 293 1054 1788 1446
f 308 1445 1789 1042
f 292 1052 1789 1445
f 307 1042 1789 1052
f 286 1006 1790 1055
f 1006 285 1053 1790
f 1790 1053 300 1035
f 1055 1790 1035 301
f 279 999 1791 1056
f 999 278 1054 1791
f 1791 1054 293 1028
f 1056 1791 1028 294
f 287 1007 1792 1057
f 1007 286 1055 1792
f 1792 1055 301 1036
f 1057 1792 1036 302
f 280 1000 1793 1044
f 1000 279 1056 1793
f 1793 1056 294 1029
f 1044 1793 1029 295
f 288 1008 1794 1046
f 1008 287 1057 1794
f 1794 1057 302 1037
f 1046 1794 1037 303
f 300 1034 1795 1072
f 1034 299 1073 1795
f 1795 1073 315 1064
f 1072 1795 1064 316
f 293 1446 1796 1074
f 82 1447 1796 1446
f 309 1074 1796 1447
f 308 1042 1797 1448
f 307 1075 1797 1042
f 323 1448 1797 1075
f 301 1035 1798 1076
f 1035 300 1072 1798
f 1798 1072 316 1065
f 1076 1798 1065 317
f 294 1028 1799 1077
f 1028 293 1074 1799
f 1799 1074 309 1058
f 1077 1799 1058 310
f 302 1036 1800 1078
f 1036 301 1076 1800
f 1800 1076 317 1066
f 1078 1800 1066 318
f 295 1029 1801 1079
f 1029 294 1077 1801
f 1801 1077 310 1059
f 1079 1801 1059 311
f 303 1037 1802 1080
f 1037 302 1078 1802
f 1802 1078 318 1067
f 1080 1802 1067 319
f 296 1030 1803 1081
f 1030 295 1079 1803
f 1803 1079 311 1060
f 1081 1803 1060 312
f 304 1038 1804 1082
f 1038 303 1080 1804
f 1804 1080 319 1068
f 1082 1804 1068 320
f 297 1031 1805 1083
f 1031 296 1081 1805
f 1805 1081 312 1061
f 1083 1805 1061 313
f 305 1039 1806 1084
f 1039 304 1082 1806
f 1806 1082 320 1069
f 1084 1806 1069 321
f 298 1032 1807 1085
f 1032 297 1083 1807
f 1807 1083 313 1062
f 1085 1807 1062 314
f 306 1040 1808 1086
f 1040 305 1084 1808
f 1808 1084 321 1070
f 1086 1808 1070 322
f 299 1033 1809 1073
f 1033 298 1085 1809
f 1809 1085 314 1063
f 1073 1809 1063 315
f 307 1041 1810 1075
f 1041 306 1086 1810
f 1810 1086 322 1071
f 1075 1810 1071 323
f 320 1068 1811 1101
f 1068 319 1102 1811
f 1811 1102 334 1097
f 1101 1811 1097 335
f 313 1061 1812 1103
f 1061 312 1104 1812
f 1812 1104 327 1090
f 1103 1812 1090 328
f 321 1069 1813 1105
f 1069 320 1101 1813
f 1813 1101 335 1098
f 1105 1813 1098 336
f 314 1062 1814 1106
f 1062 313 1103 1814
f 1814 1103 328 1091
f 1106 1814 1091 329
f 322 1070 1815 1107
f 1070 321 1105 1815
f 1815 1105 336 1099
f 1107 1815 1099 337
f 315 1063 1816 1108
f 1063 314 1106 1816
f 1816 1106 329 1092
f 1108 1816 1092 330
f 323 1071 1817 1109
f 1071 322 1107 1817
f 1817 1107 337 1100
f 1109 1817 1100 338
f 316 1064 1818 1110
f 1064 315 1108 1818
f 1818 1108 330 1093
f 1110 1818 1093 331
f 309 1447 1819 1111
f 82 1449 1819 1447
f 324 1111 1819 1449
f 308 1448 1820 1450
f 323 1109 1820 1448
f 338 1450 1820 1109
f 317 1065 1821 1112
f 1065 316 1110 1821
f 1821 1110 331 1094
f 1112 1821 1094 332
f 310 1058 1822 1113
f 1058 309 1111 1822
f 1822 1111 324 1087
f 1113 1822 1087 325
f 318 1066 1823 1114
f 1066 317 1112 1823
f 1823 1112 332 1095
f 1114 1823 1095 333
f 311 1059 1824 1115
f 1059 310 1113 1824
f 1824 1113 325 1088
f 1115 1824 1088 326
f 319 1067 1825 1102
f 1067 318 1114 1825
f 1825 1114 333 1096
f 1102 1825 1096 334
f 312 1060 1826 1104
f 1060 311 1115 1826
f 1826 1115 326 1089
f 1104 1826 1089 327
f 308 1450 1827 1452
f 338 1130 1827 1450
f 353 1452 1827 1130
f 332 1094 1828 1131
f 1094 331 1132 1828
f 1828 1132 346 1123
f 1131 1828 1123 347
f 325 1087 1829 1133
f 1087 324 1134 1829
f 1829 1134 339 1116
f 1133 1829 1116 340
f 333 1095 1830 1135
f 1095 332 1131 1830
f 1830 1131 347 1124
f 1135 1830 1124 348
f 326 1088 1831 1136
f 1088 325 1133 1831
f 1831 1133 340 1117
f 1136 1831 1117 341
f 334 1096 1832 1137
f 1096 333 1135 1832
f 1832 1135 348 1125
f 1137 1832 1125 349
f 327 1089 1833 1138
f 1089 326 1136 1833
f 1833 1136 341 1118
f 1138 1833 1118 342
f 335 1097 1834 1139
f 1097 334 1137 1834
f 1834 1137 349 1126
f 1139 1834 1126 350
f 328 1090 1835 1140
f 1090 327 1138 1835
f 1835 1138 342 1119
f 1140 1835 1119 343
f 336 1098 1836 1141
f 1098 335 1139 1836
f 1836 1139 350 1127
f 1141 1836 1127 351
f 329 1091 1837 1142
f 1091 328 1140 1837
f 1837 1140 343 1120
f 1142 1837 1120 344
f 337 1099 1838 1143
f 1099 336 1141 1838
f 1838 1141 351 1128
f 1143 1838 1128 352
f 330 1092 1839 1144
f 1092 329 1142 1839
f 1839 1142 344 1121
f 1144 1839 1121 345
f 338 1100 1840 1130
f 1100 337 1143 1840
f 1840 1143 352 1129
f 1130 1840 1129 353
f 331 1093 1841 1132
f 1093 330 1144 1841
f 1841 1144 345 1122
f 1132 1841 1122 346
f 324 1449 1842 1134
f 82 1451 1842 1449
f 339 1134 1842 1451
f 351 1127 1843 1159
f 1127 350 1160 1843
f 1843 1160 365 1156
f 1159 1843 1156 366
f 344 1120 1844 1161
f 1120 343 1162 1844
f 1844 1162 358 1149
f 1161 1844 1149 359
f 352 1128 1845 1163
f 1128 351 1159 1845
f 1845 1159 366 1157
f 1163 1845 1157 367
f 345 1121 1846 1164
f 1121 344 1161 1846
f 1846 1161 359 1150
f 1164 1846 1150 360
f 353 1129 1847 1165
f 1129 352 1163 1847
f 1847 1163 367 1158
f 1165 1847 1158 368
f 346 1122 1848 1166
f 1122 345 1164 1848
f 1848 1164 360 1151
f 1166 1848 1151 361
f 339 1451 1849 1167
f 82 1453 1849 1451
f 354 1167 1849 1453
f 308 1452 1850 1454
f 353 1165 1850 1452
f 368 1454 1850 1165
f 347 1123 1851 1168
f 1123 346 1166 1851
f 1851 1166 361 1152
f 1168 1851 1152 362
f 340 1116 1852 1169
f 1116 339 1167 1852
f 1852 1167 354 1145
f 1169 1852 1145 355
f 348 1124 1853 1170
f 1124 347 1168 1853
f 1853 1168 362 1153
f 1170 1853 1153 363
f 341 1117 1854 1171
f 1117 340 1169 1854
f 1854 1169 355 1146
f 1171 1854 1146 356
f 349 1125 1855 1172
f 1125 348 1170 1855
f 1855 1170 363 1154
f 1172 1855 1154 364
f 342 1118 1856 1173
f 1118 341 1171 1856
f 1856 1171 356 1147
f 1173 1856 1147 357
f 350 1126 1857 1160
f 1126 349 1172 1857
f 1857 1172 364 1155
f 1160 1857 1155 365
f 343 1119 1858 1162
f 1119 342 1173 1858
f 1858 1173 357 1148
f 1162 1858 1148 358
f 355 1145 1859 1188
f 1145 354 1189 1859
f 1859 1189 369 1174
f 1188 1859 1174 370
f 363 1153 1860 1190
f 1153 362 1191 1860
f 1860 1191 377 1182
f 1190 1860 1182 378
f 356 1146 1861 1192
f 1146 355 1188 1861
f 1861 1188 370 1175
f 1192 1861 1175 371
f 364 1154 1862 1193
f 1154 363 1190 1862
f 1862 1190 378 1183
f 1193 1862 1183 379
f 357 1147 1863 1194
f 1147 356 1192 1863
f 1863 1192 371 1176
f 1194 1863 1176 372
f 365 1155 1864 1195
f 1155 364 1193 1864
f 1864 1193 379 1184
f 1195 1864 1184 380
f 358 1148 1865 1196
f 1148 357 1194 1865
f 1865 1194 372 1177
f 1196 1865 1177 373
f 366 1156 1866 1197
f 1156 365 1195 1866
f 1866 1195 380 1185
f 1197 1866 1185 381
f 359 1149 1867 1198
f 1149 358 1196 1867
f 1867 1196 373 1178
f 1198 1867 1178 374
f 367 1157 1868 1199
f 1157 366 1197 1868
f 1868 1197 381 1186
f 1199 1868 1186 382
f 360 1150 1869 1200
f 1150 359 1198 1869
f 1869 1198 374 1179
f 1200 1869 1179 375
f 368 1158 1870 1201
f 1158 367 1199 1870
f 1870 1199 382 1187
f 1201 1870 1187 383
f 361 1151 1871 1202
f 1151 360 1200 1871
f 1871 1200 375 1180
f 1202 1871 1180 376
f 354 1453 1872 1189
f 82 1455 1872 1453
f 369 1189 1872 1455
f 308 1454 1873 1456
f 368 1201 1873 1454
f 383 1456 1873 1201
f 362 1152 1874 1191
f 1152 361 1202 1874
f 1874 1202 376 1181
f 1191 1874 1181 377
f 374 1178 1875 1217
f 1178 373 1218 1875
f 1875 1218 388 1207
f 1217 1875 1207 389
f 382 1186 1876 1219
f 1186 381 1220 1876
f 1876 1220 396 1215
f 1219 1876 1215 397
f 375 1179 1877 1221
f 1179 374 1217 1877
f 1877 1217 389 1208
f 1221 1877 1208 390
f 383 1187 1878 1222
f 1187 382 1219 1878
f 1878 1219 397 1216
f 1222 1878 1216 398
f 376 1180 1879 1223
f 1180 375 1221 1879
f 1879 1221 390 1209
f 1223 1879 1209 391
f 369 1455 1880 1224
f 82 1457 1880 1455
f 384 1224 1880 1457
f 308 1456 1881 1458
f 383 1222 1881 1456
f 398 1458 1881 1222
f 377 1181 1882 1225
f 1181 376 1223 1882
f 1882 1223 391 1210
f 1225 1882 1210 392
f 370 1174 1883 1226
f 1174 369 1224 1883
f 1883 1224 384 1203
f 1226 1883 1203 385
f 378 1182 1884 1227
f 1182 377 1225 1884
f 1884 1225 392 1211
f 1227 1884 1211 393
f 371 1175 1885 1228
f 1175 370 1226 1885
f 1885 1226 385 1204
f 1228 1885 1204 386
f 379 1183 1886 1229
f 1183 378 1227 1886
f 1886 1227 393 1212
f 1229 1886 1212 394
f 372 1176 1887 1230
f 1176 371 1228 1887
f 1887 1228 386 1205
f 1230 1887 1205 387
f 380 1184 1888 1231
f 1184 379 1229 1888
f 1888 1229 394 1213
f 1231 1888 1213 395
f 373 1177 1889 1218
f 1177 372 1230 1889
f 1889 1230 387 1206
f 1218 1889 1206 388
f 381 1185 1890 1220
f 1185 380 1231 1890
f 1890 1231 395 1214
f 1220 1890 1214 396
f 393 1211 1891 1246
f 1211 392 1247 1891
f 1891 1247 407 1240
f 1246 1891 1240 408
f 386 1204 1892 1248
f 1204 385 1249 1892
f 1892 1249 400 1233
f 1248 1892 1233 401
f 394 1212 1893 1250
f 1212 393 1246 1893
f 1893 1246 408 1241
f 1250 1893 1241 409
f 387 1205 1894 1251
f 1205 386 1248 1894
f 1894 1248 401 1234
f 1251 1894 1234 402
f 395 1213 1895 1252
f 1213 394 1250 1895
f 1895 1250 409 1242
f 1252 1895 1242 410
f 388 1206 1896 1253
f 1206 387 1251 1896
f 1896 1251 402 1235
f 1253 1896 1235 403
f 396 1214 1897 1254
f 1214 395 1252 1897
f 1897 1252 410 1243
f 1254 1897 1243 411
f 389 1207 1898 1255
f 1207 388 1253 1898
f 1898 1253 403 1236
f 1255 1898 1236 404
f 397 1215 1899 1256
f 1215 396 1254 1899
f 1899 1254 411 1244
f 1256 1899 1244 412
f 390 1208 1900 1257
f 1208 389 1255 1900
f 1900 1255 404 1237
f 1257 1900 1237 405
f 398 1216 1901 1258
f 1216 397 1256 1901
f 1901 1256 412 1245
f 1258 1901 1245 413
f 391 1209 1902 1259
f 1209 390 1257 1902
f 1902 1257 405 1238
f 1259 1902 1238 406
f 384 1457 1903 1260
f 82 1459 1903 1457
f 399 1260 1903 1459
f 308 1458 1904 1460
f 398 1258 1904 1458
f 413 1460 1904 1258
f 392 1210 1905 1247
f 1210 391 1259 1905
f 1905 1259 406 1239
f 1247 1905 1239 407
f 385 1203 1906 1249
f 1203 384 1260 1906
f 1906 1260 399 1232
f 1249 1906 1232 400
f 412 1244 1907 1275
f 1244 411 1276 1907
f 1907 1276 426 1273
f 1275 1907 1273 427
f 405 1237 1908 1277
f 1237 404 1278 1908
f 1908 1278 419 1266
f 1277 1908 1266 420
f 413 1245 1909 1279
f 1245 412 1275 1909
f 1909 1275 427 1274
f 1279 1909 1274 428
f 406 1238 1910 1280
f 1238 405 1277 1910
f 1910 1277 420 1267
f 1280 1910 1267 421
f 399 1459 1911 1281
f 82 1461 1911 1459
f 414 1281 1911 1461
f 308 1460 1912 1462
f 413 1279 1912 1460
f 428 1462 1912 1279
f 407 1239 1913 1282
f 1239 406 1280 1913
f 1913 1280 421 1268
f 1282 1913 1268 422
f 400 1232 1914 1283
f 1232 399 1281 1914
f 1914 1281 414 1261
f 1283 1914 1261 415
f 408 1240 1915 1284
f 1240 407 1282 1915
f 1915 1282 422 1269
f 1284 1915 1269 423
f 401 1233 1916 1285
f 1233 400 1283 1916
f 1916 1283 415 1262
f 1285 1916 1262 416
f 409 1241 1917 1286
f 1241 408 1284 1917
f 1917 1284 423 1270
f 1286 1917 1270 424
f 402 1234 1918 1287
f 1234 401 1285 1918
f 1918 1285 416 1263
f 1287 1918 1263 417
f 410 1242 1919 1288
f 1242 409 1286 1919
f 1919 1286 424 1271
f 1288 1919 1271 425
f 403 1235 1920 1289
f 1235 402 1287 1920
f 1920 1287 417 1264
f 1289 1920 1264 418
f 411 1243 1921 1276
f 1243 410 1288 1921
f 1921 1288 425 1272
f 1276 1921 1272 426
f 404 1236 1922 1278
f 1236 403 1289 1922
f 1922 1289 418 1265
f 1278 1922 1265 419
f 416 1262 1923 1304
f 1262 415 1305 1923
f 1923 1305 430 1291
f 1304 1923 1291 431
f 424 1270 1924 1306
f 1270 423 1307 1924
f 1924 1307 438 1299
f 1306 1924 1299 439
f 417 1263 1925 1308
f 1263 416 1304 1925
f 1925 1304 431 1292
f 1308 1925 1292 432
f 425 1271 1926 1309
f 1271 424 1306 1926
f 1926 1306 439 1300
f 1309 1926 1300 440
f 418 1264 1927 1310
f 1264 417 1308 1927
f 1927 1308 432 1293
f 1310 1927 1293 433
f 426 1272 1928 1311
f 1272 425 1309 1928
f 1928 1309 440 1301
f 1311 1928 1301 441
f 419 1265 1929 1312
f 1265 418 1310 1929
f 1929 1310 433 1294
f 1312 1929 1294 434
f 427 1273 1930 1313
f 1273 426 1311 1930
f 1930 1311 441 1302
f 1313 1930 1302 442
f 420 1266 1931 1314
f 1266 419 1312 1931
f 1931 1312 434 1295
f 1314 1931 1295 435
f 428 1274 1932 1315
f 1274 427 1313 1932
f 1932 1313 442 1303
f 1315 1932 1303 443
f 421 1267 1933 1316
f 1267 420 1314 1933
f 1933 1314 435 1296
f 1316 1933 1296 436
f 414 1461 1934 1317
f 82 1463 1934 1461
f 429 1317 1934 1463
f 308 1462 1935 1464
f 428 1315 1935 1462
f 443 1464 1935 1315
f 422 1268 1936 1318
f 1268 421 1316 1936
f 1936 1316 436 1297
f 1318 1936 1297 437
f 415 1261 1937 1305
f 1261 414 1317 1937
f 1937 1317 429 1290
f 1305 1937 1290 430
f 423 1269 1938 1307
f 1269 422 1318 1938
f 1938 1318 437 1298
f 1307 1938 1298 438
f 435 1295 1939 1333
f 1295 434 1334 1939
f 1939 1334 449 1324
f 1333 1939 1324 450
f 443 1303 1940 1335
f 1303 442 1336 1940
f 1940 1336 457 1332
f 1335 1940 1332 458
f 436 1296 1941 1337
f 1296 435 1333 1941
f 1941 1333 450 1325
f 1337 1941 1325 451
f 429 1463 1942 1338
f 82 1465 1942 1463
f 444 1338 1942 1465
f 308 1464 1943 1466
f 443 1335 1943 1464
f 458 1466 1943 1335
f 437 1297 1944 1339
f 1297 436 1337 1944
f 1944 1337 451 1326
f 1339 1944 1326 452
f 430 1290 1945 1340
f 1290 429 1338 1945
f 1945 1338 444 1319
f 1340 1945 1319 445
f 438 1298 1946 1341
f 1298 437 1339 1946
f 1946 1339 452 1327
f 1341 1946 1327 453
f 431 1291 1947 1342
f 1291 430 1340 1947
f 1947 1340 445 1320
f 1342 1947 1320 446
f 439 1299 1948 1343
f 1299 438 1341 1948
f 1948 1341 453 1328
f 1343 1948 1328 454
f 432 1292 1949 1344
f 1292 431 1342 1949
f 1949 1342 446 1321
f 1344 1949 1321 447
f 440 1300 1950 1345
f 1300 439 1343 1950
f 1950 1343 454 1329
f 1345 1950 1329 455
f 433 1293 1951 1346
f 1293 432 1344 1951
f 1951 1344 447 1322
f 1346 1951 1322 448
f 441 1301 1952 1347
f 1301 440 1345 1952
f 1952 1345 455 1330
f 1347 1952 1330 456
f 434 1294 1953 1334
f 1294 433 1346 1953
f 1953 1346 448 1323
f 1334 1953 1323 449
f 442 1302 1954 1336
f 1302 441 1347 1954
f 1954 1347 456 1331
f 1336 1954 1331 457
f 454 1328 1955 1362
f 1328 453 1363 1955
f 1955 1363 468 1357
f 1362 1955 1357 469
f 447 1321 1956 1364
f 1321 446 1365 1956
f 1956 1365 461 1350
f 1364 1956 1350 462
f 455 1329 1957 1366
f 1329 454 1362 1957
f 1957 1362 469 1358
f 1366 1957 1358 470
f 448 1322 1958 1367
f 1322 447 1364 1958
f 1958 1364 462 1351
f 1367 1958 1351 463
f 456 1330 1959 1368
f 1330 455 1366 1959
f 1959 1366 470 1359
f 1368 1959 1359 471
f 449 1323 1960 1369
f 1323 448 1367 1960
f 1960 1367 463 1352
f 1369 1960 1352 464
f 457 1331 1961 1370
f 1331 456 1368 1961
f 1961 1368 471 1360
f 1370 1961 1360 472
f 450 1324 1962 1371
f 1324 449 1369 1962
f 1962 1369 464 1353
f 1371 1962 1353 465
f 458 1332 1963 1372
f 1332 457 1370 1963
f 1963 1370 472 1361
f 1372 1963 1361 473
f 451 1325 1964 1373
f 1325 450 1371 1964
f 1964 1371 465 1354
f 1373 1964 1354 466
f 444 1465 1965 1374
f 82 1467 1965 1465
f 459 1374 1965 1467
f 308 1466 1966 1468
f 458 1372 1966 1466
f 473 1468 1966 1372
f 452 1326 1967 1375
f 1326 451 1373 1967
f 1967 1373 466 1355
f 1375 1967 1355 467
f 445 1319 1968 1376
f 1319 444 1374 1968
f 1968 1374 459 1348
f 1376 1968 1348 460
f 453 1327 1969 1363
f 1327 452 1375 1969
f 1969 1375 467 1356
f 1363 1969 1356 468
f 446 1320 1970 1365
f 1320 445 1376 1970
f 1970 1376 460 1349
f 1365 1970 1349 461
f 473 1361 1971 1381
f 1361 472 1382 1971
f 1971 1382 481 1380
f 1381 1971 1380 482
f 466 1354 1972 1469
f 1354 465 1470 1972
f 1972 1470 3 483
f 1469 1972 483 4
f 459 1467 1973 1383
f 82 1390 1973 1467
f 474 1383 1973 1390
f 308 1468 1974 1399
f 473 1381 1974 1468
f 482 1399 1974 1381
f 467 1355 1975 1471
f 1355 466 1469 1975
f 1975 1469 4 484
f 1471 1975 484 5
f 460 1348 1976 1384
f 1348 459 1383 1976
f 1976 1383 474 1377
f 1384 1976 1377 475
f 468 1356 1977 1385
f 1356 467 1471 1977
f 1977 1471 5 1396
f 1385 1977 1396 478
f 461 1349 1978 1472
f 1349 460 1384 1978
f 1978 1384 475 1391
f 1472 1978 1391 1
f 469 1357 1979 1473
f 1357 468 1385 1979
f 1979 1385 478 1397
f 1473 1979 1397 6
f 462 1350 1980 1386
f 1350 461 1472 1980
f 1980 1472 1 1392
f 1386 1980 1392 476
f 470 1358 1981 1387
f 1358 469 1473 1981
f 1981 1473 6 1398
f 1387 1981 1398 479
f 463 1351 1982 1474
f 1351 462 1386 1982
f 1982 1386 476 1393
f 1474 1982 1393 2
f 471 1359 1983 1388
f 1359 470 1387 1983
f 1983 1387 479 1378
f 1388 1983 1378 480
f 464 1352 1984 1389
f 1352 463 1474 1984
f 1984 1474 2 1394
f 1389 1984 1394 477
f 472 1360 1985 1382
f 1360 471 1388 1985
f 1985 1388 480 1379
f 1382 1985 1379 481
f 465 1353 1986 1470
f 1353 464 1389 1986
f 1986 1389 477 1395
f 1470 1986 1395 3
