v -0.197044216646259 -0.0057407334832702 0.010059029010146
v -0.196427009323843 0.0132088373680812 -0.013596221737418
v -0.194932741583261 -0.0240080388165473 -0.0197165994529741
v -0.192704577661154 -0.00829659207811183 -0.0421015507499698
v -0.192621607966614 -0.0423293772365899 0.00700083688731523
v -0.192115246924966 0.0416284702191899 0.0176658268344612
v -0.191282018378974 0.0244865838640355 0.0421410090899768
v -0.189979650842762 -0.0228411945674889 0.0487343735627162
v -0.19049352370097 0.0483478109461442 -0.0187587138741372
v -0.18885367249795 0.0255480340915335 -0.0515938006294665
v -0.1883785382982 -0.0558762142760631 -0.0191666890309386
v -0.185720296202833 -0.0565450504430997 0.0359209256835805
v -0.184441911295117 -0.0384969837301334 -0.0591828522277246
v -0.182276294379142 0.0225127530192766 0.0726522840207103
v -0.1815118973394 -0.0189787988773408 -0.0757602938915272
v -0.181779762885093 0.0766270281679468 -0.00609993881967843
v -0.180011097588432 -0.0797870615203797 0.0131197387486042
v -0.175947353180248 -0.0555847053348575 0.070454936705759
v -0.178182580640094 0.0657756436470267 -0.0539412498240326
v -0.178730688736515 -0.000813620601741909 0.0843687500748695
v -0.174496336935218 0.0877752184709825 0.0285078373135879
v -0.17610822857473 0.085660696548685 -0.024516084050187
v -0.17546444373491 0.0646320429740489 0.0635312167363218
v -0.175070249585431 0.00437792221593404 -0.0915818993399913
v -0.17396036086165 -0.0763171374319307 -0.0537685412793244
v -0.174723783474845 0.0468417487822893 -0.0793909977950873
v -0.171576323021759 -0.0577580016254361 -0.0790596989010286
v -0.171800106965545 -0.0954131064559745 -0.0184538068696653
v -0.167694204224351 0.0573033664975055 0.087421775618516
v -0.170770391504408 -0.0326763387352809 0.0940939917481067
v -0.168240436860708 -0.0986875982242678 0.0304489621591347
v -0.168740245848037 -0.0837418274808236 0.0592464215308581
v -0.165101390812668 0.0893694489349572 -0.0612919947828665
v -0.162911900567457 -0.0394191641816472 -0.104885728037556
v -0.16211398289161 0.111168682730421 0.0178610757256454
v -0.159391072026982 -0.116245011438836 0.00555898199299998
v -0.158406424543309 -0.108625074060831 -0.0456536025624191
v -0.157150972131795 0.0705959029902064 -0.0968768822153525
v -0.156846867918829 0.10305031421033 0.0614706452822124
v -0.156176657565153 -0.082867555525688 0.0883148900917053
v -0.153190930308341 -0.0992994242480172 -0.0755569268260308
v -0.155456714971369 0.0281157146846999 -0.119108067387881
v -0.154914473906485 0.114781378644498 -0.0425596611669929
v -0.151198185211827 0.0860508320674751 0.0938681577712665
v -0.157195879188637 0.0221368023492481 0.118116228958627
v -0.15444345411631 -0.0562034706898737 0.110081426597476
v -0.153412031315998 0.123172762241956 -0.0155642998901924
v -0.153519044404355 -0.0170289402283862 0.123656044690086
v -0.146668409258795 0.12608846288603 0.0395633735383654
v -0.149794367626132 -0.0776869944025807 -0.10307509999321
v -0.149991301304129 -0.120972511873151 0.042901565647125
v -0.14348269514653 -0.133091791811145 -0.0255689595581572
v -0.143785599268958 0.0626570146897766 0.120569859526247
v -0.142164257579201 0.00708470628083132 0.137631729893351
v -0.138278253358868 -0.0468822320000305 -0.133713188174053
v -0.143530803670333 -0.11270770839696 0.0756998219381405
v -0.13557576057788 -0.143073026880535 0.0103408246879754
v -0.133121129390645 0.0622285839204285 -0.132674652820987
v -0.135075441222689 -0.0334118430755533 0.140956068668341
v -0.133464769329949 -0.12877795246374 -0.067960326593476
v -0.132707748049376 0.108934089022212 -0.0980082763590832
v -0.128210769565382 -0.104207245232739 0.108707666058619
v -0.128900528233493 0.135058475444081 0.0643550289936511
v -0.130928821369823 0.018859296967496 -0.147504531498522
v -0.130000977377723 0.145284620110521 0.0310478830998281
v -0.128068266253016 0.147632444475588 -0.0276066290139907
v -0.129139663313816 0.135798990170541 -0.0622181260151728
v -0.129448111748993 -0.0733499212004877 0.130495962963305
v -0.127044453526552 -0.112510770466016 -0.101478218493395
v -0.125642523494272 0.0865479321239335 0.126092565027474
v -0.124198027985291 0.118459576522412 0.0980219730690041
v -0.124490970007312 0.0941549906358878 -0.12156585422691
v -0.124170269704836 0.0451513020386376 0.147637220047401
v -0.121220421391799 -0.145170934179135 0.056897359143551
v -0.12123801226665 -0.0832583260881175 -0.132506162705119
v -0.117576590704915 -0.0198245524960408 0.158313756517043
v -0.115316907884335 -0.152875811458645 -0.0483021360740415
v -0.115081939120135 -0.134385388595808 0.0879792287072268
v -0.109542134685882 0.0594951462916529 -0.154069367712409
v -0.104194573794768 0.148313981503096 -0.078557680939537
v -0.109226693439792 0.124671911143618 -0.107816993037292
v -0.108416415601185 0.0727359410883852 0.14900807857845
v -0.111742109789228 -0.16116690545284 -0.0221370194955088
v -0.107730613842837 0.158005922896799 -0.0492141926252412
v -0.109521730306183 -0.0550512968138242 0.155685788405771
v -0.109207833629795 -0.0272468171621863 -0.163199439157399
v -0.104513346660358 0.149684123049452 0.075530011188362
v -0.103167115254976 -0.165218766464797 0.0318833745310851
v -0.0985624289114819 0.102072190389962 -0.138067510538713
v -0.0966339751999538 0.0172069461170395 0.172342488548761
v -0.104810180842862 -0.0630648110378154 -0.155913991020122
v -0.095496953563663 0.100958875501491 0.141095945389808
v -0.0974185622962642 -0.1171807768632 0.126321641447701
v -0.100408513549453 -0.139961710716481 -0.0969310674787036
v -0.0983549137138584 0.036545456091968 -0.168254118395657
v -0.0957402384329038 0.1286917296099 0.115783492968843
v -0.0993352965170796 0.164101312320545 0.0468713815197487
v -0.0916242843428569 -0.161853648687638 0.0665174033217349
v -0.0890121034012797 0.176069812973192 -0.00389219828636087
v -0.0881794184033869 -0.146374998570466 0.0994288378334999
v -0.0907449042375311 0.0091015173317977 -0.176201989783511
v -0.0920789407793911 -0.104881152649991 -0.140528277549646
v -0.0883782800714155 -0.0267717099022958 0.175623728691414
v -0.0863768422323223 0.175357095719478 0.0273642379455051
v -0.0901536308083875 0.0492918140309748 0.169643160517426
v -0.0810197760682657 -0.096878230293536 0.15269312918753
v -0.0813561380537829 -0.173737530751973 -0.0468004359669263
v -0.0825597687133822 -0.161286675514117 -0.078716340209886
v -0.0783243245885707 0.125452804797834 -0.131538015774366
v -0.084556246828577 -0.177954250787428 -0.012169853088598
v -0.0826205011218326 -0.0744591243893193 -0.16414160909722
v -0.0853926900345817 0.0703493390586929 -0.164556349201939
v -0.0783918455114787 0.176925712526627 -0.0391202949708125
v -0.0743029180570135 0.0746584571049323 0.168006076207948
v -0.0781297416341267 -0.0568004863860144 0.173237181482139
v -0.0751759439143928 -0.0269771147154821 -0.18166781799687
v -0.0726952482765869 0.153701975433199 0.1009687175118
v -0.0660403388289283 0.169055572810259 -0.0780133373235479
v -0.0763480335054226 0.148956129925921 -0.105222670064742
v -0.0768194160332076 0.166148078607997 0.0743144436192692
v -0.0719683514145499 -0.145964113737341 -0.112380350084549
v -0.0696922170124888 0.133087062752358 0.128831834177817
v -0.0672304962595366 -0.138326903604435 0.124512909050178
v -0.066621581394268 0.00482065110518483 0.186994139407197
v -0.0638438985296577 -0.119128967856251 -0.144782314898692
v -0.065440608475713 0.0384564221545581 0.18343225663169
v -0.0643292300673956 -0.183496024583439 0.0340082331257383
v -0.060627914144816 0.187739576232551 0.00424156478711498
v -0.0626918184315695 -0.187059368723754 0.00420402667044053
v -0.0598053845724756 0.179498285371131 0.056548013855897
v -0.0593700760570869 -0.0796853607649975 -0.171661879359068
v -0.0576635364812999 0.0108445004488518 -0.189744208146455
v -0.0580566335064948 0.0523839879970033 -0.182413553490728
v -0.0592767868498096 0.100494896809897 0.160268469385552
v -0.059349665929166 -0.117594654548583 0.14796469348295
v -0.054457026657461 -0.178003981953194 -0.0661689885791224
v -0.0548864663161434 -0.167631709161978 0.0890564737180138
v -0.0606645777277685 0.0931394075240854 -0.164177471473522
v -0.0554806491036343 -0.179781608282849 0.0600465168585679
v -0.0539224063545207 -0.187414853778962 -0.0305589786603568
v -0.0470264431641077 0.188986701280595 0.0323553794679359
v -0.0499628155065705 -0.153405992979139 0.114382492737057
v -0.047706 0.123674 -0.147241
v -0.0467110829840661 0.184096097126716 -0.0540487239077257
v -0.0445025495388621 -0.0477757182151837 -0.187516067577569
v -0.0449857920258296 0.0626673758673805 0.18287684844338
v -0.0441711928147874 -0.153760660802417 -0.116332154413487
v -0.043687547839904 -0.169866893533161 -0.0910998887550303
v -0.0399727568964721 -0.0991038882535616 0.167022283194255
v -0.0423217190850258 0.191810950709954 -0.0195785037416724
v -0.0416480491592971 -0.0282588057862053 0.192200460216888
v -0.0401641685837447 0.149638686505362 -0.123035030329764
v -0.0352575702932997 0.176107737456904 0.0824219260426665
v -0.0374296464780231 -0.0963555855494583 -0.16924041771772
v -0.0358990015233079 -0.0127576153863943 -0.195130791837713
v -0.0257736669051185 0.10612300716189 -0.165529164917896
v -0.0314098393726803 -0.135359012843338 -0.141111459962848
v -0.030679998049698 0.0569058932474176 -0.187737945206132
v -0.0247829655709164 0.19573842529305 0.00353021961488431
v -0.029035018090433 0.117380040409431 0.157013559077641
v -0.0259356229621934 -0.0706639276087084 0.18369831476462
v -0.0313317249926626 0.0164423930504865 0.195676933789032
v -0.025042558200216 -0.182311296193984 0.0717534301477037
v -0.0244442920762229 0.152657017005939 0.123476200107327
v -0.0276812049337812 -0.137173605107214 0.140164978681703
v -0.0239228109803255 0.185908007651491 0.0620969503797188
v -0.023477995935689 -0.195840064482467 -0.00593890627289057
v -0.0233742071402354 -0.192848861504359 0.0349020782630842
v -0.0177780665066464 0.0216634220593973 -0.196926315588121
v -0.0179073470005361 0.125287099086124 -0.152467537678648
v -0.0174533866779992 -0.192289253483214 -0.0411931241788493
v -0.00962319704612594 0.194599311564643 0.0318831011578369
v -0.0164973979166104 0.0827186979894378 0.179671304118501
v -0.0154952338948214 0.170374029052551 -0.0990533085836247
v -0.0136566624274672 -0.0585263029442452 -0.189265287259065
v -0.012433415645918 -0.164446951313924 0.109136808226803
v -0.0111001247476933 0.0452735120044948 0.193183233111089
v -0.0121710353573591 0.1943542384045 -0.0322126056189716
v -0.00999095357061231 -0.10939446016286 -0.165107809835602
v -0.0152324966948446 0.0842031132687011 -0.179044940457687
v -0.00752120583122114 -0.117446989717877 0.159533504071117
v -0.00453865173076744 -0.0151542133065989 -0.198316757614538
v -0.00763664538584034 0.173536871226197 0.0943972307754847
v -0.0111290289261651 -0.021965177462306 0.197369060069129
v -0.00847726856505679 -0.182635415029168 -0.0749301767046145
v -0.00383422782646554 -0.145307888163996 -0.134397896977917
v 0.00406697235465416 0.15596304499296 0.121635043373384
v -0.00505199172980962 0.188131920088428 -0.0597780567205401
v -0.00827772874874645 -0.168495577214737 -0.103204804354232
v -0.00122683153511603 -0.19587067957959 -0.0243274826393755
v 0.00195960807311452 0.113090994372028 -0.162787230568185
v -0.00108967913254963 0.12023577564439 0.157534783870255
v 0.000601045867750278 0.00923129223962231 0.198822938210541
v 0.00126052643690121 -0.0426348157632166 0.19412791588547
v 0.00409681242694862 0.153198338908917 -0.125199411156882
v 0.00328600249691214 -0.147479387097138 0.131978104770872
v 0.00682470381416848 -0.0916809969110125 0.175817705612113
v 0.0072211353805781 0.0435807617372225 -0.193764442664281
v 0.0103211806165898 -0.0848863535681685 -0.179072794632508
v 0.00840216187485453 -0.196532630201973 0.0161462055050744
v 0.0069627124513103 0.197265792108392 -0.000375233118148049
v 0.0141119885045773 0.0766215262468713 -0.182534863171577
v 0.0162717403611929 -0.188341021796887 0.0571699779661713
v 0.0189686716554616 -0.0244468507870778 0.1964619021959
v 0.0166708554927058 0.173128170819494 -0.0940173237981464
v 0.0177471101911044 0.0574045072465957 0.189277539995515
v 0.020892901494844 -0.0473982972222726 -0.191781576392409
v 0.0211043220778703 0.13103426555093 0.147090736715194
v 0.0215135350640101 -0.188465262700164 -0.0547922543273968
v 0.0225281328848233 0.00119372898084909 -0.197601278221792
v 0.0227539558485576 0.188081444232789 0.0556255374897446
v 0.0266938203330185 0.142366995824766 -0.134951907268852
v 0.0301177369583018 0.193781287297384 0.0223963276972677
v 0.0271835767321949 0.171069390310051 0.0952394388071158
v 0.0229210080713932 -0.124868600029042 0.152109929139862
v 0.0268364007135389 0.0914980086603388 0.173945607338047
v 0.0270261471805725 0.0040607456217007 0.196975163898065
v 0.0259988328805383 -0.170578210680068 0.096459343297012
v 0.0247567706948855 -0.119445569849316 -0.156166626702214
v 0.0285732522061841 -0.149033655950198 -0.127066343462643
v 0.029743433435811 0.192786270635128 -0.0304128207665572
v 0.0313601765361405 -0.17378424839471 -0.088658240473508
v 0.0278288691582818 -0.0733166141435222 0.182305327626549
v 0.0378061368461612 -0.146809014490112 0.127240768340246
v 0.0361382671632344 -0.193944094129273 0.00490059514950016
v 0.0371694482842261 -0.191981400096027 -0.0270387804624083
v 0.0393723743224166 0.180692810531582 -0.0693441739745845
v 0.0388560559421235 -0.080625021027586 -0.177058417891007
v 0.0409407762933354 0.151086100758891 0.120968206578288
v 0.0446620885876812 0.0646514384002559 -0.182236030825873
v 0.0472977718071998 -0.178013680687439 0.0712968244118475
v 0.0476353512022071 0.0993504037395697 -0.164876145508188
v 0.0502492166056545 -0.0995138535627067 0.163939156484539
v 0.0496617579934026 0.026944229353038 -0.190436952260741
v 0.0495265853458025 0.159958167122728 -0.105155663644321
v 0.0563153510064853 -0.186250895063965 0.0333651502058876
v 0.0547881972127408 0.10787251448356 0.156936152043939
v 0.0609766228166812 -0.187589091299085 -0.00565287445727682
v 0.0556122221101804 0.17678589038293 0.0683539021684425
v 0.0521563814849276 0.0678675925397046 0.179032083779613
v 0.0573295515168928 -0.135192820812042 0.13278154248097
v 0.0577237694224266 -0.0201666647925519 -0.188916743816285
v 0.0557135822920161 0.135488934198087 -0.133208336585397
v 0.0600288814783734 0.0379499939156396 0.185350203394978
v 0.0604114118768845 0.184438920757214 0.0359446110330195
v 0.0612892796822994 0.182856235825664 -0.0420892321598481
v 0.0634343307114016 -0.0336864743801095 0.18504383490139
v 0.0690903734136406 -0.0706619950959304 0.171963671576159
v 0.0638987300920961 0.161265927228399 0.0947799848120786
v 0.0599680773510537 0.131513742764779 0.135270670232481
v 0.0627424895142418 -0.0961760445915657 -0.161569842834996
v 0.0657998508863815 -0.149644848017113 -0.111330153381052
v 0.0661510986413086 -0.178754173372339 -0.0515101043903364
v 0.0627495127943167 -0.168211361056966 -0.0824914929847518
v 0.066515817507904 0.185863265951101 -0.00158213520890922
v 0.0668226003076461 -0.124771729055195 -0.138478811502282
v 0.074585315511295 0.00620414316048279 0.183863155768799
v 0.0712355326017785 0.0112086883848785 -0.184928111040776
v 0.0721404081898611 -0.174150885510524 0.0590321392040189
v 0.0647294886860328 -0.161304433386542 0.0941848281757913
v 0.0737031294152888 0.106843060815663 -0.149641196265195
v 0.0748577089128741 0.0797448933496286 -0.165413770238548
v 0.0765148408983468 -0.109361378774858 0.146365371037991
v 0.0777028258178828 0.139387701104463 0.116893641921026
v 0.0785151119724866 0.166189825629996 -0.0724210588798619
v 0.0844663568151754 0.10697739149058 0.143651253526333
v 0.082461646730097 0.0492930322163133 -0.173544227471016
v 0.0837854929787207 0.131009975773484 -0.122288572463859
v 0.0846382681169122 -0.0228501040000109 0.177980278890263
v 0.0847046092686437 -0.177441454225958 -0.017514932793011
v 0.0810476842181795 0.0755117937759886 0.164445494549105
v 0.081822622499928 0.168043133200475 0.0637737151922967
v 0.0843184225654098 -0.050460163096878 -0.172294970065937
v 0.0905835883130577 -0.159586068598054 0.0730677858913683
v 0.0905998764822254 -0.158670357949279 -0.0751264467325805
v 0.0907158980394599 -0.173800139948968 0.0227886713006522
v 0.0897782957590705 0.148239642146278 -0.0951082971194582
v 0.091208 -0.136503 0.110402
v 0.100049228084232 -0.0203363759452473 -0.17006635019697
v 0.0928523087713239 -0.0560803487217884 0.166002326803865
v 0.0982819942163711 -0.165671941663784 -0.0432572541048537
v 0.0971963060183298 0.111330144008027 -0.131661563119822
v 0.0972954379927189 -0.116171335789306 -0.127307575858897
v 0.0982675980756633 0.170536576546156 0.0142576459377217
v 0.0976044418554782 0.148054968299859 0.0872270443019652
v 0.0987173869012965 0.167873209720371 -0.0322191005473404
v 0.101472368459142 -0.0850543641186675 0.147384274689056
v 0.0995134252736389 -0.123642296664804 0.118154212906814
v 0.100670148659668 0.0863436478753973 -0.147174208345914
v 0.0973162396645881 0.0170915963633126 -0.171970148833631
v 0.104568253157756 0.0420770602127093 0.163071067487702
v 0.106044 0.1504965 -0.071496
v 0.110652620295859 6.5588799767282e-05 0.164548952255921
v 0.108840162846192 -0.0753849340713873 -0.1473826297327
v 0.109300544954773 0.155207562163642 0.0542469711728117
v 0.109666921229358 -0.127276922493334 -0.104223730159893
v 0.11650798126382 -0.13008982452622 0.0926223728669629
v 0.108395612262653 0.116558342048023 0.117492632308384
v 0.108636315903985 0.0837433239127673 0.142824274947659
v 0.113097816347477 -0.161356951908831 -0.0111514657977188
v 0.119062280413237 -0.0956888786551029 -0.125869208062964
v 0.117022063207511 -0.153797963481554 0.0403450433351576
v 0.117559799609152 0.151794098927159 -0.0459429162513589
v 0.111392322213942 0.05402051445912 -0.154737414258154
v 0.120243941783847 -0.034200792994699 0.153775862503469
v 0.123681410166569 0.153558562663359 -0.00965195564801911
v 0.120745532220365 0.115017334676604 -0.106207579687733
v 0.124011280259627 -0.0490658919268525 -0.146470666741542
v 0.123321349700814 -0.141249714439153 0.0618916332442862
v 0.125248304456893 0.150553192467829 0.0245863675954263
v 0.128468631300669 -0.106060949379815 0.106533397457522
v 0.125727211887788 0.0225539091831022 -0.151429863444344
v 0.127526968196249 0.131349223306122 0.0742112185621492
v 0.132654415823843 -0.0664026499264881 0.131009039042887
v 0.126495449291886 -0.145349604625719 -0.0428472866353378
v 0.133317745650046 -0.10477432957301 -0.101704088938793
v 0.130556099087947 0.112452005360634 0.0968195095640907
v 0.129993982105268 0.133733835021277 -0.064980965517158
v 0.134274307858399 0.0844812394849676 -0.118237369667767
v 0.132930738448605 0.0561216817248242 0.135549356812977
v 0.134644884388365 0.083959790020703 0.118188089051716
v 0.138764907581462 0.137636185095252 -0.0278836485342929
v 0.135503516479755 -0.0144894758594074 -0.143693268505034
v 0.137232256956807 -0.12339954783145 -0.0704237926207684
v 0.137873339928483 -0.137954163608308 0.030711154120477
v 0.138652260875795 0.0211438140659177 0.139825808486058
v 0.142907751469033 -0.115235326535103 0.0729228320400716
v 0.143044131774018 -0.0755677592515336 -0.11379496041318
v 0.143630701526931 -0.0134343351124551 0.135591171518408
v 0.14539426492659 0.108219020391246 -0.078680650018653
v 0.147200329318888 0.124452146073192 0.0425474743094547
v 0.14354879217216 -0.13526722563544 -0.00612807942341854
v 0.150179213667523 0.119079974708894 -0.0474568803250157
v 0.150914823123219 -0.120172387918746 -0.0418448194984345
v 0.149824257959955 -0.0425100265808787 -0.121997174312985
v 0.152147825196454 -0.0418690225032835 0.119328751359873
v 0.152319532757101 -0.0809806690807299 0.0965423825134006
v 0.152737847285881 0.124327719447102 0.013120731389966
v 0.153660679438933 0.0409865739144676 -0.117683930113741
v 0.157311957252342 0.0737172115420328 -0.0943654384284726
v 0.154254687149195 0.0726536488431134 0.100100300711697
v 0.15543223118172 0.0964135333115084 0.0746435484723329
v 0.152492821734986 0.048349016522165 0.116345537637436
v 0.156916367811626 -0.11100968625086 0.0449589877547382
v 0.161404645154063 0.112583233730207 -0.0146585522738082
v 0.16274387895338 -0.0935540562537211 -0.0612581454872194
v 0.163437198959506 0.0249448445783173 0.108533613086545
v 0.163877554412611 0.00604136925703565 -0.110608019014574
v 0.161577775974907 -0.112932860490698 0.00998399485725243
v 0.166384699184356 -0.102985752781722 -0.0257452208301318
v 0.170615185202325 -0.0249472101717292 -0.0966834491373036
v 0.170520002335023 0.089540246425118 0.04334974252081
v 0.170360383920704 -0.0805571394686217 0.0591982316653819
v 0.170810836464928 -0.0494689672578377 0.0861973879577133
v 0.171055382386092 -0.00811510438667827 0.0987862146993981
v 0.171213994264338 -0.0726136118027629 -0.0666301998552076
v 0.171694828828338 0.0625463439945969 0.0751615497187422
v 0.170662183154303 0.0896205260593533 -0.0426186471897988
v 0.175260171178318 0.038284174796721 -0.0827936250920113
v 0.174883912065054 -0.087524065082976 0.0266035731415332
v 0.17583247067854 0.0893879685268601 0.00565243322381798
v 0.178146115332759 -0.0569380986231071 0.0633860415008104
v 0.17771621808719 -0.0856338820384383 -0.00589885988610092
v 0.176228908648366 -0.0452680564485451 -0.0770497376453141
v 0.178956797547699 0.0586769190360165 -0.0593779285561902
v 0.180380074197049 0.00134041768877245 -0.0805941483646362
v 0.181724914673434 -0.0646188021605737 -0.0422235675472798
v 0.182880065269853 0.0698475703752695 0.0249619743948891
v 0.184083557972036 0.0669257135782408 -0.0243774694859869
v 0.180991140779484 0.0192796147840861 0.0768876378902146
v 0.184759950856303 -0.0141254335542424 0.0683788491049284
v 0.188448314159977 -0.0541356162454378 0.0225328335924812
v 0.187909311008147 -0.0579405702403463 -0.017224030939748
v 0.188303777964877 -0.0246448290977438 -0.0539812741130984
v 0.188317724532676 0.033503356480415 -0.0490029221572865
v 0.18973444858348 0.0543600551014059 0.00104125888357906
v 0.190471288881112 -0.0252410243819416 0.0453336831120627
v 0.190389330861642 0.00555783562096711 -0.0519289279326707
v 0.19175374176307 0.0238735699270759 0.0403787983879369
v 0.194665418820464 0.0226587704946645 -0.02323189386955
v 0.195664611112267 -0.0192714968702235 -0.0178804277619403
v 0.195962485537844 -0.0135523605736548 0.0195334140655448
v 0.196377130621704 0.0183428577439579 0.00785848855692647
v 0.0896188246947176 -0.0959045010314959 -0.148371370493654
v -0.0592948254228752 -0.0812950799288938 0.170942240302891
v 0.161260685228121 -0.0504177085702999 -0.10274499116063
v -0.000513385586823016 -0.177919331307389 0.0860766198924278
v 0.0383089604237137 0.19366704852513 -0.000872265522341647
v -0.130624181176054 -0.0156367721593855 -0.148109724130444
v 0.182100623618984 0.0427010564877133 0.0574898252296343
v -0.0504032513695698 -0.0579806525148282 0.183016762259152
v -0.107386977443634 -0.0860768315776116 0.14239227657233
v -0.162557339463984 -0.00746544684475849 -0.112444449883495
v -0.0930868941139371 -0.124013417865149 -0.120231492366703
v 0.0628037791715448 -0.0686795773978948 -0.175254
v -0.130295958763295 0.14820637391254 0.00233417111819441
v 0.13705575649931 0.051975792695494 -0.133071949208311
v -0.106313547499824 0.16444670031818 -0.0245765610133296
f 1 2 3
f 1 6 2
f 1 3 5
f 1 5 8
f 1 7 6
f 1 8 7
f 2 4 3
f 2 10 4
f 2 6 9
f 2 9 10
f 3 4 13
f 3 11 5
f 3 13 11
f 4 10 15
f 4 15 13
f 5 12 8
f 5 11 17
f 5 17 12
f 6 7 23
f 6 16 9
f 6 21 16
f 6 23 21
f 7 8 14
f 7 14 23
f 8 12 18
f 8 20 14
f 8 18 30
f 8 30 20
f 9 19 10
f 9 16 22
f 9 22 19
f 10 24 15
f 10 19 26
f 10 26 24
f 11 13 25
f 11 28 17
f 11 25 28
f 12 17 31
f 12 32 18
f 12 31 32
f 13 15 27
f 13 27 25
f 14 20 45
f 14 29 23
f 14 45 29
f 15 24 393
f 15 34 27
f 15 393 34
f 16 21 35
f 16 35 22
f 17 28 36
f 17 36 31
f 18 46 30
f 18 32 40
f 18 40 46
f 19 22 33
f 19 33 26
f 20 30 48
f 20 48 45
f 21 23 39
f 21 39 35
f 22 43 33
f 22 35 47
f 22 47 43
f 23 29 44
f 23 44 39
f 24 26 42
f 24 42 393
f 25 27 41
f 25 37 28
f 25 41 37
f 26 33 38
f 26 38 42
f 27 34 50
f 27 50 41
f 28 52 36
f 28 37 52
f 29 53 44
f 29 45 53
f 30 46 48
f 31 51 32
f 31 36 51
f 32 56 40
f 32 51 56
f 33 61 38
f 33 43 61
f 34 55 50
f 34 389 55
f 34 393 389
f 35 39 49
f 35 396 47
f 35 49 396
f 36 57 51
f 36 52 57
f 37 41 60
f 37 60 52
f 38 58 42
f 38 72 58
f 38 61 72
f 39 44 71
f 39 63 49
f 39 71 63
f 40 68 46
f 40 56 62
f 40 62 68
f 41 50 69
f 41 69 60
f 42 58 64
f 42 64 389
f 42 389 393
f 43 47 66
f 43 67 61
f 43 66 67
f 44 53 70
f 44 70 71
f 45 48 54
f 45 73 53
f 45 54 73
f 46 59 48
f 46 68 59
f 47 396 66
f 48 59 54
f 49 63 65
f 49 65 396
f 50 55 75
f 50 75 69
f 51 74 56
f 51 57 74
f 52 83 57
f 52 60 77
f 52 77 83
f 53 82 70
f 53 73 82
f 54 59 76
f 54 90 73
f 54 76 90
f 55 91 75
f 55 86 91
f 55 389 86
f 56 78 62
f 56 74 78
f 57 88 74
f 57 83 88
f 58 79 64
f 58 72 79
f 59 68 85
f 59 85 76
f 60 69 94
f 60 94 77
f 61 67 81
f 61 81 72
f 62 392 68
f 62 78 93
f 62 93 392
f 63 97 65
f 63 71 87
f 63 87 97
f 64 79 95
f 64 95 101
f 64 101 389
f 65 97 396
f 66 84 67
f 66 398 84
f 66 396 398
f 67 80 81
f 67 84 80
f 68 392 85
f 69 75 102
f 69 394 94
f 69 102 394
f 70 92 71
f 70 82 92
f 71 96 87
f 71 92 96
f 72 89 79
f 72 81 89
f 73 105 82
f 73 90 105
f 74 98 78
f 74 88 98
f 75 91 102
f 76 85 103
f 76 103 90
f 77 107 83
f 77 94 108
f 77 108 107
f 78 100 93
f 78 98 100
f 79 89 112
f 79 112 95
f 80 119 81
f 80 84 118
f 80 118 119
f 81 109 89
f 81 119 109
f 82 114 92
f 82 105 114
f 83 110 88
f 83 107 110
f 84 113 118
f 84 398 113
f 85 115 103
f 85 392 115
f 86 116 91
f 86 101 116
f 86 389 101
f 87 96 117
f 87 120 97
f 87 117 120
f 88 127 98
f 88 110 129
f 88 129 127
f 89 109 138
f 89 138 112
f 90 103 124
f 90 126 105
f 90 124 126
f 91 111 102
f 91 116 111
f 92 122 96
f 92 114 134
f 92 134 122
f 93 100 123
f 93 135 106
f 93 106 392
f 93 123 135
f 94 121 108
f 94 394 121
f 95 133 101
f 95 112 133
f 96 122 117
f 97 130 104
f 97 104 396
f 97 120 130
f 98 137 100
f 98 127 139
f 98 139 137
f 99 104 128
f 99 396 104
f 99 128 113
f 99 113 398
f 99 398 396
f 100 142 123
f 100 137 142
f 101 132 116
f 101 133 132
f 102 111 125
f 102 125 394
f 103 115 151
f 103 151 124
f 104 141 128
f 104 130 141
f 105 126 114
f 106 135 149
f 106 149 385
f 106 385 392
f 107 108 136
f 107 140 110
f 107 136 140
f 108 121 148
f 108 148 136
f 109 119 152
f 109 143 138
f 109 152 143
f 110 140 129
f 111 116 145
f 111 131 125
f 111 145 131
f 112 138 133
f 113 144 118
f 113 128 150
f 113 150 144
f 114 126 146
f 114 173 134
f 114 146 173
f 115 391 151
f 115 385 391
f 115 392 385
f 116 132 155
f 116 155 145
f 117 153 120
f 117 122 164
f 117 164 153
f 118 152 119
f 118 144 174
f 118 174 152
f 120 153 130
f 121 125 147
f 121 394 125
f 121 147 148
f 122 134 160
f 122 160 164
f 123 165 135
f 123 142 165
f 124 162 126
f 124 151 162
f 125 131 154
f 125 157 147
f 125 154 157
f 126 162 146
f 127 129 168
f 127 168 139
f 128 141 159
f 128 159 150
f 129 140 167
f 129 167 168
f 130 166 141
f 130 153 166
f 131 145 154
f 132 133 158
f 132 169 155
f 132 158 169
f 133 138 158
f 134 173 160
f 135 165 149
f 136 171 140
f 136 148 185
f 136 185 171
f 137 139 163
f 137 176 142
f 137 163 176
f 138 143 156
f 138 156 180
f 138 180 158
f 139 168 163
f 140 171 167
f 141 172 159
f 141 166 172
f 142 176 165
f 143 152 170
f 143 170 156
f 144 150 178
f 144 188 174
f 144 178 188
f 145 175 154
f 145 155 175
f 146 162 177
f 146 177 173
f 147 189 148
f 147 157 186
f 147 186 189
f 148 189 185
f 149 197 161
f 149 161 385
f 149 165 181
f 149 181 197
f 150 159 178
f 151 161 184
f 151 391 161
f 151 184 162
f 152 195 170
f 152 174 195
f 153 164 183
f 153 183 166
f 154 179 157
f 154 175 179
f 155 169 182
f 155 182 175
f 156 170 191
f 156 191 180
f 157 179 186
f 158 198 169
f 158 180 198
f 159 172 201
f 159 201 178
f 160 192 164
f 160 173 192
f 161 194 184
f 161 197 194
f 161 391 385
f 162 193 177
f 162 184 193
f 163 168 203
f 163 387 176
f 163 203 387
f 164 187 183
f 164 192 187
f 165 176 196
f 165 196 181
f 166 211 172
f 166 183 211
f 167 200 168
f 167 171 190
f 167 190 200
f 168 200 203
f 169 210 182
f 169 198 210
f 170 212 191
f 170 195 212
f 171 185 209
f 171 209 190
f 172 213 201
f 172 211 213
f 173 177 206
f 173 216 192
f 173 206 216
f 174 188 205
f 174 205 195
f 175 199 179
f 175 182 207
f 175 207 199
f 176 218 196
f 176 387 218
f 177 193 206
f 178 221 188
f 178 201 221
f 179 219 186
f 179 199 219
f 180 191 202
f 180 202 198
f 181 196 215
f 181 215 197
f 182 210 207
f 183 187 214
f 183 214 211
f 184 204 193
f 184 194 204
f 185 189 222
f 185 222 209
f 186 220 189
f 186 219 220
f 187 192 208
f 187 208 229
f 187 229 214
f 188 227 205
f 188 221 227
f 189 220 222
f 190 225 200
f 190 209 226
f 190 226 225
f 191 232 202
f 191 212 232
f 192 216 208
f 193 204 217
f 193 217 206
f 194 197 223
f 194 223 204
f 195 205 235
f 195 235 212
f 196 224 215
f 196 218 224
f 197 215 233
f 197 233 223
f 198 202 230
f 198 234 210
f 198 230 234
f 199 207 228
f 199 228 219
f 200 236 203
f 200 225 236
f 201 213 388
f 201 388 221
f 202 232 230
f 203 231 218
f 203 218 387
f 203 236 231
f 204 247 217
f 204 223 247
f 205 227 235
f 206 240 216
f 206 217 244
f 206 244 240
f 207 210 242
f 207 395 228
f 207 242 395
f 208 216 237
f 208 250 229
f 208 237 250
f 209 222 253
f 209 253 226
f 210 234 242
f 211 245 213
f 211 214 239
f 211 239 245
f 212 243 232
f 212 235 243
f 213 245 255
f 213 255 388
f 214 229 249
f 214 249 239
f 215 224 241
f 215 241 233
f 216 240 237
f 217 257 244
f 217 247 257
f 218 260 224
f 218 231 260
f 219 256 220
f 219 228 251
f 219 251 256
f 220 252 222
f 220 256 252
f 221 246 227
f 221 255 246
f 221 388 255
f 222 252 254
f 222 254 253
f 223 233 248
f 223 248 247
f 224 260 241
f 225 226 238
f 225 238 236
f 226 253 238
f 227 265 235
f 227 246 265
f 228 395 251
f 229 264 249
f 229 250 264
f 230 232 262
f 230 267 234
f 230 262 267
f 231 236 259
f 231 259 260
f 232 243 261
f 232 261 262
f 233 241 263
f 233 263 248
f 234 258 242
f 234 267 258
f 235 268 243
f 235 265 277
f 235 277 268
f 236 238 276
f 236 276 259
f 237 240 271
f 237 266 250
f 237 271 266
f 238 253 270
f 238 270 276
f 239 272 245
f 239 249 272
f 240 244 271
f 241 260 278
f 241 288 263
f 241 278 288
f 242 258 279
f 242 279 273
f 242 273 395
f 243 268 261
f 244 257 291
f 244 291 271
f 245 284 255
f 245 272 284
f 246 255 286
f 246 286 265
f 247 248 280
f 247 269 257
f 247 280 269
f 248 263 287
f 248 287 280
f 249 264 285
f 249 285 272
f 250 266 264
f 251 384 256
f 251 395 384
f 252 275 254
f 252 256 296
f 252 296 275
f 253 254 275
f 253 281 270
f 253 275 281
f 255 284 286
f 256 283 296
f 256 384 283
f 257 269 293
f 257 293 291
f 258 267 290
f 258 290 279
f 259 274 260
f 259 276 274
f 260 274 278
f 261 289 262
f 261 268 282
f 261 282 289
f 262 304 267
f 262 289 304
f 263 288 287
f 264 266 298
f 264 298 285
f 265 292 277
f 265 286 292
f 266 271 299
f 266 299 298
f 267 304 290
f 268 277 307
f 268 307 282
f 269 280 305
f 269 305 293
f 270 300 276
f 270 281 300
f 271 291 299
f 272 295 284
f 272 285 295
f 273 279 308
f 273 308 294
f 273 294 395
f 274 276 302
f 274 297 278
f 274 309 297
f 274 302 309
f 275 315 281
f 275 296 324
f 275 324 315
f 276 300 302
f 277 292 318
f 277 318 307
f 278 297 288
f 279 290 312
f 279 323 308
f 279 312 323
f 280 287 305
f 281 315 300
f 282 319 289
f 282 307 319
f 283 301 296
f 283 384 301
f 284 306 286
f 284 295 310
f 284 310 306
f 285 313 295
f 285 298 317
f 285 317 313
f 286 303 292
f 286 306 303
f 287 288 311
f 287 314 305
f 287 311 314
f 288 297 311
f 289 319 304
f 290 304 312
f 291 293 326
f 291 320 299
f 291 326 320
f 292 303 318
f 293 305 329
f 293 329 326
f 294 328 301
f 294 301 384
f 294 308 328
f 294 384 395
f 295 331 310
f 295 313 331
f 296 301 316
f 296 316 324
f 297 309 327
f 297 327 311
f 298 299 321
f 298 321 317
f 299 320 321
f 300 325 302
f 300 315 332
f 300 332 325
f 301 328 316
f 302 325 309
f 303 306 322
f 303 322 318
f 304 397 312
f 304 319 397
f 305 314 336
f 305 336 329
f 306 310 338
f 306 338 322
f 307 318 330
f 307 330 319
f 308 323 335
f 308 335 328
f 309 325 327
f 310 331 338
f 311 337 314
f 311 327 337
f 312 348 323
f 312 339 348
f 312 397 339
f 313 317 342
f 313 342 331
f 314 337 336
f 315 324 334
f 315 334 332
f 316 346 324
f 316 328 346
f 317 321 342
f 318 322 333
f 318 333 330
f 319 330 340
f 319 340 339
f 319 339 397
f 320 343 321
f 320 326 343
f 321 341 342
f 321 343 341
f 322 345 333
f 322 338 345
f 323 348 335
f 324 346 334
f 325 344 327
f 325 332 349
f 325 349 344
f 326 329 347
f 326 347 343
f 327 353 337
f 327 344 353
f 328 335 386
f 328 356 346
f 328 386 356
f 329 336 355
f 329 355 347
f 330 333 358
f 330 358 340
f 331 352 338
f 331 342 352
f 332 334 350
f 332 350 349
f 333 345 358
f 334 346 350
f 335 348 351
f 335 351 386
f 336 337 354
f 336 354 355
f 337 353 362
f 337 362 354
f 338 361 345
f 338 352 361
f 339 340 359
f 339 359 348
f 340 358 365
f 340 365 359
f 341 357 342
f 341 343 357
f 342 357 352
f 343 347 357
f 344 349 360
f 344 360 353
f 345 361 358
f 346 367 350
f 346 356 367
f 347 355 370
f 347 370 357
f 348 366 351
f 348 359 366
f 349 350 363
f 349 363 360
f 350 367 363
f 351 374 364
f 351 364 386
f 351 366 374
f 352 357 368
f 352 368 361
f 353 360 372
f 353 372 362
f 354 371 355
f 354 362 371
f 355 371 370
f 356 364 367
f 356 386 364
f 357 390 368
f 357 370 390
f 358 361 369
f 358 369 365
f 359 365 375
f 359 378 366
f 359 375 378
f 360 363 372
f 361 368 376
f 361 376 369
f 362 377 371
f 362 372 377
f 363 367 373
f 363 373 372
f 364 374 367
f 365 369 375
f 366 378 374
f 367 374 373
f 368 379 376
f 368 390 379
f 369 380 375
f 369 376 380
f 370 371 379
f 370 379 390
f 371 377 379
f 372 373 381
f 372 382 377
f 372 381 382
f 373 374 381
f 374 378 381
f 375 380 378
f 376 379 383
f 376 383 380
f 377 382 379
f 378 380 381
f 379 382 383
f 380 383 381
f 381 383 382
