v -0.197044216646259 -0.0057407334832702 1.01005902901015
v -0.196475857142958 0.0124373341684823 0.986294093711402
v -0.194759366374011 -0.0260155019798085 0.981129262139651
v -0.19270457766202 -0.00829659207884021 0.957898449253993
v -0.192621607966614 -0.0423293772365899 1.00700083688732
v -0.193177064184168 0.0382552886979308 1.01350815065893
v -0.190071238436132 0.0320038048890215 1.04257494906263
v -0.190460400036056 -0.0211599449574184 1.04762254592385
v -0.190125741699498 0.0501316462955011 0.982899200736522
v -0.188535051098975 0.0247926225481593 0.946919484036759
v -0.187489218073917 -0.0579572880844203 0.978658247338075
v -0.183529948963967 -0.0643851330108468 1.03371942310378
v -0.186785712435532 -0.0368652741918213 0.947596506679211
v -0.185150188395374 0.0604712888697439 1.03191557726772
v -0.1826102948073 0.0278139493114007 1.07000096531216
v -0.181710298374625 -0.0190176550661026 0.924766021484608
v -0.18351599305169 0.0725482152989412 1.00235308025449
v -0.180011097588432 -0.0797870615203797 1.0131197387486
v -0.178472604737195 -0.051340679806882 1.06732772165081
v -0.178182580640094 0.0657756436470267 0.946058750175967
v -0.177878921435007 0.00322787045576366 1.08602345123379
v -0.173890292729145 0.0883873569616506 1.03023956240847
v -0.17610822857473 0.085660696548685 0.975483915949813
v -0.173776518641619 0.068286653351533 1.06432324855377
v -0.175070249585431 0.00437792221593404 0.908418100660009
v -0.174745904253965 -0.0767858891020998 0.949535087357105
v -0.173914513283899 0.0482748266444607 0.919705644004259
v -0.170209039216971 -0.0585465955996981 0.918553523978031
v -0.171800106963864 -0.0954131064603955 0.98154619314011
v -0.169646974843502 -0.0327212404091666 1.09604795654185
v -0.167620808359281 -0.0993370400946077 1.03172069808364
v -0.170691617628888 -0.081774886602423 1.05642584685764
v -0.165234867758927 0.0905150042474134 0.940782432943848
v -0.165444900853823 0.0417275947079979 1.09989082289572
v -0.162911900567457 -0.0394191641816472 0.895114271962444
v -0.162113982892056 0.111168682729816 1.01786107572542
v -0.15879922738258 -0.117098393549541 1.00525142220602
v -0.158406424543309 -0.108625074060831 0.954346397437581
v -0.154786335424839 0.071674677933131 0.900057955520559
v -0.156373467724795 0.103223832636512 1.06240665688105
v -0.156176657565153 -0.082867555525688 1.08831489009171
v -0.153304214294426 -0.0991440314704582 0.92447592606385
v -0.15636243654184 0.0280894528659701 0.882082061975719
v -0.156075597882566 0.114180886155311 0.960145442637583
v -0.151928248470677 0.0847497396580667 1.09387912874123
v -0.160318560827958 0.015789530483143 1.11479673112873
v -0.153319987016277 -0.055799498102034 1.11181978819126
v -0.152401084014164 0.124813071566455 0.987331392102568
v -0.153501896604298 -0.0163725424605844 1.1237809534499
v -0.145770218658509 0.126780098202228 1.04058703727532
v -0.149721568348844 -0.077889645126976 0.896966396803835
v -0.148156323686057 0.099241096804628 0.914715450873014
v -0.148452911943788 -0.122918120324665 1.04278734319571
v -0.14574006185305 -0.130424934279338 0.973260743989833
v -0.142780029197305 0.0648906576339303 1.12058755208868
v -0.142086505502964 0.0066264060239893 1.1377310883833
v -0.138647206544844 -0.0461217942634624 0.866404983728426
v -0.137675929527067 -0.118209363763415 1.07809012110131
v -0.13375002866613 -0.144970701399827 1.00679623031916
v -0.135244259251711 0.0612411548110738 0.869123547141498
v -0.135075483058489 -0.0334118519779787 1.14095602768055
v -0.134262812587709 -0.129320803263896 0.934771776982912
v -0.130602426589571 0.113575838094503 0.904547283812695
v -0.128055430321796 -0.104386523494086 1.10872697164311
v -0.128809010507307 0.134850793543526 1.06500570596333
v -0.127815654699357 0.0186318837284207 0.84978850059957
v -0.124991870795662 0.149850761267541 1.02996776516131
v -0.127403660925825 0.148411250703895 0.973664410776143
v -0.132896750876633 0.132373775097347 0.938172262592467
v -0.12974937370222 -0.0706641309390422 1.13173503632748
v -0.124479784470225 0.0949228368308855 1.12096740339319
v -0.123497723605001 0.119847515032443 1.09722239922321
v -0.129014241612725 0.090283356207972 0.880235740618971
v -0.125454344336015 0.0421717064826975 1.14741899552329
v -0.121376911997002 -0.144744726478366 1.0576971690751
v -0.1195745 -0.108376 0.885611
v -0.116339313638723 -0.0791429507109383 0.86066343632029
v -0.117675699097662 -0.0194269195742163 1.15829044634827
v -0.115869022601276 -0.152499941205056 0.951888353221043
v -0.115081939120135 -0.134385388595808 1.08797922870723
v -0.110417387813853 0.0583151162353283 0.846095935740523
v -0.104087587632787 0.147674586558632 0.920115328985187
v -0.108277918996994 0.123623724623126 0.889936033653447
v -0.109776034679257 0.07126712568835 1.14870342731029
v -0.111627097872977 0.162630381368753 1.0059948523554
v -0.105970566569598 -0.148708691117213 0.924578796521704
v -0.103267923912293 0.0947879481862625 0.860095737232722
v -0.109223855503898 0.157481765249737 0.952503396153094
v -0.109343855529345 -0.0556539642001196 1.15559765562971
v -0.109290504846645 -0.0265990314240302 0.836757177407411
v -0.101427661562211 0.152313563443504 1.07452008434704
v -0.102987481143678 -0.164775162125226 1.0346164862044
v -0.100816539208743 0.0179743456965399 1.16985523082755
v -0.105074077895434 -0.0579488678450696 0.842276881200334
v -0.0975017484975424 0.106154665988162 1.13571374771317
v -0.0976281487771411 -0.116896650050545 1.12641202938454
v -0.0969295664891463 0.0363033382170094 0.830842554360039
v -0.0957401131153202 0.128691568771915 1.11578310958962
v -0.0938671259370989 0.167941215278233 1.04415938427818
v -0.0952511220927446 -0.160066736374455 1.06580867048175
v -0.0890121034012795 0.176069812973192 0.996107801713638
v -0.0889688635818617 -0.145412258200987 1.10012392344479
v -0.0907449043648581 0.00910151921570503 0.823798010397793
v -0.0893269947361403 -0.108074068484382 0.860126454666378
v -0.0863924321138332 -0.0259213075187257 1.17670872827694
v -0.0907360885846747 0.0490012047956059 1.16941136534832
v -0.0823617185842048 -0.0969465582772849 1.15188716676461
v -0.0835731522984896 -0.172423249454613 0.952243689687701
v -0.0778416246782957 -0.160019081402198 0.914029582518549
v -0.0843195349516798 0.123658828750376 0.870516933851519
v -0.0852521131984468 -0.17754158899615 0.987069150780165
v -0.0860721776111221 -0.0747414453687587 0.837842780501736
v -0.0835798283386849 0.0709990599724635 0.834771
v -0.0805251496675643 0.176027302737356 0.961073230848495
v -0.0753290955357915 0.0730198743159728 1.16826056159504
v -0.0781297676458396 -0.0568005094702421 1.17323716177353
v -0.0703021331591919 -0.0268673707182261 0.816300755640432
v -0.0727163441348047 0.153746552437568 1.10088108141356
v -0.0705851044025704 0.166032567078724 0.919482644702824
v -0.075110373130891 -0.162559038796269 1.08356440733871
v -0.0774867286558869 0.148084181853345 0.894353105296865
v -0.0750419646270248 0.102450775102799 0.847910246145455
v -0.0708689727988842 -0.14575886763751 0.886651097389494
v -0.0606167694117217 0.133975081408116 1.13252580556431
v -0.0652043578379412 -0.137863799537583 1.12620595676606
v -0.0652875123972438 0.00609644817236177 1.18742525835157
v -0.0653418301220525 -0.11673706023723 0.853930365965733
v -0.0651298731595185 0.0382683414964913 1.18359395968513
v -0.0659610725800276 -0.183337391175333 1.03181378867203
v -0.0587978155026455 0.188253345196817 1.00777018875752
v -0.0621835342887064 -0.187224446698031 1.00431162136974
v -0.0598053845724756 0.179498285371131 1.0565480138559
v -0.0601890571664313 -0.0776329490150734 0.82770284580895
v -0.060360912339424 0.0108943716015783 0.811152826897848
v -0.0610561798871169 0.0511115046342816 0.818228821399089
v -0.059276813599773 0.100494922222263 1.16026844435623
v -0.0577285576132796 -0.119185752220362 1.14736377945974
v -0.0476432740667326 -0.170309208851046 1.08813784669763
v -0.0528722478715959 0.0863539291026522 0.829419663989121
v -0.0561693608229572 -0.179719943213647 1.05956662216709
v -0.0519559984149251 -0.188333273888137 0.971815349438866
v -0.0437005703860656 0.189716514377402 1.0324532116858
v -0.0450659879045315 -0.155072587291495 1.11418372093522
v -0.0485255240828748 0.122931472297296 0.852413539051128
v -0.0467110829840661 0.184096097126716 0.945951276092274
v -0.0411482360336724 -0.0486923561318893 0.811962483361653
v -0.0453261880363462 0.0629496854909103 1.18268634770128
v -0.0396668236782047 -0.156960746450086 0.886359193673118
v -0.039347205402555 -0.102802761304308 1.16493619251488
v -0.045481163648932 0.191221088135642 0.98194766380408
v -0.0434072563013076 0.169939079166929 0.908889770334447
v -0.0430589528302562 -0.0265101816544524 1.19214128765097
v -0.0343331249990348 0.149040895651578 0.874399305699016
v -0.0393110169105601 0.172817783483742 1.08736824892203
v -0.0359182900104959 -0.103119830533155 0.834464995048889
v -0.0389161037932482 -0.0154592895669153 0.805694585027333
v -0.0314098393726803 -0.135359012843338 0.858888540037152
v -0.0306800197163131 0.0569059051008793 0.812262061883622
v -0.0230856218236649 0.195947722710008 1.00353033406041
v -0.028966894380061 0.117419763459646 1.15699483457506
v -0.0259357647896299 -0.0706639502934768 1.18369828667018
v -0.0324788498653531 0.0166402995907628 1.19545739111219
v -0.025042558200216 -0.182311296193984 1.0717534301477
v -0.0244442492521987 0.152656772639716 1.12347585690167
v -0.0243275695384052 0.1858926228352 1.0619925195029
v -0.0254169971950078 -0.195734777572185 0.999494095404622
v -0.0233742071402354 -0.19284886150436 1.03490207826308
v -0.021987994339724 0.0224246739503329 0.80364029424819
v -0.0179073470005361 0.125287099086124 0.847532462321352
v -0.0174533866779992 -0.192289253483214 0.958806875821151
v -0.00479886340520881 0.195099850112361 1.02968558464723
v -0.00970681538662676 0.0849167372170972 1.17909519968989
v -0.0126696949048878 0.171272492918911 0.902170244045543
v -0.013656696203279 -0.0585263470451947 0.810734729681548
v -0.01243342784548 -0.16444700152527 1.10913672719658
v -0.0123183636280041 0.0449005286577551 1.19320432092229
v -0.0121710353573591 0.1943542384045 0.967787394381028
v -0.00416165089209924 -0.11280002237834 0.837044795193465
v -0.0128135229544446 0.0840614337865709 0.820674801295924
v -0.0094252820803864 -0.113906992127 1.16194553313093
v -0.0108841871907013 -0.0181977120085907 0.802246134588655
v -0.00552719805190684 0.171854285010269 1.09747920606577
v -0.0075141459519103 -0.024432322364587 1.19725512503553
v -0.00751473439652028 -0.182929046293869 0.925773844854175
v -0.00873695396773989 -0.145784268396175 0.866315048940609
v 0.00764581680433289 0.154974184612522 1.12279425712587
v -0.00505199172980961 0.188131920088428 0.94022194327946
v -0.00605772187329032 -0.166968491148892 0.89428133580038
v 0.00526455384680053 -0.195857222040128 0.976372805929622
v -0.00108967196276282 0.120235810077327 1.15753475696254
v 0.00322153236388929 0.0096004531256584 1.19875731784753
v 0.0044231392090134 -0.0487095256180185 1.19263227339562
v 0.00409681242694862 0.153198338908917 0.874800588843118
v 0.00634094625807593 -0.0898760404547114 1.17674784927928
v 0.00377267526149107 0.046271174252434 0.806760681484405
v 0.0120979115159259 -0.0858074945937823 0.821500980355986
v 0.00840216187485452 -0.196532630201973 1.01614620550507
v 0.0182364194231342 -0.0229983283720187 0.803287239687971
v 0.0095218706266136 0.197160541309473 1.00210941242943
v 0.0138835393644134 0.0785505753865821 0.818295846646012
v 0.0144276849926128 -0.189293427187178 1.05420952395609
v 0.0181728394401632 0.17267918366159 0.905484352190275
v 0.0177470280990412 0.057404554475051 1.1892773478599
v 0.0183852736432074 -0.0520154755987023 0.809182093738697
v 0.0243793954640259 0.130736257414943 1.14683580140557
v 0.0268707536841737 -0.186178417891462 0.939820393643983
v 0.0227539558485576 0.188081444232789 1.05562553748974
v 0.024132107163616 0.00976615572040482 0.802867143938386
v 0.0274579206101625 0.141503194285358 0.86428606467822
v 0.0333538626212631 0.19300626744564 1.02411637624262
v 0.027847602426325 0.170838753359423 1.09544161937449
v 0.021117508621035 -0.125072337512173 1.15220330887409
v 0.0259944426502777 0.090912373786246 1.1743955652065
v 0.0265337322354001 -0.169975848305435 1.09735177224495
v 0.0281057068261422 -0.121185451222885 0.845743772491503
v 0.0285732522061841 -0.149033655950198 0.872933656537357
v 0.0272256604822543 0.192822942890249 0.967686680663777
v 0.0277696426422417 0.117170701652696 0.842608108048906
v 0.0265268896904875 -0.0328515091925252 1.19425802963862
v 0.0335123419252338 0.0265557572554947 1.19412576408504
v 0.0301007611489885 -0.173657015244439 0.910660373830969
v 0.038211869927759 -0.0706472792059054 1.18146477167585
v 0.0306152500285927 -0.149234506865207 1.12637471429511
v 0.0340502170829958 -0.194394793758481 1.00132745899189
v 0.0369039715255773 -0.191656939416402 0.970230291943112
v 0.0386773124504148 -0.00934121105216431 1.19480190490634
v 0.0393723743224166 0.180692810531582 0.930655826025415
v 0.041965520248167 -0.0801539929885574 0.823436787562778
v 0.0359156207756959 0.151314884846468 1.12229045358789
v 0.0462908774652779 0.06575473546217 0.818585130930672
v 0.0504003147248434 -0.051128410572877 0.814947177173162
v 0.0462353816066032 -0.179395281427256 1.06856118979313
v 0.0480122826565218 0.0984857376680812 0.834703923569498
v 0.047915337801566 -0.106395607626571 1.1602482920442
v 0.0512852701742008 0.0274127381202924 0.8100677079264
v 0.0517622037653418 0.159201869105333 0.894817676119811
v 0.0555336531500744 -0.186544435364935 1.0329332998314
v 0.0538551179158394 0.106543896702399 1.15819836143329
v 0.0581286238403211 -0.188578002151101 0.996219269336864
v 0.0566115724537384 0.176171608921331 1.06905828523297
v 0.0557397884808922 0.0689726623222113 1.17747360364721
v 0.0573295684889815 -0.135192869978354 1.13278139133625
v 0.0544794149280317 -0.02313409919382 0.810428573650057
v 0.0537745203680757 0.135608385882213 0.866148814576955
v 0.063855827857215 0.0428723239352653 1.18298628516158
v 0.0620275528344492 0.183936414187861 1.03577205744416
v 0.0633376910590584 0.18162199880895 0.955537496902146
v 0.0592276042485958 -0.0392836491254359 1.185335590363
v 0.0653355048406394 -0.074608082920923 1.1717626548042
v 0.0643853923768225 0.159911947138185 1.0967138738978
v 0.0598868699434432 0.131520881732635 1.13529857840036
v 0.0615803628348453 -0.0994847640952499 0.83997165512736
v 0.0669287165408356 -0.150884243692691 0.891094342899304
v 0.0662168662148409 -0.178197161102289 0.946685676674823
v 0.0629532284007921 -0.167354129152806 0.915858626862511
v 0.0667173502411005 0.185708916374163 0.995501990416434
v 0.0693596904459104 -0.121968950042519 0.860264272810977
v 0.0726093938099074 0.00760958783155231 1.18458106865972
v 0.0739299832726236 0.0098273525628257 0.816034601547958
v 0.0712406169391307 -0.175279544822 1.05664083720796
v 0.0659970338145599 -0.160811524154337 1.09419137775775
v 0.0740068392330607 0.109552040444423 0.852433526618277
v 0.0747533566748225 0.079704558741879 0.834521726949036
v 0.0764832343228216 -0.107958454900225 1.14745924826449
v 0.0777028516910472 0.139387709941939 1.11689325021206
v 0.0785151119724866 0.166189825629996 0.927578941120138
v 0.0821336379095855 0.109355208226826 1.14323025202375
v 0.082461646730097 0.0492930322163133 0.826455772528984
v 0.0837854733275345 0.131009969475307 0.877711497403254
v 0.0902427761263093 -0.0280628902462177 1.17443045382387
v 0.0850494040142122 -0.177215561851221 0.981848033233649
v 0.0858438536653049 0.0712430602700329 1.16390015046947
v 0.0886973846947099 -0.0941705943442346 0.849986469940219
v 0.0846461797244279 0.166126909645141 1.06512033845988
v 0.0841794508714608 -0.0485324428463791 0.8270943903574
v 0.0967973695541679 -0.155805279127474 1.07328622470335
v 0.0903445427334326 -0.159175913388722 0.925693308228753
v 0.0907575310233505 -0.173761979853947 1.0229141003059
v 0.0880334177026606 0.147896021315982 0.902762307265709
v 0.0886376632919135 -0.140919151835837 1.10665602648223
v 0.0919839873404728 -0.0176559100732437 0.825088654280171
v 0.0928523939843123 -0.0560804089400813 1.16600226037576
v 0.0971112116995361 -0.166706443683897 0.95819102293609
v 0.103551772987831 0.109285509630367 0.871566858636976
v 0.0990899803568689 0.169840065750913 1.01699717737547
v 0.0988347974913637 0.147180044694363 1.08734872850633
v 0.0984341359319968 0.167895254770746 0.967081804419265
v 0.101740932381263 -0.0870952562222499 1.14592667607858
v 0.099139824475862 -0.117436520212196 1.12464763661119
v 0.0991206786084315 0.0886460766853698 0.853142660654104
v 0.098403634690506 0.015967938683053 0.828531389350261
v 0.106698188206789 0.0394570825940781 1.16233039592937
v 0.109037953536954 0.147243813707939 0.926063289943052
v 0.104254319193228 0.00496010371979046 1.16861874366866
v 0.109042323455577 -0.142073994011956 0.916525893587042
v 0.106256135269035 -0.0751098262005306 0.850645641862955
v 0.109938230957286 0.155225291761985 1.05285878665921
v 0.109666921229357 -0.127276922493334 0.895776269840107
v 0.114060522763794 -0.132820627632789 1.09168358472475
v 0.107779140195875 0.117233397301381 1.1174006850545
v 0.106834792163965 0.0875961248608993 1.14191371578618
v 0.113097816347477 -0.161356951908831 0.988848534202281
v 0.108870540113955 -0.102877238822373 0.87067334253189
v 0.117022063207511 -0.153797963481554 1.04034504333516
v 0.118258163887759 0.0561105198366309 0.851284975501148
v 0.122462406011397 -0.0345821102382155 1.15184833712607
v 0.123458336166848 0.153855798735493 0.994319926962192
v 0.120842493836078 0.116673983213918 0.895719944559553
v 0.127447469094224 -0.0462320570878235 0.855624653939348
v 0.125377862249779 0.150501815718408 1.0242131137856
v 0.126816157906758 -0.105125137069606 1.10949437536545
v 0.125639384522749 0.0194060959695058 0.848027794158714
v 0.126601032893712 0.131675529427676 1.07526064750726
v 0.130865600207833 -0.0750241860550393 1.12809293102327
v 0.129675162771183 -0.144214460435698 0.963012436313511
v 0.130316178319849 -0.107497220752861 0.897182051618755
v 0.128240573440076 0.112206582716968 1.1002207239947
v 0.130530158910858 0.134422187081242 0.937665601413602
v 0.13427421519662 0.0844812147505689 0.881762940469181
v 0.132713148884522 0.0550873674376899 1.13620313028384
v 0.133463135185442 0.0837292651419607 1.11965334872106
v 0.1380312422128 0.138832372583253 0.974737986962405
v 0.136625113995402 -0.00998313445010095 0.857007782290343
v 0.137232256956807 -0.12339954783145 0.929576207379232
v 0.137873339928483 -0.137954163608308 1.03071115412048
v 0.138652260875795 0.0211438140659177 1.13982580848606
v 0.14132969716051 -0.116851753746408 1.07348822464247
v 0.13885632966369 -0.0767826830448872 0.881797669851821
v 0.144454319719797 -0.0108438876681397 1.1349239120013
v 0.14539426492659 0.108219020391246 0.921319349981347
v 0.145702049783897 0.125487508777134 1.04460153751237
v 0.143442031340646 -0.135393554797991 0.994272025789834
v 0.150158790595316 0.118726188860774 0.951536676203006
v 0.148971890525539 -0.122758549300145 0.958506843313099
v 0.147176899254361 0.0220633555077739 0.869500299361629
v 0.15117406401647 -0.0406618611305434 0.879045196729957
v 0.150984200339187 -0.0427219737925314 1.12048178407922
v 0.153300640457679 -0.0852091238024462 0.908936250834002
v 0.152309521116216 -0.0790669572932138 1.09808754709937
v 0.152514237360472 0.12487041894849 1.01097053100485
v 0.156569226390608 0.0428321621316807 0.88702649954448
v 0.15165322157643 0.0795642218664857 1.09873129471708
v 0.152330274761053 0.100931753616793 1.07517571835628
v 0.152706215402768 0.0495316242833704 1.11552560190442
v 0.157548699714247 -0.110720724147654 1.04338753531634
v 0.161404645154063 0.112583233730207 0.985341447726192
v 0.159243384486849 -0.0991873893857939 0.938401948012915
v 0.164986062983902 0.0227007002218298 1.10658049648183
v 0.164407279885066 -0.0623829605290013 0.909851881190367
v 0.165035042975289 0.010746105341522 0.891598132683037
v 0.163722016859286 -0.109901791768092 1.00987792886558
v 0.164874247353788 -0.105169611048535 0.973375298205484
v 0.168076666586948 -0.0219586380096575 0.89818773499154
v 0.169499560997633 0.0904318325740376 1.04563849420618
v 0.170401904134612 -0.0799252040979637 1.05986298246894
v 0.169595549000979 -0.0486798466719473 1.08896059566987
v 0.169761340380169 -0.0100433239639413 1.10085319656518
v 0.171886930840845 0.061742624403067 1.07544866192067
v 0.170828626678231 0.0897351687614514 0.958278856157714
v 0.175260171178318 0.038284174796721 0.917206374907989
v 0.17414917409977 -0.0890792341053324 1.026252053274
v 0.175888465399756 0.0892711288111924 1.00575555415422
v 0.178568004068367 -0.055028395655414 1.06399068347646
v 0.178455203672791 -0.0841533464085346 0.994321292542928
v 0.177604207386009 -0.0458519780884239 0.926666605045923
v 0.180380074197049 0.00134041768877245 0.919405851635364
v 0.182492995463763 -0.0653654534728985 0.962368212034341
v 0.183813365613959 0.0660434958833247 1.0290253561646
v 0.184753693398863 0.0638688545138138 0.972591699107769
v 0.181131173343143 0.0189996722538337 1.07664975394601
v 0.185327206728428 -0.011587532894134 1.06739030828877
v 0.187441799105111 -0.0569883189371964 1.02419102449385
v 0.189075823614991 -0.0557188705839156 0.989422834139074
v 0.187934226617595 -0.0265031968129529 0.945512244643388
v 0.187952566941867 0.0343805272045864 0.950233719863268
v 0.189335438299845 0.0558718037284711 0.999724100620235
v 0.190471288881112 -0.0252410243819416 1.04533368311206
v 0.190040876943148 0.00455927222991526 0.946714798476804
v 0.190869877128796 0.0279549053245034 1.04207239486803
v 0.194876886992299 0.0213692435495476 0.977193199341803
v 0.195928237881044 -0.0190877777896714 0.985520726039368
v 0.196256975534193 -0.0117637248820276 1.01736088362926
v 0.196377130621704 0.0183428577439579 1.00785848855693
v -0.0266920233962158 -0.134019649087926 1.14335495752266
v 0.107911345602419 -0.0380720511116626 0.8381360810584
v 0.168944439655323 0.067742071190853 0.923141779841213
v -0.018320388334869 -0.15006083638784 1.12770623243771
v -0.033738029480348 -0.181023000752054 0.928559869473136
v -0.0593127396814226 -0.0833148490579543 1.1699414307327
v 0.000315468148992784 -0.177848591782284 1.08622774689861
v 0.0378977244804093 0.193686087041272 0.997012138262709
v -0.12997161028118 -0.015014410342051 0.851261740947582
v -0.111009998199472 -0.163197668014921 1.00154851167885
v -0.0512885975615724 -0.0592499357922114 1.18232986858867
v -0.109473962171285 -0.0860001350740072 1.14086084808616
v -0.00795919328633698 0.138428155296575 1.14141163849772
v -0.162555934360108 -0.00754339256328795 0.887556342851031
v -0.0965274065263407 -0.12522352197739 0.881062313164075
v -0.0216271797256951 -0.0800245362546485 0.819691377654815
v -0.0372642929175816 0.0892846557040337 1.17315610937079
v 0.0216047868276142 0.0989988142678691 0.82946763611778
v 0.0697943963018119 0.0892582881522303 1.16264465161898
v -0.147536414007903 0.0411658713830965 1.12530328963036
f 1 2 3
f 1 6 2
f 1 3 5
f 1 5 8
f 1 7 6
f 1 8 7
f 2 4 3
f 2 10 4
f 2 6 9
f 2 9 10
f 3 4 13
f 3 11 5
f 3 13 11
f 4 10 16
f 4 16 13
f 5 12 8
f 5 11 18
f 5 18 12
f 6 7 14
f 6 17 9
f 6 14 17
f 7 8 15
f 7 24 14
f 7 15 24
f 8 12 19
f 8 21 15
f 8 19 30
f 8 30 21
f 9 20 10
f 9 17 23
f 9 23 20
f 10 25 16
f 10 20 27
f 10 27 25
f 11 13 26
f 11 29 18
f 11 26 29
f 12 18 31
f 12 32 19
f 12 31 32
f 13 16 28
f 13 28 26
f 14 22 17
f 14 24 22
f 15 21 34
f 15 34 24
f 16 25 397
f 16 35 28
f 16 397 35
f 17 22 36
f 17 36 23
f 18 29 37
f 18 37 31
f 19 47 30
f 19 32 41
f 19 41 47
f 20 23 33
f 20 39 27
f 20 33 39
f 21 30 49
f 21 46 34
f 21 49 46
f 22 24 40
f 22 40 36
f 23 44 33
f 23 36 44
f 24 34 45
f 24 45 40
f 25 27 43
f 25 43 397
f 26 28 42
f 26 38 29
f 26 42 38
f 27 39 43
f 28 35 51
f 28 51 42
f 29 54 37
f 29 38 54
f 30 47 49
f 31 58 32
f 31 37 53
f 31 53 58
f 32 58 41
f 33 52 39
f 33 44 52
f 34 55 45
f 34 46 403
f 34 403 55
f 35 57 51
f 35 397 57
f 36 40 50
f 36 48 44
f 36 50 48
f 37 59 53
f 37 54 59
f 38 42 62
f 38 62 54
f 39 60 43
f 39 52 73
f 39 73 60
f 40 45 72
f 40 65 50
f 40 72 65
f 41 64 47
f 41 58 64
f 42 51 76
f 42 76 62
f 43 60 66
f 43 66 397
f 44 48 68
f 44 69 52
f 44 68 69
f 45 55 71
f 45 71 72
f 46 49 56
f 46 56 403
f 47 61 49
f 47 70 61
f 47 64 70
f 48 50 67
f 48 67 68
f 49 61 56
f 50 65 67
f 51 57 77
f 51 77 76
f 52 69 63
f 52 63 73
f 53 75 58
f 53 59 75
f 54 393 59
f 54 62 79
f 54 79 393
f 55 84 71
f 55 74 84
f 55 403 74
f 56 61 78
f 56 93 74
f 56 74 403
f 56 78 93
f 57 94 77
f 57 90 94
f 57 392 90
f 57 397 392
f 58 80 64
f 58 75 80
f 59 92 75
f 59 393 92
f 60 81 66
f 60 73 87
f 60 87 81
f 61 70 89
f 61 89 78
f 62 76 86
f 62 86 79
f 63 69 82
f 63 83 73
f 63 82 83
f 64 395 70
f 64 80 96
f 64 96 395
f 65 91 67
f 65 72 91
f 66 81 97
f 66 97 103
f 66 103 392
f 66 392 397
f 67 85 68
f 67 99 85
f 67 91 99
f 68 88 69
f 68 85 88
f 69 88 82
f 70 395 89
f 71 98 72
f 71 84 95
f 71 95 98
f 72 98 91
f 73 83 87
f 74 106 84
f 74 93 106
f 75 100 80
f 75 92 100
f 76 77 104
f 76 398 86
f 76 104 398
f 77 94 112
f 77 112 104
f 78 89 105
f 78 105 93
f 79 86 108
f 79 108 393
f 80 102 96
f 80 100 102
f 81 87 113
f 81 113 97
f 82 121 83
f 82 88 119
f 82 119 121
f 83 110 87
f 83 121 110
f 84 115 95
f 84 106 115
f 85 101 88
f 85 99 101
f 86 109 108
f 86 123 109
f 86 398 123
f 87 110 122
f 87 122 113
f 88 101 114
f 88 114 119
f 89 116 105
f 89 395 116
f 90 117 94
f 90 103 117
f 90 392 103
f 91 98 118
f 91 132 99
f 91 118 132
f 92 140 100
f 92 129 140
f 92 393 129
f 93 105 126
f 93 128 106
f 93 126 128
f 94 117 112
f 95 124 98
f 95 115 136
f 95 136 124
f 96 102 125
f 96 137 107
f 96 107 395
f 96 125 137
f 97 134 103
f 97 113 135
f 97 135 134
f 98 124 118
f 99 130 101
f 99 142 130
f 99 132 142
f 100 120 102
f 100 140 120
f 101 150 114
f 101 130 150
f 102 120 143
f 102 143 125
f 103 134 117
f 104 112 127
f 104 127 123
f 104 123 398
f 105 116 152
f 105 152 126
f 106 128 115
f 107 137 149
f 107 149 389
f 107 389 395
f 108 109 388
f 108 141 111
f 108 111 393
f 108 388 141
f 109 123 148
f 109 148 388
f 110 121 153
f 110 144 122
f 110 153 144
f 111 141 131
f 111 131 393
f 112 117 133
f 112 155 127
f 112 133 155
f 113 122 139
f 113 139 135
f 114 145 119
f 114 150 145
f 115 128 147
f 115 400 136
f 115 147 400
f 116 394 152
f 116 389 394
f 116 395 389
f 117 146 133
f 117 134 156
f 117 156 146
f 118 124 164
f 118 154 132
f 118 164 154
f 119 151 121
f 119 145 151
f 120 140 138
f 120 138 143
f 121 151 153
f 122 144 139
f 123 127 157
f 123 157 148
f 124 136 160
f 124 160 396
f 124 396 164
f 125 384 137
f 125 143 384
f 126 162 128
f 126 152 162
f 127 155 157
f 128 162 147
f 129 131 167
f 129 393 131
f 129 167 140
f 130 142 159
f 130 159 150
f 131 141 166
f 131 166 167
f 132 165 142
f 132 154 165
f 133 146 399
f 133 399 155
f 134 135 158
f 134 168 156
f 134 158 168
f 135 139 158
f 136 400 160
f 137 384 149
f 138 140 163
f 138 175 143
f 138 163 175
f 139 144 169
f 139 179 158
f 139 169 179
f 140 167 163
f 141 170 166
f 141 388 170
f 142 171 159
f 142 165 171
f 143 175 387
f 143 387 384
f 144 153 169
f 145 150 177
f 145 187 151
f 145 177 187
f 146 156 181
f 146 181 174
f 146 174 399
f 147 162 176
f 147 176 172
f 147 172 400
f 148 157 185
f 148 188 184
f 148 184 388
f 148 185 188
f 149 194 161
f 149 161 389
f 149 180 194
f 149 384 180
f 150 159 177
f 151 173 153
f 151 187 173
f 152 183 162
f 152 192 183
f 152 394 192
f 153 193 169
f 153 173 193
f 154 164 182
f 154 182 165
f 155 178 157
f 155 399 178
f 156 168 181
f 157 178 185
f 158 195 168
f 158 179 195
f 159 171 199
f 159 199 177
f 160 172 190
f 160 400 172
f 160 190 396
f 161 194 192
f 161 192 394
f 161 394 389
f 162 191 176
f 162 183 191
f 163 167 201
f 163 390 175
f 163 201 390
f 164 186 182
f 164 396 186
f 165 207 171
f 165 182 207
f 166 197 167
f 166 170 189
f 166 189 197
f 167 197 201
f 168 208 181
f 168 195 208
f 169 401 179
f 169 193 209
f 169 209 218
f 169 218 401
f 170 184 206
f 170 388 184
f 170 206 189
f 171 210 199
f 171 207 210
f 172 176 203
f 172 213 190
f 172 203 213
f 173 187 202
f 173 202 193
f 174 181 204
f 174 204 196
f 174 196 399
f 175 214 387
f 175 390 214
f 176 191 203
f 177 217 187
f 177 199 217
f 178 215 185
f 178 196 228
f 178 399 196
f 178 228 215
f 179 200 195
f 179 401 200
f 180 212 194
f 180 387 212
f 180 384 387
f 181 198 204
f 181 208 198
f 182 186 211
f 182 211 207
f 183 219 191
f 183 192 219
f 184 188 221
f 184 221 206
f 185 216 188
f 185 215 216
f 186 205 229
f 186 396 205
f 186 229 211
f 187 227 202
f 187 217 227
f 188 216 221
f 189 224 197
f 189 206 225
f 189 225 224
f 190 213 205
f 190 205 396
f 191 220 203
f 191 219 226
f 191 226 220
f 192 194 222
f 192 222 219
f 193 202 236
f 193 236 209
f 194 212 234
f 194 234 222
f 195 200 230
f 195 235 208
f 195 230 235
f 196 204 228
f 197 237 201
f 197 224 237
f 198 231 204
f 198 208 243
f 198 243 231
f 199 210 391
f 199 391 217
f 200 401 230
f 201 232 214
f 201 214 390
f 201 237 232
f 202 227 236
f 203 241 213
f 203 220 245
f 203 245 241
f 204 231 228
f 205 213 238
f 205 251 229
f 205 238 251
f 206 221 254
f 206 254 225
f 207 246 210
f 207 211 240
f 207 240 246
f 208 235 243
f 209 244 218
f 209 236 244
f 210 246 256
f 210 256 391
f 211 229 250
f 211 250 240
f 212 223 242
f 212 387 223
f 212 242 234
f 213 402 238
f 213 241 402
f 214 261 223
f 214 223 387
f 214 232 261
f 215 257 216
f 215 228 252
f 215 252 257
f 216 253 221
f 216 257 253
f 217 247 227
f 217 256 247
f 217 391 256
f 218 262 233
f 218 233 401
f 218 244 262
f 219 222 248
f 219 248 226
f 220 226 258
f 220 258 245
f 221 253 255
f 221 255 254
f 222 234 249
f 222 249 248
f 223 261 242
f 224 225 239
f 224 239 237
f 225 254 239
f 226 248 258
f 227 266 236
f 227 247 266
f 228 231 275
f 228 275 252
f 229 265 250
f 229 251 265
f 230 233 263
f 230 401 233
f 230 268 235
f 230 263 268
f 231 243 275
f 232 237 260
f 232 260 261
f 233 262 263
f 234 242 264
f 234 264 249
f 235 259 243
f 235 268 259
f 236 269 244
f 236 266 279
f 236 279 269
f 237 239 278
f 237 278 260
f 238 267 251
f 238 402 267
f 239 254 271
f 239 271 278
f 240 274 246
f 240 250 274
f 241 245 272
f 241 272 402
f 242 261 280
f 242 289 264
f 242 280 289
f 243 259 281
f 243 281 275
f 244 269 262
f 245 258 292
f 245 292 272
f 246 285 256
f 246 274 285
f 247 256 287
f 247 287 266
f 248 249 282
f 248 270 258
f 248 282 270
f 249 264 288
f 249 288 282
f 250 265 286
f 250 286 274
f 251 267 265
f 252 273 257
f 252 275 273
f 253 277 255
f 253 257 298
f 253 298 277
f 254 255 277
f 254 283 271
f 254 277 283
f 256 285 287
f 257 273 303
f 257 303 298
f 258 270 294
f 258 294 292
f 259 268 291
f 259 291 281
f 260 276 261
f 260 304 276
f 260 278 304
f 261 276 280
f 262 290 263
f 262 269 284
f 262 284 290
f 263 305 268
f 263 290 305
f 264 289 288
f 265 267 300
f 265 300 286
f 266 293 279
f 266 287 293
f 267 272 301
f 267 402 272
f 267 301 300
f 268 305 291
f 269 279 308
f 269 308 284
f 270 282 306
f 270 306 294
f 271 302 278
f 271 283 302
f 272 292 301
f 273 275 296
f 273 296 303
f 274 297 285
f 274 286 297
f 275 281 385
f 275 385 296
f 276 299 280
f 276 304 299
f 277 295 283
f 277 298 295
f 278 302 304
f 279 293 308
f 280 299 289
f 281 291 323
f 281 323 385
f 282 288 314
f 282 314 306
f 283 295 315
f 283 315 302
f 284 319 290
f 284 308 319
f 285 307 287
f 285 297 310
f 285 310 307
f 286 313 297
f 286 300 317
f 286 317 313
f 287 318 293
f 287 307 322
f 287 322 318
f 288 289 311
f 288 311 314
f 289 299 311
f 290 319 305
f 291 305 312
f 291 312 323
f 292 294 326
f 292 320 301
f 292 326 320
f 293 318 308
f 294 306 329
f 294 329 326
f 295 298 324
f 295 324 315
f 296 328 303
f 296 309 328
f 296 385 309
f 297 331 310
f 297 313 331
f 298 303 316
f 298 316 324
f 299 304 327
f 299 327 311
f 300 301 321
f 300 321 317
f 301 320 321
f 302 332 304
f 302 315 332
f 303 328 316
f 304 325 327
f 304 332 325
f 305 335 312
f 305 319 341
f 305 341 335
f 306 314 337
f 306 337 329
f 307 310 340
f 307 340 322
f 308 318 330
f 308 330 319
f 309 323 336
f 309 385 323
f 309 336 328
f 310 331 340
f 311 339 314
f 311 327 339
f 312 335 323
f 313 317 343
f 313 343 331
f 314 339 337
f 315 324 334
f 315 334 332
f 316 338 324
f 316 328 338
f 317 321 342
f 317 342 343
f 318 322 333
f 318 333 330
f 319 330 386
f 319 386 341
f 320 344 321
f 320 326 344
f 321 344 342
f 322 346 333
f 322 340 346
f 323 335 353
f 323 353 336
f 324 347 334
f 324 338 347
f 325 345 327
f 325 332 351
f 325 351 345
f 326 329 348
f 326 348 344
f 327 355 339
f 327 345 355
f 328 336 349
f 328 349 338
f 329 337 357
f 329 357 348
f 330 333 359
f 330 359 386
f 331 354 340
f 331 343 354
f 332 334 352
f 332 352 351
f 333 346 359
f 334 347 352
f 335 341 350
f 335 350 353
f 336 353 349
f 337 339 356
f 337 356 357
f 338 349 347
f 339 355 356
f 340 362 346
f 340 354 362
f 341 360 350
f 341 386 360
f 342 358 343
f 342 344 358
f 343 358 354
f 344 348 358
f 345 351 361
f 345 361 355
f 346 362 359
f 347 349 367
f 347 367 352
f 348 357 370
f 348 370 358
f 349 353 365
f 349 365 367
f 350 366 353
f 350 360 366
f 351 352 364
f 351 364 361
f 352 367 364
f 353 366 365
f 354 358 368
f 354 368 362
f 355 363 356
f 355 361 372
f 355 372 363
f 356 371 357
f 356 363 371
f 357 371 370
f 358 379 368
f 358 370 379
f 359 362 369
f 359 369 386
f 360 375 366
f 360 386 375
f 361 364 372
f 362 368 376
f 362 376 369
f 363 377 371
f 363 372 377
f 364 367 373
f 364 373 372
f 365 366 374
f 365 374 367
f 366 378 374
f 366 375 378
f 367 374 373
f 368 379 376
f 369 380 375
f 369 375 386
f 369 376 380
f 370 371 379
f 371 377 379
f 372 373 382
f 372 382 377
f 373 374 381
f 373 381 382
f 374 378 381
f 375 380 378
f 376 379 383
f 376 383 380
f 377 382 379
f 378 380 381
f 379 382 383
f 380 383 381
f 381 383 382
