# Blender 4.4.3
# www.blender.org
o Cube.001
v -0.225000 0.075000 -0.045000
v -0.225000 0.075000 0.045000
v 0.225000 0.075000 -0.045000
v 0.225000 0.075000 0.045000
v -0.225000 -0.075000 -0.045000
v -0.225000 -0.075000 0.045000
v 0.225000 -0.075000 -0.045000
v 0.225000 -0.075000 0.045000
v 0.168750 0.075000 -0.045000
v 0.112500 0.075000 -0.045000
v 0.056250 0.075000 -0.045000
v 0.000000 0.075000 -0.045000
v -0.056250 0.075000 -0.045000
v -0.112500 0.075000 -0.045000
v -0.168750 0.075000 -0.045000
v -0.225000 0.075000 -0.033750
v -0.225000 0.075000 -0.022500
v -0.225000 0.075000 -0.011250
v -0.225000 0.075000 0.000000
v -0.225000 0.075000 0.011250
v -0.225000 0.075000 0.022500
v -0.225000 0.075000 0.033750
v -0.168750 0.075000 0.045000
v -0.112500 0.075000 0.045000
v -0.056250 0.075000 0.045000
v 0.000000 0.075000 0.045000
v 0.056250 0.075000 0.045000
v 0.112500 0.075000 0.045000
v 0.168750 0.075000 0.045000
v 0.225000 0.075000 0.033750
v 0.225000 0.075000 0.022500
v 0.225000 0.075000 0.011250
v 0.225000 0.075000 0.000000
v 0.225000 0.075000 -0.011250
v 0.225000 0.075000 -0.022500
v 0.225000 0.075000 -0.033750
v 0.225000 -0.056250 -0.045000
v 0.225000 -0.037500 -0.045000
v 0.225000 -0.018750 -0.045000
v 0.225000 0.000000 -0.045000
v 0.225000 0.018750 -0.045000
v 0.225000 0.037500 -0.045000
v 0.225000 0.056250 -0.045000
v 0.225000 0.056250 0.045000
v 0.225000 0.037500 0.045000
v 0.225000 0.018750 0.045000
v 0.225000 0.000000 0.045000
v 0.225000 -0.018750 0.045000
v 0.225000 -0.037500 0.045000
v 0.225000 -0.056250 0.045000
v 0.225000 -0.075000 0.033750
v 0.225000 -0.075000 0.022500
v 0.225000 -0.075000 0.011250
v 0.225000 -0.075000 0.000000
v 0.225000 -0.075000 -0.011250
v 0.225000 -0.075000 -0.022500
v 0.225000 -0.075000 -0.033750
v -0.168750 -0.075000 -0.045000
v -0.112500 -0.075000 -0.045000
v -0.056250 -0.075000 -0.045000
v 0.000000 -0.075000 -0.045000
v 0.056250 -0.075000 -0.045000
v 0.112500 -0.075000 -0.045000
v 0.168750 -0.075000 -0.045000
v 0.168750 -0.075000 0.045000
v 0.112500 -0.075000 0.045000
v 0.056250 -0.075000 0.045000
v 0.000000 -0.075000 0.045000
v -0.056250 -0.075000 0.045000
v -0.112500 -0.075000 0.045000
v -0.168750 -0.075000 0.045000
v -0.225000 -0.075000 0.033750
v -0.225000 -0.075000 0.022500
v -0.225000 -0.075000 0.011250
v -0.225000 -0.075000 0.000000
v -0.225000 -0.075000 -0.011250
v -0.225000 -0.075000 -0.022500
v -0.225000 -0.075000 -0.033750
v -0.225000 0.056250 -0.045000
v -0.225000 0.037500 -0.045000
v -0.225000 0.018750 -0.045000
v -0.225000 0.000000 -0.045000
v -0.225000 -0.018750 -0.045000
v -0.225000 -0.037500 -0.045000
v -0.225000 -0.056250 -0.045000
v -0.225000 -0.056250 0.045000
v -0.225000 -0.037500 0.045000
v -0.225000 -0.018750 0.045000
v -0.225000 0.000000 0.045000
v -0.225000 0.018750 0.045000
v -0.225000 0.037500 0.045000
v -0.225000 0.056250 0.045000
v -0.168750 0.075000 -0.033750
v -0.168750 0.075000 -0.022500
v -0.168750 0.075000 -0.011250
v -0.168750 0.075000 0.000000
v -0.168750 0.075000 0.011250
v -0.168750 0.075000 0.022500
v -0.168750 0.075000 0.033750
v -0.112500 0.075000 -0.033750
v -0.112500 0.075000 -0.022500
v -0.112500 0.075000 -0.011250
v -0.112500 0.075000 0.000000
v -0.112500 0.075000 0.011250
v -0.112500 0.075000 0.022500
v -0.112500 0.075000 0.033750
v -0.056250 0.075000 -0.033750
v -0.056250 0.075000 -0.022500
v -0.056250 0.075000 -0.011250
v -0.056250 0.075000 0.000000
v -0.056250 0.075000 0.011250
v -0.056250 0.075000 0.022500
v -0.056250 0.075000 0.033750
v -0.000000 0.075000 -0.033750
v -0.000000 0.075000 -0.022500
v 0.000000 0.075000 -0.011250
v -0.000000 0.075000 0.000000
v -0.000000 0.075000 0.011250
v -0.000000 0.075000 0.022500
v -0.000000 0.075000 0.033750
v 0.056250 0.075000 -0.033750
v 0.056250 0.075000 -0.022500
v 0.056250 0.075000 -0.011250
v 0.056250 0.075000 0.000000
v 0.056250 0.075000 0.011250
v 0.056250 0.075000 0.022500
v 0.056250 0.075000 0.033750
v 0.112500 0.075000 -0.033750
v 0.112500 0.075000 -0.022500
v 0.112500 0.075000 -0.011250
v 0.112500 0.075000 0.000000
v 0.112500 0.075000 0.011250
v 0.112500 0.075000 0.022500
v 0.112500 0.075000 0.033750
v 0.168750 0.075000 -0.033750
v 0.168750 0.075000 -0.022500
v 0.168750 0.075000 -0.011250
v 0.168750 0.075000 0.000000
v 0.168750 0.075000 0.011250
v 0.168750 0.075000 0.022500
v 0.168750 0.075000 0.033750
v 0.225000 0.056250 -0.033750
v 0.225000 0.056250 -0.022500
v 0.225000 0.056250 -0.011250
v 0.225000 0.056250 0.000000
v 0.225000 0.056250 0.011250
v 0.225000 0.056250 0.022500
v 0.225000 0.056250 0.033750
v 0.225000 0.037500 -0.033750
v 0.225000 0.037500 -0.022500
v 0.225000 0.037500 -0.011250
v 0.225000 0.037500 0.000000
v 0.225000 0.037500 0.011250
v 0.225000 0.037500 0.022500
v 0.225000 0.037500 0.033750
v 0.225000 0.018750 -0.033750
v 0.225000 0.018750 -0.022500
v 0.225000 0.018750 -0.011250
v 0.225000 0.018750 0.000000
v 0.225000 0.018750 0.011250
v 0.225000 0.018750 0.022500
v 0.225000 0.018750 0.033750
v 0.225000 0.000000 -0.033750
v 0.225000 0.000000 -0.022500
v 0.225000 0.000000 -0.011250
v 0.225000 -0.000000 0.000000
v 0.225000 0.000000 0.011250
v 0.225000 0.000000 0.022500
v 0.225000 0.000000 0.033750
v 0.225000 -0.018750 -0.033750
v 0.225000 -0.018750 -0.022500
v 0.225000 -0.018750 -0.011250
v 0.225000 -0.018750 0.000000
v 0.225000 -0.018750 0.011250
v 0.225000 -0.018750 0.022500
v 0.225000 -0.018750 0.033750
v 0.225000 -0.037500 -0.033750
v 0.225000 -0.037500 -0.022500
v 0.225000 -0.037500 -0.011250
v 0.225000 -0.037500 0.000000
v 0.225000 -0.037500 0.011250
v 0.225000 -0.037500 0.022500
v 0.225000 -0.037500 0.033750
v 0.225000 -0.056250 -0.033750
v 0.225000 -0.056250 -0.022500
v 0.225000 -0.056250 -0.011250
v 0.225000 -0.056250 0.000000
v 0.225000 -0.056250 0.011250
v 0.225000 -0.056250 0.022500
v 0.225000 -0.056250 0.033750
v 0.168750 -0.075000 -0.033750
v 0.168750 -0.075000 -0.022500
v 0.168750 -0.075000 -0.011250
v 0.168750 -0.075000 0.000000
v 0.168750 -0.075000 0.011250
v 0.168750 -0.075000 0.022500
v 0.168750 -0.075000 0.033750
v 0.112500 -0.075000 -0.033750
v 0.112500 -0.075000 -0.022500
v 0.112500 -0.075000 -0.011250
v 0.112500 -0.075000 0.000000
v 0.112500 -0.075000 0.011250
v 0.112500 -0.075000 0.022500
v 0.112500 -0.075000 0.033750
v 0.056250 -0.075000 -0.033750
v 0.056250 -0.075000 -0.022500
v 0.056250 -0.075000 -0.011250
v 0.056250 -0.075000 0.000000
v 0.056250 -0.075000 0.011250
v 0.056250 -0.075000 0.022500
v 0.056250 -0.075000 0.033750
v 0.000000 -0.075000 -0.033750
v 0.000000 -0.075000 -0.022500
v 0.000000 -0.075000 -0.011250
v -0.000000 -0.075000 0.000000
v 0.000000 -0.075000 0.011250
v 0.000000 -0.075000 0.022500
v 0.000000 -0.075000 0.033750
v -0.056250 -0.075000 -0.033750
v -0.056250 -0.075000 -0.022500
v -0.056250 -0.075000 -0.011250
v -0.056250 -0.075000 0.000000
v -0.056250 -0.075000 0.011250
v -0.056250 -0.075000 0.022500
v -0.056250 -0.075000 0.033750
v -0.112500 -0.075000 -0.033750
v -0.112500 -0.075000 -0.022500
v -0.112500 -0.075000 -0.011250
v -0.112500 -0.075000 0.000000
v -0.112500 -0.075000 0.011250
v -0.112500 -0.075000 0.022500
v -0.112500 -0.075000 0.033750
v -0.168750 -0.075000 -0.033750
v -0.168750 -0.075000 -0.022500
v -0.168750 -0.075000 -0.011250
v -0.168750 -0.075000 0.000000
v -0.168750 -0.075000 0.011250
v -0.168750 -0.075000 0.022500
v -0.168750 -0.075000 0.033750
v -0.225000 -0.056250 -0.033750
v -0.225000 -0.056250 -0.022500
v -0.225000 -0.056250 -0.011250
v -0.225000 -0.056250 0.000000
v -0.225000 -0.056250 0.011250
v -0.225000 -0.056250 0.022500
v -0.225000 -0.056250 0.033750
v -0.225000 -0.037500 -0.033750
v -0.225000 -0.037500 -0.022500
v -0.225000 -0.037500 -0.011250
v -0.225000 -0.037500 0.000000
v -0.225000 -0.037500 0.011250
v -0.225000 -0.037500 0.022500
v -0.225000 -0.037500 0.033750
v -0.225000 -0.018750 -0.033750
v -0.225000 -0.018750 -0.022500
v -0.225000 -0.018750 -0.011250
v -0.225000 -0.018750 0.000000
v -0.225000 -0.018750 0.011250
v -0.225000 -0.018750 0.022500
v -0.225000 -0.018750 0.033750
v -0.225000 -0.000000 -0.033750
v -0.225000 -0.000000 -0.022500
v -0.225000 -0.000000 -0.011250
v -0.225000 0.000000 0.000000
v -0.225000 -0.000000 0.011250
v -0.225000 0.000000 0.022500
v -0.225000 0.000000 0.033750
v -0.225000 0.018750 -0.033750
v -0.225000 0.018750 -0.022500
v -0.225000 0.018750 -0.011250
v -0.225000 0.018750 0.000000
v -0.225000 0.018750 0.011250
v -0.225000 0.018750 0.022500
v -0.225000 0.018750 0.033750
v -0.225000 0.037500 -0.033750
v -0.225000 0.037500 -0.022500
v -0.225000 0.037500 -0.011250
v -0.225000 0.037500 0.000000
v -0.225000 0.037500 0.011250
v -0.225000 0.037500 0.022500
v -0.225000 0.037500 0.033750
v -0.225000 0.056250 -0.033750
v -0.225000 0.056250 -0.022500
v -0.225000 0.056250 -0.011250
v -0.225000 0.056250 0.000000
v -0.225000 0.056250 0.011250
v -0.225000 0.056250 0.022500
v -0.225000 0.056250 0.033750
v 0.168750 0.056250 -0.045000
v 0.168750 0.037500 -0.045000
v 0.168750 0.018750 -0.045000
v 0.168750 0.000000 -0.045000
v 0.168750 -0.018750 -0.045000
v 0.168750 -0.037500 -0.045000
v 0.168750 -0.056250 -0.045000
v 0.112500 0.056250 -0.045000
v 0.112500 0.037500 -0.045000
v 0.112500 0.018750 -0.045000
v 0.112500 0.000000 -0.045000
v 0.112500 -0.018750 -0.045000
v 0.112500 -0.037500 -0.045000
v 0.112500 -0.056250 -0.045000
v 0.056250 0.056250 -0.045000
v 0.056250 0.037500 -0.045000
v 0.056250 0.018750 -0.045000
v 0.056250 0.000000 -0.045000
v 0.056250 -0.018750 -0.045000
v 0.056250 -0.037500 -0.045000
v 0.056250 -0.056250 -0.045000
v 0.000000 0.056250 -0.045000
v 0.000000 0.037500 -0.045000
v 0.000000 0.018750 -0.045000
v -0.000000 0.000000 -0.045000
v 0.000000 -0.018750 -0.045000
v 0.000000 -0.037500 -0.045000
v 0.000000 -0.056250 -0.045000
v -0.056250 0.056250 -0.045000
v -0.056250 0.037500 -0.045000
v -0.056250 0.018750 -0.045000
v -0.056250 0.000000 -0.045000
v -0.056250 -0.018750 -0.045000
v -0.056250 -0.037500 -0.045000
v -0.056250 -0.056250 -0.045000
v -0.112500 0.056250 -0.045000
v -0.112500 0.037500 -0.045000
v -0.112500 0.018750 -0.045000
v -0.112500 0.000000 -0.045000
v -0.112500 -0.018750 -0.045000
v -0.112500 -0.037500 -0.045000
v -0.112500 -0.056250 -0.045000
v -0.168750 0.056250 -0.045000
v -0.168750 0.037500 -0.045000
v -0.168750 0.018750 -0.045000
v -0.168750 0.000000 -0.045000
v -0.168750 -0.018750 -0.045000
v -0.168750 -0.037500 -0.045000
v -0.168750 -0.056250 -0.045000
v 0.168750 -0.056250 0.045000
v 0.168750 -0.037500 0.045000
v 0.168750 -0.018750 0.045000
v 0.168750 0.000000 0.045000
v 0.168750 0.018750 0.045000
v 0.168750 0.037500 0.045000
v 0.168750 0.056250 0.045000
v 0.112500 -0.056250 0.045000
v 0.112500 -0.037500 0.045000
v 0.112500 -0.018750 0.045000
v 0.112500 0.000000 0.045000
v 0.112500 0.018750 0.045000
v 0.112500 0.037500 0.045000
v 0.112500 0.056250 0.045000
v 0.056250 -0.056250 0.045000
v 0.056250 -0.037500 0.045000
v 0.056250 -0.018750 0.045000
v 0.056250 0.000000 0.045000
v 0.056250 0.018750 0.045000
v 0.056250 0.037500 0.045000
v 0.056250 0.056250 0.045000
v 0.000000 -0.056250 0.045000
v 0.000000 -0.037500 0.045000
v 0.000000 -0.018750 0.045000
v -0.000000 0.000000 0.045000
v 0.000000 0.018750 0.045000
v 0.000000 0.037500 0.045000
v 0.000000 0.056250 0.045000
v -0.056250 -0.056250 0.045000
v -0.056250 -0.037500 0.045000
v -0.056250 -0.018750 0.045000
v -0.056250 0.000000 0.045000
v -0.056250 0.018750 0.045000
v -0.056250 0.037500 0.045000
v -0.056250 0.056250 0.045000
v -0.112500 -0.056250 0.045000
v -0.112500 -0.037500 0.045000
v -0.112500 -0.018750 0.045000
v -0.112500 0.000000 0.045000
v -0.112500 0.018750 0.045000
v -0.112500 0.037500 0.045000
v -0.112500 0.056250 0.045000
v -0.168750 -0.056250 0.045000
v -0.168750 -0.037500 0.045000
v -0.168750 -0.018750 0.045000
v -0.168750 0.000000 0.045000
v -0.168750 0.018750 0.045000
v -0.168750 0.037500 0.045000
v -0.168750 0.056250 0.045000
s 0
f 94 100 93
f 94 102 101
f 96 102 95
f 97 103 96
f 98 104 97
f 98 106 105
f 100 108 107
f 102 108 101
f 103 109 102
f 103 111 110
f 105 111 104
f 106 112 105
f 107 115 114
f 109 115 108
f 110 116 109
f 110 118 117
f 111 119 118
f 113 119 112
f 115 121 114
f 115 123 122
f 117 123 116
f 118 124 117
f 119 125 118
f 119 127 126
f 122 128 121
f 122 130 129
f 124 130 123
f 125 131 124
f 126 132 125
f 126 134 133
f 128 136 135
f 130 136 129
f 131 137 130
f 132 138 131
f 133 139 132
f 134 140 133
f 16 15 1
f 17 93 16
f 17 95 94
f 19 95 18
f 20 96 19
f 21 97 20
f 21 99 98
f 22 23 99
f 23 106 99
f 24 113 106
f 25 120 113
f 26 127 120
f 127 28 134
f 28 141 134
f 29 30 141
f 141 31 140
f 140 32 139
f 138 32 33
f 137 33 34
f 137 35 136
f 136 36 135
f 9 36 3
f 128 9 10
f 121 10 11
f 114 11 12
f 13 114 12
f 100 13 14
f 93 14 15
f 143 149 142
f 144 150 143
f 144 152 151
f 146 152 145
f 146 154 153
f 148 154 147
f 150 156 149
f 150 158 157
f 151 159 158
f 153 159 152
f 154 160 153
f 155 161 154
f 156 164 163
f 158 164 157
f 159 165 158
f 160 166 159
f 160 168 167
f 162 168 161
f 164 170 163
f 165 171 164
f 166 172 165
f 167 173 166
f 167 175 174
f 168 176 175
f 171 177 170
f 172 178 171
f 173 179 172
f 174 180 173
f 175 181 174
f 176 182 175
f 178 184 177
f 179 185 178
f 180 186 179
f 180 188 187
f 182 188 181
f 183 189 182
f 36 43 3
f 36 143 142
f 35 144 143
f 34 145 144
f 32 145 33
f 31 146 32
f 30 147 31
f 30 44 148
f 148 45 155
f 155 46 162
f 46 169 162
f 169 48 176
f 48 183 176
f 183 50 190
f 50 51 190
f 189 51 52
f 189 53 188
f 187 53 54
f 187 55 186
f 185 55 56
f 185 57 184
f 37 57 7
f 38 184 37
f 170 38 39
f 163 39 40
f 41 163 40
f 149 41 42
f 142 42 43
f 192 198 191
f 193 199 192
f 193 201 200
f 195 201 194
f 195 203 202
f 197 203 196
f 199 205 198
f 199 207 206
f 200 208 207
f 202 208 201
f 203 209 202
f 204 210 203
f 205 213 212
f 207 213 206
f 208 214 207
f 209 215 208
f 209 217 216
f 211 217 210
f 213 219 212
f 214 220 213
f 215 221 214
f 216 222 215
f 216 224 223
f 217 225 224
f 220 226 219
f 221 227 220
f 222 228 221
f 223 229 222
f 224 230 223
f 225 231 224
f 227 233 226
f 228 234 227
f 229 235 228
f 229 237 236
f 231 237 230
f 232 238 231
f 57 64 7
f 56 191 57
f 55 192 56
f 55 194 193
f 53 194 54
f 52 195 53
f 52 197 196
f 51 65 197
f 197 66 204
f 204 67 211
f 67 218 211
f 218 69 225
f 69 232 225
f 232 71 239
f 71 72 239
f 238 72 73
f 238 74 237
f 236 74 75
f 236 76 235
f 234 76 77
f 234 78 233
f 58 78 5
f 59 233 58
f 219 59 60
f 212 60 61
f 62 212 61
f 198 62 63
f 191 63 64
f 241 247 240
f 242 248 241
f 242 250 249
f 244 250 243
f 244 252 251
f 246 252 245
f 248 254 247
f 248 256 255
f 249 257 256
f 251 257 250
f 252 258 251
f 253 259 252
f 254 262 261
f 256 262 255
f 257 263 256
f 258 264 257
f 258 266 265
f 260 266 259
f 262 268 261
f 263 269 262
f 264 270 263
f 265 271 264
f 265 273 272
f 266 274 273
f 269 275 268
f 270 276 269
f 271 277 270
f 272 278 271
f 273 279 272
f 274 280 273
f 276 282 275
f 277 283 276
f 278 284 277
f 278 286 285
f 280 286 279
f 281 287 280
f 78 85 5
f 77 240 78
f 76 241 77
f 76 243 242
f 74 243 75
f 73 244 74
f 73 246 245
f 72 86 246
f 246 87 253
f 253 88 260
f 88 267 260
f 267 90 274
f 90 281 274
f 281 92 288
f 92 22 288
f 288 21 287
f 286 21 20
f 285 20 19
f 285 18 284
f 284 17 283
f 282 17 16
f 79 16 1
f 80 282 79
f 268 80 81
f 261 81 82
f 83 261 82
f 247 83 84
f 240 84 85
f 290 296 289
f 291 297 290
f 291 299 298
f 293 299 292
f 293 301 300
f 295 301 294
f 297 303 296
f 297 305 304
f 298 306 305
f 300 306 299
f 301 307 300
f 302 308 301
f 303 311 310
f 305 311 304
f 306 312 305
f 307 313 306
f 307 315 314
f 309 315 308
f 311 317 310
f 312 318 311
f 313 319 312
f 314 320 313
f 314 322 321
f 315 323 322
f 318 324 317
f 319 325 318
f 320 326 319
f 321 327 320
f 322 328 321
f 323 329 322
f 325 331 324
f 326 332 325
f 327 333 326
f 327 335 334
f 329 335 328
f 330 336 329
f 43 9 3
f 42 289 43
f 41 290 42
f 41 292 291
f 39 292 40
f 38 293 39
f 38 295 294
f 37 64 295
f 295 63 302
f 302 62 309
f 62 316 309
f 316 60 323
f 60 330 323
f 59 337 330
f 58 85 337
f 336 85 84
f 336 83 335
f 334 83 82
f 334 81 333
f 333 80 332
f 331 80 79
f 15 79 1
f 324 15 14
f 13 324 14
f 310 13 12
f 11 310 12
f 10 303 11
f 9 296 10
f 339 345 338
f 340 346 339
f 340 348 347
f 342 348 341
f 342 350 349
f 344 350 343
f 346 352 345
f 346 354 353
f 347 355 354
f 349 355 348
f 350 356 349
f 351 357 350
f 352 360 359
f 354 360 353
f 355 361 354
f 356 362 355
f 356 364 363
f 358 364 357
f 360 366 359
f 361 367 360
f 362 368 361
f 363 369 362
f 363 371 370
f 364 372 371
f 367 373 366
f 368 374 367
f 369 375 368
f 370 376 369
f 371 377 370
f 372 378 371
f 374 380 373
f 375 381 374
f 376 382 375
f 376 384 383
f 378 384 377
f 379 385 378
f 50 65 8
f 49 338 50
f 48 339 49
f 48 341 340
f 46 341 47
f 45 342 46
f 45 344 343
f 44 29 344
f 29 351 344
f 351 27 358
f 27 365 358
f 365 25 372
f 25 379 372
f 24 386 379
f 23 92 386
f 385 92 91
f 385 90 384
f 383 90 89
f 383 88 382
f 382 87 381
f 380 87 86
f 71 86 6
f 373 71 70
f 69 373 70
f 359 69 68
f 67 359 68
f 345 67 66
f 338 66 65
f 94 101 100
f 94 95 102
f 96 103 102
f 97 104 103
f 98 105 104
f 98 99 106
f 100 101 108
f 102 109 108
f 103 110 109
f 103 104 111
f 105 112 111
f 106 113 112
f 107 108 115
f 109 116 115
f 110 117 116
f 110 111 118
f 111 112 119
f 113 120 119
f 115 122 121
f 115 116 123
f 117 124 123
f 118 125 124
f 119 126 125
f 119 120 127
f 122 129 128
f 122 123 130
f 124 131 130
f 125 132 131
f 126 133 132
f 126 127 134
f 128 129 136
f 130 137 136
f 131 138 137
f 132 139 138
f 133 140 139
f 134 141 140
f 16 93 15
f 17 94 93
f 17 18 95
f 19 96 95
f 20 97 96
f 21 98 97
f 21 22 99
f 22 2 23
f 23 24 106
f 24 25 113
f 25 26 120
f 26 27 127
f 127 27 28
f 28 29 141
f 29 4 30
f 141 30 31
f 140 31 32
f 138 139 32
f 137 138 33
f 137 34 35
f 136 35 36
f 9 135 36
f 128 135 9
f 121 128 10
f 114 121 11
f 13 107 114
f 100 107 13
f 93 100 14
f 143 150 149
f 144 151 150
f 144 145 152
f 146 153 152
f 146 147 154
f 148 155 154
f 150 157 156
f 150 151 158
f 151 152 159
f 153 160 159
f 154 161 160
f 155 162 161
f 156 157 164
f 158 165 164
f 159 166 165
f 160 167 166
f 160 161 168
f 162 169 168
f 164 171 170
f 165 172 171
f 166 173 172
f 167 174 173
f 167 168 175
f 168 169 176
f 171 178 177
f 172 179 178
f 173 180 179
f 174 181 180
f 175 182 181
f 176 183 182
f 178 185 184
f 179 186 185
f 180 187 186
f 180 181 188
f 182 189 188
f 183 190 189
f 36 142 43
f 36 35 143
f 35 34 144
f 34 33 145
f 32 146 145
f 31 147 146
f 30 148 147
f 30 4 44
f 148 44 45
f 155 45 46
f 46 47 169
f 169 47 48
f 48 49 183
f 183 49 50
f 50 8 51
f 189 190 51
f 189 52 53
f 187 188 53
f 187 54 55
f 185 186 55
f 185 56 57
f 37 184 57
f 38 177 184
f 170 177 38
f 163 170 39
f 41 156 163
f 149 156 41
f 142 149 42
f 192 199 198
f 193 200 199
f 193 194 201
f 195 202 201
f 195 196 203
f 197 204 203
f 199 206 205
f 199 200 207
f 200 201 208
f 202 209 208
f 203 210 209
f 204 211 210
f 205 206 213
f 207 214 213
f 208 215 214
f 209 216 215
f 209 210 217
f 211 218 217
f 213 220 219
f 214 221 220
f 215 222 221
f 216 223 222
f 216 217 224
f 217 218 225
f 220 227 226
f 221 228 227
f 222 229 228
f 223 230 229
f 224 231 230
f 225 232 231
f 227 234 233
f 228 235 234
f 229 236 235
f 229 230 237
f 231 238 237
f 232 239 238
f 57 191 64
f 56 192 191
f 55 193 192
f 55 54 194
f 53 195 194
f 52 196 195
f 52 51 197
f 51 8 65
f 197 65 66
f 204 66 67
f 67 68 218
f 218 68 69
f 69 70 232
f 232 70 71
f 71 6 72
f 238 239 72
f 238 73 74
f 236 237 74
f 236 75 76
f 234 235 76
f 234 77 78
f 58 233 78
f 59 226 233
f 219 226 59
f 212 219 60
f 62 205 212
f 198 205 62
f 191 198 63
f 241 248 247
f 242 249 248
f 242 243 250
f 244 251 250
f 244 245 252
f 246 253 252
f 248 255 254
f 248 249 256
f 249 250 257
f 251 258 257
f 252 259 258
f 253 260 259
f 254 255 262
f 256 263 262
f 257 264 263
f 258 265 264
f 258 259 266
f 260 267 266
f 262 269 268
f 263 270 269
f 264 271 270
f 265 272 271
f 265 266 273
f 266 267 274
f 269 276 275
f 270 277 276
f 271 278 277
f 272 279 278
f 273 280 279
f 274 281 280
f 276 283 282
f 277 284 283
f 278 285 284
f 278 279 286
f 280 287 286
f 281 288 287
f 78 240 85
f 77 241 240
f 76 242 241
f 76 75 243
f 74 244 243
f 73 245 244
f 73 72 246
f 72 6 86
f 246 86 87
f 253 87 88
f 88 89 267
f 267 89 90
f 90 91 281
f 281 91 92
f 92 2 22
f 288 22 21
f 286 287 21
f 285 286 20
f 285 19 18
f 284 18 17
f 282 283 17
f 79 282 16
f 80 275 282
f 268 275 80
f 261 268 81
f 83 254 261
f 247 254 83
f 240 247 84
f 290 297 296
f 291 298 297
f 291 292 299
f 293 300 299
f 293 294 301
f 295 302 301
f 297 304 303
f 297 298 305
f 298 299 306
f 300 307 306
f 301 308 307
f 302 309 308
f 303 304 311
f 305 312 311
f 306 313 312
f 307 314 313
f 307 308 315
f 309 316 315
f 311 318 317
f 312 319 318
f 313 320 319
f 314 321 320
f 314 315 322
f 315 316 323
f 318 325 324
f 319 326 325
f 320 327 326
f 321 328 327
f 322 329 328
f 323 330 329
f 325 332 331
f 326 333 332
f 327 334 333
f 327 328 335
f 329 336 335
f 330 337 336
f 43 289 9
f 42 290 289
f 41 291 290
f 41 40 292
f 39 293 292
f 38 294 293
f 38 37 295
f 37 7 64
f 295 64 63
f 302 63 62
f 62 61 316
f 316 61 60
f 60 59 330
f 59 58 337
f 58 5 85
f 336 337 85
f 336 84 83
f 334 335 83
f 334 82 81
f 333 81 80
f 331 332 80
f 15 331 79
f 324 331 15
f 13 317 324
f 310 317 13
f 11 303 310
f 10 296 303
f 9 289 296
f 339 346 345
f 340 347 346
f 340 341 348
f 342 349 348
f 342 343 350
f 344 351 350
f 346 353 352
f 346 347 354
f 347 348 355
f 349 356 355
f 350 357 356
f 351 358 357
f 352 353 360
f 354 361 360
f 355 362 361
f 356 363 362
f 356 357 364
f 358 365 364
f 360 367 366
f 361 368 367
f 362 369 368
f 363 370 369
f 363 364 371
f 364 365 372
f 367 374 373
f 368 375 374
f 369 376 375
f 370 377 376
f 371 378 377
f 372 379 378
f 374 381 380
f 375 382 381
f 376 383 382
f 376 377 384
f 378 385 384
f 379 386 385
f 50 338 65
f 49 339 338
f 48 340 339
f 48 47 341
f 46 342 341
f 45 343 342
f 45 44 344
f 44 4 29
f 29 28 351
f 351 28 27
f 27 26 365
f 365 26 25
f 25 24 379
f 24 23 386
f 23 2 92
f 385 386 92
f 385 91 90
f 383 384 90
f 383 89 88
f 382 88 87
f 380 381 87
f 71 380 86
f 373 380 71
f 69 366 373
f 359 366 69
f 67 352 359
f 345 352 67
f 338 345 66
