# Blender 4.4.3
# www.blender.org
o brick_x-2-0
v -0.193531 -0.336704 0.997398
v -0.193786 -0.061726 1.128687
v -0.193962 -0.273116 0.864216
v -0.194217 0.001862 0.995505
v 0.038647 -0.336237 0.996871
v 0.038392 -0.061259 1.128160
v 0.038217 -0.272649 0.863689
v 0.037962 0.002329 0.994978
v -0.193935 -0.277090 0.872540
v -0.193908 -0.281064 0.880864
v -0.193881 -0.285039 0.889188
v -0.193854 -0.289013 0.897512
v -0.193827 -0.292987 0.905836
v -0.193800 -0.296961 0.914160
v -0.193773 -0.300936 0.922484
v -0.193747 -0.304910 0.930807
v -0.193720 -0.308884 0.939131
v -0.193693 -0.312858 0.947455
v -0.193666 -0.316833 0.955779
v -0.193639 -0.320807 0.964103
v -0.193612 -0.324781 0.972427
v -0.193585 -0.328755 0.980751
v -0.193558 -0.332730 0.989075
v -0.193547 -0.319518 1.005604
v -0.193563 -0.302332 1.013810
v -0.193579 -0.285146 1.022015
v -0.193595 -0.267959 1.030221
v -0.193611 -0.250773 1.038426
v -0.193627 -0.233587 1.046632
v -0.193643 -0.216401 1.054837
v -0.193659 -0.199215 1.063043
v -0.193675 -0.182029 1.071248
v -0.193691 -0.164843 1.079454
v -0.193707 -0.147657 1.087660
v -0.193722 -0.130471 1.095865
v -0.193738 -0.113285 1.104071
v -0.193754 -0.096098 1.112276
v -0.193770 -0.078912 1.120482
v -0.193813 -0.057752 1.120363
v -0.193840 -0.053778 1.112040
v -0.193867 -0.049803 1.103716
v -0.193894 -0.045829 1.095392
v -0.193921 -0.041855 1.087068
v -0.193948 -0.037881 1.078744
v -0.193975 -0.033907 1.070420
v -0.194001 -0.029932 1.062096
v -0.194028 -0.025958 1.053772
v -0.194055 -0.021984 1.045449
v -0.194082 -0.018010 1.037125
v -0.194109 -0.014035 1.028801
v -0.194136 -0.010061 1.020477
v -0.194163 -0.006087 1.012153
v -0.194190 -0.002113 1.003829
v -0.194201 -0.015325 0.987300
v -0.194185 -0.032511 0.979094
v -0.194169 -0.049697 0.970889
v -0.194153 -0.066883 0.962683
v -0.194137 -0.084069 0.954478
v -0.194121 -0.101255 0.946272
v -0.194105 -0.118441 0.938066
v -0.194089 -0.135627 0.929861
v -0.194073 -0.152813 0.921655
v -0.194057 -0.169999 0.913450
v -0.194041 -0.187186 0.905244
v -0.194026 -0.204372 0.897039
v -0.194010 -0.221558 0.888833
v -0.193994 -0.238744 0.880628
v -0.193978 -0.255930 0.872422
v 0.023706 -0.272678 0.863722
v 0.009194 -0.272707 0.863755
v -0.005317 -0.272737 0.863788
v -0.019828 -0.272766 0.863821
v -0.034339 -0.272795 0.863854
v -0.048850 -0.272824 0.863887
v -0.063361 -0.272853 0.863920
v -0.077873 -0.272882 0.863953
v -0.092384 -0.272912 0.863986
v -0.106895 -0.272941 0.864019
v -0.121406 -0.272970 0.864052
v -0.135917 -0.272999 0.864085
v -0.150428 -0.273028 0.864118
v -0.164939 -0.273058 0.864150
v -0.179451 -0.273087 0.864183
v -0.179706 0.001891 0.995472
v -0.165194 0.001920 0.995439
v -0.150683 0.001949 0.995406
v -0.136172 0.001978 0.995373
v -0.121661 0.002008 0.995341
v -0.107150 0.002037 0.995308
v -0.092639 0.002066 0.995275
v -0.078127 0.002095 0.995242
v -0.063616 0.002124 0.995209
v -0.049105 0.002153 0.995176
v -0.034594 0.002183 0.995143
v -0.020083 0.002212 0.995110
v -0.005572 0.002241 0.995077
v 0.008939 0.002270 0.995044
v 0.023451 0.002299 0.995011
v 0.037978 -0.014858 0.986772
v 0.037994 -0.032044 0.978567
v 0.038010 -0.049230 0.970361
v 0.038026 -0.066416 0.962156
v 0.038041 -0.083602 0.953950
v 0.038057 -0.100788 0.945745
v 0.038073 -0.117974 0.937539
v 0.038089 -0.135160 0.929333
v 0.038105 -0.152346 0.921128
v 0.038121 -0.169532 0.912922
v 0.038137 -0.186718 0.904717
v 0.038153 -0.203905 0.896511
v 0.038169 -0.221091 0.888306
v 0.038185 -0.238277 0.880100
v 0.038201 -0.255463 0.871894
v 0.038620 -0.332263 0.988547
v 0.038593 -0.328288 0.980223
v 0.038566 -0.324314 0.971899
v 0.038540 -0.320340 0.963575
v 0.038513 -0.316366 0.955252
v 0.038486 -0.312391 0.946928
v 0.038459 -0.308417 0.938604
v 0.038432 -0.304443 0.930280
v 0.038405 -0.300469 0.921956
v 0.038378 -0.296494 0.913632
v 0.038351 -0.292520 0.905308
v 0.038324 -0.288546 0.896984
v 0.038297 -0.284572 0.888661
v 0.038270 -0.280597 0.880337
v 0.038244 -0.276623 0.872013
v 0.037989 -0.001646 1.003302
v 0.038016 -0.005620 1.011626
v 0.038043 -0.009594 1.019950
v 0.038069 -0.013568 1.028273
v 0.038096 -0.017543 1.036597
v 0.038123 -0.021517 1.044921
v 0.038150 -0.025491 1.053245
v 0.038177 -0.029465 1.061569
v 0.038204 -0.033440 1.069893
v 0.038231 -0.037414 1.078217
v 0.038258 -0.041388 1.086541
v 0.038285 -0.045362 1.094864
v 0.038312 -0.049336 1.103188
v 0.038338 -0.053311 1.111512
v 0.038365 -0.057285 1.119836
v 0.038408 -0.078445 1.119954
v 0.038424 -0.095631 1.111749
v 0.038440 -0.112817 1.103543
v 0.038456 -0.130004 1.095338
v 0.038472 -0.147190 1.087132
v 0.038488 -0.164376 1.078927
v 0.038504 -0.181562 1.070721
v 0.038520 -0.198748 1.062515
v 0.038536 -0.215934 1.054310
v 0.038552 -0.233120 1.046104
v 0.038567 -0.250306 1.037899
v 0.038583 -0.267492 1.029693
v 0.038599 -0.284678 1.021488
v 0.038615 -0.301865 1.013282
v 0.038631 -0.319051 1.005077
v -0.179020 -0.336675 0.997365
v -0.164509 -0.336645 0.997333
v -0.149998 -0.336616 0.997299
v -0.135487 -0.336587 0.997267
v -0.120976 -0.336558 0.997234
v -0.106464 -0.336529 0.997201
v -0.091953 -0.336499 0.997168
v -0.077442 -0.336470 0.997135
v -0.062931 -0.336441 0.997102
v -0.048420 -0.336412 0.997069
v -0.033909 -0.336383 0.997036
v -0.019397 -0.336354 0.997003
v -0.004886 -0.336324 0.996970
v 0.009625 -0.336295 0.996937
v 0.024136 -0.336266 0.996904
v 0.023881 -0.061288 1.128193
v 0.009370 -0.061318 1.128226
v -0.005141 -0.061347 1.128259
v -0.019652 -0.061376 1.128292
v -0.034163 -0.061405 1.128325
v -0.048675 -0.061434 1.128358
v -0.063186 -0.061464 1.128391
v -0.077697 -0.061493 1.128424
v -0.092208 -0.061522 1.128457
v -0.106719 -0.061551 1.128490
v -0.121230 -0.061580 1.128523
v -0.135742 -0.061609 1.128556
v -0.150253 -0.061639 1.128588
v -0.164764 -0.061668 1.128621
v -0.179275 -0.061697 1.128654
v -0.193574 -0.315543 0.997280
v -0.193590 -0.298357 1.005486
v -0.193606 -0.281171 1.013691
v -0.193622 -0.263985 1.021897
v -0.193638 -0.246799 1.030102
v -0.193654 -0.229613 1.038308
v -0.193670 -0.212427 1.046513
v -0.193686 -0.195241 1.054719
v -0.193702 -0.178055 1.062925
v -0.193718 -0.160869 1.071130
v -0.193733 -0.143682 1.079336
v -0.193749 -0.126496 1.087541
v -0.193765 -0.109310 1.095747
v -0.193781 -0.092124 1.103952
v -0.193797 -0.074938 1.112158
v -0.193601 -0.311569 0.988956
v -0.193617 -0.294383 0.997162
v -0.193633 -0.277197 1.005367
v -0.193649 -0.260011 1.013573
v -0.193665 -0.242825 1.021778
v -0.193681 -0.225639 1.029984
v -0.193697 -0.208453 1.038190
v -0.193713 -0.191267 1.046395
v -0.193728 -0.174080 1.054601
v -0.193744 -0.156894 1.062806
v -0.193760 -0.139708 1.071012
v -0.193776 -0.122522 1.079217
v -0.193792 -0.105336 1.087423
v -0.193808 -0.088150 1.095628
v -0.193824 -0.070964 1.103834
v -0.193628 -0.307595 0.980632
v -0.193644 -0.290409 0.988838
v -0.193660 -0.273223 0.997043
v -0.193676 -0.256037 1.005249
v -0.193692 -0.238851 1.013455
v -0.193708 -0.221664 1.021660
v -0.193724 -0.204478 1.029866
v -0.193739 -0.187292 1.038071
v -0.193755 -0.170106 1.046277
v -0.193771 -0.152920 1.054482
v -0.193787 -0.135734 1.062688
v -0.193803 -0.118548 1.070894
v -0.193819 -0.101362 1.079099
v -0.193835 -0.084176 1.087305
v -0.193851 -0.066990 1.095510
v -0.193655 -0.303621 0.972308
v -0.193671 -0.286435 0.980514
v -0.193687 -0.269249 0.988720
v -0.193703 -0.252062 0.996925
v -0.193719 -0.234876 1.005131
v -0.193734 -0.217690 1.013336
v -0.193750 -0.200504 1.021542
v -0.193766 -0.183318 1.029747
v -0.193782 -0.166132 1.037953
v -0.193798 -0.148946 1.046159
v -0.193814 -0.131760 1.054364
v -0.193830 -0.114574 1.062570
v -0.193846 -0.097388 1.070775
v -0.193862 -0.080201 1.078981
v -0.193878 -0.063015 1.087186
v -0.193682 -0.299646 0.963985
v -0.193698 -0.282460 0.972190
v -0.193714 -0.265274 0.980396
v -0.193730 -0.248088 0.988601
v -0.193745 -0.230902 0.996807
v -0.193761 -0.213716 1.005012
v -0.193777 -0.196530 1.013218
v -0.193793 -0.179344 1.021424
v -0.193809 -0.162158 1.029629
v -0.193825 -0.144972 1.037835
v -0.193841 -0.127786 1.046040
v -0.193857 -0.110599 1.054246
v -0.193873 -0.093413 1.062451
v -0.193889 -0.076227 1.070657
v -0.193905 -0.059041 1.078862
v -0.193709 -0.295672 0.955661
v -0.193725 -0.278486 0.963866
v -0.193741 -0.261300 0.972072
v -0.193756 -0.244114 0.980277
v -0.193772 -0.226928 0.988483
v -0.193788 -0.209742 0.996689
v -0.193804 -0.192556 1.004894
v -0.193820 -0.175370 1.013100
v -0.193836 -0.158183 1.021305
v -0.193852 -0.140997 1.029511
v -0.193868 -0.123811 1.037716
v -0.193884 -0.106625 1.045922
v -0.193900 -0.089439 1.054127
v -0.193916 -0.072253 1.062333
v -0.193932 -0.055067 1.070539
v -0.193736 -0.291698 0.947337
v -0.193752 -0.274512 0.955542
v -0.193767 -0.257326 0.963748
v -0.193783 -0.240140 0.971954
v -0.193799 -0.222954 0.980159
v -0.193815 -0.205768 0.988365
v -0.193831 -0.188581 0.996570
v -0.193847 -0.171395 1.004776
v -0.193863 -0.154209 1.012981
v -0.193879 -0.137023 1.021187
v -0.193895 -0.119837 1.029392
v -0.193911 -0.102651 1.037598
v -0.193927 -0.085465 1.045804
v -0.193943 -0.068279 1.054009
v -0.193959 -0.051093 1.062215
v -0.193762 -0.287724 0.939013
v -0.193778 -0.270538 0.947219
v -0.193794 -0.253352 0.955424
v -0.193810 -0.236166 0.963630
v -0.193826 -0.218979 0.971835
v -0.193842 -0.201793 0.980041
v -0.193858 -0.184607 0.988246
v -0.193874 -0.167421 0.996452
v -0.193890 -0.150235 1.004658
v -0.193906 -0.133049 1.012863
v -0.193922 -0.115863 1.021069
v -0.193938 -0.098677 1.029274
v -0.193954 -0.081491 1.037480
v -0.193970 -0.064305 1.045685
v -0.193985 -0.047118 1.053891
v -0.193789 -0.283750 0.930689
v -0.193805 -0.266563 0.938895
v -0.193821 -0.249377 0.947100
v -0.193837 -0.232191 0.955306
v -0.193853 -0.215005 0.963511
v -0.193869 -0.197819 0.971717
v -0.193885 -0.180633 0.979922
v -0.193901 -0.163447 0.988128
v -0.193917 -0.146261 0.996334
v -0.193933 -0.129075 1.004539
v -0.193949 -0.111889 1.012745
v -0.193965 -0.094702 1.020950
v -0.193981 -0.077516 1.029156
v -0.193996 -0.060330 1.037361
v -0.194012 -0.043144 1.045567
v -0.193816 -0.279775 0.922365
v -0.193832 -0.262589 0.930571
v -0.193848 -0.245403 0.938776
v -0.193864 -0.228217 0.946982
v -0.193880 -0.211031 0.955187
v -0.193896 -0.193845 0.963393
v -0.193912 -0.176659 0.971599
v -0.193928 -0.159473 0.979804
v -0.193944 -0.142287 0.988010
v -0.193960 -0.125100 0.996215
v -0.193976 -0.107914 1.004421
v -0.193992 -0.090728 1.012626
v -0.194007 -0.073542 1.020832
v -0.194023 -0.056356 1.029037
v -0.194039 -0.039170 1.037243
v -0.193843 -0.275801 0.914041
v -0.193859 -0.258615 0.922247
v -0.193875 -0.241429 0.930452
v -0.193891 -0.224243 0.938658
v -0.193907 -0.207057 0.946864
v -0.193923 -0.189871 0.955069
v -0.193939 -0.172684 0.963275
v -0.193955 -0.155498 0.971480
v -0.193971 -0.138312 0.979686
v -0.193987 -0.121126 0.987891
v -0.194002 -0.103940 0.996097
v -0.194018 -0.086754 1.004303
v -0.194034 -0.069568 1.012508
v -0.194050 -0.052382 1.020714
v -0.194066 -0.035196 1.028919
v -0.193870 -0.271827 0.905717
v -0.193886 -0.254641 0.913923
v -0.193902 -0.237455 0.922129
v -0.193918 -0.220269 0.930334
v -0.193934 -0.203082 0.938540
v -0.193950 -0.185896 0.946745
v -0.193966 -0.168710 0.954951
v -0.193982 -0.151524 0.963156
v -0.193998 -0.134338 0.971362
v -0.194013 -0.117152 0.979568
v -0.194029 -0.099966 0.987773
v -0.194045 -0.082780 0.995979
v -0.194061 -0.065594 1.004184
v -0.194077 -0.048408 1.012390
v -0.194093 -0.031221 1.020595
v -0.193897 -0.267853 0.897394
v -0.193913 -0.250666 0.905599
v -0.193929 -0.233480 0.913805
v -0.193945 -0.216294 0.922010
v -0.193961 -0.199108 0.930216
v -0.193977 -0.181922 0.938421
v -0.193993 -0.164736 0.946627
v -0.194008 -0.147550 0.954832
v -0.194024 -0.130364 0.963038
v -0.194040 -0.113178 0.971244
v -0.194056 -0.095992 0.979449
v -0.194072 -0.078806 0.987655
v -0.194088 -0.061619 0.995860
v -0.194104 -0.044433 1.004066
v -0.194120 -0.027247 1.012271
v -0.193924 -0.263878 0.889070
v -0.193940 -0.246692 0.897275
v -0.193956 -0.229506 0.905481
v -0.193972 -0.212320 0.913686
v -0.193988 -0.195134 0.921892
v -0.194004 -0.177948 0.930098
v -0.194019 -0.160762 0.938303
v -0.194035 -0.143576 0.946509
v -0.194051 -0.126390 0.954714
v -0.194067 -0.109203 0.962920
v -0.194083 -0.092017 0.971125
v -0.194099 -0.074831 0.979331
v -0.194115 -0.057645 0.987536
v -0.194131 -0.040459 0.995742
v -0.194147 -0.023273 1.003947
v -0.193951 -0.259904 0.880746
v -0.193967 -0.242718 0.888951
v -0.193983 -0.225532 0.897157
v -0.193999 -0.208346 0.905363
v -0.194015 -0.191160 0.913568
v -0.194030 -0.173974 0.921774
v -0.194046 -0.156788 0.929979
v -0.194062 -0.139601 0.938185
v -0.194078 -0.122415 0.946390
v -0.194094 -0.105229 0.954596
v -0.194110 -0.088043 0.962801
v -0.194126 -0.070857 0.971007
v -0.194142 -0.053671 0.979213
v -0.194158 -0.036485 0.987418
v -0.194174 -0.019299 0.995624
v -0.179467 -0.255901 0.872389
v -0.179482 -0.238715 0.880595
v -0.179498 -0.221529 0.888800
v -0.179514 -0.204342 0.897006
v -0.179530 -0.187156 0.905211
v -0.179546 -0.169970 0.913417
v -0.179562 -0.152784 0.921622
v -0.179578 -0.135598 0.929828
v -0.179594 -0.118412 0.938033
v -0.179610 -0.101226 0.946239
v -0.179626 -0.084040 0.954445
v -0.179642 -0.066854 0.962650
v -0.179658 -0.049668 0.970856
v -0.179674 -0.032481 0.979061
v -0.179690 -0.015295 0.987267
v -0.164955 -0.255872 0.872356
v -0.164971 -0.238685 0.880562
v -0.164987 -0.221499 0.888767
v -0.165003 -0.204313 0.896973
v -0.165019 -0.187127 0.905178
v -0.165035 -0.169941 0.913384
v -0.165051 -0.152755 0.921589
v -0.165067 -0.135569 0.929795
v -0.165083 -0.118383 0.938001
v -0.165099 -0.101197 0.946206
v -0.165115 -0.084011 0.954412
v -0.165131 -0.066824 0.962617
v -0.165147 -0.049638 0.970823
v -0.165162 -0.032452 0.979028
v -0.165178 -0.015266 0.987234
v -0.150444 -0.255842 0.872323
v -0.150460 -0.238656 0.880529
v -0.150476 -0.221470 0.888734
v -0.150492 -0.204284 0.896940
v -0.150508 -0.187098 0.905145
v -0.150524 -0.169912 0.913351
v -0.150540 -0.152726 0.921556
v -0.150556 -0.135540 0.929762
v -0.150572 -0.118354 0.937968
v -0.150588 -0.101167 0.946173
v -0.150604 -0.083981 0.954379
v -0.150619 -0.066795 0.962584
v -0.150635 -0.049609 0.970790
v -0.150651 -0.032423 0.978995
v -0.150667 -0.015237 0.987201
v -0.135933 -0.255813 0.872290
v -0.135949 -0.238627 0.880496
v -0.135965 -0.221441 0.888701
v -0.135981 -0.204255 0.896907
v -0.135997 -0.187069 0.905112
v -0.136013 -0.169883 0.913318
v -0.136029 -0.152697 0.921523
v -0.136045 -0.135510 0.929729
v -0.136061 -0.118324 0.937935
v -0.136076 -0.101138 0.946140
v -0.136092 -0.083952 0.954346
v -0.136108 -0.066766 0.962551
v -0.136124 -0.049580 0.970757
v -0.136140 -0.032394 0.978962
v -0.136156 -0.015208 0.987168
v -0.121422 -0.255784 0.872257
v -0.121438 -0.238598 0.880463
v -0.121454 -0.221412 0.888668
v -0.121470 -0.204226 0.896874
v -0.121486 -0.187040 0.905079
v -0.121502 -0.169853 0.913285
v -0.121518 -0.152667 0.921490
v -0.121533 -0.135481 0.929696
v -0.121549 -0.118295 0.937902
v -0.121565 -0.101109 0.946107
v -0.121581 -0.083923 0.954313
v -0.121597 -0.066737 0.962518
v -0.121613 -0.049551 0.970724
v -0.121629 -0.032365 0.978929
v -0.121645 -0.015179 0.987135
v -0.106911 -0.255755 0.872224
v -0.106927 -0.238569 0.880430
v -0.106943 -0.221383 0.888635
v -0.106959 -0.204196 0.896841
v -0.106975 -0.187010 0.905046
v -0.106990 -0.169824 0.913252
v -0.107006 -0.152638 0.921458
v -0.107022 -0.135452 0.929663
v -0.107038 -0.118266 0.937869
v -0.107054 -0.101080 0.946074
v -0.107070 -0.083894 0.954280
v -0.107086 -0.066708 0.962485
v -0.107102 -0.049522 0.970691
v -0.107118 -0.032335 0.978896
v -0.107134 -0.015149 0.987102
v -0.092400 -0.255726 0.872191
v -0.092416 -0.238539 0.880397
v -0.092432 -0.221353 0.888602
v -0.092447 -0.204167 0.896808
v -0.092463 -0.186981 0.905013
v -0.092479 -0.169795 0.913219
v -0.092495 -0.152609 0.921425
v -0.092511 -0.135423 0.929630
v -0.092527 -0.118237 0.937836
v -0.092543 -0.101051 0.946041
v -0.092559 -0.083865 0.954247
v -0.092575 -0.066679 0.962452
v -0.092591 -0.049492 0.970658
v -0.092607 -0.032306 0.978863
v -0.092623 -0.015120 0.987069
v -0.077888 -0.255696 0.872158
v -0.077904 -0.238510 0.880364
v -0.077920 -0.221324 0.888569
v -0.077936 -0.204138 0.896775
v -0.077952 -0.186952 0.904980
v -0.077968 -0.169766 0.913186
v -0.077984 -0.152580 0.921392
v -0.078000 -0.135394 0.929597
v -0.078016 -0.118208 0.937803
v -0.078032 -0.101021 0.946008
v -0.078048 -0.083835 0.954214
v -0.078064 -0.066649 0.962419
v -0.078080 -0.049463 0.970625
v -0.078096 -0.032277 0.978831
v -0.078111 -0.015091 0.987036
v -0.063377 -0.255667 0.872125
v -0.063393 -0.238481 0.880331
v -0.063409 -0.221295 0.888536
v -0.063425 -0.204109 0.896742
v -0.063441 -0.186923 0.904948
v -0.063457 -0.169737 0.913153
v -0.063473 -0.152551 0.921359
v -0.063489 -0.135365 0.929564
v -0.063505 -0.118178 0.937770
v -0.063521 -0.100992 0.945975
v -0.063537 -0.083806 0.954181
v -0.063553 -0.066620 0.962386
v -0.063568 -0.049434 0.970592
v -0.063584 -0.032248 0.978798
v -0.063600 -0.015062 0.987003
v -0.048866 -0.255638 0.872092
v -0.048882 -0.238452 0.880298
v -0.048898 -0.221266 0.888503
v -0.048914 -0.204080 0.896709
v -0.048930 -0.186894 0.904915
v -0.048946 -0.169708 0.913120
v -0.048962 -0.152521 0.921326
v -0.048978 -0.135335 0.929531
v -0.048994 -0.118149 0.937737
v -0.049010 -0.100963 0.945942
v -0.049025 -0.083777 0.954148
v -0.049041 -0.066591 0.962353
v -0.049057 -0.049405 0.970559
v -0.049073 -0.032219 0.978765
v -0.049089 -0.015033 0.986970
v -0.034355 -0.255609 0.872059
v -0.034371 -0.238423 0.880265
v -0.034387 -0.221237 0.888470
v -0.034403 -0.204051 0.896676
v -0.034419 -0.186864 0.904882
v -0.034435 -0.169678 0.913087
v -0.034451 -0.152492 0.921293
v -0.034467 -0.135306 0.929498
v -0.034482 -0.118120 0.937704
v -0.034498 -0.100934 0.945909
v -0.034514 -0.083748 0.954115
v -0.034530 -0.066562 0.962321
v -0.034546 -0.049376 0.970526
v -0.034562 -0.032190 0.978732
v -0.034578 -0.015003 0.986937
v -0.019844 -0.255580 0.872026
v -0.019860 -0.238394 0.880232
v -0.019876 -0.221207 0.888438
v -0.019892 -0.204021 0.896643
v -0.019908 -0.186835 0.904849
v -0.019924 -0.169649 0.913054
v -0.019939 -0.152463 0.921260
v -0.019955 -0.135277 0.929465
v -0.019971 -0.118091 0.937671
v -0.019987 -0.100905 0.945876
v -0.020003 -0.083719 0.954082
v -0.020019 -0.066533 0.962288
v -0.020035 -0.049346 0.970493
v -0.020051 -0.032160 0.978699
v -0.020067 -0.014974 0.986904
v -0.005333 -0.255550 0.871993
v -0.005349 -0.238364 0.880199
v -0.005365 -0.221178 0.888405
v -0.005381 -0.203992 0.896610
v -0.005396 -0.186806 0.904816
v -0.005412 -0.169620 0.913021
v -0.005428 -0.152434 0.921227
v -0.005444 -0.135248 0.929432
v -0.005460 -0.118062 0.937638
v -0.005476 -0.100876 0.945843
v -0.005492 -0.083689 0.954049
v -0.005508 -0.066503 0.962255
v -0.005524 -0.049317 0.970460
v -0.005540 -0.032131 0.978666
v -0.005556 -0.014945 0.986871
v 0.009178 -0.255521 0.871960
v 0.009162 -0.238335 0.880166
v 0.009147 -0.221149 0.888372
v 0.009131 -0.203963 0.896577
v 0.009115 -0.186777 0.904783
v 0.009099 -0.169591 0.912988
v 0.009083 -0.152405 0.921194
v 0.009067 -0.135219 0.929399
v 0.009051 -0.118032 0.937605
v 0.009035 -0.100846 0.945810
v 0.009019 -0.083660 0.954016
v 0.009003 -0.066474 0.962222
v 0.008987 -0.049288 0.970427
v 0.008971 -0.032102 0.978633
v 0.008955 -0.014916 0.986838
v 0.023690 -0.255492 0.871927
v 0.023674 -0.238306 0.880133
v 0.023658 -0.221120 0.888339
v 0.023642 -0.203934 0.896544
v 0.023626 -0.186748 0.904750
v 0.023610 -0.169562 0.912955
v 0.023594 -0.152375 0.921161
v 0.023578 -0.135189 0.929366
v 0.023562 -0.118003 0.937572
v 0.023546 -0.100817 0.945778
v 0.023530 -0.083631 0.953983
v 0.023514 -0.066445 0.962189
v 0.023498 -0.049259 0.970394
v 0.023483 -0.032073 0.978600
v 0.023467 -0.014887 0.986805
v 0.038228 -0.259437 0.880218
v 0.038212 -0.242251 0.888424
v 0.038196 -0.225065 0.896630
v 0.038180 -0.207879 0.904835
v 0.038164 -0.190693 0.913041
v 0.038148 -0.173507 0.921246
v 0.038132 -0.156321 0.929452
v 0.038116 -0.139134 0.937657
v 0.038100 -0.121948 0.945863
v 0.038084 -0.104762 0.954068
v 0.038068 -0.087576 0.962274
v 0.038052 -0.070390 0.970480
v 0.038037 -0.053204 0.978685
v 0.038021 -0.036018 0.986891
v 0.038005 -0.018832 0.995096
v 0.038255 -0.263411 0.888542
v 0.038239 -0.246225 0.896748
v 0.038223 -0.229039 0.904953
v 0.038207 -0.211853 0.913159
v 0.038191 -0.194667 0.921364
v 0.038175 -0.177481 0.929570
v 0.038159 -0.160295 0.937776
v 0.038143 -0.143109 0.945981
v 0.038127 -0.125923 0.954187
v 0.038111 -0.108736 0.962392
v 0.038095 -0.091550 0.970598
v 0.038079 -0.074364 0.978803
v 0.038063 -0.057178 0.987009
v 0.038047 -0.039992 0.995215
v 0.038032 -0.022806 1.003420
v 0.038281 -0.267386 0.896866
v 0.038266 -0.250199 0.905072
v 0.038250 -0.233013 0.913277
v 0.038234 -0.215827 0.921483
v 0.038218 -0.198641 0.929688
v 0.038202 -0.181455 0.937894
v 0.038186 -0.164269 0.946100
v 0.038170 -0.147083 0.954305
v 0.038154 -0.129897 0.962511
v 0.038138 -0.112711 0.970716
v 0.038122 -0.095525 0.978922
v 0.038106 -0.078339 0.987127
v 0.038090 -0.061152 0.995333
v 0.038074 -0.043966 1.003538
v 0.038058 -0.026780 1.011744
v 0.038308 -0.271360 0.905190
v 0.038292 -0.254174 0.913396
v 0.038276 -0.236988 0.921601
v 0.038261 -0.219802 0.929807
v 0.038245 -0.202615 0.938012
v 0.038229 -0.185429 0.946218
v 0.038213 -0.168243 0.954423
v 0.038197 -0.151057 0.962629
v 0.038181 -0.133871 0.970834
v 0.038165 -0.116685 0.979040
v 0.038149 -0.099499 0.987246
v 0.038133 -0.082313 0.995451
v 0.038117 -0.065127 1.003657
v 0.038101 -0.047941 1.011862
v 0.038085 -0.030754 1.020068
v 0.038335 -0.275334 0.913514
v 0.038319 -0.258148 0.921719
v 0.038303 -0.240962 0.929925
v 0.038287 -0.223776 0.938131
v 0.038272 -0.206590 0.946336
v 0.038256 -0.189404 0.954542
v 0.038240 -0.172217 0.962747
v 0.038224 -0.155031 0.970953
v 0.038208 -0.137845 0.979158
v 0.038192 -0.120659 0.987364
v 0.038176 -0.103473 0.995569
v 0.038160 -0.086287 1.003775
v 0.038144 -0.069101 1.011981
v 0.038128 -0.051915 1.020186
v 0.038112 -0.034729 1.028392
v 0.038362 -0.279308 0.921838
v 0.038346 -0.262122 0.930043
v 0.038330 -0.244936 0.938249
v 0.038314 -0.227750 0.946454
v 0.038298 -0.210564 0.954660
v 0.038283 -0.193378 0.962866
v 0.038267 -0.176192 0.971071
v 0.038251 -0.159006 0.979277
v 0.038235 -0.141820 0.987482
v 0.038219 -0.124633 0.995688
v 0.038203 -0.107447 1.003893
v 0.038187 -0.090261 1.012099
v 0.038171 -0.073075 1.020304
v 0.038155 -0.055889 1.028510
v 0.038139 -0.038703 1.036716
v 0.038389 -0.283283 0.930162
v 0.038373 -0.266096 0.938367
v 0.038357 -0.248910 0.946573
v 0.038341 -0.231724 0.954778
v 0.038325 -0.214538 0.962984
v 0.038309 -0.197352 0.971189
v 0.038293 -0.180166 0.979395
v 0.038278 -0.162980 0.987601
v 0.038262 -0.145794 0.995806
v 0.038246 -0.128608 1.004012
v 0.038230 -0.111422 1.012217
v 0.038214 -0.094235 1.020423
v 0.038198 -0.077049 1.028628
v 0.038182 -0.059863 1.036834
v 0.038166 -0.042677 1.045040
v 0.038416 -0.287257 0.938486
v 0.038400 -0.270071 0.946691
v 0.038384 -0.252885 0.954897
v 0.038368 -0.235698 0.963102
v 0.038352 -0.218512 0.971308
v 0.038336 -0.201326 0.979513
v 0.038320 -0.184140 0.987719
v 0.038304 -0.166954 0.995924
v 0.038289 -0.149768 1.004130
v 0.038273 -0.132582 1.012336
v 0.038257 -0.115396 1.020541
v 0.038241 -0.098210 1.028747
v 0.038225 -0.081024 1.036952
v 0.038209 -0.063837 1.045158
v 0.038193 -0.046651 1.053363
v 0.038443 -0.291231 0.946809
v 0.038427 -0.274045 0.955015
v 0.038411 -0.256859 0.963221
v 0.038395 -0.239673 0.971426
v 0.038379 -0.222487 0.979632
v 0.038363 -0.205301 0.987837
v 0.038347 -0.188114 0.996043
v 0.038331 -0.170928 1.004248
v 0.038315 -0.153742 1.012454
v 0.038300 -0.136556 1.020659
v 0.038284 -0.119370 1.028865
v 0.038268 -0.102184 1.037071
v 0.038252 -0.084998 1.045276
v 0.038236 -0.067812 1.053482
v 0.038220 -0.050626 1.061687
v 0.038470 -0.295205 0.955133
v 0.038454 -0.278019 0.963339
v 0.038438 -0.260833 0.971544
v 0.038422 -0.243647 0.979750
v 0.038406 -0.226461 0.987956
v 0.038390 -0.209275 0.996161
v 0.038374 -0.192089 1.004367
v 0.038358 -0.174903 1.012572
v 0.038342 -0.157716 1.020778
v 0.038326 -0.140530 1.028983
v 0.038310 -0.123344 1.037189
v 0.038295 -0.106158 1.045394
v 0.038279 -0.088972 1.053600
v 0.038263 -0.071786 1.061805
v 0.038247 -0.054600 1.070011
v 0.038497 -0.299179 0.963457
v 0.038481 -0.281993 0.971663
v 0.038465 -0.264807 0.979868
v 0.038449 -0.247621 0.988074
v 0.038433 -0.230435 0.996279
v 0.038417 -0.213249 1.004485
v 0.038401 -0.196063 1.012691
v 0.038385 -0.178877 1.020896
v 0.038369 -0.161691 1.029102
v 0.038353 -0.144505 1.037307
v 0.038337 -0.127319 1.045513
v 0.038321 -0.110132 1.053718
v 0.038306 -0.092946 1.061924
v 0.038290 -0.075760 1.070129
v 0.038274 -0.058574 1.078335
v 0.038524 -0.303154 0.971781
v 0.038508 -0.285968 0.979987
v 0.038492 -0.268782 0.988192
v 0.038476 -0.251595 0.996398
v 0.038460 -0.234409 1.004603
v 0.038444 -0.217223 1.012809
v 0.038428 -0.200037 1.021014
v 0.038412 -0.182851 1.029220
v 0.038396 -0.165665 1.037426
v 0.038380 -0.148479 1.045631
v 0.038364 -0.131293 1.053837
v 0.038348 -0.114107 1.062042
v 0.038332 -0.096921 1.070248
v 0.038317 -0.079734 1.078453
v 0.038301 -0.062548 1.086659
v 0.038550 -0.307128 0.980105
v 0.038535 -0.289942 0.988310
v 0.038519 -0.272756 0.996516
v 0.038503 -0.255570 1.004722
v 0.038487 -0.238384 1.012927
v 0.038471 -0.221197 1.021133
v 0.038455 -0.204011 1.029338
v 0.038439 -0.186825 1.037544
v 0.038423 -0.169639 1.045749
v 0.038407 -0.152453 1.053955
v 0.038391 -0.135267 1.062160
v 0.038375 -0.118081 1.070366
v 0.038359 -0.100895 1.078572
v 0.038343 -0.083709 1.086777
v 0.038327 -0.066523 1.094983
v 0.038577 -0.311102 0.988429
v 0.038561 -0.293916 0.996634
v 0.038546 -0.276730 1.004840
v 0.038530 -0.259544 1.013045
v 0.038514 -0.242358 1.021251
v 0.038498 -0.225172 1.029457
v 0.038482 -0.207986 1.037662
v 0.038466 -0.190800 1.045868
v 0.038450 -0.173613 1.054073
v 0.038434 -0.156427 1.062279
v 0.038418 -0.139241 1.070484
v 0.038402 -0.122055 1.078690
v 0.038386 -0.104869 1.086895
v 0.038370 -0.087683 1.095101
v 0.038354 -0.070497 1.103307
v 0.038604 -0.315076 0.996753
v 0.038588 -0.297890 1.004958
v 0.038572 -0.280704 1.013164
v 0.038557 -0.263518 1.021369
v 0.038541 -0.246332 1.029575
v 0.038525 -0.229146 1.037780
v 0.038509 -0.211960 1.045986
v 0.038493 -0.194774 1.054192
v 0.038477 -0.177588 1.062397
v 0.038461 -0.160402 1.070603
v 0.038445 -0.143215 1.078808
v 0.038429 -0.126029 1.087014
v 0.038413 -0.108843 1.095219
v 0.038397 -0.091657 1.103425
v 0.038381 -0.074471 1.111630
v 0.024120 -0.319080 1.005110
v 0.024104 -0.301894 1.013315
v 0.024088 -0.284708 1.021521
v 0.024072 -0.267522 1.029726
v 0.024056 -0.250335 1.037932
v 0.024040 -0.233149 1.046137
v 0.024024 -0.215963 1.054343
v 0.024009 -0.198777 1.062548
v 0.023993 -0.181591 1.070754
v 0.023977 -0.164405 1.078960
v 0.023961 -0.147219 1.087165
v 0.023945 -0.130033 1.095371
v 0.023929 -0.112847 1.103576
v 0.023913 -0.095661 1.111782
v 0.023897 -0.078474 1.119987
v 0.009609 -0.319109 1.005142
v 0.009593 -0.301923 1.013348
v 0.009577 -0.284737 1.021554
v 0.009561 -0.267551 1.029759
v 0.009545 -0.250365 1.037965
v 0.009529 -0.233179 1.046170
v 0.009513 -0.215992 1.054376
v 0.009497 -0.198806 1.062581
v 0.009481 -0.181620 1.070787
v 0.009466 -0.164434 1.078992
v 0.009450 -0.147248 1.087198
v 0.009434 -0.130062 1.095404
v 0.009418 -0.112876 1.103609
v 0.009402 -0.095690 1.111815
v 0.009386 -0.078504 1.120020
v -0.004902 -0.319138 1.005175
v -0.004918 -0.301952 1.013381
v -0.004934 -0.284766 1.021587
v -0.004950 -0.267580 1.029792
v -0.004966 -0.250394 1.037998
v -0.004982 -0.233208 1.046203
v -0.004998 -0.216022 1.054409
v -0.005014 -0.198836 1.062614
v -0.005030 -0.181649 1.070820
v -0.005046 -0.164463 1.079026
v -0.005062 -0.147277 1.087231
v -0.005077 -0.130091 1.095437
v -0.005093 -0.112905 1.103642
v -0.005109 -0.095719 1.111848
v -0.005125 -0.078533 1.120053
v -0.019413 -0.319167 1.005208
v -0.019429 -0.301981 1.013414
v -0.019445 -0.284795 1.021620
v -0.019461 -0.267609 1.029825
v -0.019477 -0.250423 1.038031
v -0.019493 -0.233237 1.046236
v -0.019509 -0.216051 1.054442
v -0.019525 -0.198865 1.062647
v -0.019541 -0.181679 1.070853
v -0.019557 -0.164493 1.079058
v -0.019573 -0.147306 1.087264
v -0.019589 -0.130120 1.095470
v -0.019605 -0.112934 1.103675
v -0.019620 -0.095748 1.111881
v -0.019636 -0.078562 1.120086
v -0.033925 -0.319197 1.005241
v -0.033941 -0.302011 1.013447
v -0.033956 -0.284824 1.021652
v -0.033972 -0.267638 1.029858
v -0.033988 -0.250452 1.038064
v -0.034004 -0.233266 1.046269
v -0.034020 -0.216080 1.054475
v -0.034036 -0.198894 1.062680
v -0.034052 -0.181708 1.070886
v -0.034068 -0.164522 1.079091
v -0.034084 -0.147336 1.087297
v -0.034100 -0.130150 1.095502
v -0.034116 -0.112963 1.103708
v -0.034132 -0.095777 1.111914
v -0.034148 -0.078591 1.120119
v -0.048436 -0.319226 1.005274
v -0.048452 -0.302040 1.013480
v -0.048468 -0.284854 1.021685
v -0.048484 -0.267668 1.029891
v -0.048499 -0.250481 1.038097
v -0.048515 -0.233295 1.046302
v -0.048531 -0.216109 1.054508
v -0.048547 -0.198923 1.062713
v -0.048563 -0.181737 1.070919
v -0.048579 -0.164551 1.079124
v -0.048595 -0.147365 1.087330
v -0.048611 -0.130179 1.095536
v -0.048627 -0.112993 1.103741
v -0.048643 -0.095807 1.111947
v -0.048659 -0.078620 1.120152
v -0.062947 -0.319255 1.005307
v -0.062963 -0.302069 1.013513
v -0.062979 -0.284883 1.021718
v -0.062995 -0.267697 1.029924
v -0.063011 -0.250511 1.038130
v -0.063027 -0.233325 1.046335
v -0.063042 -0.216138 1.054541
v -0.063058 -0.198952 1.062746
v -0.063074 -0.181766 1.070952
v -0.063090 -0.164580 1.079157
v -0.063106 -0.147394 1.087363
v -0.063122 -0.130208 1.095568
v -0.063138 -0.113022 1.103774
v -0.063154 -0.095836 1.111980
v -0.063170 -0.078650 1.120185
v -0.077458 -0.319284 1.005340
v -0.077474 -0.302098 1.013546
v -0.077490 -0.284912 1.021751
v -0.077506 -0.267726 1.029957
v -0.077522 -0.250540 1.038162
v -0.077538 -0.233354 1.046368
v -0.077554 -0.216168 1.054574
v -0.077570 -0.198981 1.062779
v -0.077585 -0.181795 1.070985
v -0.077601 -0.164609 1.079190
v -0.077617 -0.147423 1.087396
v -0.077633 -0.130237 1.095601
v -0.077649 -0.113051 1.103807
v -0.077665 -0.095865 1.112013
v -0.077681 -0.078679 1.120218
v -0.091969 -0.319313 1.005373
v -0.091985 -0.302127 1.013579
v -0.092001 -0.284941 1.021784
v -0.092017 -0.267755 1.029990
v -0.092033 -0.250569 1.038195
v -0.092049 -0.233383 1.046401
v -0.092065 -0.216197 1.054607
v -0.092081 -0.199011 1.062812
v -0.092097 -0.181825 1.071018
v -0.092113 -0.164638 1.079223
v -0.092128 -0.147452 1.087429
v -0.092144 -0.130266 1.095634
v -0.092160 -0.113080 1.103840
v -0.092176 -0.095894 1.112046
v -0.092192 -0.078708 1.120251
v -0.106480 -0.319343 1.005406
v -0.106496 -0.302156 1.013612
v -0.106512 -0.284970 1.021817
v -0.106528 -0.267784 1.030023
v -0.106544 -0.250598 1.038228
v -0.106560 -0.233412 1.046434
v -0.106576 -0.216226 1.054640
v -0.106592 -0.199040 1.062845
v -0.106608 -0.181854 1.071051
v -0.106624 -0.164668 1.079256
v -0.106640 -0.147482 1.087462
v -0.106656 -0.130295 1.095667
v -0.106671 -0.113109 1.103873
v -0.106687 -0.095923 1.112078
v -0.106703 -0.078737 1.120284
v -0.120991 -0.319372 1.005439
v -0.121007 -0.302186 1.013645
v -0.121023 -0.285000 1.021850
v -0.121039 -0.267813 1.030056
v -0.121055 -0.250627 1.038261
v -0.121071 -0.233441 1.046467
v -0.121087 -0.216255 1.054672
v -0.121103 -0.199069 1.062878
v -0.121119 -0.181883 1.071084
v -0.121135 -0.164697 1.079289
v -0.121151 -0.147511 1.087495
v -0.121167 -0.130325 1.095700
v -0.121183 -0.113139 1.103906
v -0.121199 -0.095952 1.112111
v -0.121214 -0.078766 1.120317
v -0.135503 -0.319401 1.005472
v -0.135519 -0.302215 1.013678
v -0.135535 -0.285029 1.021883
v -0.135550 -0.267843 1.030089
v -0.135566 -0.250657 1.038294
v -0.135582 -0.233470 1.046500
v -0.135598 -0.216284 1.054706
v -0.135614 -0.199098 1.062911
v -0.135630 -0.181912 1.071117
v -0.135646 -0.164726 1.079322
v -0.135662 -0.147540 1.087528
v -0.135678 -0.130354 1.095733
v -0.135694 -0.113168 1.103939
v -0.135710 -0.095982 1.112144
v -0.135726 -0.078796 1.120350
v -0.150014 -0.319430 1.005505
v -0.150030 -0.302244 1.013711
v -0.150046 -0.285058 1.021916
v -0.150062 -0.267872 1.030122
v -0.150078 -0.250686 1.038327
v -0.150093 -0.233500 1.046533
v -0.150109 -0.216314 1.054738
v -0.150125 -0.199127 1.062944
v -0.150141 -0.181941 1.071150
v -0.150157 -0.164755 1.079355
v -0.150173 -0.147569 1.087561
v -0.150189 -0.130383 1.095766
v -0.150205 -0.113197 1.103972
v -0.150221 -0.096011 1.112177
v -0.150237 -0.078825 1.120383
v -0.164525 -0.319459 1.005538
v -0.164541 -0.302273 1.013744
v -0.164557 -0.285087 1.021949
v -0.164573 -0.267901 1.030155
v -0.164589 -0.250715 1.038360
v -0.164605 -0.233529 1.046566
v -0.164621 -0.216343 1.054771
v -0.164636 -0.199157 1.062977
v -0.164652 -0.181971 1.071182
v -0.164668 -0.164784 1.079388
v -0.164684 -0.147598 1.087594
v -0.164700 -0.130412 1.095799
v -0.164716 -0.113226 1.104005
v -0.164732 -0.096040 1.112210
v -0.164748 -0.078854 1.120416
v -0.179036 -0.319489 1.005571
v -0.179052 -0.302302 1.013777
v -0.179068 -0.285116 1.021982
v -0.179084 -0.267930 1.030188
v -0.179100 -0.250744 1.038393
v -0.179116 -0.233558 1.046599
v -0.179132 -0.216372 1.054804
v -0.179148 -0.199186 1.063010
v -0.179164 -0.182000 1.071216
v -0.179179 -0.164814 1.079421
v -0.179195 -0.147628 1.087627
v -0.179211 -0.130441 1.095832
v -0.179227 -0.113255 1.104038
v -0.179243 -0.096069 1.112243
v -0.179259 -0.078883 1.120449
v -0.179424 -0.277061 0.872507
v -0.164913 -0.277032 0.872474
v -0.150401 -0.277003 0.872441
v -0.135890 -0.276973 0.872408
v -0.121379 -0.276944 0.872375
v -0.106868 -0.276915 0.872342
v -0.092357 -0.276886 0.872310
v -0.077846 -0.276857 0.872277
v -0.063335 -0.276828 0.872244
v -0.048823 -0.276798 0.872211
v -0.034312 -0.276769 0.872178
v -0.019801 -0.276740 0.872145
v -0.005290 -0.276711 0.872112
v 0.009221 -0.276682 0.872079
v 0.023732 -0.276652 0.872046
v -0.179397 -0.281035 0.880831
v -0.164886 -0.281006 0.880798
v -0.150375 -0.280977 0.880765
v -0.135863 -0.280948 0.880732
v -0.121352 -0.280919 0.880699
v -0.106841 -0.280889 0.880666
v -0.092330 -0.280860 0.880633
v -0.077819 -0.280831 0.880600
v -0.063308 -0.280802 0.880567
v -0.048796 -0.280773 0.880535
v -0.034285 -0.280743 0.880502
v -0.019774 -0.280714 0.880469
v -0.005263 -0.280685 0.880436
v 0.009248 -0.280656 0.880403
v 0.023759 -0.280627 0.880370
v -0.179370 -0.285010 0.889155
v -0.164859 -0.284980 0.889122
v -0.150348 -0.284951 0.889089
v -0.135836 -0.284922 0.889056
v -0.121325 -0.284893 0.889023
v -0.106814 -0.284864 0.888990
v -0.092303 -0.284834 0.888957
v -0.077792 -0.284805 0.888924
v -0.063281 -0.284776 0.888891
v -0.048770 -0.284747 0.888858
v -0.034258 -0.284718 0.888825
v -0.019747 -0.284688 0.888792
v -0.005236 -0.284659 0.888759
v 0.009275 -0.284630 0.888726
v 0.023786 -0.284601 0.888694
v -0.179343 -0.288984 0.897479
v -0.164832 -0.288955 0.897446
v -0.150321 -0.288925 0.897413
v -0.135810 -0.288896 0.897380
v -0.121298 -0.288867 0.897347
v -0.106787 -0.288838 0.897314
v -0.092276 -0.288809 0.897281
v -0.077765 -0.288779 0.897248
v -0.063254 -0.288750 0.897215
v -0.048743 -0.288721 0.897182
v -0.034231 -0.288692 0.897149
v -0.019720 -0.288663 0.897116
v -0.005209 -0.288633 0.897083
v 0.009302 -0.288604 0.897050
v 0.023813 -0.288575 0.897017
v -0.179316 -0.292958 0.905803
v -0.164805 -0.292929 0.905770
v -0.150294 -0.292900 0.905737
v -0.135783 -0.292870 0.905704
v -0.121272 -0.292841 0.905671
v -0.106760 -0.292812 0.905638
v -0.092249 -0.292783 0.905605
v -0.077738 -0.292754 0.905572
v -0.063227 -0.292724 0.905539
v -0.048716 -0.292695 0.905506
v -0.034205 -0.292666 0.905473
v -0.019693 -0.292637 0.905440
v -0.005182 -0.292608 0.905407
v 0.009329 -0.292579 0.905374
v 0.023840 -0.292549 0.905341
v -0.179289 -0.296932 0.914127
v -0.164778 -0.296903 0.914094
v -0.150267 -0.296874 0.914061
v -0.135756 -0.296845 0.914028
v -0.121245 -0.296815 0.913995
v -0.106733 -0.296786 0.913962
v -0.092222 -0.296757 0.913929
v -0.077711 -0.296728 0.913896
v -0.063200 -0.296699 0.913863
v -0.048689 -0.296670 0.913830
v -0.034178 -0.296640 0.913797
v -0.019667 -0.296611 0.913764
v -0.005155 -0.296582 0.913731
v 0.009356 -0.296553 0.913698
v 0.023867 -0.296524 0.913665
v -0.179262 -0.300906 0.922451
v -0.164751 -0.300877 0.922418
v -0.150240 -0.300848 0.922385
v -0.135729 -0.300819 0.922352
v -0.121218 -0.300790 0.922319
v -0.106707 -0.300761 0.922286
v -0.092195 -0.300731 0.922253
v -0.077684 -0.300702 0.922220
v -0.063173 -0.300673 0.922187
v -0.048662 -0.300644 0.922154
v -0.034151 -0.300615 0.922121
v -0.019640 -0.300585 0.922088
v -0.005128 -0.300556 0.922055
v 0.009383 -0.300527 0.922022
v 0.023894 -0.300498 0.921989
v -0.179235 -0.304881 0.930774
v -0.164724 -0.304852 0.930741
v -0.150213 -0.304822 0.930709
v -0.135702 -0.304793 0.930676
v -0.121191 -0.304764 0.930643
v -0.106680 -0.304735 0.930610
v -0.092168 -0.304706 0.930577
v -0.077657 -0.304676 0.930544
v -0.063146 -0.304647 0.930511
v -0.048635 -0.304618 0.930478
v -0.034124 -0.304589 0.930445
v -0.019613 -0.304560 0.930412
v -0.005102 -0.304530 0.930379
v 0.009410 -0.304501 0.930346
v 0.023921 -0.304472 0.930313
v -0.179209 -0.308855 0.939098
v -0.164697 -0.308826 0.939065
v -0.150186 -0.308797 0.939032
v -0.135675 -0.308767 0.938999
v -0.121164 -0.308738 0.938966
v -0.106653 -0.308709 0.938933
v -0.092142 -0.308680 0.938901
v -0.077630 -0.308651 0.938868
v -0.063119 -0.308621 0.938835
v -0.048608 -0.308592 0.938802
v -0.034097 -0.308563 0.938769
v -0.019586 -0.308534 0.938736
v -0.005075 -0.308505 0.938703
v 0.009436 -0.308475 0.938670
v 0.023948 -0.308446 0.938637
v -0.179182 -0.312829 0.947422
v -0.164670 -0.312800 0.947389
v -0.150159 -0.312771 0.947356
v -0.135648 -0.312742 0.947323
v -0.121137 -0.312712 0.947290
v -0.106626 -0.312683 0.947257
v -0.092115 -0.312654 0.947224
v -0.077604 -0.312625 0.947191
v -0.063092 -0.312596 0.947158
v -0.048581 -0.312566 0.947125
v -0.034070 -0.312537 0.947093
v -0.019559 -0.312508 0.947060
v -0.005048 -0.312479 0.947027
v 0.009463 -0.312450 0.946994
v 0.023975 -0.312421 0.946961
v -0.179155 -0.316803 0.955746
v -0.164644 -0.316774 0.955713
v -0.150132 -0.316745 0.955680
v -0.135621 -0.316716 0.955647
v -0.121110 -0.316687 0.955614
v -0.106599 -0.316657 0.955581
v -0.092088 -0.316628 0.955548
v -0.077577 -0.316599 0.955515
v -0.063065 -0.316570 0.955482
v -0.048554 -0.316541 0.955449
v -0.034043 -0.316512 0.955416
v -0.019532 -0.316482 0.955383
v -0.005021 -0.316453 0.955350
v 0.009490 -0.316424 0.955317
v 0.024001 -0.316395 0.955285
v -0.179128 -0.320778 0.964070
v -0.164617 -0.320748 0.964037
v -0.150105 -0.320719 0.964004
v -0.135594 -0.320690 0.963971
v -0.121083 -0.320661 0.963938
v -0.106572 -0.320632 0.963905
v -0.092061 -0.320603 0.963872
v -0.077550 -0.320573 0.963839
v -0.063039 -0.320544 0.963806
v -0.048527 -0.320515 0.963773
v -0.034016 -0.320486 0.963740
v -0.019505 -0.320457 0.963707
v -0.004994 -0.320427 0.963674
v 0.009517 -0.320398 0.963641
v 0.024028 -0.320369 0.963608
v -0.179101 -0.324752 0.972394
v -0.164590 -0.324723 0.972361
v -0.150079 -0.324694 0.972328
v -0.135567 -0.324664 0.972295
v -0.121056 -0.324635 0.972262
v -0.106545 -0.324606 0.972229
v -0.092034 -0.324577 0.972196
v -0.077523 -0.324548 0.972163
v -0.063012 -0.324518 0.972130
v -0.048501 -0.324489 0.972097
v -0.033989 -0.324460 0.972064
v -0.019478 -0.324431 0.972031
v -0.004967 -0.324402 0.971998
v 0.009544 -0.324372 0.971965
v 0.024055 -0.324343 0.971932
v -0.179074 -0.328726 0.980718
v -0.164563 -0.328697 0.980685
v -0.150052 -0.328668 0.980652
v -0.135541 -0.328639 0.980619
v -0.121029 -0.328609 0.980586
v -0.106518 -0.328580 0.980553
v -0.092007 -0.328551 0.980520
v -0.077496 -0.328522 0.980487
v -0.062985 -0.328493 0.980454
v -0.048474 -0.328463 0.980421
v -0.033962 -0.328434 0.980388
v -0.019451 -0.328405 0.980355
v -0.004940 -0.328376 0.980322
v 0.009571 -0.328347 0.980289
v 0.024082 -0.328317 0.980256
v -0.179047 -0.332700 0.989042
v -0.164536 -0.332671 0.989009
v -0.150025 -0.332642 0.988976
v -0.135514 -0.332613 0.988943
v -0.121002 -0.332584 0.988910
v -0.106491 -0.332554 0.988877
v -0.091980 -0.332525 0.988844
v -0.077469 -0.332496 0.988811
v -0.062958 -0.332467 0.988778
v -0.048447 -0.332438 0.988745
v -0.033936 -0.332408 0.988712
v -0.019424 -0.332379 0.988679
v -0.004913 -0.332350 0.988646
v 0.009598 -0.332321 0.988613
v 0.024109 -0.332292 0.988580
v 0.023478 -0.001675 1.003335
v 0.008966 -0.001704 1.003368
v -0.005545 -0.001733 1.003401
v -0.020056 -0.001762 1.003434
v -0.034567 -0.001792 1.003467
v -0.049078 -0.001821 1.003500
v -0.063589 -0.001850 1.003533
v -0.078101 -0.001879 1.003566
v -0.092612 -0.001908 1.003598
v -0.107123 -0.001938 1.003631
v -0.121634 -0.001967 1.003664
v -0.136145 -0.001996 1.003697
v -0.150656 -0.002025 1.003730
v -0.165167 -0.002054 1.003763
v -0.179679 -0.002083 1.003796
v 0.023504 -0.005649 1.011659
v 0.008993 -0.005678 1.011692
v -0.005518 -0.005707 1.011725
v -0.020029 -0.005737 1.011757
v -0.034540 -0.005766 1.011791
v -0.049051 -0.005795 1.011823
v -0.063562 -0.005824 1.011856
v -0.078074 -0.005853 1.011889
v -0.092585 -0.005883 1.011922
v -0.107096 -0.005912 1.011955
v -0.121607 -0.005941 1.011988
v -0.136118 -0.005970 1.012021
v -0.150629 -0.005999 1.012054
v -0.165141 -0.006029 1.012087
v -0.179652 -0.006058 1.012120
v 0.023531 -0.009623 1.019982
v 0.009020 -0.009652 1.020015
v -0.005491 -0.009682 1.020048
v -0.020002 -0.009711 1.020081
v -0.034513 -0.009740 1.020114
v -0.049024 -0.009769 1.020147
v -0.063536 -0.009798 1.020180
v -0.078047 -0.009828 1.020213
v -0.092558 -0.009857 1.020246
v -0.107069 -0.009886 1.020279
v -0.121580 -0.009915 1.020312
v -0.136091 -0.009944 1.020345
v -0.150602 -0.009974 1.020378
v -0.165114 -0.010003 1.020411
v -0.179625 -0.010032 1.020444
v 0.023558 -0.013598 1.028306
v 0.009047 -0.013627 1.028339
v -0.005464 -0.013656 1.028372
v -0.019975 -0.013685 1.028405
v -0.034486 -0.013714 1.028438
v -0.048997 -0.013743 1.028471
v -0.063509 -0.013773 1.028504
v -0.078020 -0.013802 1.028537
v -0.092531 -0.013831 1.028570
v -0.107042 -0.013860 1.028603
v -0.121553 -0.013889 1.028636
v -0.136064 -0.013919 1.028669
v -0.150576 -0.013948 1.028702
v -0.165087 -0.013977 1.028735
v -0.179598 -0.014006 1.028768
v 0.023585 -0.017572 1.036630
v 0.009074 -0.017601 1.036663
v -0.005437 -0.017630 1.036696
v -0.019948 -0.017659 1.036729
v -0.034459 -0.017689 1.036762
v -0.048971 -0.017718 1.036795
v -0.063482 -0.017747 1.036828
v -0.077993 -0.017776 1.036861
v -0.092504 -0.017805 1.036894
v -0.107015 -0.017834 1.036927
v -0.121526 -0.017864 1.036960
v -0.136038 -0.017893 1.036993
v -0.150549 -0.017922 1.037026
v -0.165060 -0.017951 1.037059
v -0.179571 -0.017980 1.037092
v 0.023612 -0.021546 1.044954
v 0.009101 -0.021575 1.044987
v -0.005410 -0.021604 1.045020
v -0.019921 -0.021634 1.045053
v -0.034433 -0.021663 1.045086
v -0.048944 -0.021692 1.045119
v -0.063455 -0.021721 1.045152
v -0.077966 -0.021750 1.045185
v -0.092477 -0.021780 1.045218
v -0.106988 -0.021809 1.045251
v -0.121499 -0.021838 1.045284
v -0.136011 -0.021867 1.045317
v -0.150522 -0.021896 1.045350
v -0.165033 -0.021925 1.045383
v -0.179544 -0.021955 1.045416
v 0.023639 -0.025520 1.053278
v 0.009128 -0.025549 1.053311
v -0.005383 -0.025579 1.053344
v -0.019894 -0.025608 1.053377
v -0.034406 -0.025637 1.053410
v -0.048917 -0.025666 1.053443
v -0.063428 -0.025695 1.053476
v -0.077939 -0.025725 1.053509
v -0.092450 -0.025754 1.053542
v -0.106961 -0.025783 1.053575
v -0.121473 -0.025812 1.053608
v -0.135984 -0.025841 1.053641
v -0.150495 -0.025871 1.053674
v -0.165006 -0.025900 1.053707
v -0.179517 -0.025929 1.053740
v 0.023666 -0.029494 1.061602
v 0.009155 -0.029524 1.061635
v -0.005356 -0.029553 1.061668
v -0.019868 -0.029582 1.061701
v -0.034379 -0.029611 1.061734
v -0.048890 -0.029640 1.061767
v -0.063401 -0.029670 1.061800
v -0.077912 -0.029699 1.061833
v -0.092423 -0.029728 1.061866
v -0.106934 -0.029757 1.061899
v -0.121446 -0.029786 1.061931
v -0.135957 -0.029816 1.061965
v -0.150468 -0.029845 1.061997
v -0.164979 -0.029874 1.062030
v -0.179490 -0.029903 1.062063
v 0.023693 -0.033469 1.069926
v 0.009182 -0.033498 1.069959
v -0.005330 -0.033527 1.069992
v -0.019841 -0.033556 1.070025
v -0.034352 -0.033585 1.070058
v -0.048863 -0.033615 1.070091
v -0.063374 -0.033644 1.070124
v -0.077885 -0.033673 1.070157
v -0.092396 -0.033702 1.070189
v -0.106908 -0.033731 1.070222
v -0.121419 -0.033761 1.070255
v -0.135930 -0.033790 1.070288
v -0.150441 -0.033819 1.070321
v -0.164952 -0.033848 1.070354
v -0.179463 -0.033877 1.070387
v 0.023720 -0.037443 1.078250
v 0.009209 -0.037472 1.078283
v -0.005303 -0.037501 1.078316
v -0.019814 -0.037531 1.078349
v -0.034325 -0.037560 1.078382
v -0.048836 -0.037589 1.078414
v -0.063347 -0.037618 1.078447
v -0.077858 -0.037647 1.078480
v -0.092370 -0.037676 1.078513
v -0.106881 -0.037706 1.078546
v -0.121392 -0.037735 1.078579
v -0.135903 -0.037764 1.078612
v -0.150414 -0.037793 1.078645
v -0.164925 -0.037822 1.078678
v -0.179436 -0.037852 1.078711
v 0.023747 -0.041417 1.086573
v 0.009235 -0.041446 1.086607
v -0.005276 -0.041476 1.086639
v -0.019787 -0.041505 1.086672
v -0.034298 -0.041534 1.086705
v -0.048809 -0.041563 1.086738
v -0.063320 -0.041592 1.086771
v -0.077831 -0.041622 1.086804
v -0.092343 -0.041651 1.086837
v -0.106854 -0.041680 1.086870
v -0.121365 -0.041709 1.086903
v -0.135876 -0.041738 1.086936
v -0.150387 -0.041767 1.086969
v -0.164898 -0.041797 1.087002
v -0.179410 -0.041826 1.087035
v 0.023773 -0.045391 1.094897
v 0.009262 -0.045421 1.094930
v -0.005249 -0.045450 1.094963
v -0.019760 -0.045479 1.094996
v -0.034271 -0.045508 1.095029
v -0.048782 -0.045537 1.095062
v -0.063293 -0.045567 1.095095
v -0.077805 -0.045596 1.095128
v -0.092316 -0.045625 1.095161
v -0.106827 -0.045654 1.095194
v -0.121338 -0.045683 1.095227
v -0.135849 -0.045713 1.095260
v -0.150360 -0.045742 1.095293
v -0.164871 -0.045771 1.095326
v -0.179383 -0.045800 1.095359
v 0.023800 -0.049366 1.103221
v 0.009289 -0.049395 1.103254
v -0.005222 -0.049424 1.103287
v -0.019733 -0.049453 1.103320
v -0.034244 -0.049482 1.103353
v -0.048755 -0.049512 1.103386
v -0.063267 -0.049541 1.103419
v -0.077778 -0.049570 1.103452
v -0.092289 -0.049599 1.103485
v -0.106800 -0.049628 1.103518
v -0.121311 -0.049658 1.103551
v -0.135822 -0.049687 1.103584
v -0.150333 -0.049716 1.103617
v -0.164845 -0.049745 1.103650
v -0.179356 -0.049774 1.103683
v 0.023827 -0.053340 1.111545
v 0.009316 -0.053369 1.111578
v -0.005195 -0.053398 1.111611
v -0.019706 -0.053427 1.111644
v -0.034217 -0.053457 1.111677
v -0.048728 -0.053486 1.111710
v -0.063240 -0.053515 1.111743
v -0.077751 -0.053544 1.111776
v -0.092262 -0.053573 1.111809
v -0.106773 -0.053603 1.111842
v -0.121284 -0.053632 1.111875
v -0.135795 -0.053661 1.111908
v -0.150307 -0.053690 1.111941
v -0.164818 -0.053719 1.111974
v -0.179329 -0.053749 1.112007
v 0.023854 -0.057314 1.119869
v 0.009343 -0.057343 1.119902
v -0.005168 -0.057373 1.119935
v -0.019679 -0.057402 1.119968
v -0.034190 -0.057431 1.120001
v -0.048702 -0.057460 1.120034
v -0.063213 -0.057489 1.120067
v -0.077724 -0.057518 1.120100
v -0.092235 -0.057548 1.120133
v -0.106746 -0.057577 1.120166
v -0.121257 -0.057606 1.120199
v -0.135768 -0.057635 1.120232
v -0.150280 -0.057664 1.120265
v -0.164791 -0.057694 1.120298
v -0.179302 -0.057723 1.120331
s 0
f 190 204 189
f 190 206 205
f 191 207 206
f 192 208 207
f 194 208 193
f 195 209 194
f 195 211 210
f 197 211 196
f 198 212 197
f 198 214 213
f 200 214 199
f 200 216 215
f 202 216 201
f 203 217 202
f 204 220 219
f 205 221 220
f 206 222 221
f 208 222 207
f 209 223 208
f 210 224 209
f 211 225 210
f 211 227 226
f 212 228 227
f 214 228 213
f 215 229 214
f 216 230 215
f 217 231 216
f 218 232 217
f 220 234 219
f 221 235 220
f 222 236 221
f 223 237 222
f 224 238 223
f 224 240 239
f 226 240 225
f 227 241 226
f 228 242 227
f 228 244 243
f 229 245 244
f 230 246 245
f 231 247 246
f 232 248 247
f 234 250 249
f 236 250 235
f 237 251 236
f 237 253 252
f 239 253 238
f 240 254 239
f 241 255 240
f 242 256 241
f 243 257 242
f 244 258 243
f 245 259 244
f 246 260 245
f 247 261 246
f 248 262 247
f 250 264 249
f 251 265 250
f 251 267 266
f 252 268 267
f 253 269 268
f 254 270 269
f 256 270 255
f 256 272 271
f 257 273 272
f 259 273 258
f 260 274 259
f 260 276 275
f 261 277 276
f 262 278 277
f 265 279 264
f 265 281 280
f 266 282 281
f 268 282 267
f 269 283 268
f 269 285 284
f 270 286 285
f 271 287 286
f 273 287 272
f 273 289 288
f 274 290 289
f 275 291 290
f 276 292 291
f 278 292 277
f 279 295 294
f 280 296 295
f 281 297 296
f 282 298 297
f 283 299 298
f 285 299 284
f 286 300 285
f 287 301 286
f 288 302 287
f 289 303 288
f 290 304 289
f 291 305 290
f 292 306 291
f 293 307 292
f 295 309 294
f 296 310 295
f 297 311 296
f 298 312 297
f 299 313 298
f 300 314 299
f 300 316 315
f 301 317 316
f 303 317 302
f 303 319 318
f 304 320 319
f 305 321 320
f 306 322 321
f 308 322 307
f 309 325 324
f 311 325 310
f 311 327 326
f 312 328 327
f 313 329 328
f 315 329 314
f 316 330 315
f 317 331 316
f 318 332 317
f 319 333 318
f 320 334 319
f 321 335 320
f 322 336 321
f 323 337 322
f 325 339 324
f 325 341 340
f 327 341 326
f 328 342 327
f 329 343 328
f 330 344 329
f 331 345 330
f 331 347 346
f 333 347 332
f 334 348 333
f 335 349 334
f 336 350 335
f 336 352 351
f 338 352 337
f 340 354 339
f 341 355 340
f 341 357 356
f 343 357 342
f 344 358 343
f 344 360 359
f 346 360 345
f 347 361 346
f 348 362 347
f 348 364 363
f 349 365 364
f 350 366 365
f 351 367 366
f 352 368 367
f 354 370 369
f 356 370 355
f 357 371 356
f 357 373 372
f 359 373 358
f 359 375 374
f 360 376 375
f 362 376 361
f 362 378 377
f 364 378 363
f 365 379 364
f 366 380 365
f 367 381 366
f 368 382 367
f 369 385 384
f 370 386 385
f 371 387 386
f 372 388 387
f 373 389 388
f 375 389 374
f 376 390 375
f 377 391 376
f 378 392 377
f 379 393 378
f 379 395 394
f 381 395 380
f 381 397 396
f 382 398 397
f 385 399 384
f 386 400 385
f 387 401 386
f 388 402 387
f 389 403 388
f 389 405 404
f 391 405 390
f 392 406 391
f 393 407 392
f 393 409 408
f 394 410 409
f 395 411 410
f 396 412 411
f 397 413 412
f 1 189 23
f 24 190 189
f 26 190 25
f 27 191 26
f 28 192 27
f 28 194 193
f 29 195 194
f 31 195 30
f 32 196 31
f 33 197 32
f 33 199 198
f 34 200 199
f 35 201 200
f 36 202 201
f 37 203 202
f 2 203 38
f 39 218 203
f 40 233 218
f 41 248 233
f 42 263 248
f 263 44 278
f 44 293 278
f 45 308 293
f 46 323 308
f 47 338 323
f 48 353 338
f 49 368 353
f 50 383 368
f 51 398 383
f 398 53 413
f 53 54 413
f 413 55 412
f 411 55 56
f 411 57 410
f 410 58 409
f 409 59 408
f 407 59 60
f 406 60 61
f 406 62 405
f 404 62 63
f 403 63 64
f 402 64 65
f 401 65 66
f 400 66 67
f 399 67 68
f 9 68 3
f 384 9 10
f 369 10 11
f 12 369 11
f 339 12 13
f 324 13 14
f 15 324 14
f 294 15 16
f 17 294 16
f 264 17 18
f 19 264 18
f 20 249 19
f 219 20 21
f 22 219 21
f 189 22 23
f 415 429 414
f 416 430 415
f 416 432 431
f 418 432 417
f 419 433 418
f 419 435 434
f 421 435 420
f 422 436 421
f 423 437 422
f 423 439 438
f 425 439 424
f 426 440 425
f 426 442 441
f 428 442 427
f 430 444 429
f 431 445 430
f 431 447 446
f 432 448 447
f 433 449 448
f 435 449 434
f 436 450 435
f 436 452 451
f 438 452 437
f 439 453 438
f 440 454 439
f 441 455 440
f 442 456 441
f 443 457 442
f 444 460 459
f 445 461 460
f 447 461 446
f 448 462 447
f 449 463 448
f 450 464 449
f 450 466 465
f 452 466 451
f 453 467 452
f 453 469 468
f 455 469 454
f 456 470 455
f 457 471 456
f 457 473 472
f 460 474 459
f 461 475 460
f 462 476 461
f 463 477 462
f 464 478 463
f 464 480 479
f 465 481 480
f 467 481 466
f 468 482 467
f 469 483 468
f 469 485 484
f 470 486 485
f 471 487 486
f 473 487 472
f 475 489 474
f 476 490 475
f 476 492 491
f 477 493 492
f 478 494 493
f 480 494 479
f 481 495 480
f 482 496 481
f 483 497 482
f 484 498 483
f 485 499 484
f 486 500 485
f 487 501 486
f 487 503 502
f 489 505 504
f 490 506 505
f 492 506 491
f 493 507 492
f 494 508 493
f 495 509 494
f 496 510 495
f 496 512 511
f 497 513 512
f 498 514 513
f 499 515 514
f 500 516 515
f 502 516 501
f 503 517 502
f 505 519 504
f 506 520 505
f 506 522 521
f 507 523 522
f 508 524 523
f 510 524 509
f 511 525 510
f 512 526 511
f 513 527 512
f 514 528 513
f 515 529 514
f 516 530 515
f 516 532 531
f 518 532 517
f 520 534 519
f 521 535 520
f 522 536 521
f 523 537 522
f 524 538 523
f 525 539 524
f 526 540 525
f 526 542 541
f 528 542 527
f 529 543 528
f 530 544 529
f 530 546 545
f 532 546 531
f 533 547 532
f 534 550 549
f 536 550 535
f 536 552 551
f 537 553 552
f 539 553 538
f 539 555 554
f 540 556 555
f 542 556 541
f 543 557 542
f 543 559 558
f 544 560 559
f 546 560 545
f 547 561 546
f 547 563 562
f 550 564 549
f 551 565 550
f 552 566 551
f 552 568 567
f 554 568 553
f 555 569 554
f 555 571 570
f 557 571 556
f 558 572 557
f 559 573 558
f 560 574 559
f 561 575 560
f 562 576 561
f 563 577 562
f 564 580 579
f 566 580 565
f 567 581 566
f 568 582 567
f 568 584 583
f 570 584 569
f 571 585 570
f 572 586 571
f 573 587 572
f 574 588 573
f 575 589 574
f 575 591 590
f 576 592 591
f 578 592 577
f 579 595 594
f 581 595 580
f 582 596 581
f 582 598 597
f 583 599 598
f 585 599 584
f 586 600 585
f 587 601 586
f 588 602 587
f 588 604 603
f 589 605 604
f 591 605 590
f 592 606 591
f 593 607 592
f 595 609 594
f 595 611 610
f 597 611 596
f 598 612 597
f 599 613 598
f 600 614 599
f 601 615 600
f 601 617 616
f 602 618 617
f 604 618 603
f 605 619 604
f 606 620 605
f 607 621 606
f 608 622 607
f 609 625 624
f 611 625 610
f 612 626 611
f 613 627 612
f 613 629 628
f 615 629 614
f 616 630 615
f 616 632 631
f 618 632 617
f 619 633 618
f 620 634 619
f 621 635 620
f 622 636 621
f 623 637 622
f 68 83 3
f 67 414 68
f 67 416 415
f 65 416 66
f 65 418 417
f 63 418 64
f 63 420 419
f 61 420 62
f 60 421 61
f 59 422 60
f 59 424 423
f 57 424 58
f 56 425 57
f 55 426 56
f 54 427 55
f 54 84 428
f 84 443 428
f 85 458 443
f 458 87 473
f 87 488 473
f 488 89 503
f 89 518 503
f 90 533 518
f 91 548 533
f 548 93 563
f 93 578 563
f 578 95 593
f 95 608 593
f 608 97 623
f 97 638 623
f 98 99 638
f 638 100 637
f 637 101 636
f 635 101 102
f 635 103 634
f 634 104 633
f 633 105 632
f 631 105 106
f 631 107 630
f 630 108 629
f 628 108 109
f 628 110 627
f 627 111 626
f 626 112 625
f 624 112 113
f 69 113 7
f 609 69 70
f 594 70 71
f 579 71 72
f 73 579 72
f 549 73 74
f 75 549 74
f 519 75 76
f 504 76 77
f 489 77 78
f 474 78 79
f 80 474 79
f 81 459 80
f 429 81 82
f 83 429 82
f 639 655 654
f 641 655 640
f 642 656 641
f 643 657 642
f 643 659 658
f 644 660 659
f 646 660 645
f 647 661 646
f 648 662 647
f 649 663 648
f 650 664 649
f 651 665 650
f 651 667 666
f 653 667 652
f 655 669 654
f 655 671 670
f 656 672 671
f 657 673 672
f 658 674 673
f 660 674 659
f 660 676 675
f 662 676 661
f 662 678 677
f 664 678 663
f 665 679 664
f 666 680 665
f 667 681 666
f 668 682 667
f 669 685 684
f 670 686 685
f 672 686 671
f 672 688 687
f 674 688 673
f 675 689 674
f 675 691 690
f 677 691 676
f 677 693 692
f 679 693 678
f 680 694 679
f 681 695 680
f 682 696 681
f 682 698 697
f 685 699 684
f 686 700 685
f 687 701 686
f 688 702 687
f 689 703 688
f 689 705 704
f 691 705 690
f 692 706 691
f 693 707 692
f 694 708 693
f 695 709 694
f 695 711 710
f 696 712 711
f 698 712 697
f 700 714 699
f 700 716 715
f 701 717 716
f 702 718 717
f 703 719 718
f 705 719 704
f 706 720 705
f 707 721 706
f 708 722 707
f 709 723 708
f 710 724 709
f 711 725 710
f 712 726 711
f 712 728 727
f 714 730 729
f 715 731 730
f 717 731 716
f 718 732 717
f 719 733 718
f 720 734 719
f 721 735 720
f 722 736 721
f 722 738 737
f 724 738 723
f 724 740 739
f 725 741 740
f 727 741 726
f 728 742 727
f 730 744 729
f 731 745 730
f 731 747 746
f 732 748 747
f 734 748 733
f 735 749 734
f 736 750 735
f 737 751 736
f 738 752 737
f 739 753 738
f 740 754 739
f 741 755 740
f 742 756 741
f 743 757 742
f 745 759 744
f 746 760 745
f 747 761 746
f 748 762 747
f 749 763 748
f 750 764 749
f 751 765 750
f 751 767 766
f 753 767 752
f 754 768 753
f 755 769 754
f 755 771 770
f 756 772 771
f 758 772 757
f 759 775 774
f 761 775 760
f 761 777 776
f 762 778 777
f 764 778 763
f 765 779 764
f 765 781 780
f 767 781 766
f 768 782 767
f 768 784 783
f 769 785 784
f 771 785 770
f 771 787 786
f 772 788 787
f 775 789 774
f 776 790 775
f 777 791 776
f 778 792 777
f 778 794 793
f 780 794 779
f 781 795 780
f 782 796 781
f 782 798 797
f 784 798 783
f 785 799 784
f 786 800 785
f 787 801 786
f 788 802 787
f 789 805 804
f 791 805 790
f 792 806 791
f 793 807 792
f 794 808 793
f 795 809 794
f 796 810 795
f 797 811 796
f 798 812 797
f 799 813 798
f 800 814 799
f 800 816 815
f 801 817 816
f 802 818 817
f 804 820 819
f 805 821 820
f 806 822 821
f 807 823 822
f 809 823 808
f 810 824 809
f 811 825 810
f 812 826 811
f 813 827 812
f 813 829 828
f 815 829 814
f 816 830 815
f 817 831 816
f 818 832 817
f 820 834 819
f 821 835 820
f 822 836 821
f 823 837 822
f 824 838 823
f 824 840 839
f 825 841 840
f 826 842 841
f 828 842 827
f 829 843 828
f 830 844 829
f 831 845 830
f 831 847 846
f 833 847 832
f 835 849 834
f 836 850 835
f 837 851 836
f 838 852 837
f 839 853 838
f 840 854 839
f 841 855 840
f 842 856 841
f 843 857 842
f 844 858 843
f 845 859 844
f 846 860 845
f 847 861 846
f 848 862 847
f 113 128 7
f 112 639 113
f 111 640 112
f 110 641 111
f 110 643 642
f 108 643 109
f 108 645 644
f 106 645 107
f 105 646 106
f 105 648 647
f 104 649 648
f 102 649 103
f 101 650 102
f 101 652 651
f 100 653 652
f 99 129 653
f 129 668 653
f 130 683 668
f 683 132 698
f 132 713 698
f 713 134 728
f 134 743 728
f 135 758 743
f 136 773 758
f 773 138 788
f 138 803 788
f 139 818 803
f 140 833 818
f 833 142 848
f 142 863 848
f 143 144 863
f 863 145 862
f 862 146 861
f 860 146 147
f 860 148 859
f 858 148 149
f 857 149 150
f 856 150 151
f 855 151 152
f 855 153 854
f 853 153 154
f 853 155 852
f 852 156 851
f 851 157 850
f 849 157 158
f 114 158 5
f 834 114 115
f 819 115 116
f 804 116 117
f 118 804 117
f 774 118 119
f 120 774 119
f 744 120 121
f 122 744 121
f 714 122 123
f 699 123 124
f 125 699 124
f 669 125 126
f 654 126 127
f 128 654 127
f 865 879 864
f 866 880 865
f 866 882 881
f 868 882 867
f 869 883 868
f 869 885 884
f 871 885 870
f 872 886 871
f 873 887 872
f 873 889 888
f 875 889 874
f 876 890 875
f 876 892 891
f 878 892 877
f 880 894 879
f 881 895 880
f 881 897 896
f 882 898 897
f 883 899 898
f 885 899 884
f 886 900 885
f 886 902 901
f 888 902 887
f 889 903 888
f 890 904 889
f 891 905 890
f 892 906 891
f 893 907 892
f 894 910 909
f 895 911 910
f 897 911 896
f 898 912 897
f 899 913 898
f 900 914 899
f 900 916 915
f 902 916 901
f 903 917 902
f 903 919 918
f 905 919 904
f 906 920 905
f 907 921 906
f 907 923 922
f 910 924 909
f 911 925 910
f 912 926 911
f 913 927 912
f 914 928 913
f 914 930 929
f 915 931 930
f 917 931 916
f 918 932 917
f 919 933 918
f 919 935 934
f 920 936 935
f 921 937 936
f 923 937 922
f 925 939 924
f 926 940 925
f 926 942 941
f 927 943 942
f 928 944 943
f 930 944 929
f 931 945 930
f 932 946 931
f 933 947 932
f 934 948 933
f 935 949 934
f 936 950 935
f 937 951 936
f 937 953 952
f 939 955 954
f 940 956 955
f 942 956 941
f 943 957 942
f 944 958 943
f 945 959 944
f 946 960 945
f 946 962 961
f 947 963 962
f 948 964 963
f 949 965 964
f 950 966 965
f 952 966 951
f 953 967 952
f 955 969 954
f 956 970 955
f 956 972 971
f 957 973 972
f 958 974 973
f 960 974 959
f 961 975 960
f 962 976 961
f 963 977 962
f 964 978 963
f 965 979 964
f 966 980 965
f 966 982 981
f 968 982 967
f 970 984 969
f 971 985 970
f 972 986 971
f 973 987 972
f 974 988 973
f 975 989 974
f 976 990 975
f 976 992 991
f 978 992 977
f 979 993 978
f 980 994 979
f 980 996 995
f 982 996 981
f 983 997 982
f 984 1000 999
f 986 1000 985
f 986 1002 1001
f 987 1003 1002
f 989 1003 988
f 989 1005 1004
f 990 1006 1005
f 992 1006 991
f 993 1007 992
f 993 1009 1008
f 994 1010 1009
f 996 1010 995
f 997 1011 996
f 997 1013 1012
f 1000 1014 999
f 1001 1015 1000
f 1002 1016 1001
f 1002 1018 1017
f 1004 1018 1003
f 1005 1019 1004
f 1005 1021 1020
f 1007 1021 1006
f 1008 1022 1007
f 1009 1023 1008
f 1010 1024 1009
f 1011 1025 1010
f 1012 1026 1011
f 1013 1027 1012
f 1014 1030 1029
f 1016 1030 1015
f 1017 1031 1016
f 1018 1032 1017
f 1018 1034 1033
f 1020 1034 1019
f 1021 1035 1020
f 1022 1036 1021
f 1023 1037 1022
f 1024 1038 1023
f 1025 1039 1024
f 1025 1041 1040
f 1026 1042 1041
f 1028 1042 1027
f 1029 1045 1044
f 1031 1045 1030
f 1032 1046 1031
f 1032 1048 1047
f 1033 1049 1048
f 1035 1049 1034
f 1036 1050 1035
f 1037 1051 1036
f 1038 1052 1037
f 1038 1054 1053
f 1039 1055 1054
f 1041 1055 1040
f 1042 1056 1041
f 1043 1057 1042
f 1045 1059 1044
f 1045 1061 1060
f 1047 1061 1046
f 1048 1062 1047
f 1049 1063 1048
f 1050 1064 1049
f 1051 1065 1050
f 1051 1067 1066
f 1052 1068 1067
f 1054 1068 1053
f 1055 1069 1054
f 1056 1070 1055
f 1057 1071 1056
f 1058 1072 1057
f 1059 1075 1074
f 1061 1075 1060
f 1062 1076 1061
f 1063 1077 1062
f 1063 1079 1078
f 1065 1079 1064
f 1066 1080 1065
f 1066 1082 1081
f 1068 1082 1067
f 1069 1083 1068
f 1070 1084 1069
f 1071 1085 1070
f 1072 1086 1071
f 1073 1087 1072
f 158 173 5
f 157 864 158
f 156 865 157
f 156 867 866
f 155 868 867
f 153 868 154
f 153 870 869
f 151 870 152
f 150 871 151
f 149 872 150
f 149 874 873
f 147 874 148
f 146 875 147
f 146 877 876
f 145 878 877
f 144 174 878
f 174 893 878
f 175 908 893
f 908 177 923
f 177 938 923
f 938 179 953
f 179 968 953
f 180 983 968
f 181 998 983
f 998 183 1013
f 183 1028 1013
f 1028 185 1043
f 185 1058 1043
f 1058 187 1073
f 187 1088 1073
f 188 38 1088
f 1087 38 37
f 1087 36 1086
f 1086 35 1085
f 1085 34 1084
f 1084 33 1083
f 1082 33 32
f 1081 32 31
f 1081 30 1080
f 1080 29 1079
f 1078 29 28
f 1078 27 1077
f 1077 26 1076
f 1075 26 25
f 1075 24 1074
f 159 24 1
f 1059 159 160
f 1044 160 161
f 1029 161 162
f 163 1029 162
f 999 163 164
f 165 999 164
f 969 165 166
f 954 166 167
f 939 167 168
f 924 168 169
f 170 924 169
f 171 909 170
f 879 171 172
f 173 879 172
f 1090 1104 1089
f 1091 1105 1090
f 1092 1106 1091
f 1092 1108 1107
f 1094 1108 1093
f 1094 1110 1109
f 1095 1111 1110
f 1097 1111 1096
f 1098 1112 1097
f 1099 1113 1098
f 1099 1115 1114
f 1100 1116 1115
f 1101 1117 1116
f 1102 1118 1117
f 1105 1119 1104
f 1106 1120 1105
f 1107 1121 1106
f 1108 1122 1107
f 1109 1123 1108
f 1110 1124 1109
f 1110 1126 1125
f 1112 1126 1111
f 1113 1127 1112
f 1114 1128 1113
f 1115 1129 1114
f 1115 1131 1130
f 1117 1131 1116
f 1118 1132 1117
f 1119 1135 1134
f 1120 1136 1135
f 1121 1137 1136
f 1122 1138 1137
f 1123 1139 1138
f 1125 1139 1124
f 1125 1141 1140
f 1127 1141 1126
f 1127 1143 1142
f 1129 1143 1128
f 1130 1144 1129
f 1131 1145 1130
f 1132 1146 1131
f 1133 1147 1132
f 1135 1149 1134
f 1136 1150 1135
f 1137 1151 1136
f 1137 1153 1152
f 1139 1153 1138
f 1140 1154 1139
f 1141 1155 1140
f 1142 1156 1141
f 1143 1157 1142
f 1144 1158 1143
f 1145 1159 1144
f 1145 1161 1160
f 1146 1162 1161
f 1148 1162 1147
f 1150 1164 1149
f 1150 1166 1165
f 1151 1167 1166
f 1153 1167 1152
f 1154 1168 1153
f 1154 1170 1169
f 1155 1171 1170
f 1156 1172 1171
f 1158 1172 1157
f 1158 1174 1173
f 1159 1175 1174
f 1161 1175 1160
f 1161 1177 1176
f 1162 1178 1177
f 1164 1180 1179
f 1165 1181 1180
f 1167 1181 1166
f 1168 1182 1167
f 1169 1183 1168
f 1170 1184 1169
f 1171 1185 1170
f 1172 1186 1171
f 1172 1188 1187
f 1174 1188 1173
f 1174 1190 1189
f 1176 1190 1175
f 1177 1191 1176
f 1178 1192 1177
f 1179 1195 1194
f 1181 1195 1180
f 1182 1196 1181
f 1182 1198 1197
f 1184 1198 1183
f 1185 1199 1184
f 1186 1200 1185
f 1186 1202 1201
f 1187 1203 1202
f 1188 1204 1203
f 1190 1204 1189
f 1190 1206 1205
f 1191 1207 1206
f 1193 1207 1192
f 1195 1209 1194
f 1196 1210 1195
f 1197 1211 1196
f 1198 1212 1197
f 1199 1213 1198
f 1200 1214 1199
f 1201 1215 1200
f 1202 1216 1201
f 1203 1217 1202
f 1204 1218 1203
f 1205 1219 1204
f 1205 1221 1220
f 1207 1221 1206
f 1208 1222 1207
f 1209 1225 1224
f 1211 1225 1210
f 1212 1226 1211
f 1212 1228 1227
f 1214 1228 1213
f 1214 1230 1229
f 1216 1230 1215
f 1217 1231 1216
f 1218 1232 1217
f 1218 1234 1233
f 1219 1235 1234
f 1221 1235 1220
f 1221 1237 1236
f 1222 1238 1237
f 1224 1240 1239
f 1226 1240 1225
f 1227 1241 1226
f 1227 1243 1242
f 1228 1244 1243
f 1230 1244 1229
f 1231 1245 1230
f 1232 1246 1231
f 1232 1248 1247
f 1234 1248 1233
f 1235 1249 1234
f 1236 1250 1235
f 1237 1251 1236
f 1238 1252 1237
f 1240 1254 1239
f 1240 1256 1255
f 1242 1256 1241
f 1243 1257 1242
f 1244 1258 1243
f 1245 1259 1244
f 1245 1261 1260
f 1247 1261 1246
f 1248 1262 1247
f 1249 1263 1248
f 1250 1264 1249
f 1251 1265 1250
f 1252 1266 1251
f 1253 1267 1252
f 1255 1269 1254
f 1256 1270 1255
f 1256 1272 1271
f 1258 1272 1257
f 1259 1273 1258
f 1259 1275 1274
f 1261 1275 1260
f 1262 1276 1261
f 1263 1277 1262
f 1263 1279 1278
f 1265 1279 1264
f 1266 1280 1265
f 1266 1282 1281
f 1267 1283 1282
f 1270 1284 1269
f 1270 1286 1285
f 1271 1287 1286
f 1272 1288 1287
f 1274 1288 1273
f 1275 1289 1274
f 1276 1290 1275
f 1277 1291 1276
f 1277 1293 1292
f 1279 1293 1278
f 1280 1294 1279
f 1281 1295 1280
f 1282 1296 1281
f 1283 1297 1282
f 1285 1299 1284
f 1285 1301 1300
f 1287 1301 1286
f 1288 1302 1287
f 1289 1303 1288
f 1290 1304 1289
f 1290 1306 1305
f 1292 1306 1291
f 1292 1308 1307
f 1294 1308 1293
f 1295 1309 1294
f 1296 1310 1295
f 1296 1312 1311
f 1298 1312 1297
f 83 9 3
f 83 1090 1089
f 81 1090 82
f 80 1091 81
f 79 1092 80
f 78 1093 79
f 78 1095 1094
f 77 1096 1095
f 75 1096 76
f 74 1097 75
f 74 1099 1098
f 72 1099 73
f 71 1100 72
f 70 1101 71
f 69 1102 70
f 69 128 1103
f 1103 127 1118
f 1118 126 1133
f 126 1148 1133
f 125 1163 1148
f 1163 123 1178
f 123 1193 1178
f 122 1208 1193
f 1208 120 1223
f 1223 119 1238
f 119 1253 1238
f 118 1268 1253
f 1268 116 1283
f 116 1298 1283
f 1298 114 1313
f 114 173 1313
f 1313 172 1312
f 1312 171 1311
f 1310 171 170
f 1309 170 169
f 1309 168 1308
f 1307 168 167
f 1307 166 1306
f 1306 165 1305
f 1305 164 1304
f 1303 164 163
f 1303 162 1302
f 1302 161 1301
f 1301 160 1300
f 1300 159 1299
f 23 159 1
f 22 1299 23
f 1269 22 21
f 1254 21 20
f 1239 20 19
f 18 1239 19
f 1209 18 17
f 1194 17 16
f 15 1194 16
f 14 1179 15
f 1149 14 13
f 12 1149 13
f 11 1134 12
f 1104 11 10
f 9 1104 10
f 1315 1329 1314
f 1316 1330 1315
f 1317 1331 1316
f 1317 1333 1332
f 1319 1333 1318
f 1319 1335 1334
f 1320 1336 1335
f 1322 1336 1321
f 1323 1337 1322
f 1324 1338 1323
f 1324 1340 1339
f 1325 1341 1340
f 1326 1342 1341
f 1327 1343 1342
f 1330 1344 1329
f 1331 1345 1330
f 1332 1346 1331
f 1333 1347 1332
f 1334 1348 1333
f 1335 1349 1334
f 1335 1351 1350
f 1337 1351 1336
f 1338 1352 1337
f 1339 1353 1338
f 1340 1354 1339
f 1340 1356 1355
f 1342 1356 1341
f 1343 1357 1342
f 1344 1360 1359
f 1345 1361 1360
f 1346 1362 1361
f 1347 1363 1362
f 1348 1364 1363
f 1350 1364 1349
f 1350 1366 1365
f 1352 1366 1351
f 1352 1368 1367
f 1354 1368 1353
f 1355 1369 1354
f 1356 1370 1355
f 1357 1371 1356
f 1358 1372 1357
f 1360 1374 1359
f 1361 1375 1360
f 1362 1376 1361
f 1362 1378 1377
f 1364 1378 1363
f 1365 1379 1364
f 1366 1380 1365
f 1367 1381 1366
f 1368 1382 1367
f 1369 1383 1368
f 1370 1384 1369
f 1370 1386 1385
f 1371 1387 1386
f 1373 1387 1372
f 1375 1389 1374
f 1375 1391 1390
f 1376 1392 1391
f 1378 1392 1377
f 1379 1393 1378
f 1379 1395 1394
f 1380 1396 1395
f 1381 1397 1396
f 1383 1397 1382
f 1383 1399 1398
f 1384 1400 1399
f 1386 1400 1385
f 1386 1402 1401
f 1387 1403 1402
f 1389 1405 1404
f 1390 1406 1405
f 1392 1406 1391
f 1393 1407 1392
f 1394 1408 1393
f 1395 1409 1394
f 1396 1410 1395
f 1397 1411 1396
f 1397 1413 1412
f 1399 1413 1398
f 1399 1415 1414
f 1401 1415 1400
f 1402 1416 1401
f 1403 1417 1402
f 1404 1420 1419
f 1406 1420 1405
f 1407 1421 1406
f 1407 1423 1422
f 1409 1423 1408
f 1410 1424 1409
f 1411 1425 1410
f 1411 1427 1426
f 1412 1428 1427
f 1413 1429 1428
f 1415 1429 1414
f 1415 1431 1430
f 1416 1432 1431
f 1418 1432 1417
f 1420 1434 1419
f 1421 1435 1420
f 1422 1436 1421
f 1423 1437 1422
f 1424 1438 1423
f 1425 1439 1424
f 1426 1440 1425
f 1427 1441 1426
f 1428 1442 1427
f 1429 1443 1428
f 1430 1444 1429
f 1430 1446 1445
f 1432 1446 1431
f 1433 1447 1432
f 1434 1450 1449
f 1436 1450 1435
f 1437 1451 1436
f 1437 1453 1452
f 1439 1453 1438
f 1439 1455 1454
f 1441 1455 1440
f 1442 1456 1441
f 1443 1457 1442
f 1443 1459 1458
f 1444 1460 1459
f 1446 1460 1445
f 1446 1462 1461
f 1447 1463 1462
f 1449 1465 1464
f 1451 1465 1450
f 1452 1466 1451
f 1452 1468 1467
f 1453 1469 1468
f 1455 1469 1454
f 1456 1470 1455
f 1457 1471 1456
f 1457 1473 1472
f 1459 1473 1458
f 1460 1474 1459
f 1461 1475 1460
f 1462 1476 1461
f 1463 1477 1462
f 1465 1479 1464
f 1465 1481 1480
f 1467 1481 1466
f 1468 1482 1467
f 1469 1483 1468
f 1470 1484 1469
f 1470 1486 1485
f 1472 1486 1471
f 1473 1487 1472
f 1474 1488 1473
f 1475 1489 1474
f 1476 1490 1475
f 1477 1491 1476
f 1478 1492 1477
f 1480 1494 1479
f 1481 1495 1480
f 1481 1497 1496
f 1483 1497 1482
f 1484 1498 1483
f 1484 1500 1499
f 1486 1500 1485
f 1487 1501 1486
f 1488 1502 1487
f 1488 1504 1503
f 1490 1504 1489
f 1491 1505 1490
f 1491 1507 1506
f 1492 1508 1507
f 1495 1509 1494
f 1495 1511 1510
f 1496 1512 1511
f 1497 1513 1512
f 1499 1513 1498
f 1500 1514 1499
f 1501 1515 1500
f 1502 1516 1501
f 1502 1518 1517
f 1504 1518 1503
f 1505 1519 1504
f 1506 1520 1505
f 1507 1521 1506
f 1508 1522 1507
f 1510 1524 1509
f 1510 1526 1525
f 1512 1526 1511
f 1513 1527 1512
f 1514 1528 1513
f 1515 1529 1514
f 1515 1531 1530
f 1517 1531 1516
f 1517 1533 1532
f 1519 1533 1518
f 1520 1534 1519
f 1521 1535 1520
f 1521 1537 1536
f 1523 1537 1522
f 98 129 8
f 97 1314 98
f 97 1316 1315
f 95 1316 96
f 94 1317 95
f 93 1318 94
f 93 1320 1319
f 92 1321 1320
f 90 1321 91
f 89 1322 90
f 89 1324 1323
f 87 1324 88
f 86 1325 87
f 85 1326 86
f 85 1328 1327
f 84 53 1328
f 1328 52 1343
f 52 1358 1343
f 1358 50 1373
f 50 1388 1373
f 1388 48 1403
f 48 1418 1403
f 47 1433 1418
f 1433 45 1448
f 1448 44 1463
f 44 1478 1463
f 43 1493 1478
f 1493 41 1508
f 1508 40 1523
f 40 1538 1523
f 39 188 1538
f 1538 187 1537
f 1536 187 186
f 1536 185 1535
f 1534 185 184
f 1534 183 1533
f 1532 183 182
f 1531 182 181
f 1530 181 180
f 1530 179 1529
f 1528 179 178
f 1528 177 1527
f 1527 176 1526
f 1526 175 1525
f 1525 174 1524
f 143 174 6
f 142 1524 143
f 1494 142 141
f 1479 141 140
f 1464 140 139
f 138 1464 139
f 1434 138 137
f 1419 137 136
f 135 1419 136
f 1389 135 134
f 1374 134 133
f 132 1374 133
f 131 1359 132
f 1329 131 130
f 1314 130 129
f 190 205 204
f 190 191 206
f 191 192 207
f 192 193 208
f 194 209 208
f 195 210 209
f 195 196 211
f 197 212 211
f 198 213 212
f 198 199 214
f 200 215 214
f 200 201 216
f 202 217 216
f 203 218 217
f 204 205 220
f 205 206 221
f 206 207 222
f 208 223 222
f 209 224 223
f 210 225 224
f 211 226 225
f 211 212 227
f 212 213 228
f 214 229 228
f 215 230 229
f 216 231 230
f 217 232 231
f 218 233 232
f 220 235 234
f 221 236 235
f 222 237 236
f 223 238 237
f 224 239 238
f 224 225 240
f 226 241 240
f 227 242 241
f 228 243 242
f 228 229 244
f 229 230 245
f 230 231 246
f 231 232 247
f 232 233 248
f 234 235 250
f 236 251 250
f 237 252 251
f 237 238 253
f 239 254 253
f 240 255 254
f 241 256 255
f 242 257 256
f 243 258 257
f 244 259 258
f 245 260 259
f 246 261 260
f 247 262 261
f 248 263 262
f 250 265 264
f 251 266 265
f 251 252 267
f 252 253 268
f 253 254 269
f 254 255 270
f 256 271 270
f 256 257 272
f 257 258 273
f 259 274 273
f 260 275 274
f 260 261 276
f 261 262 277
f 262 263 278
f 265 280 279
f 265 266 281
f 266 267 282
f 268 283 282
f 269 284 283
f 269 270 285
f 270 271 286
f 271 272 287
f 273 288 287
f 273 274 289
f 274 275 290
f 275 276 291
f 276 277 292
f 278 293 292
f 279 280 295
f 280 281 296
f 281 282 297
f 282 283 298
f 283 284 299
f 285 300 299
f 286 301 300
f 287 302 301
f 288 303 302
f 289 304 303
f 290 305 304
f 291 306 305
f 292 307 306
f 293 308 307
f 295 310 309
f 296 311 310
f 297 312 311
f 298 313 312
f 299 314 313
f 300 315 314
f 300 301 316
f 301 302 317
f 303 318 317
f 303 304 319
f 304 305 320
f 305 306 321
f 306 307 322
f 308 323 322
f 309 310 325
f 311 326 325
f 311 312 327
f 312 313 328
f 313 314 329
f 315 330 329
f 316 331 330
f 317 332 331
f 318 333 332
f 319 334 333
f 320 335 334
f 321 336 335
f 322 337 336
f 323 338 337
f 325 340 339
f 325 326 341
f 327 342 341
f 328 343 342
f 329 344 343
f 330 345 344
f 331 346 345
f 331 332 347
f 333 348 347
f 334 349 348
f 335 350 349
f 336 351 350
f 336 337 352
f 338 353 352
f 340 355 354
f 341 356 355
f 341 342 357
f 343 358 357
f 344 359 358
f 344 345 360
f 346 361 360
f 347 362 361
f 348 363 362
f 348 349 364
f 349 350 365
f 350 351 366
f 351 352 367
f 352 353 368
f 354 355 370
f 356 371 370
f 357 372 371
f 357 358 373
f 359 374 373
f 359 360 375
f 360 361 376
f 362 377 376
f 362 363 378
f 364 379 378
f 365 380 379
f 366 381 380
f 367 382 381
f 368 383 382
f 369 370 385
f 370 371 386
f 371 372 387
f 372 373 388
f 373 374 389
f 375 390 389
f 376 391 390
f 377 392 391
f 378 393 392
f 379 394 393
f 379 380 395
f 381 396 395
f 381 382 397
f 382 383 398
f 385 400 399
f 386 401 400
f 387 402 401
f 388 403 402
f 389 404 403
f 389 390 405
f 391 406 405
f 392 407 406
f 393 408 407
f 393 394 409
f 394 395 410
f 395 396 411
f 396 397 412
f 397 398 413
f 1 24 189
f 24 25 190
f 26 191 190
f 27 192 191
f 28 193 192
f 28 29 194
f 29 30 195
f 31 196 195
f 32 197 196
f 33 198 197
f 33 34 199
f 34 35 200
f 35 36 201
f 36 37 202
f 37 38 203
f 2 39 203
f 39 40 218
f 40 41 233
f 41 42 248
f 42 43 263
f 263 43 44
f 44 45 293
f 45 46 308
f 46 47 323
f 47 48 338
f 48 49 353
f 49 50 368
f 50 51 383
f 51 52 398
f 398 52 53
f 53 4 54
f 413 54 55
f 411 412 55
f 411 56 57
f 410 57 58
f 409 58 59
f 407 408 59
f 406 407 60
f 406 61 62
f 404 405 62
f 403 404 63
f 402 403 64
f 401 402 65
f 400 401 66
f 399 400 67
f 9 399 68
f 384 399 9
f 369 384 10
f 12 354 369
f 339 354 12
f 324 339 13
f 15 309 324
f 294 309 15
f 17 279 294
f 264 279 17
f 19 249 264
f 20 234 249
f 219 234 20
f 22 204 219
f 189 204 22
f 415 430 429
f 416 431 430
f 416 417 432
f 418 433 432
f 419 434 433
f 419 420 435
f 421 436 435
f 422 437 436
f 423 438 437
f 423 424 439
f 425 440 439
f 426 441 440
f 426 427 442
f 428 443 442
f 430 445 444
f 431 446 445
f 431 432 447
f 432 433 448
f 433 434 449
f 435 450 449
f 436 451 450
f 436 437 452
f 438 453 452
f 439 454 453
f 440 455 454
f 441 456 455
f 442 457 456
f 443 458 457
f 444 445 460
f 445 446 461
f 447 462 461
f 448 463 462
f 449 464 463
f 450 465 464
f 450 451 466
f 452 467 466
f 453 468 467
f 453 454 469
f 455 470 469
f 456 471 470
f 457 472 471
f 457 458 473
f 460 475 474
f 461 476 475
f 462 477 476
f 463 478 477
f 464 479 478
f 464 465 480
f 465 466 481
f 467 482 481
f 468 483 482
f 469 484 483
f 469 470 485
f 470 471 486
f 471 472 487
f 473 488 487
f 475 490 489
f 476 491 490
f 476 477 492
f 477 478 493
f 478 479 494
f 480 495 494
f 481 496 495
f 482 497 496
f 483 498 497
f 484 499 498
f 485 500 499
f 486 501 500
f 487 502 501
f 487 488 503
f 489 490 505
f 490 491 506
f 492 507 506
f 493 508 507
f 494 509 508
f 495 510 509
f 496 511 510
f 496 497 512
f 497 498 513
f 498 499 514
f 499 500 515
f 500 501 516
f 502 517 516
f 503 518 517
f 505 520 519
f 506 521 520
f 506 507 522
f 507 508 523
f 508 509 524
f 510 525 524
f 511 526 525
f 512 527 526
f 513 528 527
f 514 529 528
f 515 530 529
f 516 531 530
f 516 517 532
f 518 533 532
f 520 535 534
f 521 536 535
f 522 537 536
f 523 538 537
f 524 539 538
f 525 540 539
f 526 541 540
f 526 527 542
f 528 543 542
f 529 544 543
f 530 545 544
f 530 531 546
f 532 547 546
f 533 548 547
f 534 535 550
f 536 551 550
f 536 537 552
f 537 538 553
f 539 554 553
f 539 540 555
f 540 541 556
f 542 557 556
f 543 558 557
f 543 544 559
f 544 545 560
f 546 561 560
f 547 562 561
f 547 548 563
f 550 565 564
f 551 566 565
f 552 567 566
f 552 553 568
f 554 569 568
f 555 570 569
f 555 556 571
f 557 572 571
f 558 573 572
f 559 574 573
f 560 575 574
f 561 576 575
f 562 577 576
f 563 578 577
f 564 565 580
f 566 581 580
f 567 582 581
f 568 583 582
f 568 569 584
f 570 585 584
f 571 586 585
f 572 587 586
f 573 588 587
f 574 589 588
f 575 590 589
f 575 576 591
f 576 577 592
f 578 593 592
f 579 580 595
f 581 596 595
f 582 597 596
f 582 583 598
f 583 584 599
f 585 600 599
f 586 601 600
f 587 602 601
f 588 603 602
f 588 589 604
f 589 590 605
f 591 606 605
f 592 607 606
f 593 608 607
f 595 610 609
f 595 596 611
f 597 612 611
f 598 613 612
f 599 614 613
f 600 615 614
f 601 616 615
f 601 602 617
f 602 603 618
f 604 619 618
f 605 620 619
f 606 621 620
f 607 622 621
f 608 623 622
f 609 610 625
f 611 626 625
f 612 627 626
f 613 628 627
f 613 614 629
f 615 630 629
f 616 631 630
f 616 617 632
f 618 633 632
f 619 634 633
f 620 635 634
f 621 636 635
f 622 637 636
f 623 638 637
f 68 414 83
f 67 415 414
f 67 66 416
f 65 417 416
f 65 64 418
f 63 419 418
f 63 62 420
f 61 421 420
f 60 422 421
f 59 423 422
f 59 58 424
f 57 425 424
f 56 426 425
f 55 427 426
f 54 428 427
f 54 4 84
f 84 85 443
f 85 86 458
f 458 86 87
f 87 88 488
f 488 88 89
f 89 90 518
f 90 91 533
f 91 92 548
f 548 92 93
f 93 94 578
f 578 94 95
f 95 96 608
f 608 96 97
f 97 98 638
f 98 8 99
f 638 99 100
f 637 100 101
f 635 636 101
f 635 102 103
f 634 103 104
f 633 104 105
f 631 632 105
f 631 106 107
f 630 107 108
f 628 629 108
f 628 109 110
f 627 110 111
f 626 111 112
f 624 625 112
f 69 624 113
f 609 624 69
f 594 609 70
f 579 594 71
f 73 564 579
f 549 564 73
f 75 534 549
f 519 534 75
f 504 519 76
f 489 504 77
f 474 489 78
f 80 459 474
f 81 444 459
f 429 444 81
f 83 414 429
f 639 640 655
f 641 656 655
f 642 657 656
f 643 658 657
f 643 644 659
f 644 645 660
f 646 661 660
f 647 662 661
f 648 663 662
f 649 664 663
f 650 665 664
f 651 666 665
f 651 652 667
f 653 668 667
f 655 670 669
f 655 656 671
f 656 657 672
f 657 658 673
f 658 659 674
f 660 675 674
f 660 661 676
f 662 677 676
f 662 663 678
f 664 679 678
f 665 680 679
f 666 681 680
f 667 682 681
f 668 683 682
f 669 670 685
f 670 671 686
f 672 687 686
f 672 673 688
f 674 689 688
f 675 690 689
f 675 676 691
f 677 692 691
f 677 678 693
f 679 694 693
f 680 695 694
f 681 696 695
f 682 697 696
f 682 683 698
f 685 700 699
f 686 701 700
f 687 702 701
f 688 703 702
f 689 704 703
f 689 690 705
f 691 706 705
f 692 707 706
f 693 708 707
f 694 709 708
f 695 710 709
f 695 696 711
f 696 697 712
f 698 713 712
f 700 715 714
f 700 701 716
f 701 702 717
f 702 703 718
f 703 704 719
f 705 720 719
f 706 721 720
f 707 722 721
f 708 723 722
f 709 724 723
f 710 725 724
f 711 726 725
f 712 727 726
f 712 713 728
f 714 715 730
f 715 716 731
f 717 732 731
f 718 733 732
f 719 734 733
f 720 735 734
f 721 736 735
f 722 737 736
f 722 723 738
f 724 739 738
f 724 725 740
f 725 726 741
f 727 742 741
f 728 743 742
f 730 745 744
f 731 746 745
f 731 732 747
f 732 733 748
f 734 749 748
f 735 750 749
f 736 751 750
f 737 752 751
f 738 753 752
f 739 754 753
f 740 755 754
f 741 756 755
f 742 757 756
f 743 758 757
f 745 760 759
f 746 761 760
f 747 762 761
f 748 763 762
f 749 764 763
f 750 765 764
f 751 766 765
f 751 752 767
f 753 768 767
f 754 769 768
f 755 770 769
f 755 756 771
f 756 757 772
f 758 773 772
f 759 760 775
f 761 776 775
f 761 762 777
f 762 763 778
f 764 779 778
f 765 780 779
f 765 766 781
f 767 782 781
f 768 783 782
f 768 769 784
f 769 770 785
f 771 786 785
f 771 772 787
f 772 773 788
f 775 790 789
f 776 791 790
f 777 792 791
f 778 793 792
f 778 779 794
f 780 795 794
f 781 796 795
f 782 797 796
f 782 783 798
f 784 799 798
f 785 800 799
f 786 801 800
f 787 802 801
f 788 803 802
f 789 790 805
f 791 806 805
f 792 807 806
f 793 808 807
f 794 809 808
f 795 810 809
f 796 811 810
f 797 812 811
f 798 813 812
f 799 814 813
f 800 815 814
f 800 801 816
f 801 802 817
f 802 803 818
f 804 805 820
f 805 806 821
f 806 807 822
f 807 808 823
f 809 824 823
f 810 825 824
f 811 826 825
f 812 827 826
f 813 828 827
f 813 814 829
f 815 830 829
f 816 831 830
f 817 832 831
f 818 833 832
f 820 835 834
f 821 836 835
f 822 837 836
f 823 838 837
f 824 839 838
f 824 825 840
f 825 826 841
f 826 827 842
f 828 843 842
f 829 844 843
f 830 845 844
f 831 846 845
f 831 832 847
f 833 848 847
f 835 850 849
f 836 851 850
f 837 852 851
f 838 853 852
f 839 854 853
f 840 855 854
f 841 856 855
f 842 857 856
f 843 858 857
f 844 859 858
f 845 860 859
f 846 861 860
f 847 862 861
f 848 863 862
f 113 639 128
f 112 640 639
f 111 641 640
f 110 642 641
f 110 109 643
f 108 644 643
f 108 107 645
f 106 646 645
f 105 647 646
f 105 104 648
f 104 103 649
f 102 650 649
f 101 651 650
f 101 100 652
f 100 99 653
f 99 8 129
f 129 130 668
f 130 131 683
f 683 131 132
f 132 133 713
f 713 133 134
f 134 135 743
f 135 136 758
f 136 137 773
f 773 137 138
f 138 139 803
f 139 140 818
f 140 141 833
f 833 141 142
f 142 143 863
f 143 6 144
f 863 144 145
f 862 145 146
f 860 861 146
f 860 147 148
f 858 859 148
f 857 858 149
f 856 857 150
f 855 856 151
f 855 152 153
f 853 854 153
f 853 154 155
f 852 155 156
f 851 156 157
f 849 850 157
f 114 849 158
f 834 849 114
f 819 834 115
f 804 819 116
f 118 789 804
f 774 789 118
f 120 759 774
f 744 759 120
f 122 729 744
f 714 729 122
f 699 714 123
f 125 684 699
f 669 684 125
f 654 669 126
f 128 639 654
f 865 880 879
f 866 881 880
f 866 867 882
f 868 883 882
f 869 884 883
f 869 870 885
f 871 886 885
f 872 887 886
f 873 888 887
f 873 874 889
f 875 890 889
f 876 891 890
f 876 877 892
f 878 893 892
f 880 895 894
f 881 896 895
f 881 882 897
f 882 883 898
f 883 884 899
f 885 900 899
f 886 901 900
f 886 887 902
f 888 903 902
f 889 904 903
f 890 905 904
f 891 906 905
f 892 907 906
f 893 908 907
f 894 895 910
f 895 896 911
f 897 912 911
f 898 913 912
f 899 914 913
f 900 915 914
f 900 901 916
f 902 917 916
f 903 918 917
f 903 904 919
f 905 920 919
f 906 921 920
f 907 922 921
f 907 908 923
f 910 925 924
f 911 926 925
f 912 927 926
f 913 928 927
f 914 929 928
f 914 915 930
f 915 916 931
f 917 932 931
f 918 933 932
f 919 934 933
f 919 920 935
f 920 921 936
f 921 922 937
f 923 938 937
f 925 940 939
f 926 941 940
f 926 927 942
f 927 928 943
f 928 929 944
f 930 945 944
f 931 946 945
f 932 947 946
f 933 948 947
f 934 949 948
f 935 950 949
f 936 951 950
f 937 952 951
f 937 938 953
f 939 940 955
f 940 941 956
f 942 957 956
f 943 958 957
f 944 959 958
f 945 960 959
f 946 961 960
f 946 947 962
f 947 948 963
f 948 949 964
f 949 950 965
f 950 951 966
f 952 967 966
f 953 968 967
f 955 970 969
f 956 971 970
f 956 957 972
f 957 958 973
f 958 959 974
f 960 975 974
f 961 976 975
f 962 977 976
f 963 978 977
f 964 979 978
f 965 980 979
f 966 981 980
f 966 967 982
f 968 983 982
f 970 985 984
f 971 986 985
f 972 987 986
f 973 988 987
f 974 989 988
f 975 990 989
f 976 991 990
f 976 977 992
f 978 993 992
f 979 994 993
f 980 995 994
f 980 981 996
f 982 997 996
f 983 998 997
f 984 985 1000
f 986 1001 1000
f 986 987 1002
f 987 988 1003
f 989 1004 1003
f 989 990 1005
f 990 991 1006
f 992 1007 1006
f 993 1008 1007
f 993 994 1009
f 994 995 1010
f 996 1011 1010
f 997 1012 1011
f 997 998 1013
f 1000 1015 1014
f 1001 1016 1015
f 1002 1017 1016
f 1002 1003 1018
f 1004 1019 1018
f 1005 1020 1019
f 1005 1006 1021
f 1007 1022 1021
f 1008 1023 1022
f 1009 1024 1023
f 1010 1025 1024
f 1011 1026 1025
f 1012 1027 1026
f 1013 1028 1027
f 1014 1015 1030
f 1016 1031 1030
f 1017 1032 1031
f 1018 1033 1032
f 1018 1019 1034
f 1020 1035 1034
f 1021 1036 1035
f 1022 1037 1036
f 1023 1038 1037
f 1024 1039 1038
f 1025 1040 1039
f 1025 1026 1041
f 1026 1027 1042
f 1028 1043 1042
f 1029 1030 1045
f 1031 1046 1045
f 1032 1047 1046
f 1032 1033 1048
f 1033 1034 1049
f 1035 1050 1049
f 1036 1051 1050
f 1037 1052 1051
f 1038 1053 1052
f 1038 1039 1054
f 1039 1040 1055
f 1041 1056 1055
f 1042 1057 1056
f 1043 1058 1057
f 1045 1060 1059
f 1045 1046 1061
f 1047 1062 1061
f 1048 1063 1062
f 1049 1064 1063
f 1050 1065 1064
f 1051 1066 1065
f 1051 1052 1067
f 1052 1053 1068
f 1054 1069 1068
f 1055 1070 1069
f 1056 1071 1070
f 1057 1072 1071
f 1058 1073 1072
f 1059 1060 1075
f 1061 1076 1075
f 1062 1077 1076
f 1063 1078 1077
f 1063 1064 1079
f 1065 1080 1079
f 1066 1081 1080
f 1066 1067 1082
f 1068 1083 1082
f 1069 1084 1083
f 1070 1085 1084
f 1071 1086 1085
f 1072 1087 1086
f 1073 1088 1087
f 158 864 173
f 157 865 864
f 156 866 865
f 156 155 867
f 155 154 868
f 153 869 868
f 153 152 870
f 151 871 870
f 150 872 871
f 149 873 872
f 149 148 874
f 147 875 874
f 146 876 875
f 146 145 877
f 145 144 878
f 144 6 174
f 174 175 893
f 175 176 908
f 908 176 177
f 177 178 938
f 938 178 179
f 179 180 968
f 180 181 983
f 181 182 998
f 998 182 183
f 183 184 1028
f 1028 184 185
f 185 186 1058
f 1058 186 187
f 187 188 1088
f 188 2 38
f 1087 1088 38
f 1087 37 36
f 1086 36 35
f 1085 35 34
f 1084 34 33
f 1082 1083 33
f 1081 1082 32
f 1081 31 30
f 1080 30 29
f 1078 1079 29
f 1078 28 27
f 1077 27 26
f 1075 1076 26
f 1075 25 24
f 159 1074 24
f 1059 1074 159
f 1044 1059 160
f 1029 1044 161
f 163 1014 1029
f 999 1014 163
f 165 984 999
f 969 984 165
f 954 969 166
f 939 954 167
f 924 939 168
f 170 909 924
f 171 894 909
f 879 894 171
f 173 864 879
f 1090 1105 1104
f 1091 1106 1105
f 1092 1107 1106
f 1092 1093 1108
f 1094 1109 1108
f 1094 1095 1110
f 1095 1096 1111
f 1097 1112 1111
f 1098 1113 1112
f 1099 1114 1113
f 1099 1100 1115
f 1100 1101 1116
f 1101 1102 1117
f 1102 1103 1118
f 1105 1120 1119
f 1106 1121 1120
f 1107 1122 1121
f 1108 1123 1122
f 1109 1124 1123
f 1110 1125 1124
f 1110 1111 1126
f 1112 1127 1126
f 1113 1128 1127
f 1114 1129 1128
f 1115 1130 1129
f 1115 1116 1131
f 1117 1132 1131
f 1118 1133 1132
f 1119 1120 1135
f 1120 1121 1136
f 1121 1122 1137
f 1122 1123 1138
f 1123 1124 1139
f 1125 1140 1139
f 1125 1126 1141
f 1127 1142 1141
f 1127 1128 1143
f 1129 1144 1143
f 1130 1145 1144
f 1131 1146 1145
f 1132 1147 1146
f 1133 1148 1147
f 1135 1150 1149
f 1136 1151 1150
f 1137 1152 1151
f 1137 1138 1153
f 1139 1154 1153
f 1140 1155 1154
f 1141 1156 1155
f 1142 1157 1156
f 1143 1158 1157
f 1144 1159 1158
f 1145 1160 1159
f 1145 1146 1161
f 1146 1147 1162
f 1148 1163 1162
f 1150 1165 1164
f 1150 1151 1166
f 1151 1152 1167
f 1153 1168 1167
f 1154 1169 1168
f 1154 1155 1170
f 1155 1156 1171
f 1156 1157 1172
f 1158 1173 1172
f 1158 1159 1174
f 1159 1160 1175
f 1161 1176 1175
f 1161 1162 1177
f 1162 1163 1178
f 1164 1165 1180
f 1165 1166 1181
f 1167 1182 1181
f 1168 1183 1182
f 1169 1184 1183
f 1170 1185 1184
f 1171 1186 1185
f 1172 1187 1186
f 1172 1173 1188
f 1174 1189 1188
f 1174 1175 1190
f 1176 1191 1190
f 1177 1192 1191
f 1178 1193 1192
f 1179 1180 1195
f 1181 1196 1195
f 1182 1197 1196
f 1182 1183 1198
f 1184 1199 1198
f 1185 1200 1199
f 1186 1201 1200
f 1186 1187 1202
f 1187 1188 1203
f 1188 1189 1204
f 1190 1205 1204
f 1190 1191 1206
f 1191 1192 1207
f 1193 1208 1207
f 1195 1210 1209
f 1196 1211 1210
f 1197 1212 1211
f 1198 1213 1212
f 1199 1214 1213
f 1200 1215 1214
f 1201 1216 1215
f 1202 1217 1216
f 1203 1218 1217
f 1204 1219 1218
f 1205 1220 1219
f 1205 1206 1221
f 1207 1222 1221
f 1208 1223 1222
f 1209 1210 1225
f 1211 1226 1225
f 1212 1227 1226
f 1212 1213 1228
f 1214 1229 1228
f 1214 1215 1230
f 1216 1231 1230
f 1217 1232 1231
f 1218 1233 1232
f 1218 1219 1234
f 1219 1220 1235
f 1221 1236 1235
f 1221 1222 1237
f 1222 1223 1238
f 1224 1225 1240
f 1226 1241 1240
f 1227 1242 1241
f 1227 1228 1243
f 1228 1229 1244
f 1230 1245 1244
f 1231 1246 1245
f 1232 1247 1246
f 1232 1233 1248
f 1234 1249 1248
f 1235 1250 1249
f 1236 1251 1250
f 1237 1252 1251
f 1238 1253 1252
f 1240 1255 1254
f 1240 1241 1256
f 1242 1257 1256
f 1243 1258 1257
f 1244 1259 1258
f 1245 1260 1259
f 1245 1246 1261
f 1247 1262 1261
f 1248 1263 1262
f 1249 1264 1263
f 1250 1265 1264
f 1251 1266 1265
f 1252 1267 1266
f 1253 1268 1267
f 1255 1270 1269
f 1256 1271 1270
f 1256 1257 1272
f 1258 1273 1272
f 1259 1274 1273
f 1259 1260 1275
f 1261 1276 1275
f 1262 1277 1276
f 1263 1278 1277
f 1263 1264 1279
f 1265 1280 1279
f 1266 1281 1280
f 1266 1267 1282
f 1267 1268 1283
f 1270 1285 1284
f 1270 1271 1286
f 1271 1272 1287
f 1272 1273 1288
f 1274 1289 1288
f 1275 1290 1289
f 1276 1291 1290
f 1277 1292 1291
f 1277 1278 1293
f 1279 1294 1293
f 1280 1295 1294
f 1281 1296 1295
f 1282 1297 1296
f 1283 1298 1297
f 1285 1300 1299
f 1285 1286 1301
f 1287 1302 1301
f 1288 1303 1302
f 1289 1304 1303
f 1290 1305 1304
f 1290 1291 1306
f 1292 1307 1306
f 1292 1293 1308
f 1294 1309 1308
f 1295 1310 1309
f 1296 1311 1310
f 1296 1297 1312
f 1298 1313 1312
f 83 1089 9
f 83 82 1090
f 81 1091 1090
f 80 1092 1091
f 79 1093 1092
f 78 1094 1093
f 78 77 1095
f 77 76 1096
f 75 1097 1096
f 74 1098 1097
f 74 73 1099
f 72 1100 1099
f 71 1101 1100
f 70 1102 1101
f 69 1103 1102
f 69 7 128
f 1103 128 127
f 1118 127 126
f 126 125 1148
f 125 124 1163
f 1163 124 123
f 123 122 1193
f 122 121 1208
f 1208 121 120
f 1223 120 119
f 119 118 1253
f 118 117 1268
f 1268 117 116
f 116 115 1298
f 1298 115 114
f 114 5 173
f 1313 173 172
f 1312 172 171
f 1310 1311 171
f 1309 1310 170
f 1309 169 168
f 1307 1308 168
f 1307 167 166
f 1306 166 165
f 1305 165 164
f 1303 1304 164
f 1303 163 162
f 1302 162 161
f 1301 161 160
f 1300 160 159
f 23 1299 159
f 22 1284 1299
f 1269 1284 22
f 1254 1269 21
f 1239 1254 20
f 18 1224 1239
f 1209 1224 18
f 1194 1209 17
f 15 1179 1194
f 14 1164 1179
f 1149 1164 14
f 12 1134 1149
f 11 1119 1134
f 1104 1119 11
f 9 1089 1104
f 1315 1330 1329
f 1316 1331 1330
f 1317 1332 1331
f 1317 1318 1333
f 1319 1334 1333
f 1319 1320 1335
f 1320 1321 1336
f 1322 1337 1336
f 1323 1338 1337
f 1324 1339 1338
f 1324 1325 1340
f 1325 1326 1341
f 1326 1327 1342
f 1327 1328 1343
f 1330 1345 1344
f 1331 1346 1345
f 1332 1347 1346
f 1333 1348 1347
f 1334 1349 1348
f 1335 1350 1349
f 1335 1336 1351
f 1337 1352 1351
f 1338 1353 1352
f 1339 1354 1353
f 1340 1355 1354
f 1340 1341 1356
f 1342 1357 1356
f 1343 1358 1357
f 1344 1345 1360
f 1345 1346 1361
f 1346 1347 1362
f 1347 1348 1363
f 1348 1349 1364
f 1350 1365 1364
f 1350 1351 1366
f 1352 1367 1366
f 1352 1353 1368
f 1354 1369 1368
f 1355 1370 1369
f 1356 1371 1370
f 1357 1372 1371
f 1358 1373 1372
f 1360 1375 1374
f 1361 1376 1375
f 1362 1377 1376
f 1362 1363 1378
f 1364 1379 1378
f 1365 1380 1379
f 1366 1381 1380
f 1367 1382 1381
f 1368 1383 1382
f 1369 1384 1383
f 1370 1385 1384
f 1370 1371 1386
f 1371 1372 1387
f 1373 1388 1387
f 1375 1390 1389
f 1375 1376 1391
f 1376 1377 1392
f 1378 1393 1392
f 1379 1394 1393
f 1379 1380 1395
f 1380 1381 1396
f 1381 1382 1397
f 1383 1398 1397
f 1383 1384 1399
f 1384 1385 1400
f 1386 1401 1400
f 1386 1387 1402
f 1387 1388 1403
f 1389 1390 1405
f 1390 1391 1406
f 1392 1407 1406
f 1393 1408 1407
f 1394 1409 1408
f 1395 1410 1409
f 1396 1411 1410
f 1397 1412 1411
f 1397 1398 1413
f 1399 1414 1413
f 1399 1400 1415
f 1401 1416 1415
f 1402 1417 1416
f 1403 1418 1417
f 1404 1405 1420
f 1406 1421 1420
f 1407 1422 1421
f 1407 1408 1423
f 1409 1424 1423
f 1410 1425 1424
f 1411 1426 1425
f 1411 1412 1427
f 1412 1413 1428
f 1413 1414 1429
f 1415 1430 1429
f 1415 1416 1431
f 1416 1417 1432
f 1418 1433 1432
f 1420 1435 1434
f 1421 1436 1435
f 1422 1437 1436
f 1423 1438 1437
f 1424 1439 1438
f 1425 1440 1439
f 1426 1441 1440
f 1427 1442 1441
f 1428 1443 1442
f 1429 1444 1443
f 1430 1445 1444
f 1430 1431 1446
f 1432 1447 1446
f 1433 1448 1447
f 1434 1435 1450
f 1436 1451 1450
f 1437 1452 1451
f 1437 1438 1453
f 1439 1454 1453
f 1439 1440 1455
f 1441 1456 1455
f 1442 1457 1456
f 1443 1458 1457
f 1443 1444 1459
f 1444 1445 1460
f 1446 1461 1460
f 1446 1447 1462
f 1447 1448 1463
f 1449 1450 1465
f 1451 1466 1465
f 1452 1467 1466
f 1452 1453 1468
f 1453 1454 1469
f 1455 1470 1469
f 1456 1471 1470
f 1457 1472 1471
f 1457 1458 1473
f 1459 1474 1473
f 1460 1475 1474
f 1461 1476 1475
f 1462 1477 1476
f 1463 1478 1477
f 1465 1480 1479
f 1465 1466 1481
f 1467 1482 1481
f 1468 1483 1482
f 1469 1484 1483
f 1470 1485 1484
f 1470 1471 1486
f 1472 1487 1486
f 1473 1488 1487
f 1474 1489 1488
f 1475 1490 1489
f 1476 1491 1490
f 1477 1492 1491
f 1478 1493 1492
f 1480 1495 1494
f 1481 1496 1495
f 1481 1482 1497
f 1483 1498 1497
f 1484 1499 1498
f 1484 1485 1500
f 1486 1501 1500
f 1487 1502 1501
f 1488 1503 1502
f 1488 1489 1504
f 1490 1505 1504
f 1491 1506 1505
f 1491 1492 1507
f 1492 1493 1508
f 1495 1510 1509
f 1495 1496 1511
f 1496 1497 1512
f 1497 1498 1513
f 1499 1514 1513
f 1500 1515 1514
f 1501 1516 1515
f 1502 1517 1516
f 1502 1503 1518
f 1504 1519 1518
f 1505 1520 1519
f 1506 1521 1520
f 1507 1522 1521
f 1508 1523 1522
f 1510 1525 1524
f 1510 1511 1526
f 1512 1527 1526
f 1513 1528 1527
f 1514 1529 1528
f 1515 1530 1529
f 1515 1516 1531
f 1517 1532 1531
f 1517 1518 1533
f 1519 1534 1533
f 1520 1535 1534
f 1521 1536 1535
f 1521 1522 1537
f 1523 1538 1537
f 98 1314 129
f 97 1315 1314
f 97 96 1316
f 95 1317 1316
f 94 1318 1317
f 93 1319 1318
f 93 92 1320
f 92 91 1321
f 90 1322 1321
f 89 1323 1322
f 89 88 1324
f 87 1325 1324
f 86 1326 1325
f 85 1327 1326
f 85 84 1328
f 84 4 53
f 1328 53 52
f 52 51 1358
f 1358 51 50
f 50 49 1388
f 1388 49 48
f 48 47 1418
f 47 46 1433
f 1433 46 45
f 1448 45 44
f 44 43 1478
f 43 42 1493
f 1493 42 41
f 1508 41 40
f 40 39 1538
f 39 2 188
f 1538 188 187
f 1536 1537 187
f 1536 186 185
f 1534 1535 185
f 1534 184 183
f 1532 1533 183
f 1531 1532 182
f 1530 1531 181
f 1530 180 179
f 1528 1529 179
f 1528 178 177
f 1527 177 176
f 1526 176 175
f 1525 175 174
f 143 1524 174
f 142 1509 1524
f 1494 1509 142
f 1479 1494 141
f 1464 1479 140
f 138 1449 1464
f 1434 1449 138
f 1419 1434 137
f 135 1404 1419
f 1389 1404 135
f 1374 1389 134
f 132 1359 1374
f 131 1344 1359
f 1329 1344 131
f 1314 1329 130
