# Blender 4.4.3
# www.blender.org
o brick_x-5-0
v -0.193531 -0.314162 1.097239
v -0.193786 -0.013288 1.145448
v -0.193962 -0.290813 0.951514
v -0.194217 0.010061 0.999723
v 0.038647 -0.313863 1.096601
v 0.038392 -0.012989 1.144810
v 0.038217 -0.290514 0.950876
v 0.037962 0.010360 0.999085
v -0.193935 -0.292272 0.960622
v -0.193908 -0.293732 0.969729
v -0.193881 -0.295191 0.978837
v -0.193854 -0.296650 0.987945
v -0.193827 -0.298110 0.997053
v -0.193800 -0.299569 1.006161
v -0.193773 -0.301028 1.015268
v -0.193747 -0.302488 1.024376
v -0.193720 -0.303947 1.033484
v -0.193693 -0.305406 1.042592
v -0.193666 -0.306866 1.051700
v -0.193639 -0.308325 1.060807
v -0.193612 -0.309784 1.069915
v -0.193585 -0.311244 1.079023
v -0.193558 -0.312703 1.088131
v -0.193547 -0.295358 1.100252
v -0.193563 -0.276553 1.103265
v -0.193579 -0.257748 1.106278
v -0.193595 -0.238944 1.109291
v -0.193611 -0.220139 1.112304
v -0.193627 -0.201335 1.115317
v -0.193643 -0.182530 1.118330
v -0.193659 -0.163725 1.121343
v -0.193675 -0.144921 1.124356
v -0.193691 -0.126116 1.127369
v -0.193707 -0.107311 1.130382
v -0.193722 -0.088507 1.133395
v -0.193738 -0.069702 1.136409
v -0.193754 -0.050897 1.139422
v -0.193770 -0.032093 1.142435
v -0.193813 -0.011829 1.136340
v -0.193840 -0.010369 1.127232
v -0.193867 -0.008910 1.118124
v -0.193894 -0.007451 1.109017
v -0.193921 -0.005991 1.099909
v -0.193948 -0.004532 1.090801
v -0.193975 -0.003073 1.081693
v -0.194001 -0.001614 1.072585
v -0.194028 -0.000154 1.063478
v -0.194055 0.001305 1.054370
v -0.194082 0.002764 1.045262
v -0.194109 0.004224 1.036154
v -0.194136 0.005683 1.027047
v -0.194163 0.007142 1.017939
v -0.194190 0.008602 1.008831
v -0.194201 -0.008744 0.996710
v -0.194185 -0.027548 0.993697
v -0.194169 -0.046353 0.990684
v -0.194153 -0.065157 0.987671
v -0.194137 -0.083962 0.984658
v -0.194121 -0.102767 0.981645
v -0.194105 -0.121571 0.978632
v -0.194089 -0.140376 0.975619
v -0.194073 -0.159181 0.972605
v -0.194057 -0.177985 0.969592
v -0.194041 -0.196790 0.966579
v -0.194026 -0.215595 0.963566
v -0.194010 -0.234399 0.960553
v -0.193994 -0.253204 0.957540
v -0.193978 -0.272009 0.954527
v 0.023706 -0.290533 0.950916
v 0.009194 -0.290552 0.950956
v -0.005317 -0.290570 0.950996
v -0.019828 -0.290589 0.951035
v -0.034339 -0.290608 0.951075
v -0.048850 -0.290626 0.951115
v -0.063361 -0.290645 0.951155
v -0.077873 -0.290664 0.951195
v -0.092384 -0.290682 0.951235
v -0.106895 -0.290701 0.951275
v -0.121406 -0.290720 0.951315
v -0.135917 -0.290738 0.951354
v -0.150428 -0.290757 0.951394
v -0.164939 -0.290776 0.951434
v -0.179451 -0.290794 0.951474
v -0.179706 0.010080 0.999683
v -0.165194 0.010098 0.999643
v -0.150683 0.010117 0.999604
v -0.136172 0.010136 0.999564
v -0.121661 0.010155 0.999524
v -0.107150 0.010173 0.999484
v -0.092639 0.010192 0.999444
v -0.078127 0.010211 0.999404
v -0.063616 0.010229 0.999364
v -0.049105 0.010248 0.999325
v -0.034594 0.010267 0.999285
v -0.020083 0.010285 0.999245
v -0.005572 0.010304 0.999205
v 0.008939 0.010323 0.999165
v 0.023451 0.010341 0.999125
v 0.037978 -0.008445 0.996072
v 0.037994 -0.027249 0.993059
v 0.038010 -0.046054 0.990046
v 0.038026 -0.064859 0.987033
v 0.038041 -0.083663 0.984020
v 0.038057 -0.102468 0.981007
v 0.038073 -0.121272 0.977994
v 0.038089 -0.140077 0.974981
v 0.038105 -0.158882 0.971967
v 0.038121 -0.177686 0.968954
v 0.038137 -0.196491 0.965941
v 0.038153 -0.215296 0.962928
v 0.038169 -0.234100 0.959915
v 0.038185 -0.252905 0.956902
v 0.038201 -0.271710 0.953889
v 0.038620 -0.312404 1.087493
v 0.038593 -0.310945 1.078385
v 0.038566 -0.309485 1.069277
v 0.038540 -0.308026 1.060169
v 0.038513 -0.306567 1.051062
v 0.038486 -0.305108 1.041954
v 0.038459 -0.303648 1.032846
v 0.038432 -0.302189 1.023738
v 0.038405 -0.300730 1.014630
v 0.038378 -0.299270 1.005523
v 0.038351 -0.297811 0.996415
v 0.038324 -0.296352 0.987307
v 0.038297 -0.294892 0.978199
v 0.038270 -0.293433 0.969091
v 0.038244 -0.291974 0.959984
v 0.037989 0.008901 1.008193
v 0.038016 0.007441 1.017301
v 0.038043 0.005982 1.026409
v 0.038069 0.004523 1.035516
v 0.038096 0.003063 1.044624
v 0.038123 0.001604 1.053732
v 0.038150 0.000145 1.062840
v 0.038177 -0.001315 1.071948
v 0.038204 -0.002774 1.081055
v 0.038231 -0.004233 1.090163
v 0.038258 -0.005693 1.099271
v 0.038285 -0.007152 1.108379
v 0.038312 -0.008611 1.117486
v 0.038338 -0.010071 1.126594
v 0.038365 -0.011530 1.135702
v 0.038408 -0.031794 1.141797
v 0.038424 -0.050598 1.138784
v 0.038440 -0.069403 1.135771
v 0.038456 -0.088208 1.132758
v 0.038472 -0.107012 1.129744
v 0.038488 -0.125817 1.126731
v 0.038504 -0.144622 1.123718
v 0.038520 -0.163426 1.120705
v 0.038536 -0.182231 1.117692
v 0.038552 -0.201036 1.114679
v 0.038567 -0.219840 1.111666
v 0.038583 -0.238645 1.108653
v 0.038599 -0.257450 1.105640
v 0.038615 -0.276254 1.102627
v 0.038631 -0.295059 1.099614
v -0.179020 -0.314144 1.097199
v -0.164509 -0.314125 1.097159
v -0.149998 -0.314106 1.097119
v -0.135487 -0.314088 1.097079
v -0.120976 -0.314069 1.097039
v -0.106464 -0.314050 1.096999
v -0.091953 -0.314032 1.096959
v -0.077442 -0.314013 1.096920
v -0.062931 -0.313994 1.096880
v -0.048420 -0.313976 1.096840
v -0.033909 -0.313957 1.096800
v -0.019397 -0.313938 1.096760
v -0.004886 -0.313920 1.096720
v 0.009625 -0.313901 1.096680
v 0.024136 -0.313882 1.096640
v 0.023881 -0.013008 1.144850
v 0.009370 -0.013027 1.144890
v -0.005141 -0.013045 1.144930
v -0.019652 -0.013064 1.144969
v -0.034164 -0.013083 1.145009
v -0.048675 -0.013101 1.145049
v -0.063186 -0.013120 1.145089
v -0.077697 -0.013139 1.145129
v -0.092208 -0.013157 1.145169
v -0.106719 -0.013176 1.145209
v -0.121230 -0.013195 1.145248
v -0.135742 -0.013213 1.145288
v -0.150253 -0.013232 1.145328
v -0.164764 -0.013251 1.145368
v -0.179275 -0.013269 1.145408
v -0.193574 -0.293898 1.091144
v -0.193590 -0.275094 1.094157
v -0.193606 -0.256289 1.097170
v -0.193622 -0.237484 1.100183
v -0.193638 -0.218680 1.103196
v -0.193654 -0.199875 1.106209
v -0.193670 -0.181071 1.109222
v -0.193686 -0.162266 1.112235
v -0.193702 -0.143461 1.115248
v -0.193718 -0.124657 1.118262
v -0.193733 -0.105852 1.121275
v -0.193749 -0.087047 1.124288
v -0.193765 -0.068243 1.127301
v -0.193781 -0.049438 1.130314
v -0.193797 -0.030633 1.133327
v -0.193601 -0.292439 1.082036
v -0.193617 -0.273634 1.085049
v -0.193633 -0.254830 1.088062
v -0.193649 -0.236025 1.091075
v -0.193665 -0.217221 1.094088
v -0.193681 -0.198416 1.097101
v -0.193697 -0.179611 1.100114
v -0.193713 -0.160807 1.103128
v -0.193728 -0.142002 1.106141
v -0.193744 -0.123197 1.109154
v -0.193760 -0.104393 1.112167
v -0.193776 -0.085588 1.115180
v -0.193792 -0.066783 1.118193
v -0.193808 -0.047979 1.121206
v -0.193824 -0.029174 1.124219
v -0.193628 -0.290980 1.072928
v -0.193644 -0.272175 1.075941
v -0.193660 -0.253370 1.078954
v -0.193676 -0.234566 1.081967
v -0.193692 -0.215761 1.084980
v -0.193708 -0.196957 1.087994
v -0.193724 -0.178152 1.091007
v -0.193739 -0.159347 1.094020
v -0.193755 -0.140543 1.097033
v -0.193771 -0.121738 1.100046
v -0.193787 -0.102933 1.103059
v -0.193803 -0.084129 1.106072
v -0.193819 -0.065324 1.109085
v -0.193835 -0.046519 1.112098
v -0.193851 -0.027715 1.115111
v -0.193655 -0.289520 1.063820
v -0.193671 -0.270716 1.066833
v -0.193687 -0.251911 1.069847
v -0.193703 -0.233106 1.072860
v -0.193719 -0.214302 1.075873
v -0.193734 -0.195497 1.078886
v -0.193750 -0.176693 1.081899
v -0.193766 -0.157888 1.084912
v -0.193782 -0.139083 1.087925
v -0.193798 -0.120279 1.090938
v -0.193814 -0.101474 1.093951
v -0.193830 -0.082669 1.096964
v -0.193846 -0.063865 1.099977
v -0.193862 -0.045060 1.102991
v -0.193878 -0.026255 1.106004
v -0.193682 -0.288061 1.054713
v -0.193698 -0.269256 1.057726
v -0.193714 -0.250452 1.060739
v -0.193730 -0.231647 1.063752
v -0.193745 -0.212843 1.066765
v -0.193761 -0.194038 1.069778
v -0.193777 -0.175233 1.072791
v -0.193793 -0.156429 1.075804
v -0.193809 -0.137624 1.078817
v -0.193825 -0.118819 1.081830
v -0.193841 -0.100015 1.084844
v -0.193857 -0.081210 1.087857
v -0.193873 -0.062405 1.090870
v -0.193889 -0.043601 1.093883
v -0.193905 -0.024796 1.096896
v -0.193709 -0.286602 1.045605
v -0.193725 -0.267797 1.048618
v -0.193741 -0.248992 1.051631
v -0.193756 -0.230188 1.054644
v -0.193772 -0.211383 1.057657
v -0.193788 -0.192579 1.060670
v -0.193804 -0.173774 1.063683
v -0.193820 -0.154969 1.066696
v -0.193836 -0.136165 1.069710
v -0.193852 -0.117360 1.072723
v -0.193868 -0.098555 1.075736
v -0.193884 -0.079751 1.078749
v -0.193900 -0.060946 1.081762
v -0.193916 -0.042141 1.084775
v -0.193932 -0.023337 1.087788
v -0.193736 -0.285142 1.036497
v -0.193752 -0.266338 1.039510
v -0.193767 -0.247533 1.042523
v -0.193783 -0.228729 1.045536
v -0.193799 -0.209924 1.048549
v -0.193815 -0.191119 1.051562
v -0.193831 -0.172315 1.054576
v -0.193847 -0.153510 1.057589
v -0.193863 -0.134705 1.060602
v -0.193879 -0.115901 1.063615
v -0.193895 -0.097096 1.066628
v -0.193911 -0.078291 1.069641
v -0.193927 -0.059487 1.072654
v -0.193943 -0.040682 1.075667
v -0.193959 -0.021877 1.078680
v -0.193762 -0.283683 1.027389
v -0.193778 -0.264878 1.030402
v -0.193794 -0.246074 1.033415
v -0.193810 -0.227269 1.036428
v -0.193826 -0.208465 1.039442
v -0.193842 -0.189660 1.042455
v -0.193858 -0.170855 1.045468
v -0.193874 -0.152051 1.048481
v -0.193890 -0.133246 1.051494
v -0.193906 -0.114441 1.054507
v -0.193922 -0.095637 1.057520
v -0.193938 -0.076832 1.060533
v -0.193954 -0.058027 1.063546
v -0.193970 -0.039223 1.066559
v -0.193985 -0.020418 1.069572
v -0.193789 -0.282224 1.018281
v -0.193805 -0.263419 1.021295
v -0.193821 -0.244615 1.024308
v -0.193837 -0.225810 1.027321
v -0.193853 -0.207005 1.030334
v -0.193869 -0.188201 1.033347
v -0.193885 -0.169396 1.036360
v -0.193901 -0.150591 1.039373
v -0.193917 -0.131787 1.042386
v -0.193933 -0.112982 1.045399
v -0.193949 -0.094177 1.048412
v -0.193965 -0.075373 1.051425
v -0.193981 -0.056568 1.054438
v -0.193996 -0.037763 1.057452
v -0.194012 -0.018959 1.060465
v -0.193816 -0.280764 1.009174
v -0.193832 -0.261960 1.012187
v -0.193848 -0.243155 1.015200
v -0.193864 -0.224351 1.018213
v -0.193880 -0.205546 1.021226
v -0.193896 -0.186741 1.024239
v -0.193912 -0.167937 1.027252
v -0.193928 -0.149132 1.030265
v -0.193944 -0.130327 1.033278
v -0.193960 -0.111523 1.036291
v -0.193976 -0.092718 1.039304
v -0.193992 -0.073913 1.042318
v -0.194007 -0.055109 1.045331
v -0.194023 -0.036304 1.048344
v -0.194039 -0.017499 1.051357
v -0.193843 -0.279305 1.000066
v -0.193859 -0.260501 1.003079
v -0.193875 -0.241696 1.006092
v -0.193891 -0.222891 1.009105
v -0.193907 -0.204087 1.012118
v -0.193923 -0.185282 1.015131
v -0.193939 -0.166477 1.018144
v -0.193955 -0.147673 1.021158
v -0.193971 -0.128868 1.024171
v -0.193987 -0.110063 1.027184
v -0.194002 -0.091259 1.030197
v -0.194018 -0.072454 1.033210
v -0.194034 -0.053649 1.036223
v -0.194050 -0.034845 1.039236
v -0.194066 -0.016040 1.042249
v -0.193870 -0.277846 0.990958
v -0.193886 -0.259041 0.993971
v -0.193902 -0.240237 0.996984
v -0.193918 -0.221432 0.999997
v -0.193934 -0.202627 1.003010
v -0.193950 -0.183823 1.006024
v -0.193966 -0.165018 1.009037
v -0.193982 -0.146213 1.012050
v -0.193998 -0.127409 1.015063
v -0.194013 -0.108604 1.018076
v -0.194029 -0.089799 1.021089
v -0.194045 -0.070995 1.024102
v -0.194061 -0.052190 1.027115
v -0.194077 -0.033385 1.030128
v -0.194093 -0.014581 1.033141
v -0.193897 -0.276386 0.981850
v -0.193913 -0.257582 0.984863
v -0.193929 -0.238777 0.987876
v -0.193945 -0.219973 0.990890
v -0.193961 -0.201168 0.993903
v -0.193977 -0.182363 0.996916
v -0.193993 -0.163559 0.999929
v -0.194008 -0.144754 1.002942
v -0.194024 -0.125949 1.005955
v -0.194040 -0.107145 1.008968
v -0.194056 -0.088340 1.011981
v -0.194072 -0.069535 1.014994
v -0.194088 -0.050731 1.018007
v -0.194104 -0.031926 1.021020
v -0.194120 -0.013122 1.024033
v -0.193924 -0.274927 0.972742
v -0.193940 -0.256123 0.975756
v -0.193956 -0.237318 0.978769
v -0.193972 -0.218513 0.981782
v -0.193988 -0.199709 0.984795
v -0.194004 -0.180904 0.987808
v -0.194019 -0.162099 0.990821
v -0.194035 -0.143295 0.993834
v -0.194051 -0.124490 0.996847
v -0.194067 -0.105685 0.999860
v -0.194083 -0.086881 1.002873
v -0.194099 -0.068076 1.005886
v -0.194115 -0.049271 1.008900
v -0.194131 -0.030467 1.011913
v -0.194147 -0.011662 1.014926
v -0.193951 -0.273468 0.963635
v -0.193967 -0.254663 0.966648
v -0.193983 -0.235859 0.969661
v -0.193999 -0.217054 0.972674
v -0.194015 -0.198249 0.975687
v -0.194030 -0.179445 0.978700
v -0.194046 -0.160640 0.981713
v -0.194062 -0.141835 0.984726
v -0.194078 -0.123031 0.987739
v -0.194094 -0.104226 0.990752
v -0.194110 -0.085421 0.993766
v -0.194126 -0.066617 0.996779
v -0.194142 -0.047812 0.999792
v -0.194158 -0.029008 1.002805
v -0.194174 -0.010203 1.005818
v -0.179467 -0.271990 0.954487
v -0.179482 -0.253185 0.957500
v -0.179498 -0.234381 0.960513
v -0.179514 -0.215576 0.963526
v -0.179530 -0.196771 0.966539
v -0.179546 -0.177967 0.969553
v -0.179562 -0.159162 0.972566
v -0.179578 -0.140357 0.975579
v -0.179594 -0.121553 0.978592
v -0.179610 -0.102748 0.981605
v -0.179626 -0.083943 0.984618
v -0.179642 -0.065139 0.987631
v -0.179658 -0.046334 0.990644
v -0.179674 -0.027530 0.993657
v -0.179690 -0.008725 0.996670
v -0.164955 -0.271971 0.954447
v -0.164971 -0.253166 0.957460
v -0.164987 -0.234362 0.960473
v -0.165003 -0.215557 0.963486
v -0.165019 -0.196753 0.966500
v -0.165035 -0.177948 0.969513
v -0.165051 -0.159143 0.972526
v -0.165067 -0.140339 0.975539
v -0.165083 -0.121534 0.978552
v -0.165099 -0.102729 0.981565
v -0.165115 -0.083925 0.984578
v -0.165131 -0.065120 0.987591
v -0.165147 -0.046315 0.990604
v -0.165162 -0.027511 0.993617
v -0.165178 -0.008706 0.996630
v -0.150444 -0.271952 0.954407
v -0.150460 -0.253148 0.957420
v -0.150476 -0.234343 0.960433
v -0.150492 -0.215539 0.963447
v -0.150508 -0.196734 0.966460
v -0.150524 -0.177929 0.969473
v -0.150540 -0.159125 0.972486
v -0.150556 -0.140320 0.975499
v -0.150572 -0.121515 0.978512
v -0.150588 -0.102711 0.981525
v -0.150604 -0.083906 0.984538
v -0.150619 -0.065101 0.987551
v -0.150635 -0.046297 0.990564
v -0.150651 -0.027492 0.993577
v -0.150667 -0.008687 0.996590
v -0.135933 -0.271934 0.954367
v -0.135949 -0.253129 0.957381
v -0.135965 -0.234325 0.960394
v -0.135981 -0.215520 0.963407
v -0.135997 -0.196715 0.966420
v -0.136013 -0.177911 0.969433
v -0.136029 -0.159106 0.972446
v -0.136045 -0.140301 0.975459
v -0.136061 -0.121497 0.978472
v -0.136076 -0.102692 0.981485
v -0.136092 -0.083887 0.984498
v -0.136108 -0.065083 0.987511
v -0.136124 -0.046278 0.990524
v -0.136140 -0.027473 0.993538
v -0.136156 -0.008669 0.996551
v -0.121422 -0.271915 0.954328
v -0.121438 -0.253110 0.957341
v -0.121454 -0.234306 0.960354
v -0.121470 -0.215501 0.963367
v -0.121486 -0.196697 0.966380
v -0.121502 -0.177892 0.969393
v -0.121518 -0.159087 0.972406
v -0.121533 -0.140283 0.975419
v -0.121549 -0.121478 0.978432
v -0.121565 -0.102673 0.981445
v -0.121581 -0.083869 0.984458
v -0.121597 -0.065064 0.987471
v -0.121613 -0.046259 0.990485
v -0.121629 -0.027455 0.993498
v -0.121645 -0.008650 0.996511
v -0.106911 -0.271896 0.954288
v -0.106927 -0.253092 0.957301
v -0.106943 -0.234287 0.960314
v -0.106959 -0.215483 0.963327
v -0.106975 -0.196678 0.966340
v -0.106990 -0.177873 0.969353
v -0.107006 -0.159069 0.972366
v -0.107022 -0.140264 0.975379
v -0.107038 -0.121459 0.978392
v -0.107054 -0.102655 0.981405
v -0.107070 -0.083850 0.984419
v -0.107086 -0.065045 0.987432
v -0.107102 -0.046241 0.990445
v -0.107118 -0.027436 0.993458
v -0.107134 -0.008631 0.996471
v -0.092400 -0.271878 0.954248
v -0.092416 -0.253073 0.957261
v -0.092432 -0.234268 0.960274
v -0.092447 -0.215464 0.963287
v -0.092463 -0.196659 0.966300
v -0.092479 -0.177855 0.969313
v -0.092495 -0.159050 0.972326
v -0.092511 -0.140245 0.975339
v -0.092527 -0.121441 0.978352
v -0.092543 -0.102636 0.981366
v -0.092559 -0.083831 0.984379
v -0.092575 -0.065027 0.987392
v -0.092591 -0.046222 0.990405
v -0.092607 -0.027417 0.993418
v -0.092623 -0.008613 0.996431
v -0.077888 -0.271859 0.954208
v -0.077904 -0.253054 0.957221
v -0.077920 -0.234250 0.960234
v -0.077936 -0.215445 0.963247
v -0.077952 -0.196640 0.966260
v -0.077968 -0.177836 0.969273
v -0.077984 -0.159031 0.972286
v -0.078000 -0.140227 0.975300
v -0.078016 -0.121422 0.978313
v -0.078032 -0.102617 0.981326
v -0.078048 -0.083813 0.984339
v -0.078064 -0.065008 0.987352
v -0.078080 -0.046203 0.990365
v -0.078096 -0.027399 0.993378
v -0.078112 -0.008594 0.996391
v -0.063377 -0.271840 0.954168
v -0.063393 -0.253036 0.957181
v -0.063409 -0.234231 0.960194
v -0.063425 -0.215426 0.963207
v -0.063441 -0.196622 0.966220
v -0.063457 -0.177817 0.969234
v -0.063473 -0.159013 0.972247
v -0.063489 -0.140208 0.975260
v -0.063505 -0.121403 0.978273
v -0.063521 -0.102599 0.981286
v -0.063537 -0.083794 0.984299
v -0.063553 -0.064989 0.987312
v -0.063568 -0.046185 0.990325
v -0.063584 -0.027380 0.993338
v -0.063600 -0.008575 0.996351
v -0.048866 -0.271822 0.954128
v -0.048882 -0.253017 0.957141
v -0.048898 -0.234212 0.960154
v -0.048914 -0.215408 0.963167
v -0.048930 -0.196603 0.966181
v -0.048946 -0.177798 0.969194
v -0.048962 -0.158994 0.972207
v -0.048978 -0.140189 0.975220
v -0.048994 -0.121385 0.978233
v -0.049010 -0.102580 0.981246
v -0.049025 -0.083775 0.984259
v -0.049041 -0.064971 0.987272
v -0.049057 -0.046166 0.990285
v -0.049073 -0.027361 0.993298
v -0.049089 -0.008557 0.996311
v -0.034355 -0.271803 0.954088
v -0.034371 -0.252998 0.957101
v -0.034387 -0.234194 0.960114
v -0.034403 -0.215389 0.963128
v -0.034419 -0.196584 0.966141
v -0.034435 -0.177780 0.969154
v -0.034451 -0.158975 0.972167
v -0.034467 -0.140171 0.975180
v -0.034482 -0.121366 0.978193
v -0.034498 -0.102561 0.981206
v -0.034514 -0.083757 0.984219
v -0.034530 -0.064952 0.987232
v -0.034546 -0.046147 0.990245
v -0.034562 -0.027343 0.993258
v -0.034578 -0.008538 0.996271
v -0.019844 -0.271784 0.954048
v -0.019860 -0.252980 0.957062
v -0.019876 -0.234175 0.960075
v -0.019892 -0.215370 0.963088
v -0.019908 -0.196566 0.966101
v -0.019924 -0.177761 0.969114
v -0.019939 -0.158956 0.972127
v -0.019955 -0.140152 0.975140
v -0.019971 -0.121347 0.978153
v -0.019987 -0.102543 0.981166
v -0.020003 -0.083738 0.984179
v -0.020019 -0.064933 0.987192
v -0.020035 -0.046129 0.990205
v -0.020051 -0.027324 0.993219
v -0.020067 -0.008519 0.996232
v -0.005333 -0.271766 0.954009
v -0.005349 -0.252961 0.957022
v -0.005365 -0.234156 0.960035
v -0.005381 -0.215352 0.963048
v -0.005396 -0.196547 0.966061
v -0.005412 -0.177742 0.969074
v -0.005428 -0.158938 0.972087
v -0.005444 -0.140133 0.975100
v -0.005460 -0.121329 0.978113
v -0.005476 -0.102524 0.981126
v -0.005492 -0.083719 0.984139
v -0.005508 -0.064915 0.987153
v -0.005524 -0.046110 0.990166
v -0.005540 -0.027305 0.993179
v -0.005556 -0.008501 0.996192
v 0.009178 -0.271747 0.953969
v 0.009163 -0.252942 0.956982
v 0.009147 -0.234138 0.959995
v 0.009131 -0.215333 0.963008
v 0.009115 -0.196528 0.966021
v 0.009099 -0.177724 0.969034
v 0.009083 -0.158919 0.972047
v 0.009067 -0.140114 0.975060
v 0.009051 -0.121310 0.978073
v 0.009035 -0.102505 0.981086
v 0.009019 -0.083701 0.984100
v 0.009003 -0.064896 0.987113
v 0.008987 -0.046091 0.990126
v 0.008971 -0.027287 0.993139
v 0.008955 -0.008482 0.996152
v 0.023690 -0.271728 0.953929
v 0.023674 -0.252924 0.956942
v 0.023658 -0.234119 0.959955
v 0.023642 -0.215314 0.962968
v 0.023626 -0.196510 0.965981
v 0.023610 -0.177705 0.968994
v 0.023594 -0.158900 0.972007
v 0.023578 -0.140096 0.975020
v 0.023562 -0.121291 0.978034
v 0.023546 -0.102487 0.981047
v 0.023530 -0.083682 0.984060
v 0.023514 -0.064877 0.987073
v 0.023498 -0.046073 0.990086
v 0.023483 -0.027268 0.993099
v 0.023467 -0.008463 0.996112
v 0.038228 -0.273169 0.962997
v 0.038212 -0.254364 0.966010
v 0.038196 -0.235560 0.969023
v 0.038180 -0.216755 0.972036
v 0.038164 -0.197950 0.975049
v 0.038148 -0.179146 0.978062
v 0.038132 -0.160341 0.981075
v 0.038116 -0.141536 0.984088
v 0.038100 -0.122732 0.987101
v 0.038084 -0.103927 0.990115
v 0.038068 -0.085123 0.993128
v 0.038052 -0.066318 0.996141
v 0.038036 -0.047513 0.999154
v 0.038021 -0.028709 1.002167
v 0.038005 -0.009904 1.005180
v 0.038255 -0.274628 0.972105
v 0.038239 -0.255824 0.975118
v 0.038223 -0.237019 0.978131
v 0.038207 -0.218214 0.981144
v 0.038191 -0.199410 0.984157
v 0.038175 -0.180605 0.987170
v 0.038159 -0.161800 0.990183
v 0.038143 -0.142996 0.993196
v 0.038127 -0.124191 0.996209
v 0.038111 -0.105386 0.999222
v 0.038095 -0.086582 1.002235
v 0.038079 -0.067777 1.005248
v 0.038063 -0.048973 1.008262
v 0.038047 -0.030168 1.011275
v 0.038032 -0.011363 1.014288
v 0.038281 -0.276088 0.981212
v 0.038266 -0.257283 0.984225
v 0.038250 -0.238478 0.987239
v 0.038234 -0.219674 0.990252
v 0.038218 -0.200869 0.993265
v 0.038202 -0.182064 0.996278
v 0.038186 -0.163260 0.999291
v 0.038170 -0.144455 1.002304
v 0.038154 -0.125650 1.005317
v 0.038138 -0.106846 1.008330
v 0.038122 -0.088041 1.011343
v 0.038106 -0.069237 1.014356
v 0.038090 -0.050432 1.017369
v 0.038074 -0.031627 1.020382
v 0.038058 -0.012823 1.023396
v 0.038308 -0.277547 0.990320
v 0.038292 -0.258742 0.993333
v 0.038277 -0.239938 0.996346
v 0.038261 -0.221133 0.999359
v 0.038245 -0.202328 1.002373
v 0.038229 -0.183524 1.005386
v 0.038213 -0.164719 1.008399
v 0.038197 -0.145914 1.011412
v 0.038181 -0.127110 1.014425
v 0.038165 -0.108305 1.017438
v 0.038149 -0.089501 1.020451
v 0.038133 -0.070696 1.023464
v 0.038117 -0.051891 1.026477
v 0.038101 -0.033087 1.029490
v 0.038085 -0.014282 1.032503
v 0.038335 -0.279006 0.999428
v 0.038319 -0.260202 1.002441
v 0.038303 -0.241397 1.005454
v 0.038287 -0.222592 1.008467
v 0.038272 -0.203788 1.011480
v 0.038256 -0.184983 1.014493
v 0.038240 -0.166178 1.017506
v 0.038224 -0.147374 1.020519
v 0.038208 -0.128569 1.023533
v 0.038192 -0.109764 1.026546
v 0.038176 -0.090960 1.029559
v 0.038160 -0.072155 1.032572
v 0.038144 -0.053351 1.035585
v 0.038128 -0.034546 1.038598
v 0.038112 -0.015741 1.041611
v 0.038362 -0.280466 1.008536
v 0.038346 -0.261661 1.011549
v 0.038330 -0.242856 1.014562
v 0.038314 -0.224052 1.017575
v 0.038298 -0.205247 1.020588
v 0.038283 -0.186442 1.023601
v 0.038267 -0.167638 1.026614
v 0.038251 -0.148833 1.029627
v 0.038235 -0.130028 1.032640
v 0.038219 -0.111224 1.035653
v 0.038203 -0.092419 1.038667
v 0.038187 -0.073615 1.041680
v 0.038171 -0.054810 1.044693
v 0.038155 -0.036005 1.047706
v 0.038139 -0.017201 1.050719
v 0.038389 -0.281925 1.017643
v 0.038373 -0.263120 1.020657
v 0.038357 -0.244316 1.023670
v 0.038341 -0.225511 1.026683
v 0.038325 -0.206706 1.029696
v 0.038309 -0.187902 1.032709
v 0.038293 -0.169097 1.035722
v 0.038278 -0.150292 1.038735
v 0.038262 -0.131488 1.041748
v 0.038246 -0.112683 1.044761
v 0.038230 -0.093878 1.047774
v 0.038214 -0.075074 1.050787
v 0.038198 -0.056269 1.053800
v 0.038182 -0.037465 1.056814
v 0.038166 -0.018660 1.059827
v 0.038416 -0.283384 1.026751
v 0.038400 -0.264580 1.029764
v 0.038384 -0.245775 1.032777
v 0.038368 -0.226970 1.035791
v 0.038352 -0.208166 1.038804
v 0.038336 -0.189361 1.041817
v 0.038320 -0.170556 1.044830
v 0.038304 -0.151752 1.047843
v 0.038289 -0.132947 1.050856
v 0.038273 -0.114142 1.053869
v 0.038257 -0.095338 1.056882
v 0.038241 -0.076533 1.059895
v 0.038225 -0.057729 1.062908
v 0.038209 -0.038924 1.065921
v 0.038193 -0.020119 1.068934
v 0.038443 -0.284844 1.035859
v 0.038427 -0.266039 1.038872
v 0.038411 -0.247234 1.041885
v 0.038395 -0.228430 1.044898
v 0.038379 -0.209625 1.047911
v 0.038363 -0.190820 1.050925
v 0.038347 -0.172016 1.053938
v 0.038331 -0.153211 1.056951
v 0.038315 -0.134406 1.059964
v 0.038300 -0.115602 1.062977
v 0.038284 -0.096797 1.065990
v 0.038268 -0.077992 1.069003
v 0.038252 -0.059188 1.072016
v 0.038236 -0.040383 1.075029
v 0.038220 -0.021579 1.078042
v 0.038470 -0.286303 1.044967
v 0.038454 -0.267498 1.047980
v 0.038438 -0.248694 1.050993
v 0.038422 -0.229889 1.054006
v 0.038406 -0.211084 1.057019
v 0.038390 -0.192280 1.060032
v 0.038374 -0.173475 1.063045
v 0.038358 -0.154670 1.066059
v 0.038342 -0.135866 1.069072
v 0.038326 -0.117061 1.072085
v 0.038310 -0.098256 1.075098
v 0.038295 -0.079452 1.078111
v 0.038279 -0.060647 1.081124
v 0.038263 -0.041843 1.084137
v 0.038247 -0.023038 1.087150
v 0.038497 -0.287762 1.054075
v 0.038481 -0.268958 1.057088
v 0.038465 -0.250153 1.060101
v 0.038449 -0.231348 1.063114
v 0.038433 -0.212544 1.066127
v 0.038417 -0.193739 1.069140
v 0.038401 -0.174934 1.072153
v 0.038385 -0.156130 1.075166
v 0.038369 -0.137325 1.078179
v 0.038353 -0.118520 1.081192
v 0.038337 -0.099716 1.084206
v 0.038321 -0.080911 1.087219
v 0.038306 -0.062107 1.090232
v 0.038290 -0.043302 1.093245
v 0.038274 -0.024497 1.096258
v 0.038524 -0.289222 1.063182
v 0.038508 -0.270417 1.066195
v 0.038492 -0.251612 1.069209
v 0.038476 -0.232808 1.072222
v 0.038460 -0.214003 1.075235
v 0.038444 -0.195198 1.078248
v 0.038428 -0.176394 1.081261
v 0.038412 -0.157589 1.084274
v 0.038396 -0.138784 1.087287
v 0.038380 -0.119980 1.090300
v 0.038364 -0.101175 1.093313
v 0.038348 -0.082370 1.096326
v 0.038332 -0.063566 1.099339
v 0.038317 -0.044761 1.102352
v 0.038301 -0.025957 1.105366
v 0.038550 -0.290681 1.072290
v 0.038535 -0.271876 1.075303
v 0.038519 -0.253072 1.078316
v 0.038503 -0.234267 1.081329
v 0.038487 -0.215462 1.084343
v 0.038471 -0.196658 1.087356
v 0.038455 -0.177853 1.090369
v 0.038439 -0.159048 1.093382
v 0.038423 -0.140244 1.096395
v 0.038407 -0.121439 1.099408
v 0.038391 -0.102634 1.102421
v 0.038375 -0.083830 1.105434
v 0.038359 -0.065025 1.108447
v 0.038343 -0.046221 1.111460
v 0.038327 -0.027416 1.114473
v 0.038577 -0.292140 1.081398
v 0.038561 -0.273336 1.084411
v 0.038546 -0.254531 1.087424
v 0.038530 -0.235726 1.090437
v 0.038514 -0.216922 1.093450
v 0.038498 -0.198117 1.096463
v 0.038482 -0.179312 1.099477
v 0.038466 -0.160508 1.102490
v 0.038450 -0.141703 1.105503
v 0.038434 -0.122898 1.108516
v 0.038418 -0.104094 1.111529
v 0.038402 -0.085289 1.114542
v 0.038386 -0.066484 1.117555
v 0.038370 -0.047680 1.120568
v 0.038354 -0.028875 1.123581
v 0.038604 -0.293600 1.090506
v 0.038588 -0.274795 1.093519
v 0.038572 -0.255990 1.096532
v 0.038557 -0.237186 1.099545
v 0.038541 -0.218381 1.102558
v 0.038525 -0.199576 1.105571
v 0.038509 -0.180772 1.108584
v 0.038493 -0.161967 1.111597
v 0.038477 -0.143162 1.114611
v 0.038461 -0.124358 1.117624
v 0.038445 -0.105553 1.120637
v 0.038429 -0.086748 1.123650
v 0.038413 -0.067944 1.126663
v 0.038397 -0.049139 1.129676
v 0.038381 -0.030335 1.132689
v 0.024120 -0.295078 1.099653
v 0.024104 -0.276273 1.102667
v 0.024088 -0.257468 1.105680
v 0.024072 -0.238664 1.108693
v 0.024056 -0.219859 1.111706
v 0.024040 -0.201054 1.114719
v 0.024024 -0.182250 1.117732
v 0.024009 -0.163445 1.120745
v 0.023993 -0.144640 1.123758
v 0.023977 -0.125836 1.126771
v 0.023961 -0.107031 1.129784
v 0.023945 -0.088226 1.132797
v 0.023929 -0.069422 1.135810
v 0.023913 -0.050617 1.138824
v 0.023897 -0.031813 1.141837
v 0.009609 -0.295096 1.099693
v 0.009593 -0.276292 1.102706
v 0.009577 -0.257487 1.105720
v 0.009561 -0.238682 1.108733
v 0.009545 -0.219878 1.111746
v 0.009529 -0.201073 1.114759
v 0.009513 -0.182268 1.117772
v 0.009497 -0.163464 1.120785
v 0.009481 -0.144659 1.123798
v 0.009466 -0.125854 1.126811
v 0.009450 -0.107050 1.129824
v 0.009434 -0.088245 1.132837
v 0.009418 -0.069441 1.135850
v 0.009402 -0.050636 1.138863
v 0.009386 -0.031831 1.141877
v -0.004902 -0.295115 1.099733
v -0.004918 -0.276310 1.102746
v -0.004934 -0.257506 1.105759
v -0.004950 -0.238701 1.108773
v -0.004966 -0.219896 1.111786
v -0.004982 -0.201092 1.114799
v -0.004998 -0.182287 1.117812
v -0.005014 -0.163482 1.120825
v -0.005030 -0.144678 1.123838
v -0.005046 -0.125873 1.126851
v -0.005062 -0.107068 1.129864
v -0.005077 -0.088264 1.132877
v -0.005093 -0.069459 1.135890
v -0.005109 -0.050655 1.138903
v -0.005125 -0.031850 1.141916
v -0.019413 -0.295134 1.099773
v -0.019429 -0.276329 1.102786
v -0.019445 -0.257524 1.105799
v -0.019461 -0.238720 1.108812
v -0.019477 -0.219915 1.111825
v -0.019493 -0.201110 1.114838
v -0.019509 -0.182306 1.117852
v -0.019525 -0.163501 1.120865
v -0.019541 -0.144696 1.123878
v -0.019557 -0.125892 1.126891
v -0.019573 -0.107087 1.129904
v -0.019589 -0.088283 1.132917
v -0.019605 -0.069478 1.135930
v -0.019620 -0.050673 1.138943
v -0.019636 -0.031869 1.141956
v -0.033925 -0.295152 1.099813
v -0.033940 -0.276348 1.102826
v -0.033956 -0.257543 1.105839
v -0.033972 -0.238738 1.108852
v -0.033988 -0.219934 1.111865
v -0.034004 -0.201129 1.114878
v -0.034020 -0.182324 1.117891
v -0.034036 -0.163520 1.120905
v -0.034052 -0.144715 1.123918
v -0.034068 -0.125910 1.126931
v -0.034084 -0.107106 1.129944
v -0.034100 -0.088301 1.132957
v -0.034116 -0.069497 1.135970
v -0.034132 -0.050692 1.138983
v -0.034148 -0.031887 1.141996
v -0.048436 -0.295171 1.099853
v -0.048452 -0.276366 1.102866
v -0.048468 -0.257562 1.105879
v -0.048483 -0.238757 1.108892
v -0.048499 -0.219952 1.111905
v -0.048515 -0.201148 1.114918
v -0.048531 -0.182343 1.117931
v -0.048547 -0.163538 1.120944
v -0.048563 -0.144734 1.123958
v -0.048579 -0.125929 1.126971
v -0.048595 -0.107125 1.129984
v -0.048611 -0.088320 1.132997
v -0.048627 -0.069515 1.136010
v -0.048643 -0.050711 1.139023
v -0.048659 -0.031906 1.142036
v -0.062947 -0.295190 1.099893
v -0.062963 -0.276385 1.102906
v -0.062979 -0.257580 1.105919
v -0.062995 -0.238776 1.108932
v -0.063011 -0.219971 1.111945
v -0.063027 -0.201166 1.114958
v -0.063042 -0.182362 1.117971
v -0.063058 -0.163557 1.120984
v -0.063074 -0.144752 1.123997
v -0.063090 -0.125948 1.127010
v -0.063106 -0.107143 1.130024
v -0.063122 -0.088339 1.133037
v -0.063138 -0.069534 1.136050
v -0.063154 -0.050729 1.139063
v -0.063170 -0.031925 1.142076
v -0.077458 -0.295208 1.099933
v -0.077474 -0.276404 1.102946
v -0.077490 -0.257599 1.105959
v -0.077506 -0.238794 1.108972
v -0.077522 -0.219990 1.111985
v -0.077538 -0.201185 1.114998
v -0.077554 -0.182380 1.118011
v -0.077570 -0.163576 1.121024
v -0.077585 -0.144771 1.124037
v -0.077601 -0.125967 1.127050
v -0.077617 -0.107162 1.130063
v -0.077633 -0.088357 1.133077
v -0.077649 -0.069553 1.136090
v -0.077665 -0.050748 1.139103
v -0.077681 -0.031943 1.142116
v -0.091969 -0.295227 1.099972
v -0.091985 -0.276422 1.102986
v -0.092001 -0.257618 1.105999
v -0.092017 -0.238813 1.109012
v -0.092033 -0.220008 1.112025
v -0.092049 -0.201204 1.115038
v -0.092065 -0.182399 1.118051
v -0.092081 -0.163594 1.121064
v -0.092097 -0.144790 1.124077
v -0.092113 -0.125985 1.127090
v -0.092128 -0.107181 1.130103
v -0.092144 -0.088376 1.133116
v -0.092160 -0.069571 1.136129
v -0.092176 -0.050767 1.139143
v -0.092192 -0.031962 1.142156
v -0.106480 -0.295246 1.100012
v -0.106496 -0.276441 1.103025
v -0.106512 -0.257636 1.106038
v -0.106528 -0.238832 1.109052
v -0.106544 -0.220027 1.112065
v -0.106560 -0.201222 1.115078
v -0.106576 -0.182418 1.118091
v -0.106592 -0.163613 1.121104
v -0.106608 -0.144809 1.124117
v -0.106624 -0.126004 1.127130
v -0.106640 -0.107199 1.130143
v -0.106656 -0.088395 1.133156
v -0.106671 -0.069590 1.136169
v -0.106687 -0.050785 1.139182
v -0.106703 -0.031981 1.142195
v -0.120991 -0.295264 1.100052
v -0.121007 -0.276460 1.103065
v -0.121023 -0.257655 1.106078
v -0.121039 -0.238850 1.109092
v -0.121055 -0.220046 1.112105
v -0.121071 -0.201241 1.115118
v -0.121087 -0.182436 1.118131
v -0.121103 -0.163632 1.121144
v -0.121119 -0.144827 1.124157
v -0.121135 -0.126023 1.127170
v -0.121151 -0.107218 1.130183
v -0.121167 -0.088413 1.133196
v -0.121183 -0.069609 1.136209
v -0.121199 -0.050804 1.139222
v -0.121214 -0.031999 1.142235
v -0.135503 -0.295283 1.100092
v -0.135519 -0.276478 1.103105
v -0.135534 -0.257674 1.106118
v -0.135550 -0.238869 1.109131
v -0.135566 -0.220064 1.112144
v -0.135582 -0.201260 1.115157
v -0.135598 -0.182455 1.118171
v -0.135614 -0.163651 1.121184
v -0.135630 -0.144846 1.124197
v -0.135646 -0.126041 1.127210
v -0.135662 -0.107237 1.130223
v -0.135678 -0.088432 1.133236
v -0.135694 -0.069627 1.136249
v -0.135710 -0.050823 1.139262
v -0.135726 -0.032018 1.142275
v -0.150014 -0.295302 1.100132
v -0.150030 -0.276497 1.103145
v -0.150046 -0.257692 1.106158
v -0.150062 -0.238888 1.109171
v -0.150078 -0.220083 1.112184
v -0.150093 -0.201278 1.115197
v -0.150109 -0.182474 1.118210
v -0.150125 -0.163669 1.121224
v -0.150141 -0.144865 1.124237
v -0.150157 -0.126060 1.127250
v -0.150173 -0.107255 1.130263
v -0.150189 -0.088451 1.133276
v -0.150205 -0.069646 1.136289
v -0.150221 -0.050841 1.139302
v -0.150237 -0.032037 1.142315
v -0.164525 -0.295320 1.100172
v -0.164541 -0.276516 1.103185
v -0.164557 -0.257711 1.106198
v -0.164573 -0.238906 1.109211
v -0.164589 -0.220102 1.112224
v -0.164605 -0.201297 1.115237
v -0.164621 -0.182493 1.118250
v -0.164636 -0.163688 1.121263
v -0.164652 -0.144883 1.124277
v -0.164668 -0.126079 1.127290
v -0.164684 -0.107274 1.130303
v -0.164700 -0.088469 1.133316
v -0.164716 -0.069665 1.136329
v -0.164732 -0.050860 1.139342
v -0.164748 -0.032055 1.142355
v -0.179036 -0.295339 1.100212
v -0.179052 -0.276534 1.103225
v -0.179068 -0.257730 1.106238
v -0.179084 -0.238925 1.109251
v -0.179100 -0.220120 1.112264
v -0.179116 -0.201316 1.115277
v -0.179132 -0.182511 1.118290
v -0.179148 -0.163707 1.121303
v -0.179164 -0.144902 1.124316
v -0.179179 -0.126097 1.127329
v -0.179195 -0.107293 1.130342
v -0.179211 -0.088488 1.133356
v -0.179227 -0.069683 1.136369
v -0.179243 -0.050879 1.139382
v -0.179259 -0.032074 1.142395
v -0.179424 -0.292254 0.960582
v -0.164913 -0.292235 0.960542
v -0.150401 -0.292216 0.960502
v -0.135890 -0.292198 0.960462
v -0.121379 -0.292179 0.960422
v -0.106868 -0.292160 0.960382
v -0.092357 -0.292142 0.960343
v -0.077846 -0.292123 0.960303
v -0.063334 -0.292104 0.960263
v -0.048823 -0.292086 0.960223
v -0.034312 -0.292067 0.960183
v -0.019801 -0.292048 0.960143
v -0.005290 -0.292030 0.960103
v 0.009221 -0.292011 0.960063
v 0.023732 -0.291992 0.960024
v -0.179397 -0.293713 0.969690
v -0.164886 -0.293694 0.969650
v -0.150375 -0.293676 0.969610
v -0.135863 -0.293657 0.969570
v -0.121352 -0.293638 0.969530
v -0.106841 -0.293620 0.969490
v -0.092330 -0.293601 0.969450
v -0.077819 -0.293582 0.969410
v -0.063308 -0.293564 0.969371
v -0.048796 -0.293545 0.969331
v -0.034285 -0.293526 0.969291
v -0.019774 -0.293508 0.969251
v -0.005263 -0.293489 0.969211
v 0.009248 -0.293470 0.969171
v 0.023759 -0.293452 0.969131
v -0.179370 -0.295172 0.978797
v -0.164859 -0.295154 0.978758
v -0.150348 -0.295135 0.978718
v -0.135836 -0.295116 0.978678
v -0.121325 -0.295098 0.978638
v -0.106814 -0.295079 0.978598
v -0.092303 -0.295060 0.978558
v -0.077792 -0.295042 0.978518
v -0.063281 -0.295023 0.978478
v -0.048770 -0.295004 0.978438
v -0.034258 -0.294986 0.978399
v -0.019747 -0.294967 0.978359
v -0.005236 -0.294948 0.978319
v 0.009275 -0.294930 0.978279
v 0.023786 -0.294911 0.978239
v -0.179343 -0.296632 0.987905
v -0.164832 -0.296613 0.987865
v -0.150321 -0.296594 0.987825
v -0.135810 -0.296576 0.987786
v -0.121298 -0.296557 0.987746
v -0.106787 -0.296538 0.987706
v -0.092276 -0.296520 0.987666
v -0.077765 -0.296501 0.987626
v -0.063254 -0.296482 0.987586
v -0.048743 -0.296464 0.987546
v -0.034231 -0.296445 0.987506
v -0.019720 -0.296426 0.987467
v -0.005209 -0.296408 0.987427
v 0.009302 -0.296389 0.987387
v 0.023813 -0.296370 0.987347
v -0.179316 -0.298091 0.997013
v -0.164805 -0.298072 0.996973
v -0.150294 -0.298054 0.996933
v -0.135783 -0.298035 0.996893
v -0.121271 -0.298016 0.996853
v -0.106760 -0.297998 0.996814
v -0.092249 -0.297979 0.996774
v -0.077738 -0.297960 0.996734
v -0.063227 -0.297942 0.996694
v -0.048716 -0.297923 0.996654
v -0.034205 -0.297904 0.996614
v -0.019693 -0.297886 0.996574
v -0.005182 -0.297867 0.996534
v 0.009329 -0.297848 0.996495
v 0.023840 -0.297830 0.996455
v -0.179289 -0.299550 1.006121
v -0.164778 -0.299532 1.006081
v -0.150267 -0.299513 1.006041
v -0.135756 -0.299494 1.006001
v -0.121245 -0.299476 1.005961
v -0.106733 -0.299457 1.005921
v -0.092222 -0.299438 1.005881
v -0.077711 -0.299420 1.005842
v -0.063200 -0.299401 1.005802
v -0.048689 -0.299382 1.005762
v -0.034178 -0.299364 1.005722
v -0.019667 -0.299345 1.005682
v -0.005155 -0.299326 1.005642
v 0.009356 -0.299308 1.005602
v 0.023867 -0.299289 1.005563
v -0.179262 -0.301010 1.015229
v -0.164751 -0.300991 1.015189
v -0.150240 -0.300972 1.015149
v -0.135729 -0.300954 1.015109
v -0.121218 -0.300935 1.015069
v -0.106707 -0.300916 1.015029
v -0.092195 -0.300898 1.014989
v -0.077684 -0.300879 1.014949
v -0.063173 -0.300860 1.014910
v -0.048662 -0.300842 1.014870
v -0.034151 -0.300823 1.014830
v -0.019640 -0.300804 1.014790
v -0.005128 -0.300786 1.014750
v 0.009383 -0.300767 1.014710
v 0.023894 -0.300748 1.014670
v -0.179235 -0.302469 1.024336
v -0.164724 -0.302450 1.024296
v -0.150213 -0.302432 1.024257
v -0.135702 -0.302413 1.024217
v -0.121191 -0.302394 1.024177
v -0.106680 -0.302376 1.024137
v -0.092168 -0.302357 1.024097
v -0.077657 -0.302338 1.024057
v -0.063146 -0.302320 1.024017
v -0.048635 -0.302301 1.023977
v -0.034124 -0.302282 1.023938
v -0.019613 -0.302264 1.023898
v -0.005102 -0.302245 1.023858
v 0.009410 -0.302226 1.023818
v 0.023921 -0.302208 1.023778
v -0.179208 -0.303928 1.033444
v -0.164697 -0.303910 1.033404
v -0.150186 -0.303891 1.033364
v -0.135675 -0.303872 1.033324
v -0.121164 -0.303854 1.033285
v -0.106653 -0.303835 1.033245
v -0.092142 -0.303816 1.033205
v -0.077630 -0.303798 1.033165
v -0.063119 -0.303779 1.033125
v -0.048608 -0.303760 1.033085
v -0.034097 -0.303742 1.033045
v -0.019586 -0.303723 1.033005
v -0.005075 -0.303704 1.032966
v 0.009437 -0.303686 1.032926
v 0.023948 -0.303667 1.032886
v -0.179182 -0.305388 1.042552
v -0.164670 -0.305369 1.042512
v -0.150159 -0.305350 1.042472
v -0.135648 -0.305332 1.042432
v -0.121137 -0.305313 1.042392
v -0.106626 -0.305294 1.042353
v -0.092115 -0.305276 1.042313
v -0.077604 -0.305257 1.042273
v -0.063092 -0.305238 1.042233
v -0.048581 -0.305220 1.042193
v -0.034070 -0.305201 1.042153
v -0.019559 -0.305182 1.042113
v -0.005048 -0.305164 1.042073
v 0.009463 -0.305145 1.042034
v 0.023975 -0.305126 1.041994
v -0.179155 -0.306847 1.051660
v -0.164644 -0.306828 1.051620
v -0.150132 -0.306810 1.051580
v -0.135621 -0.306791 1.051540
v -0.121110 -0.306772 1.051500
v -0.106599 -0.306754 1.051460
v -0.092088 -0.306735 1.051420
v -0.077577 -0.306716 1.051381
v -0.063065 -0.306698 1.051341
v -0.048554 -0.306679 1.051301
v -0.034043 -0.306660 1.051261
v -0.019532 -0.306642 1.051221
v -0.005021 -0.306623 1.051181
v 0.009490 -0.306604 1.051141
v 0.024001 -0.306586 1.051101
v -0.179128 -0.308306 1.060767
v -0.164617 -0.308288 1.060728
v -0.150105 -0.308269 1.060688
v -0.135594 -0.308250 1.060648
v -0.121083 -0.308232 1.060608
v -0.106572 -0.308213 1.060568
v -0.092061 -0.308194 1.060528
v -0.077550 -0.308176 1.060488
v -0.063039 -0.308157 1.060449
v -0.048527 -0.308138 1.060409
v -0.034016 -0.308120 1.060369
v -0.019505 -0.308101 1.060329
v -0.004994 -0.308082 1.060289
v 0.009517 -0.308064 1.060249
v 0.024028 -0.308045 1.060209
v -0.179101 -0.309766 1.069875
v -0.164590 -0.309747 1.069835
v -0.150079 -0.309728 1.069795
v -0.135567 -0.309710 1.069756
v -0.121056 -0.309691 1.069716
v -0.106545 -0.309672 1.069676
v -0.092034 -0.309654 1.069636
v -0.077523 -0.309635 1.069596
v -0.063012 -0.309616 1.069556
v -0.048500 -0.309598 1.069516
v -0.033989 -0.309579 1.069476
v -0.019478 -0.309560 1.069437
v -0.004967 -0.309542 1.069397
v 0.009544 -0.309523 1.069357
v 0.024055 -0.309504 1.069317
v -0.179074 -0.311225 1.078983
v -0.164563 -0.311206 1.078943
v -0.150052 -0.311188 1.078903
v -0.135541 -0.311169 1.078863
v -0.121029 -0.311150 1.078824
v -0.106518 -0.311132 1.078784
v -0.092007 -0.311113 1.078744
v -0.077496 -0.311094 1.078704
v -0.062985 -0.311076 1.078664
v -0.048474 -0.311057 1.078624
v -0.033962 -0.311038 1.078584
v -0.019451 -0.311020 1.078544
v -0.004940 -0.311001 1.078505
v 0.009571 -0.310982 1.078465
v 0.024082 -0.310964 1.078425
v -0.179047 -0.312684 1.088091
v -0.164536 -0.312666 1.088051
v -0.150025 -0.312647 1.088011
v -0.135514 -0.312628 1.087971
v -0.121002 -0.312610 1.087931
v -0.106491 -0.312591 1.087891
v -0.091980 -0.312572 1.087852
v -0.077469 -0.312554 1.087812
v -0.062958 -0.312535 1.087772
v -0.048447 -0.312516 1.087732
v -0.033936 -0.312498 1.087692
v -0.019424 -0.312479 1.087652
v -0.004913 -0.312460 1.087612
v 0.009598 -0.312442 1.087572
v 0.024109 -0.312423 1.087533
v 0.023478 0.008882 1.008233
v 0.008966 0.008863 1.008273
v -0.005545 0.008845 1.008313
v -0.020056 0.008826 1.008353
v -0.034567 0.008807 1.008392
v -0.049078 0.008789 1.008432
v -0.063589 0.008770 1.008472
v -0.078101 0.008751 1.008512
v -0.092612 0.008733 1.008552
v -0.107123 0.008714 1.008592
v -0.121634 0.008695 1.008632
v -0.136145 0.008676 1.008672
v -0.150656 0.008658 1.008711
v -0.165167 0.008639 1.008751
v -0.179679 0.008620 1.008791
v 0.023504 0.007423 1.017341
v 0.008993 0.007404 1.017381
v -0.005518 0.007385 1.017420
v -0.020029 0.007367 1.017460
v -0.034540 0.007348 1.017500
v -0.049051 0.007329 1.017540
v -0.063562 0.007311 1.017580
v -0.078074 0.007292 1.017620
v -0.092585 0.007273 1.017660
v -0.107096 0.007255 1.017699
v -0.121607 0.007236 1.017739
v -0.136118 0.007217 1.017779
v -0.150629 0.007198 1.017819
v -0.165141 0.007180 1.017859
v -0.179652 0.007161 1.017899
v 0.023531 0.005963 1.026448
v 0.009020 0.005945 1.026488
v -0.005491 0.005926 1.026528
v -0.020002 0.005907 1.026568
v -0.034513 0.005889 1.026608
v -0.049024 0.005870 1.026648
v -0.063536 0.005851 1.026688
v -0.078047 0.005833 1.026728
v -0.092558 0.005814 1.026767
v -0.107069 0.005795 1.026807
v -0.121580 0.005777 1.026847
v -0.136091 0.005758 1.026887
v -0.150602 0.005739 1.026927
v -0.165114 0.005720 1.026967
v -0.179625 0.005702 1.027007
v 0.023558 0.004504 1.035556
v 0.009047 0.004485 1.035596
v -0.005464 0.004467 1.035636
v -0.019975 0.004448 1.035676
v -0.034486 0.004429 1.035716
v -0.048998 0.004411 1.035756
v -0.063509 0.004392 1.035795
v -0.078020 0.004373 1.035835
v -0.092531 0.004355 1.035875
v -0.107042 0.004336 1.035915
v -0.121553 0.004317 1.035955
v -0.136064 0.004299 1.035995
v -0.150576 0.004280 1.036035
v -0.165087 0.004261 1.036075
v -0.179598 0.004242 1.036114
v 0.023585 0.003045 1.044664
v 0.009074 0.003026 1.044704
v -0.005437 0.003007 1.044744
v -0.019948 0.002989 1.044784
v -0.034459 0.002970 1.044824
v -0.048971 0.002951 1.044863
v -0.063482 0.002933 1.044903
v -0.077993 0.002914 1.044943
v -0.092504 0.002895 1.044983
v -0.107015 0.002877 1.045023
v -0.121526 0.002858 1.045063
v -0.136038 0.002839 1.045103
v -0.150549 0.002821 1.045143
v -0.165060 0.002802 1.045182
v -0.179571 0.002783 1.045222
v 0.023612 0.001585 1.053772
v 0.009101 0.001567 1.053812
v -0.005410 0.001548 1.053852
v -0.019921 0.001529 1.053891
v -0.034433 0.001511 1.053931
v -0.048944 0.001492 1.053971
v -0.063455 0.001473 1.054011
v -0.077966 0.001455 1.054051
v -0.092477 0.001436 1.054091
v -0.106988 0.001417 1.054131
v -0.121499 0.001399 1.054171
v -0.136011 0.001380 1.054210
v -0.150522 0.001361 1.054250
v -0.165033 0.001342 1.054290
v -0.179544 0.001324 1.054330
v 0.023639 0.000126 1.062880
v 0.009128 0.000107 1.062919
v -0.005383 0.000089 1.062959
v -0.019894 0.000070 1.062999
v -0.034406 0.000051 1.063039
v -0.048917 0.000033 1.063079
v -0.063428 0.000014 1.063119
v -0.077939 -0.000005 1.063159
v -0.092450 -0.000023 1.063199
v -0.106961 -0.000042 1.063239
v -0.121473 -0.000061 1.063278
v -0.135984 -0.000079 1.063318
v -0.150495 -0.000098 1.063358
v -0.165006 -0.000117 1.063398
v -0.179517 -0.000135 1.063438
v 0.023666 -0.001333 1.071987
v 0.009155 -0.001352 1.072027
v -0.005356 -0.001371 1.072067
v -0.019868 -0.001389 1.072107
v -0.034379 -0.001408 1.072147
v -0.048890 -0.001427 1.072187
v -0.063401 -0.001445 1.072227
v -0.077912 -0.001464 1.072267
v -0.092423 -0.001483 1.072306
v -0.106935 -0.001501 1.072346
v -0.121446 -0.001520 1.072386
v -0.135957 -0.001539 1.072426
v -0.150468 -0.001557 1.072466
v -0.164979 -0.001576 1.072506
v -0.179490 -0.001595 1.072546
v 0.023693 -0.002793 1.081095
v 0.009182 -0.002811 1.081135
v -0.005330 -0.002830 1.081175
v -0.019841 -0.002849 1.081215
v -0.034352 -0.002867 1.081255
v -0.048863 -0.002886 1.081295
v -0.063374 -0.002905 1.081334
v -0.077885 -0.002923 1.081374
v -0.092396 -0.002942 1.081414
v -0.106908 -0.002961 1.081454
v -0.121419 -0.002979 1.081494
v -0.135930 -0.002998 1.081534
v -0.150441 -0.003017 1.081574
v -0.164952 -0.003035 1.081614
v -0.179463 -0.003054 1.081653
v 0.023720 -0.004252 1.090203
v 0.009209 -0.004271 1.090243
v -0.005303 -0.004289 1.090283
v -0.019814 -0.004308 1.090323
v -0.034325 -0.004327 1.090363
v -0.048836 -0.004345 1.090402
v -0.063347 -0.004364 1.090442
v -0.077858 -0.004383 1.090482
v -0.092370 -0.004401 1.090522
v -0.106881 -0.004420 1.090562
v -0.121392 -0.004439 1.090602
v -0.135903 -0.004457 1.090642
v -0.150414 -0.004476 1.090681
v -0.164925 -0.004495 1.090721
v -0.179436 -0.004513 1.090761
v 0.023747 -0.005711 1.099311
v 0.009235 -0.005730 1.099351
v -0.005276 -0.005749 1.099391
v -0.019787 -0.005767 1.099430
v -0.034298 -0.005786 1.099470
v -0.048809 -0.005805 1.099510
v -0.063320 -0.005823 1.099550
v -0.077831 -0.005842 1.099590
v -0.092343 -0.005861 1.099630
v -0.106854 -0.005879 1.099670
v -0.121365 -0.005898 1.099710
v -0.135876 -0.005917 1.099749
v -0.150387 -0.005935 1.099789
v -0.164898 -0.005954 1.099829
v -0.179410 -0.005973 1.099869
v 0.023773 -0.007171 1.108419
v 0.009262 -0.007189 1.108459
v -0.005249 -0.007208 1.108498
v -0.019760 -0.007227 1.108538
v -0.034271 -0.007245 1.108578
v -0.048782 -0.007264 1.108618
v -0.063293 -0.007283 1.108658
v -0.077805 -0.007301 1.108698
v -0.092316 -0.007320 1.108738
v -0.106827 -0.007339 1.108777
v -0.121338 -0.007357 1.108817
v -0.135849 -0.007376 1.108857
v -0.150360 -0.007395 1.108897
v -0.164871 -0.007413 1.108937
v -0.179383 -0.007432 1.108977
v 0.023800 -0.008630 1.117526
v 0.009289 -0.008649 1.117566
v -0.005222 -0.008667 1.117606
v -0.019733 -0.008686 1.117646
v -0.034244 -0.008705 1.117686
v -0.048755 -0.008723 1.117726
v -0.063267 -0.008742 1.117766
v -0.077778 -0.008761 1.117805
v -0.092289 -0.008779 1.117845
v -0.106800 -0.008798 1.117885
v -0.121311 -0.008817 1.117925
v -0.135822 -0.008835 1.117965
v -0.150333 -0.008854 1.118005
v -0.164845 -0.008873 1.118045
v -0.179356 -0.008891 1.118085
v 0.023827 -0.010089 1.126634
v 0.009316 -0.010108 1.126674
v -0.005195 -0.010127 1.126714
v -0.019706 -0.010145 1.126754
v -0.034217 -0.010164 1.126794
v -0.048728 -0.010183 1.126834
v -0.063240 -0.010201 1.126873
v -0.077751 -0.010220 1.126913
v -0.092262 -0.010239 1.126953
v -0.106773 -0.010257 1.126993
v -0.121284 -0.010276 1.127033
v -0.135795 -0.010295 1.127073
v -0.150307 -0.010313 1.127113
v -0.164818 -0.010332 1.127153
v -0.179329 -0.010351 1.127192
v 0.023854 -0.011549 1.135742
v 0.009343 -0.011567 1.135782
v -0.005168 -0.011586 1.135822
v -0.019679 -0.011605 1.135862
v -0.034190 -0.011623 1.135901
v -0.048702 -0.011642 1.135941
v -0.063213 -0.011661 1.135981
v -0.077724 -0.011679 1.136021
v -0.092235 -0.011698 1.136061
v -0.106746 -0.011717 1.136101
v -0.121257 -0.011735 1.136141
v -0.135768 -0.011754 1.136181
v -0.150280 -0.011773 1.136220
v -0.164791 -0.011791 1.136260
v -0.179302 -0.011810 1.136300
s 0
f 190 204 189
f 190 206 205
f 191 207 206
f 192 208 207
f 194 208 193
f 195 209 194
f 195 211 210
f 197 211 196
f 198 212 197
f 198 214 213
f 200 214 199
f 200 216 215
f 202 216 201
f 203 217 202
f 204 220 219
f 205 221 220
f 206 222 221
f 208 222 207
f 209 223 208
f 210 224 209
f 211 225 210
f 211 227 226
f 212 228 227
f 214 228 213
f 215 229 214
f 216 230 215
f 217 231 216
f 218 232 217
f 220 234 219
f 221 235 220
f 222 236 221
f 223 237 222
f 224 238 223
f 224 240 239
f 226 240 225
f 227 241 226
f 228 242 227
f 228 244 243
f 229 245 244
f 230 246 245
f 231 247 246
f 232 248 247
f 234 250 249
f 236 250 235
f 237 251 236
f 237 253 252
f 239 253 238
f 240 254 239
f 241 255 240
f 242 256 241
f 243 257 242
f 244 258 243
f 245 259 244
f 246 260 245
f 247 261 246
f 248 262 247
f 250 264 249
f 251 265 250
f 251 267 266
f 252 268 267
f 253 269 268
f 254 270 269
f 256 270 255
f 256 272 271
f 257 273 272
f 259 273 258
f 260 274 259
f 260 276 275
f 261 277 276
f 262 278 277
f 265 279 264
f 265 281 280
f 266 282 281
f 268 282 267
f 269 283 268
f 269 285 284
f 270 286 285
f 271 287 286
f 273 287 272
f 273 289 288
f 274 290 289
f 275 291 290
f 276 292 291
f 278 292 277
f 279 295 294
f 280 296 295
f 281 297 296
f 282 298 297
f 283 299 298
f 285 299 284
f 286 300 285
f 287 301 286
f 288 302 287
f 289 303 288
f 290 304 289
f 291 305 290
f 292 306 291
f 293 307 292
f 295 309 294
f 296 310 295
f 297 311 296
f 298 312 297
f 299 313 298
f 300 314 299
f 300 316 315
f 301 317 316
f 303 317 302
f 303 319 318
f 304 320 319
f 305 321 320
f 306 322 321
f 308 322 307
f 309 325 324
f 311 325 310
f 311 327 326
f 312 328 327
f 313 329 328
f 315 329 314
f 316 330 315
f 317 331 316
f 318 332 317
f 319 333 318
f 320 334 319
f 321 335 320
f 322 336 321
f 323 337 322
f 325 339 324
f 325 341 340
f 327 341 326
f 328 342 327
f 329 343 328
f 330 344 329
f 331 345 330
f 331 347 346
f 333 347 332
f 334 348 333
f 335 349 334
f 336 350 335
f 336 352 351
f 338 352 337
f 340 354 339
f 341 355 340
f 341 357 356
f 343 357 342
f 344 358 343
f 344 360 359
f 346 360 345
f 347 361 346
f 348 362 347
f 348 364 363
f 349 365 364
f 350 366 365
f 351 367 366
f 352 368 367
f 354 370 369
f 356 370 355
f 357 371 356
f 357 373 372
f 359 373 358
f 359 375 374
f 360 376 375
f 362 376 361
f 362 378 377
f 364 378 363
f 365 379 364
f 366 380 365
f 367 381 366
f 368 382 367
f 369 385 384
f 370 386 385
f 371 387 386
f 372 388 387
f 373 389 388
f 375 389 374
f 376 390 375
f 377 391 376
f 378 392 377
f 379 393 378
f 379 395 394
f 381 395 380
f 381 397 396
f 382 398 397
f 385 399 384
f 386 400 385
f 387 401 386
f 388 402 387
f 389 403 388
f 389 405 404
f 391 405 390
f 392 406 391
f 393 407 392
f 393 409 408
f 394 410 409
f 395 411 410
f 396 412 411
f 397 413 412
f 1 189 23
f 24 190 189
f 26 190 25
f 27 191 26
f 28 192 27
f 28 194 193
f 29 195 194
f 31 195 30
f 32 196 31
f 33 197 32
f 33 199 198
f 34 200 199
f 35 201 200
f 36 202 201
f 37 203 202
f 2 203 38
f 39 218 203
f 40 233 218
f 41 248 233
f 42 263 248
f 263 44 278
f 44 293 278
f 45 308 293
f 46 323 308
f 47 338 323
f 48 353 338
f 49 368 353
f 50 383 368
f 51 398 383
f 398 53 413
f 53 54 413
f 413 55 412
f 411 55 56
f 411 57 410
f 410 58 409
f 409 59 408
f 407 59 60
f 406 60 61
f 406 62 405
f 404 62 63
f 403 63 64
f 402 64 65
f 401 65 66
f 400 66 67
f 399 67 68
f 9 68 3
f 384 9 10
f 369 10 11
f 12 369 11
f 339 12 13
f 324 13 14
f 15 324 14
f 294 15 16
f 17 294 16
f 264 17 18
f 19 264 18
f 20 249 19
f 219 20 21
f 22 219 21
f 189 22 23
f 415 429 414
f 416 430 415
f 416 432 431
f 418 432 417
f 419 433 418
f 419 435 434
f 421 435 420
f 422 436 421
f 423 437 422
f 423 439 438
f 425 439 424
f 426 440 425
f 426 442 441
f 428 442 427
f 430 444 429
f 431 445 430
f 431 447 446
f 432 448 447
f 433 449 448
f 435 449 434
f 436 450 435
f 436 452 451
f 438 452 437
f 439 453 438
f 440 454 439
f 441 455 440
f 442 456 441
f 443 457 442
f 444 460 459
f 445 461 460
f 447 461 446
f 448 462 447
f 449 463 448
f 450 464 449
f 450 466 465
f 452 466 451
f 453 467 452
f 453 469 468
f 455 469 454
f 456 470 455
f 457 471 456
f 457 473 472
f 460 474 459
f 461 475 460
f 462 476 461
f 463 477 462
f 464 478 463
f 464 480 479
f 465 481 480
f 467 481 466
f 468 482 467
f 469 483 468
f 469 485 484
f 470 486 485
f 471 487 486
f 473 487 472
f 475 489 474
f 476 490 475
f 476 492 491
f 477 493 492
f 478 494 493
f 480 494 479
f 481 495 480
f 482 496 481
f 483 497 482
f 484 498 483
f 485 499 484
f 486 500 485
f 487 501 486
f 487 503 502
f 489 505 504
f 490 506 505
f 492 506 491
f 493 507 492
f 494 508 493
f 495 509 494
f 496 510 495
f 496 512 511
f 497 513 512
f 498 514 513
f 499 515 514
f 500 516 515
f 502 516 501
f 503 517 502
f 505 519 504
f 506 520 505
f 506 522 521
f 507 523 522
f 508 524 523
f 510 524 509
f 511 525 510
f 512 526 511
f 513 527 512
f 514 528 513
f 515 529 514
f 516 530 515
f 516 532 531
f 518 532 517
f 520 534 519
f 521 535 520
f 522 536 521
f 523 537 522
f 524 538 523
f 525 539 524
f 526 540 525
f 526 542 541
f 528 542 527
f 529 543 528
f 530 544 529
f 530 546 545
f 532 546 531
f 533 547 532
f 534 550 549
f 536 550 535
f 536 552 551
f 537 553 552
f 539 553 538
f 539 555 554
f 540 556 555
f 542 556 541
f 543 557 542
f 543 559 558
f 544 560 559
f 546 560 545
f 547 561 546
f 547 563 562
f 550 564 549
f 551 565 550
f 552 566 551
f 552 568 567
f 554 568 553
f 555 569 554
f 555 571 570
f 557 571 556
f 558 572 557
f 559 573 558
f 560 574 559
f 561 575 560
f 562 576 561
f 563 577 562
f 564 580 579
f 566 580 565
f 567 581 566
f 568 582 567
f 568 584 583
f 570 584 569
f 571 585 570
f 572 586 571
f 573 587 572
f 574 588 573
f 575 589 574
f 575 591 590
f 576 592 591
f 578 592 577
f 579 595 594
f 581 595 580
f 582 596 581
f 582 598 597
f 583 599 598
f 585 599 584
f 586 600 585
f 587 601 586
f 588 602 587
f 588 604 603
f 589 605 604
f 591 605 590
f 592 606 591
f 593 607 592
f 595 609 594
f 595 611 610
f 597 611 596
f 598 612 597
f 599 613 598
f 600 614 599
f 601 615 600
f 601 617 616
f 602 618 617
f 604 618 603
f 605 619 604
f 606 620 605
f 607 621 606
f 608 622 607
f 609 625 624
f 611 625 610
f 612 626 611
f 613 627 612
f 613 629 628
f 615 629 614
f 616 630 615
f 616 632 631
f 618 632 617
f 619 633 618
f 620 634 619
f 621 635 620
f 622 636 621
f 623 637 622
f 68 83 3
f 67 414 68
f 67 416 415
f 65 416 66
f 65 418 417
f 63 418 64
f 63 420 419
f 61 420 62
f 60 421 61
f 59 422 60
f 59 424 423
f 57 424 58
f 56 425 57
f 55 426 56
f 54 427 55
f 54 84 428
f 84 443 428
f 85 458 443
f 458 87 473
f 87 488 473
f 488 89 503
f 89 518 503
f 90 533 518
f 91 548 533
f 548 93 563
f 93 578 563
f 578 95 593
f 95 608 593
f 608 97 623
f 97 638 623
f 98 99 638
f 638 100 637
f 637 101 636
f 635 101 102
f 635 103 634
f 634 104 633
f 633 105 632
f 631 105 106
f 631 107 630
f 630 108 629
f 628 108 109
f 628 110 627
f 627 111 626
f 626 112 625
f 624 112 113
f 69 113 7
f 609 69 70
f 594 70 71
f 579 71 72
f 73 579 72
f 549 73 74
f 75 549 74
f 519 75 76
f 504 76 77
f 489 77 78
f 474 78 79
f 80 474 79
f 81 459 80
f 429 81 82
f 83 429 82
f 639 655 654
f 641 655 640
f 642 656 641
f 643 657 642
f 643 659 658
f 644 660 659
f 646 660 645
f 647 661 646
f 648 662 647
f 649 663 648
f 650 664 649
f 651 665 650
f 651 667 666
f 653 667 652
f 655 669 654
f 655 671 670
f 656 672 671
f 657 673 672
f 658 674 673
f 660 674 659
f 660 676 675
f 662 676 661
f 662 678 677
f 664 678 663
f 665 679 664
f 666 680 665
f 667 681 666
f 668 682 667
f 669 685 684
f 670 686 685
f 672 686 671
f 672 688 687
f 674 688 673
f 675 689 674
f 675 691 690
f 677 691 676
f 677 693 692
f 679 693 678
f 680 694 679
f 681 695 680
f 682 696 681
f 682 698 697
f 685 699 684
f 686 700 685
f 687 701 686
f 688 702 687
f 689 703 688
f 689 705 704
f 691 705 690
f 692 706 691
f 693 707 692
f 694 708 693
f 695 709 694
f 695 711 710
f 696 712 711
f 698 712 697
f 700 714 699
f 700 716 715
f 701 717 716
f 702 718 717
f 703 719 718
f 705 719 704
f 706 720 705
f 707 721 706
f 708 722 707
f 709 723 708
f 710 724 709
f 711 725 710
f 712 726 711
f 712 728 727
f 714 730 729
f 715 731 730
f 717 731 716
f 718 732 717
f 719 733 718
f 720 734 719
f 721 735 720
f 722 736 721
f 722 738 737
f 724 738 723
f 724 740 739
f 725 741 740
f 727 741 726
f 728 742 727
f 730 744 729
f 731 745 730
f 731 747 746
f 732 748 747
f 734 748 733
f 735 749 734
f 736 750 735
f 737 751 736
f 738 752 737
f 739 753 738
f 740 754 739
f 741 755 740
f 742 756 741
f 743 757 742
f 745 759 744
f 746 760 745
f 747 761 746
f 748 762 747
f 749 763 748
f 750 764 749
f 751 765 750
f 751 767 766
f 753 767 752
f 754 768 753
f 755 769 754
f 755 771 770
f 756 772 771
f 758 772 757
f 759 775 774
f 761 775 760
f 761 777 776
f 762 778 777
f 764 778 763
f 765 779 764
f 765 781 780
f 767 781 766
f 768 782 767
f 768 784 783
f 769 785 784
f 771 785 770
f 771 787 786
f 772 788 787
f 775 789 774
f 776 790 775
f 777 791 776
f 778 792 777
f 778 794 793
f 780 794 779
f 781 795 780
f 782 796 781
f 782 798 797
f 784 798 783
f 785 799 784
f 786 800 785
f 787 801 786
f 788 802 787
f 789 805 804
f 791 805 790
f 792 806 791
f 793 807 792
f 794 808 793
f 795 809 794
f 796 810 795
f 797 811 796
f 798 812 797
f 799 813 798
f 800 814 799
f 800 816 815
f 801 817 816
f 802 818 817
f 804 820 819
f 805 821 820
f 806 822 821
f 807 823 822
f 809 823 808
f 810 824 809
f 811 825 810
f 812 826 811
f 813 827 812
f 813 829 828
f 815 829 814
f 816 830 815
f 817 831 816
f 818 832 817
f 820 834 819
f 821 835 820
f 822 836 821
f 823 837 822
f 824 838 823
f 824 840 839
f 825 841 840
f 826 842 841
f 828 842 827
f 829 843 828
f 830 844 829
f 831 845 830
f 831 847 846
f 833 847 832
f 835 849 834
f 836 850 835
f 837 851 836
f 838 852 837
f 839 853 838
f 840 854 839
f 841 855 840
f 842 856 841
f 843 857 842
f 844 858 843
f 845 859 844
f 846 860 845
f 847 861 846
f 848 862 847
f 113 128 7
f 112 639 113
f 111 640 112
f 110 641 111
f 110 643 642
f 108 643 109
f 108 645 644
f 106 645 107
f 105 646 106
f 105 648 647
f 104 649 648
f 102 649 103
f 101 650 102
f 101 652 651
f 100 653 652
f 99 129 653
f 129 668 653
f 130 683 668
f 683 132 698
f 132 713 698
f 713 134 728
f 134 743 728
f 135 758 743
f 136 773 758
f 773 138 788
f 138 803 788
f 139 818 803
f 140 833 818
f 833 142 848
f 142 863 848
f 143 144 863
f 863 145 862
f 862 146 861
f 860 146 147
f 860 148 859
f 858 148 149
f 857 149 150
f 856 150 151
f 855 151 152
f 855 153 854
f 853 153 154
f 853 155 852
f 852 156 851
f 851 157 850
f 849 157 158
f 114 158 5
f 834 114 115
f 819 115 116
f 804 116 117
f 118 804 117
f 774 118 119
f 120 774 119
f 744 120 121
f 122 744 121
f 714 122 123
f 699 123 124
f 125 699 124
f 669 125 126
f 654 126 127
f 128 654 127
f 865 879 864
f 866 880 865
f 866 882 881
f 868 882 867
f 869 883 868
f 869 885 884
f 871 885 870
f 872 886 871
f 873 887 872
f 873 889 888
f 875 889 874
f 876 890 875
f 876 892 891
f 878 892 877
f 880 894 879
f 881 895 880
f 881 897 896
f 882 898 897
f 883 899 898
f 885 899 884
f 886 900 885
f 886 902 901
f 888 902 887
f 889 903 888
f 890 904 889
f 891 905 890
f 892 906 891
f 893 907 892
f 894 910 909
f 895 911 910
f 897 911 896
f 898 912 897
f 899 913 898
f 900 914 899
f 900 916 915
f 902 916 901
f 903 917 902
f 903 919 918
f 905 919 904
f 906 920 905
f 907 921 906
f 907 923 922
f 910 924 909
f 911 925 910
f 912 926 911
f 913 927 912
f 914 928 913
f 914 930 929
f 915 931 930
f 917 931 916
f 918 932 917
f 919 933 918
f 919 935 934
f 920 936 935
f 921 937 936
f 923 937 922
f 925 939 924
f 926 940 925
f 926 942 941
f 927 943 942
f 928 944 943
f 930 944 929
f 931 945 930
f 932 946 931
f 933 947 932
f 934 948 933
f 935 949 934
f 936 950 935
f 937 951 936
f 937 953 952
f 939 955 954
f 940 956 955
f 942 956 941
f 943 957 942
f 944 958 943
f 945 959 944
f 946 960 945
f 946 962 961
f 947 963 962
f 948 964 963
f 949 965 964
f 950 966 965
f 952 966 951
f 953 967 952
f 955 969 954
f 956 970 955
f 956 972 971
f 957 973 972
f 958 974 973
f 960 974 959
f 961 975 960
f 962 976 961
f 963 977 962
f 964 978 963
f 965 979 964
f 966 980 965
f 966 982 981
f 968 982 967
f 970 984 969
f 971 985 970
f 972 986 971
f 973 987 972
f 974 988 973
f 975 989 974
f 976 990 975
f 976 992 991
f 978 992 977
f 979 993 978
f 980 994 979
f 980 996 995
f 982 996 981
f 983 997 982
f 984 1000 999
f 986 1000 985
f 986 1002 1001
f 987 1003 1002
f 989 1003 988
f 989 1005 1004
f 990 1006 1005
f 992 1006 991
f 993 1007 992
f 993 1009 1008
f 994 1010 1009
f 996 1010 995
f 997 1011 996
f 997 1013 1012
f 1000 1014 999
f 1001 1015 1000
f 1002 1016 1001
f 1002 1018 1017
f 1004 1018 1003
f 1005 1019 1004
f 1005 1021 1020
f 1007 1021 1006
f 1008 1022 1007
f 1009 1023 1008
f 1010 1024 1009
f 1011 1025 1010
f 1012 1026 1011
f 1013 1027 1012
f 1014 1030 1029
f 1016 1030 1015
f 1017 1031 1016
f 1018 1032 1017
f 1018 1034 1033
f 1020 1034 1019
f 1021 1035 1020
f 1022 1036 1021
f 1023 1037 1022
f 1024 1038 1023
f 1025 1039 1024
f 1025 1041 1040
f 1026 1042 1041
f 1028 1042 1027
f 1029 1045 1044
f 1031 1045 1030
f 1032 1046 1031
f 1032 1048 1047
f 1033 1049 1048
f 1035 1049 1034
f 1036 1050 1035
f 1037 1051 1036
f 1038 1052 1037
f 1038 1054 1053
f 1039 1055 1054
f 1041 1055 1040
f 1042 1056 1041
f 1043 1057 1042
f 1045 1059 1044
f 1045 1061 1060
f 1047 1061 1046
f 1048 1062 1047
f 1049 1063 1048
f 1050 1064 1049
f 1051 1065 1050
f 1051 1067 1066
f 1052 1068 1067
f 1054 1068 1053
f 1055 1069 1054
f 1056 1070 1055
f 1057 1071 1056
f 1058 1072 1057
f 1059 1075 1074
f 1061 1075 1060
f 1062 1076 1061
f 1063 1077 1062
f 1063 1079 1078
f 1065 1079 1064
f 1066 1080 1065
f 1066 1082 1081
f 1068 1082 1067
f 1069 1083 1068
f 1070 1084 1069
f 1071 1085 1070
f 1072 1086 1071
f 1073 1087 1072
f 158 173 5
f 157 864 158
f 156 865 157
f 156 867 866
f 155 868 867
f 153 868 154
f 153 870 869
f 151 870 152
f 150 871 151
f 149 872 150
f 149 874 873
f 147 874 148
f 146 875 147
f 146 877 876
f 145 878 877
f 144 174 878
f 174 893 878
f 175 908 893
f 908 177 923
f 177 938 923
f 938 179 953
f 179 968 953
f 180 983 968
f 181 998 983
f 998 183 1013
f 183 1028 1013
f 1028 185 1043
f 185 1058 1043
f 1058 187 1073
f 187 1088 1073
f 188 38 1088
f 1087 38 37
f 1087 36 1086
f 1086 35 1085
f 1085 34 1084
f 1084 33 1083
f 1082 33 32
f 1081 32 31
f 1081 30 1080
f 1080 29 1079
f 1078 29 28
f 1078 27 1077
f 1077 26 1076
f 1075 26 25
f 1075 24 1074
f 159 24 1
f 1059 159 160
f 1044 160 161
f 1029 161 162
f 163 1029 162
f 999 163 164
f 165 999 164
f 969 165 166
f 954 166 167
f 939 167 168
f 924 168 169
f 170 924 169
f 171 909 170
f 879 171 172
f 173 879 172
f 1090 1104 1089
f 1091 1105 1090
f 1092 1106 1091
f 1092 1108 1107
f 1094 1108 1093
f 1094 1110 1109
f 1095 1111 1110
f 1097 1111 1096
f 1098 1112 1097
f 1099 1113 1098
f 1099 1115 1114
f 1100 1116 1115
f 1101 1117 1116
f 1102 1118 1117
f 1105 1119 1104
f 1106 1120 1105
f 1107 1121 1106
f 1108 1122 1107
f 1109 1123 1108
f 1110 1124 1109
f 1110 1126 1125
f 1112 1126 1111
f 1113 1127 1112
f 1114 1128 1113
f 1115 1129 1114
f 1115 1131 1130
f 1117 1131 1116
f 1118 1132 1117
f 1119 1135 1134
f 1120 1136 1135
f 1121 1137 1136
f 1122 1138 1137
f 1123 1139 1138
f 1125 1139 1124
f 1125 1141 1140
f 1127 1141 1126
f 1127 1143 1142
f 1129 1143 1128
f 1130 1144 1129
f 1131 1145 1130
f 1132 1146 1131
f 1133 1147 1132
f 1135 1149 1134
f 1136 1150 1135
f 1137 1151 1136
f 1137 1153 1152
f 1139 1153 1138
f 1140 1154 1139
f 1141 1155 1140
f 1142 1156 1141
f 1143 1157 1142
f 1144 1158 1143
f 1145 1159 1144
f 1145 1161 1160
f 1146 1162 1161
f 1148 1162 1147
f 1150 1164 1149
f 1150 1166 1165
f 1151 1167 1166
f 1153 1167 1152
f 1154 1168 1153
f 1154 1170 1169
f 1155 1171 1170
f 1156 1172 1171
f 1158 1172 1157
f 1158 1174 1173
f 1159 1175 1174
f 1161 1175 1160
f 1161 1177 1176
f 1162 1178 1177
f 1164 1180 1179
f 1165 1181 1180
f 1167 1181 1166
f 1168 1182 1167
f 1169 1183 1168
f 1170 1184 1169
f 1171 1185 1170
f 1172 1186 1171
f 1172 1188 1187
f 1174 1188 1173
f 1174 1190 1189
f 1176 1190 1175
f 1177 1191 1176
f 1178 1192 1177
f 1179 1195 1194
f 1181 1195 1180
f 1182 1196 1181
f 1182 1198 1197
f 1184 1198 1183
f 1185 1199 1184
f 1186 1200 1185
f 1186 1202 1201
f 1187 1203 1202
f 1188 1204 1203
f 1190 1204 1189
f 1190 1206 1205
f 1191 1207 1206
f 1193 1207 1192
f 1195 1209 1194
f 1196 1210 1195
f 1197 1211 1196
f 1198 1212 1197
f 1199 1213 1198
f 1200 1214 1199
f 1201 1215 1200
f 1202 1216 1201
f 1203 1217 1202
f 1204 1218 1203
f 1205 1219 1204
f 1205 1221 1220
f 1207 1221 1206
f 1208 1222 1207
f 1209 1225 1224
f 1211 1225 1210
f 1212 1226 1211
f 1212 1228 1227
f 1214 1228 1213
f 1214 1230 1229
f 1216 1230 1215
f 1217 1231 1216
f 1218 1232 1217
f 1218 1234 1233
f 1219 1235 1234
f 1221 1235 1220
f 1221 1237 1236
f 1222 1238 1237
f 1224 1240 1239
f 1226 1240 1225
f 1227 1241 1226
f 1227 1243 1242
f 1228 1244 1243
f 1230 1244 1229
f 1231 1245 1230
f 1232 1246 1231
f 1232 1248 1247
f 1234 1248 1233
f 1235 1249 1234
f 1236 1250 1235
f 1237 1251 1236
f 1238 1252 1237
f 1240 1254 1239
f 1240 1256 1255
f 1242 1256 1241
f 1243 1257 1242
f 1244 1258 1243
f 1245 1259 1244
f 1245 1261 1260
f 1247 1261 1246
f 1248 1262 1247
f 1249 1263 1248
f 1250 1264 1249
f 1251 1265 1250
f 1252 1266 1251
f 1253 1267 1252
f 1255 1269 1254
f 1256 1270 1255
f 1256 1272 1271
f 1258 1272 1257
f 1259 1273 1258
f 1259 1275 1274
f 1261 1275 1260
f 1262 1276 1261
f 1263 1277 1262
f 1263 1279 1278
f 1265 1279 1264
f 1266 1280 1265
f 1266 1282 1281
f 1267 1283 1282
f 1270 1284 1269
f 1270 1286 1285
f 1271 1287 1286
f 1272 1288 1287
f 1274 1288 1273
f 1275 1289 1274
f 1276 1290 1275
f 1277 1291 1276
f 1277 1293 1292
f 1279 1293 1278
f 1280 1294 1279
f 1281 1295 1280
f 1282 1296 1281
f 1283 1297 1282
f 1285 1299 1284
f 1285 1301 1300
f 1287 1301 1286
f 1288 1302 1287
f 1289 1303 1288
f 1290 1304 1289
f 1290 1306 1305
f 1292 1306 1291
f 1292 1308 1307
f 1294 1308 1293
f 1295 1309 1294
f 1296 1310 1295
f 1296 1312 1311
f 1298 1312 1297
f 83 9 3
f 83 1090 1089
f 81 1090 82
f 80 1091 81
f 79 1092 80
f 78 1093 79
f 78 1095 1094
f 77 1096 1095
f 75 1096 76
f 74 1097 75
f 74 1099 1098
f 72 1099 73
f 71 1100 72
f 70 1101 71
f 69 1102 70
f 69 128 1103
f 1103 127 1118
f 1118 126 1133
f 126 1148 1133
f 125 1163 1148
f 1163 123 1178
f 123 1193 1178
f 122 1208 1193
f 1208 120 1223
f 1223 119 1238
f 119 1253 1238
f 118 1268 1253
f 1268 116 1283
f 116 1298 1283
f 1298 114 1313
f 114 173 1313
f 1313 172 1312
f 1312 171 1311
f 1310 171 170
f 1309 170 169
f 1309 168 1308
f 1307 168 167
f 1307 166 1306
f 1306 165 1305
f 1305 164 1304
f 1303 164 163
f 1303 162 1302
f 1302 161 1301
f 1301 160 1300
f 1300 159 1299
f 23 159 1
f 22 1299 23
f 1269 22 21
f 1254 21 20
f 1239 20 19
f 18 1239 19
f 1209 18 17
f 1194 17 16
f 15 1194 16
f 14 1179 15
f 1149 14 13
f 12 1149 13
f 11 1134 12
f 1104 11 10
f 9 1104 10
f 1315 1329 1314
f 1316 1330 1315
f 1317 1331 1316
f 1317 1333 1332
f 1319 1333 1318
f 1319 1335 1334
f 1320 1336 1335
f 1322 1336 1321
f 1323 1337 1322
f 1324 1338 1323
f 1324 1340 1339
f 1325 1341 1340
f 1326 1342 1341
f 1327 1343 1342
f 1330 1344 1329
f 1331 1345 1330
f 1332 1346 1331
f 1333 1347 1332
f 1334 1348 1333
f 1335 1349 1334
f 1335 1351 1350
f 1337 1351 1336
f 1338 1352 1337
f 1339 1353 1338
f 1340 1354 1339
f 1340 1356 1355
f 1342 1356 1341
f 1343 1357 1342
f 1344 1360 1359
f 1345 1361 1360
f 1346 1362 1361
f 1347 1363 1362
f 1348 1364 1363
f 1350 1364 1349
f 1350 1366 1365
f 1352 1366 1351
f 1352 1368 1367
f 1354 1368 1353
f 1355 1369 1354
f 1356 1370 1355
f 1357 1371 1356
f 1358 1372 1357
f 1360 1374 1359
f 1361 1375 1360
f 1362 1376 1361
f 1362 1378 1377
f 1364 1378 1363
f 1365 1379 1364
f 1366 1380 1365
f 1367 1381 1366
f 1368 1382 1367
f 1369 1383 1368
f 1370 1384 1369
f 1370 1386 1385
f 1371 1387 1386
f 1373 1387 1372
f 1375 1389 1374
f 1375 1391 1390
f 1376 1392 1391
f 1378 1392 1377
f 1379 1393 1378
f 1379 1395 1394
f 1380 1396 1395
f 1381 1397 1396
f 1383 1397 1382
f 1383 1399 1398
f 1384 1400 1399
f 1386 1400 1385
f 1386 1402 1401
f 1387 1403 1402
f 1389 1405 1404
f 1390 1406 1405
f 1392 1406 1391
f 1393 1407 1392
f 1394 1408 1393
f 1395 1409 1394
f 1396 1410 1395
f 1397 1411 1396
f 1397 1413 1412
f 1399 1413 1398
f 1399 1415 1414
f 1401 1415 1400
f 1402 1416 1401
f 1403 1417 1402
f 1404 1420 1419
f 1406 1420 1405
f 1407 1421 1406
f 1407 1423 1422
f 1409 1423 1408
f 1410 1424 1409
f 1411 1425 1410
f 1411 1427 1426
f 1412 1428 1427
f 1413 1429 1428
f 1415 1429 1414
f 1415 1431 1430
f 1416 1432 1431
f 1418 1432 1417
f 1420 1434 1419
f 1421 1435 1420
f 1422 1436 1421
f 1423 1437 1422
f 1424 1438 1423
f 1425 1439 1424
f 1426 1440 1425
f 1427 1441 1426
f 1428 1442 1427
f 1429 1443 1428
f 1430 1444 1429
f 1430 1446 1445
f 1432 1446 1431
f 1433 1447 1432
f 1434 1450 1449
f 1436 1450 1435
f 1437 1451 1436
f 1437 1453 1452
f 1439 1453 1438
f 1439 1455 1454
f 1441 1455 1440
f 1442 1456 1441
f 1443 1457 1442
f 1443 1459 1458
f 1444 1460 1459
f 1446 1460 1445
f 1446 1462 1461
f 1447 1463 1462
f 1449 1465 1464
f 1451 1465 1450
f 1452 1466 1451
f 1452 1468 1467
f 1453 1469 1468
f 1455 1469 1454
f 1456 1470 1455
f 1457 1471 1456
f 1457 1473 1472
f 1459 1473 1458
f 1460 1474 1459
f 1461 1475 1460
f 1462 1476 1461
f 1463 1477 1462
f 1465 1479 1464
f 1465 1481 1480
f 1467 1481 1466
f 1468 1482 1467
f 1469 1483 1468
f 1470 1484 1469
f 1470 1486 1485
f 1472 1486 1471
f 1473 1487 1472
f 1474 1488 1473
f 1475 1489 1474
f 1476 1490 1475
f 1477 1491 1476
f 1478 1492 1477
f 1480 1494 1479
f 1481 1495 1480
f 1481 1497 1496
f 1483 1497 1482
f 1484 1498 1483
f 1484 1500 1499
f 1486 1500 1485
f 1487 1501 1486
f 1488 1502 1487
f 1488 1504 1503
f 1490 1504 1489
f 1491 1505 1490
f 1491 1507 1506
f 1492 1508 1507
f 1495 1509 1494
f 1495 1511 1510
f 1496 1512 1511
f 1497 1513 1512
f 1499 1513 1498
f 1500 1514 1499
f 1501 1515 1500
f 1502 1516 1501
f 1502 1518 1517
f 1504 1518 1503
f 1505 1519 1504
f 1506 1520 1505
f 1507 1521 1506
f 1508 1522 1507
f 1510 1524 1509
f 1510 1526 1525
f 1512 1526 1511
f 1513 1527 1512
f 1514 1528 1513
f 1515 1529 1514
f 1515 1531 1530
f 1517 1531 1516
f 1517 1533 1532
f 1519 1533 1518
f 1520 1534 1519
f 1521 1535 1520
f 1521 1537 1536
f 1523 1537 1522
f 98 129 8
f 97 1314 98
f 97 1316 1315
f 95 1316 96
f 94 1317 95
f 93 1318 94
f 93 1320 1319
f 92 1321 1320
f 90 1321 91
f 89 1322 90
f 89 1324 1323
f 87 1324 88
f 86 1325 87
f 85 1326 86
f 85 1328 1327
f 84 53 1328
f 1328 52 1343
f 52 1358 1343
f 1358 50 1373
f 50 1388 1373
f 1388 48 1403
f 48 1418 1403
f 47 1433 1418
f 1433 45 1448
f 1448 44 1463
f 44 1478 1463
f 43 1493 1478
f 1493 41 1508
f 1508 40 1523
f 40 1538 1523
f 39 188 1538
f 1538 187 1537
f 1536 187 186
f 1536 185 1535
f 1534 185 184
f 1534 183 1533
f 1532 183 182
f 1531 182 181
f 1530 181 180
f 1530 179 1529
f 1528 179 178
f 1528 177 1527
f 1527 176 1526
f 1526 175 1525
f 1525 174 1524
f 143 174 6
f 142 1524 143
f 1494 142 141
f 1479 141 140
f 1464 140 139
f 138 1464 139
f 1434 138 137
f 1419 137 136
f 135 1419 136
f 1389 135 134
f 1374 134 133
f 132 1374 133
f 131 1359 132
f 1329 131 130
f 1314 130 129
f 190 205 204
f 190 191 206
f 191 192 207
f 192 193 208
f 194 209 208
f 195 210 209
f 195 196 211
f 197 212 211
f 198 213 212
f 198 199 214
f 200 215 214
f 200 201 216
f 202 217 216
f 203 218 217
f 204 205 220
f 205 206 221
f 206 207 222
f 208 223 222
f 209 224 223
f 210 225 224
f 211 226 225
f 211 212 227
f 212 213 228
f 214 229 228
f 215 230 229
f 216 231 230
f 217 232 231
f 218 233 232
f 220 235 234
f 221 236 235
f 222 237 236
f 223 238 237
f 224 239 238
f 224 225 240
f 226 241 240
f 227 242 241
f 228 243 242
f 228 229 244
f 229 230 245
f 230 231 246
f 231 232 247
f 232 233 248
f 234 235 250
f 236 251 250
f 237 252 251
f 237 238 253
f 239 254 253
f 240 255 254
f 241 256 255
f 242 257 256
f 243 258 257
f 244 259 258
f 245 260 259
f 246 261 260
f 247 262 261
f 248 263 262
f 250 265 264
f 251 266 265
f 251 252 267
f 252 253 268
f 253 254 269
f 254 255 270
f 256 271 270
f 256 257 272
f 257 258 273
f 259 274 273
f 260 275 274
f 260 261 276
f 261 262 277
f 262 263 278
f 265 280 279
f 265 266 281
f 266 267 282
f 268 283 282
f 269 284 283
f 269 270 285
f 270 271 286
f 271 272 287
f 273 288 287
f 273 274 289
f 274 275 290
f 275 276 291
f 276 277 292
f 278 293 292
f 279 280 295
f 280 281 296
f 281 282 297
f 282 283 298
f 283 284 299
f 285 300 299
f 286 301 300
f 287 302 301
f 288 303 302
f 289 304 303
f 290 305 304
f 291 306 305
f 292 307 306
f 293 308 307
f 295 310 309
f 296 311 310
f 297 312 311
f 298 313 312
f 299 314 313
f 300 315 314
f 300 301 316
f 301 302 317
f 303 318 317
f 303 304 319
f 304 305 320
f 305 306 321
f 306 307 322
f 308 323 322
f 309 310 325
f 311 326 325
f 311 312 327
f 312 313 328
f 313 314 329
f 315 330 329
f 316 331 330
f 317 332 331
f 318 333 332
f 319 334 333
f 320 335 334
f 321 336 335
f 322 337 336
f 323 338 337
f 325 340 339
f 325 326 341
f 327 342 341
f 328 343 342
f 329 344 343
f 330 345 344
f 331 346 345
f 331 332 347
f 333 348 347
f 334 349 348
f 335 350 349
f 336 351 350
f 336 337 352
f 338 353 352
f 340 355 354
f 341 356 355
f 341 342 357
f 343 358 357
f 344 359 358
f 344 345 360
f 346 361 360
f 347 362 361
f 348 363 362
f 348 349 364
f 349 350 365
f 350 351 366
f 351 352 367
f 352 353 368
f 354 355 370
f 356 371 370
f 357 372 371
f 357 358 373
f 359 374 373
f 359 360 375
f 360 361 376
f 362 377 376
f 362 363 378
f 364 379 378
f 365 380 379
f 366 381 380
f 367 382 381
f 368 383 382
f 369 370 385
f 370 371 386
f 371 372 387
f 372 373 388
f 373 374 389
f 375 390 389
f 376 391 390
f 377 392 391
f 378 393 392
f 379 394 393
f 379 380 395
f 381 396 395
f 381 382 397
f 382 383 398
f 385 400 399
f 386 401 400
f 387 402 401
f 388 403 402
f 389 404 403
f 389 390 405
f 391 406 405
f 392 407 406
f 393 408 407
f 393 394 409
f 394 395 410
f 395 396 411
f 396 397 412
f 397 398 413
f 1 24 189
f 24 25 190
f 26 191 190
f 27 192 191
f 28 193 192
f 28 29 194
f 29 30 195
f 31 196 195
f 32 197 196
f 33 198 197
f 33 34 199
f 34 35 200
f 35 36 201
f 36 37 202
f 37 38 203
f 2 39 203
f 39 40 218
f 40 41 233
f 41 42 248
f 42 43 263
f 263 43 44
f 44 45 293
f 45 46 308
f 46 47 323
f 47 48 338
f 48 49 353
f 49 50 368
f 50 51 383
f 51 52 398
f 398 52 53
f 53 4 54
f 413 54 55
f 411 412 55
f 411 56 57
f 410 57 58
f 409 58 59
f 407 408 59
f 406 407 60
f 406 61 62
f 404 405 62
f 403 404 63
f 402 403 64
f 401 402 65
f 400 401 66
f 399 400 67
f 9 399 68
f 384 399 9
f 369 384 10
f 12 354 369
f 339 354 12
f 324 339 13
f 15 309 324
f 294 309 15
f 17 279 294
f 264 279 17
f 19 249 264
f 20 234 249
f 219 234 20
f 22 204 219
f 189 204 22
f 415 430 429
f 416 431 430
f 416 417 432
f 418 433 432
f 419 434 433
f 419 420 435
f 421 436 435
f 422 437 436
f 423 438 437
f 423 424 439
f 425 440 439
f 426 441 440
f 426 427 442
f 428 443 442
f 430 445 444
f 431 446 445
f 431 432 447
f 432 433 448
f 433 434 449
f 435 450 449
f 436 451 450
f 436 437 452
f 438 453 452
f 439 454 453
f 440 455 454
f 441 456 455
f 442 457 456
f 443 458 457
f 444 445 460
f 445 446 461
f 447 462 461
f 448 463 462
f 449 464 463
f 450 465 464
f 450 451 466
f 452 467 466
f 453 468 467
f 453 454 469
f 455 470 469
f 456 471 470
f 457 472 471
f 457 458 473
f 460 475 474
f 461 476 475
f 462 477 476
f 463 478 477
f 464 479 478
f 464 465 480
f 465 466 481
f 467 482 481
f 468 483 482
f 469 484 483
f 469 470 485
f 470 471 486
f 471 472 487
f 473 488 487
f 475 490 489
f 476 491 490
f 476 477 492
f 477 478 493
f 478 479 494
f 480 495 494
f 481 496 495
f 482 497 496
f 483 498 497
f 484 499 498
f 485 500 499
f 486 501 500
f 487 502 501
f 487 488 503
f 489 490 505
f 490 491 506
f 492 507 506
f 493 508 507
f 494 509 508
f 495 510 509
f 496 511 510
f 496 497 512
f 497 498 513
f 498 499 514
f 499 500 515
f 500 501 516
f 502 517 516
f 503 518 517
f 505 520 519
f 506 521 520
f 506 507 522
f 507 508 523
f 508 509 524
f 510 525 524
f 511 526 525
f 512 527 526
f 513 528 527
f 514 529 528
f 515 530 529
f 516 531 530
f 516 517 532
f 518 533 532
f 520 535 534
f 521 536 535
f 522 537 536
f 523 538 537
f 524 539 538
f 525 540 539
f 526 541 540
f 526 527 542
f 528 543 542
f 529 544 543
f 530 545 544
f 530 531 546
f 532 547 546
f 533 548 547
f 534 535 550
f 536 551 550
f 536 537 552
f 537 538 553
f 539 554 553
f 539 540 555
f 540 541 556
f 542 557 556
f 543 558 557
f 543 544 559
f 544 545 560
f 546 561 560
f 547 562 561
f 547 548 563
f 550 565 564
f 551 566 565
f 552 567 566
f 552 553 568
f 554 569 568
f 555 570 569
f 555 556 571
f 557 572 571
f 558 573 572
f 559 574 573
f 560 575 574
f 561 576 575
f 562 577 576
f 563 578 577
f 564 565 580
f 566 581 580
f 567 582 581
f 568 583 582
f 568 569 584
f 570 585 584
f 571 586 585
f 572 587 586
f 573 588 587
f 574 589 588
f 575 590 589
f 575 576 591
f 576 577 592
f 578 593 592
f 579 580 595
f 581 596 595
f 582 597 596
f 582 583 598
f 583 584 599
f 585 600 599
f 586 601 600
f 587 602 601
f 588 603 602
f 588 589 604
f 589 590 605
f 591 606 605
f 592 607 606
f 593 608 607
f 595 610 609
f 595 596 611
f 597 612 611
f 598 613 612
f 599 614 613
f 600 615 614
f 601 616 615
f 601 602 617
f 602 603 618
f 604 619 618
f 605 620 619
f 606 621 620
f 607 622 621
f 608 623 622
f 609 610 625
f 611 626 625
f 612 627 626
f 613 628 627
f 613 614 629
f 615 630 629
f 616 631 630
f 616 617 632
f 618 633 632
f 619 634 633
f 620 635 634
f 621 636 635
f 622 637 636
f 623 638 637
f 68 414 83
f 67 415 414
f 67 66 416
f 65 417 416
f 65 64 418
f 63 419 418
f 63 62 420
f 61 421 420
f 60 422 421
f 59 423 422
f 59 58 424
f 57 425 424
f 56 426 425
f 55 427 426
f 54 428 427
f 54 4 84
f 84 85 443
f 85 86 458
f 458 86 87
f 87 88 488
f 488 88 89
f 89 90 518
f 90 91 533
f 91 92 548
f 548 92 93
f 93 94 578
f 578 94 95
f 95 96 608
f 608 96 97
f 97 98 638
f 98 8 99
f 638 99 100
f 637 100 101
f 635 636 101
f 635 102 103
f 634 103 104
f 633 104 105
f 631 632 105
f 631 106 107
f 630 107 108
f 628 629 108
f 628 109 110
f 627 110 111
f 626 111 112
f 624 625 112
f 69 624 113
f 609 624 69
f 594 609 70
f 579 594 71
f 73 564 579
f 549 564 73
f 75 534 549
f 519 534 75
f 504 519 76
f 489 504 77
f 474 489 78
f 80 459 474
f 81 444 459
f 429 444 81
f 83 414 429
f 639 640 655
f 641 656 655
f 642 657 656
f 643 658 657
f 643 644 659
f 644 645 660
f 646 661 660
f 647 662 661
f 648 663 662
f 649 664 663
f 650 665 664
f 651 666 665
f 651 652 667
f 653 668 667
f 655 670 669
f 655 656 671
f 656 657 672
f 657 658 673
f 658 659 674
f 660 675 674
f 660 661 676
f 662 677 676
f 662 663 678
f 664 679 678
f 665 680 679
f 666 681 680
f 667 682 681
f 668 683 682
f 669 670 685
f 670 671 686
f 672 687 686
f 672 673 688
f 674 689 688
f 675 690 689
f 675 676 691
f 677 692 691
f 677 678 693
f 679 694 693
f 680 695 694
f 681 696 695
f 682 697 696
f 682 683 698
f 685 700 699
f 686 701 700
f 687 702 701
f 688 703 702
f 689 704 703
f 689 690 705
f 691 706 705
f 692 707 706
f 693 708 707
f 694 709 708
f 695 710 709
f 695 696 711
f 696 697 712
f 698 713 712
f 700 715 714
f 700 701 716
f 701 702 717
f 702 703 718
f 703 704 719
f 705 720 719
f 706 721 720
f 707 722 721
f 708 723 722
f 709 724 723
f 710 725 724
f 711 726 725
f 712 727 726
f 712 713 728
f 714 715 730
f 715 716 731
f 717 732 731
f 718 733 732
f 719 734 733
f 720 735 734
f 721 736 735
f 722 737 736
f 722 723 738
f 724 739 738
f 724 725 740
f 725 726 741
f 727 742 741
f 728 743 742
f 730 745 744
f 731 746 745
f 731 732 747
f 732 733 748
f 734 749 748
f 735 750 749
f 736 751 750
f 737 752 751
f 738 753 752
f 739 754 753
f 740 755 754
f 741 756 755
f 742 757 756
f 743 758 757
f 745 760 759
f 746 761 760
f 747 762 761
f 748 763 762
f 749 764 763
f 750 765 764
f 751 766 765
f 751 752 767
f 753 768 767
f 754 769 768
f 755 770 769
f 755 756 771
f 756 757 772
f 758 773 772
f 759 760 775
f 761 776 775
f 761 762 777
f 762 763 778
f 764 779 778
f 765 780 779
f 765 766 781
f 767 782 781
f 768 783 782
f 768 769 784
f 769 770 785
f 771 786 785
f 771 772 787
f 772 773 788
f 775 790 789
f 776 791 790
f 777 792 791
f 778 793 792
f 778 779 794
f 780 795 794
f 781 796 795
f 782 797 796
f 782 783 798
f 784 799 798
f 785 800 799
f 786 801 800
f 787 802 801
f 788 803 802
f 789 790 805
f 791 806 805
f 792 807 806
f 793 808 807
f 794 809 808
f 795 810 809
f 796 811 810
f 797 812 811
f 798 813 812
f 799 814 813
f 800 815 814
f 800 801 816
f 801 802 817
f 802 803 818
f 804 805 820
f 805 806 821
f 806 807 822
f 807 808 823
f 809 824 823
f 810 825 824
f 811 826 825
f 812 827 826
f 813 828 827
f 813 814 829
f 815 830 829
f 816 831 830
f 817 832 831
f 818 833 832
f 820 835 834
f 821 836 835
f 822 837 836
f 823 838 837
f 824 839 838
f 824 825 840
f 825 826 841
f 826 827 842
f 828 843 842
f 829 844 843
f 830 845 844
f 831 846 845
f 831 832 847
f 833 848 847
f 835 850 849
f 836 851 850
f 837 852 851
f 838 853 852
f 839 854 853
f 840 855 854
f 841 856 855
f 842 857 856
f 843 858 857
f 844 859 858
f 845 860 859
f 846 861 860
f 847 862 861
f 848 863 862
f 113 639 128
f 112 640 639
f 111 641 640
f 110 642 641
f 110 109 643
f 108 644 643
f 108 107 645
f 106 646 645
f 105 647 646
f 105 104 648
f 104 103 649
f 102 650 649
f 101 651 650
f 101 100 652
f 100 99 653
f 99 8 129
f 129 130 668
f 130 131 683
f 683 131 132
f 132 133 713
f 713 133 134
f 134 135 743
f 135 136 758
f 136 137 773
f 773 137 138
f 138 139 803
f 139 140 818
f 140 141 833
f 833 141 142
f 142 143 863
f 143 6 144
f 863 144 145
f 862 145 146
f 860 861 146
f 860 147 148
f 858 859 148
f 857 858 149
f 856 857 150
f 855 856 151
f 855 152 153
f 853 854 153
f 853 154 155
f 852 155 156
f 851 156 157
f 849 850 157
f 114 849 158
f 834 849 114
f 819 834 115
f 804 819 116
f 118 789 804
f 774 789 118
f 120 759 774
f 744 759 120
f 122 729 744
f 714 729 122
f 699 714 123
f 125 684 699
f 669 684 125
f 654 669 126
f 128 639 654
f 865 880 879
f 866 881 880
f 866 867 882
f 868 883 882
f 869 884 883
f 869 870 885
f 871 886 885
f 872 887 886
f 873 888 887
f 873 874 889
f 875 890 889
f 876 891 890
f 876 877 892
f 878 893 892
f 880 895 894
f 881 896 895
f 881 882 897
f 882 883 898
f 883 884 899
f 885 900 899
f 886 901 900
f 886 887 902
f 888 903 902
f 889 904 903
f 890 905 904
f 891 906 905
f 892 907 906
f 893 908 907
f 894 895 910
f 895 896 911
f 897 912 911
f 898 913 912
f 899 914 913
f 900 915 914
f 900 901 916
f 902 917 916
f 903 918 917
f 903 904 919
f 905 920 919
f 906 921 920
f 907 922 921
f 907 908 923
f 910 925 924
f 911 926 925
f 912 927 926
f 913 928 927
f 914 929 928
f 914 915 930
f 915 916 931
f 917 932 931
f 918 933 932
f 919 934 933
f 919 920 935
f 920 921 936
f 921 922 937
f 923 938 937
f 925 940 939
f 926 941 940
f 926 927 942
f 927 928 943
f 928 929 944
f 930 945 944
f 931 946 945
f 932 947 946
f 933 948 947
f 934 949 948
f 935 950 949
f 936 951 950
f 937 952 951
f 937 938 953
f 939 940 955
f 940 941 956
f 942 957 956
f 943 958 957
f 944 959 958
f 945 960 959
f 946 961 960
f 946 947 962
f 947 948 963
f 948 949 964
f 949 950 965
f 950 951 966
f 952 967 966
f 953 968 967
f 955 970 969
f 956 971 970
f 956 957 972
f 957 958 973
f 958 959 974
f 960 975 974
f 961 976 975
f 962 977 976
f 963 978 977
f 964 979 978
f 965 980 979
f 966 981 980
f 966 967 982
f 968 983 982
f 970 985 984
f 971 986 985
f 972 987 986
f 973 988 987
f 974 989 988
f 975 990 989
f 976 991 990
f 976 977 992
f 978 993 992
f 979 994 993
f 980 995 994
f 980 981 996
f 982 997 996
f 983 998 997
f 984 985 1000
f 986 1001 1000
f 986 987 1002
f 987 988 1003
f 989 1004 1003
f 989 990 1005
f 990 991 1006
f 992 1007 1006
f 993 1008 1007
f 993 994 1009
f 994 995 1010
f 996 1011 1010
f 997 1012 1011
f 997 998 1013
f 1000 1015 1014
f 1001 1016 1015
f 1002 1017 1016
f 1002 1003 1018
f 1004 1019 1018
f 1005 1020 1019
f 1005 1006 1021
f 1007 1022 1021
f 1008 1023 1022
f 1009 1024 1023
f 1010 1025 1024
f 1011 1026 1025
f 1012 1027 1026
f 1013 1028 1027
f 1014 1015 1030
f 1016 1031 1030
f 1017 1032 1031
f 1018 1033 1032
f 1018 1019 1034
f 1020 1035 1034
f 1021 1036 1035
f 1022 1037 1036
f 1023 1038 1037
f 1024 1039 1038
f 1025 1040 1039
f 1025 1026 1041
f 1026 1027 1042
f 1028 1043 1042
f 1029 1030 1045
f 1031 1046 1045
f 1032 1047 1046
f 1032 1033 1048
f 1033 1034 1049
f 1035 1050 1049
f 1036 1051 1050
f 1037 1052 1051
f 1038 1053 1052
f 1038 1039 1054
f 1039 1040 1055
f 1041 1056 1055
f 1042 1057 1056
f 1043 1058 1057
f 1045 1060 1059
f 1045 1046 1061
f 1047 1062 1061
f 1048 1063 1062
f 1049 1064 1063
f 1050 1065 1064
f 1051 1066 1065
f 1051 1052 1067
f 1052 1053 1068
f 1054 1069 1068
f 1055 1070 1069
f 1056 1071 1070
f 1057 1072 1071
f 1058 1073 1072
f 1059 1060 1075
f 1061 1076 1075
f 1062 1077 1076
f 1063 1078 1077
f 1063 1064 1079
f 1065 1080 1079
f 1066 1081 1080
f 1066 1067 1082
f 1068 1083 1082
f 1069 1084 1083
f 1070 1085 1084
f 1071 1086 1085
f 1072 1087 1086
f 1073 1088 1087
f 158 864 173
f 157 865 864
f 156 866 865
f 156 155 867
f 155 154 868
f 153 869 868
f 153 152 870
f 151 871 870
f 150 872 871
f 149 873 872
f 149 148 874
f 147 875 874
f 146 876 875
f 146 145 877
f 145 144 878
f 144 6 174
f 174 175 893
f 175 176 908
f 908 176 177
f 177 178 938
f 938 178 179
f 179 180 968
f 180 181 983
f 181 182 998
f 998 182 183
f 183 184 1028
f 1028 184 185
f 185 186 1058
f 1058 186 187
f 187 188 1088
f 188 2 38
f 1087 1088 38
f 1087 37 36
f 1086 36 35
f 1085 35 34
f 1084 34 33
f 1082 1083 33
f 1081 1082 32
f 1081 31 30
f 1080 30 29
f 1078 1079 29
f 1078 28 27
f 1077 27 26
f 1075 1076 26
f 1075 25 24
f 159 1074 24
f 1059 1074 159
f 1044 1059 160
f 1029 1044 161
f 163 1014 1029
f 999 1014 163
f 165 984 999
f 969 984 165
f 954 969 166
f 939 954 167
f 924 939 168
f 170 909 924
f 171 894 909
f 879 894 171
f 173 864 879
f 1090 1105 1104
f 1091 1106 1105
f 1092 1107 1106
f 1092 1093 1108
f 1094 1109 1108
f 1094 1095 1110
f 1095 1096 1111
f 1097 1112 1111
f 1098 1113 1112
f 1099 1114 1113
f 1099 1100 1115
f 1100 1101 1116
f 1101 1102 1117
f 1102 1103 1118
f 1105 1120 1119
f 1106 1121 1120
f 1107 1122 1121
f 1108 1123 1122
f 1109 1124 1123
f 1110 1125 1124
f 1110 1111 1126
f 1112 1127 1126
f 1113 1128 1127
f 1114 1129 1128
f 1115 1130 1129
f 1115 1116 1131
f 1117 1132 1131
f 1118 1133 1132
f 1119 1120 1135
f 1120 1121 1136
f 1121 1122 1137
f 1122 1123 1138
f 1123 1124 1139
f 1125 1140 1139
f 1125 1126 1141
f 1127 1142 1141
f 1127 1128 1143
f 1129 1144 1143
f 1130 1145 1144
f 1131 1146 1145
f 1132 1147 1146
f 1133 1148 1147
f 1135 1150 1149
f 1136 1151 1150
f 1137 1152 1151
f 1137 1138 1153
f 1139 1154 1153
f 1140 1155 1154
f 1141 1156 1155
f 1142 1157 1156
f 1143 1158 1157
f 1144 1159 1158
f 1145 1160 1159
f 1145 1146 1161
f 1146 1147 1162
f 1148 1163 1162
f 1150 1165 1164
f 1150 1151 1166
f 1151 1152 1167
f 1153 1168 1167
f 1154 1169 1168
f 1154 1155 1170
f 1155 1156 1171
f 1156 1157 1172
f 1158 1173 1172
f 1158 1159 1174
f 1159 1160 1175
f 1161 1176 1175
f 1161 1162 1177
f 1162 1163 1178
f 1164 1165 1180
f 1165 1166 1181
f 1167 1182 1181
f 1168 1183 1182
f 1169 1184 1183
f 1170 1185 1184
f 1171 1186 1185
f 1172 1187 1186
f 1172 1173 1188
f 1174 1189 1188
f 1174 1175 1190
f 1176 1191 1190
f 1177 1192 1191
f 1178 1193 1192
f 1179 1180 1195
f 1181 1196 1195
f 1182 1197 1196
f 1182 1183 1198
f 1184 1199 1198
f 1185 1200 1199
f 1186 1201 1200
f 1186 1187 1202
f 1187 1188 1203
f 1188 1189 1204
f 1190 1205 1204
f 1190 1191 1206
f 1191 1192 1207
f 1193 1208 1207
f 1195 1210 1209
f 1196 1211 1210
f 1197 1212 1211
f 1198 1213 1212
f 1199 1214 1213
f 1200 1215 1214
f 1201 1216 1215
f 1202 1217 1216
f 1203 1218 1217
f 1204 1219 1218
f 1205 1220 1219
f 1205 1206 1221
f 1207 1222 1221
f 1208 1223 1222
f 1209 1210 1225
f 1211 1226 1225
f 1212 1227 1226
f 1212 1213 1228
f 1214 1229 1228
f 1214 1215 1230
f 1216 1231 1230
f 1217 1232 1231
f 1218 1233 1232
f 1218 1219 1234
f 1219 1220 1235
f 1221 1236 1235
f 1221 1222 1237
f 1222 1223 1238
f 1224 1225 1240
f 1226 1241 1240
f 1227 1242 1241
f 1227 1228 1243
f 1228 1229 1244
f 1230 1245 1244
f 1231 1246 1245
f 1232 1247 1246
f 1232 1233 1248
f 1234 1249 1248
f 1235 1250 1249
f 1236 1251 1250
f 1237 1252 1251
f 1238 1253 1252
f 1240 1255 1254
f 1240 1241 1256
f 1242 1257 1256
f 1243 1258 1257
f 1244 1259 1258
f 1245 1260 1259
f 1245 1246 1261
f 1247 1262 1261
f 1248 1263 1262
f 1249 1264 1263
f 1250 1265 1264
f 1251 1266 1265
f 1252 1267 1266
f 1253 1268 1267
f 1255 1270 1269
f 1256 1271 1270
f 1256 1257 1272
f 1258 1273 1272
f 1259 1274 1273
f 1259 1260 1275
f 1261 1276 1275
f 1262 1277 1276
f 1263 1278 1277
f 1263 1264 1279
f 1265 1280 1279
f 1266 1281 1280
f 1266 1267 1282
f 1267 1268 1283
f 1270 1285 1284
f 1270 1271 1286
f 1271 1272 1287
f 1272 1273 1288
f 1274 1289 1288
f 1275 1290 1289
f 1276 1291 1290
f 1277 1292 1291
f 1277 1278 1293
f 1279 1294 1293
f 1280 1295 1294
f 1281 1296 1295
f 1282 1297 1296
f 1283 1298 1297
f 1285 1300 1299
f 1285 1286 1301
f 1287 1302 1301
f 1288 1303 1302
f 1289 1304 1303
f 1290 1305 1304
f 1290 1291 1306
f 1292 1307 1306
f 1292 1293 1308
f 1294 1309 1308
f 1295 1310 1309
f 1296 1311 1310
f 1296 1297 1312
f 1298 1313 1312
f 83 1089 9
f 83 82 1090
f 81 1091 1090
f 80 1092 1091
f 79 1093 1092
f 78 1094 1093
f 78 77 1095
f 77 76 1096
f 75 1097 1096
f 74 1098 1097
f 74 73 1099
f 72 1100 1099
f 71 1101 1100
f 70 1102 1101
f 69 1103 1102
f 69 7 128
f 1103 128 127
f 1118 127 126
f 126 125 1148
f 125 124 1163
f 1163 124 123
f 123 122 1193
f 122 121 1208
f 1208 121 120
f 1223 120 119
f 119 118 1253
f 118 117 1268
f 1268 117 116
f 116 115 1298
f 1298 115 114
f 114 5 173
f 1313 173 172
f 1312 172 171
f 1310 1311 171
f 1309 1310 170
f 1309 169 168
f 1307 1308 168
f 1307 167 166
f 1306 166 165
f 1305 165 164
f 1303 1304 164
f 1303 163 162
f 1302 162 161
f 1301 161 160
f 1300 160 159
f 23 1299 159
f 22 1284 1299
f 1269 1284 22
f 1254 1269 21
f 1239 1254 20
f 18 1224 1239
f 1209 1224 18
f 1194 1209 17
f 15 1179 1194
f 14 1164 1179
f 1149 1164 14
f 12 1134 1149
f 11 1119 1134
f 1104 1119 11
f 9 1089 1104
f 1315 1330 1329
f 1316 1331 1330
f 1317 1332 1331
f 1317 1318 1333
f 1319 1334 1333
f 1319 1320 1335
f 1320 1321 1336
f 1322 1337 1336
f 1323 1338 1337
f 1324 1339 1338
f 1324 1325 1340
f 1325 1326 1341
f 1326 1327 1342
f 1327 1328 1343
f 1330 1345 1344
f 1331 1346 1345
f 1332 1347 1346
f 1333 1348 1347
f 1334 1349 1348
f 1335 1350 1349
f 1335 1336 1351
f 1337 1352 1351
f 1338 1353 1352
f 1339 1354 1353
f 1340 1355 1354
f 1340 1341 1356
f 1342 1357 1356
f 1343 1358 1357
f 1344 1345 1360
f 1345 1346 1361
f 1346 1347 1362
f 1347 1348 1363
f 1348 1349 1364
f 1350 1365 1364
f 1350 1351 1366
f 1352 1367 1366
f 1352 1353 1368
f 1354 1369 1368
f 1355 1370 1369
f 1356 1371 1370
f 1357 1372 1371
f 1358 1373 1372
f 1360 1375 1374
f 1361 1376 1375
f 1362 1377 1376
f 1362 1363 1378
f 1364 1379 1378
f 1365 1380 1379
f 1366 1381 1380
f 1367 1382 1381
f 1368 1383 1382
f 1369 1384 1383
f 1370 1385 1384
f 1370 1371 1386
f 1371 1372 1387
f 1373 1388 1387
f 1375 1390 1389
f 1375 1376 1391
f 1376 1377 1392
f 1378 1393 1392
f 1379 1394 1393
f 1379 1380 1395
f 1380 1381 1396
f 1381 1382 1397
f 1383 1398 1397
f 1383 1384 1399
f 1384 1385 1400
f 1386 1401 1400
f 1386 1387 1402
f 1387 1388 1403
f 1389 1390 1405
f 1390 1391 1406
f 1392 1407 1406
f 1393 1408 1407
f 1394 1409 1408
f 1395 1410 1409
f 1396 1411 1410
f 1397 1412 1411
f 1397 1398 1413
f 1399 1414 1413
f 1399 1400 1415
f 1401 1416 1415
f 1402 1417 1416
f 1403 1418 1417
f 1404 1405 1420
f 1406 1421 1420
f 1407 1422 1421
f 1407 1408 1423
f 1409 1424 1423
f 1410 1425 1424
f 1411 1426 1425
f 1411 1412 1427
f 1412 1413 1428
f 1413 1414 1429
f 1415 1430 1429
f 1415 1416 1431
f 1416 1417 1432
f 1418 1433 1432
f 1420 1435 1434
f 1421 1436 1435
f 1422 1437 1436
f 1423 1438 1437
f 1424 1439 1438
f 1425 1440 1439
f 1426 1441 1440
f 1427 1442 1441
f 1428 1443 1442
f 1429 1444 1443
f 1430 1445 1444
f 1430 1431 1446
f 1432 1447 1446
f 1433 1448 1447
f 1434 1435 1450
f 1436 1451 1450
f 1437 1452 1451
f 1437 1438 1453
f 1439 1454 1453
f 1439 1440 1455
f 1441 1456 1455
f 1442 1457 1456
f 1443 1458 1457
f 1443 1444 1459
f 1444 1445 1460
f 1446 1461 1460
f 1446 1447 1462
f 1447 1448 1463
f 1449 1450 1465
f 1451 1466 1465
f 1452 1467 1466
f 1452 1453 1468
f 1453 1454 1469
f 1455 1470 1469
f 1456 1471 1470
f 1457 1472 1471
f 1457 1458 1473
f 1459 1474 1473
f 1460 1475 1474
f 1461 1476 1475
f 1462 1477 1476
f 1463 1478 1477
f 1465 1480 1479
f 1465 1466 1481
f 1467 1482 1481
f 1468 1483 1482
f 1469 1484 1483
f 1470 1485 1484
f 1470 1471 1486
f 1472 1487 1486
f 1473 1488 1487
f 1474 1489 1488
f 1475 1490 1489
f 1476 1491 1490
f 1477 1492 1491
f 1478 1493 1492
f 1480 1495 1494
f 1481 1496 1495
f 1481 1482 1497
f 1483 1498 1497
f 1484 1499 1498
f 1484 1485 1500
f 1486 1501 1500
f 1487 1502 1501
f 1488 1503 1502
f 1488 1489 1504
f 1490 1505 1504
f 1491 1506 1505
f 1491 1492 1507
f 1492 1493 1508
f 1495 1510 1509
f 1495 1496 1511
f 1496 1497 1512
f 1497 1498 1513
f 1499 1514 1513
f 1500 1515 1514
f 1501 1516 1515
f 1502 1517 1516
f 1502 1503 1518
f 1504 1519 1518
f 1505 1520 1519
f 1506 1521 1520
f 1507 1522 1521
f 1508 1523 1522
f 1510 1525 1524
f 1510 1511 1526
f 1512 1527 1526
f 1513 1528 1527
f 1514 1529 1528
f 1515 1530 1529
f 1515 1516 1531
f 1517 1532 1531
f 1517 1518 1533
f 1519 1534 1533
f 1520 1535 1534
f 1521 1536 1535
f 1521 1522 1537
f 1523 1538 1537
f 98 1314 129
f 97 1315 1314
f 97 96 1316
f 95 1317 1316
f 94 1318 1317
f 93 1319 1318
f 93 92 1320
f 92 91 1321
f 90 1322 1321
f 89 1323 1322
f 89 88 1324
f 87 1325 1324
f 86 1326 1325
f 85 1327 1326
f 85 84 1328
f 84 4 53
f 1328 53 52
f 52 51 1358
f 1358 51 50
f 50 49 1388
f 1388 49 48
f 48 47 1418
f 47 46 1433
f 1433 46 45
f 1448 45 44
f 44 43 1478
f 43 42 1493
f 1493 42 41
f 1508 41 40
f 40 39 1538
f 39 2 188
f 1538 188 187
f 1536 1537 187
f 1536 186 185
f 1534 1535 185
f 1534 184 183
f 1532 1533 183
f 1531 1532 182
f 1530 1531 181
f 1530 180 179
f 1528 1529 179
f 1528 178 177
f 1527 177 176
f 1526 176 175
f 1525 175 174
f 143 1524 174
f 142 1509 1524
f 1494 1509 142
f 1479 1494 141
f 1464 1479 140
f 138 1449 1464
f 1434 1449 138
f 1419 1434 137
f 135 1404 1419
f 1389 1404 135
f 1374 1389 134
f 132 1359 1374
f 131 1344 1359
f 1329 1344 131
f 1314 1329 130
