# Blender 4.4.3
# www.blender.org
o brick_x-1-push.001
v 0.152454 0.238488 0.103272
v -0.152259 0.238506 0.103272
v 0.152453 0.238500 0.250856
v -0.152259 0.238519 0.250856
v 0.152439 0.006308 0.103291
v -0.152273 0.006327 0.103291
v 0.152439 0.006320 0.250875
v -0.152273 0.006339 0.250875
v 0.152453 0.238499 0.241632
v 0.152453 0.238498 0.232408
v 0.152453 0.238498 0.223184
v 0.152453 0.238497 0.213960
v 0.152453 0.238496 0.204736
v 0.152453 0.238495 0.195512
v 0.152453 0.238495 0.186288
v 0.152453 0.238494 0.177064
v 0.152453 0.238493 0.167840
v 0.152453 0.238492 0.158616
v 0.152453 0.238491 0.149392
v 0.152454 0.238491 0.140168
v 0.152454 0.238490 0.130944
v 0.152453 0.238489 0.121720
v 0.152454 0.238488 0.112496
v 0.133409 0.238489 0.103272
v 0.114365 0.238490 0.103272
v 0.095320 0.238491 0.103272
v 0.076275 0.238492 0.103272
v 0.057231 0.238494 0.103272
v 0.038186 0.238495 0.103272
v 0.019142 0.238496 0.103272
v 0.000097 0.238497 0.103272
v -0.018947 0.238498 0.103272
v -0.037992 0.238499 0.103272
v -0.057036 0.238501 0.103272
v -0.076081 0.238502 0.103272
v -0.095125 0.238503 0.103272
v -0.114170 0.238504 0.103272
v -0.133214 0.238505 0.103272
v -0.152259 0.238507 0.112496
v -0.152259 0.238508 0.121720
v -0.152259 0.238509 0.130944
v -0.152259 0.238509 0.140168
v -0.152259 0.238510 0.149392
v -0.152259 0.238511 0.158616
v -0.152259 0.238512 0.167840
v -0.152259 0.238513 0.177064
v -0.152259 0.238513 0.186288
v -0.152259 0.238514 0.195512
v -0.152259 0.238515 0.204736
v -0.152259 0.238516 0.213960
v -0.152259 0.238516 0.223184
v -0.152259 0.238517 0.232408
v -0.152259 0.238518 0.241632
v -0.133214 0.238517 0.250856
v -0.114170 0.238516 0.250856
v -0.095125 0.238515 0.250856
v -0.076081 0.238514 0.250856
v -0.057036 0.238513 0.250856
v -0.037992 0.238512 0.250856
v -0.018947 0.238510 0.250856
v 0.000097 0.238509 0.250856
v 0.019142 0.238508 0.250856
v 0.038186 0.238507 0.250856
v 0.057231 0.238506 0.250856
v 0.076275 0.238505 0.250856
v 0.095320 0.238503 0.250856
v 0.114364 0.238502 0.250856
v 0.133409 0.238501 0.250856
v 0.152440 0.020832 0.250874
v 0.152441 0.035343 0.250873
v 0.152442 0.049854 0.250871
v 0.152443 0.064365 0.250870
v 0.152444 0.078876 0.250869
v 0.152445 0.093388 0.250868
v 0.152445 0.107899 0.250867
v 0.152446 0.122410 0.250865
v 0.152447 0.136921 0.250864
v 0.152448 0.151433 0.250863
v 0.152449 0.165944 0.250862
v 0.152450 0.180455 0.250861
v 0.152451 0.194966 0.250859
v 0.152452 0.209477 0.250858
v 0.152453 0.223989 0.250857
v -0.152260 0.224007 0.250857
v -0.152261 0.209496 0.250858
v -0.152261 0.194985 0.250859
v -0.152262 0.180474 0.250861
v -0.152263 0.165963 0.250862
v -0.152264 0.151451 0.250863
v -0.152265 0.136940 0.250864
v -0.152266 0.122429 0.250865
v -0.152267 0.107918 0.250867
v -0.152268 0.093406 0.250868
v -0.152269 0.078895 0.250869
v -0.152269 0.064384 0.250870
v -0.152270 0.049873 0.250871
v -0.152271 0.035362 0.250873
v -0.152272 0.020850 0.250874
v -0.133228 0.006338 0.250875
v -0.114184 0.006337 0.250875
v -0.095139 0.006336 0.250875
v -0.076095 0.006334 0.250875
v -0.057050 0.006333 0.250875
v -0.038006 0.006332 0.250875
v -0.018961 0.006331 0.250875
v 0.000083 0.006330 0.250875
v 0.019128 0.006329 0.250875
v 0.038172 0.006327 0.250875
v 0.057217 0.006326 0.250875
v 0.076261 0.006325 0.250875
v 0.095306 0.006324 0.250875
v 0.114350 0.006323 0.250875
v 0.133395 0.006322 0.250875
v 0.152439 0.006309 0.112515
v 0.152439 0.006310 0.121739
v 0.152439 0.006310 0.130963
v 0.152439 0.006311 0.140187
v 0.152439 0.006312 0.149411
v 0.152439 0.006313 0.158635
v 0.152439 0.006314 0.167859
v 0.152439 0.006314 0.177083
v 0.152439 0.006315 0.186307
v 0.152439 0.006316 0.195531
v 0.152439 0.006317 0.204755
v 0.152439 0.006317 0.213979
v 0.152439 0.006318 0.223203
v 0.152439 0.006319 0.232427
v 0.152439 0.006320 0.241651
v -0.152273 0.006338 0.241651
v -0.152273 0.006338 0.232427
v -0.152273 0.006337 0.223203
v -0.152273 0.006336 0.213979
v -0.152273 0.006335 0.204755
v -0.152273 0.006335 0.195531
v -0.152273 0.006334 0.186307
v -0.152273 0.006333 0.177083
v -0.152273 0.006332 0.167859
v -0.152273 0.006331 0.158635
v -0.152273 0.006331 0.149411
v -0.152273 0.006330 0.140187
v -0.152273 0.006329 0.130963
v -0.152273 0.006328 0.121739
v -0.152273 0.006328 0.112515
v -0.133228 0.006326 0.103291
v -0.114184 0.006325 0.103291
v -0.095139 0.006323 0.103291
v -0.076095 0.006322 0.103291
v -0.057050 0.006321 0.103291
v -0.038006 0.006320 0.103291
v -0.018961 0.006319 0.103291
v 0.000083 0.006317 0.103291
v 0.019128 0.006316 0.103291
v 0.038172 0.006315 0.103291
v 0.057217 0.006314 0.103291
v 0.076261 0.006313 0.103291
v 0.095306 0.006312 0.103291
v 0.114350 0.006310 0.103291
v 0.133395 0.006309 0.103291
v 0.152453 0.223976 0.103273
v 0.152452 0.209465 0.103274
v 0.152451 0.194954 0.103275
v 0.152450 0.180443 0.103277
v 0.152449 0.165932 0.103278
v 0.152448 0.151420 0.103279
v 0.152447 0.136909 0.103280
v 0.152446 0.122398 0.103281
v 0.152445 0.107887 0.103283
v 0.152445 0.093375 0.103284
v 0.152444 0.078864 0.103285
v 0.152443 0.064353 0.103286
v 0.152442 0.049842 0.103287
v 0.152441 0.035331 0.103289
v 0.152440 0.020819 0.103290
v -0.152272 0.020838 0.103290
v -0.152271 0.035349 0.103289
v -0.152270 0.049861 0.103287
v -0.152269 0.064372 0.103286
v -0.152268 0.078883 0.103285
v -0.152268 0.093394 0.103284
v -0.152267 0.107905 0.103283
v -0.152266 0.122417 0.103281
v -0.152265 0.136928 0.103280
v -0.152264 0.151439 0.103279
v -0.152263 0.165950 0.103278
v -0.152262 0.180462 0.103277
v -0.152261 0.194973 0.103275
v -0.152260 0.209484 0.103274
v -0.152260 0.223995 0.103273
v 0.133409 0.238490 0.112496
v 0.114364 0.238491 0.112496
v 0.095320 0.238492 0.112496
v 0.076275 0.238493 0.112496
v 0.057231 0.238494 0.112496
v 0.038186 0.238495 0.112496
v 0.019142 0.238497 0.112496
v 0.000097 0.238498 0.112496
v -0.018947 0.238499 0.112496
v -0.037992 0.238500 0.112496
v -0.057036 0.238501 0.112496
v -0.076081 0.238502 0.112496
v -0.095125 0.238504 0.112496
v -0.114170 0.238505 0.112496
v -0.133214 0.238506 0.112496
v 0.133409 0.238490 0.121720
v 0.114364 0.238492 0.121720
v 0.095320 0.238493 0.121720
v 0.076275 0.238494 0.121720
v 0.057231 0.238495 0.121720
v 0.038186 0.238496 0.121720
v 0.019142 0.238497 0.121720
v 0.000097 0.238499 0.121720
v -0.018947 0.238500 0.121720
v -0.037992 0.238501 0.121720
v -0.057036 0.238502 0.121720
v -0.076081 0.238503 0.121720
v -0.095125 0.238504 0.121720
v -0.114170 0.238506 0.121720
v -0.133214 0.238507 0.121720
v 0.133409 0.238491 0.130944
v 0.114364 0.238492 0.130944
v 0.095320 0.238493 0.130944
v 0.076275 0.238495 0.130944
v 0.057231 0.238496 0.130944
v 0.038186 0.238497 0.130944
v 0.019142 0.238498 0.130944
v 0.000097 0.238499 0.130944
v -0.018947 0.238501 0.130944
v -0.037992 0.238502 0.130944
v -0.057036 0.238503 0.130944
v -0.076081 0.238504 0.130944
v -0.095125 0.238505 0.130944
v -0.114170 0.238506 0.130944
v -0.133214 0.238508 0.130944
v 0.133409 0.238492 0.140168
v 0.114364 0.238493 0.140168
v 0.095320 0.238494 0.140168
v 0.076275 0.238495 0.140168
v 0.057231 0.238497 0.140168
v 0.038186 0.238498 0.140168
v 0.019142 0.238499 0.140168
v 0.000097 0.238500 0.140168
v -0.018947 0.238501 0.140168
v -0.037992 0.238502 0.140168
v -0.057036 0.238504 0.140168
v -0.076081 0.238505 0.140168
v -0.095125 0.238506 0.140168
v -0.114170 0.238507 0.140168
v -0.133214 0.238508 0.140168
v 0.133409 0.238493 0.149392
v 0.114364 0.238494 0.149392
v 0.095320 0.238495 0.149392
v 0.076275 0.238496 0.149392
v 0.057231 0.238497 0.149392
v 0.038186 0.238499 0.149392
v 0.019142 0.238500 0.149392
v 0.000097 0.238501 0.149392
v -0.018947 0.238502 0.149392
v -0.037992 0.238503 0.149392
v -0.057036 0.238504 0.149392
v -0.076081 0.238506 0.149392
v -0.095125 0.238507 0.149392
v -0.114170 0.238508 0.149392
v -0.133214 0.238509 0.149392
v 0.133409 0.238493 0.158616
v 0.114364 0.238495 0.158616
v 0.095320 0.238496 0.158616
v 0.076275 0.238497 0.158616
v 0.057231 0.238498 0.158616
v 0.038186 0.238499 0.158616
v 0.019142 0.238500 0.158616
v 0.000097 0.238502 0.158616
v -0.018947 0.238503 0.158616
v -0.037992 0.238504 0.158616
v -0.057036 0.238505 0.158616
v -0.076081 0.238506 0.158616
v -0.095125 0.238507 0.158616
v -0.114170 0.238509 0.158616
v -0.133214 0.238510 0.158616
v 0.133409 0.238494 0.167840
v 0.114364 0.238495 0.167840
v 0.095320 0.238497 0.167840
v 0.076275 0.238498 0.167840
v 0.057231 0.238499 0.167840
v 0.038186 0.238500 0.167840
v 0.019142 0.238501 0.167840
v 0.000097 0.238502 0.167840
v -0.018947 0.238504 0.167840
v -0.037992 0.238505 0.167840
v -0.057036 0.238506 0.167840
v -0.076081 0.238507 0.167840
v -0.095125 0.238508 0.167840
v -0.114170 0.238509 0.167840
v -0.133214 0.238511 0.167840
v 0.133409 0.238495 0.177064
v 0.114364 0.238496 0.177064
v 0.095320 0.238497 0.177064
v 0.076275 0.238498 0.177064
v 0.057231 0.238500 0.177064
v 0.038186 0.238501 0.177064
v 0.019142 0.238502 0.177064
v 0.000097 0.238503 0.177064
v -0.018947 0.238504 0.177064
v -0.037992 0.238506 0.177064
v -0.057036 0.238507 0.177064
v -0.076081 0.238508 0.177064
v -0.095125 0.238509 0.177064
v -0.114170 0.238510 0.177064
v -0.133214 0.238511 0.177064
v 0.133409 0.238496 0.186288
v 0.114364 0.238497 0.186288
v 0.095320 0.238498 0.186288
v 0.076275 0.238499 0.186288
v 0.057231 0.238500 0.186288
v 0.038186 0.238502 0.186288
v 0.019142 0.238503 0.186288
v 0.000097 0.238504 0.186288
v -0.018947 0.238505 0.186288
v -0.037992 0.238506 0.186288
v -0.057036 0.238507 0.186288
v -0.076081 0.238509 0.186288
v -0.095125 0.238510 0.186288
v -0.114170 0.238511 0.186288
v -0.133214 0.238512 0.186288
v 0.133409 0.238496 0.195512
v 0.114364 0.238498 0.195512
v 0.095320 0.238499 0.195512
v 0.076275 0.238500 0.195512
v 0.057231 0.238501 0.195512
v 0.038186 0.238502 0.195512
v 0.019142 0.238504 0.195512
v 0.000097 0.238505 0.195512
v -0.018947 0.238506 0.195512
v -0.037992 0.238507 0.195512
v -0.057036 0.238508 0.195512
v -0.076081 0.238509 0.195512
v -0.095125 0.238511 0.195512
v -0.114170 0.238512 0.195512
v -0.133214 0.238513 0.195512
v 0.133409 0.238497 0.204736
v 0.114364 0.238498 0.204736
v 0.095320 0.238500 0.204736
v 0.076275 0.238501 0.204736
v 0.057231 0.238502 0.204736
v 0.038186 0.238503 0.204736
v 0.019142 0.238504 0.204736
v 0.000097 0.238505 0.204736
v -0.018947 0.238507 0.204736
v -0.037992 0.238508 0.204736
v -0.057036 0.238509 0.204736
v -0.076081 0.238510 0.204736
v -0.095125 0.238511 0.204736
v -0.114170 0.238512 0.204736
v -0.133214 0.238514 0.204736
v 0.133409 0.238498 0.213960
v 0.114364 0.238499 0.213960
v 0.095320 0.238500 0.213960
v 0.076275 0.238502 0.213960
v 0.057231 0.238503 0.213960
v 0.038186 0.238504 0.213960
v 0.019142 0.238505 0.213960
v 0.000097 0.238506 0.213960
v -0.018947 0.238507 0.213960
v -0.037992 0.238509 0.213960
v -0.057036 0.238510 0.213960
v -0.076081 0.238511 0.213960
v -0.095125 0.238512 0.213960
v -0.114170 0.238513 0.213960
v -0.133214 0.238514 0.213960
v 0.133409 0.238499 0.223184
v 0.114364 0.238500 0.223184
v 0.095320 0.238501 0.223184
v 0.076275 0.238502 0.223184
v 0.057231 0.238503 0.223184
v 0.038186 0.238505 0.223184
v 0.019142 0.238506 0.223184
v 0.000097 0.238507 0.223184
v -0.018947 0.238508 0.223184
v -0.037992 0.238509 0.223184
v -0.057036 0.238511 0.223184
v -0.076081 0.238512 0.223184
v -0.095125 0.238513 0.223184
v -0.114170 0.238514 0.223184
v -0.133214 0.238515 0.223184
v 0.133409 0.238500 0.232408
v 0.114364 0.238501 0.232408
v 0.095320 0.238502 0.232408
v 0.076275 0.238503 0.232408
v 0.057231 0.238504 0.232408
v 0.038186 0.238505 0.232408
v 0.019142 0.238507 0.232408
v 0.000097 0.238508 0.232408
v -0.018947 0.238509 0.232408
v -0.037992 0.238510 0.232408
v -0.057036 0.238511 0.232408
v -0.076081 0.238512 0.232408
v -0.095125 0.238514 0.232408
v -0.114170 0.238515 0.232408
v -0.133214 0.238516 0.232408
v 0.133409 0.238500 0.241632
v 0.114364 0.238501 0.241632
v 0.095320 0.238503 0.241632
v 0.076275 0.238504 0.241632
v 0.057231 0.238505 0.241632
v 0.038186 0.238506 0.241632
v 0.019142 0.238507 0.241632
v 0.000097 0.238509 0.241632
v -0.018947 0.238510 0.241632
v -0.037992 0.238511 0.241632
v -0.057036 0.238512 0.241632
v -0.076081 0.238513 0.241632
v -0.095125 0.238514 0.241632
v -0.114170 0.238516 0.241632
v -0.133214 0.238517 0.241632
v 0.133408 0.223990 0.250857
v 0.114364 0.223991 0.250857
v 0.095319 0.223992 0.250857
v 0.076275 0.223993 0.250857
v 0.057230 0.223995 0.250857
v 0.038186 0.223996 0.250857
v 0.019141 0.223997 0.250857
v 0.000096 0.223998 0.250857
v -0.018948 0.223999 0.250857
v -0.037993 0.224000 0.250857
v -0.057037 0.224002 0.250857
v -0.076082 0.224003 0.250857
v -0.095126 0.224004 0.250857
v -0.114171 0.224005 0.250857
v -0.133215 0.224006 0.250857
v 0.133407 0.209479 0.250858
v 0.114363 0.209480 0.250858
v 0.095318 0.209481 0.250858
v 0.076274 0.209482 0.250858
v 0.057229 0.209483 0.250858
v 0.038185 0.209485 0.250858
v 0.019140 0.209486 0.250858
v 0.000096 0.209487 0.250858
v -0.018949 0.209488 0.250858
v -0.037993 0.209489 0.250858
v -0.057038 0.209490 0.250858
v -0.076082 0.209492 0.250858
v -0.095127 0.209493 0.250858
v -0.114171 0.209494 0.250858
v -0.133216 0.209495 0.250858
v 0.133406 0.194967 0.250859
v 0.114362 0.194969 0.250859
v 0.095317 0.194970 0.250859
v 0.076273 0.194971 0.250859
v 0.057228 0.194972 0.250859
v 0.038184 0.194973 0.250859
v 0.019139 0.194974 0.250859
v 0.000095 0.194976 0.250859
v -0.018950 0.194977 0.250859
v -0.037994 0.194978 0.250859
v -0.057039 0.194979 0.250859
v -0.076083 0.194980 0.250859
v -0.095128 0.194981 0.250859
v -0.114172 0.194983 0.250859
v -0.133217 0.194984 0.250859
v 0.133405 0.180456 0.250861
v 0.114361 0.180457 0.250861
v 0.095316 0.180459 0.250861
v 0.076272 0.180460 0.250861
v 0.057227 0.180461 0.250861
v 0.038183 0.180462 0.250861
v 0.019138 0.180463 0.250861
v 0.000094 0.180464 0.250861
v -0.018951 0.180466 0.250861
v -0.037995 0.180467 0.250861
v -0.057040 0.180468 0.250861
v -0.076084 0.180469 0.250861
v -0.095129 0.180470 0.250861
v -0.114173 0.180471 0.250861
v -0.133218 0.180473 0.250861
v 0.133405 0.165945 0.250862
v 0.114360 0.165946 0.250862
v 0.095315 0.165947 0.250862
v 0.076271 0.165949 0.250862
v 0.057226 0.165950 0.250862
v 0.038182 0.165951 0.250862
v 0.019137 0.165952 0.250862
v 0.000093 0.165953 0.250862
v -0.018952 0.165954 0.250862
v -0.037996 0.165956 0.250862
v -0.057041 0.165957 0.250862
v -0.076085 0.165958 0.250862
v -0.095130 0.165959 0.250862
v -0.114174 0.165960 0.250862
v -0.133219 0.165961 0.250862
v 0.133404 0.151434 0.250863
v 0.114359 0.151435 0.250863
v 0.095315 0.151436 0.250863
v 0.076270 0.151437 0.250863
v 0.057226 0.151438 0.250863
v 0.038181 0.151440 0.250863
v 0.019137 0.151441 0.250863
v 0.000092 0.151442 0.250863
v -0.018952 0.151443 0.250863
v -0.037997 0.151444 0.250863
v -0.057042 0.151445 0.250863
v -0.076086 0.151447 0.250863
v -0.095131 0.151448 0.250863
v -0.114175 0.151449 0.250863
v -0.133220 0.151450 0.250863
v 0.133403 0.136923 0.250864
v 0.114358 0.136924 0.250864
v 0.095314 0.136925 0.250864
v 0.076269 0.136926 0.250864
v 0.057225 0.136927 0.250864
v 0.038180 0.136928 0.250864
v 0.019136 0.136930 0.250864
v 0.000091 0.136931 0.250864
v -0.018953 0.136932 0.250864
v -0.037998 0.136933 0.250864
v -0.057042 0.136934 0.250864
v -0.076087 0.136935 0.250864
v -0.095131 0.136937 0.250864
v -0.114176 0.136938 0.250864
v -0.133220 0.136939 0.250864
v 0.133402 0.122411 0.250865
v 0.114357 0.122413 0.250865
v 0.095313 0.122414 0.250865
v 0.076268 0.122415 0.250865
v 0.057224 0.122416 0.250865
v 0.038179 0.122417 0.250865
v 0.019135 0.122418 0.250865
v 0.000090 0.122420 0.250865
v -0.018954 0.122421 0.250865
v -0.037999 0.122422 0.250865
v -0.057043 0.122423 0.250865
v -0.076088 0.122424 0.250865
v -0.095132 0.122425 0.250865
v -0.114177 0.122427 0.250865
v -0.133221 0.122428 0.250865
v 0.133401 0.107900 0.250867
v 0.114356 0.107901 0.250867
v 0.095312 0.107902 0.250867
v 0.076267 0.107904 0.250867
v 0.057223 0.107905 0.250867
v 0.038178 0.107906 0.250867
v 0.019134 0.107907 0.250867
v 0.000089 0.107908 0.250867
v -0.018955 0.107909 0.250867
v -0.038000 0.107911 0.250867
v -0.057044 0.107912 0.250867
v -0.076089 0.107913 0.250867
v -0.095133 0.107914 0.250867
v -0.114178 0.107915 0.250867
v -0.133222 0.107917 0.250867
v 0.133400 0.093389 0.250868
v 0.114356 0.093390 0.250868
v 0.095311 0.093391 0.250868
v 0.076267 0.093392 0.250868
v 0.057222 0.093394 0.250868
v 0.038177 0.093395 0.250868
v 0.019133 0.093396 0.250868
v 0.000088 0.093397 0.250868
v -0.018956 0.093398 0.250868
v -0.038001 0.093399 0.250868
v -0.057045 0.093401 0.250868
v -0.076090 0.093402 0.250868
v -0.095134 0.093403 0.250868
v -0.114179 0.093404 0.250868
v -0.133223 0.093405 0.250868
v 0.133399 0.078878 0.250869
v 0.114355 0.078879 0.250869
v 0.095310 0.078880 0.250869
v 0.076266 0.078881 0.250869
v 0.057221 0.078882 0.250869
v 0.038177 0.078884 0.250869
v 0.019132 0.078885 0.250869
v 0.000088 0.078886 0.250869
v -0.018957 0.078887 0.250869
v -0.038001 0.078888 0.250869
v -0.057046 0.078889 0.250869
v -0.076090 0.078891 0.250869
v -0.095135 0.078892 0.250869
v -0.114180 0.078893 0.250869
v -0.133224 0.078894 0.250869
v 0.133398 0.064366 0.250870
v 0.114354 0.064368 0.250870
v 0.095309 0.064369 0.250870
v 0.076265 0.064370 0.250870
v 0.057220 0.064371 0.250870
v 0.038176 0.064372 0.250870
v 0.019131 0.064373 0.250870
v 0.000087 0.064375 0.250870
v -0.018958 0.064376 0.250870
v -0.038002 0.064377 0.250870
v -0.057047 0.064378 0.250870
v -0.076091 0.064379 0.250870
v -0.095136 0.064380 0.250870
v -0.114180 0.064382 0.250870
v -0.133225 0.064383 0.250870
v 0.133397 0.049855 0.250871
v 0.114353 0.049856 0.250871
v 0.095308 0.049858 0.250871
v 0.076264 0.049859 0.250871
v 0.057219 0.049860 0.250871
v 0.038175 0.049861 0.250871
v 0.019130 0.049862 0.250871
v 0.000086 0.049863 0.250871
v -0.018959 0.049865 0.250871
v -0.038003 0.049866 0.250871
v -0.057048 0.049867 0.250871
v -0.076092 0.049868 0.250871
v -0.095137 0.049869 0.250871
v -0.114181 0.049870 0.250871
v -0.133226 0.049872 0.250871
v 0.133396 0.035344 0.250873
v 0.114352 0.035345 0.250873
v 0.095307 0.035346 0.250873
v 0.076263 0.035348 0.250873
v 0.057218 0.035349 0.250873
v 0.038174 0.035350 0.250873
v 0.019129 0.035351 0.250873
v 0.000085 0.035352 0.250873
v -0.018960 0.035353 0.250873
v -0.038004 0.035355 0.250873
v -0.057049 0.035356 0.250873
v -0.076093 0.035357 0.250873
v -0.095138 0.035358 0.250873
v -0.114182 0.035359 0.250873
v -0.133227 0.035360 0.250873
v 0.133396 0.020833 0.250874
v 0.114351 0.020834 0.250874
v 0.095307 0.020835 0.250874
v 0.076262 0.020836 0.250874
v 0.057218 0.020837 0.250874
v 0.038173 0.020839 0.250874
v 0.019129 0.020840 0.250874
v 0.000084 0.020841 0.250874
v -0.018961 0.020842 0.250874
v -0.038005 0.020843 0.250874
v -0.057050 0.020844 0.250874
v -0.076094 0.020846 0.250874
v -0.095139 0.020847 0.250874
v -0.114183 0.020848 0.250874
v -0.133228 0.020849 0.250874
v 0.133395 0.006321 0.241651
v 0.114350 0.006322 0.241651
v 0.095306 0.006323 0.241651
v 0.076261 0.006324 0.241651
v 0.057217 0.006325 0.241651
v 0.038172 0.006327 0.241651
v 0.019128 0.006328 0.241651
v 0.000083 0.006329 0.241651
v -0.018961 0.006330 0.241651
v -0.038006 0.006331 0.241651
v -0.057050 0.006333 0.241651
v -0.076095 0.006334 0.241651
v -0.095139 0.006335 0.241651
v -0.114184 0.006336 0.241651
v -0.133228 0.006337 0.241651
v 0.133395 0.006320 0.232427
v 0.114350 0.006321 0.232427
v 0.095306 0.006322 0.232427
v 0.076261 0.006324 0.232427
v 0.057217 0.006325 0.232427
v 0.038172 0.006326 0.232427
v 0.019128 0.006327 0.232427
v 0.000083 0.006328 0.232427
v -0.018961 0.006329 0.232427
v -0.038006 0.006331 0.232427
v -0.057050 0.006332 0.232427
v -0.076095 0.006333 0.232427
v -0.095139 0.006334 0.232427
v -0.114184 0.006335 0.232427
v -0.133228 0.006336 0.232427
v 0.133395 0.006319 0.223203
v 0.114350 0.006320 0.223203
v 0.095306 0.006322 0.223203
v 0.076261 0.006323 0.223203
v 0.057217 0.006324 0.223203
v 0.038172 0.006325 0.223203
v 0.019128 0.006326 0.223203
v 0.000083 0.006327 0.223203
v -0.018961 0.006329 0.223203
v -0.038006 0.006330 0.223203
v -0.057050 0.006331 0.223203
v -0.076095 0.006332 0.223203
v -0.095139 0.006333 0.223203
v -0.114184 0.006334 0.223203
v -0.133228 0.006336 0.223203
v 0.133395 0.006318 0.213979
v 0.114350 0.006320 0.213979
v 0.095306 0.006321 0.213979
v 0.076261 0.006322 0.213979
v 0.057217 0.006323 0.213979
v 0.038172 0.006324 0.213979
v 0.019128 0.006326 0.213979
v 0.000083 0.006327 0.213979
v -0.018961 0.006328 0.213979
v -0.038006 0.006329 0.213979
v -0.057050 0.006330 0.213979
v -0.076095 0.006331 0.213979
v -0.095139 0.006333 0.213979
v -0.114184 0.006334 0.213979
v -0.133228 0.006335 0.213979
v 0.133395 0.006318 0.204755
v 0.114350 0.006319 0.204755
v 0.095306 0.006320 0.204755
v 0.076261 0.006321 0.204755
v 0.057217 0.006322 0.204755
v 0.038172 0.006324 0.204755
v 0.019128 0.006325 0.204755
v 0.000083 0.006326 0.204755
v -0.018961 0.006327 0.204755
v -0.038006 0.006328 0.204755
v -0.057050 0.006329 0.204755
v -0.076095 0.006331 0.204755
v -0.095139 0.006332 0.204755
v -0.114184 0.006333 0.204755
v -0.133228 0.006334 0.204755
v 0.133395 0.006317 0.195531
v 0.114350 0.006318 0.195531
v 0.095306 0.006319 0.195531
v 0.076261 0.006320 0.195531
v 0.057217 0.006322 0.195531
v 0.038172 0.006323 0.195531
v 0.019128 0.006324 0.195531
v 0.000083 0.006325 0.195531
v -0.018961 0.006326 0.195531
v -0.038006 0.006328 0.195531
v -0.057050 0.006329 0.195531
v -0.076095 0.006330 0.195531
v -0.095139 0.006331 0.195531
v -0.114184 0.006332 0.195531
v -0.133228 0.006333 0.195531
v 0.133395 0.006316 0.186307
v 0.114350 0.006317 0.186307
v 0.095306 0.006319 0.186307
v 0.076261 0.006320 0.186307
v 0.057217 0.006321 0.186307
v 0.038172 0.006322 0.186307
v 0.019128 0.006323 0.186307
v 0.000083 0.006324 0.186307
v -0.018961 0.006326 0.186307
v -0.038006 0.006327 0.186307
v -0.057050 0.006328 0.186307
v -0.076095 0.006329 0.186307
v -0.095139 0.006330 0.186307
v -0.114184 0.006331 0.186307
v -0.133228 0.006333 0.186307
v 0.133395 0.006315 0.177083
v 0.114350 0.006317 0.177083
v 0.095306 0.006318 0.177083
v 0.076261 0.006319 0.177083
v 0.057217 0.006320 0.177083
v 0.038172 0.006321 0.177083
v 0.019128 0.006322 0.177083
v 0.000083 0.006324 0.177083
v -0.018961 0.006325 0.177083
v -0.038006 0.006326 0.177083
v -0.057050 0.006327 0.177083
v -0.076095 0.006328 0.177083
v -0.095139 0.006329 0.177083
v -0.114184 0.006331 0.177083
v -0.133228 0.006332 0.177083
v 0.133395 0.006315 0.167859
v 0.114350 0.006316 0.167859
v 0.095306 0.006317 0.167859
v 0.076261 0.006318 0.167859
v 0.057217 0.006319 0.167859
v 0.038172 0.006321 0.167859
v 0.019128 0.006322 0.167859
v 0.000083 0.006323 0.167859
v -0.018961 0.006324 0.167859
v -0.038006 0.006325 0.167859
v -0.057050 0.006326 0.167859
v -0.076095 0.006328 0.167859
v -0.095139 0.006329 0.167859
v -0.114184 0.006330 0.167859
v -0.133228 0.006331 0.167859
v 0.133395 0.006314 0.158635
v 0.114350 0.006315 0.158635
v 0.095306 0.006316 0.158635
v 0.076261 0.006317 0.158635
v 0.057217 0.006319 0.158635
v 0.038172 0.006320 0.158635
v 0.019128 0.006321 0.158635
v 0.000083 0.006322 0.158635
v -0.018961 0.006323 0.158635
v -0.038006 0.006324 0.158635
v -0.057050 0.006326 0.158635
v -0.076095 0.006327 0.158635
v -0.095139 0.006328 0.158635
v -0.114184 0.006329 0.158635
v -0.133228 0.006330 0.158635
v 0.133395 0.006313 0.149411
v 0.114350 0.006314 0.149411
v 0.095306 0.006315 0.149411
v 0.076261 0.006317 0.149411
v 0.057217 0.006318 0.149411
v 0.038172 0.006319 0.149411
v 0.019128 0.006320 0.149411
v 0.000083 0.006321 0.149411
v -0.018961 0.006323 0.149411
v -0.038006 0.006324 0.149411
v -0.057050 0.006325 0.149411
v -0.076095 0.006326 0.149411
v -0.095139 0.006327 0.149411
v -0.114184 0.006328 0.149411
v -0.133228 0.006330 0.149411
v 0.133395 0.006312 0.140187
v 0.114350 0.006314 0.140187
v 0.095306 0.006315 0.140187
v 0.076261 0.006316 0.140187
v 0.057217 0.006317 0.140187
v 0.038172 0.006318 0.140187
v 0.019128 0.006319 0.140187
v 0.000083 0.006321 0.140187
v -0.018961 0.006322 0.140187
v -0.038006 0.006323 0.140187
v -0.057050 0.006324 0.140187
v -0.076095 0.006325 0.140187
v -0.095139 0.006326 0.140187
v -0.114184 0.006328 0.140187
v -0.133228 0.006329 0.140187
v 0.133395 0.006312 0.130963
v 0.114350 0.006313 0.130963
v 0.095306 0.006314 0.130963
v 0.076261 0.006315 0.130963
v 0.057217 0.006316 0.130963
v 0.038172 0.006317 0.130963
v 0.019128 0.006319 0.130963
v 0.000083 0.006320 0.130963
v -0.018961 0.006321 0.130963
v -0.038006 0.006322 0.130963
v -0.057050 0.006323 0.130963
v -0.076095 0.006324 0.130963
v -0.095139 0.006326 0.130963
v -0.114184 0.006327 0.130963
v -0.133228 0.006328 0.130963
v 0.133395 0.006311 0.121739
v 0.114350 0.006312 0.121739
v 0.095306 0.006313 0.121739
v 0.076261 0.006314 0.121739
v 0.057217 0.006316 0.121739
v 0.038172 0.006317 0.121739
v 0.019128 0.006318 0.121739
v 0.000083 0.006319 0.121739
v -0.018961 0.006320 0.121739
v -0.038006 0.006321 0.121739
v -0.057050 0.006323 0.121739
v -0.076095 0.006324 0.121739
v -0.095139 0.006325 0.121739
v -0.114184 0.006326 0.121739
v -0.133228 0.006327 0.121739
v 0.133395 0.006310 0.112515
v 0.114350 0.006311 0.112515
v 0.095306 0.006312 0.112515
v 0.076261 0.006314 0.112515
v 0.057217 0.006315 0.112515
v 0.038172 0.006316 0.112515
v 0.019128 0.006317 0.112515
v 0.000083 0.006318 0.112515
v -0.018961 0.006319 0.112515
v -0.038006 0.006321 0.112515
v -0.057050 0.006322 0.112515
v -0.076095 0.006323 0.112515
v -0.095139 0.006324 0.112515
v -0.114184 0.006325 0.112515
v -0.133228 0.006326 0.112515
v 0.133396 0.020821 0.103290
v 0.114351 0.020822 0.103290
v 0.095307 0.020823 0.103290
v 0.076262 0.020824 0.103290
v 0.057218 0.020825 0.103290
v 0.038173 0.020826 0.103290
v 0.019129 0.020828 0.103290
v 0.000084 0.020829 0.103290
v -0.018960 0.020830 0.103290
v -0.038005 0.020831 0.103290
v -0.057050 0.020832 0.103290
v -0.076094 0.020833 0.103290
v -0.095139 0.020835 0.103290
v -0.114183 0.020836 0.103290
v -0.133228 0.020837 0.103290
v 0.133397 0.035332 0.103289
v 0.114352 0.035333 0.103289
v 0.095307 0.035334 0.103289
v 0.076263 0.035335 0.103289
v 0.057218 0.035336 0.103289
v 0.038174 0.035338 0.103289
v 0.019129 0.035339 0.103289
v 0.000085 0.035340 0.103289
v -0.018960 0.035341 0.103289
v -0.038004 0.035342 0.103289
v -0.057049 0.035343 0.103289
v -0.076093 0.035345 0.103289
v -0.095138 0.035346 0.103289
v -0.114182 0.035347 0.103289
v -0.133227 0.035348 0.103289
v 0.133397 0.049843 0.103287
v 0.114353 0.049844 0.103287
v 0.095308 0.049845 0.103287
v 0.076264 0.049846 0.103287
v 0.057219 0.049848 0.103287
v 0.038175 0.049849 0.103287
v 0.019130 0.049850 0.103287
v 0.000086 0.049851 0.103287
v -0.018959 0.049852 0.103287
v -0.038003 0.049854 0.103287
v -0.057048 0.049855 0.103287
v -0.076092 0.049856 0.103287
v -0.095137 0.049857 0.103287
v -0.114181 0.049858 0.103287
v -0.133226 0.049859 0.103287
v 0.133398 0.064354 0.103286
v 0.114354 0.064355 0.103286
v 0.095309 0.064357 0.103286
v 0.076265 0.064358 0.103286
v 0.057220 0.064359 0.103286
v 0.038176 0.064360 0.103286
v 0.019131 0.064361 0.103286
v 0.000087 0.064362 0.103286
v -0.018958 0.064364 0.103286
v -0.038002 0.064365 0.103286
v -0.057047 0.064366 0.103286
v -0.076091 0.064367 0.103286
v -0.095136 0.064368 0.103286
v -0.114180 0.064369 0.103286
v -0.133225 0.064371 0.103286
v 0.133399 0.078865 0.103285
v 0.114355 0.078867 0.103285
v 0.095310 0.078868 0.103285
v 0.076266 0.078869 0.103285
v 0.057221 0.078870 0.103285
v 0.038177 0.078871 0.103285
v 0.019132 0.078872 0.103285
v 0.000088 0.078874 0.103285
v -0.018957 0.078875 0.103285
v -0.038001 0.078876 0.103285
v -0.057046 0.078877 0.103285
v -0.076090 0.078878 0.103285
v -0.095135 0.078879 0.103285
v -0.114179 0.078881 0.103285
v -0.133224 0.078882 0.103285
v 0.133400 0.093377 0.103284
v 0.114356 0.093378 0.103284
v 0.095311 0.093379 0.103284
v 0.076267 0.093380 0.103284
v 0.057222 0.093381 0.103284
v 0.038178 0.093382 0.103284
v 0.019133 0.093384 0.103284
v 0.000088 0.093385 0.103284
v -0.018956 0.093386 0.103284
v -0.038001 0.093387 0.103284
v -0.057045 0.093388 0.103284
v -0.076090 0.093390 0.103284
v -0.095134 0.093391 0.103284
v -0.114179 0.093392 0.103284
v -0.133223 0.093393 0.103284
v 0.133401 0.107888 0.103283
v 0.114356 0.107889 0.103283
v 0.095312 0.107890 0.103283
v 0.076267 0.107891 0.103283
v 0.057223 0.107893 0.103283
v 0.038178 0.107894 0.103283
v 0.019134 0.107895 0.103283
v 0.000089 0.107896 0.103283
v -0.018955 0.107897 0.103283
v -0.038000 0.107898 0.103283
v -0.057044 0.107900 0.103283
v -0.076089 0.107901 0.103283
v -0.095133 0.107902 0.103283
v -0.114178 0.107903 0.103283
v -0.133222 0.107904 0.103283
v 0.133402 0.122399 0.103281
v 0.114357 0.122400 0.103281
v 0.095313 0.122401 0.103281
v 0.076268 0.122403 0.103281
v 0.057224 0.122404 0.103281
v 0.038179 0.122405 0.103281
v 0.019135 0.122406 0.103281
v 0.000090 0.122407 0.103281
v -0.018954 0.122408 0.103281
v -0.037999 0.122410 0.103281
v -0.057043 0.122411 0.103281
v -0.076088 0.122412 0.103281
v -0.095132 0.122413 0.103281
v -0.114177 0.122414 0.103281
v -0.133221 0.122415 0.103281
v 0.133403 0.136910 0.103280
v 0.114358 0.136911 0.103280
v 0.095314 0.136913 0.103280
v 0.076269 0.136914 0.103280
v 0.057225 0.136915 0.103280
v 0.038180 0.136916 0.103280
v 0.019136 0.136917 0.103280
v 0.000091 0.136918 0.103280
v -0.018953 0.136920 0.103280
v -0.037998 0.136921 0.103280
v -0.057042 0.136922 0.103280
v -0.076087 0.136923 0.103280
v -0.095131 0.136924 0.103280
v -0.114176 0.136926 0.103280
v -0.133220 0.136927 0.103280
v 0.133404 0.151422 0.103279
v 0.114359 0.151423 0.103279
v 0.095315 0.151424 0.103279
v 0.076270 0.151425 0.103279
v 0.057226 0.151426 0.103279
v 0.038181 0.151427 0.103279
v 0.019137 0.151429 0.103279
v 0.000092 0.151430 0.103279
v -0.018952 0.151431 0.103279
v -0.037997 0.151432 0.103279
v -0.057041 0.151433 0.103279
v -0.076086 0.151434 0.103279
v -0.095130 0.151436 0.103279
v -0.114175 0.151437 0.103279
v -0.133220 0.151438 0.103279
v 0.133405 0.165933 0.103278
v 0.114360 0.165934 0.103278
v 0.095316 0.165935 0.103278
v 0.076271 0.165936 0.103278
v 0.057226 0.165937 0.103278
v 0.038182 0.165939 0.103278
v 0.019137 0.165940 0.103278
v 0.000093 0.165941 0.103278
v -0.018952 0.165942 0.103278
v -0.037996 0.165943 0.103278
v -0.057041 0.165944 0.103278
v -0.076085 0.165946 0.103278
v -0.095130 0.165947 0.103278
v -0.114174 0.165948 0.103278
v -0.133219 0.165949 0.103278
v 0.133405 0.180444 0.103277
v 0.114361 0.180445 0.103277
v 0.095316 0.180446 0.103277
v 0.076272 0.180447 0.103277
v 0.057227 0.180449 0.103277
v 0.038183 0.180450 0.103277
v 0.019138 0.180451 0.103277
v 0.000094 0.180452 0.103277
v -0.018951 0.180453 0.103277
v -0.037995 0.180454 0.103277
v -0.057040 0.180456 0.103277
v -0.076084 0.180457 0.103277
v -0.095129 0.180458 0.103277
v -0.114173 0.180459 0.103277
v -0.133218 0.180460 0.103277
v 0.133406 0.194955 0.103275
v 0.114362 0.194956 0.103275
v 0.095317 0.194958 0.103275
v 0.076273 0.194959 0.103275
v 0.057228 0.194960 0.103275
v 0.038184 0.194961 0.103275
v 0.019139 0.194962 0.103275
v 0.000095 0.194963 0.103275
v -0.018950 0.194965 0.103275
v -0.037994 0.194966 0.103275
v -0.057039 0.194967 0.103275
v -0.076083 0.194968 0.103275
v -0.095128 0.194969 0.103275
v -0.114172 0.194970 0.103275
v -0.133217 0.194972 0.103275
v 0.133407 0.209466 0.103274
v 0.114363 0.209468 0.103274
v 0.095318 0.209469 0.103274
v 0.076274 0.209470 0.103274
v 0.057229 0.209471 0.103274
v 0.038185 0.209472 0.103274
v 0.019140 0.209473 0.103274
v 0.000096 0.209475 0.103274
v -0.018949 0.209476 0.103274
v -0.037993 0.209477 0.103274
v -0.057038 0.209478 0.103274
v -0.076082 0.209479 0.103274
v -0.095127 0.209480 0.103274
v -0.114171 0.209482 0.103274
v -0.133216 0.209483 0.103274
v 0.133408 0.223978 0.103273
v 0.114364 0.223979 0.103273
v 0.095319 0.223980 0.103273
v 0.076275 0.223981 0.103273
v 0.057230 0.223982 0.103273
v 0.038186 0.223983 0.103273
v 0.019141 0.223985 0.103273
v 0.000097 0.223986 0.103273
v -0.018948 0.223987 0.103273
v -0.037993 0.223988 0.103273
v -0.057037 0.223989 0.103273
v -0.076082 0.223990 0.103273
v -0.095126 0.223992 0.103273
v -0.114171 0.223993 0.103273
v -0.133215 0.223994 0.103273
v 0.152453 0.223988 0.241633
v 0.152452 0.209477 0.241634
v 0.152451 0.194965 0.241635
v 0.152450 0.180454 0.241637
v 0.152449 0.165943 0.241638
v 0.152448 0.151432 0.241639
v 0.152447 0.136921 0.241640
v 0.152446 0.122409 0.241641
v 0.152445 0.107898 0.241643
v 0.152445 0.093387 0.241644
v 0.152444 0.078876 0.241645
v 0.152443 0.064365 0.241646
v 0.152442 0.049853 0.241647
v 0.152441 0.035342 0.241649
v 0.152440 0.020831 0.241650
v 0.152453 0.223987 0.232409
v 0.152452 0.209476 0.232410
v 0.152451 0.194965 0.232411
v 0.152450 0.180454 0.232413
v 0.152449 0.165942 0.232414
v 0.152448 0.151431 0.232415
v 0.152447 0.136920 0.232416
v 0.152446 0.122409 0.232417
v 0.152445 0.107897 0.232419
v 0.152445 0.093386 0.232420
v 0.152444 0.078875 0.232421
v 0.152443 0.064364 0.232422
v 0.152442 0.049853 0.232423
v 0.152441 0.035341 0.232425
v 0.152440 0.020830 0.232426
v 0.152453 0.223986 0.223185
v 0.152452 0.209475 0.223186
v 0.152451 0.194964 0.223187
v 0.152450 0.180453 0.223189
v 0.152449 0.165942 0.223190
v 0.152448 0.151430 0.223191
v 0.152447 0.136919 0.223192
v 0.152446 0.122408 0.223193
v 0.152445 0.107897 0.223195
v 0.152445 0.093385 0.223196
v 0.152444 0.078874 0.223197
v 0.152443 0.064363 0.223198
v 0.152442 0.049852 0.223199
v 0.152441 0.035341 0.223201
v 0.152440 0.020829 0.223202
v 0.152453 0.223986 0.213961
v 0.152452 0.209474 0.213962
v 0.152451 0.194963 0.213963
v 0.152450 0.180452 0.213965
v 0.152449 0.165941 0.213966
v 0.152448 0.151430 0.213967
v 0.152447 0.136918 0.213968
v 0.152446 0.122407 0.213969
v 0.152445 0.107896 0.213971
v 0.152445 0.093385 0.213972
v 0.152444 0.078873 0.213973
v 0.152443 0.064362 0.213974
v 0.152442 0.049851 0.213975
v 0.152441 0.035340 0.213977
v 0.152440 0.020829 0.213978
v 0.152453 0.223985 0.204737
v 0.152452 0.209474 0.204738
v 0.152451 0.194962 0.204739
v 0.152450 0.180451 0.204741
v 0.152449 0.165940 0.204742
v 0.152448 0.151429 0.204743
v 0.152447 0.136918 0.204744
v 0.152446 0.122406 0.204745
v 0.152445 0.107895 0.204747
v 0.152445 0.093384 0.204748
v 0.152444 0.078873 0.204749
v 0.152443 0.064361 0.204750
v 0.152442 0.049850 0.204751
v 0.152441 0.035339 0.204753
v 0.152440 0.020828 0.204754
v 0.152453 0.223984 0.195513
v 0.152452 0.209473 0.195514
v 0.152451 0.194962 0.195515
v 0.152450 0.180450 0.195517
v 0.152449 0.165939 0.195518
v 0.152448 0.151428 0.195519
v 0.152447 0.136917 0.195520
v 0.152446 0.122406 0.195521
v 0.152445 0.107894 0.195523
v 0.152445 0.093383 0.195524
v 0.152444 0.078872 0.195525
v 0.152443 0.064361 0.195526
v 0.152442 0.049849 0.195527
v 0.152441 0.035338 0.195529
v 0.152440 0.020827 0.195530
v 0.152453 0.223983 0.186289
v 0.152452 0.209472 0.186290
v 0.152451 0.194961 0.186291
v 0.152450 0.180450 0.186293
v 0.152449 0.165938 0.186294
v 0.152448 0.151427 0.186295
v 0.152447 0.136916 0.186296
v 0.152446 0.122405 0.186297
v 0.152445 0.107894 0.186299
v 0.152445 0.093382 0.186300
v 0.152444 0.078871 0.186301
v 0.152443 0.064360 0.186302
v 0.152442 0.049849 0.186303
v 0.152441 0.035337 0.186305
v 0.152440 0.020826 0.186306
v 0.152453 0.223983 0.177065
v 0.152452 0.209471 0.177066
v 0.152451 0.194960 0.177067
v 0.152450 0.180449 0.177069
v 0.152449 0.165938 0.177070
v 0.152448 0.151426 0.177071
v 0.152447 0.136915 0.177072
v 0.152446 0.122404 0.177073
v 0.152445 0.107893 0.177075
v 0.152445 0.093382 0.177076
v 0.152444 0.078870 0.177077
v 0.152443 0.064359 0.177078
v 0.152442 0.049848 0.177079
v 0.152441 0.035337 0.177081
v 0.152440 0.020825 0.177082
v 0.152453 0.223982 0.167841
v 0.152452 0.209471 0.167842
v 0.152451 0.194959 0.167843
v 0.152450 0.180448 0.167845
v 0.152449 0.165937 0.167846
v 0.152448 0.151426 0.167847
v 0.152447 0.136914 0.167848
v 0.152446 0.122403 0.167849
v 0.152445 0.107892 0.167851
v 0.152445 0.093381 0.167852
v 0.152444 0.078870 0.167853
v 0.152443 0.064358 0.167854
v 0.152442 0.049847 0.167855
v 0.152441 0.035336 0.167857
v 0.152440 0.020825 0.167858
v 0.152453 0.223981 0.158617
v 0.152452 0.209470 0.158618
v 0.152451 0.194959 0.158619
v 0.152450 0.180447 0.158621
v 0.152449 0.165936 0.158622
v 0.152448 0.151425 0.158623
v 0.152447 0.136914 0.158624
v 0.152446 0.122402 0.158625
v 0.152445 0.107891 0.158627
v 0.152445 0.093380 0.158628
v 0.152444 0.078869 0.158629
v 0.152443 0.064358 0.158630
v 0.152442 0.049846 0.158631
v 0.152441 0.035335 0.158633
v 0.152440 0.020824 0.158634
v 0.152453 0.223980 0.149393
v 0.152452 0.209469 0.149394
v 0.152451 0.194958 0.149395
v 0.152450 0.180447 0.149397
v 0.152449 0.165935 0.149398
v 0.152448 0.151424 0.149399
v 0.152447 0.136913 0.149400
v 0.152446 0.122402 0.149401
v 0.152445 0.107891 0.149403
v 0.152445 0.093379 0.149404
v 0.152444 0.078868 0.149405
v 0.152443 0.064357 0.149406
v 0.152442 0.049846 0.149407
v 0.152441 0.035334 0.149409
v 0.152440 0.020823 0.149410
v 0.152453 0.223980 0.140169
v 0.152452 0.209468 0.140170
v 0.152451 0.194957 0.140171
v 0.152450 0.180446 0.140173
v 0.152449 0.165935 0.140174
v 0.152448 0.151423 0.140175
v 0.152447 0.136912 0.140176
v 0.152446 0.122401 0.140177
v 0.152445 0.107890 0.140179
v 0.152445 0.093379 0.140180
v 0.152444 0.078867 0.140181
v 0.152443 0.064356 0.140182
v 0.152442 0.049845 0.140183
v 0.152441 0.035334 0.140185
v 0.152440 0.020822 0.140186
v 0.152453 0.223979 0.130945
v 0.152452 0.209468 0.130946
v 0.152451 0.194956 0.130947
v 0.152450 0.180445 0.130949
v 0.152449 0.165934 0.130950
v 0.152448 0.151423 0.130951
v 0.152447 0.136911 0.130952
v 0.152446 0.122400 0.130953
v 0.152445 0.107889 0.130955
v 0.152445 0.093378 0.130956
v 0.152444 0.078867 0.130957
v 0.152443 0.064355 0.130958
v 0.152442 0.049844 0.130959
v 0.152441 0.035333 0.130961
v 0.152440 0.020822 0.130962
v 0.152453 0.223978 0.121721
v 0.152452 0.209467 0.121722
v 0.152451 0.194956 0.121723
v 0.152450 0.180444 0.121725
v 0.152449 0.165933 0.121726
v 0.152448 0.151422 0.121727
v 0.152447 0.136911 0.121728
v 0.152446 0.122399 0.121729
v 0.152445 0.107888 0.121731
v 0.152445 0.093377 0.121732
v 0.152444 0.078866 0.121733
v 0.152443 0.064355 0.121734
v 0.152442 0.049843 0.121735
v 0.152441 0.035332 0.121737
v 0.152440 0.020821 0.121738
v 0.152453 0.223977 0.112497
v 0.152452 0.209466 0.112498
v 0.152451 0.194955 0.112499
v 0.152450 0.180444 0.112501
v 0.152449 0.165932 0.112502
v 0.152448 0.151421 0.112503
v 0.152447 0.136910 0.112504
v 0.152446 0.122399 0.112505
v 0.152445 0.107887 0.112507
v 0.152445 0.093376 0.112508
v 0.152444 0.078865 0.112509
v 0.152443 0.064354 0.112510
v 0.152442 0.049843 0.112511
v 0.152441 0.035331 0.112513
v 0.152440 0.020820 0.112514
v -0.152272 0.020850 0.241650
v -0.152271 0.035361 0.241649
v -0.152270 0.049872 0.241647
v -0.152269 0.064383 0.241646
v -0.152269 0.078894 0.241645
v -0.152268 0.093406 0.241644
v -0.152267 0.107917 0.241643
v -0.152266 0.122428 0.241641
v -0.152265 0.136939 0.241640
v -0.152264 0.151451 0.241639
v -0.152263 0.165962 0.241638
v -0.152262 0.180473 0.241637
v -0.152261 0.194984 0.241635
v -0.152261 0.209495 0.241634
v -0.152260 0.224007 0.241633
v -0.152272 0.020849 0.232426
v -0.152271 0.035360 0.232425
v -0.152270 0.049871 0.232423
v -0.152269 0.064382 0.232422
v -0.152269 0.078894 0.232421
v -0.152268 0.093405 0.232420
v -0.152267 0.107916 0.232419
v -0.152266 0.122427 0.232417
v -0.152265 0.136939 0.232416
v -0.152264 0.151450 0.232415
v -0.152263 0.165961 0.232414
v -0.152262 0.180472 0.232413
v -0.152261 0.194983 0.232411
v -0.152261 0.209495 0.232410
v -0.152260 0.224006 0.232409
v -0.152272 0.020848 0.223202
v -0.152271 0.035359 0.223201
v -0.152270 0.049870 0.223199
v -0.152269 0.064382 0.223198
v -0.152269 0.078893 0.223197
v -0.152268 0.093404 0.223196
v -0.152267 0.107915 0.223195
v -0.152266 0.122427 0.223193
v -0.152265 0.136938 0.223192
v -0.152264 0.151449 0.223191
v -0.152263 0.165960 0.223190
v -0.152262 0.180471 0.223189
v -0.152261 0.194983 0.223187
v -0.152261 0.209494 0.223186
v -0.152260 0.224005 0.223185
v -0.152272 0.020847 0.213978
v -0.152271 0.035358 0.213977
v -0.152270 0.049870 0.213975
v -0.152269 0.064381 0.213974
v -0.152269 0.078892 0.213973
v -0.152268 0.093403 0.213972
v -0.152267 0.107915 0.213971
v -0.152266 0.122426 0.213969
v -0.152265 0.136937 0.213968
v -0.152264 0.151448 0.213967
v -0.152263 0.165959 0.213966
v -0.152262 0.180471 0.213965
v -0.152261 0.194982 0.213963
v -0.152260 0.209493 0.213962
v -0.152260 0.224004 0.213961
v -0.152272 0.020847 0.204754
v -0.152271 0.035358 0.204753
v -0.152270 0.049869 0.204751
v -0.152269 0.064380 0.204750
v -0.152269 0.078891 0.204749
v -0.152268 0.093403 0.204748
v -0.152267 0.107914 0.204747
v -0.152266 0.122425 0.204745
v -0.152265 0.136936 0.204744
v -0.152264 0.151448 0.204743
v -0.152263 0.165959 0.204742
v -0.152262 0.180470 0.204741
v -0.152261 0.194981 0.204739
v -0.152260 0.209492 0.204738
v -0.152260 0.224004 0.204737
v -0.152272 0.020846 0.195530
v -0.152271 0.035357 0.195529
v -0.152270 0.049868 0.195527
v -0.152269 0.064379 0.195526
v -0.152269 0.078891 0.195525
v -0.152268 0.093402 0.195524
v -0.152267 0.107913 0.195523
v -0.152266 0.122424 0.195521
v -0.152265 0.136936 0.195520
v -0.152264 0.151447 0.195519
v -0.152263 0.165958 0.195518
v -0.152262 0.180469 0.195517
v -0.152261 0.194980 0.195515
v -0.152260 0.209492 0.195514
v -0.152260 0.224003 0.195513
v -0.152272 0.020845 0.186306
v -0.152271 0.035356 0.186305
v -0.152270 0.049867 0.186303
v -0.152269 0.064379 0.186302
v -0.152269 0.078890 0.186301
v -0.152268 0.093401 0.186300
v -0.152267 0.107912 0.186299
v -0.152266 0.122424 0.186297
v -0.152265 0.136935 0.186296
v -0.152264 0.151446 0.186295
v -0.152263 0.165957 0.186294
v -0.152262 0.180468 0.186293
v -0.152261 0.194980 0.186291
v -0.152260 0.209491 0.186290
v -0.152260 0.224002 0.186289
v -0.152272 0.020844 0.177082
v -0.152271 0.035355 0.177081
v -0.152270 0.049867 0.177079
v -0.152269 0.064378 0.177078
v -0.152269 0.078889 0.177077
v -0.152268 0.093400 0.177076
v -0.152267 0.107912 0.177075
v -0.152266 0.122423 0.177073
v -0.152265 0.136934 0.177072
v -0.152264 0.151445 0.177071
v -0.152263 0.165956 0.177070
v -0.152262 0.180468 0.177069
v -0.152261 0.194979 0.177067
v -0.152260 0.209490 0.177066
v -0.152260 0.224001 0.177065
v -0.152272 0.020843 0.167858
v -0.152271 0.035355 0.167857
v -0.152270 0.049866 0.167855
v -0.152269 0.064377 0.167854
v -0.152269 0.078888 0.167853
v -0.152268 0.093400 0.167852
v -0.152267 0.107911 0.167851
v -0.152266 0.122422 0.167849
v -0.152265 0.136933 0.167848
v -0.152264 0.151444 0.167847
v -0.152263 0.165956 0.167846
v -0.152262 0.180467 0.167845
v -0.152261 0.194978 0.167843
v -0.152260 0.209489 0.167842
v -0.152260 0.224001 0.167841
v -0.152272 0.020843 0.158634
v -0.152271 0.035354 0.158633
v -0.152270 0.049865 0.158631
v -0.152269 0.064376 0.158630
v -0.152269 0.078888 0.158629
v -0.152268 0.093399 0.158628
v -0.152267 0.107910 0.158627
v -0.152266 0.122421 0.158625
v -0.152265 0.136932 0.158624
v -0.152264 0.151444 0.158623
v -0.152263 0.165955 0.158622
v -0.152262 0.180466 0.158621
v -0.152261 0.194977 0.158619
v -0.152260 0.209489 0.158618
v -0.152260 0.224000 0.158617
v -0.152272 0.020842 0.149410
v -0.152271 0.035353 0.149409
v -0.152270 0.049864 0.149407
v -0.152269 0.064376 0.149406
v -0.152269 0.078887 0.149405
v -0.152268 0.093398 0.149404
v -0.152267 0.107909 0.149403
v -0.152266 0.122420 0.149401
v -0.152265 0.136932 0.149400
v -0.152264 0.151443 0.149399
v -0.152263 0.165954 0.149398
v -0.152262 0.180465 0.149397
v -0.152261 0.194977 0.149395
v -0.152260 0.209488 0.149394
v -0.152260 0.223999 0.149393
v -0.152272 0.020841 0.140186
v -0.152271 0.035352 0.140185
v -0.152270 0.049864 0.140183
v -0.152269 0.064375 0.140182
v -0.152269 0.078886 0.140181
v -0.152268 0.093397 0.140180
v -0.152267 0.107908 0.140179
v -0.152266 0.122420 0.140177
v -0.152265 0.136931 0.140176
v -0.152264 0.151442 0.140175
v -0.152263 0.165953 0.140174
v -0.152262 0.180465 0.140173
v -0.152261 0.194976 0.140171
v -0.152260 0.209487 0.140170
v -0.152260 0.223998 0.140169
v -0.152272 0.020840 0.130962
v -0.152271 0.035352 0.130961
v -0.152270 0.049863 0.130959
v -0.152269 0.064374 0.130958
v -0.152269 0.078885 0.130957
v -0.152268 0.093396 0.130956
v -0.152267 0.107908 0.130955
v -0.152266 0.122419 0.130953
v -0.152265 0.136930 0.130952
v -0.152264 0.151441 0.130951
v -0.152263 0.165953 0.130950
v -0.152262 0.180464 0.130949
v -0.152261 0.194975 0.130947
v -0.152260 0.209486 0.130946
v -0.152260 0.223997 0.130945
v -0.152272 0.020840 0.121738
v -0.152271 0.035351 0.121737
v -0.152270 0.049862 0.121735
v -0.152269 0.064373 0.121734
v -0.152269 0.078885 0.121733
v -0.152268 0.093396 0.121732
v -0.152267 0.107907 0.121731
v -0.152266 0.122418 0.121729
v -0.152265 0.136929 0.121728
v -0.152264 0.151441 0.121727
v -0.152263 0.165952 0.121726
v -0.152262 0.180463 0.121725
v -0.152261 0.194974 0.121723
v -0.152260 0.209485 0.121722
v -0.152260 0.223997 0.121721
v -0.152272 0.020839 0.112514
v -0.152271 0.035350 0.112513
v -0.152270 0.049861 0.112511
v -0.152269 0.064373 0.112510
v -0.152268 0.078884 0.112509
v -0.152268 0.093395 0.112508
v -0.152267 0.107906 0.112507
v -0.152266 0.122417 0.112505
v -0.152265 0.136929 0.112504
v -0.152264 0.151440 0.112503
v -0.152263 0.165951 0.112502
v -0.152262 0.180462 0.112501
v -0.152261 0.194973 0.112499
v -0.152260 0.209485 0.112498
v -0.152260 0.223996 0.112497
s 0
f 189 190 205 204
f 190 191 206 205
f 191 192 207 206
f 192 193 208 207
f 193 194 209 208
f 194 195 210 209
f 195 196 211 210
f 196 197 212 211
f 197 198 213 212
f 198 199 214 213
f 199 200 215 214
f 200 201 216 215
f 201 202 217 216
f 202 203 218 217
f 204 205 220 219
f 205 206 221 220
f 206 207 222 221
f 207 208 223 222
f 208 209 224 223
f 209 210 225 224
f 210 211 226 225
f 211 212 227 226
f 212 213 228 227
f 213 214 229 228
f 214 215 230 229
f 215 216 231 230
f 216 217 232 231
f 217 218 233 232
f 219 220 235 234
f 220 221 236 235
f 221 222 237 236
f 222 223 238 237
f 223 224 239 238
f 224 225 240 239
f 225 226 241 240
f 226 227 242 241
f 227 228 243 242
f 228 229 244 243
f 229 230 245 244
f 230 231 246 245
f 231 232 247 246
f 232 233 248 247
f 234 235 250 249
f 235 236 251 250
f 236 237 252 251
f 237 238 253 252
f 238 239 254 253
f 239 240 255 254
f 240 241 256 255
f 241 242 257 256
f 242 243 258 257
f 243 244 259 258
f 244 245 260 259
f 245 246 261 260
f 246 247 262 261
f 247 248 263 262
f 249 250 265 264
f 250 251 266 265
f 251 252 267 266
f 252 253 268 267
f 253 254 269 268
f 254 255 270 269
f 255 256 271 270
f 256 257 272 271
f 257 258 273 272
f 258 259 274 273
f 259 260 275 274
f 260 261 276 275
f 261 262 277 276
f 262 263 278 277
f 264 265 280 279
f 265 266 281 280
f 266 267 282 281
f 267 268 283 282
f 268 269 284 283
f 269 270 285 284
f 270 271 286 285
f 271 272 287 286
f 272 273 288 287
f 273 274 289 288
f 274 275 290 289
f 275 276 291 290
f 276 277 292 291
f 277 278 293 292
f 279 280 295 294
f 280 281 296 295
f 281 282 297 296
f 282 283 298 297
f 283 284 299 298
f 284 285 300 299
f 285 286 301 300
f 286 287 302 301
f 287 288 303 302
f 288 289 304 303
f 289 290 305 304
f 290 291 306 305
f 291 292 307 306
f 292 293 308 307
f 294 295 310 309
f 295 296 311 310
f 296 297 312 311
f 297 298 313 312
f 298 299 314 313
f 299 300 315 314
f 300 301 316 315
f 301 302 317 316
f 302 303 318 317
f 303 304 319 318
f 304 305 320 319
f 305 306 321 320
f 306 307 322 321
f 307 308 323 322
f 309 310 325 324
f 310 311 326 325
f 311 312 327 326
f 312 313 328 327
f 313 314 329 328
f 314 315 330 329
f 315 316 331 330
f 316 317 332 331
f 317 318 333 332
f 318 319 334 333
f 319 320 335 334
f 320 321 336 335
f 321 322 337 336
f 322 323 338 337
f 324 325 340 339
f 325 326 341 340
f 326 327 342 341
f 327 328 343 342
f 328 329 344 343
f 329 330 345 344
f 330 331 346 345
f 331 332 347 346
f 332 333 348 347
f 333 334 349 348
f 334 335 350 349
f 335 336 351 350
f 336 337 352 351
f 337 338 353 352
f 339 340 355 354
f 340 341 356 355
f 341 342 357 356
f 342 343 358 357
f 343 344 359 358
f 344 345 360 359
f 345 346 361 360
f 346 347 362 361
f 347 348 363 362
f 348 349 364 363
f 349 350 365 364
f 350 351 366 365
f 351 352 367 366
f 352 353 368 367
f 354 355 370 369
f 355 356 371 370
f 356 357 372 371
f 357 358 373 372
f 358 359 374 373
f 359 360 375 374
f 360 361 376 375
f 361 362 377 376
f 362 363 378 377
f 363 364 379 378
f 364 365 380 379
f 365 366 381 380
f 366 367 382 381
f 367 368 383 382
f 369 370 385 384
f 370 371 386 385
f 371 372 387 386
f 372 373 388 387
f 373 374 389 388
f 374 375 390 389
f 375 376 391 390
f 376 377 392 391
f 377 378 393 392
f 378 379 394 393
f 379 380 395 394
f 380 381 396 395
f 381 382 397 396
f 382 383 398 397
f 384 385 400 399
f 385 386 401 400
f 386 387 402 401
f 387 388 403 402
f 388 389 404 403
f 389 390 405 404
f 390 391 406 405
f 391 392 407 406
f 392 393 408 407
f 393 394 409 408
f 394 395 410 409
f 395 396 411 410
f 396 397 412 411
f 397 398 413 412
f 1 24 189 23
f 24 25 190 189
f 25 26 191 190
f 26 27 192 191
f 27 28 193 192
f 28 29 194 193
f 29 30 195 194
f 30 31 196 195
f 31 32 197 196
f 32 33 198 197
f 33 34 199 198
f 34 35 200 199
f 35 36 201 200
f 36 37 202 201
f 37 38 203 202
f 38 2 39 203
f 203 39 40 218
f 218 40 41 233
f 233 41 42 248
f 248 42 43 263
f 263 43 44 278
f 278 44 45 293
f 293 45 46 308
f 308 46 47 323
f 323 47 48 338
f 338 48 49 353
f 353 49 50 368
f 368 50 51 383
f 383 51 52 398
f 398 52 53 413
f 413 53 4 54
f 412 413 54 55
f 411 412 55 56
f 410 411 56 57
f 409 410 57 58
f 408 409 58 59
f 407 408 59 60
f 406 407 60 61
f 405 406 61 62
f 404 405 62 63
f 403 404 63 64
f 402 403 64 65
f 401 402 65 66
f 400 401 66 67
f 399 400 67 68
f 9 399 68 3
f 10 384 399 9
f 11 369 384 10
f 12 354 369 11
f 13 339 354 12
f 14 324 339 13
f 15 309 324 14
f 16 294 309 15
f 17 279 294 16
f 18 264 279 17
f 19 249 264 18
f 20 234 249 19
f 21 219 234 20
f 22 204 219 21
f 23 189 204 22
f 414 415 430 429
f 415 416 431 430
f 416 417 432 431
f 417 418 433 432
f 418 419 434 433
f 419 420 435 434
f 420 421 436 435
f 421 422 437 436
f 422 423 438 437
f 423 424 439 438
f 424 425 440 439
f 425 426 441 440
f 426 427 442 441
f 427 428 443 442
f 429 430 445 444
f 430 431 446 445
f 431 432 447 446
f 432 433 448 447
f 433 434 449 448
f 434 435 450 449
f 435 436 451 450
f 436 437 452 451
f 437 438 453 452
f 438 439 454 453
f 439 440 455 454
f 440 441 456 455
f 441 442 457 456
f 442 443 458 457
f 444 445 460 459
f 445 446 461 460
f 446 447 462 461
f 447 448 463 462
f 448 449 464 463
f 449 450 465 464
f 450 451 466 465
f 451 452 467 466
f 452 453 468 467
f 453 454 469 468
f 454 455 470 469
f 455 456 471 470
f 456 457 472 471
f 457 458 473 472
f 459 460 475 474
f 460 461 476 475
f 461 462 477 476
f 462 463 478 477
f 463 464 479 478
f 464 465 480 479
f 465 466 481 480
f 466 467 482 481
f 467 468 483 482
f 468 469 484 483
f 469 470 485 484
f 470 471 486 485
f 471 472 487 486
f 472 473 488 487
f 474 475 490 489
f 475 476 491 490
f 476 477 492 491
f 477 478 493 492
f 478 479 494 493
f 479 480 495 494
f 480 481 496 495
f 481 482 497 496
f 482 483 498 497
f 483 484 499 498
f 484 485 500 499
f 485 486 501 500
f 486 487 502 501
f 487 488 503 502
f 489 490 505 504
f 490 491 506 505
f 491 492 507 506
f 492 493 508 507
f 493 494 509 508
f 494 495 510 509
f 495 496 511 510
f 496 497 512 511
f 497 498 513 512
f 498 499 514 513
f 499 500 515 514
f 500 501 516 515
f 501 502 517 516
f 502 503 518 517
f 504 505 520 519
f 505 506 521 520
f 506 507 522 521
f 507 508 523 522
f 508 509 524 523
f 509 510 525 524
f 510 511 526 525
f 511 512 527 526
f 512 513 528 527
f 513 514 529 528
f 514 515 530 529
f 515 516 531 530
f 516 517 532 531
f 517 518 533 532
f 519 520 535 534
f 520 521 536 535
f 521 522 537 536
f 522 523 538 537
f 523 524 539 538
f 524 525 540 539
f 525 526 541 540
f 526 527 542 541
f 527 528 543 542
f 528 529 544 543
f 529 530 545 544
f 530 531 546 545
f 531 532 547 546
f 532 533 548 547
f 534 535 550 549
f 535 536 551 550
f 536 537 552 551
f 537 538 553 552
f 538 539 554 553
f 539 540 555 554
f 540 541 556 555
f 541 542 557 556
f 542 543 558 557
f 543 544 559 558
f 544 545 560 559
f 545 546 561 560
f 546 547 562 561
f 547 548 563 562
f 549 550 565 564
f 550 551 566 565
f 551 552 567 566
f 552 553 568 567
f 553 554 569 568
f 554 555 570 569
f 555 556 571 570
f 556 557 572 571
f 557 558 573 572
f 558 559 574 573
f 559 560 575 574
f 560 561 576 575
f 561 562 577 576
f 562 563 578 577
f 564 565 580 579
f 565 566 581 580
f 566 567 582 581
f 567 568 583 582
f 568 569 584 583
f 569 570 585 584
f 570 571 586 585
f 571 572 587 586
f 572 573 588 587
f 573 574 589 588
f 574 575 590 589
f 575 576 591 590
f 576 577 592 591
f 577 578 593 592
f 579 580 595 594
f 580 581 596 595
f 581 582 597 596
f 582 583 598 597
f 583 584 599 598
f 584 585 600 599
f 585 586 601 600
f 586 587 602 601
f 587 588 603 602
f 588 589 604 603
f 589 590 605 604
f 590 591 606 605
f 591 592 607 606
f 592 593 608 607
f 594 595 610 609
f 595 596 611 610
f 596 597 612 611
f 597 598 613 612
f 598 599 614 613
f 599 600 615 614
f 600 601 616 615
f 601 602 617 616
f 602 603 618 617
f 603 604 619 618
f 604 605 620 619
f 605 606 621 620
f 606 607 622 621
f 607 608 623 622
f 609 610 625 624
f 610 611 626 625
f 611 612 627 626
f 612 613 628 627
f 613 614 629 628
f 614 615 630 629
f 615 616 631 630
f 616 617 632 631
f 617 618 633 632
f 618 619 634 633
f 619 620 635 634
f 620 621 636 635
f 621 622 637 636
f 622 623 638 637
f 3 68 414 83
f 68 67 415 414
f 67 66 416 415
f 66 65 417 416
f 65 64 418 417
f 64 63 419 418
f 63 62 420 419
f 62 61 421 420
f 61 60 422 421
f 60 59 423 422
f 59 58 424 423
f 58 57 425 424
f 57 56 426 425
f 56 55 427 426
f 55 54 428 427
f 54 4 84 428
f 428 84 85 443
f 443 85 86 458
f 458 86 87 473
f 473 87 88 488
f 488 88 89 503
f 503 89 90 518
f 518 90 91 533
f 533 91 92 548
f 548 92 93 563
f 563 93 94 578
f 578 94 95 593
f 593 95 96 608
f 608 96 97 623
f 623 97 98 638
f 638 98 8 99
f 637 638 99 100
f 636 637 100 101
f 635 636 101 102
f 634 635 102 103
f 633 634 103 104
f 632 633 104 105
f 631 632 105 106
f 630 631 106 107
f 629 630 107 108
f 628 629 108 109
f 627 628 109 110
f 626 627 110 111
f 625 626 111 112
f 624 625 112 113
f 69 624 113 7
f 70 609 624 69
f 71 594 609 70
f 72 579 594 71
f 73 564 579 72
f 74 549 564 73
f 75 534 549 74
f 76 519 534 75
f 77 504 519 76
f 78 489 504 77
f 79 474 489 78
f 80 459 474 79
f 81 444 459 80
f 82 429 444 81
f 83 414 429 82
f 639 640 655 654
f 640 641 656 655
f 641 642 657 656
f 642 643 658 657
f 643 644 659 658
f 644 645 660 659
f 645 646 661 660
f 646 647 662 661
f 647 648 663 662
f 648 649 664 663
f 649 650 665 664
f 650 651 666 665
f 651 652 667 666
f 652 653 668 667
f 654 655 670 669
f 655 656 671 670
f 656 657 672 671
f 657 658 673 672
f 658 659 674 673
f 659 660 675 674
f 660 661 676 675
f 661 662 677 676
f 662 663 678 677
f 663 664 679 678
f 664 665 680 679
f 665 666 681 680
f 666 667 682 681
f 667 668 683 682
f 669 670 685 684
f 670 671 686 685
f 671 672 687 686
f 672 673 688 687
f 673 674 689 688
f 674 675 690 689
f 675 676 691 690
f 676 677 692 691
f 677 678 693 692
f 678 679 694 693
f 679 680 695 694
f 680 681 696 695
f 681 682 697 696
f 682 683 698 697
f 684 685 700 699
f 685 686 701 700
f 686 687 702 701
f 687 688 703 702
f 688 689 704 703
f 689 690 705 704
f 690 691 706 705
f 691 692 707 706
f 692 693 708 707
f 693 694 709 708
f 694 695 710 709
f 695 696 711 710
f 696 697 712 711
f 697 698 713 712
f 699 700 715 714
f 700 701 716 715
f 701 702 717 716
f 702 703 718 717
f 703 704 719 718
f 704 705 720 719
f 705 706 721 720
f 706 707 722 721
f 707 708 723 722
f 708 709 724 723
f 709 710 725 724
f 710 711 726 725
f 711 712 727 726
f 712 713 728 727
f 714 715 730 729
f 715 716 731 730
f 716 717 732 731
f 717 718 733 732
f 718 719 734 733
f 719 720 735 734
f 720 721 736 735
f 721 722 737 736
f 722 723 738 737
f 723 724 739 738
f 724 725 740 739
f 725 726 741 740
f 726 727 742 741
f 727 728 743 742
f 729 730 745 744
f 730 731 746 745
f 731 732 747 746
f 732 733 748 747
f 733 734 749 748
f 734 735 750 749
f 735 736 751 750
f 736 737 752 751
f 737 738 753 752
f 738 739 754 753
f 739 740 755 754
f 740 741 756 755
f 741 742 757 756
f 742 743 758 757
f 744 745 760 759
f 745 746 761 760
f 746 747 762 761
f 747 748 763 762
f 748 749 764 763
f 749 750 765 764
f 750 751 766 765
f 751 752 767 766
f 752 753 768 767
f 753 754 769 768
f 754 755 770 769
f 755 756 771 770
f 756 757 772 771
f 757 758 773 772
f 759 760 775 774
f 760 761 776 775
f 761 762 777 776
f 762 763 778 777
f 763 764 779 778
f 764 765 780 779
f 765 766 781 780
f 766 767 782 781
f 767 768 783 782
f 768 769 784 783
f 769 770 785 784
f 770 771 786 785
f 771 772 787 786
f 772 773 788 787
f 774 775 790 789
f 775 776 791 790
f 776 777 792 791
f 777 778 793 792
f 778 779 794 793
f 779 780 795 794
f 780 781 796 795
f 781 782 797 796
f 782 783 798 797
f 783 784 799 798
f 784 785 800 799
f 785 786 801 800
f 786 787 802 801
f 787 788 803 802
f 789 790 805 804
f 790 791 806 805
f 791 792 807 806
f 792 793 808 807
f 793 794 809 808
f 794 795 810 809
f 795 796 811 810
f 796 797 812 811
f 797 798 813 812
f 798 799 814 813
f 799 800 815 814
f 800 801 816 815
f 801 802 817 816
f 802 803 818 817
f 804 805 820 819
f 805 806 821 820
f 806 807 822 821
f 807 808 823 822
f 808 809 824 823
f 809 810 825 824
f 810 811 826 825
f 811 812 827 826
f 812 813 828 827
f 813 814 829 828
f 814 815 830 829
f 815 816 831 830
f 816 817 832 831
f 817 818 833 832
f 819 820 835 834
f 820 821 836 835
f 821 822 837 836
f 822 823 838 837
f 823 824 839 838
f 824 825 840 839
f 825 826 841 840
f 826 827 842 841
f 827 828 843 842
f 828 829 844 843
f 829 830 845 844
f 830 831 846 845
f 831 832 847 846
f 832 833 848 847
f 834 835 850 849
f 835 836 851 850
f 836 837 852 851
f 837 838 853 852
f 838 839 854 853
f 839 840 855 854
f 840 841 856 855
f 841 842 857 856
f 842 843 858 857
f 843 844 859 858
f 844 845 860 859
f 845 846 861 860
f 846 847 862 861
f 847 848 863 862
f 7 113 639 128
f 113 112 640 639
f 112 111 641 640
f 111 110 642 641
f 110 109 643 642
f 109 108 644 643
f 108 107 645 644
f 107 106 646 645
f 106 105 647 646
f 105 104 648 647
f 104 103 649 648
f 103 102 650 649
f 102 101 651 650
f 101 100 652 651
f 100 99 653 652
f 99 8 129 653
f 653 129 130 668
f 668 130 131 683
f 683 131 132 698
f 698 132 133 713
f 713 133 134 728
f 728 134 135 743
f 743 135 136 758
f 758 136 137 773
f 773 137 138 788
f 788 138 139 803
f 803 139 140 818
f 818 140 141 833
f 833 141 142 848
f 848 142 143 863
f 863 143 6 144
f 862 863 144 145
f 861 862 145 146
f 860 861 146 147
f 859 860 147 148
f 858 859 148 149
f 857 858 149 150
f 856 857 150 151
f 855 856 151 152
f 854 855 152 153
f 853 854 153 154
f 852 853 154 155
f 851 852 155 156
f 850 851 156 157
f 849 850 157 158
f 114 849 158 5
f 115 834 849 114
f 116 819 834 115
f 117 804 819 116
f 118 789 804 117
f 119 774 789 118
f 120 759 774 119
f 121 744 759 120
f 122 729 744 121
f 123 714 729 122
f 124 699 714 123
f 125 684 699 124
f 126 669 684 125
f 127 654 669 126
f 128 639 654 127
f 864 865 880 879
f 865 866 881 880
f 866 867 882 881
f 867 868 883 882
f 868 869 884 883
f 869 870 885 884
f 870 871 886 885
f 871 872 887 886
f 872 873 888 887
f 873 874 889 888
f 874 875 890 889
f 875 876 891 890
f 876 877 892 891
f 877 878 893 892
f 879 880 895 894
f 880 881 896 895
f 881 882 897 896
f 882 883 898 897
f 883 884 899 898
f 884 885 900 899
f 885 886 901 900
f 886 887 902 901
f 887 888 903 902
f 888 889 904 903
f 889 890 905 904
f 890 891 906 905
f 891 892 907 906
f 892 893 908 907
f 894 895 910 909
f 895 896 911 910
f 896 897 912 911
f 897 898 913 912
f 898 899 914 913
f 899 900 915 914
f 900 901 916 915
f 901 902 917 916
f 902 903 918 917
f 903 904 919 918
f 904 905 920 919
f 905 906 921 920
f 906 907 922 921
f 907 908 923 922
f 909 910 925 924
f 910 911 926 925
f 911 912 927 926
f 912 913 928 927
f 913 914 929 928
f 914 915 930 929
f 915 916 931 930
f 916 917 932 931
f 917 918 933 932
f 918 919 934 933
f 919 920 935 934
f 920 921 936 935
f 921 922 937 936
f 922 923 938 937
f 924 925 940 939
f 925 926 941 940
f 926 927 942 941
f 927 928 943 942
f 928 929 944 943
f 929 930 945 944
f 930 931 946 945
f 931 932 947 946
f 932 933 948 947
f 933 934 949 948
f 934 935 950 949
f 935 936 951 950
f 936 937 952 951
f 937 938 953 952
f 939 940 955 954
f 940 941 956 955
f 941 942 957 956
f 942 943 958 957
f 943 944 959 958
f 944 945 960 959
f 945 946 961 960
f 946 947 962 961
f 947 948 963 962
f 948 949 964 963
f 949 950 965 964
f 950 951 966 965
f 951 952 967 966
f 952 953 968 967
f 954 955 970 969
f 955 956 971 970
f 956 957 972 971
f 957 958 973 972
f 958 959 974 973
f 959 960 975 974
f 960 961 976 975
f 961 962 977 976
f 962 963 978 977
f 963 964 979 978
f 964 965 980 979
f 965 966 981 980
f 966 967 982 981
f 967 968 983 982
f 969 970 985 984
f 970 971 986 985
f 971 972 987 986
f 972 973 988 987
f 973 974 989 988
f 974 975 990 989
f 975 976 991 990
f 976 977 992 991
f 977 978 993 992
f 978 979 994 993
f 979 980 995 994
f 980 981 996 995
f 981 982 997 996
f 982 983 998 997
f 984 985 1000 999
f 985 986 1001 1000
f 986 987 1002 1001
f 987 988 1003 1002
f 988 989 1004 1003
f 989 990 1005 1004
f 990 991 1006 1005
f 991 992 1007 1006
f 992 993 1008 1007
f 993 994 1009 1008
f 994 995 1010 1009
f 995 996 1011 1010
f 996 997 1012 1011
f 997 998 1013 1012
f 999 1000 1015 1014
f 1000 1001 1016 1015
f 1001 1002 1017 1016
f 1002 1003 1018 1017
f 1003 1004 1019 1018
f 1004 1005 1020 1019
f 1005 1006 1021 1020
f 1006 1007 1022 1021
f 1007 1008 1023 1022
f 1008 1009 1024 1023
f 1009 1010 1025 1024
f 1010 1011 1026 1025
f 1011 1012 1027 1026
f 1012 1013 1028 1027
f 1014 1015 1030 1029
f 1015 1016 1031 1030
f 1016 1017 1032 1031
f 1017 1018 1033 1032
f 1018 1019 1034 1033
f 1019 1020 1035 1034
f 1020 1021 1036 1035
f 1021 1022 1037 1036
f 1022 1023 1038 1037
f 1023 1024 1039 1038
f 1024 1025 1040 1039
f 1025 1026 1041 1040
f 1026 1027 1042 1041
f 1027 1028 1043 1042
f 1029 1030 1045 1044
f 1030 1031 1046 1045
f 1031 1032 1047 1046
f 1032 1033 1048 1047
f 1033 1034 1049 1048
f 1034 1035 1050 1049
f 1035 1036 1051 1050
f 1036 1037 1052 1051
f 1037 1038 1053 1052
f 1038 1039 1054 1053
f 1039 1040 1055 1054
f 1040 1041 1056 1055
f 1041 1042 1057 1056
f 1042 1043 1058 1057
f 1044 1045 1060 1059
f 1045 1046 1061 1060
f 1046 1047 1062 1061
f 1047 1048 1063 1062
f 1048 1049 1064 1063
f 1049 1050 1065 1064
f 1050 1051 1066 1065
f 1051 1052 1067 1066
f 1052 1053 1068 1067
f 1053 1054 1069 1068
f 1054 1055 1070 1069
f 1055 1056 1071 1070
f 1056 1057 1072 1071
f 1057 1058 1073 1072
f 1059 1060 1075 1074
f 1060 1061 1076 1075
f 1061 1062 1077 1076
f 1062 1063 1078 1077
f 1063 1064 1079 1078
f 1064 1065 1080 1079
f 1065 1066 1081 1080
f 1066 1067 1082 1081
f 1067 1068 1083 1082
f 1068 1069 1084 1083
f 1069 1070 1085 1084
f 1070 1071 1086 1085
f 1071 1072 1087 1086
f 1072 1073 1088 1087
f 5 158 864 173
f 158 157 865 864
f 157 156 866 865
f 156 155 867 866
f 155 154 868 867
f 154 153 869 868
f 153 152 870 869
f 152 151 871 870
f 151 150 872 871
f 150 149 873 872
f 149 148 874 873
f 148 147 875 874
f 147 146 876 875
f 146 145 877 876
f 145 144 878 877
f 144 6 174 878
f 878 174 175 893
f 893 175 176 908
f 908 176 177 923
f 923 177 178 938
f 938 178 179 953
f 953 179 180 968
f 968 180 181 983
f 983 181 182 998
f 998 182 183 1013
f 1013 183 184 1028
f 1028 184 185 1043
f 1043 185 186 1058
f 1058 186 187 1073
f 1073 187 188 1088
f 1088 188 2 38
f 1087 1088 38 37
f 1086 1087 37 36
f 1085 1086 36 35
f 1084 1085 35 34
f 1083 1084 34 33
f 1082 1083 33 32
f 1081 1082 32 31
f 1080 1081 31 30
f 1079 1080 30 29
f 1078 1079 29 28
f 1077 1078 28 27
f 1076 1077 27 26
f 1075 1076 26 25
f 1074 1075 25 24
f 159 1074 24 1
f 160 1059 1074 159
f 161 1044 1059 160
f 162 1029 1044 161
f 163 1014 1029 162
f 164 999 1014 163
f 165 984 999 164
f 166 969 984 165
f 167 954 969 166
f 168 939 954 167
f 169 924 939 168
f 170 909 924 169
f 171 894 909 170
f 172 879 894 171
f 173 864 879 172
f 1089 1090 1105 1104
f 1090 1091 1106 1105
f 1091 1092 1107 1106
f 1092 1093 1108 1107
f 1093 1094 1109 1108
f 1094 1095 1110 1109
f 1095 1096 1111 1110
f 1096 1097 1112 1111
f 1097 1098 1113 1112
f 1098 1099 1114 1113
f 1099 1100 1115 1114
f 1100 1101 1116 1115
f 1101 1102 1117 1116
f 1102 1103 1118 1117
f 1104 1105 1120 1119
f 1105 1106 1121 1120
f 1106 1107 1122 1121
f 1107 1108 1123 1122
f 1108 1109 1124 1123
f 1109 1110 1125 1124
f 1110 1111 1126 1125
f 1111 1112 1127 1126
f 1112 1113 1128 1127
f 1113 1114 1129 1128
f 1114 1115 1130 1129
f 1115 1116 1131 1130
f 1116 1117 1132 1131
f 1117 1118 1133 1132
f 1119 1120 1135 1134
f 1120 1121 1136 1135
f 1121 1122 1137 1136
f 1122 1123 1138 1137
f 1123 1124 1139 1138
f 1124 1125 1140 1139
f 1125 1126 1141 1140
f 1126 1127 1142 1141
f 1127 1128 1143 1142
f 1128 1129 1144 1143
f 1129 1130 1145 1144
f 1130 1131 1146 1145
f 1131 1132 1147 1146
f 1132 1133 1148 1147
f 1134 1135 1150 1149
f 1135 1136 1151 1150
f 1136 1137 1152 1151
f 1137 1138 1153 1152
f 1138 1139 1154 1153
f 1139 1140 1155 1154
f 1140 1141 1156 1155
f 1141 1142 1157 1156
f 1142 1143 1158 1157
f 1143 1144 1159 1158
f 1144 1145 1160 1159
f 1145 1146 1161 1160
f 1146 1147 1162 1161
f 1147 1148 1163 1162
f 1149 1150 1165 1164
f 1150 1151 1166 1165
f 1151 1152 1167 1166
f 1152 1153 1168 1167
f 1153 1154 1169 1168
f 1154 1155 1170 1169
f 1155 1156 1171 1170
f 1156 1157 1172 1171
f 1157 1158 1173 1172
f 1158 1159 1174 1173
f 1159 1160 1175 1174
f 1160 1161 1176 1175
f 1161 1162 1177 1176
f 1162 1163 1178 1177
f 1164 1165 1180 1179
f 1165 1166 1181 1180
f 1166 1167 1182 1181
f 1167 1168 1183 1182
f 1168 1169 1184 1183
f 1169 1170 1185 1184
f 1170 1171 1186 1185
f 1171 1172 1187 1186
f 1172 1173 1188 1187
f 1173 1174 1189 1188
f 1174 1175 1190 1189
f 1175 1176 1191 1190
f 1176 1177 1192 1191
f 1177 1178 1193 1192
f 1179 1180 1195 1194
f 1180 1181 1196 1195
f 1181 1182 1197 1196
f 1182 1183 1198 1197
f 1183 1184 1199 1198
f 1184 1185 1200 1199
f 1185 1186 1201 1200
f 1186 1187 1202 1201
f 1187 1188 1203 1202
f 1188 1189 1204 1203
f 1189 1190 1205 1204
f 1190 1191 1206 1205
f 1191 1192 1207 1206
f 1192 1193 1208 1207
f 1194 1195 1210 1209
f 1195 1196 1211 1210
f 1196 1197 1212 1211
f 1197 1198 1213 1212
f 1198 1199 1214 1213
f 1199 1200 1215 1214
f 1200 1201 1216 1215
f 1201 1202 1217 1216
f 1202 1203 1218 1217
f 1203 1204 1219 1218
f 1204 1205 1220 1219
f 1205 1206 1221 1220
f 1206 1207 1222 1221
f 1207 1208 1223 1222
f 1209 1210 1225 1224
f 1210 1211 1226 1225
f 1211 1212 1227 1226
f 1212 1213 1228 1227
f 1213 1214 1229 1228
f 1214 1215 1230 1229
f 1215 1216 1231 1230
f 1216 1217 1232 1231
f 1217 1218 1233 1232
f 1218 1219 1234 1233
f 1219 1220 1235 1234
f 1220 1221 1236 1235
f 1221 1222 1237 1236
f 1222 1223 1238 1237
f 1224 1225 1240 1239
f 1225 1226 1241 1240
f 1226 1227 1242 1241
f 1227 1228 1243 1242
f 1228 1229 1244 1243
f 1229 1230 1245 1244
f 1230 1231 1246 1245
f 1231 1232 1247 1246
f 1232 1233 1248 1247
f 1233 1234 1249 1248
f 1234 1235 1250 1249
f 1235 1236 1251 1250
f 1236 1237 1252 1251
f 1237 1238 1253 1252
f 1239 1240 1255 1254
f 1240 1241 1256 1255
f 1241 1242 1257 1256
f 1242 1243 1258 1257
f 1243 1244 1259 1258
f 1244 1245 1260 1259
f 1245 1246 1261 1260
f 1246 1247 1262 1261
f 1247 1248 1263 1262
f 1248 1249 1264 1263
f 1249 1250 1265 1264
f 1250 1251 1266 1265
f 1251 1252 1267 1266
f 1252 1253 1268 1267
f 1254 1255 1270 1269
f 1255 1256 1271 1270
f 1256 1257 1272 1271
f 1257 1258 1273 1272
f 1258 1259 1274 1273
f 1259 1260 1275 1274
f 1260 1261 1276 1275
f 1261 1262 1277 1276
f 1262 1263 1278 1277
f 1263 1264 1279 1278
f 1264 1265 1280 1279
f 1265 1266 1281 1280
f 1266 1267 1282 1281
f 1267 1268 1283 1282
f 1269 1270 1285 1284
f 1270 1271 1286 1285
f 1271 1272 1287 1286
f 1272 1273 1288 1287
f 1273 1274 1289 1288
f 1274 1275 1290 1289
f 1275 1276 1291 1290
f 1276 1277 1292 1291
f 1277 1278 1293 1292
f 1278 1279 1294 1293
f 1279 1280 1295 1294
f 1280 1281 1296 1295
f 1281 1282 1297 1296
f 1282 1283 1298 1297
f 1284 1285 1300 1299
f 1285 1286 1301 1300
f 1286 1287 1302 1301
f 1287 1288 1303 1302
f 1288 1289 1304 1303
f 1289 1290 1305 1304
f 1290 1291 1306 1305
f 1291 1292 1307 1306
f 1292 1293 1308 1307
f 1293 1294 1309 1308
f 1294 1295 1310 1309
f 1295 1296 1311 1310
f 1296 1297 1312 1311
f 1297 1298 1313 1312
f 3 83 1089 9
f 83 82 1090 1089
f 82 81 1091 1090
f 81 80 1092 1091
f 80 79 1093 1092
f 79 78 1094 1093
f 78 77 1095 1094
f 77 76 1096 1095
f 76 75 1097 1096
f 75 74 1098 1097
f 74 73 1099 1098
f 73 72 1100 1099
f 72 71 1101 1100
f 71 70 1102 1101
f 70 69 1103 1102
f 69 7 128 1103
f 1103 128 127 1118
f 1118 127 126 1133
f 1133 126 125 1148
f 1148 125 124 1163
f 1163 124 123 1178
f 1178 123 122 1193
f 1193 122 121 1208
f 1208 121 120 1223
f 1223 120 119 1238
f 1238 119 118 1253
f 1253 118 117 1268
f 1268 117 116 1283
f 1283 116 115 1298
f 1298 115 114 1313
f 1313 114 5 173
f 1312 1313 173 172
f 1311 1312 172 171
f 1310 1311 171 170
f 1309 1310 170 169
f 1308 1309 169 168
f 1307 1308 168 167
f 1306 1307 167 166
f 1305 1306 166 165
f 1304 1305 165 164
f 1303 1304 164 163
f 1302 1303 163 162
f 1301 1302 162 161
f 1300 1301 161 160
f 1299 1300 160 159
f 23 1299 159 1
f 22 1284 1299 23
f 21 1269 1284 22
f 20 1254 1269 21
f 19 1239 1254 20
f 18 1224 1239 19
f 17 1209 1224 18
f 16 1194 1209 17
f 15 1179 1194 16
f 14 1164 1179 15
f 13 1149 1164 14
f 12 1134 1149 13
f 11 1119 1134 12
f 10 1104 1119 11
f 9 1089 1104 10
f 1314 1315 1330 1329
f 1315 1316 1331 1330
f 1316 1317 1332 1331
f 1317 1318 1333 1332
f 1318 1319 1334 1333
f 1319 1320 1335 1334
f 1320 1321 1336 1335
f 1321 1322 1337 1336
f 1322 1323 1338 1337
f 1323 1324 1339 1338
f 1324 1325 1340 1339
f 1325 1326 1341 1340
f 1326 1327 1342 1341
f 1327 1328 1343 1342
f 1329 1330 1345 1344
f 1330 1331 1346 1345
f 1331 1332 1347 1346
f 1332 1333 1348 1347
f 1333 1334 1349 1348
f 1334 1335 1350 1349
f 1335 1336 1351 1350
f 1336 1337 1352 1351
f 1337 1338 1353 1352
f 1338 1339 1354 1353
f 1339 1340 1355 1354
f 1340 1341 1356 1355
f 1341 1342 1357 1356
f 1342 1343 1358 1357
f 1344 1345 1360 1359
f 1345 1346 1361 1360
f 1346 1347 1362 1361
f 1347 1348 1363 1362
f 1348 1349 1364 1363
f 1349 1350 1365 1364
f 1350 1351 1366 1365
f 1351 1352 1367 1366
f 1352 1353 1368 1367
f 1353 1354 1369 1368
f 1354 1355 1370 1369
f 1355 1356 1371 1370
f 1356 1357 1372 1371
f 1357 1358 1373 1372
f 1359 1360 1375 1374
f 1360 1361 1376 1375
f 1361 1362 1377 1376
f 1362 1363 1378 1377
f 1363 1364 1379 1378
f 1364 1365 1380 1379
f 1365 1366 1381 1380
f 1366 1367 1382 1381
f 1367 1368 1383 1382
f 1368 1369 1384 1383
f 1369 1370 1385 1384
f 1370 1371 1386 1385
f 1371 1372 1387 1386
f 1372 1373 1388 1387
f 1374 1375 1390 1389
f 1375 1376 1391 1390
f 1376 1377 1392 1391
f 1377 1378 1393 1392
f 1378 1379 1394 1393
f 1379 1380 1395 1394
f 1380 1381 1396 1395
f 1381 1382 1397 1396
f 1382 1383 1398 1397
f 1383 1384 1399 1398
f 1384 1385 1400 1399
f 1385 1386 1401 1400
f 1386 1387 1402 1401
f 1387 1388 1403 1402
f 1389 1390 1405 1404
f 1390 1391 1406 1405
f 1391 1392 1407 1406
f 1392 1393 1408 1407
f 1393 1394 1409 1408
f 1394 1395 1410 1409
f 1395 1396 1411 1410
f 1396 1397 1412 1411
f 1397 1398 1413 1412
f 1398 1399 1414 1413
f 1399 1400 1415 1414
f 1400 1401 1416 1415
f 1401 1402 1417 1416
f 1402 1403 1418 1417
f 1404 1405 1420 1419
f 1405 1406 1421 1420
f 1406 1407 1422 1421
f 1407 1408 1423 1422
f 1408 1409 1424 1423
f 1409 1410 1425 1424
f 1410 1411 1426 1425
f 1411 1412 1427 1426
f 1412 1413 1428 1427
f 1413 1414 1429 1428
f 1414 1415 1430 1429
f 1415 1416 1431 1430
f 1416 1417 1432 1431
f 1417 1418 1433 1432
f 1419 1420 1435 1434
f 1420 1421 1436 1435
f 1421 1422 1437 1436
f 1422 1423 1438 1437
f 1423 1424 1439 1438
f 1424 1425 1440 1439
f 1425 1426 1441 1440
f 1426 1427 1442 1441
f 1427 1428 1443 1442
f 1428 1429 1444 1443
f 1429 1430 1445 1444
f 1430 1431 1446 1445
f 1431 1432 1447 1446
f 1432 1433 1448 1447
f 1434 1435 1450 1449
f 1435 1436 1451 1450
f 1436 1437 1452 1451
f 1437 1438 1453 1452
f 1438 1439 1454 1453
f 1439 1440 1455 1454
f 1440 1441 1456 1455
f 1441 1442 1457 1456
f 1442 1443 1458 1457
f 1443 1444 1459 1458
f 1444 1445 1460 1459
f 1445 1446 1461 1460
f 1446 1447 1462 1461
f 1447 1448 1463 1462
f 1449 1450 1465 1464
f 1450 1451 1466 1465
f 1451 1452 1467 1466
f 1452 1453 1468 1467
f 1453 1454 1469 1468
f 1454 1455 1470 1469
f 1455 1456 1471 1470
f 1456 1457 1472 1471
f 1457 1458 1473 1472
f 1458 1459 1474 1473
f 1459 1460 1475 1474
f 1460 1461 1476 1475
f 1461 1462 1477 1476
f 1462 1463 1478 1477
f 1464 1465 1480 1479
f 1465 1466 1481 1480
f 1466 1467 1482 1481
f 1467 1468 1483 1482
f 1468 1469 1484 1483
f 1469 1470 1485 1484
f 1470 1471 1486 1485
f 1471 1472 1487 1486
f 1472 1473 1488 1487
f 1473 1474 1489 1488
f 1474 1475 1490 1489
f 1475 1476 1491 1490
f 1476 1477 1492 1491
f 1477 1478 1493 1492
f 1479 1480 1495 1494
f 1480 1481 1496 1495
f 1481 1482 1497 1496
f 1482 1483 1498 1497
f 1483 1484 1499 1498
f 1484 1485 1500 1499
f 1485 1486 1501 1500
f 1486 1487 1502 1501
f 1487 1488 1503 1502
f 1488 1489 1504 1503
f 1489 1490 1505 1504
f 1490 1491 1506 1505
f 1491 1492 1507 1506
f 1492 1493 1508 1507
f 1494 1495 1510 1509
f 1495 1496 1511 1510
f 1496 1497 1512 1511
f 1497 1498 1513 1512
f 1498 1499 1514 1513
f 1499 1500 1515 1514
f 1500 1501 1516 1515
f 1501 1502 1517 1516
f 1502 1503 1518 1517
f 1503 1504 1519 1518
f 1504 1505 1520 1519
f 1505 1506 1521 1520
f 1506 1507 1522 1521
f 1507 1508 1523 1522
f 1509 1510 1525 1524
f 1510 1511 1526 1525
f 1511 1512 1527 1526
f 1512 1513 1528 1527
f 1513 1514 1529 1528
f 1514 1515 1530 1529
f 1515 1516 1531 1530
f 1516 1517 1532 1531
f 1517 1518 1533 1532
f 1518 1519 1534 1533
f 1519 1520 1535 1534
f 1520 1521 1536 1535
f 1521 1522 1537 1536
f 1522 1523 1538 1537
f 8 98 1314 129
f 98 97 1315 1314
f 97 96 1316 1315
f 96 95 1317 1316
f 95 94 1318 1317
f 94 93 1319 1318
f 93 92 1320 1319
f 92 91 1321 1320
f 91 90 1322 1321
f 90 89 1323 1322
f 89 88 1324 1323
f 88 87 1325 1324
f 87 86 1326 1325
f 86 85 1327 1326
f 85 84 1328 1327
f 84 4 53 1328
f 1328 53 52 1343
f 1343 52 51 1358
f 1358 51 50 1373
f 1373 50 49 1388
f 1388 49 48 1403
f 1403 48 47 1418
f 1418 47 46 1433
f 1433 46 45 1448
f 1448 45 44 1463
f 1463 44 43 1478
f 1478 43 42 1493
f 1493 42 41 1508
f 1508 41 40 1523
f 1523 40 39 1538
f 1538 39 2 188
f 1537 1538 188 187
f 1536 1537 187 186
f 1535 1536 186 185
f 1534 1535 185 184
f 1533 1534 184 183
f 1532 1533 183 182
f 1531 1532 182 181
f 1530 1531 181 180
f 1529 1530 180 179
f 1528 1529 179 178
f 1527 1528 178 177
f 1526 1527 177 176
f 1525 1526 176 175
f 1524 1525 175 174
f 143 1524 174 6
f 142 1509 1524 143
f 141 1494 1509 142
f 140 1479 1494 141
f 139 1464 1479 140
f 138 1449 1464 139
f 137 1434 1449 138
f 136 1419 1434 137
f 135 1404 1419 136
f 134 1389 1404 135
f 133 1374 1389 134
f 132 1359 1374 133
f 131 1344 1359 132
f 130 1329 1344 131
f 129 1314 1329 130
