# Blender 4.4.3
# www.blender.org
o brick_x-3-0
v -0.193531 -0.319976 1.047688
v -0.193786 -0.030915 1.144089
v -0.193962 -0.273286 0.907685
v -0.194217 0.015775 1.004085
v 0.038647 -0.319578 1.047107
v 0.038392 -0.030516 1.143507
v 0.038217 -0.272888 0.907104
v 0.037962 0.016174 1.003504
v -0.193935 -0.276204 0.916435
v -0.193908 -0.279122 0.925185
v -0.193881 -0.282041 0.933936
v -0.193854 -0.284959 0.942686
v -0.193827 -0.287877 0.951436
v -0.193800 -0.290795 0.960186
v -0.193773 -0.293713 0.968936
v -0.193747 -0.296631 0.977687
v -0.193720 -0.299549 0.986437
v -0.193693 -0.302467 0.995187
v -0.193666 -0.305385 1.003937
v -0.193639 -0.308304 1.012687
v -0.193612 -0.311222 1.021438
v -0.193585 -0.314140 1.030188
v -0.193558 -0.317058 1.038938
v -0.193547 -0.301910 1.053713
v -0.193563 -0.283843 1.059738
v -0.193579 -0.265777 1.065763
v -0.193595 -0.247711 1.071788
v -0.193611 -0.229644 1.077813
v -0.193627 -0.211578 1.083838
v -0.193643 -0.193512 1.089863
v -0.193659 -0.175445 1.095888
v -0.193675 -0.157379 1.101913
v -0.193691 -0.139313 1.107938
v -0.193707 -0.121246 1.113963
v -0.193722 -0.103180 1.119988
v -0.193738 -0.085114 1.126013
v -0.193754 -0.067047 1.132038
v -0.193770 -0.048981 1.138063
v -0.193813 -0.027997 1.135338
v -0.193840 -0.025078 1.126588
v -0.193867 -0.022160 1.117838
v -0.193894 -0.019242 1.109088
v -0.193921 -0.016324 1.100338
v -0.193948 -0.013406 1.091587
v -0.193975 -0.010488 1.082837
v -0.194001 -0.007570 1.074087
v -0.194028 -0.004652 1.065337
v -0.194055 -0.001733 1.056586
v -0.194082 0.001185 1.047836
v -0.194109 0.004103 1.039086
v -0.194136 0.007021 1.030336
v -0.194163 0.009939 1.021586
v -0.194190 0.012857 1.012835
v -0.194201 -0.002291 0.998060
v -0.194185 -0.020357 0.992035
v -0.194169 -0.038424 0.986010
v -0.194153 -0.056490 0.979985
v -0.194137 -0.074556 0.973960
v -0.194121 -0.092623 0.967935
v -0.194105 -0.110689 0.961910
v -0.194089 -0.128755 0.955885
v -0.194073 -0.146822 0.949860
v -0.194057 -0.164888 0.943835
v -0.194041 -0.182954 0.937810
v -0.194026 -0.201021 0.931785
v -0.194010 -0.219087 0.925760
v -0.193994 -0.237154 0.919735
v -0.193978 -0.255220 0.913710
v 0.023706 -0.272913 0.907140
v 0.009194 -0.272938 0.907177
v -0.005317 -0.272962 0.907213
v -0.019828 -0.272987 0.907249
v -0.034339 -0.273012 0.907286
v -0.048850 -0.273037 0.907322
v -0.063361 -0.273062 0.907358
v -0.077873 -0.273087 0.907395
v -0.092384 -0.273112 0.907431
v -0.106895 -0.273137 0.907467
v -0.121406 -0.273162 0.907503
v -0.135917 -0.273187 0.907540
v -0.150428 -0.273211 0.907576
v -0.164939 -0.273236 0.907612
v -0.179451 -0.273261 0.907649
v -0.179706 0.015800 1.004049
v -0.165194 0.015825 1.004013
v -0.150683 0.015850 1.003976
v -0.136172 0.015875 1.003940
v -0.121661 0.015900 1.003904
v -0.107150 0.015925 1.003867
v -0.092639 0.015950 1.003831
v -0.078127 0.015974 1.003795
v -0.063616 0.015999 1.003758
v -0.049105 0.016024 1.003722
v -0.034594 0.016049 1.003686
v -0.020083 0.016074 1.003649
v -0.005572 0.016099 1.003613
v 0.008939 0.016124 1.003577
v 0.023451 0.016149 1.003541
v 0.037978 -0.001893 0.997479
v 0.037994 -0.019959 0.991454
v 0.038010 -0.038025 0.985429
v 0.038026 -0.056092 0.979404
v 0.038041 -0.074158 0.973379
v 0.038057 -0.092224 0.967354
v 0.038073 -0.110291 0.961329
v 0.038089 -0.128357 0.955304
v 0.038105 -0.146423 0.949279
v 0.038121 -0.164490 0.943254
v 0.038137 -0.182556 0.937229
v 0.038153 -0.200622 0.931204
v 0.038169 -0.218689 0.925179
v 0.038185 -0.236755 0.919154
v 0.038201 -0.254821 0.913129
v 0.038620 -0.316659 1.038357
v 0.038593 -0.313741 1.029607
v 0.038566 -0.310823 1.020857
v 0.038540 -0.307905 1.012107
v 0.038513 -0.304987 1.003356
v 0.038486 -0.302069 0.994606
v 0.038459 -0.299151 0.985856
v 0.038432 -0.296233 0.977106
v 0.038405 -0.293315 0.968355
v 0.038378 -0.290396 0.959605
v 0.038351 -0.287478 0.950855
v 0.038324 -0.284560 0.942105
v 0.038297 -0.281642 0.933355
v 0.038270 -0.278724 0.924604
v 0.038244 -0.275806 0.915854
v 0.037989 0.013256 1.012254
v 0.038016 0.010337 1.021005
v 0.038043 0.007419 1.029755
v 0.038069 0.004501 1.038505
v 0.038096 0.001583 1.047255
v 0.038123 -0.001335 1.056005
v 0.038150 -0.004253 1.064756
v 0.038177 -0.007171 1.073506
v 0.038204 -0.010089 1.082256
v 0.038231 -0.013008 1.091006
v 0.038258 -0.015926 1.099756
v 0.038285 -0.018844 1.108507
v 0.038312 -0.021762 1.117257
v 0.038338 -0.024680 1.126007
v 0.038365 -0.027598 1.134757
v 0.038408 -0.048583 1.137483
v 0.038424 -0.066649 1.131457
v 0.038440 -0.084715 1.125432
v 0.038456 -0.102782 1.119407
v 0.038472 -0.120848 1.113382
v 0.038488 -0.138914 1.107357
v 0.038504 -0.156981 1.101332
v 0.038520 -0.175047 1.095307
v 0.038536 -0.193113 1.089282
v 0.038552 -0.211180 1.083257
v 0.038567 -0.229246 1.077232
v 0.038583 -0.247312 1.071207
v 0.038599 -0.265379 1.065182
v 0.038615 -0.283445 1.059157
v 0.038631 -0.301511 1.053132
v -0.179020 -0.319951 1.047652
v -0.164509 -0.319926 1.047616
v -0.149998 -0.319901 1.047579
v -0.135487 -0.319876 1.047543
v -0.120976 -0.319852 1.047507
v -0.106464 -0.319827 1.047470
v -0.091953 -0.319802 1.047434
v -0.077442 -0.319777 1.047398
v -0.062931 -0.319752 1.047361
v -0.048420 -0.319727 1.047325
v -0.033909 -0.319702 1.047289
v -0.019397 -0.319677 1.047253
v -0.004886 -0.319652 1.047216
v 0.009625 -0.319627 1.047180
v 0.024136 -0.319602 1.047144
v 0.023881 -0.030541 1.143544
v 0.009370 -0.030566 1.143580
v -0.005141 -0.030591 1.143616
v -0.019652 -0.030616 1.143653
v -0.034163 -0.030641 1.143689
v -0.048675 -0.030666 1.143725
v -0.063186 -0.030691 1.143762
v -0.077697 -0.030715 1.143798
v -0.092208 -0.030740 1.143834
v -0.106719 -0.030765 1.143871
v -0.121230 -0.030790 1.143907
v -0.135742 -0.030815 1.143943
v -0.150253 -0.030840 1.143980
v -0.164764 -0.030865 1.144016
v -0.179275 -0.030890 1.144052
v -0.193574 -0.298992 1.044963
v -0.193590 -0.280925 1.050988
v -0.193606 -0.262859 1.057013
v -0.193622 -0.244793 1.063038
v -0.193638 -0.226726 1.069063
v -0.193654 -0.208660 1.075088
v -0.193670 -0.190594 1.081113
v -0.193686 -0.172527 1.087138
v -0.193702 -0.154461 1.093163
v -0.193718 -0.136395 1.099188
v -0.193733 -0.118328 1.105213
v -0.193749 -0.100262 1.111238
v -0.193765 -0.082196 1.117263
v -0.193781 -0.064129 1.123288
v -0.193797 -0.046063 1.129313
v -0.193601 -0.296073 1.036213
v -0.193617 -0.278007 1.042238
v -0.193633 -0.259941 1.048263
v -0.193649 -0.241874 1.054288
v -0.193665 -0.223808 1.060313
v -0.193681 -0.205742 1.066338
v -0.193697 -0.187675 1.072363
v -0.193713 -0.169609 1.078388
v -0.193728 -0.151543 1.084413
v -0.193744 -0.133476 1.090438
v -0.193760 -0.115410 1.096463
v -0.193776 -0.097344 1.102488
v -0.193792 -0.079277 1.108513
v -0.193808 -0.061211 1.114538
v -0.193824 -0.043145 1.120563
v -0.193628 -0.293155 1.027463
v -0.193644 -0.275089 1.033488
v -0.193660 -0.257023 1.039513
v -0.193676 -0.238956 1.045538
v -0.193692 -0.220890 1.051563
v -0.193708 -0.202824 1.057588
v -0.193724 -0.184757 1.063613
v -0.193739 -0.166691 1.069638
v -0.193755 -0.148625 1.075663
v -0.193771 -0.130558 1.081688
v -0.193787 -0.112492 1.087713
v -0.193803 -0.094426 1.093738
v -0.193819 -0.076359 1.099763
v -0.193835 -0.058293 1.105788
v -0.193851 -0.040227 1.111813
v -0.193655 -0.290237 1.018713
v -0.193671 -0.272171 1.024737
v -0.193687 -0.254105 1.030763
v -0.193703 -0.236038 1.036788
v -0.193719 -0.217972 1.042813
v -0.193734 -0.199906 1.048838
v -0.193750 -0.181839 1.054862
v -0.193766 -0.163773 1.060888
v -0.193782 -0.145707 1.066913
v -0.193798 -0.127640 1.072938
v -0.193814 -0.109574 1.078963
v -0.193830 -0.091508 1.084988
v -0.193846 -0.073441 1.091013
v -0.193862 -0.055375 1.097038
v -0.193878 -0.037309 1.103063
v -0.193682 -0.287319 1.009962
v -0.193698 -0.269253 1.015987
v -0.193714 -0.251186 1.022012
v -0.193730 -0.233120 1.028037
v -0.193745 -0.215054 1.034062
v -0.193761 -0.196987 1.040087
v -0.193777 -0.178921 1.046112
v -0.193793 -0.160855 1.052137
v -0.193809 -0.142788 1.058162
v -0.193825 -0.124722 1.064187
v -0.193841 -0.106656 1.070212
v -0.193857 -0.088589 1.076237
v -0.193873 -0.070523 1.082262
v -0.193889 -0.052457 1.088287
v -0.193905 -0.034390 1.094312
v -0.193709 -0.284401 1.001212
v -0.193725 -0.266335 1.007237
v -0.193741 -0.248268 1.013262
v -0.193756 -0.230202 1.019287
v -0.193772 -0.212136 1.025312
v -0.193788 -0.194069 1.031337
v -0.193804 -0.176003 1.037362
v -0.193820 -0.157937 1.043387
v -0.193836 -0.139870 1.049412
v -0.193852 -0.121804 1.055437
v -0.193868 -0.103738 1.061462
v -0.193884 -0.085671 1.067487
v -0.193900 -0.067605 1.073512
v -0.193916 -0.049539 1.079537
v -0.193932 -0.031472 1.085562
v -0.193736 -0.281483 0.992462
v -0.193752 -0.263417 0.998487
v -0.193767 -0.245350 1.004512
v -0.193783 -0.227284 1.010537
v -0.193799 -0.209218 1.016562
v -0.193815 -0.191151 1.022587
v -0.193831 -0.173085 1.028612
v -0.193847 -0.155019 1.034637
v -0.193863 -0.136952 1.040662
v -0.193879 -0.118886 1.046687
v -0.193895 -0.100820 1.052712
v -0.193911 -0.082753 1.058737
v -0.193927 -0.064687 1.064762
v -0.193943 -0.046621 1.070787
v -0.193959 -0.028554 1.076812
v -0.193762 -0.278565 0.983712
v -0.193778 -0.260498 0.989737
v -0.193794 -0.242432 0.995762
v -0.193810 -0.224366 1.001787
v -0.193826 -0.206299 1.007812
v -0.193842 -0.188233 1.013837
v -0.193858 -0.170167 1.019862
v -0.193874 -0.152100 1.025887
v -0.193890 -0.134034 1.031912
v -0.193906 -0.115968 1.037937
v -0.193922 -0.097901 1.043962
v -0.193938 -0.079835 1.049987
v -0.193954 -0.061769 1.056012
v -0.193970 -0.043702 1.062037
v -0.193985 -0.025636 1.068062
v -0.193789 -0.275647 0.974961
v -0.193805 -0.257580 0.980986
v -0.193821 -0.239514 0.987011
v -0.193837 -0.221448 0.993037
v -0.193853 -0.203381 0.999062
v -0.193869 -0.185315 1.005087
v -0.193885 -0.167249 1.011111
v -0.193901 -0.149182 1.017137
v -0.193917 -0.131116 1.023162
v -0.193933 -0.113050 1.029187
v -0.193949 -0.094983 1.035212
v -0.193965 -0.076917 1.041237
v -0.193981 -0.058851 1.047262
v -0.193996 -0.040784 1.053287
v -0.194012 -0.022718 1.059312
v -0.193816 -0.272729 0.966211
v -0.193832 -0.254662 0.972236
v -0.193848 -0.236596 0.978261
v -0.193864 -0.218530 0.984286
v -0.193880 -0.200463 0.990311
v -0.193896 -0.182397 0.996336
v -0.193912 -0.164331 1.002361
v -0.193928 -0.146264 1.008386
v -0.193944 -0.128198 1.014411
v -0.193960 -0.110132 1.020436
v -0.193976 -0.092065 1.026461
v -0.193992 -0.073999 1.032486
v -0.194007 -0.055933 1.038511
v -0.194023 -0.037866 1.044536
v -0.194039 -0.019800 1.050561
v -0.193843 -0.269810 0.957461
v -0.193859 -0.251744 0.963486
v -0.193875 -0.233678 0.969511
v -0.193891 -0.215611 0.975536
v -0.193907 -0.197545 0.981561
v -0.193923 -0.179479 0.987586
v -0.193939 -0.161412 0.993611
v -0.193955 -0.143346 0.999636
v -0.193971 -0.125280 1.005661
v -0.193987 -0.107213 1.011686
v -0.194002 -0.089147 1.017711
v -0.194018 -0.071081 1.023736
v -0.194034 -0.053014 1.029761
v -0.194050 -0.034948 1.035786
v -0.194066 -0.016882 1.041811
v -0.193870 -0.266892 0.948711
v -0.193886 -0.248826 0.954736
v -0.193902 -0.230760 0.960761
v -0.193918 -0.212693 0.966786
v -0.193934 -0.194627 0.972811
v -0.193950 -0.176561 0.978836
v -0.193966 -0.158494 0.984861
v -0.193982 -0.140428 0.990886
v -0.193998 -0.122362 0.996911
v -0.194013 -0.104295 1.002936
v -0.194029 -0.086229 1.008961
v -0.194045 -0.068163 1.014986
v -0.194061 -0.050096 1.021011
v -0.194077 -0.032030 1.027036
v -0.194093 -0.013964 1.033061
v -0.193897 -0.263974 0.939961
v -0.193913 -0.245908 0.945986
v -0.193929 -0.227841 0.952011
v -0.193945 -0.209775 0.958036
v -0.193961 -0.191709 0.964061
v -0.193977 -0.173643 0.970086
v -0.193993 -0.155576 0.976111
v -0.194008 -0.137510 0.982136
v -0.194024 -0.119444 0.988161
v -0.194040 -0.101377 0.994186
v -0.194056 -0.083311 1.000211
v -0.194072 -0.065245 1.006236
v -0.194088 -0.047178 1.012261
v -0.194104 -0.029112 1.018286
v -0.194120 -0.011046 1.024311
v -0.193924 -0.261056 0.931210
v -0.193940 -0.242990 0.937235
v -0.193956 -0.224923 0.943260
v -0.193972 -0.206857 0.949286
v -0.193988 -0.188791 0.955310
v -0.194004 -0.170724 0.961336
v -0.194019 -0.152658 0.967360
v -0.194035 -0.134592 0.973386
v -0.194051 -0.116525 0.979411
v -0.194067 -0.098459 0.985436
v -0.194083 -0.080393 0.991461
v -0.194099 -0.062326 0.997486
v -0.194115 -0.044260 1.003511
v -0.194131 -0.026194 1.009536
v -0.194147 -0.008127 1.015561
v -0.193951 -0.258138 0.922460
v -0.193967 -0.240072 0.928485
v -0.193983 -0.222005 0.934510
v -0.193999 -0.203939 0.940535
v -0.194015 -0.185873 0.946560
v -0.194030 -0.167806 0.952585
v -0.194046 -0.149740 0.958610
v -0.194062 -0.131674 0.964635
v -0.194078 -0.113607 0.970660
v -0.194094 -0.095541 0.976685
v -0.194110 -0.077475 0.982710
v -0.194126 -0.059408 0.988735
v -0.194142 -0.041342 0.994760
v -0.194158 -0.023276 1.000785
v -0.194174 -0.005209 1.006810
v -0.179467 -0.255195 0.913674
v -0.179482 -0.237129 0.919699
v -0.179498 -0.219062 0.925724
v -0.179514 -0.200996 0.931749
v -0.179530 -0.182930 0.937774
v -0.179546 -0.164863 0.943799
v -0.179562 -0.146797 0.949824
v -0.179578 -0.128731 0.955849
v -0.179594 -0.110664 0.961874
v -0.179610 -0.092598 0.967899
v -0.179626 -0.074532 0.973924
v -0.179642 -0.056465 0.979949
v -0.179658 -0.038399 0.985974
v -0.179674 -0.020333 0.991999
v -0.179690 -0.002266 0.998024
v -0.164955 -0.255170 0.913637
v -0.164971 -0.237104 0.919662
v -0.164987 -0.219037 0.925687
v -0.165003 -0.200971 0.931712
v -0.165019 -0.182905 0.937737
v -0.165035 -0.164838 0.943762
v -0.165051 -0.146772 0.949787
v -0.165067 -0.128706 0.955813
v -0.165083 -0.110639 0.961838
v -0.165099 -0.092573 0.967863
v -0.165115 -0.074507 0.973888
v -0.165131 -0.056440 0.979913
v -0.165147 -0.038374 0.985938
v -0.165162 -0.020308 0.991963
v -0.165178 -0.002241 0.997988
v -0.150444 -0.255145 0.913601
v -0.150460 -0.237079 0.919626
v -0.150476 -0.219012 0.925651
v -0.150492 -0.200946 0.931676
v -0.150508 -0.182880 0.937701
v -0.150524 -0.164813 0.943726
v -0.150540 -0.146747 0.949751
v -0.150556 -0.128681 0.955776
v -0.150572 -0.110614 0.961801
v -0.150588 -0.092548 0.967826
v -0.150604 -0.074482 0.973851
v -0.150619 -0.056415 0.979876
v -0.150635 -0.038349 0.985901
v -0.150651 -0.020283 0.991926
v -0.150667 -0.002216 0.997951
v -0.135933 -0.255120 0.913565
v -0.135949 -0.237054 0.919590
v -0.135965 -0.218988 0.925615
v -0.135981 -0.200921 0.931640
v -0.135997 -0.182855 0.937665
v -0.136013 -0.164789 0.943690
v -0.136029 -0.146722 0.949715
v -0.136045 -0.128656 0.955740
v -0.136061 -0.110590 0.961765
v -0.136076 -0.092523 0.967790
v -0.136092 -0.074457 0.973815
v -0.136108 -0.056391 0.979840
v -0.136124 -0.038324 0.985865
v -0.136140 -0.020258 0.991890
v -0.136156 -0.002192 0.997915
v -0.121422 -0.255095 0.913529
v -0.121438 -0.237029 0.919554
v -0.121454 -0.218963 0.925579
v -0.121470 -0.200896 0.931604
v -0.121486 -0.182830 0.937629
v -0.121502 -0.164764 0.943654
v -0.121518 -0.146697 0.949679
v -0.121533 -0.128631 0.955704
v -0.121549 -0.110565 0.961729
v -0.121565 -0.092498 0.967754
v -0.121581 -0.074432 0.973779
v -0.121597 -0.056366 0.979804
v -0.121613 -0.038299 0.985829
v -0.121629 -0.020233 0.991854
v -0.121645 -0.002167 0.997879
v -0.106911 -0.255070 0.913492
v -0.106927 -0.237004 0.919517
v -0.106943 -0.218938 0.925542
v -0.106959 -0.200871 0.931567
v -0.106975 -0.182805 0.937592
v -0.106990 -0.164739 0.943617
v -0.107006 -0.146672 0.949642
v -0.107022 -0.128606 0.955667
v -0.107038 -0.110540 0.961692
v -0.107054 -0.092473 0.967717
v -0.107070 -0.074407 0.973742
v -0.107086 -0.056341 0.979767
v -0.107102 -0.038274 0.985792
v -0.107118 -0.020208 0.991817
v -0.107134 -0.002142 0.997842
v -0.092400 -0.255046 0.913456
v -0.092416 -0.236979 0.919481
v -0.092432 -0.218913 0.925506
v -0.092447 -0.200846 0.931531
v -0.092463 -0.182780 0.937556
v -0.092479 -0.164714 0.943581
v -0.092495 -0.146647 0.949606
v -0.092511 -0.128581 0.955631
v -0.092527 -0.110515 0.961656
v -0.092543 -0.092448 0.967681
v -0.092559 -0.074382 0.973706
v -0.092575 -0.056316 0.979731
v -0.092591 -0.038249 0.985756
v -0.092607 -0.020183 0.991781
v -0.092623 -0.002117 0.997806
v -0.077888 -0.255021 0.913420
v -0.077904 -0.236954 0.919445
v -0.077920 -0.218888 0.925470
v -0.077936 -0.200822 0.931495
v -0.077952 -0.182755 0.937520
v -0.077968 -0.164689 0.943545
v -0.077984 -0.146623 0.949570
v -0.078000 -0.128556 0.955595
v -0.078016 -0.110490 0.961620
v -0.078032 -0.092424 0.967645
v -0.078048 -0.074357 0.973670
v -0.078064 -0.056291 0.979695
v -0.078080 -0.038225 0.985720
v -0.078096 -0.020158 0.991745
v -0.078111 -0.002092 0.997770
v -0.063377 -0.254996 0.913383
v -0.063393 -0.236929 0.919408
v -0.063409 -0.218863 0.925433
v -0.063425 -0.200797 0.931458
v -0.063441 -0.182730 0.937483
v -0.063457 -0.164664 0.943508
v -0.063473 -0.146598 0.949533
v -0.063489 -0.128531 0.955558
v -0.063505 -0.110465 0.961583
v -0.063521 -0.092399 0.967608
v -0.063537 -0.074332 0.973633
v -0.063553 -0.056266 0.979658
v -0.063568 -0.038200 0.985683
v -0.063584 -0.020133 0.991708
v -0.063600 -0.002067 0.997733
v -0.048866 -0.254971 0.913347
v -0.048882 -0.236904 0.919372
v -0.048898 -0.218838 0.925397
v -0.048914 -0.200772 0.931422
v -0.048930 -0.182705 0.937447
v -0.048946 -0.164639 0.943472
v -0.048962 -0.146573 0.949497
v -0.048978 -0.128506 0.955522
v -0.048994 -0.110440 0.961547
v -0.049010 -0.092374 0.967572
v -0.049025 -0.074307 0.973597
v -0.049041 -0.056241 0.979622
v -0.049057 -0.038175 0.985647
v -0.049073 -0.020108 0.991672
v -0.049089 -0.002042 0.997697
v -0.034355 -0.254946 0.913311
v -0.034371 -0.236880 0.919336
v -0.034387 -0.218813 0.925361
v -0.034403 -0.200747 0.931386
v -0.034419 -0.182681 0.937411
v -0.034435 -0.164614 0.943436
v -0.034451 -0.146548 0.949461
v -0.034467 -0.128482 0.955486
v -0.034482 -0.110415 0.961511
v -0.034498 -0.092349 0.967536
v -0.034514 -0.074283 0.973561
v -0.034530 -0.056216 0.979586
v -0.034546 -0.038150 0.985611
v -0.034562 -0.020084 0.991636
v -0.034578 -0.002017 0.997661
v -0.019844 -0.254921 0.913274
v -0.019860 -0.236855 0.919299
v -0.019876 -0.218788 0.925324
v -0.019892 -0.200722 0.931349
v -0.019908 -0.182656 0.937374
v -0.019924 -0.164589 0.943399
v -0.019939 -0.146523 0.949424
v -0.019955 -0.128457 0.955449
v -0.019971 -0.110390 0.961474
v -0.019987 -0.092324 0.967499
v -0.020003 -0.074258 0.973524
v -0.020019 -0.056191 0.979549
v -0.020035 -0.038125 0.985574
v -0.020051 -0.020059 0.991599
v -0.020067 -0.001992 0.997624
v -0.005333 -0.254896 0.913238
v -0.005349 -0.236830 0.919263
v -0.005365 -0.218763 0.925288
v -0.005381 -0.200697 0.931313
v -0.005396 -0.182631 0.937338
v -0.005412 -0.164564 0.943363
v -0.005428 -0.146498 0.949388
v -0.005444 -0.128432 0.955413
v -0.005460 -0.110365 0.961438
v -0.005476 -0.092299 0.967463
v -0.005492 -0.074233 0.973488
v -0.005508 -0.056166 0.979513
v -0.005524 -0.038100 0.985538
v -0.005540 -0.020034 0.991563
v -0.005556 -0.001967 0.997588
v 0.009178 -0.254871 0.913202
v 0.009162 -0.236805 0.919227
v 0.009147 -0.218739 0.925252
v 0.009131 -0.200672 0.931277
v 0.009115 -0.182606 0.937302
v 0.009099 -0.164540 0.943327
v 0.009083 -0.146473 0.949352
v 0.009067 -0.128407 0.955377
v 0.009051 -0.110341 0.961402
v 0.009035 -0.092274 0.967427
v 0.009019 -0.074208 0.973452
v 0.009003 -0.056141 0.979477
v 0.008987 -0.038075 0.985502
v 0.008971 -0.020009 0.991527
v 0.008955 -0.001943 0.997552
v 0.023690 -0.254846 0.913165
v 0.023674 -0.236780 0.919190
v 0.023658 -0.218714 0.925215
v 0.023642 -0.200647 0.931240
v 0.023626 -0.182581 0.937265
v 0.023610 -0.164515 0.943290
v 0.023594 -0.146448 0.949315
v 0.023578 -0.128382 0.955340
v 0.023562 -0.110316 0.961365
v 0.023546 -0.092249 0.967390
v 0.023530 -0.074183 0.973415
v 0.023514 -0.056117 0.979441
v 0.023498 -0.038050 0.985466
v 0.023483 -0.019984 0.991491
v 0.023467 -0.001918 0.997515
v 0.038228 -0.257739 0.921879
v 0.038212 -0.239673 0.927904
v 0.038196 -0.221607 0.933929
v 0.038180 -0.203540 0.939954
v 0.038164 -0.185474 0.945979
v 0.038148 -0.167408 0.952004
v 0.038132 -0.149341 0.958029
v 0.038116 -0.131275 0.964054
v 0.038100 -0.113209 0.970079
v 0.038084 -0.095142 0.976104
v 0.038068 -0.077076 0.982129
v 0.038052 -0.059010 0.988154
v 0.038037 -0.040943 0.994179
v 0.038021 -0.022877 1.000204
v 0.038005 -0.004811 1.006229
v 0.038255 -0.260658 0.930629
v 0.038239 -0.242591 0.936654
v 0.038223 -0.224525 0.942679
v 0.038207 -0.206459 0.948704
v 0.038191 -0.188392 0.954729
v 0.038175 -0.170326 0.960755
v 0.038159 -0.152260 0.966780
v 0.038143 -0.134193 0.972805
v 0.038127 -0.116127 0.978830
v 0.038111 -0.098061 0.984855
v 0.038095 -0.079994 0.990880
v 0.038079 -0.061928 0.996905
v 0.038063 -0.043862 1.002930
v 0.038047 -0.025795 1.008955
v 0.038032 -0.007729 1.014980
v 0.038281 -0.263576 0.939380
v 0.038266 -0.245509 0.945405
v 0.038250 -0.227443 0.951430
v 0.038234 -0.209377 0.957455
v 0.038218 -0.191310 0.963480
v 0.038202 -0.173244 0.969505
v 0.038186 -0.155178 0.975530
v 0.038170 -0.137111 0.981555
v 0.038154 -0.119045 0.987580
v 0.038138 -0.100979 0.993605
v 0.038122 -0.082912 0.999630
v 0.038106 -0.064846 1.005655
v 0.038090 -0.046780 1.011680
v 0.038074 -0.028713 1.017705
v 0.038058 -0.010647 1.023730
v 0.038308 -0.266494 0.948130
v 0.038292 -0.248428 0.954155
v 0.038276 -0.230361 0.960180
v 0.038261 -0.212295 0.966205
v 0.038245 -0.194229 0.972230
v 0.038229 -0.176162 0.978255
v 0.038213 -0.158096 0.984280
v 0.038197 -0.140029 0.990305
v 0.038181 -0.121963 0.996330
v 0.038165 -0.103897 1.002355
v 0.038149 -0.085830 1.008380
v 0.038133 -0.067764 1.014405
v 0.038117 -0.049698 1.020430
v 0.038101 -0.031631 1.026455
v 0.038085 -0.013565 1.032480
v 0.038335 -0.269412 0.956880
v 0.038319 -0.251346 0.962905
v 0.038303 -0.233279 0.968930
v 0.038287 -0.215213 0.974955
v 0.038272 -0.197147 0.980980
v 0.038256 -0.179080 0.987005
v 0.038240 -0.161014 0.993030
v 0.038224 -0.142948 0.999055
v 0.038208 -0.124881 1.005080
v 0.038192 -0.106815 1.011105
v 0.038176 -0.088749 1.017130
v 0.038160 -0.070682 1.023155
v 0.038144 -0.052616 1.029180
v 0.038128 -0.034550 1.035205
v 0.038112 -0.016483 1.041230
v 0.038362 -0.272330 0.965630
v 0.038346 -0.254264 0.971655
v 0.038330 -0.236197 0.977680
v 0.038314 -0.218131 0.983705
v 0.038298 -0.200065 0.989730
v 0.038283 -0.181998 0.995755
v 0.038267 -0.163932 1.001780
v 0.038251 -0.145866 1.007805
v 0.038235 -0.127799 1.013830
v 0.038219 -0.109733 1.019855
v 0.038203 -0.091667 1.025880
v 0.038187 -0.073600 1.031905
v 0.038171 -0.055534 1.037930
v 0.038155 -0.037468 1.043955
v 0.038139 -0.019401 1.049980
v 0.038389 -0.275248 0.974380
v 0.038373 -0.257182 0.980406
v 0.038357 -0.239116 0.986431
v 0.038341 -0.221049 0.992456
v 0.038325 -0.202983 0.998481
v 0.038309 -0.184917 1.004506
v 0.038293 -0.166850 1.010531
v 0.038278 -0.148784 1.016556
v 0.038262 -0.130718 1.022581
v 0.038246 -0.112651 1.028606
v 0.038230 -0.094585 1.034631
v 0.038214 -0.076519 1.040656
v 0.038198 -0.058452 1.046681
v 0.038182 -0.040386 1.052706
v 0.038166 -0.022319 1.058731
v 0.038416 -0.278166 0.983131
v 0.038400 -0.260100 0.989156
v 0.038384 -0.242034 0.995181
v 0.038368 -0.223967 1.001206
v 0.038352 -0.205901 1.007231
v 0.038336 -0.187835 1.013256
v 0.038320 -0.169768 1.019281
v 0.038304 -0.151702 1.025306
v 0.038289 -0.133636 1.031331
v 0.038273 -0.115569 1.037356
v 0.038257 -0.097503 1.043381
v 0.038241 -0.079437 1.049406
v 0.038225 -0.061370 1.055431
v 0.038209 -0.043304 1.061456
v 0.038193 -0.025238 1.067481
v 0.038443 -0.281084 0.991881
v 0.038427 -0.263018 0.997906
v 0.038411 -0.244952 1.003931
v 0.038395 -0.226885 1.009956
v 0.038379 -0.208819 1.015981
v 0.038363 -0.190753 1.022006
v 0.038347 -0.172686 1.028031
v 0.038331 -0.154620 1.034056
v 0.038315 -0.136554 1.040081
v 0.038300 -0.118487 1.046106
v 0.038284 -0.100421 1.052131
v 0.038268 -0.082355 1.058156
v 0.038252 -0.064288 1.064181
v 0.038236 -0.046222 1.070206
v 0.038220 -0.028156 1.076231
v 0.038470 -0.284003 1.000631
v 0.038454 -0.265936 1.006656
v 0.038438 -0.247870 1.012681
v 0.038422 -0.229804 1.018706
v 0.038406 -0.211737 1.024731
v 0.038390 -0.193671 1.030756
v 0.038374 -0.175605 1.036781
v 0.038358 -0.157538 1.042806
v 0.038342 -0.139472 1.048831
v 0.038326 -0.121406 1.054856
v 0.038310 -0.103339 1.060881
v 0.038295 -0.085273 1.066906
v 0.038279 -0.067207 1.072931
v 0.038263 -0.049140 1.078956
v 0.038247 -0.031074 1.084981
v 0.038497 -0.286921 1.009381
v 0.038481 -0.268854 1.015406
v 0.038465 -0.250788 1.021431
v 0.038449 -0.232722 1.027456
v 0.038433 -0.214655 1.033481
v 0.038417 -0.196589 1.039506
v 0.038401 -0.178523 1.045531
v 0.038385 -0.160456 1.051556
v 0.038369 -0.142390 1.057581
v 0.038353 -0.124324 1.063606
v 0.038337 -0.106257 1.069631
v 0.038321 -0.088191 1.075656
v 0.038306 -0.070125 1.081681
v 0.038290 -0.052058 1.087706
v 0.038274 -0.033992 1.093731
v 0.038524 -0.289839 1.018131
v 0.038508 -0.271772 1.024157
v 0.038492 -0.253706 1.030182
v 0.038476 -0.235640 1.036206
v 0.038460 -0.217573 1.042232
v 0.038444 -0.199507 1.048257
v 0.038428 -0.181441 1.054282
v 0.038412 -0.163374 1.060307
v 0.038396 -0.145308 1.066332
v 0.038380 -0.127242 1.072357
v 0.038364 -0.109175 1.078382
v 0.038348 -0.091109 1.084407
v 0.038332 -0.073043 1.090432
v 0.038317 -0.054976 1.096457
v 0.038301 -0.036910 1.102482
v 0.038550 -0.292757 1.026882
v 0.038535 -0.274691 1.032907
v 0.038519 -0.256624 1.038932
v 0.038503 -0.238558 1.044957
v 0.038487 -0.220492 1.050982
v 0.038471 -0.202425 1.057007
v 0.038455 -0.184359 1.063032
v 0.038439 -0.166293 1.069057
v 0.038423 -0.148226 1.075082
v 0.038407 -0.130160 1.081107
v 0.038391 -0.112094 1.087132
v 0.038375 -0.094027 1.093157
v 0.038359 -0.075961 1.099182
v 0.038343 -0.057895 1.105207
v 0.038327 -0.039828 1.111232
v 0.038577 -0.295675 1.035632
v 0.038561 -0.277609 1.041657
v 0.038546 -0.259542 1.047682
v 0.038530 -0.241476 1.053707
v 0.038514 -0.223410 1.059732
v 0.038498 -0.205343 1.065757
v 0.038482 -0.187277 1.071782
v 0.038466 -0.169211 1.077807
v 0.038450 -0.151144 1.083832
v 0.038434 -0.133078 1.089857
v 0.038418 -0.115012 1.095882
v 0.038402 -0.096945 1.101907
v 0.038386 -0.078879 1.107932
v 0.038370 -0.060813 1.113957
v 0.038354 -0.042746 1.119982
v 0.038604 -0.298593 1.044382
v 0.038588 -0.280527 1.050407
v 0.038572 -0.262460 1.056432
v 0.038557 -0.244394 1.062457
v 0.038541 -0.226328 1.068482
v 0.038525 -0.208261 1.074507
v 0.038509 -0.190195 1.080532
v 0.038493 -0.172129 1.086557
v 0.038477 -0.154062 1.092582
v 0.038461 -0.135996 1.098607
v 0.038445 -0.117930 1.104632
v 0.038429 -0.099863 1.110657
v 0.038413 -0.081797 1.116682
v 0.038397 -0.063731 1.122707
v 0.038381 -0.045664 1.128732
v 0.024120 -0.301536 1.053169
v 0.024104 -0.283470 1.059194
v 0.024088 -0.265403 1.065219
v 0.024072 -0.247337 1.071244
v 0.024056 -0.229271 1.077269
v 0.024040 -0.211204 1.083294
v 0.024024 -0.193138 1.089319
v 0.024009 -0.175072 1.095344
v 0.023993 -0.157005 1.101369
v 0.023977 -0.138939 1.107394
v 0.023961 -0.120873 1.113419
v 0.023945 -0.102806 1.119444
v 0.023929 -0.084740 1.125469
v 0.023913 -0.066674 1.131494
v 0.023897 -0.048607 1.137519
v 0.009609 -0.301561 1.053205
v 0.009593 -0.283495 1.059230
v 0.009577 -0.265428 1.065255
v 0.009561 -0.247362 1.071280
v 0.009545 -0.229296 1.077305
v 0.009529 -0.211229 1.083330
v 0.009513 -0.193163 1.089355
v 0.009497 -0.175097 1.095380
v 0.009481 -0.157030 1.101405
v 0.009466 -0.138964 1.107430
v 0.009450 -0.120898 1.113455
v 0.009434 -0.102831 1.119480
v 0.009418 -0.084765 1.125505
v 0.009402 -0.066699 1.131530
v 0.009386 -0.048632 1.137555
v -0.004902 -0.301586 1.053241
v -0.004918 -0.283520 1.059266
v -0.004934 -0.265453 1.065291
v -0.004950 -0.247387 1.071316
v -0.004966 -0.229321 1.077341
v -0.004982 -0.211254 1.083366
v -0.004998 -0.193188 1.089391
v -0.005014 -0.175122 1.095416
v -0.005030 -0.157055 1.101441
v -0.005046 -0.138989 1.107466
v -0.005062 -0.120923 1.113491
v -0.005077 -0.102856 1.119516
v -0.005093 -0.084790 1.125541
v -0.005109 -0.066724 1.131566
v -0.005125 -0.048657 1.137591
v -0.019413 -0.301611 1.053278
v -0.019429 -0.283545 1.059303
v -0.019445 -0.265478 1.065328
v -0.019461 -0.247412 1.071353
v -0.019477 -0.229346 1.077378
v -0.019493 -0.211279 1.083403
v -0.019509 -0.193213 1.089428
v -0.019525 -0.175147 1.095453
v -0.019541 -0.157080 1.101478
v -0.019557 -0.139014 1.107503
v -0.019573 -0.120947 1.113528
v -0.019589 -0.102881 1.119553
v -0.019605 -0.084815 1.125578
v -0.019620 -0.066748 1.131603
v -0.019636 -0.048682 1.137628
v -0.033925 -0.301636 1.053314
v -0.033940 -0.283569 1.059339
v -0.033956 -0.265503 1.065364
v -0.033972 -0.247437 1.071389
v -0.033988 -0.229370 1.077414
v -0.034004 -0.211304 1.083439
v -0.034020 -0.193238 1.089464
v -0.034036 -0.175171 1.095489
v -0.034052 -0.157105 1.101514
v -0.034068 -0.139039 1.107539
v -0.034084 -0.120972 1.113564
v -0.034100 -0.102906 1.119589
v -0.034116 -0.084840 1.125614
v -0.034132 -0.066773 1.131639
v -0.034148 -0.048707 1.137664
v -0.048436 -0.301661 1.053350
v -0.048452 -0.283594 1.059375
v -0.048468 -0.265528 1.065400
v -0.048484 -0.247462 1.071425
v -0.048499 -0.229395 1.077450
v -0.048515 -0.211329 1.083475
v -0.048531 -0.193263 1.089500
v -0.048547 -0.175196 1.095525
v -0.048563 -0.157130 1.101550
v -0.048579 -0.139064 1.107575
v -0.048595 -0.120997 1.113600
v -0.048611 -0.102931 1.119625
v -0.048627 -0.084865 1.125650
v -0.048643 -0.066798 1.131675
v -0.048659 -0.048732 1.137700
v -0.062947 -0.301686 1.053386
v -0.062963 -0.283619 1.059412
v -0.062979 -0.265553 1.065436
v -0.062995 -0.247487 1.071462
v -0.063011 -0.229420 1.077487
v -0.063027 -0.211354 1.083512
v -0.063042 -0.193288 1.089537
v -0.063058 -0.175221 1.095562
v -0.063074 -0.157155 1.101587
v -0.063090 -0.139089 1.107612
v -0.063106 -0.121022 1.113637
v -0.063122 -0.102956 1.119662
v -0.063138 -0.084890 1.125687
v -0.063154 -0.066823 1.131712
v -0.063170 -0.048757 1.137737
v -0.077458 -0.301710 1.053423
v -0.077474 -0.283644 1.059448
v -0.077490 -0.265578 1.065473
v -0.077506 -0.247511 1.071498
v -0.077522 -0.229445 1.077523
v -0.077538 -0.211379 1.083548
v -0.077554 -0.193312 1.089573
v -0.077570 -0.175246 1.095598
v -0.077585 -0.157180 1.101623
v -0.077601 -0.139113 1.107648
v -0.077617 -0.121047 1.113673
v -0.077633 -0.102981 1.119698
v -0.077649 -0.084914 1.125723
v -0.077665 -0.066848 1.131748
v -0.077681 -0.048782 1.137773
v -0.091969 -0.301735 1.053459
v -0.091985 -0.283669 1.059484
v -0.092001 -0.265603 1.065509
v -0.092017 -0.247536 1.071534
v -0.092033 -0.229470 1.077559
v -0.092049 -0.211404 1.083584
v -0.092065 -0.193337 1.089609
v -0.092081 -0.175271 1.095634
v -0.092097 -0.157205 1.101659
v -0.092113 -0.139138 1.107684
v -0.092128 -0.121072 1.113709
v -0.092144 -0.103006 1.119734
v -0.092160 -0.084939 1.125759
v -0.092176 -0.066873 1.131784
v -0.092192 -0.048807 1.137809
v -0.106480 -0.301760 1.053495
v -0.106496 -0.283694 1.059520
v -0.106512 -0.265628 1.065545
v -0.106528 -0.247561 1.071571
v -0.106544 -0.229495 1.077595
v -0.106560 -0.211429 1.083621
v -0.106576 -0.193362 1.089646
v -0.106592 -0.175296 1.095670
v -0.106608 -0.157230 1.101696
v -0.106624 -0.139163 1.107720
v -0.106640 -0.121097 1.113746
v -0.106656 -0.103031 1.119771
v -0.106671 -0.084964 1.125796
v -0.106687 -0.066898 1.131821
v -0.106703 -0.048832 1.137846
v -0.120991 -0.301785 1.053532
v -0.121007 -0.283719 1.059557
v -0.121023 -0.265652 1.065582
v -0.121039 -0.247586 1.071607
v -0.121055 -0.229520 1.077632
v -0.121071 -0.211453 1.083657
v -0.121087 -0.193387 1.089682
v -0.121103 -0.175321 1.095707
v -0.121119 -0.157254 1.101732
v -0.121135 -0.139188 1.107757
v -0.121151 -0.121122 1.113782
v -0.121167 -0.103055 1.119807
v -0.121183 -0.084989 1.125832
v -0.121199 -0.066923 1.131857
v -0.121214 -0.048856 1.137882
v -0.135503 -0.301810 1.053568
v -0.135519 -0.283744 1.059593
v -0.135534 -0.265677 1.065618
v -0.135550 -0.247611 1.071643
v -0.135566 -0.229545 1.077668
v -0.135582 -0.211478 1.083693
v -0.135598 -0.193412 1.089718
v -0.135614 -0.175346 1.095743
v -0.135630 -0.157279 1.101768
v -0.135646 -0.139213 1.107793
v -0.135662 -0.121147 1.113818
v -0.135678 -0.103080 1.119843
v -0.135694 -0.085014 1.125868
v -0.135710 -0.066948 1.131893
v -0.135726 -0.048881 1.137918
v -0.150014 -0.301835 1.053604
v -0.150030 -0.283769 1.059629
v -0.150046 -0.265702 1.065654
v -0.150062 -0.247636 1.071679
v -0.150078 -0.229570 1.077704
v -0.150093 -0.211503 1.083729
v -0.150109 -0.193437 1.089754
v -0.150125 -0.175371 1.095779
v -0.150141 -0.157304 1.101804
v -0.150157 -0.139238 1.107829
v -0.150173 -0.121172 1.113855
v -0.150189 -0.103105 1.119879
v -0.150205 -0.085039 1.125905
v -0.150221 -0.066973 1.131930
v -0.150237 -0.048906 1.137954
v -0.164525 -0.301860 1.053641
v -0.164541 -0.283794 1.059666
v -0.164557 -0.265727 1.065691
v -0.164573 -0.247661 1.071716
v -0.164589 -0.229595 1.077741
v -0.164605 -0.211528 1.083766
v -0.164621 -0.193462 1.089791
v -0.164636 -0.175396 1.095816
v -0.164652 -0.157329 1.101841
v -0.164668 -0.139263 1.107866
v -0.164684 -0.121197 1.113891
v -0.164700 -0.103130 1.119916
v -0.164716 -0.085064 1.125941
v -0.164732 -0.066998 1.131966
v -0.164748 -0.048931 1.137991
v -0.179036 -0.301885 1.053677
v -0.179052 -0.283818 1.059702
v -0.179068 -0.265752 1.065727
v -0.179084 -0.247686 1.071752
v -0.179100 -0.229619 1.077777
v -0.179116 -0.211553 1.083802
v -0.179132 -0.193487 1.089827
v -0.179148 -0.175420 1.095852
v -0.179164 -0.157354 1.101877
v -0.179179 -0.139288 1.107902
v -0.179195 -0.121221 1.113927
v -0.179211 -0.103155 1.119952
v -0.179227 -0.085089 1.125977
v -0.179243 -0.067022 1.132002
v -0.179259 -0.048956 1.138027
v -0.179424 -0.276179 0.916399
v -0.164913 -0.276154 0.916363
v -0.150401 -0.276130 0.916326
v -0.135890 -0.276105 0.916290
v -0.121379 -0.276080 0.916254
v -0.106868 -0.276055 0.916217
v -0.092357 -0.276030 0.916181
v -0.077846 -0.276005 0.916145
v -0.063335 -0.275980 0.916108
v -0.048823 -0.275955 0.916072
v -0.034312 -0.275930 0.916036
v -0.019801 -0.275905 0.916000
v -0.005290 -0.275881 0.915963
v 0.009221 -0.275856 0.915927
v 0.023732 -0.275831 0.915891
v -0.179397 -0.279097 0.925149
v -0.164886 -0.279073 0.925113
v -0.150375 -0.279048 0.925076
v -0.135863 -0.279023 0.925040
v -0.121352 -0.278998 0.925004
v -0.106841 -0.278973 0.924968
v -0.092330 -0.278948 0.924931
v -0.077819 -0.278923 0.924895
v -0.063308 -0.278898 0.924859
v -0.048796 -0.278873 0.924822
v -0.034285 -0.278848 0.924786
v -0.019774 -0.278824 0.924750
v -0.005263 -0.278799 0.924713
v 0.009248 -0.278774 0.924677
v 0.023759 -0.278749 0.924641
v -0.179370 -0.282016 0.933899
v -0.164859 -0.281991 0.933863
v -0.150348 -0.281966 0.933827
v -0.135836 -0.281941 0.933790
v -0.121325 -0.281916 0.933754
v -0.106814 -0.281891 0.933718
v -0.092303 -0.281866 0.933681
v -0.077792 -0.281841 0.933645
v -0.063281 -0.281816 0.933609
v -0.048770 -0.281791 0.933573
v -0.034258 -0.281767 0.933536
v -0.019747 -0.281742 0.933500
v -0.005236 -0.281717 0.933464
v 0.009275 -0.281692 0.933427
v 0.023786 -0.281667 0.933391
v -0.179343 -0.284934 0.942650
v -0.164832 -0.284909 0.942613
v -0.150321 -0.284884 0.942577
v -0.135810 -0.284859 0.942541
v -0.121298 -0.284834 0.942504
v -0.106787 -0.284809 0.942468
v -0.092276 -0.284784 0.942432
v -0.077765 -0.284759 0.942395
v -0.063254 -0.284734 0.942359
v -0.048743 -0.284710 0.942323
v -0.034231 -0.284685 0.942286
v -0.019720 -0.284660 0.942250
v -0.005209 -0.284635 0.942214
v 0.009302 -0.284610 0.942177
v 0.023813 -0.284585 0.942141
v -0.179316 -0.287852 0.951400
v -0.164805 -0.287827 0.951363
v -0.150294 -0.287802 0.951327
v -0.135783 -0.287777 0.951291
v -0.121272 -0.287752 0.951254
v -0.106760 -0.287727 0.951218
v -0.092249 -0.287702 0.951182
v -0.077738 -0.287678 0.951146
v -0.063227 -0.287653 0.951109
v -0.048716 -0.287628 0.951073
v -0.034205 -0.287603 0.951037
v -0.019693 -0.287578 0.951000
v -0.005182 -0.287553 0.950964
v 0.009329 -0.287528 0.950928
v 0.023840 -0.287503 0.950891
v -0.179289 -0.290770 0.960150
v -0.164778 -0.290745 0.960114
v -0.150267 -0.290720 0.960077
v -0.135756 -0.290695 0.960041
v -0.121245 -0.290670 0.960005
v -0.106733 -0.290645 0.959968
v -0.092222 -0.290621 0.959932
v -0.077711 -0.290596 0.959896
v -0.063200 -0.290571 0.959859
v -0.048689 -0.290546 0.959823
v -0.034178 -0.290521 0.959787
v -0.019667 -0.290496 0.959751
v -0.005155 -0.290471 0.959714
v 0.009356 -0.290446 0.959678
v 0.023867 -0.290421 0.959642
v -0.179262 -0.293688 0.968900
v -0.164751 -0.293663 0.968864
v -0.150240 -0.293638 0.968828
v -0.135729 -0.293613 0.968791
v -0.121218 -0.293588 0.968755
v -0.106707 -0.293564 0.968719
v -0.092195 -0.293539 0.968682
v -0.077684 -0.293514 0.968646
v -0.063173 -0.293489 0.968610
v -0.048662 -0.293464 0.968573
v -0.034151 -0.293439 0.968537
v -0.019640 -0.293414 0.968501
v -0.005128 -0.293389 0.968464
v 0.009383 -0.293364 0.968428
v 0.023894 -0.293339 0.968392
v -0.179235 -0.296606 0.977650
v -0.164724 -0.296581 0.977614
v -0.150213 -0.296556 0.977578
v -0.135702 -0.296531 0.977541
v -0.121191 -0.296507 0.977505
v -0.106680 -0.296482 0.977469
v -0.092168 -0.296457 0.977432
v -0.077657 -0.296432 0.977396
v -0.063146 -0.296407 0.977360
v -0.048635 -0.296382 0.977324
v -0.034124 -0.296357 0.977287
v -0.019613 -0.296332 0.977251
v -0.005102 -0.296307 0.977215
v 0.009410 -0.296282 0.977178
v 0.023921 -0.296258 0.977142
v -0.179209 -0.299524 0.986401
v -0.164697 -0.299499 0.986364
v -0.150186 -0.299475 0.986328
v -0.135675 -0.299450 0.986292
v -0.121164 -0.299425 0.986255
v -0.106653 -0.299400 0.986219
v -0.092142 -0.299375 0.986183
v -0.077630 -0.299350 0.986146
v -0.063119 -0.299325 0.986110
v -0.048608 -0.299300 0.986074
v -0.034097 -0.299275 0.986037
v -0.019586 -0.299250 0.986001
v -0.005075 -0.299225 0.985965
v 0.009436 -0.299201 0.985929
v 0.023948 -0.299176 0.985892
v -0.179182 -0.302442 0.995151
v -0.164670 -0.302418 0.995114
v -0.150159 -0.302393 0.995078
v -0.135648 -0.302368 0.995042
v -0.121137 -0.302343 0.995005
v -0.106626 -0.302318 0.994969
v -0.092115 -0.302293 0.994933
v -0.077604 -0.302268 0.994897
v -0.063092 -0.302243 0.994860
v -0.048581 -0.302218 0.994824
v -0.034070 -0.302193 0.994788
v -0.019559 -0.302168 0.994751
v -0.005048 -0.302144 0.994715
v 0.009463 -0.302119 0.994679
v 0.023975 -0.302094 0.994642
v -0.179155 -0.305361 1.003901
v -0.164644 -0.305336 1.003865
v -0.150132 -0.305311 1.003828
v -0.135621 -0.305286 1.003792
v -0.121110 -0.305261 1.003756
v -0.106599 -0.305236 1.003719
v -0.092088 -0.305211 1.003683
v -0.077577 -0.305186 1.003647
v -0.063065 -0.305161 1.003610
v -0.048554 -0.305136 1.003574
v -0.034043 -0.305111 1.003538
v -0.019532 -0.305087 1.003502
v -0.005021 -0.305062 1.003465
v 0.009490 -0.305037 1.003429
v 0.024001 -0.305012 1.003393
v -0.179128 -0.308279 1.012651
v -0.164617 -0.308254 1.012615
v -0.150105 -0.308229 1.012579
v -0.135594 -0.308204 1.012542
v -0.121083 -0.308179 1.012506
v -0.106572 -0.308154 1.012470
v -0.092061 -0.308129 1.012433
v -0.077550 -0.308104 1.012397
v -0.063039 -0.308079 1.012361
v -0.048527 -0.308055 1.012324
v -0.034016 -0.308030 1.012288
v -0.019505 -0.308005 1.012252
v -0.004994 -0.307980 1.012215
v 0.009517 -0.307955 1.012179
v 0.024028 -0.307930 1.012143
v -0.179101 -0.311197 1.021401
v -0.164590 -0.311172 1.021365
v -0.150079 -0.311147 1.021329
v -0.135567 -0.311122 1.021292
v -0.121056 -0.311097 1.021256
v -0.106545 -0.311072 1.021220
v -0.092034 -0.311047 1.021183
v -0.077523 -0.311022 1.021147
v -0.063012 -0.310998 1.021111
v -0.048501 -0.310973 1.021075
v -0.033989 -0.310948 1.021038
v -0.019478 -0.310923 1.021002
v -0.004967 -0.310898 1.020966
v 0.009544 -0.310873 1.020929
v 0.024055 -0.310848 1.020893
v -0.179074 -0.314115 1.030152
v -0.164563 -0.314090 1.030115
v -0.150052 -0.314065 1.030079
v -0.135541 -0.314040 1.030043
v -0.121029 -0.314015 1.030006
v -0.106518 -0.313990 1.029970
v -0.092007 -0.313965 1.029934
v -0.077496 -0.313941 1.029897
v -0.062985 -0.313916 1.029861
v -0.048474 -0.313891 1.029825
v -0.033962 -0.313866 1.029788
v -0.019451 -0.313841 1.029752
v -0.004940 -0.313816 1.029716
v 0.009571 -0.313791 1.029680
v 0.024082 -0.313766 1.029643
v -0.179047 -0.317033 1.038902
v -0.164536 -0.317008 1.038865
v -0.150025 -0.316983 1.038829
v -0.135514 -0.316958 1.038793
v -0.121002 -0.316933 1.038756
v -0.106491 -0.316908 1.038720
v -0.091980 -0.316884 1.038684
v -0.077469 -0.316859 1.038648
v -0.062958 -0.316834 1.038611
v -0.048447 -0.316809 1.038575
v -0.033936 -0.316784 1.038539
v -0.019424 -0.316759 1.038502
v -0.004913 -0.316734 1.038466
v 0.009598 -0.316709 1.038430
v 0.024109 -0.316684 1.038393
v 0.023478 0.013231 1.012291
v 0.008966 0.013206 1.012327
v -0.005545 0.013181 1.012363
v -0.020056 0.013156 1.012400
v -0.034567 0.013131 1.012436
v -0.049078 0.013106 1.012472
v -0.063589 0.013081 1.012509
v -0.078101 0.013056 1.012545
v -0.092612 0.013031 1.012581
v -0.107123 0.013006 1.012618
v -0.121634 0.012982 1.012654
v -0.136145 0.012957 1.012690
v -0.150656 0.012932 1.012726
v -0.165167 0.012907 1.012763
v -0.179679 0.012882 1.012799
v 0.023504 0.010313 1.021041
v 0.008993 0.010288 1.021077
v -0.005518 0.010263 1.021114
v -0.020029 0.010238 1.021150
v -0.034540 0.010213 1.021186
v -0.049051 0.010188 1.021222
v -0.063562 0.010163 1.021259
v -0.078074 0.010138 1.021295
v -0.092585 0.010113 1.021331
v -0.107096 0.010088 1.021368
v -0.121607 0.010063 1.021404
v -0.136118 0.010039 1.021440
v -0.150629 0.010014 1.021477
v -0.165141 0.009989 1.021513
v -0.179652 0.009964 1.021549
v 0.023531 0.007394 1.029791
v 0.009020 0.007370 1.029827
v -0.005491 0.007345 1.029864
v -0.020002 0.007320 1.029900
v -0.034513 0.007295 1.029936
v -0.049024 0.007270 1.029973
v -0.063536 0.007245 1.030009
v -0.078047 0.007220 1.030045
v -0.092558 0.007195 1.030082
v -0.107069 0.007170 1.030118
v -0.121580 0.007145 1.030154
v -0.136091 0.007120 1.030191
v -0.150602 0.007096 1.030227
v -0.165114 0.007071 1.030263
v -0.179625 0.007046 1.030300
v 0.023558 0.004476 1.038541
v 0.009047 0.004451 1.038578
v -0.005464 0.004426 1.038614
v -0.019975 0.004402 1.038650
v -0.034486 0.004377 1.038687
v -0.048997 0.004352 1.038723
v -0.063509 0.004327 1.038759
v -0.078020 0.004302 1.038796
v -0.092531 0.004277 1.038832
v -0.107042 0.004252 1.038868
v -0.121553 0.004227 1.038904
v -0.136064 0.004202 1.038941
v -0.150576 0.004177 1.038977
v -0.165087 0.004153 1.039013
v -0.179598 0.004128 1.039050
v 0.023585 0.001558 1.047292
v 0.009074 0.001533 1.047328
v -0.005437 0.001508 1.047364
v -0.019948 0.001483 1.047400
v -0.034459 0.001459 1.047437
v -0.048971 0.001434 1.047473
v -0.063482 0.001409 1.047509
v -0.077993 0.001384 1.047546
v -0.092504 0.001359 1.047582
v -0.107015 0.001334 1.047618
v -0.121526 0.001309 1.047655
v -0.136038 0.001284 1.047691
v -0.150549 0.001259 1.047727
v -0.165060 0.001234 1.047764
v -0.179571 0.001209 1.047800
v 0.023612 -0.001360 1.056042
v 0.009101 -0.001385 1.056078
v -0.005410 -0.001410 1.056114
v -0.019921 -0.001435 1.056151
v -0.034433 -0.001460 1.056187
v -0.048944 -0.001484 1.056223
v -0.063455 -0.001509 1.056260
v -0.077966 -0.001534 1.056296
v -0.092477 -0.001559 1.056332
v -0.106988 -0.001584 1.056369
v -0.121499 -0.001609 1.056405
v -0.136011 -0.001634 1.056441
v -0.150522 -0.001659 1.056478
v -0.165033 -0.001684 1.056514
v -0.179544 -0.001709 1.056550
v 0.023639 -0.004278 1.064792
v 0.009128 -0.004303 1.064828
v -0.005383 -0.004328 1.064865
v -0.019894 -0.004353 1.064901
v -0.034406 -0.004378 1.064937
v -0.048917 -0.004403 1.064973
v -0.063428 -0.004427 1.065010
v -0.077939 -0.004452 1.065046
v -0.092450 -0.004477 1.065082
v -0.106961 -0.004502 1.065119
v -0.121473 -0.004527 1.065155
v -0.135984 -0.004552 1.065191
v -0.150495 -0.004577 1.065228
v -0.165006 -0.004602 1.065264
v -0.179517 -0.004627 1.065300
v 0.023666 -0.007196 1.073542
v 0.009155 -0.007221 1.073578
v -0.005356 -0.007246 1.073615
v -0.019868 -0.007271 1.073651
v -0.034379 -0.007296 1.073687
v -0.048890 -0.007321 1.073724
v -0.063401 -0.007346 1.073760
v -0.077912 -0.007371 1.073796
v -0.092423 -0.007395 1.073833
v -0.106935 -0.007420 1.073869
v -0.121446 -0.007445 1.073905
v -0.135957 -0.007470 1.073942
v -0.150468 -0.007495 1.073978
v -0.164979 -0.007520 1.074014
v -0.179490 -0.007545 1.074051
v 0.023693 -0.010114 1.082292
v 0.009182 -0.010139 1.082329
v -0.005330 -0.010164 1.082365
v -0.019841 -0.010189 1.082401
v -0.034352 -0.010214 1.082438
v -0.048863 -0.010239 1.082474
v -0.063374 -0.010264 1.082510
v -0.077885 -0.010289 1.082547
v -0.092396 -0.010314 1.082583
v -0.106908 -0.010338 1.082619
v -0.121419 -0.010363 1.082655
v -0.135930 -0.010388 1.082692
v -0.150441 -0.010413 1.082728
v -0.164952 -0.010438 1.082764
v -0.179463 -0.010463 1.082801
v 0.023720 -0.013032 1.091043
v 0.009209 -0.013057 1.091079
v -0.005303 -0.013082 1.091115
v -0.019814 -0.013107 1.091151
v -0.034325 -0.013132 1.091188
v -0.048836 -0.013157 1.091224
v -0.063347 -0.013182 1.091260
v -0.077858 -0.013207 1.091297
v -0.092370 -0.013232 1.091333
v -0.106881 -0.013257 1.091369
v -0.121392 -0.013281 1.091406
v -0.135903 -0.013306 1.091442
v -0.150414 -0.013331 1.091478
v -0.164925 -0.013356 1.091515
v -0.179436 -0.013381 1.091551
v 0.023747 -0.015951 1.099793
v 0.009235 -0.015975 1.099829
v -0.005276 -0.016000 1.099865
v -0.019787 -0.016025 1.099902
v -0.034298 -0.016050 1.099938
v -0.048809 -0.016075 1.099974
v -0.063320 -0.016100 1.100011
v -0.077831 -0.016125 1.100047
v -0.092343 -0.016150 1.100083
v -0.106854 -0.016175 1.100120
v -0.121365 -0.016200 1.100156
v -0.135876 -0.016224 1.100192
v -0.150387 -0.016249 1.100229
v -0.164898 -0.016274 1.100265
v -0.179410 -0.016299 1.100301
v 0.023773 -0.018869 1.108543
v 0.009262 -0.018894 1.108579
v -0.005249 -0.018918 1.108616
v -0.019760 -0.018943 1.108652
v -0.034271 -0.018968 1.108688
v -0.048782 -0.018993 1.108725
v -0.063293 -0.019018 1.108761
v -0.077805 -0.019043 1.108797
v -0.092316 -0.019068 1.108833
v -0.106827 -0.019093 1.108870
v -0.121338 -0.019118 1.108906
v -0.135849 -0.019143 1.108942
v -0.150360 -0.019167 1.108979
v -0.164871 -0.019192 1.109015
v -0.179383 -0.019217 1.109051
v 0.023800 -0.021787 1.117293
v 0.009289 -0.021812 1.117329
v -0.005222 -0.021837 1.117366
v -0.019733 -0.021861 1.117402
v -0.034244 -0.021886 1.117438
v -0.048755 -0.021911 1.117475
v -0.063267 -0.021936 1.117511
v -0.077778 -0.021961 1.117547
v -0.092289 -0.021986 1.117584
v -0.106800 -0.022011 1.117620
v -0.121311 -0.022036 1.117656
v -0.135822 -0.022061 1.117693
v -0.150333 -0.022086 1.117729
v -0.164845 -0.022111 1.117765
v -0.179356 -0.022135 1.117802
v 0.023827 -0.024705 1.126043
v 0.009316 -0.024730 1.126080
v -0.005195 -0.024755 1.126116
v -0.019706 -0.024780 1.126152
v -0.034217 -0.024804 1.126189
v -0.048728 -0.024829 1.126225
v -0.063240 -0.024854 1.126261
v -0.077751 -0.024879 1.126298
v -0.092262 -0.024904 1.126334
v -0.106773 -0.024929 1.126370
v -0.121284 -0.024954 1.126407
v -0.135795 -0.024979 1.126443
v -0.150307 -0.025004 1.126479
v -0.164818 -0.025029 1.126515
v -0.179329 -0.025054 1.126552
v 0.023854 -0.027623 1.134794
v 0.009343 -0.027648 1.134830
v -0.005168 -0.027673 1.134866
v -0.019679 -0.027698 1.134902
v -0.034190 -0.027723 1.134939
v -0.048702 -0.027748 1.134975
v -0.063213 -0.027772 1.135011
v -0.077724 -0.027797 1.135048
v -0.092235 -0.027822 1.135084
v -0.106746 -0.027847 1.135120
v -0.121257 -0.027872 1.135157
v -0.135768 -0.027897 1.135193
v -0.150280 -0.027922 1.135229
v -0.164791 -0.027947 1.135266
v -0.179302 -0.027972 1.135302
s 0
f 190 204 189
f 190 206 205
f 191 207 206
f 192 208 207
f 194 208 193
f 195 209 194
f 195 211 210
f 197 211 196
f 198 212 197
f 198 214 213
f 200 214 199
f 200 216 215
f 202 216 201
f 203 217 202
f 204 220 219
f 205 221 220
f 206 222 221
f 208 222 207
f 209 223 208
f 210 224 209
f 211 225 210
f 211 227 226
f 212 228 227
f 214 228 213
f 215 229 214
f 216 230 215
f 217 231 216
f 218 232 217
f 220 234 219
f 221 235 220
f 222 236 221
f 223 237 222
f 224 238 223
f 224 240 239
f 226 240 225
f 227 241 226
f 228 242 227
f 228 244 243
f 229 245 244
f 230 246 245
f 231 247 246
f 232 248 247
f 234 250 249
f 236 250 235
f 237 251 236
f 237 253 252
f 239 253 238
f 240 254 239
f 241 255 240
f 242 256 241
f 243 257 242
f 244 258 243
f 245 259 244
f 246 260 245
f 247 261 246
f 248 262 247
f 250 264 249
f 251 265 250
f 251 267 266
f 252 268 267
f 253 269 268
f 254 270 269
f 256 270 255
f 256 272 271
f 257 273 272
f 259 273 258
f 260 274 259
f 260 276 275
f 261 277 276
f 262 278 277
f 265 279 264
f 265 281 280
f 266 282 281
f 268 282 267
f 269 283 268
f 269 285 284
f 270 286 285
f 271 287 286
f 273 287 272
f 273 289 288
f 274 290 289
f 275 291 290
f 276 292 291
f 278 292 277
f 279 295 294
f 280 296 295
f 281 297 296
f 282 298 297
f 283 299 298
f 285 299 284
f 286 300 285
f 287 301 286
f 288 302 287
f 289 303 288
f 290 304 289
f 291 305 290
f 292 306 291
f 293 307 292
f 295 309 294
f 296 310 295
f 297 311 296
f 298 312 297
f 299 313 298
f 300 314 299
f 300 316 315
f 301 317 316
f 303 317 302
f 303 319 318
f 304 320 319
f 305 321 320
f 306 322 321
f 308 322 307
f 309 325 324
f 311 325 310
f 311 327 326
f 312 328 327
f 313 329 328
f 315 329 314
f 316 330 315
f 317 331 316
f 318 332 317
f 319 333 318
f 320 334 319
f 321 335 320
f 322 336 321
f 323 337 322
f 325 339 324
f 325 341 340
f 327 341 326
f 328 342 327
f 329 343 328
f 330 344 329
f 331 345 330
f 331 347 346
f 333 347 332
f 334 348 333
f 335 349 334
f 336 350 335
f 336 352 351
f 338 352 337
f 340 354 339
f 341 355 340
f 341 357 356
f 343 357 342
f 344 358 343
f 344 360 359
f 346 360 345
f 347 361 346
f 348 362 347
f 348 364 363
f 349 365 364
f 350 366 365
f 351 367 366
f 352 368 367
f 354 370 369
f 356 370 355
f 357 371 356
f 357 373 372
f 359 373 358
f 359 375 374
f 360 376 375
f 362 376 361
f 362 378 377
f 364 378 363
f 365 379 364
f 366 380 365
f 367 381 366
f 368 382 367
f 369 385 384
f 370 386 385
f 371 387 386
f 372 388 387
f 373 389 388
f 375 389 374
f 376 390 375
f 377 391 376
f 378 392 377
f 379 393 378
f 379 395 394
f 381 395 380
f 381 397 396
f 382 398 397
f 385 399 384
f 386 400 385
f 387 401 386
f 388 402 387
f 389 403 388
f 389 405 404
f 391 405 390
f 392 406 391
f 393 407 392
f 393 409 408
f 394 410 409
f 395 411 410
f 396 412 411
f 397 413 412
f 1 189 23
f 24 190 189
f 26 190 25
f 27 191 26
f 28 192 27
f 28 194 193
f 29 195 194
f 31 195 30
f 32 196 31
f 33 197 32
f 33 199 198
f 34 200 199
f 35 201 200
f 36 202 201
f 37 203 202
f 2 203 38
f 39 218 203
f 40 233 218
f 41 248 233
f 42 263 248
f 263 44 278
f 44 293 278
f 45 308 293
f 46 323 308
f 47 338 323
f 48 353 338
f 49 368 353
f 50 383 368
f 51 398 383
f 398 53 413
f 53 54 413
f 413 55 412
f 411 55 56
f 411 57 410
f 410 58 409
f 409 59 408
f 407 59 60
f 406 60 61
f 406 62 405
f 404 62 63
f 403 63 64
f 402 64 65
f 401 65 66
f 400 66 67
f 399 67 68
f 9 68 3
f 384 9 10
f 369 10 11
f 12 369 11
f 339 12 13
f 324 13 14
f 15 324 14
f 294 15 16
f 17 294 16
f 264 17 18
f 19 264 18
f 20 249 19
f 219 20 21
f 22 219 21
f 189 22 23
f 415 429 414
f 416 430 415
f 416 432 431
f 418 432 417
f 419 433 418
f 419 435 434
f 421 435 420
f 422 436 421
f 423 437 422
f 423 439 438
f 425 439 424
f 426 440 425
f 426 442 441
f 428 442 427
f 430 444 429
f 431 445 430
f 431 447 446
f 432 448 447
f 433 449 448
f 435 449 434
f 436 450 435
f 436 452 451
f 438 452 437
f 439 453 438
f 440 454 439
f 441 455 440
f 442 456 441
f 443 457 442
f 444 460 459
f 445 461 460
f 447 461 446
f 448 462 447
f 449 463 448
f 450 464 449
f 450 466 465
f 452 466 451
f 453 467 452
f 453 469 468
f 455 469 454
f 456 470 455
f 457 471 456
f 457 473 472
f 460 474 459
f 461 475 460
f 462 476 461
f 463 477 462
f 464 478 463
f 464 480 479
f 465 481 480
f 467 481 466
f 468 482 467
f 469 483 468
f 469 485 484
f 470 486 485
f 471 487 486
f 473 487 472
f 475 489 474
f 476 490 475
f 476 492 491
f 477 493 492
f 478 494 493
f 480 494 479
f 481 495 480
f 482 496 481
f 483 497 482
f 484 498 483
f 485 499 484
f 486 500 485
f 487 501 486
f 487 503 502
f 489 505 504
f 490 506 505
f 492 506 491
f 493 507 492
f 494 508 493
f 495 509 494
f 496 510 495
f 496 512 511
f 497 513 512
f 498 514 513
f 499 515 514
f 500 516 515
f 502 516 501
f 503 517 502
f 505 519 504
f 506 520 505
f 506 522 521
f 507 523 522
f 508 524 523
f 510 524 509
f 511 525 510
f 512 526 511
f 513 527 512
f 514 528 513
f 515 529 514
f 516 530 515
f 516 532 531
f 518 532 517
f 520 534 519
f 521 535 520
f 522 536 521
f 523 537 522
f 524 538 523
f 525 539 524
f 526 540 525
f 526 542 541
f 528 542 527
f 529 543 528
f 530 544 529
f 530 546 545
f 532 546 531
f 533 547 532
f 534 550 549
f 536 550 535
f 536 552 551
f 537 553 552
f 539 553 538
f 539 555 554
f 540 556 555
f 542 556 541
f 543 557 542
f 543 559 558
f 544 560 559
f 546 560 545
f 547 561 546
f 547 563 562
f 550 564 549
f 551 565 550
f 552 566 551
f 552 568 567
f 554 568 553
f 555 569 554
f 555 571 570
f 557 571 556
f 558 572 557
f 559 573 558
f 560 574 559
f 561 575 560
f 562 576 561
f 563 577 562
f 564 580 579
f 566 580 565
f 567 581 566
f 568 582 567
f 568 584 583
f 570 584 569
f 571 585 570
f 572 586 571
f 573 587 572
f 574 588 573
f 575 589 574
f 575 591 590
f 576 592 591
f 578 592 577
f 579 595 594
f 581 595 580
f 582 596 581
f 582 598 597
f 583 599 598
f 585 599 584
f 586 600 585
f 587 601 586
f 588 602 587
f 588 604 603
f 589 605 604
f 591 605 590
f 592 606 591
f 593 607 592
f 595 609 594
f 595 611 610
f 597 611 596
f 598 612 597
f 599 613 598
f 600 614 599
f 601 615 600
f 601 617 616
f 602 618 617
f 604 618 603
f 605 619 604
f 606 620 605
f 607 621 606
f 608 622 607
f 609 625 624
f 611 625 610
f 612 626 611
f 613 627 612
f 613 629 628
f 615 629 614
f 616 630 615
f 616 632 631
f 618 632 617
f 619 633 618
f 620 634 619
f 621 635 620
f 622 636 621
f 623 637 622
f 68 83 3
f 67 414 68
f 67 416 415
f 65 416 66
f 65 418 417
f 63 418 64
f 63 420 419
f 61 420 62
f 60 421 61
f 59 422 60
f 59 424 423
f 57 424 58
f 56 425 57
f 55 426 56
f 54 427 55
f 54 84 428
f 84 443 428
f 85 458 443
f 458 87 473
f 87 488 473
f 488 89 503
f 89 518 503
f 90 533 518
f 91 548 533
f 548 93 563
f 93 578 563
f 578 95 593
f 95 608 593
f 608 97 623
f 97 638 623
f 98 99 638
f 638 100 637
f 637 101 636
f 635 101 102
f 635 103 634
f 634 104 633
f 633 105 632
f 631 105 106
f 631 107 630
f 630 108 629
f 628 108 109
f 628 110 627
f 627 111 626
f 626 112 625
f 624 112 113
f 69 113 7
f 609 69 70
f 594 70 71
f 579 71 72
f 73 579 72
f 549 73 74
f 75 549 74
f 519 75 76
f 504 76 77
f 489 77 78
f 474 78 79
f 80 474 79
f 81 459 80
f 429 81 82
f 83 429 82
f 639 655 654
f 641 655 640
f 642 656 641
f 643 657 642
f 643 659 658
f 644 660 659
f 646 660 645
f 647 661 646
f 648 662 647
f 649 663 648
f 650 664 649
f 651 665 650
f 651 667 666
f 653 667 652
f 655 669 654
f 655 671 670
f 656 672 671
f 657 673 672
f 658 674 673
f 660 674 659
f 660 676 675
f 662 676 661
f 662 678 677
f 664 678 663
f 665 679 664
f 666 680 665
f 667 681 666
f 668 682 667
f 669 685 684
f 670 686 685
f 672 686 671
f 672 688 687
f 674 688 673
f 675 689 674
f 675 691 690
f 677 691 676
f 677 693 692
f 679 693 678
f 680 694 679
f 681 695 680
f 682 696 681
f 682 698 697
f 685 699 684
f 686 700 685
f 687 701 686
f 688 702 687
f 689 703 688
f 689 705 704
f 691 705 690
f 692 706 691
f 693 707 692
f 694 708 693
f 695 709 694
f 695 711 710
f 696 712 711
f 698 712 697
f 700 714 699
f 700 716 715
f 701 717 716
f 702 718 717
f 703 719 718
f 705 719 704
f 706 720 705
f 707 721 706
f 708 722 707
f 709 723 708
f 710 724 709
f 711 725 710
f 712 726 711
f 712 728 727
f 714 730 729
f 715 731 730
f 717 731 716
f 718 732 717
f 719 733 718
f 720 734 719
f 721 735 720
f 722 736 721
f 722 738 737
f 724 738 723
f 724 740 739
f 725 741 740
f 727 741 726
f 728 742 727
f 730 744 729
f 731 745 730
f 731 747 746
f 732 748 747
f 734 748 733
f 735 749 734
f 736 750 735
f 737 751 736
f 738 752 737
f 739 753 738
f 740 754 739
f 741 755 740
f 742 756 741
f 743 757 742
f 745 759 744
f 746 760 745
f 747 761 746
f 748 762 747
f 749 763 748
f 750 764 749
f 751 765 750
f 751 767 766
f 753 767 752
f 754 768 753
f 755 769 754
f 755 771 770
f 756 772 771
f 758 772 757
f 759 775 774
f 761 775 760
f 761 777 776
f 762 778 777
f 764 778 763
f 765 779 764
f 765 781 780
f 767 781 766
f 768 782 767
f 768 784 783
f 769 785 784
f 771 785 770
f 771 787 786
f 772 788 787
f 775 789 774
f 776 790 775
f 777 791 776
f 778 792 777
f 778 794 793
f 780 794 779
f 781 795 780
f 782 796 781
f 782 798 797
f 784 798 783
f 785 799 784
f 786 800 785
f 787 801 786
f 788 802 787
f 789 805 804
f 791 805 790
f 792 806 791
f 793 807 792
f 794 808 793
f 795 809 794
f 796 810 795
f 797 811 796
f 798 812 797
f 799 813 798
f 800 814 799
f 800 816 815
f 801 817 816
f 802 818 817
f 804 820 819
f 805 821 820
f 806 822 821
f 807 823 822
f 809 823 808
f 810 824 809
f 811 825 810
f 812 826 811
f 813 827 812
f 813 829 828
f 815 829 814
f 816 830 815
f 817 831 816
f 818 832 817
f 820 834 819
f 821 835 820
f 822 836 821
f 823 837 822
f 824 838 823
f 824 840 839
f 825 841 840
f 826 842 841
f 828 842 827
f 829 843 828
f 830 844 829
f 831 845 830
f 831 847 846
f 833 847 832
f 835 849 834
f 836 850 835
f 837 851 836
f 838 852 837
f 839 853 838
f 840 854 839
f 841 855 840
f 842 856 841
f 843 857 842
f 844 858 843
f 845 859 844
f 846 860 845
f 847 861 846
f 848 862 847
f 113 128 7
f 112 639 113
f 111 640 112
f 110 641 111
f 110 643 642
f 108 643 109
f 108 645 644
f 106 645 107
f 105 646 106
f 105 648 647
f 104 649 648
f 102 649 103
f 101 650 102
f 101 652 651
f 100 653 652
f 99 129 653
f 129 668 653
f 130 683 668
f 683 132 698
f 132 713 698
f 713 134 728
f 134 743 728
f 135 758 743
f 136 773 758
f 773 138 788
f 138 803 788
f 139 818 803
f 140 833 818
f 833 142 848
f 142 863 848
f 143 144 863
f 863 145 862
f 862 146 861
f 860 146 147
f 860 148 859
f 858 148 149
f 857 149 150
f 856 150 151
f 855 151 152
f 855 153 854
f 853 153 154
f 853 155 852
f 852 156 851
f 851 157 850
f 849 157 158
f 114 158 5
f 834 114 115
f 819 115 116
f 804 116 117
f 118 804 117
f 774 118 119
f 120 774 119
f 744 120 121
f 122 744 121
f 714 122 123
f 699 123 124
f 125 699 124
f 669 125 126
f 654 126 127
f 128 654 127
f 865 879 864
f 866 880 865
f 866 882 881
f 868 882 867
f 869 883 868
f 869 885 884
f 871 885 870
f 872 886 871
f 873 887 872
f 873 889 888
f 875 889 874
f 876 890 875
f 876 892 891
f 878 892 877
f 880 894 879
f 881 895 880
f 881 897 896
f 882 898 897
f 883 899 898
f 885 899 884
f 886 900 885
f 886 902 901
f 888 902 887
f 889 903 888
f 890 904 889
f 891 905 890
f 892 906 891
f 893 907 892
f 894 910 909
f 895 911 910
f 897 911 896
f 898 912 897
f 899 913 898
f 900 914 899
f 900 916 915
f 902 916 901
f 903 917 902
f 903 919 918
f 905 919 904
f 906 920 905
f 907 921 906
f 907 923 922
f 910 924 909
f 911 925 910
f 912 926 911
f 913 927 912
f 914 928 913
f 914 930 929
f 915 931 930
f 917 931 916
f 918 932 917
f 919 933 918
f 919 935 934
f 920 936 935
f 921 937 936
f 923 937 922
f 925 939 924
f 926 940 925
f 926 942 941
f 927 943 942
f 928 944 943
f 930 944 929
f 931 945 930
f 932 946 931
f 933 947 932
f 934 948 933
f 935 949 934
f 936 950 935
f 937 951 936
f 937 953 952
f 939 955 954
f 940 956 955
f 942 956 941
f 943 957 942
f 944 958 943
f 945 959 944
f 946 960 945
f 946 962 961
f 947 963 962
f 948 964 963
f 949 965 964
f 950 966 965
f 952 966 951
f 953 967 952
f 955 969 954
f 956 970 955
f 956 972 971
f 957 973 972
f 958 974 973
f 960 974 959
f 961 975 960
f 962 976 961
f 963 977 962
f 964 978 963
f 965 979 964
f 966 980 965
f 966 982 981
f 968 982 967
f 970 984 969
f 971 985 970
f 972 986 971
f 973 987 972
f 974 988 973
f 975 989 974
f 976 990 975
f 976 992 991
f 978 992 977
f 979 993 978
f 980 994 979
f 980 996 995
f 982 996 981
f 983 997 982
f 984 1000 999
f 986 1000 985
f 986 1002 1001
f 987 1003 1002
f 989 1003 988
f 989 1005 1004
f 990 1006 1005
f 992 1006 991
f 993 1007 992
f 993 1009 1008
f 994 1010 1009
f 996 1010 995
f 997 1011 996
f 997 1013 1012
f 1000 1014 999
f 1001 1015 1000
f 1002 1016 1001
f 1002 1018 1017
f 1004 1018 1003
f 1005 1019 1004
f 1005 1021 1020
f 1007 1021 1006
f 1008 1022 1007
f 1009 1023 1008
f 1010 1024 1009
f 1011 1025 1010
f 1012 1026 1011
f 1013 1027 1012
f 1014 1030 1029
f 1016 1030 1015
f 1017 1031 1016
f 1018 1032 1017
f 1018 1034 1033
f 1020 1034 1019
f 1021 1035 1020
f 1022 1036 1021
f 1023 1037 1022
f 1024 1038 1023
f 1025 1039 1024
f 1025 1041 1040
f 1026 1042 1041
f 1028 1042 1027
f 1029 1045 1044
f 1031 1045 1030
f 1032 1046 1031
f 1032 1048 1047
f 1033 1049 1048
f 1035 1049 1034
f 1036 1050 1035
f 1037 1051 1036
f 1038 1052 1037
f 1038 1054 1053
f 1039 1055 1054
f 1041 1055 1040
f 1042 1056 1041
f 1043 1057 1042
f 1045 1059 1044
f 1045 1061 1060
f 1047 1061 1046
f 1048 1062 1047
f 1049 1063 1048
f 1050 1064 1049
f 1051 1065 1050
f 1051 1067 1066
f 1052 1068 1067
f 1054 1068 1053
f 1055 1069 1054
f 1056 1070 1055
f 1057 1071 1056
f 1058 1072 1057
f 1059 1075 1074
f 1061 1075 1060
f 1062 1076 1061
f 1063 1077 1062
f 1063 1079 1078
f 1065 1079 1064
f 1066 1080 1065
f 1066 1082 1081
f 1068 1082 1067
f 1069 1083 1068
f 1070 1084 1069
f 1071 1085 1070
f 1072 1086 1071
f 1073 1087 1072
f 158 173 5
f 157 864 158
f 156 865 157
f 156 867 866
f 155 868 867
f 153 868 154
f 153 870 869
f 151 870 152
f 150 871 151
f 149 872 150
f 149 874 873
f 147 874 148
f 146 875 147
f 146 877 876
f 145 878 877
f 144 174 878
f 174 893 878
f 175 908 893
f 908 177 923
f 177 938 923
f 938 179 953
f 179 968 953
f 180 983 968
f 181 998 983
f 998 183 1013
f 183 1028 1013
f 1028 185 1043
f 185 1058 1043
f 1058 187 1073
f 187 1088 1073
f 188 38 1088
f 1087 38 37
f 1087 36 1086
f 1086 35 1085
f 1085 34 1084
f 1084 33 1083
f 1082 33 32
f 1081 32 31
f 1081 30 1080
f 1080 29 1079
f 1078 29 28
f 1078 27 1077
f 1077 26 1076
f 1075 26 25
f 1075 24 1074
f 159 24 1
f 1059 159 160
f 1044 160 161
f 1029 161 162
f 163 1029 162
f 999 163 164
f 165 999 164
f 969 165 166
f 954 166 167
f 939 167 168
f 924 168 169
f 170 924 169
f 171 909 170
f 879 171 172
f 173 879 172
f 1090 1104 1089
f 1091 1105 1090
f 1092 1106 1091
f 1092 1108 1107
f 1094 1108 1093
f 1094 1110 1109
f 1095 1111 1110
f 1097 1111 1096
f 1098 1112 1097
f 1099 1113 1098
f 1099 1115 1114
f 1100 1116 1115
f 1101 1117 1116
f 1102 1118 1117
f 1105 1119 1104
f 1106 1120 1105
f 1107 1121 1106
f 1108 1122 1107
f 1109 1123 1108
f 1110 1124 1109
f 1110 1126 1125
f 1112 1126 1111
f 1113 1127 1112
f 1114 1128 1113
f 1115 1129 1114
f 1115 1131 1130
f 1117 1131 1116
f 1118 1132 1117
f 1119 1135 1134
f 1120 1136 1135
f 1121 1137 1136
f 1122 1138 1137
f 1123 1139 1138
f 1125 1139 1124
f 1125 1141 1140
f 1127 1141 1126
f 1127 1143 1142
f 1129 1143 1128
f 1130 1144 1129
f 1131 1145 1130
f 1132 1146 1131
f 1133 1147 1132
f 1135 1149 1134
f 1136 1150 1135
f 1137 1151 1136
f 1137 1153 1152
f 1139 1153 1138
f 1140 1154 1139
f 1141 1155 1140
f 1142 1156 1141
f 1143 1157 1142
f 1144 1158 1143
f 1145 1159 1144
f 1145 1161 1160
f 1146 1162 1161
f 1148 1162 1147
f 1150 1164 1149
f 1150 1166 1165
f 1151 1167 1166
f 1153 1167 1152
f 1154 1168 1153
f 1154 1170 1169
f 1155 1171 1170
f 1156 1172 1171
f 1158 1172 1157
f 1158 1174 1173
f 1159 1175 1174
f 1161 1175 1160
f 1161 1177 1176
f 1162 1178 1177
f 1164 1180 1179
f 1165 1181 1180
f 1167 1181 1166
f 1168 1182 1167
f 1169 1183 1168
f 1170 1184 1169
f 1171 1185 1170
f 1172 1186 1171
f 1172 1188 1187
f 1174 1188 1173
f 1174 1190 1189
f 1176 1190 1175
f 1177 1191 1176
f 1178 1192 1177
f 1179 1195 1194
f 1181 1195 1180
f 1182 1196 1181
f 1182 1198 1197
f 1184 1198 1183
f 1185 1199 1184
f 1186 1200 1185
f 1186 1202 1201
f 1187 1203 1202
f 1188 1204 1203
f 1190 1204 1189
f 1190 1206 1205
f 1191 1207 1206
f 1193 1207 1192
f 1195 1209 1194
f 1196 1210 1195
f 1197 1211 1196
f 1198 1212 1197
f 1199 1213 1198
f 1200 1214 1199
f 1201 1215 1200
f 1202 1216 1201
f 1203 1217 1202
f 1204 1218 1203
f 1205 1219 1204
f 1205 1221 1220
f 1207 1221 1206
f 1208 1222 1207
f 1209 1225 1224
f 1211 1225 1210
f 1212 1226 1211
f 1212 1228 1227
f 1214 1228 1213
f 1214 1230 1229
f 1216 1230 1215
f 1217 1231 1216
f 1218 1232 1217
f 1218 1234 1233
f 1219 1235 1234
f 1221 1235 1220
f 1221 1237 1236
f 1222 1238 1237
f 1224 1240 1239
f 1226 1240 1225
f 1227 1241 1226
f 1227 1243 1242
f 1228 1244 1243
f 1230 1244 1229
f 1231 1245 1230
f 1232 1246 1231
f 1232 1248 1247
f 1234 1248 1233
f 1235 1249 1234
f 1236 1250 1235
f 1237 1251 1236
f 1238 1252 1237
f 1240 1254 1239
f 1240 1256 1255
f 1242 1256 1241
f 1243 1257 1242
f 1244 1258 1243
f 1245 1259 1244
f 1245 1261 1260
f 1247 1261 1246
f 1248 1262 1247
f 1249 1263 1248
f 1250 1264 1249
f 1251 1265 1250
f 1252 1266 1251
f 1253 1267 1252
f 1255 1269 1254
f 1256 1270 1255
f 1256 1272 1271
f 1258 1272 1257
f 1259 1273 1258
f 1259 1275 1274
f 1261 1275 1260
f 1262 1276 1261
f 1263 1277 1262
f 1263 1279 1278
f 1265 1279 1264
f 1266 1280 1265
f 1266 1282 1281
f 1267 1283 1282
f 1270 1284 1269
f 1270 1286 1285
f 1271 1287 1286
f 1272 1288 1287
f 1274 1288 1273
f 1275 1289 1274
f 1276 1290 1275
f 1277 1291 1276
f 1277 1293 1292
f 1279 1293 1278
f 1280 1294 1279
f 1281 1295 1280
f 1282 1296 1281
f 1283 1297 1282
f 1285 1299 1284
f 1285 1301 1300
f 1287 1301 1286
f 1288 1302 1287
f 1289 1303 1288
f 1290 1304 1289
f 1290 1306 1305
f 1292 1306 1291
f 1292 1308 1307
f 1294 1308 1293
f 1295 1309 1294
f 1296 1310 1295
f 1296 1312 1311
f 1298 1312 1297
f 83 9 3
f 83 1090 1089
f 81 1090 82
f 80 1091 81
f 79 1092 80
f 78 1093 79
f 78 1095 1094
f 77 1096 1095
f 75 1096 76
f 74 1097 75
f 74 1099 1098
f 72 1099 73
f 71 1100 72
f 70 1101 71
f 69 1102 70
f 69 128 1103
f 1103 127 1118
f 1118 126 1133
f 126 1148 1133
f 125 1163 1148
f 1163 123 1178
f 123 1193 1178
f 122 1208 1193
f 1208 120 1223
f 1223 119 1238
f 119 1253 1238
f 118 1268 1253
f 1268 116 1283
f 116 1298 1283
f 1298 114 1313
f 114 173 1313
f 1313 172 1312
f 1312 171 1311
f 1310 171 170
f 1309 170 169
f 1309 168 1308
f 1307 168 167
f 1307 166 1306
f 1306 165 1305
f 1305 164 1304
f 1303 164 163
f 1303 162 1302
f 1302 161 1301
f 1301 160 1300
f 1300 159 1299
f 23 159 1
f 22 1299 23
f 1269 22 21
f 1254 21 20
f 1239 20 19
f 18 1239 19
f 1209 18 17
f 1194 17 16
f 15 1194 16
f 14 1179 15
f 1149 14 13
f 12 1149 13
f 11 1134 12
f 1104 11 10
f 9 1104 10
f 1315 1329 1314
f 1316 1330 1315
f 1317 1331 1316
f 1317 1333 1332
f 1319 1333 1318
f 1319 1335 1334
f 1320 1336 1335
f 1322 1336 1321
f 1323 1337 1322
f 1324 1338 1323
f 1324 1340 1339
f 1325 1341 1340
f 1326 1342 1341
f 1327 1343 1342
f 1330 1344 1329
f 1331 1345 1330
f 1332 1346 1331
f 1333 1347 1332
f 1334 1348 1333
f 1335 1349 1334
f 1335 1351 1350
f 1337 1351 1336
f 1338 1352 1337
f 1339 1353 1338
f 1340 1354 1339
f 1340 1356 1355
f 1342 1356 1341
f 1343 1357 1342
f 1344 1360 1359
f 1345 1361 1360
f 1346 1362 1361
f 1347 1363 1362
f 1348 1364 1363
f 1350 1364 1349
f 1350 1366 1365
f 1352 1366 1351
f 1352 1368 1367
f 1354 1368 1353
f 1355 1369 1354
f 1356 1370 1355
f 1357 1371 1356
f 1358 1372 1357
f 1360 1374 1359
f 1361 1375 1360
f 1362 1376 1361
f 1362 1378 1377
f 1364 1378 1363
f 1365 1379 1364
f 1366 1380 1365
f 1367 1381 1366
f 1368 1382 1367
f 1369 1383 1368
f 1370 1384 1369
f 1370 1386 1385
f 1371 1387 1386
f 1373 1387 1372
f 1375 1389 1374
f 1375 1391 1390
f 1376 1392 1391
f 1378 1392 1377
f 1379 1393 1378
f 1379 1395 1394
f 1380 1396 1395
f 1381 1397 1396
f 1383 1397 1382
f 1383 1399 1398
f 1384 1400 1399
f 1386 1400 1385
f 1386 1402 1401
f 1387 1403 1402
f 1389 1405 1404
f 1390 1406 1405
f 1392 1406 1391
f 1393 1407 1392
f 1394 1408 1393
f 1395 1409 1394
f 1396 1410 1395
f 1397 1411 1396
f 1397 1413 1412
f 1399 1413 1398
f 1399 1415 1414
f 1401 1415 1400
f 1402 1416 1401
f 1403 1417 1402
f 1404 1420 1419
f 1406 1420 1405
f 1407 1421 1406
f 1407 1423 1422
f 1409 1423 1408
f 1410 1424 1409
f 1411 1425 1410
f 1411 1427 1426
f 1412 1428 1427
f 1413 1429 1428
f 1415 1429 1414
f 1415 1431 1430
f 1416 1432 1431
f 1418 1432 1417
f 1420 1434 1419
f 1421 1435 1420
f 1422 1436 1421
f 1423 1437 1422
f 1424 1438 1423
f 1425 1439 1424
f 1426 1440 1425
f 1427 1441 1426
f 1428 1442 1427
f 1429 1443 1428
f 1430 1444 1429
f 1430 1446 1445
f 1432 1446 1431
f 1433 1447 1432
f 1434 1450 1449
f 1436 1450 1435
f 1437 1451 1436
f 1437 1453 1452
f 1439 1453 1438
f 1439 1455 1454
f 1441 1455 1440
f 1442 1456 1441
f 1443 1457 1442
f 1443 1459 1458
f 1444 1460 1459
f 1446 1460 1445
f 1446 1462 1461
f 1447 1463 1462
f 1449 1465 1464
f 1451 1465 1450
f 1452 1466 1451
f 1452 1468 1467
f 1453 1469 1468
f 1455 1469 1454
f 1456 1470 1455
f 1457 1471 1456
f 1457 1473 1472
f 1459 1473 1458
f 1460 1474 1459
f 1461 1475 1460
f 1462 1476 1461
f 1463 1477 1462
f 1465 1479 1464
f 1465 1481 1480
f 1467 1481 1466
f 1468 1482 1467
f 1469 1483 1468
f 1470 1484 1469
f 1470 1486 1485
f 1472 1486 1471
f 1473 1487 1472
f 1474 1488 1473
f 1475 1489 1474
f 1476 1490 1475
f 1477 1491 1476
f 1478 1492 1477
f 1480 1494 1479
f 1481 1495 1480
f 1481 1497 1496
f 1483 1497 1482
f 1484 1498 1483
f 1484 1500 1499
f 1486 1500 1485
f 1487 1501 1486
f 1488 1502 1487
f 1488 1504 1503
f 1490 1504 1489
f 1491 1505 1490
f 1491 1507 1506
f 1492 1508 1507
f 1495 1509 1494
f 1495 1511 1510
f 1496 1512 1511
f 1497 1513 1512
f 1499 1513 1498
f 1500 1514 1499
f 1501 1515 1500
f 1502 1516 1501
f 1502 1518 1517
f 1504 1518 1503
f 1505 1519 1504
f 1506 1520 1505
f 1507 1521 1506
f 1508 1522 1507
f 1510 1524 1509
f 1510 1526 1525
f 1512 1526 1511
f 1513 1527 1512
f 1514 1528 1513
f 1515 1529 1514
f 1515 1531 1530
f 1517 1531 1516
f 1517 1533 1532
f 1519 1533 1518
f 1520 1534 1519
f 1521 1535 1520
f 1521 1537 1536
f 1523 1537 1522
f 98 129 8
f 97 1314 98
f 97 1316 1315
f 95 1316 96
f 94 1317 95
f 93 1318 94
f 93 1320 1319
f 92 1321 1320
f 90 1321 91
f 89 1322 90
f 89 1324 1323
f 87 1324 88
f 86 1325 87
f 85 1326 86
f 85 1328 1327
f 84 53 1328
f 1328 52 1343
f 52 1358 1343
f 1358 50 1373
f 50 1388 1373
f 1388 48 1403
f 48 1418 1403
f 47 1433 1418
f 1433 45 1448
f 1448 44 1463
f 44 1478 1463
f 43 1493 1478
f 1493 41 1508
f 1508 40 1523
f 40 1538 1523
f 39 188 1538
f 1538 187 1537
f 1536 187 186
f 1536 185 1535
f 1534 185 184
f 1534 183 1533
f 1532 183 182
f 1531 182 181
f 1530 181 180
f 1530 179 1529
f 1528 179 178
f 1528 177 1527
f 1527 176 1526
f 1526 175 1525
f 1525 174 1524
f 143 174 6
f 142 1524 143
f 1494 142 141
f 1479 141 140
f 1464 140 139
f 138 1464 139
f 1434 138 137
f 1419 137 136
f 135 1419 136
f 1389 135 134
f 1374 134 133
f 132 1374 133
f 131 1359 132
f 1329 131 130
f 1314 130 129
f 190 205 204
f 190 191 206
f 191 192 207
f 192 193 208
f 194 209 208
f 195 210 209
f 195 196 211
f 197 212 211
f 198 213 212
f 198 199 214
f 200 215 214
f 200 201 216
f 202 217 216
f 203 218 217
f 204 205 220
f 205 206 221
f 206 207 222
f 208 223 222
f 209 224 223
f 210 225 224
f 211 226 225
f 211 212 227
f 212 213 228
f 214 229 228
f 215 230 229
f 216 231 230
f 217 232 231
f 218 233 232
f 220 235 234
f 221 236 235
f 222 237 236
f 223 238 237
f 224 239 238
f 224 225 240
f 226 241 240
f 227 242 241
f 228 243 242
f 228 229 244
f 229 230 245
f 230 231 246
f 231 232 247
f 232 233 248
f 234 235 250
f 236 251 250
f 237 252 251
f 237 238 253
f 239 254 253
f 240 255 254
f 241 256 255
f 242 257 256
f 243 258 257
f 244 259 258
f 245 260 259
f 246 261 260
f 247 262 261
f 248 263 262
f 250 265 264
f 251 266 265
f 251 252 267
f 252 253 268
f 253 254 269
f 254 255 270
f 256 271 270
f 256 257 272
f 257 258 273
f 259 274 273
f 260 275 274
f 260 261 276
f 261 262 277
f 262 263 278
f 265 280 279
f 265 266 281
f 266 267 282
f 268 283 282
f 269 284 283
f 269 270 285
f 270 271 286
f 271 272 287
f 273 288 287
f 273 274 289
f 274 275 290
f 275 276 291
f 276 277 292
f 278 293 292
f 279 280 295
f 280 281 296
f 281 282 297
f 282 283 298
f 283 284 299
f 285 300 299
f 286 301 300
f 287 302 301
f 288 303 302
f 289 304 303
f 290 305 304
f 291 306 305
f 292 307 306
f 293 308 307
f 295 310 309
f 296 311 310
f 297 312 311
f 298 313 312
f 299 314 313
f 300 315 314
f 300 301 316
f 301 302 317
f 303 318 317
f 303 304 319
f 304 305 320
f 305 306 321
f 306 307 322
f 308 323 322
f 309 310 325
f 311 326 325
f 311 312 327
f 312 313 328
f 313 314 329
f 315 330 329
f 316 331 330
f 317 332 331
f 318 333 332
f 319 334 333
f 320 335 334
f 321 336 335
f 322 337 336
f 323 338 337
f 325 340 339
f 325 326 341
f 327 342 341
f 328 343 342
f 329 344 343
f 330 345 344
f 331 346 345
f 331 332 347
f 333 348 347
f 334 349 348
f 335 350 349
f 336 351 350
f 336 337 352
f 338 353 352
f 340 355 354
f 341 356 355
f 341 342 357
f 343 358 357
f 344 359 358
f 344 345 360
f 346 361 360
f 347 362 361
f 348 363 362
f 348 349 364
f 349 350 365
f 350 351 366
f 351 352 367
f 352 353 368
f 354 355 370
f 356 371 370
f 357 372 371
f 357 358 373
f 359 374 373
f 359 360 375
f 360 361 376
f 362 377 376
f 362 363 378
f 364 379 378
f 365 380 379
f 366 381 380
f 367 382 381
f 368 383 382
f 369 370 385
f 370 371 386
f 371 372 387
f 372 373 388
f 373 374 389
f 375 390 389
f 376 391 390
f 377 392 391
f 378 393 392
f 379 394 393
f 379 380 395
f 381 396 395
f 381 382 397
f 382 383 398
f 385 400 399
f 386 401 400
f 387 402 401
f 388 403 402
f 389 404 403
f 389 390 405
f 391 406 405
f 392 407 406
f 393 408 407
f 393 394 409
f 394 395 410
f 395 396 411
f 396 397 412
f 397 398 413
f 1 24 189
f 24 25 190
f 26 191 190
f 27 192 191
f 28 193 192
f 28 29 194
f 29 30 195
f 31 196 195
f 32 197 196
f 33 198 197
f 33 34 199
f 34 35 200
f 35 36 201
f 36 37 202
f 37 38 203
f 2 39 203
f 39 40 218
f 40 41 233
f 41 42 248
f 42 43 263
f 263 43 44
f 44 45 293
f 45 46 308
f 46 47 323
f 47 48 338
f 48 49 353
f 49 50 368
f 50 51 383
f 51 52 398
f 398 52 53
f 53 4 54
f 413 54 55
f 411 412 55
f 411 56 57
f 410 57 58
f 409 58 59
f 407 408 59
f 406 407 60
f 406 61 62
f 404 405 62
f 403 404 63
f 402 403 64
f 401 402 65
f 400 401 66
f 399 400 67
f 9 399 68
f 384 399 9
f 369 384 10
f 12 354 369
f 339 354 12
f 324 339 13
f 15 309 324
f 294 309 15
f 17 279 294
f 264 279 17
f 19 249 264
f 20 234 249
f 219 234 20
f 22 204 219
f 189 204 22
f 415 430 429
f 416 431 430
f 416 417 432
f 418 433 432
f 419 434 433
f 419 420 435
f 421 436 435
f 422 437 436
f 423 438 437
f 423 424 439
f 425 440 439
f 426 441 440
f 426 427 442
f 428 443 442
f 430 445 444
f 431 446 445
f 431 432 447
f 432 433 448
f 433 434 449
f 435 450 449
f 436 451 450
f 436 437 452
f 438 453 452
f 439 454 453
f 440 455 454
f 441 456 455
f 442 457 456
f 443 458 457
f 444 445 460
f 445 446 461
f 447 462 461
f 448 463 462
f 449 464 463
f 450 465 464
f 450 451 466
f 452 467 466
f 453 468 467
f 453 454 469
f 455 470 469
f 456 471 470
f 457 472 471
f 457 458 473
f 460 475 474
f 461 476 475
f 462 477 476
f 463 478 477
f 464 479 478
f 464 465 480
f 465 466 481
f 467 482 481
f 468 483 482
f 469 484 483
f 469 470 485
f 470 471 486
f 471 472 487
f 473 488 487
f 475 490 489
f 476 491 490
f 476 477 492
f 477 478 493
f 478 479 494
f 480 495 494
f 481 496 495
f 482 497 496
f 483 498 497
f 484 499 498
f 485 500 499
f 486 501 500
f 487 502 501
f 487 488 503
f 489 490 505
f 490 491 506
f 492 507 506
f 493 508 507
f 494 509 508
f 495 510 509
f 496 511 510
f 496 497 512
f 497 498 513
f 498 499 514
f 499 500 515
f 500 501 516
f 502 517 516
f 503 518 517
f 505 520 519
f 506 521 520
f 506 507 522
f 507 508 523
f 508 509 524
f 510 525 524
f 511 526 525
f 512 527 526
f 513 528 527
f 514 529 528
f 515 530 529
f 516 531 530
f 516 517 532
f 518 533 532
f 520 535 534
f 521 536 535
f 522 537 536
f 523 538 537
f 524 539 538
f 525 540 539
f 526 541 540
f 526 527 542
f 528 543 542
f 529 544 543
f 530 545 544
f 530 531 546
f 532 547 546
f 533 548 547
f 534 535 550
f 536 551 550
f 536 537 552
f 537 538 553
f 539 554 553
f 539 540 555
f 540 541 556
f 542 557 556
f 543 558 557
f 543 544 559
f 544 545 560
f 546 561 560
f 547 562 561
f 547 548 563
f 550 565 564
f 551 566 565
f 552 567 566
f 552 553 568
f 554 569 568
f 555 570 569
f 555 556 571
f 557 572 571
f 558 573 572
f 559 574 573
f 560 575 574
f 561 576 575
f 562 577 576
f 563 578 577
f 564 565 580
f 566 581 580
f 567 582 581
f 568 583 582
f 568 569 584
f 570 585 584
f 571 586 585
f 572 587 586
f 573 588 587
f 574 589 588
f 575 590 589
f 575 576 591
f 576 577 592
f 578 593 592
f 579 580 595
f 581 596 595
f 582 597 596
f 582 583 598
f 583 584 599
f 585 600 599
f 586 601 600
f 587 602 601
f 588 603 602
f 588 589 604
f 589 590 605
f 591 606 605
f 592 607 606
f 593 608 607
f 595 610 609
f 595 596 611
f 597 612 611
f 598 613 612
f 599 614 613
f 600 615 614
f 601 616 615
f 601 602 617
f 602 603 618
f 604 619 618
f 605 620 619
f 606 621 620
f 607 622 621
f 608 623 622
f 609 610 625
f 611 626 625
f 612 627 626
f 613 628 627
f 613 614 629
f 615 630 629
f 616 631 630
f 616 617 632
f 618 633 632
f 619 634 633
f 620 635 634
f 621 636 635
f 622 637 636
f 623 638 637
f 68 414 83
f 67 415 414
f 67 66 416
f 65 417 416
f 65 64 418
f 63 419 418
f 63 62 420
f 61 421 420
f 60 422 421
f 59 423 422
f 59 58 424
f 57 425 424
f 56 426 425
f 55 427 426
f 54 428 427
f 54 4 84
f 84 85 443
f 85 86 458
f 458 86 87
f 87 88 488
f 488 88 89
f 89 90 518
f 90 91 533
f 91 92 548
f 548 92 93
f 93 94 578
f 578 94 95
f 95 96 608
f 608 96 97
f 97 98 638
f 98 8 99
f 638 99 100
f 637 100 101
f 635 636 101
f 635 102 103
f 634 103 104
f 633 104 105
f 631 632 105
f 631 106 107
f 630 107 108
f 628 629 108
f 628 109 110
f 627 110 111
f 626 111 112
f 624 625 112
f 69 624 113
f 609 624 69
f 594 609 70
f 579 594 71
f 73 564 579
f 549 564 73
f 75 534 549
f 519 534 75
f 504 519 76
f 489 504 77
f 474 489 78
f 80 459 474
f 81 444 459
f 429 444 81
f 83 414 429
f 639 640 655
f 641 656 655
f 642 657 656
f 643 658 657
f 643 644 659
f 644 645 660
f 646 661 660
f 647 662 661
f 648 663 662
f 649 664 663
f 650 665 664
f 651 666 665
f 651 652 667
f 653 668 667
f 655 670 669
f 655 656 671
f 656 657 672
f 657 658 673
f 658 659 674
f 660 675 674
f 660 661 676
f 662 677 676
f 662 663 678
f 664 679 678
f 665 680 679
f 666 681 680
f 667 682 681
f 668 683 682
f 669 670 685
f 670 671 686
f 672 687 686
f 672 673 688
f 674 689 688
f 675 690 689
f 675 676 691
f 677 692 691
f 677 678 693
f 679 694 693
f 680 695 694
f 681 696 695
f 682 697 696
f 682 683 698
f 685 700 699
f 686 701 700
f 687 702 701
f 688 703 702
f 689 704 703
f 689 690 705
f 691 706 705
f 692 707 706
f 693 708 707
f 694 709 708
f 695 710 709
f 695 696 711
f 696 697 712
f 698 713 712
f 700 715 714
f 700 701 716
f 701 702 717
f 702 703 718
f 703 704 719
f 705 720 719
f 706 721 720
f 707 722 721
f 708 723 722
f 709 724 723
f 710 725 724
f 711 726 725
f 712 727 726
f 712 713 728
f 714 715 730
f 715 716 731
f 717 732 731
f 718 733 732
f 719 734 733
f 720 735 734
f 721 736 735
f 722 737 736
f 722 723 738
f 724 739 738
f 724 725 740
f 725 726 741
f 727 742 741
f 728 743 742
f 730 745 744
f 731 746 745
f 731 732 747
f 732 733 748
f 734 749 748
f 735 750 749
f 736 751 750
f 737 752 751
f 738 753 752
f 739 754 753
f 740 755 754
f 741 756 755
f 742 757 756
f 743 758 757
f 745 760 759
f 746 761 760
f 747 762 761
f 748 763 762
f 749 764 763
f 750 765 764
f 751 766 765
f 751 752 767
f 753 768 767
f 754 769 768
f 755 770 769
f 755 756 771
f 756 757 772
f 758 773 772
f 759 760 775
f 761 776 775
f 761 762 777
f 762 763 778
f 764 779 778
f 765 780 779
f 765 766 781
f 767 782 781
f 768 783 782
f 768 769 784
f 769 770 785
f 771 786 785
f 771 772 787
f 772 773 788
f 775 790 789
f 776 791 790
f 777 792 791
f 778 793 792
f 778 779 794
f 780 795 794
f 781 796 795
f 782 797 796
f 782 783 798
f 784 799 798
f 785 800 799
f 786 801 800
f 787 802 801
f 788 803 802
f 789 790 805
f 791 806 805
f 792 807 806
f 793 808 807
f 794 809 808
f 795 810 809
f 796 811 810
f 797 812 811
f 798 813 812
f 799 814 813
f 800 815 814
f 800 801 816
f 801 802 817
f 802 803 818
f 804 805 820
f 805 806 821
f 806 807 822
f 807 808 823
f 809 824 823
f 810 825 824
f 811 826 825
f 812 827 826
f 813 828 827
f 813 814 829
f 815 830 829
f 816 831 830
f 817 832 831
f 818 833 832
f 820 835 834
f 821 836 835
f 822 837 836
f 823 838 837
f 824 839 838
f 824 825 840
f 825 826 841
f 826 827 842
f 828 843 842
f 829 844 843
f 830 845 844
f 831 846 845
f 831 832 847
f 833 848 847
f 835 850 849
f 836 851 850
f 837 852 851
f 838 853 852
f 839 854 853
f 840 855 854
f 841 856 855
f 842 857 856
f 843 858 857
f 844 859 858
f 845 860 859
f 846 861 860
f 847 862 861
f 848 863 862
f 113 639 128
f 112 640 639
f 111 641 640
f 110 642 641
f 110 109 643
f 108 644 643
f 108 107 645
f 106 646 645
f 105 647 646
f 105 104 648
f 104 103 649
f 102 650 649
f 101 651 650
f 101 100 652
f 100 99 653
f 99 8 129
f 129 130 668
f 130 131 683
f 683 131 132
f 132 133 713
f 713 133 134
f 134 135 743
f 135 136 758
f 136 137 773
f 773 137 138
f 138 139 803
f 139 140 818
f 140 141 833
f 833 141 142
f 142 143 863
f 143 6 144
f 863 144 145
f 862 145 146
f 860 861 146
f 860 147 148
f 858 859 148
f 857 858 149
f 856 857 150
f 855 856 151
f 855 152 153
f 853 854 153
f 853 154 155
f 852 155 156
f 851 156 157
f 849 850 157
f 114 849 158
f 834 849 114
f 819 834 115
f 804 819 116
f 118 789 804
f 774 789 118
f 120 759 774
f 744 759 120
f 122 729 744
f 714 729 122
f 699 714 123
f 125 684 699
f 669 684 125
f 654 669 126
f 128 639 654
f 865 880 879
f 866 881 880
f 866 867 882
f 868 883 882
f 869 884 883
f 869 870 885
f 871 886 885
f 872 887 886
f 873 888 887
f 873 874 889
f 875 890 889
f 876 891 890
f 876 877 892
f 878 893 892
f 880 895 894
f 881 896 895
f 881 882 897
f 882 883 898
f 883 884 899
f 885 900 899
f 886 901 900
f 886 887 902
f 888 903 902
f 889 904 903
f 890 905 904
f 891 906 905
f 892 907 906
f 893 908 907
f 894 895 910
f 895 896 911
f 897 912 911
f 898 913 912
f 899 914 913
f 900 915 914
f 900 901 916
f 902 917 916
f 903 918 917
f 903 904 919
f 905 920 919
f 906 921 920
f 907 922 921
f 907 908 923
f 910 925 924
f 911 926 925
f 912 927 926
f 913 928 927
f 914 929 928
f 914 915 930
f 915 916 931
f 917 932 931
f 918 933 932
f 919 934 933
f 919 920 935
f 920 921 936
f 921 922 937
f 923 938 937
f 925 940 939
f 926 941 940
f 926 927 942
f 927 928 943
f 928 929 944
f 930 945 944
f 931 946 945
f 932 947 946
f 933 948 947
f 934 949 948
f 935 950 949
f 936 951 950
f 937 952 951
f 937 938 953
f 939 940 955
f 940 941 956
f 942 957 956
f 943 958 957
f 944 959 958
f 945 960 959
f 946 961 960
f 946 947 962
f 947 948 963
f 948 949 964
f 949 950 965
f 950 951 966
f 952 967 966
f 953 968 967
f 955 970 969
f 956 971 970
f 956 957 972
f 957 958 973
f 958 959 974
f 960 975 974
f 961 976 975
f 962 977 976
f 963 978 977
f 964 979 978
f 965 980 979
f 966 981 980
f 966 967 982
f 968 983 982
f 970 985 984
f 971 986 985
f 972 987 986
f 973 988 987
f 974 989 988
f 975 990 989
f 976 991 990
f 976 977 992
f 978 993 992
f 979 994 993
f 980 995 994
f 980 981 996
f 982 997 996
f 983 998 997
f 984 985 1000
f 986 1001 1000
f 986 987 1002
f 987 988 1003
f 989 1004 1003
f 989 990 1005
f 990 991 1006
f 992 1007 1006
f 993 1008 1007
f 993 994 1009
f 994 995 1010
f 996 1011 1010
f 997 1012 1011
f 997 998 1013
f 1000 1015 1014
f 1001 1016 1015
f 1002 1017 1016
f 1002 1003 1018
f 1004 1019 1018
f 1005 1020 1019
f 1005 1006 1021
f 1007 1022 1021
f 1008 1023 1022
f 1009 1024 1023
f 1010 1025 1024
f 1011 1026 1025
f 1012 1027 1026
f 1013 1028 1027
f 1014 1015 1030
f 1016 1031 1030
f 1017 1032 1031
f 1018 1033 1032
f 1018 1019 1034
f 1020 1035 1034
f 1021 1036 1035
f 1022 1037 1036
f 1023 1038 1037
f 1024 1039 1038
f 1025 1040 1039
f 1025 1026 1041
f 1026 1027 1042
f 1028 1043 1042
f 1029 1030 1045
f 1031 1046 1045
f 1032 1047 1046
f 1032 1033 1048
f 1033 1034 1049
f 1035 1050 1049
f 1036 1051 1050
f 1037 1052 1051
f 1038 1053 1052
f 1038 1039 1054
f 1039 1040 1055
f 1041 1056 1055
f 1042 1057 1056
f 1043 1058 1057
f 1045 1060 1059
f 1045 1046 1061
f 1047 1062 1061
f 1048 1063 1062
f 1049 1064 1063
f 1050 1065 1064
f 1051 1066 1065
f 1051 1052 1067
f 1052 1053 1068
f 1054 1069 1068
f 1055 1070 1069
f 1056 1071 1070
f 1057 1072 1071
f 1058 1073 1072
f 1059 1060 1075
f 1061 1076 1075
f 1062 1077 1076
f 1063 1078 1077
f 1063 1064 1079
f 1065 1080 1079
f 1066 1081 1080
f 1066 1067 1082
f 1068 1083 1082
f 1069 1084 1083
f 1070 1085 1084
f 1071 1086 1085
f 1072 1087 1086
f 1073 1088 1087
f 158 864 173
f 157 865 864
f 156 866 865
f 156 155 867
f 155 154 868
f 153 869 868
f 153 152 870
f 151 871 870
f 150 872 871
f 149 873 872
f 149 148 874
f 147 875 874
f 146 876 875
f 146 145 877
f 145 144 878
f 144 6 174
f 174 175 893
f 175 176 908
f 908 176 177
f 177 178 938
f 938 178 179
f 179 180 968
f 180 181 983
f 181 182 998
f 998 182 183
f 183 184 1028
f 1028 184 185
f 185 186 1058
f 1058 186 187
f 187 188 1088
f 188 2 38
f 1087 1088 38
f 1087 37 36
f 1086 36 35
f 1085 35 34
f 1084 34 33
f 1082 1083 33
f 1081 1082 32
f 1081 31 30
f 1080 30 29
f 1078 1079 29
f 1078 28 27
f 1077 27 26
f 1075 1076 26
f 1075 25 24
f 159 1074 24
f 1059 1074 159
f 1044 1059 160
f 1029 1044 161
f 163 1014 1029
f 999 1014 163
f 165 984 999
f 969 984 165
f 954 969 166
f 939 954 167
f 924 939 168
f 170 909 924
f 171 894 909
f 879 894 171
f 173 864 879
f 1090 1105 1104
f 1091 1106 1105
f 1092 1107 1106
f 1092 1093 1108
f 1094 1109 1108
f 1094 1095 1110
f 1095 1096 1111
f 1097 1112 1111
f 1098 1113 1112
f 1099 1114 1113
f 1099 1100 1115
f 1100 1101 1116
f 1101 1102 1117
f 1102 1103 1118
f 1105 1120 1119
f 1106 1121 1120
f 1107 1122 1121
f 1108 1123 1122
f 1109 1124 1123
f 1110 1125 1124
f 1110 1111 1126
f 1112 1127 1126
f 1113 1128 1127
f 1114 1129 1128
f 1115 1130 1129
f 1115 1116 1131
f 1117 1132 1131
f 1118 1133 1132
f 1119 1120 1135
f 1120 1121 1136
f 1121 1122 1137
f 1122 1123 1138
f 1123 1124 1139
f 1125 1140 1139
f 1125 1126 1141
f 1127 1142 1141
f 1127 1128 1143
f 1129 1144 1143
f 1130 1145 1144
f 1131 1146 1145
f 1132 1147 1146
f 1133 1148 1147
f 1135 1150 1149
f 1136 1151 1150
f 1137 1152 1151
f 1137 1138 1153
f 1139 1154 1153
f 1140 1155 1154
f 1141 1156 1155
f 1142 1157 1156
f 1143 1158 1157
f 1144 1159 1158
f 1145 1160 1159
f 1145 1146 1161
f 1146 1147 1162
f 1148 1163 1162
f 1150 1165 1164
f 1150 1151 1166
f 1151 1152 1167
f 1153 1168 1167
f 1154 1169 1168
f 1154 1155 1170
f 1155 1156 1171
f 1156 1157 1172
f 1158 1173 1172
f 1158 1159 1174
f 1159 1160 1175
f 1161 1176 1175
f 1161 1162 1177
f 1162 1163 1178
f 1164 1165 1180
f 1165 1166 1181
f 1167 1182 1181
f 1168 1183 1182
f 1169 1184 1183
f 1170 1185 1184
f 1171 1186 1185
f 1172 1187 1186
f 1172 1173 1188
f 1174 1189 1188
f 1174 1175 1190
f 1176 1191 1190
f 1177 1192 1191
f 1178 1193 1192
f 1179 1180 1195
f 1181 1196 1195
f 1182 1197 1196
f 1182 1183 1198
f 1184 1199 1198
f 1185 1200 1199
f 1186 1201 1200
f 1186 1187 1202
f 1187 1188 1203
f 1188 1189 1204
f 1190 1205 1204
f 1190 1191 1206
f 1191 1192 1207
f 1193 1208 1207
f 1195 1210 1209
f 1196 1211 1210
f 1197 1212 1211
f 1198 1213 1212
f 1199 1214 1213
f 1200 1215 1214
f 1201 1216 1215
f 1202 1217 1216
f 1203 1218 1217
f 1204 1219 1218
f 1205 1220 1219
f 1205 1206 1221
f 1207 1222 1221
f 1208 1223 1222
f 1209 1210 1225
f 1211 1226 1225
f 1212 1227 1226
f 1212 1213 1228
f 1214 1229 1228
f 1214 1215 1230
f 1216 1231 1230
f 1217 1232 1231
f 1218 1233 1232
f 1218 1219 1234
f 1219 1220 1235
f 1221 1236 1235
f 1221 1222 1237
f 1222 1223 1238
f 1224 1225 1240
f 1226 1241 1240
f 1227 1242 1241
f 1227 1228 1243
f 1228 1229 1244
f 1230 1245 1244
f 1231 1246 1245
f 1232 1247 1246
f 1232 1233 1248
f 1234 1249 1248
f 1235 1250 1249
f 1236 1251 1250
f 1237 1252 1251
f 1238 1253 1252
f 1240 1255 1254
f 1240 1241 1256
f 1242 1257 1256
f 1243 1258 1257
f 1244 1259 1258
f 1245 1260 1259
f 1245 1246 1261
f 1247 1262 1261
f 1248 1263 1262
f 1249 1264 1263
f 1250 1265 1264
f 1251 1266 1265
f 1252 1267 1266
f 1253 1268 1267
f 1255 1270 1269
f 1256 1271 1270
f 1256 1257 1272
f 1258 1273 1272
f 1259 1274 1273
f 1259 1260 1275
f 1261 1276 1275
f 1262 1277 1276
f 1263 1278 1277
f 1263 1264 1279
f 1265 1280 1279
f 1266 1281 1280
f 1266 1267 1282
f 1267 1268 1283
f 1270 1285 1284
f 1270 1271 1286
f 1271 1272 1287
f 1272 1273 1288
f 1274 1289 1288
f 1275 1290 1289
f 1276 1291 1290
f 1277 1292 1291
f 1277 1278 1293
f 1279 1294 1293
f 1280 1295 1294
f 1281 1296 1295
f 1282 1297 1296
f 1283 1298 1297
f 1285 1300 1299
f 1285 1286 1301
f 1287 1302 1301
f 1288 1303 1302
f 1289 1304 1303
f 1290 1305 1304
f 1290 1291 1306
f 1292 1307 1306
f 1292 1293 1308
f 1294 1309 1308
f 1295 1310 1309
f 1296 1311 1310
f 1296 1297 1312
f 1298 1313 1312
f 83 1089 9
f 83 82 1090
f 81 1091 1090
f 80 1092 1091
f 79 1093 1092
f 78 1094 1093
f 78 77 1095
f 77 76 1096
f 75 1097 1096
f 74 1098 1097
f 74 73 1099
f 72 1100 1099
f 71 1101 1100
f 70 1102 1101
f 69 1103 1102
f 69 7 128
f 1103 128 127
f 1118 127 126
f 126 125 1148
f 125 124 1163
f 1163 124 123
f 123 122 1193
f 122 121 1208
f 1208 121 120
f 1223 120 119
f 119 118 1253
f 118 117 1268
f 1268 117 116
f 116 115 1298
f 1298 115 114
f 114 5 173
f 1313 173 172
f 1312 172 171
f 1310 1311 171
f 1309 1310 170
f 1309 169 168
f 1307 1308 168
f 1307 167 166
f 1306 166 165
f 1305 165 164
f 1303 1304 164
f 1303 163 162
f 1302 162 161
f 1301 161 160
f 1300 160 159
f 23 1299 159
f 22 1284 1299
f 1269 1284 22
f 1254 1269 21
f 1239 1254 20
f 18 1224 1239
f 1209 1224 18
f 1194 1209 17
f 15 1179 1194
f 14 1164 1179
f 1149 1164 14
f 12 1134 1149
f 11 1119 1134
f 1104 1119 11
f 9 1089 1104
f 1315 1330 1329
f 1316 1331 1330
f 1317 1332 1331
f 1317 1318 1333
f 1319 1334 1333
f 1319 1320 1335
f 1320 1321 1336
f 1322 1337 1336
f 1323 1338 1337
f 1324 1339 1338
f 1324 1325 1340
f 1325 1326 1341
f 1326 1327 1342
f 1327 1328 1343
f 1330 1345 1344
f 1331 1346 1345
f 1332 1347 1346
f 1333 1348 1347
f 1334 1349 1348
f 1335 1350 1349
f 1335 1336 1351
f 1337 1352 1351
f 1338 1353 1352
f 1339 1354 1353
f 1340 1355 1354
f 1340 1341 1356
f 1342 1357 1356
f 1343 1358 1357
f 1344 1345 1360
f 1345 1346 1361
f 1346 1347 1362
f 1347 1348 1363
f 1348 1349 1364
f 1350 1365 1364
f 1350 1351 1366
f 1352 1367 1366
f 1352 1353 1368
f 1354 1369 1368
f 1355 1370 1369
f 1356 1371 1370
f 1357 1372 1371
f 1358 1373 1372
f 1360 1375 1374
f 1361 1376 1375
f 1362 1377 1376
f 1362 1363 1378
f 1364 1379 1378
f 1365 1380 1379
f 1366 1381 1380
f 1367 1382 1381
f 1368 1383 1382
f 1369 1384 1383
f 1370 1385 1384
f 1370 1371 1386
f 1371 1372 1387
f 1373 1388 1387
f 1375 1390 1389
f 1375 1376 1391
f 1376 1377 1392
f 1378 1393 1392
f 1379 1394 1393
f 1379 1380 1395
f 1380 1381 1396
f 1381 1382 1397
f 1383 1398 1397
f 1383 1384 1399
f 1384 1385 1400
f 1386 1401 1400
f 1386 1387 1402
f 1387 1388 1403
f 1389 1390 1405
f 1390 1391 1406
f 1392 1407 1406
f 1393 1408 1407
f 1394 1409 1408
f 1395 1410 1409
f 1396 1411 1410
f 1397 1412 1411
f 1397 1398 1413
f 1399 1414 1413
f 1399 1400 1415
f 1401 1416 1415
f 1402 1417 1416
f 1403 1418 1417
f 1404 1405 1420
f 1406 1421 1420
f 1407 1422 1421
f 1407 1408 1423
f 1409 1424 1423
f 1410 1425 1424
f 1411 1426 1425
f 1411 1412 1427
f 1412 1413 1428
f 1413 1414 1429
f 1415 1430 1429
f 1415 1416 1431
f 1416 1417 1432
f 1418 1433 1432
f 1420 1435 1434
f 1421 1436 1435
f 1422 1437 1436
f 1423 1438 1437
f 1424 1439 1438
f 1425 1440 1439
f 1426 1441 1440
f 1427 1442 1441
f 1428 1443 1442
f 1429 1444 1443
f 1430 1445 1444
f 1430 1431 1446
f 1432 1447 1446
f 1433 1448 1447
f 1434 1435 1450
f 1436 1451 1450
f 1437 1452 1451
f 1437 1438 1453
f 1439 1454 1453
f 1439 1440 1455
f 1441 1456 1455
f 1442 1457 1456
f 1443 1458 1457
f 1443 1444 1459
f 1444 1445 1460
f 1446 1461 1460
f 1446 1447 1462
f 1447 1448 1463
f 1449 1450 1465
f 1451 1466 1465
f 1452 1467 1466
f 1452 1453 1468
f 1453 1454 1469
f 1455 1470 1469
f 1456 1471 1470
f 1457 1472 1471
f 1457 1458 1473
f 1459 1474 1473
f 1460 1475 1474
f 1461 1476 1475
f 1462 1477 1476
f 1463 1478 1477
f 1465 1480 1479
f 1465 1466 1481
f 1467 1482 1481
f 1468 1483 1482
f 1469 1484 1483
f 1470 1485 1484
f 1470 1471 1486
f 1472 1487 1486
f 1473 1488 1487
f 1474 1489 1488
f 1475 1490 1489
f 1476 1491 1490
f 1477 1492 1491
f 1478 1493 1492
f 1480 1495 1494
f 1481 1496 1495
f 1481 1482 1497
f 1483 1498 1497
f 1484 1499 1498
f 1484 1485 1500
f 1486 1501 1500
f 1487 1502 1501
f 1488 1503 1502
f 1488 1489 1504
f 1490 1505 1504
f 1491 1506 1505
f 1491 1492 1507
f 1492 1493 1508
f 1495 1510 1509
f 1495 1496 1511
f 1496 1497 1512
f 1497 1498 1513
f 1499 1514 1513
f 1500 1515 1514
f 1501 1516 1515
f 1502 1517 1516
f 1502 1503 1518
f 1504 1519 1518
f 1505 1520 1519
f 1506 1521 1520
f 1507 1522 1521
f 1508 1523 1522
f 1510 1525 1524
f 1510 1511 1526
f 1512 1527 1526
f 1513 1528 1527
f 1514 1529 1528
f 1515 1530 1529
f 1515 1516 1531
f 1517 1532 1531
f 1517 1518 1533
f 1519 1534 1533
f 1520 1535 1534
f 1521 1536 1535
f 1521 1522 1537
f 1523 1538 1537
f 98 1314 129
f 97 1315 1314
f 97 96 1316
f 95 1317 1316
f 94 1318 1317
f 93 1319 1318
f 93 92 1320
f 92 91 1321
f 90 1322 1321
f 89 1323 1322
f 89 88 1324
f 87 1325 1324
f 86 1326 1325
f 85 1327 1326
f 85 84 1328
f 84 4 53
f 1328 53 52
f 52 51 1358
f 1358 51 50
f 50 49 1388
f 1388 49 48
f 48 47 1418
f 47 46 1433
f 1433 46 45
f 1448 45 44
f 44 43 1478
f 43 42 1493
f 1493 42 41
f 1508 41 40
f 40 39 1538
f 39 2 188
f 1538 188 187
f 1536 1537 187
f 1536 186 185
f 1534 1535 185
f 1534 184 183
f 1532 1533 183
f 1531 1532 182
f 1530 1531 181
f 1530 180 179
f 1528 1529 179
f 1528 178 177
f 1527 177 176
f 1526 176 175
f 1525 175 174
f 143 1524 174
f 142 1509 1524
f 1494 1509 142
f 1479 1494 141
f 1464 1479 140
f 138 1449 1464
f 1434 1449 138
f 1419 1434 137
f 135 1404 1419
f 1389 1404 135
f 1374 1389 134
f 132 1359 1374
f 131 1344 1359
f 1329 1344 131
f 1314 1329 130
