# Blender 4.4.3
# www.blender.org
o brick_x-1-5
v -0.112598 -0.326953 0.951174
v -0.112550 -0.073830 1.120815
v -0.113046 -0.244790 0.828577
v -0.112997 0.008334 0.998218
v 0.119580 -0.326592 0.950569
v 0.119628 -0.073469 1.120210
v 0.119133 -0.244429 0.827972
v 0.119181 0.008695 0.997613
v -0.113018 -0.249925 0.836240
v -0.112990 -0.255060 0.843902
v -0.112962 -0.260195 0.851564
v -0.112934 -0.265331 0.859226
v -0.112906 -0.270466 0.866889
v -0.112878 -0.275601 0.874551
v -0.112850 -0.280736 0.882213
v -0.112822 -0.285872 0.889876
v -0.112794 -0.291007 0.897538
v -0.112766 -0.296142 0.905200
v -0.112738 -0.301277 0.912863
v -0.112710 -0.306412 0.920525
v -0.112682 -0.311548 0.928187
v -0.112654 -0.316683 0.935849
v -0.112626 -0.321818 0.943512
v -0.112595 -0.311133 0.961777
v -0.112592 -0.295313 0.972379
v -0.112589 -0.279493 0.982982
v -0.112586 -0.263672 0.993584
v -0.112583 -0.247852 1.004187
v -0.112580 -0.232032 1.014790
v -0.112577 -0.216212 1.025392
v -0.112574 -0.200392 1.035995
v -0.112571 -0.184571 1.046597
v -0.112568 -0.168751 1.057200
v -0.112565 -0.152931 1.067802
v -0.112562 -0.137111 1.078405
v -0.112559 -0.121291 1.089007
v -0.112556 -0.105470 1.099610
v -0.112553 -0.089650 1.110213
v -0.112578 -0.068695 1.113153
v -0.112606 -0.063560 1.105491
v -0.112634 -0.058424 1.097828
v -0.112662 -0.053289 1.090166
v -0.112690 -0.048154 1.082504
v -0.112718 -0.043019 1.074841
v -0.112746 -0.037883 1.067179
v -0.112774 -0.032748 1.059517
v -0.112802 -0.027613 1.051854
v -0.112830 -0.022478 1.044192
v -0.112858 -0.017343 1.036530
v -0.112885 -0.012207 1.028867
v -0.112913 -0.007072 1.021205
v -0.112941 -0.001937 1.013543
v -0.112969 0.003198 1.005881
v -0.113000 -0.007487 0.987616
v -0.113003 -0.023307 0.977013
v -0.113006 -0.039127 0.966411
v -0.113009 -0.054947 0.955808
v -0.113012 -0.070767 0.945205
v -0.113015 -0.086588 0.934603
v -0.113018 -0.102408 0.924000
v -0.113021 -0.118228 0.913398
v -0.113025 -0.134048 0.902795
v -0.113028 -0.149869 0.892193
v -0.113031 -0.165689 0.881590
v -0.113034 -0.181509 0.870987
v -0.113037 -0.197329 0.860385
v -0.113040 -0.213149 0.849782
v -0.113043 -0.228970 0.839180
v 0.104622 -0.244451 0.828010
v 0.090110 -0.244474 0.828048
v 0.075599 -0.244496 0.828086
v 0.061088 -0.244519 0.828123
v 0.046577 -0.244542 0.828161
v 0.032066 -0.244564 0.828199
v 0.017555 -0.244587 0.828237
v 0.003044 -0.244609 0.828275
v -0.011468 -0.244632 0.828313
v -0.025979 -0.244654 0.828350
v -0.040490 -0.244677 0.828388
v -0.055001 -0.244700 0.828426
v -0.069512 -0.244722 0.828464
v -0.084023 -0.244745 0.828502
v -0.098535 -0.244767 0.828539
v -0.098486 0.008356 0.998181
v -0.083975 0.008379 0.998143
v -0.069464 0.008401 0.998105
v -0.054953 0.008424 0.998067
v -0.040442 0.008446 0.998029
v -0.025930 0.008469 0.997991
v -0.011419 0.008492 0.997954
v 0.003092 0.008514 0.997916
v 0.017603 0.008537 0.997878
v 0.032114 0.008559 0.997840
v 0.046625 0.008582 0.997802
v 0.061137 0.008604 0.997765
v 0.075648 0.008627 0.997727
v 0.090159 0.008649 0.997689
v 0.104670 0.008672 0.997651
v 0.119178 -0.007126 0.987011
v 0.119175 -0.022946 0.976408
v 0.119172 -0.038766 0.965806
v 0.119169 -0.054586 0.955203
v 0.119166 -0.070406 0.944601
v 0.119163 -0.086227 0.933998
v 0.119160 -0.102047 0.923395
v 0.119157 -0.117867 0.912793
v 0.119154 -0.133687 0.902190
v 0.119151 -0.149507 0.891588
v 0.119148 -0.165328 0.880985
v 0.119145 -0.181148 0.870383
v 0.119142 -0.196968 0.859780
v 0.119139 -0.212788 0.849177
v 0.119136 -0.228609 0.838575
v 0.119552 -0.321457 0.942907
v 0.119524 -0.316322 0.935245
v 0.119496 -0.311187 0.927582
v 0.119468 -0.306051 0.919920
v 0.119440 -0.300916 0.912258
v 0.119412 -0.295781 0.904595
v 0.119384 -0.290646 0.896933
v 0.119356 -0.285511 0.889271
v 0.119328 -0.280375 0.881608
v 0.119300 -0.275240 0.873946
v 0.119273 -0.270105 0.866284
v 0.119245 -0.264970 0.858621
v 0.119217 -0.259834 0.850959
v 0.119189 -0.254699 0.843297
v 0.119161 -0.249564 0.835635
v 0.119209 0.003559 1.005276
v 0.119237 -0.001576 1.012938
v 0.119265 -0.006711 1.020600
v 0.119293 -0.011846 1.028263
v 0.119321 -0.016982 1.035925
v 0.119349 -0.022117 1.043587
v 0.119377 -0.027252 1.051250
v 0.119405 -0.032387 1.058912
v 0.119433 -0.037522 1.066574
v 0.119461 -0.042658 1.074236
v 0.119489 -0.047793 1.081899
v 0.119517 -0.052928 1.089561
v 0.119545 -0.058063 1.097223
v 0.119572 -0.063198 1.104886
v 0.119600 -0.068334 1.112548
v 0.119625 -0.089289 1.109608
v 0.119622 -0.105109 1.099005
v 0.119619 -0.120930 1.088403
v 0.119616 -0.136750 1.077800
v 0.119613 -0.152570 1.067197
v 0.119610 -0.168390 1.056595
v 0.119607 -0.184210 1.045992
v 0.119604 -0.200031 1.035390
v 0.119601 -0.215851 1.024787
v 0.119598 -0.231671 1.014185
v 0.119595 -0.247491 1.003582
v 0.119592 -0.263311 0.992979
v 0.119589 -0.279132 0.982377
v 0.119586 -0.294952 0.971774
v 0.119583 -0.310772 0.961172
v -0.098087 -0.326931 0.951136
v -0.083576 -0.326908 0.951099
v -0.069065 -0.326886 0.951061
v -0.054554 -0.326863 0.951023
v -0.040043 -0.326840 0.950985
v -0.025532 -0.326818 0.950947
v -0.011020 -0.326795 0.950909
v 0.003491 -0.326773 0.950872
v 0.018002 -0.326750 0.950834
v 0.032513 -0.326728 0.950796
v 0.047024 -0.326705 0.950758
v 0.061535 -0.326683 0.950720
v 0.076046 -0.326660 0.950683
v 0.090558 -0.326637 0.950645
v 0.105069 -0.326615 0.950607
v 0.105117 -0.073491 1.120248
v 0.090606 -0.073514 1.120286
v 0.076095 -0.073537 1.120324
v 0.061584 -0.073559 1.120361
v 0.047073 -0.073582 1.120399
v 0.032561 -0.073604 1.120437
v 0.018050 -0.073627 1.120475
v 0.003539 -0.073649 1.120513
v -0.010972 -0.073672 1.120551
v -0.025483 -0.073695 1.120588
v -0.039994 -0.073717 1.120626
v -0.054505 -0.073740 1.120664
v -0.069017 -0.073762 1.120702
v -0.083528 -0.073785 1.120740
v -0.098039 -0.073807 1.120777
v -0.112623 -0.305998 0.954114
v -0.112620 -0.290178 0.964717
v -0.112617 -0.274357 0.975320
v -0.112614 -0.258537 0.985922
v -0.112611 -0.242717 0.996525
v -0.112608 -0.226897 1.007127
v -0.112605 -0.211077 1.017730
v -0.112602 -0.195256 1.028332
v -0.112599 -0.179436 1.038935
v -0.112596 -0.163616 1.049537
v -0.112593 -0.147796 1.060140
v -0.112590 -0.131976 1.070743
v -0.112587 -0.116155 1.081345
v -0.112584 -0.100335 1.091948
v -0.112581 -0.084515 1.102550
v -0.112651 -0.300863 0.946452
v -0.112648 -0.285042 0.957055
v -0.112645 -0.269222 0.967657
v -0.112642 -0.253402 0.978260
v -0.112639 -0.237582 0.988862
v -0.112636 -0.221762 0.999465
v -0.112633 -0.205941 1.010067
v -0.112630 -0.190121 1.020670
v -0.112627 -0.174301 1.031273
v -0.112624 -0.158481 1.041875
v -0.112621 -0.142661 1.052478
v -0.112618 -0.126840 1.063080
v -0.112615 -0.111020 1.073683
v -0.112612 -0.095200 1.084285
v -0.112609 -0.079380 1.094888
v -0.112679 -0.295727 0.938790
v -0.112676 -0.279907 0.949392
v -0.112673 -0.264087 0.959995
v -0.112670 -0.248267 0.970597
v -0.112667 -0.232447 0.981200
v -0.112664 -0.216626 0.991803
v -0.112661 -0.200806 1.002405
v -0.112658 -0.184986 1.013008
v -0.112655 -0.169166 1.023610
v -0.112652 -0.153346 1.034213
v -0.112649 -0.137525 1.044815
v -0.112646 -0.121705 1.055418
v -0.112643 -0.105885 1.066021
v -0.112640 -0.090065 1.076623
v -0.112637 -0.074245 1.087226
v -0.112707 -0.290592 0.931127
v -0.112704 -0.274772 0.941730
v -0.112701 -0.258952 0.952333
v -0.112698 -0.243132 0.962935
v -0.112695 -0.227311 0.973538
v -0.112692 -0.211491 0.984140
v -0.112689 -0.195671 0.994743
v -0.112686 -0.179851 1.005345
v -0.112683 -0.164031 1.015948
v -0.112680 -0.148210 1.026551
v -0.112677 -0.132390 1.037153
v -0.112674 -0.116570 1.047756
v -0.112671 -0.100750 1.058358
v -0.112668 -0.084930 1.068961
v -0.112665 -0.069109 1.079563
v -0.112735 -0.285457 0.923465
v -0.112732 -0.269637 0.934068
v -0.112729 -0.253817 0.944670
v -0.112726 -0.237996 0.955273
v -0.112723 -0.222176 0.965875
v -0.112720 -0.206356 0.976478
v -0.112717 -0.190536 0.987081
v -0.112714 -0.174716 0.997683
v -0.112711 -0.158895 1.008286
v -0.112708 -0.143075 1.018888
v -0.112705 -0.127255 1.029491
v -0.112702 -0.111435 1.040093
v -0.112699 -0.095614 1.050696
v -0.112696 -0.079794 1.061298
v -0.112693 -0.063974 1.071901
v -0.112763 -0.280322 0.915803
v -0.112760 -0.264502 0.926405
v -0.112757 -0.248681 0.937008
v -0.112754 -0.232861 0.947611
v -0.112751 -0.217041 0.958213
v -0.112748 -0.201221 0.968816
v -0.112745 -0.185401 0.979418
v -0.112742 -0.169580 0.990021
v -0.112739 -0.153760 1.000623
v -0.112736 -0.137940 1.011226
v -0.112733 -0.122120 1.021829
v -0.112730 -0.106299 1.032431
v -0.112727 -0.090479 1.043034
v -0.112724 -0.074659 1.053636
v -0.112721 -0.058839 1.064239
v -0.112791 -0.275187 0.908141
v -0.112788 -0.259366 0.918743
v -0.112785 -0.243546 0.929346
v -0.112782 -0.227726 0.939948
v -0.112779 -0.211906 0.950551
v -0.112776 -0.196086 0.961153
v -0.112773 -0.180265 0.971756
v -0.112770 -0.164445 0.982359
v -0.112767 -0.148625 0.992961
v -0.112764 -0.132805 1.003564
v -0.112761 -0.116984 1.014166
v -0.112758 -0.101164 1.024769
v -0.112755 -0.085344 1.035371
v -0.112752 -0.069524 1.045974
v -0.112749 -0.053704 1.056576
v -0.112819 -0.270051 0.900478
v -0.112816 -0.254231 0.911081
v -0.112813 -0.238411 0.921683
v -0.112810 -0.222591 0.932286
v -0.112807 -0.206770 0.942888
v -0.112804 -0.190950 0.953491
v -0.112801 -0.175130 0.964094
v -0.112798 -0.159310 0.974696
v -0.112795 -0.143490 0.985299
v -0.112792 -0.127669 0.995901
v -0.112789 -0.111849 1.006504
v -0.112786 -0.096029 1.017107
v -0.112783 -0.080209 1.027709
v -0.112780 -0.064389 1.038312
v -0.112777 -0.048568 1.048914
v -0.112847 -0.264916 0.892816
v -0.112844 -0.249096 0.903418
v -0.112841 -0.233276 0.914021
v -0.112838 -0.217455 0.924624
v -0.112835 -0.201635 0.935226
v -0.112832 -0.185815 0.945829
v -0.112829 -0.169995 0.956431
v -0.112826 -0.154175 0.967034
v -0.112823 -0.138354 0.977636
v -0.112820 -0.122534 0.988239
v -0.112817 -0.106714 0.998842
v -0.112814 -0.090894 1.009444
v -0.112811 -0.075074 1.020047
v -0.112808 -0.059253 1.030649
v -0.112805 -0.043433 1.041252
v -0.112875 -0.259781 0.885154
v -0.112872 -0.243961 0.895756
v -0.112869 -0.228140 0.906359
v -0.112866 -0.212320 0.916961
v -0.112863 -0.196500 0.927564
v -0.112860 -0.180680 0.938166
v -0.112857 -0.164860 0.948769
v -0.112854 -0.149039 0.959372
v -0.112851 -0.133219 0.969974
v -0.112848 -0.117399 0.980577
v -0.112845 -0.101579 0.991179
v -0.112842 -0.085759 1.001782
v -0.112839 -0.069938 1.012384
v -0.112836 -0.054118 1.022987
v -0.112833 -0.038298 1.033590
v -0.112903 -0.254646 0.877491
v -0.112900 -0.238825 0.888094
v -0.112897 -0.223005 0.898696
v -0.112894 -0.207185 0.909299
v -0.112891 -0.191365 0.919902
v -0.112888 -0.175545 0.930504
v -0.112885 -0.159724 0.941107
v -0.112882 -0.143904 0.951709
v -0.112879 -0.128084 0.962312
v -0.112876 -0.112264 0.972914
v -0.112873 -0.096444 0.983517
v -0.112870 -0.080623 0.994120
v -0.112867 -0.064803 1.004722
v -0.112864 -0.048983 1.015325
v -0.112861 -0.033163 1.025927
v -0.112931 -0.249510 0.869829
v -0.112928 -0.233690 0.880432
v -0.112925 -0.217870 0.891034
v -0.112922 -0.202050 0.901637
v -0.112919 -0.186230 0.912239
v -0.112916 -0.170409 0.922842
v -0.112913 -0.154589 0.933444
v -0.112910 -0.138769 0.944047
v -0.112907 -0.122949 0.954650
v -0.112904 -0.107129 0.965252
v -0.112901 -0.091308 0.975855
v -0.112898 -0.075488 0.986457
v -0.112895 -0.059668 0.997060
v -0.112892 -0.043848 1.007662
v -0.112889 -0.028028 1.018265
v -0.112959 -0.244375 0.862167
v -0.112956 -0.228555 0.872769
v -0.112953 -0.212735 0.883372
v -0.112950 -0.196915 0.893974
v -0.112947 -0.181094 0.904577
v -0.112944 -0.165274 0.915179
v -0.112941 -0.149454 0.925782
v -0.112938 -0.133634 0.936385
v -0.112935 -0.117814 0.946987
v -0.112932 -0.101993 0.957590
v -0.112929 -0.086173 0.968192
v -0.112926 -0.070353 0.978795
v -0.112923 -0.054533 0.989398
v -0.112919 -0.038713 1.000000
v -0.112916 -0.022892 1.010603
v -0.112987 -0.239240 0.854504
v -0.112984 -0.223420 0.865107
v -0.112981 -0.207600 0.875710
v -0.112978 -0.191779 0.886312
v -0.112975 -0.175959 0.896915
v -0.112972 -0.160139 0.907517
v -0.112969 -0.144319 0.918120
v -0.112966 -0.128499 0.928722
v -0.112963 -0.112678 0.939325
v -0.112960 -0.096858 0.949928
v -0.112957 -0.081038 0.960530
v -0.112953 -0.065218 0.971133
v -0.112950 -0.049398 0.981735
v -0.112947 -0.033577 0.992338
v -0.112944 -0.017757 1.002940
v -0.113015 -0.234105 0.846842
v -0.113012 -0.218285 0.857445
v -0.113009 -0.202464 0.868047
v -0.113006 -0.186644 0.878650
v -0.113003 -0.170824 0.889252
v -0.113000 -0.155004 0.899855
v -0.112997 -0.139184 0.910457
v -0.112994 -0.123363 0.921060
v -0.112990 -0.107543 0.931663
v -0.112987 -0.091723 0.942265
v -0.112984 -0.075903 0.952868
v -0.112981 -0.060083 0.963470
v -0.112978 -0.044262 0.974073
v -0.112975 -0.028442 0.984675
v -0.112972 -0.012622 0.995278
v -0.098532 -0.228947 0.839142
v -0.098528 -0.213127 0.849744
v -0.098525 -0.197307 0.860347
v -0.098522 -0.181486 0.870950
v -0.098519 -0.165666 0.881552
v -0.098516 -0.149846 0.892155
v -0.098513 -0.134026 0.902757
v -0.098510 -0.118206 0.913360
v -0.098507 -0.102385 0.923962
v -0.098504 -0.086565 0.934565
v -0.098501 -0.070745 0.945168
v -0.098498 -0.054925 0.955770
v -0.098495 -0.039105 0.966373
v -0.098492 -0.023284 0.976975
v -0.098489 -0.007464 0.987578
v -0.084020 -0.228924 0.839104
v -0.084017 -0.213104 0.849707
v -0.084014 -0.197284 0.860309
v -0.084011 -0.181464 0.870912
v -0.084008 -0.165644 0.881514
v -0.084005 -0.149823 0.892117
v -0.084002 -0.134003 0.902720
v -0.083999 -0.118183 0.913322
v -0.083996 -0.102363 0.923925
v -0.083993 -0.086543 0.934527
v -0.083990 -0.070722 0.945130
v -0.083987 -0.054902 0.955732
v -0.083984 -0.039082 0.966335
v -0.083981 -0.023262 0.976938
v -0.083978 -0.007442 0.987540
v -0.069509 -0.228902 0.839066
v -0.069506 -0.213082 0.849669
v -0.069503 -0.197261 0.860271
v -0.069500 -0.181441 0.870874
v -0.069497 -0.165621 0.881477
v -0.069494 -0.149801 0.892079
v -0.069491 -0.133981 0.902682
v -0.069488 -0.118160 0.913284
v -0.069485 -0.102340 0.923887
v -0.069482 -0.086520 0.934489
v -0.069479 -0.070700 0.945092
v -0.069476 -0.054880 0.955695
v -0.069473 -0.039059 0.966297
v -0.069470 -0.023239 0.976900
v -0.069467 -0.007419 0.987502
v -0.054998 -0.228879 0.839028
v -0.054995 -0.213059 0.849631
v -0.054992 -0.197239 0.860234
v -0.054989 -0.181419 0.870836
v -0.054986 -0.165598 0.881439
v -0.054983 -0.149778 0.892041
v -0.054980 -0.133958 0.902644
v -0.054977 -0.118138 0.913247
v -0.054974 -0.102318 0.923849
v -0.054971 -0.086497 0.934452
v -0.054968 -0.070677 0.945054
v -0.054965 -0.054857 0.955657
v -0.054962 -0.039037 0.966259
v -0.054959 -0.023217 0.976862
v -0.054956 -0.007396 0.987464
v -0.040487 -0.228857 0.838991
v -0.040484 -0.213037 0.849593
v -0.040481 -0.197216 0.860196
v -0.040478 -0.181396 0.870798
v -0.040475 -0.165576 0.881401
v -0.040472 -0.149756 0.892004
v -0.040469 -0.133936 0.902606
v -0.040466 -0.118115 0.913209
v -0.040463 -0.102295 0.923811
v -0.040460 -0.086475 0.934414
v -0.040457 -0.070655 0.945016
v -0.040454 -0.054834 0.955619
v -0.040451 -0.039014 0.966222
v -0.040448 -0.023194 0.976824
v -0.040445 -0.007374 0.987427
v -0.025976 -0.228834 0.838953
v -0.025973 -0.213014 0.849555
v -0.025970 -0.197194 0.860158
v -0.025967 -0.181374 0.870761
v -0.025964 -0.165553 0.881363
v -0.025961 -0.149733 0.891966
v -0.025958 -0.133913 0.902568
v -0.025955 -0.118093 0.913171
v -0.025952 -0.102273 0.923773
v -0.025949 -0.086452 0.934376
v -0.025945 -0.070632 0.944979
v -0.025942 -0.054812 0.955581
v -0.025939 -0.038992 0.966184
v -0.025936 -0.023171 0.976786
v -0.025933 -0.007351 0.987389
v -0.011465 -0.228812 0.838915
v -0.011462 -0.212991 0.849518
v -0.011459 -0.197171 0.860120
v -0.011456 -0.181351 0.870723
v -0.011452 -0.165531 0.881325
v -0.011449 -0.149711 0.891928
v -0.011446 -0.133890 0.902530
v -0.011443 -0.118070 0.913133
v -0.011440 -0.102250 0.923736
v -0.011437 -0.086430 0.934338
v -0.011434 -0.070610 0.944941
v -0.011431 -0.054789 0.955543
v -0.011428 -0.038969 0.966146
v -0.011425 -0.023149 0.976748
v -0.011422 -0.007329 0.987351
v 0.003047 -0.228789 0.838877
v 0.003050 -0.212969 0.849480
v 0.003053 -0.197149 0.860082
v 0.003056 -0.181328 0.870685
v 0.003059 -0.165508 0.881288
v 0.003062 -0.149688 0.891890
v 0.003065 -0.133868 0.902493
v 0.003068 -0.118048 0.913095
v 0.003071 -0.102227 0.923698
v 0.003074 -0.086407 0.934300
v 0.003077 -0.070587 0.944903
v 0.003080 -0.054767 0.955506
v 0.003083 -0.038947 0.966108
v 0.003086 -0.023126 0.976711
v 0.003089 -0.007306 0.987313
v 0.017558 -0.228766 0.838839
v 0.017561 -0.212946 0.849442
v 0.017564 -0.197126 0.860045
v 0.017567 -0.181306 0.870647
v 0.017570 -0.165486 0.881250
v 0.017573 -0.149665 0.891852
v 0.017576 -0.133845 0.902455
v 0.017579 -0.118025 0.913057
v 0.017582 -0.102205 0.923660
v 0.017585 -0.086385 0.934263
v 0.017588 -0.070564 0.944865
v 0.017591 -0.054744 0.955468
v 0.017594 -0.038924 0.966070
v 0.017597 -0.023104 0.976673
v 0.017600 -0.007284 0.987275
v 0.032069 -0.228744 0.838802
v 0.032072 -0.212924 0.849404
v 0.032075 -0.197104 0.860007
v 0.032078 -0.181283 0.870609
v 0.032081 -0.165463 0.881212
v 0.032084 -0.149643 0.891815
v 0.032087 -0.133823 0.902417
v 0.032090 -0.118002 0.913020
v 0.032093 -0.102182 0.923622
v 0.032096 -0.086362 0.934225
v 0.032099 -0.070542 0.944827
v 0.032102 -0.054722 0.955430
v 0.032105 -0.038901 0.966033
v 0.032108 -0.023081 0.976635
v 0.032111 -0.007261 0.987238
v 0.046580 -0.228721 0.838764
v 0.046583 -0.212901 0.849366
v 0.046586 -0.197081 0.859969
v 0.046589 -0.181261 0.870572
v 0.046592 -0.165441 0.881174
v 0.046595 -0.149620 0.891777
v 0.046598 -0.133800 0.902379
v 0.046601 -0.117980 0.912982
v 0.046604 -0.102160 0.923584
v 0.046607 -0.086339 0.934187
v 0.046610 -0.070519 0.944790
v 0.046613 -0.054699 0.955392
v 0.046616 -0.038879 0.965995
v 0.046619 -0.023059 0.976597
v 0.046622 -0.007238 0.987200
v 0.061091 -0.228699 0.838726
v 0.061094 -0.212879 0.849329
v 0.061097 -0.197058 0.859931
v 0.061100 -0.181238 0.870534
v 0.061103 -0.165418 0.881136
v 0.061106 -0.149598 0.891739
v 0.061109 -0.133778 0.902341
v 0.061112 -0.117957 0.912944
v 0.061115 -0.102137 0.923547
v 0.061118 -0.086317 0.934149
v 0.061121 -0.070497 0.944752
v 0.061124 -0.054677 0.955354
v 0.061127 -0.038856 0.965957
v 0.061131 -0.023036 0.976559
v 0.061134 -0.007216 0.987162
v 0.075602 -0.228676 0.838688
v 0.075605 -0.212856 0.849291
v 0.075608 -0.197036 0.859893
v 0.075611 -0.181216 0.870496
v 0.075614 -0.165395 0.881099
v 0.075617 -0.149575 0.891701
v 0.075620 -0.133755 0.902304
v 0.075624 -0.117935 0.912906
v 0.075627 -0.102115 0.923509
v 0.075630 -0.086294 0.934111
v 0.075633 -0.070474 0.944714
v 0.075636 -0.054654 0.955316
v 0.075639 -0.038834 0.965919
v 0.075642 -0.023014 0.976522
v 0.075645 -0.007193 0.987124
v 0.090113 -0.228654 0.838650
v 0.090117 -0.212833 0.849253
v 0.090120 -0.197013 0.859856
v 0.090123 -0.181193 0.870458
v 0.090126 -0.165373 0.881061
v 0.090129 -0.149553 0.891663
v 0.090132 -0.133732 0.902266
v 0.090135 -0.117912 0.912868
v 0.090138 -0.102092 0.923471
v 0.090141 -0.086272 0.934074
v 0.090144 -0.070452 0.944676
v 0.090147 -0.054631 0.955279
v 0.090150 -0.038811 0.965881
v 0.090153 -0.022991 0.976484
v 0.090156 -0.007171 0.987086
v 0.104625 -0.228631 0.838613
v 0.104628 -0.212811 0.849215
v 0.104631 -0.196991 0.859818
v 0.104634 -0.181170 0.870420
v 0.104637 -0.165350 0.881023
v 0.104640 -0.149530 0.891625
v 0.104643 -0.133710 0.902228
v 0.104646 -0.117890 0.912831
v 0.104649 -0.102069 0.923433
v 0.104652 -0.086249 0.934036
v 0.104655 -0.070429 0.944638
v 0.104658 -0.054609 0.955241
v 0.104661 -0.038789 0.965843
v 0.104664 -0.022968 0.976446
v 0.104667 -0.007148 0.987049
v 0.119164 -0.233744 0.846237
v 0.119167 -0.217924 0.856840
v 0.119170 -0.202103 0.867442
v 0.119173 -0.186283 0.878045
v 0.119176 -0.170463 0.888647
v 0.119179 -0.154643 0.899250
v 0.119182 -0.138823 0.909853
v 0.119185 -0.123002 0.920455
v 0.119188 -0.107182 0.931058
v 0.119191 -0.091362 0.941660
v 0.119194 -0.075542 0.952263
v 0.119197 -0.059721 0.962865
v 0.119200 -0.043901 0.973468
v 0.119203 -0.028081 0.984070
v 0.119206 -0.012261 0.994673
v 0.119192 -0.238879 0.853899
v 0.119195 -0.223059 0.864502
v 0.119198 -0.207239 0.875105
v 0.119201 -0.191418 0.885707
v 0.119204 -0.175598 0.896310
v 0.119207 -0.159778 0.906912
v 0.119210 -0.143958 0.917515
v 0.119213 -0.128138 0.928117
v 0.119216 -0.112317 0.938720
v 0.119219 -0.096497 0.949323
v 0.119222 -0.080677 0.959925
v 0.119225 -0.064857 0.970528
v 0.119228 -0.049036 0.981130
v 0.119231 -0.033216 0.991733
v 0.119234 -0.017396 1.002335
v 0.119220 -0.244014 0.861562
v 0.119223 -0.228194 0.872164
v 0.119226 -0.212374 0.882767
v 0.119229 -0.196554 0.893369
v 0.119232 -0.180733 0.903972
v 0.119235 -0.164913 0.914575
v 0.119238 -0.149093 0.925177
v 0.119241 -0.133273 0.935780
v 0.119244 -0.117453 0.946382
v 0.119247 -0.101632 0.956985
v 0.119250 -0.085812 0.967587
v 0.119253 -0.069992 0.978190
v 0.119256 -0.054172 0.988793
v 0.119259 -0.038351 0.999395
v 0.119262 -0.022531 1.009998
v 0.119248 -0.249149 0.869224
v 0.119251 -0.233329 0.879827
v 0.119254 -0.217509 0.890429
v 0.119257 -0.201689 0.901032
v 0.119260 -0.185869 0.911634
v 0.119263 -0.170048 0.922237
v 0.119266 -0.154228 0.932839
v 0.119269 -0.138408 0.943442
v 0.119272 -0.122588 0.954045
v 0.119275 -0.106768 0.964647
v 0.119278 -0.090947 0.975250
v 0.119281 -0.075127 0.985852
v 0.119284 -0.059307 0.996455
v 0.119287 -0.043487 1.007057
v 0.119290 -0.027667 1.017660
v 0.119276 -0.254285 0.876886
v 0.119279 -0.238464 0.887489
v 0.119282 -0.222644 0.898091
v 0.119285 -0.206824 0.908694
v 0.119288 -0.191004 0.919297
v 0.119291 -0.175184 0.929899
v 0.119294 -0.159363 0.940502
v 0.119297 -0.143543 0.951104
v 0.119300 -0.127723 0.961707
v 0.119303 -0.111903 0.972309
v 0.119306 -0.096083 0.982912
v 0.119309 -0.080262 0.993515
v 0.119312 -0.064442 1.004117
v 0.119315 -0.048622 1.014720
v 0.119318 -0.032802 1.025322
v 0.119303 -0.259420 0.884549
v 0.119307 -0.243600 0.895151
v 0.119310 -0.227779 0.905754
v 0.119313 -0.211959 0.916356
v 0.119316 -0.196139 0.926959
v 0.119319 -0.180319 0.937562
v 0.119322 -0.164499 0.948164
v 0.119325 -0.148678 0.958767
v 0.119328 -0.132858 0.969369
v 0.119331 -0.117038 0.979972
v 0.119334 -0.101218 0.990574
v 0.119337 -0.085398 1.001177
v 0.119340 -0.069577 1.011780
v 0.119343 -0.053757 1.022382
v 0.119346 -0.037937 1.032985
v 0.119331 -0.264555 0.892211
v 0.119334 -0.248735 0.902814
v 0.119337 -0.232915 0.913416
v 0.119341 -0.217094 0.924019
v 0.119344 -0.201274 0.934621
v 0.119347 -0.185454 0.945224
v 0.119350 -0.169634 0.955826
v 0.119353 -0.153814 0.966429
v 0.119356 -0.137993 0.977032
v 0.119359 -0.122173 0.987634
v 0.119362 -0.106353 0.998237
v 0.119365 -0.090533 1.008839
v 0.119368 -0.074713 1.019442
v 0.119371 -0.058892 1.030044
v 0.119374 -0.043072 1.040647
v 0.119359 -0.269690 0.899873
v 0.119362 -0.253870 0.910476
v 0.119365 -0.238050 0.921078
v 0.119368 -0.222230 0.931681
v 0.119371 -0.206409 0.942284
v 0.119375 -0.190589 0.952886
v 0.119378 -0.174769 0.963489
v 0.119381 -0.158949 0.974091
v 0.119384 -0.143129 0.984694
v 0.119387 -0.127308 0.995296
v 0.119390 -0.111488 1.005899
v 0.119393 -0.095668 1.016502
v 0.119396 -0.079848 1.027104
v 0.119399 -0.064028 1.037707
v 0.119402 -0.048207 1.048309
v 0.119387 -0.274825 0.907536
v 0.119390 -0.259005 0.918138
v 0.119393 -0.243185 0.928741
v 0.119396 -0.227365 0.939343
v 0.119399 -0.211545 0.949946
v 0.119402 -0.195724 0.960548
v 0.119405 -0.179904 0.971151
v 0.119409 -0.164084 0.981754
v 0.119412 -0.148264 0.992356
v 0.119415 -0.132444 1.002959
v 0.119418 -0.116623 1.013561
v 0.119421 -0.100803 1.024164
v 0.119424 -0.084983 1.034766
v 0.119427 -0.069163 1.045369
v 0.119430 -0.053343 1.055972
v 0.119415 -0.279961 0.915198
v 0.119418 -0.264141 0.925800
v 0.119421 -0.248320 0.936403
v 0.119424 -0.232500 0.947006
v 0.119427 -0.216680 0.957608
v 0.119430 -0.200860 0.968211
v 0.119433 -0.185039 0.978813
v 0.119436 -0.169219 0.989416
v 0.119439 -0.153399 1.000018
v 0.119443 -0.137579 1.010621
v 0.119446 -0.121759 1.021224
v 0.119449 -0.105938 1.031826
v 0.119452 -0.090118 1.042429
v 0.119455 -0.074298 1.053031
v 0.119458 -0.058478 1.063634
v 0.119443 -0.285096 0.922860
v 0.119446 -0.269276 0.933463
v 0.119449 -0.253456 0.944065
v 0.119452 -0.237635 0.954668
v 0.119455 -0.221815 0.965270
v 0.119458 -0.205995 0.975873
v 0.119461 -0.190175 0.986476
v 0.119464 -0.174354 0.997078
v 0.119467 -0.158534 1.007681
v 0.119470 -0.142714 1.018283
v 0.119473 -0.126894 1.028886
v 0.119477 -0.111074 1.039488
v 0.119480 -0.095253 1.050091
v 0.119483 -0.079433 1.060694
v 0.119486 -0.063613 1.071296
v 0.119471 -0.290231 0.930523
v 0.119474 -0.274411 0.941125
v 0.119477 -0.258591 0.951728
v 0.119480 -0.242771 0.962330
v 0.119483 -0.226950 0.972933
v 0.119486 -0.211130 0.983535
v 0.119489 -0.195310 0.994138
v 0.119492 -0.179490 1.004740
v 0.119495 -0.163669 1.015343
v 0.119498 -0.147849 1.025946
v 0.119501 -0.132029 1.036548
v 0.119504 -0.116209 1.047151
v 0.119507 -0.100389 1.057753
v 0.119511 -0.084568 1.068356
v 0.119514 -0.068748 1.078959
v 0.119499 -0.295366 0.938185
v 0.119502 -0.279546 0.948787
v 0.119505 -0.263726 0.959390
v 0.119508 -0.247906 0.969993
v 0.119511 -0.232086 0.980595
v 0.119514 -0.216265 0.991198
v 0.119517 -0.200445 1.001800
v 0.119520 -0.184625 1.012403
v 0.119523 -0.168805 1.023005
v 0.119526 -0.152984 1.033608
v 0.119529 -0.137164 1.044210
v 0.119532 -0.121344 1.054813
v 0.119535 -0.105524 1.065416
v 0.119538 -0.089704 1.076018
v 0.119541 -0.073883 1.086621
v 0.119527 -0.300502 0.945847
v 0.119530 -0.284681 0.956450
v 0.119533 -0.268861 0.967052
v 0.119536 -0.253041 0.977655
v 0.119539 -0.237221 0.988257
v 0.119542 -0.221401 0.998860
v 0.119545 -0.205580 1.009462
v 0.119548 -0.189760 1.020065
v 0.119551 -0.173940 1.030668
v 0.119554 -0.158120 1.041270
v 0.119557 -0.142300 1.051873
v 0.119560 -0.126479 1.062475
v 0.119563 -0.110659 1.073078
v 0.119566 -0.094839 1.083681
v 0.119569 -0.079019 1.094283
v 0.119555 -0.305637 0.953509
v 0.119558 -0.289817 0.964112
v 0.119561 -0.273996 0.974715
v 0.119564 -0.258176 0.985317
v 0.119567 -0.242356 0.995920
v 0.119570 -0.226536 1.006522
v 0.119573 -0.210716 1.017125
v 0.119576 -0.194895 1.027727
v 0.119579 -0.179075 1.038330
v 0.119582 -0.163255 1.048933
v 0.119585 -0.147435 1.059535
v 0.119588 -0.131615 1.070138
v 0.119591 -0.115794 1.080740
v 0.119594 -0.099974 1.091343
v 0.119597 -0.084154 1.101945
v 0.105072 -0.310795 0.961210
v 0.105075 -0.294974 0.971812
v 0.105078 -0.279154 0.982415
v 0.105081 -0.263334 0.993017
v 0.105084 -0.247514 1.003620
v 0.105087 -0.231694 1.014222
v 0.105090 -0.215873 1.024825
v 0.105093 -0.200053 1.035428
v 0.105096 -0.184233 1.046030
v 0.105099 -0.168413 1.056633
v 0.105102 -0.152593 1.067235
v 0.105105 -0.136772 1.077838
v 0.105108 -0.120952 1.088440
v 0.105111 -0.105132 1.099043
v 0.105114 -0.089312 1.109645
v 0.090561 -0.310817 0.961247
v 0.090564 -0.294997 0.971850
v 0.090567 -0.279177 0.982453
v 0.090570 -0.263357 0.993055
v 0.090573 -0.247536 1.003658
v 0.090576 -0.231716 1.014260
v 0.090579 -0.215896 1.024863
v 0.090582 -0.200076 1.035465
v 0.090585 -0.184256 1.046068
v 0.090588 -0.168435 1.056670
v 0.090591 -0.152615 1.067273
v 0.090594 -0.136795 1.077876
v 0.090597 -0.120975 1.088478
v 0.090600 -0.105154 1.099081
v 0.090603 -0.089334 1.109683
v 0.076050 -0.310840 0.961285
v 0.076053 -0.295020 0.971888
v 0.076056 -0.279199 0.982490
v 0.076059 -0.263379 0.993093
v 0.076062 -0.247559 1.003695
v 0.076065 -0.231739 1.014298
v 0.076068 -0.215918 1.024901
v 0.076071 -0.200098 1.035503
v 0.076074 -0.184278 1.046106
v 0.076077 -0.168458 1.056708
v 0.076080 -0.152638 1.067311
v 0.076083 -0.136817 1.077913
v 0.076086 -0.120997 1.088516
v 0.076089 -0.105177 1.099119
v 0.076092 -0.089357 1.109721
v 0.061538 -0.310862 0.961323
v 0.061541 -0.295042 0.971925
v 0.061544 -0.279222 0.982528
v 0.061547 -0.263402 0.993131
v 0.061550 -0.247581 1.003733
v 0.061553 -0.231761 1.014336
v 0.061557 -0.215941 1.024938
v 0.061560 -0.200121 1.035541
v 0.061563 -0.184301 1.046144
v 0.061566 -0.168480 1.056746
v 0.061569 -0.152660 1.067349
v 0.061572 -0.136840 1.077951
v 0.061575 -0.121020 1.088554
v 0.061578 -0.105200 1.099156
v 0.061581 -0.089379 1.109759
v 0.047027 -0.310885 0.961361
v 0.047030 -0.295065 0.971963
v 0.047033 -0.279244 0.982566
v 0.047036 -0.263424 0.993168
v 0.047039 -0.247604 1.003771
v 0.047042 -0.231784 1.014374
v 0.047045 -0.215964 1.024976
v 0.047048 -0.200143 1.035579
v 0.047051 -0.184323 1.046181
v 0.047054 -0.168503 1.056784
v 0.047057 -0.152683 1.067387
v 0.047060 -0.136863 1.077989
v 0.047064 -0.121042 1.088592
v 0.047067 -0.105222 1.099194
v 0.047070 -0.089402 1.109797
v 0.032516 -0.310907 0.961399
v 0.032519 -0.295087 0.972001
v 0.032522 -0.279267 0.982604
v 0.032525 -0.263447 0.993206
v 0.032528 -0.247627 1.003809
v 0.032531 -0.231806 1.014411
v 0.032534 -0.215986 1.025014
v 0.032537 -0.200166 1.035617
v 0.032540 -0.184346 1.046219
v 0.032543 -0.168526 1.056822
v 0.032546 -0.152705 1.067424
v 0.032549 -0.136885 1.078027
v 0.032552 -0.121065 1.088629
v 0.032555 -0.105245 1.099232
v 0.032558 -0.089425 1.109835
v 0.018005 -0.310930 0.961436
v 0.018008 -0.295110 0.972039
v 0.018011 -0.279290 0.982642
v 0.018014 -0.263469 0.993244
v 0.018017 -0.247649 1.003847
v 0.018020 -0.231829 1.014449
v 0.018023 -0.216009 1.025052
v 0.018026 -0.200189 1.035654
v 0.018029 -0.184368 1.046257
v 0.018032 -0.168548 1.056859
v 0.018035 -0.152728 1.067462
v 0.018038 -0.136908 1.078065
v 0.018041 -0.121087 1.088667
v 0.018044 -0.105267 1.099270
v 0.018047 -0.089447 1.109872
v 0.003494 -0.310953 0.961474
v 0.003497 -0.295132 0.972077
v 0.003500 -0.279312 0.982679
v 0.003503 -0.263492 0.993282
v 0.003506 -0.247672 1.003884
v 0.003509 -0.231852 1.014487
v 0.003512 -0.216031 1.025090
v 0.003515 -0.200211 1.035692
v 0.003518 -0.184391 1.046295
v 0.003521 -0.168571 1.056897
v 0.003524 -0.152750 1.067500
v 0.003527 -0.136930 1.078102
v 0.003530 -0.121110 1.088705
v 0.003533 -0.105290 1.099308
v 0.003536 -0.089470 1.109910
v -0.011017 -0.310975 0.961512
v -0.011014 -0.295155 0.972115
v -0.011011 -0.279335 0.982717
v -0.011008 -0.263514 0.993320
v -0.011005 -0.247694 1.003922
v -0.011002 -0.231874 1.014525
v -0.010999 -0.216054 1.025127
v -0.010996 -0.200234 1.035730
v -0.010993 -0.184413 1.046333
v -0.010990 -0.168593 1.056935
v -0.010987 -0.152773 1.067538
v -0.010984 -0.136953 1.078140
v -0.010981 -0.121133 1.088743
v -0.010978 -0.105312 1.099345
v -0.010975 -0.089492 1.109948
v -0.025529 -0.310998 0.961550
v -0.025526 -0.295177 0.972152
v -0.025522 -0.279357 0.982755
v -0.025519 -0.263537 0.993358
v -0.025516 -0.247717 1.003960
v -0.025513 -0.231897 1.014563
v -0.025510 -0.216076 1.025165
v -0.025507 -0.200256 1.035768
v -0.025504 -0.184436 1.046370
v -0.025501 -0.168616 1.056973
v -0.025498 -0.152796 1.067575
v -0.025495 -0.136975 1.078178
v -0.025492 -0.121155 1.088781
v -0.025489 -0.105335 1.099383
v -0.025486 -0.089515 1.109986
v -0.040040 -0.311020 0.961588
v -0.040037 -0.295200 0.972190
v -0.040034 -0.279380 0.982793
v -0.040031 -0.263560 0.993395
v -0.040028 -0.247739 1.003998
v -0.040025 -0.231919 1.014601
v -0.040022 -0.216099 1.025203
v -0.040019 -0.200279 1.035806
v -0.040016 -0.184459 1.046408
v -0.040012 -0.168638 1.057011
v -0.040009 -0.152818 1.067613
v -0.040006 -0.136998 1.078216
v -0.040003 -0.121178 1.088818
v -0.040000 -0.105358 1.099421
v -0.039997 -0.089537 1.110024
v -0.054551 -0.311043 0.961625
v -0.054548 -0.295223 0.972228
v -0.054545 -0.279402 0.982831
v -0.054542 -0.263582 0.993433
v -0.054539 -0.247762 1.004036
v -0.054536 -0.231942 1.014638
v -0.054533 -0.216122 1.025241
v -0.054530 -0.200301 1.035843
v -0.054527 -0.184481 1.046446
v -0.054524 -0.168661 1.057049
v -0.054521 -0.152841 1.067651
v -0.054518 -0.137021 1.078254
v -0.054515 -0.121200 1.088856
v -0.054512 -0.105380 1.099459
v -0.054509 -0.089560 1.110061
v -0.069062 -0.311065 0.961663
v -0.069059 -0.295245 0.972266
v -0.069056 -0.279425 0.982868
v -0.069053 -0.263605 0.993471
v -0.069050 -0.247785 1.004074
v -0.069047 -0.231964 1.014676
v -0.069044 -0.216144 1.025279
v -0.069041 -0.200324 1.035881
v -0.069038 -0.184504 1.046484
v -0.069035 -0.168683 1.057086
v -0.069032 -0.152863 1.067689
v -0.069029 -0.137043 1.078292
v -0.069026 -0.121223 1.088894
v -0.069023 -0.105403 1.099497
v -0.069020 -0.089582 1.110099
v -0.083573 -0.311088 0.961701
v -0.083570 -0.295268 0.972304
v -0.083567 -0.279448 0.982906
v -0.083564 -0.263627 0.993509
v -0.083561 -0.247807 1.004111
v -0.083558 -0.231987 1.014714
v -0.083555 -0.216167 1.025316
v -0.083552 -0.200346 1.035919
v -0.083549 -0.184526 1.046522
v -0.083546 -0.168706 1.057124
v -0.083543 -0.152886 1.067727
v -0.083540 -0.137066 1.078329
v -0.083537 -0.121245 1.088932
v -0.083534 -0.105425 1.099535
v -0.083531 -0.089605 1.110137
v -0.098084 -0.311110 0.961739
v -0.098081 -0.295290 0.972341
v -0.098078 -0.279470 0.982944
v -0.098075 -0.263650 0.993547
v -0.098072 -0.247830 1.004149
v -0.098069 -0.232009 1.014752
v -0.098066 -0.216189 1.025354
v -0.098063 -0.200369 1.035957
v -0.098060 -0.184549 1.046559
v -0.098057 -0.168729 1.057162
v -0.098054 -0.152908 1.067765
v -0.098051 -0.137088 1.078367
v -0.098048 -0.121268 1.088970
v -0.098045 -0.105448 1.099572
v -0.098042 -0.089628 1.110175
v -0.098507 -0.249902 0.836202
v -0.083995 -0.249880 0.836164
v -0.069484 -0.249857 0.836126
v -0.054973 -0.249835 0.836088
v -0.040462 -0.249812 0.836050
v -0.025951 -0.249790 0.836013
v -0.011440 -0.249767 0.835975
v 0.003071 -0.249745 0.835937
v 0.017583 -0.249722 0.835899
v 0.032094 -0.249699 0.835861
v 0.046605 -0.249677 0.835824
v 0.061116 -0.249654 0.835786
v 0.075627 -0.249632 0.835748
v 0.090138 -0.249609 0.835710
v 0.104650 -0.249587 0.835672
v -0.098479 -0.255038 0.843864
v -0.083967 -0.255015 0.843826
v -0.069456 -0.254993 0.843788
v -0.054945 -0.254970 0.843751
v -0.040434 -0.254947 0.843713
v -0.025923 -0.254925 0.843675
v -0.011412 -0.254902 0.843637
v 0.003099 -0.254880 0.843599
v 0.017611 -0.254857 0.843562
v 0.032122 -0.254835 0.843524
v 0.046633 -0.254812 0.843486
v 0.061144 -0.254789 0.843448
v 0.075655 -0.254767 0.843410
v 0.090166 -0.254744 0.843372
v 0.104678 -0.254722 0.843335
v -0.098451 -0.260173 0.851526
v -0.083940 -0.260150 0.851488
v -0.069428 -0.260128 0.851451
v -0.054917 -0.260105 0.851413
v -0.040406 -0.260083 0.851375
v -0.025895 -0.260060 0.851337
v -0.011384 -0.260037 0.851299
v 0.003127 -0.260015 0.851262
v 0.017639 -0.259992 0.851224
v 0.032150 -0.259970 0.851186
v 0.046661 -0.259947 0.851148
v 0.061172 -0.259925 0.851110
v 0.075683 -0.259902 0.851073
v 0.090194 -0.259880 0.851035
v 0.104705 -0.259857 0.850997
v -0.098423 -0.265308 0.859189
v -0.083912 -0.265286 0.859151
v -0.069400 -0.265263 0.859113
v -0.054889 -0.265240 0.859075
v -0.040378 -0.265218 0.859037
v -0.025867 -0.265195 0.859000
v -0.011356 -0.265173 0.858962
v 0.003155 -0.265150 0.858924
v 0.017666 -0.265128 0.858886
v 0.032178 -0.265105 0.858848
v 0.046689 -0.265082 0.858811
v 0.061200 -0.265060 0.858773
v 0.075711 -0.265037 0.858735
v 0.090222 -0.265015 0.858697
v 0.104733 -0.264992 0.858659
v -0.098395 -0.270443 0.866851
v -0.083884 -0.270421 0.866813
v -0.069372 -0.270398 0.866775
v -0.054861 -0.270376 0.866737
v -0.040350 -0.270353 0.866700
v -0.025839 -0.270330 0.866662
v -0.011328 -0.270308 0.866624
v 0.003183 -0.270285 0.866586
v 0.017694 -0.270263 0.866548
v 0.032206 -0.270240 0.866511
v 0.046717 -0.270218 0.866473
v 0.061228 -0.270195 0.866435
v 0.075739 -0.270173 0.866397
v 0.090250 -0.270150 0.866359
v 0.104761 -0.270127 0.866322
v -0.098367 -0.275579 0.874513
v -0.083856 -0.275556 0.874475
v -0.069345 -0.275533 0.874438
v -0.054833 -0.275511 0.874400
v -0.040322 -0.275488 0.874362
v -0.025811 -0.275466 0.874324
v -0.011300 -0.275443 0.874286
v 0.003211 -0.275421 0.874249
v 0.017722 -0.275398 0.874211
v 0.032234 -0.275375 0.874173
v 0.046745 -0.275353 0.874135
v 0.061256 -0.275330 0.874097
v 0.075767 -0.275308 0.874059
v 0.090278 -0.275285 0.874022
v 0.104789 -0.275263 0.873984
v -0.098339 -0.280714 0.882176
v -0.083828 -0.280691 0.882138
v -0.069317 -0.280669 0.882100
v -0.054805 -0.280646 0.882062
v -0.040294 -0.280623 0.882024
v -0.025783 -0.280601 0.881986
v -0.011272 -0.280578 0.881949
v 0.003239 -0.280556 0.881911
v 0.017750 -0.280533 0.881873
v 0.032261 -0.280511 0.881835
v 0.046773 -0.280488 0.881797
v 0.061284 -0.280466 0.881760
v 0.075795 -0.280443 0.881722
v 0.090306 -0.280420 0.881684
v 0.104817 -0.280398 0.881646
v -0.098311 -0.285849 0.889838
v -0.083800 -0.285826 0.889800
v -0.069289 -0.285804 0.889762
v -0.054777 -0.285781 0.889724
v -0.040266 -0.285759 0.889687
v -0.025755 -0.285736 0.889649
v -0.011244 -0.285714 0.889611
v 0.003267 -0.285691 0.889573
v 0.017778 -0.285668 0.889535
v 0.032289 -0.285646 0.889498
v 0.046801 -0.285623 0.889460
v 0.061312 -0.285601 0.889422
v 0.075823 -0.285578 0.889384
v 0.090334 -0.285556 0.889346
v 0.104845 -0.285533 0.889309
v -0.098283 -0.290984 0.897500
v -0.083772 -0.290962 0.897462
v -0.069261 -0.290939 0.897425
v -0.054750 -0.290917 0.897387
v -0.040238 -0.290894 0.897349
v -0.025727 -0.290871 0.897311
v -0.011216 -0.290849 0.897273
v 0.003295 -0.290826 0.897236
v 0.017806 -0.290804 0.897198
v 0.032317 -0.290781 0.897160
v 0.046829 -0.290759 0.897122
v 0.061340 -0.290736 0.897084
v 0.075851 -0.290713 0.897046
v 0.090362 -0.290691 0.897009
v 0.104873 -0.290668 0.896971
v -0.098255 -0.296119 0.905162
v -0.083744 -0.296097 0.905125
v -0.069233 -0.296074 0.905087
v -0.054722 -0.296052 0.905049
v -0.040210 -0.296029 0.905011
v -0.025699 -0.296007 0.904973
v -0.011188 -0.295984 0.904936
v 0.003323 -0.295961 0.904898
v 0.017834 -0.295939 0.904860
v 0.032345 -0.295916 0.904822
v 0.046856 -0.295894 0.904784
v 0.061368 -0.295871 0.904747
v 0.075879 -0.295849 0.904709
v 0.090390 -0.295826 0.904671
v 0.104901 -0.295803 0.904633
v -0.098227 -0.301255 0.912825
v -0.083716 -0.301232 0.912787
v -0.069205 -0.301210 0.912749
v -0.054694 -0.301187 0.912711
v -0.040182 -0.301164 0.912674
v -0.025671 -0.301142 0.912636
v -0.011160 -0.301119 0.912598
v 0.003351 -0.301097 0.912560
v 0.017862 -0.301074 0.912522
v 0.032373 -0.301052 0.912484
v 0.046884 -0.301029 0.912447
v 0.061396 -0.301006 0.912409
v 0.075907 -0.300984 0.912371
v 0.090418 -0.300961 0.912333
v 0.104929 -0.300939 0.912295
v -0.098199 -0.306390 0.920487
v -0.083688 -0.306367 0.920449
v -0.069177 -0.306345 0.920411
v -0.054666 -0.306322 0.920374
v -0.040155 -0.306300 0.920336
v -0.025643 -0.306277 0.920298
v -0.011132 -0.306254 0.920260
v 0.003379 -0.306232 0.920222
v 0.017890 -0.306209 0.920185
v 0.032401 -0.306187 0.920147
v 0.046912 -0.306164 0.920109
v 0.061424 -0.306142 0.920071
v 0.075935 -0.306119 0.920033
v 0.090446 -0.306096 0.919996
v 0.104957 -0.306074 0.919958
v -0.098171 -0.311525 0.928149
v -0.083660 -0.311503 0.928112
v -0.069149 -0.311480 0.928074
v -0.054638 -0.311457 0.928036
v -0.040127 -0.311435 0.927998
v -0.025615 -0.311412 0.927960
v -0.011104 -0.311390 0.927923
v 0.003407 -0.311367 0.927885
v 0.017918 -0.311345 0.927847
v 0.032429 -0.311322 0.927809
v 0.046940 -0.311299 0.927771
v 0.061452 -0.311277 0.927733
v 0.075963 -0.311254 0.927696
v 0.090474 -0.311232 0.927658
v 0.104985 -0.311209 0.927620
v -0.098143 -0.316660 0.935812
v -0.083632 -0.316638 0.935774
v -0.069121 -0.316615 0.935736
v -0.054610 -0.316593 0.935698
v -0.040099 -0.316570 0.935660
v -0.025587 -0.316547 0.935623
v -0.011076 -0.316525 0.935585
v 0.003435 -0.316502 0.935547
v 0.017946 -0.316480 0.935509
v 0.032457 -0.316457 0.935471
v 0.046968 -0.316435 0.935434
v 0.061479 -0.316412 0.935396
v 0.075991 -0.316390 0.935358
v 0.090502 -0.316367 0.935320
v 0.105013 -0.316344 0.935282
v -0.098115 -0.321795 0.943474
v -0.083604 -0.321773 0.943436
v -0.069093 -0.321750 0.943398
v -0.054582 -0.321728 0.943361
v -0.040071 -0.321705 0.943323
v -0.025560 -0.321683 0.943285
v -0.011048 -0.321660 0.943247
v 0.003463 -0.321638 0.943209
v 0.017974 -0.321615 0.943172
v 0.032485 -0.321592 0.943134
v 0.046996 -0.321570 0.943096
v 0.061507 -0.321547 0.943058
v 0.076019 -0.321525 0.943020
v 0.090530 -0.321502 0.942982
v 0.105041 -0.321480 0.942945
v 0.104698 0.003537 1.005314
v 0.090187 0.003514 1.005351
v 0.075676 0.003492 1.005389
v 0.061164 0.003469 1.005427
v 0.046653 0.003447 1.005465
v 0.032142 0.003424 1.005502
v 0.017631 0.003401 1.005540
v 0.003120 0.003379 1.005578
v -0.011391 0.003356 1.005616
v -0.025902 0.003334 1.005654
v -0.040414 0.003311 1.005692
v -0.054925 0.003289 1.005729
v -0.069436 0.003266 1.005767
v -0.083947 0.003243 1.005805
v -0.098458 0.003221 1.005843
v 0.104726 -0.001598 1.012976
v 0.090215 -0.001621 1.013014
v 0.075704 -0.001644 1.013051
v 0.061192 -0.001666 1.013089
v 0.046681 -0.001689 1.013127
v 0.032170 -0.001711 1.013165
v 0.017659 -0.001734 1.013203
v 0.003148 -0.001756 1.013240
v -0.011363 -0.001779 1.013278
v -0.025874 -0.001801 1.013316
v -0.040386 -0.001824 1.013354
v -0.054897 -0.001847 1.013392
v -0.069408 -0.001869 1.013430
v -0.083919 -0.001892 1.013467
v -0.098430 -0.001914 1.013505
v 0.104754 -0.006734 1.020638
v 0.090243 -0.006756 1.020676
v 0.075732 -0.006779 1.020714
v 0.061220 -0.006801 1.020751
v 0.046709 -0.006824 1.020789
v 0.032198 -0.006846 1.020827
v 0.017687 -0.006869 1.020865
v 0.003176 -0.006892 1.020903
v -0.011335 -0.006914 1.020941
v -0.025847 -0.006937 1.020978
v -0.040358 -0.006959 1.021016
v -0.054869 -0.006982 1.021054
v -0.069380 -0.007004 1.021092
v -0.083891 -0.007027 1.021130
v -0.098402 -0.007050 1.021167
v 0.104782 -0.011869 1.028300
v 0.090271 -0.011891 1.028338
v 0.075760 -0.011914 1.028376
v 0.061248 -0.011937 1.028414
v 0.046737 -0.011959 1.028452
v 0.032226 -0.011982 1.028489
v 0.017715 -0.012004 1.028527
v 0.003204 -0.012027 1.028565
v -0.011307 -0.012049 1.028603
v -0.025819 -0.012072 1.028641
v -0.040330 -0.012094 1.028678
v -0.054841 -0.012117 1.028716
v -0.069352 -0.012140 1.028754
v -0.083863 -0.012162 1.028792
v -0.098374 -0.012185 1.028830
v 0.104810 -0.017004 1.035963
v 0.090299 -0.017027 1.036000
v 0.075787 -0.017049 1.036038
v 0.061276 -0.017072 1.036076
v 0.046765 -0.017094 1.036114
v 0.032254 -0.017117 1.036152
v 0.017743 -0.017139 1.036190
v 0.003232 -0.017162 1.036227
v -0.011279 -0.017185 1.036265
v -0.025791 -0.017207 1.036303
v -0.040302 -0.017230 1.036341
v -0.054813 -0.017252 1.036379
v -0.069324 -0.017275 1.036416
v -0.083835 -0.017297 1.036454
v -0.098346 -0.017320 1.036492
v 0.104838 -0.022139 1.043625
v 0.090327 -0.022162 1.043663
v 0.075815 -0.022184 1.043701
v 0.061304 -0.022207 1.043738
v 0.046793 -0.022230 1.043776
v 0.032282 -0.022252 1.043814
v 0.017771 -0.022275 1.043852
v 0.003260 -0.022297 1.043890
v -0.011252 -0.022320 1.043927
v -0.025763 -0.022342 1.043965
v -0.040274 -0.022365 1.044003
v -0.054785 -0.022388 1.044041
v -0.069296 -0.022410 1.044079
v -0.083807 -0.022433 1.044116
v -0.098318 -0.022455 1.044154
v 0.104866 -0.027275 1.051287
v 0.090355 -0.027297 1.051325
v 0.075843 -0.027320 1.051363
v 0.061332 -0.027342 1.051401
v 0.046821 -0.027365 1.051439
v 0.032310 -0.027387 1.051476
v 0.017799 -0.027410 1.051514
v 0.003288 -0.027432 1.051552
v -0.011224 -0.027455 1.051590
v -0.025735 -0.027478 1.051628
v -0.040246 -0.027500 1.051665
v -0.054757 -0.027523 1.051703
v -0.069268 -0.027545 1.051741
v -0.083779 -0.027568 1.051779
v -0.098290 -0.027590 1.051817
v 0.104894 -0.032410 1.058950
v 0.090382 -0.032432 1.058987
v 0.075871 -0.032455 1.059025
v 0.061360 -0.032477 1.059063
v 0.046849 -0.032500 1.059101
v 0.032338 -0.032523 1.059139
v 0.017827 -0.032545 1.059176
v 0.003316 -0.032568 1.059214
v -0.011196 -0.032590 1.059252
v -0.025707 -0.032613 1.059290
v -0.040218 -0.032635 1.059328
v -0.054729 -0.032658 1.059366
v -0.069240 -0.032681 1.059403
v -0.083751 -0.032703 1.059441
v -0.098263 -0.032726 1.059479
v 0.104922 -0.037545 1.066612
v 0.090410 -0.037568 1.066650
v 0.075899 -0.037590 1.066688
v 0.061388 -0.037613 1.066725
v 0.046877 -0.037635 1.066763
v 0.032366 -0.037658 1.066801
v 0.017855 -0.037680 1.066839
v 0.003343 -0.037703 1.066877
v -0.011168 -0.037725 1.066914
v -0.025679 -0.037748 1.066952
v -0.040190 -0.037771 1.066990
v -0.054701 -0.037793 1.067028
v -0.069212 -0.037816 1.067066
v -0.083723 -0.037838 1.067103
v -0.098235 -0.037861 1.067141
v 0.104950 -0.042680 1.074274
v 0.090438 -0.042703 1.074312
v 0.075927 -0.042725 1.074350
v 0.061416 -0.042748 1.074388
v 0.046905 -0.042770 1.074425
v 0.032394 -0.042793 1.074463
v 0.017883 -0.042816 1.074501
v 0.003371 -0.042838 1.074539
v -0.011140 -0.042861 1.074577
v -0.025651 -0.042883 1.074615
v -0.040162 -0.042906 1.074652
v -0.054673 -0.042928 1.074690
v -0.069184 -0.042951 1.074728
v -0.083695 -0.042974 1.074766
v -0.098207 -0.042996 1.074804
v 0.104977 -0.047815 1.081937
v 0.090466 -0.047838 1.081974
v 0.075955 -0.047861 1.082012
v 0.061444 -0.047883 1.082050
v 0.046933 -0.047906 1.082088
v 0.032422 -0.047928 1.082126
v 0.017911 -0.047951 1.082163
v 0.003399 -0.047973 1.082201
v -0.011112 -0.047996 1.082239
v -0.025623 -0.048018 1.082277
v -0.040134 -0.048041 1.082315
v -0.054645 -0.048064 1.082352
v -0.069156 -0.048086 1.082390
v -0.083668 -0.048109 1.082428
v -0.098179 -0.048131 1.082466
v 0.105005 -0.052951 1.089599
v 0.090494 -0.052973 1.089637
v 0.075983 -0.052996 1.089674
v 0.061472 -0.053018 1.089712
v 0.046961 -0.053041 1.089750
v 0.032450 -0.053063 1.089788
v 0.017938 -0.053086 1.089826
v 0.003427 -0.053109 1.089864
v -0.011084 -0.053131 1.089901
v -0.025595 -0.053154 1.089939
v -0.040106 -0.053176 1.089977
v -0.054617 -0.053199 1.090015
v -0.069128 -0.053221 1.090053
v -0.083640 -0.053244 1.090090
v -0.098151 -0.053267 1.090128
v 0.105033 -0.058086 1.097261
v 0.090522 -0.058108 1.097299
v 0.076011 -0.058131 1.097337
v 0.061500 -0.058154 1.097375
v 0.046989 -0.058176 1.097412
v 0.032478 -0.058199 1.097450
v 0.017966 -0.058221 1.097488
v 0.003455 -0.058244 1.097526
v -0.011056 -0.058266 1.097564
v -0.025567 -0.058289 1.097601
v -0.040078 -0.058311 1.097639
v -0.054589 -0.058334 1.097677
v -0.069100 -0.058357 1.097715
v -0.083612 -0.058379 1.097753
v -0.098123 -0.058402 1.097790
v 0.105061 -0.063221 1.104923
v 0.090550 -0.063244 1.104961
v 0.076039 -0.063266 1.104999
v 0.061528 -0.063289 1.105037
v 0.047017 -0.063311 1.105075
v 0.032506 -0.063334 1.105113
v 0.017994 -0.063356 1.105150
v 0.003483 -0.063379 1.105188
v -0.011028 -0.063402 1.105226
v -0.025539 -0.063424 1.105264
v -0.040050 -0.063447 1.105301
v -0.054561 -0.063469 1.105339
v -0.069073 -0.063492 1.105377
v -0.083584 -0.063514 1.105415
v -0.098095 -0.063537 1.105453
v 0.105089 -0.068356 1.112586
v 0.090578 -0.068379 1.112624
v 0.076067 -0.068401 1.112661
v 0.061556 -0.068424 1.112699
v 0.047045 -0.068447 1.112737
v 0.032533 -0.068469 1.112775
v 0.018022 -0.068492 1.112813
v 0.003511 -0.068514 1.112850
v -0.011000 -0.068537 1.112888
v -0.025511 -0.068559 1.112926
v -0.040022 -0.068582 1.112964
v -0.054533 -0.068604 1.113002
v -0.069045 -0.068627 1.113039
v -0.083556 -0.068650 1.113077
v -0.098067 -0.068672 1.113115
s 0
f 190 204 189
f 190 206 205
f 191 207 206
f 192 208 207
f 194 208 193
f 195 209 194
f 195 211 210
f 197 211 196
f 198 212 197
f 198 214 213
f 200 214 199
f 200 216 215
f 202 216 201
f 203 217 202
f 204 220 219
f 205 221 220
f 206 222 221
f 208 222 207
f 209 223 208
f 210 224 209
f 211 225 210
f 211 227 226
f 212 228 227
f 214 228 213
f 215 229 214
f 216 230 215
f 217 231 216
f 218 232 217
f 220 234 219
f 221 235 220
f 222 236 221
f 223 237 222
f 224 238 223
f 224 240 239
f 226 240 225
f 227 241 226
f 228 242 227
f 228 244 243
f 229 245 244
f 230 246 245
f 231 247 246
f 232 248 247
f 234 250 249
f 236 250 235
f 237 251 236
f 237 253 252
f 239 253 238
f 240 254 239
f 241 255 240
f 242 256 241
f 243 257 242
f 244 258 243
f 245 259 244
f 246 260 245
f 247 261 246
f 248 262 247
f 250 264 249
f 251 265 250
f 251 267 266
f 252 268 267
f 253 269 268
f 254 270 269
f 256 270 255
f 256 272 271
f 257 273 272
f 259 273 258
f 260 274 259
f 260 276 275
f 261 277 276
f 262 278 277
f 265 279 264
f 265 281 280
f 266 282 281
f 268 282 267
f 269 283 268
f 269 285 284
f 270 286 285
f 271 287 286
f 273 287 272
f 273 289 288
f 274 290 289
f 275 291 290
f 276 292 291
f 278 292 277
f 279 295 294
f 280 296 295
f 281 297 296
f 282 298 297
f 283 299 298
f 285 299 284
f 286 300 285
f 287 301 286
f 288 302 287
f 289 303 288
f 290 304 289
f 291 305 290
f 292 306 291
f 293 307 292
f 295 309 294
f 296 310 295
f 297 311 296
f 298 312 297
f 299 313 298
f 300 314 299
f 300 316 315
f 301 317 316
f 303 317 302
f 303 319 318
f 304 320 319
f 305 321 320
f 306 322 321
f 308 322 307
f 309 325 324
f 311 325 310
f 311 327 326
f 312 328 327
f 313 329 328
f 315 329 314
f 316 330 315
f 317 331 316
f 318 332 317
f 319 333 318
f 320 334 319
f 321 335 320
f 322 336 321
f 323 337 322
f 325 339 324
f 325 341 340
f 327 341 326
f 328 342 327
f 329 343 328
f 330 344 329
f 331 345 330
f 331 347 346
f 333 347 332
f 334 348 333
f 335 349 334
f 336 350 335
f 336 352 351
f 338 352 337
f 340 354 339
f 341 355 340
f 341 357 356
f 343 357 342
f 344 358 343
f 344 360 359
f 346 360 345
f 347 361 346
f 348 362 347
f 348 364 363
f 349 365 364
f 350 366 365
f 351 367 366
f 352 368 367
f 354 370 369
f 356 370 355
f 357 371 356
f 357 373 372
f 359 373 358
f 359 375 374
f 360 376 375
f 362 376 361
f 362 378 377
f 364 378 363
f 365 379 364
f 366 380 365
f 367 381 366
f 368 382 367
f 369 385 384
f 370 386 385
f 371 387 386
f 372 388 387
f 373 389 388
f 375 389 374
f 376 390 375
f 377 391 376
f 378 392 377
f 379 393 378
f 379 395 394
f 381 395 380
f 381 397 396
f 382 398 397
f 385 399 384
f 386 400 385
f 387 401 386
f 388 402 387
f 389 403 388
f 389 405 404
f 391 405 390
f 392 406 391
f 393 407 392
f 393 409 408
f 394 410 409
f 395 411 410
f 396 412 411
f 397 413 412
f 1 189 23
f 24 190 189
f 26 190 25
f 27 191 26
f 28 192 27
f 28 194 193
f 29 195 194
f 31 195 30
f 32 196 31
f 33 197 32
f 33 199 198
f 34 200 199
f 35 201 200
f 36 202 201
f 37 203 202
f 2 203 38
f 39 218 203
f 40 233 218
f 41 248 233
f 42 263 248
f 263 44 278
f 44 293 278
f 45 308 293
f 46 323 308
f 47 338 323
f 48 353 338
f 49 368 353
f 50 383 368
f 51 398 383
f 398 53 413
f 53 54 413
f 413 55 412
f 411 55 56
f 411 57 410
f 410 58 409
f 409 59 408
f 407 59 60
f 406 60 61
f 406 62 405
f 404 62 63
f 403 63 64
f 402 64 65
f 401 65 66
f 400 66 67
f 399 67 68
f 9 68 3
f 384 9 10
f 369 10 11
f 12 369 11
f 339 12 13
f 324 13 14
f 15 324 14
f 294 15 16
f 17 294 16
f 264 17 18
f 19 264 18
f 20 249 19
f 219 20 21
f 22 219 21
f 189 22 23
f 415 429 414
f 416 430 415
f 416 432 431
f 418 432 417
f 419 433 418
f 419 435 434
f 421 435 420
f 422 436 421
f 423 437 422
f 423 439 438
f 425 439 424
f 426 440 425
f 426 442 441
f 428 442 427
f 430 444 429
f 431 445 430
f 431 447 446
f 432 448 447
f 433 449 448
f 435 449 434
f 436 450 435
f 436 452 451
f 438 452 437
f 439 453 438
f 440 454 439
f 441 455 440
f 442 456 441
f 443 457 442
f 444 460 459
f 445 461 460
f 447 461 446
f 448 462 447
f 449 463 448
f 450 464 449
f 450 466 465
f 452 466 451
f 453 467 452
f 453 469 468
f 455 469 454
f 456 470 455
f 457 471 456
f 457 473 472
f 460 474 459
f 461 475 460
f 462 476 461
f 463 477 462
f 464 478 463
f 464 480 479
f 465 481 480
f 467 481 466
f 468 482 467
f 469 483 468
f 469 485 484
f 470 486 485
f 471 487 486
f 473 487 472
f 475 489 474
f 476 490 475
f 476 492 491
f 477 493 492
f 478 494 493
f 480 494 479
f 481 495 480
f 482 496 481
f 483 497 482
f 484 498 483
f 485 499 484
f 486 500 485
f 487 501 486
f 487 503 502
f 489 505 504
f 490 506 505
f 492 506 491
f 493 507 492
f 494 508 493
f 495 509 494
f 496 510 495
f 496 512 511
f 497 513 512
f 498 514 513
f 499 515 514
f 500 516 515
f 502 516 501
f 503 517 502
f 505 519 504
f 506 520 505
f 506 522 521
f 507 523 522
f 508 524 523
f 510 524 509
f 511 525 510
f 512 526 511
f 513 527 512
f 514 528 513
f 515 529 514
f 516 530 515
f 516 532 531
f 518 532 517
f 520 534 519
f 521 535 520
f 522 536 521
f 523 537 522
f 524 538 523
f 525 539 524
f 526 540 525
f 526 542 541
f 528 542 527
f 529 543 528
f 530 544 529
f 530 546 545
f 532 546 531
f 533 547 532
f 534 550 549
f 536 550 535
f 536 552 551
f 537 553 552
f 539 553 538
f 539 555 554
f 540 556 555
f 542 556 541
f 543 557 542
f 543 559 558
f 544 560 559
f 546 560 545
f 547 561 546
f 547 563 562
f 550 564 549
f 551 565 550
f 552 566 551
f 552 568 567
f 554 568 553
f 555 569 554
f 555 571 570
f 557 571 556
f 558 572 557
f 559 573 558
f 560 574 559
f 561 575 560
f 562 576 561
f 563 577 562
f 564 580 579
f 566 580 565
f 567 581 566
f 568 582 567
f 568 584 583
f 570 584 569
f 571 585 570
f 572 586 571
f 573 587 572
f 574 588 573
f 575 589 574
f 575 591 590
f 576 592 591
f 578 592 577
f 579 595 594
f 581 595 580
f 582 596 581
f 582 598 597
f 583 599 598
f 585 599 584
f 586 600 585
f 587 601 586
f 588 602 587
f 588 604 603
f 589 605 604
f 591 605 590
f 592 606 591
f 593 607 592
f 595 609 594
f 595 611 610
f 597 611 596
f 598 612 597
f 599 613 598
f 600 614 599
f 601 615 600
f 601 617 616
f 602 618 617
f 604 618 603
f 605 619 604
f 606 620 605
f 607 621 606
f 608 622 607
f 609 625 624
f 611 625 610
f 612 626 611
f 613 627 612
f 613 629 628
f 615 629 614
f 616 630 615
f 616 632 631
f 618 632 617
f 619 633 618
f 620 634 619
f 621 635 620
f 622 636 621
f 623 637 622
f 68 83 3
f 67 414 68
f 67 416 415
f 65 416 66
f 65 418 417
f 63 418 64
f 63 420 419
f 61 420 62
f 60 421 61
f 59 422 60
f 59 424 423
f 57 424 58
f 56 425 57
f 55 426 56
f 54 427 55
f 54 84 428
f 84 443 428
f 85 458 443
f 458 87 473
f 87 488 473
f 488 89 503
f 89 518 503
f 90 533 518
f 91 548 533
f 548 93 563
f 93 578 563
f 578 95 593
f 95 608 593
f 608 97 623
f 97 638 623
f 98 99 638
f 638 100 637
f 637 101 636
f 635 101 102
f 635 103 634
f 634 104 633
f 633 105 632
f 631 105 106
f 631 107 630
f 630 108 629
f 628 108 109
f 628 110 627
f 627 111 626
f 626 112 625
f 624 112 113
f 69 113 7
f 609 69 70
f 594 70 71
f 579 71 72
f 73 579 72
f 549 73 74
f 75 549 74
f 519 75 76
f 504 76 77
f 489 77 78
f 474 78 79
f 80 474 79
f 81 459 80
f 429 81 82
f 83 429 82
f 639 655 654
f 641 655 640
f 642 656 641
f 643 657 642
f 643 659 658
f 644 660 659
f 646 660 645
f 647 661 646
f 648 662 647
f 649 663 648
f 650 664 649
f 651 665 650
f 651 667 666
f 653 667 652
f 655 669 654
f 655 671 670
f 656 672 671
f 657 673 672
f 658 674 673
f 660 674 659
f 660 676 675
f 662 676 661
f 662 678 677
f 664 678 663
f 665 679 664
f 666 680 665
f 667 681 666
f 668 682 667
f 669 685 684
f 670 686 685
f 672 686 671
f 672 688 687
f 674 688 673
f 675 689 674
f 675 691 690
f 677 691 676
f 677 693 692
f 679 693 678
f 680 694 679
f 681 695 680
f 682 696 681
f 682 698 697
f 685 699 684
f 686 700 685
f 687 701 686
f 688 702 687
f 689 703 688
f 689 705 704
f 691 705 690
f 692 706 691
f 693 707 692
f 694 708 693
f 695 709 694
f 695 711 710
f 696 712 711
f 698 712 697
f 700 714 699
f 700 716 715
f 701 717 716
f 702 718 717
f 703 719 718
f 705 719 704
f 706 720 705
f 707 721 706
f 708 722 707
f 709 723 708
f 710 724 709
f 711 725 710
f 712 726 711
f 712 728 727
f 714 730 729
f 715 731 730
f 717 731 716
f 718 732 717
f 719 733 718
f 720 734 719
f 721 735 720
f 722 736 721
f 722 738 737
f 724 738 723
f 724 740 739
f 725 741 740
f 727 741 726
f 728 742 727
f 730 744 729
f 731 745 730
f 731 747 746
f 732 748 747
f 734 748 733
f 735 749 734
f 736 750 735
f 737 751 736
f 738 752 737
f 739 753 738
f 740 754 739
f 741 755 740
f 742 756 741
f 743 757 742
f 745 759 744
f 746 760 745
f 747 761 746
f 748 762 747
f 749 763 748
f 750 764 749
f 751 765 750
f 751 767 766
f 753 767 752
f 754 768 753
f 755 769 754
f 755 771 770
f 756 772 771
f 758 772 757
f 759 775 774
f 761 775 760
f 761 777 776
f 762 778 777
f 764 778 763
f 765 779 764
f 765 781 780
f 767 781 766
f 768 782 767
f 768 784 783
f 769 785 784
f 771 785 770
f 771 787 786
f 772 788 787
f 775 789 774
f 776 790 775
f 777 791 776
f 778 792 777
f 778 794 793
f 780 794 779
f 781 795 780
f 782 796 781
f 782 798 797
f 784 798 783
f 785 799 784
f 786 800 785
f 787 801 786
f 788 802 787
f 789 805 804
f 791 805 790
f 792 806 791
f 793 807 792
f 794 808 793
f 795 809 794
f 796 810 795
f 797 811 796
f 798 812 797
f 799 813 798
f 800 814 799
f 800 816 815
f 801 817 816
f 802 818 817
f 804 820 819
f 805 821 820
f 806 822 821
f 807 823 822
f 809 823 808
f 810 824 809
f 811 825 810
f 812 826 811
f 813 827 812
f 813 829 828
f 815 829 814
f 816 830 815
f 817 831 816
f 818 832 817
f 820 834 819
f 821 835 820
f 822 836 821
f 823 837 822
f 824 838 823
f 824 840 839
f 825 841 840
f 826 842 841
f 828 842 827
f 829 843 828
f 830 844 829
f 831 845 830
f 831 847 846
f 833 847 832
f 835 849 834
f 836 850 835
f 837 851 836
f 838 852 837
f 839 853 838
f 840 854 839
f 841 855 840
f 842 856 841
f 843 857 842
f 844 858 843
f 845 859 844
f 846 860 845
f 847 861 846
f 848 862 847
f 113 128 7
f 112 639 113
f 111 640 112
f 110 641 111
f 110 643 642
f 108 643 109
f 108 645 644
f 106 645 107
f 105 646 106
f 105 648 647
f 104 649 648
f 102 649 103
f 101 650 102
f 101 652 651
f 100 653 652
f 99 129 653
f 129 668 653
f 130 683 668
f 683 132 698
f 132 713 698
f 713 134 728
f 134 743 728
f 135 758 743
f 136 773 758
f 773 138 788
f 138 803 788
f 139 818 803
f 140 833 818
f 833 142 848
f 142 863 848
f 143 144 863
f 863 145 862
f 862 146 861
f 860 146 147
f 860 148 859
f 858 148 149
f 857 149 150
f 856 150 151
f 855 151 152
f 855 153 854
f 853 153 154
f 853 155 852
f 852 156 851
f 851 157 850
f 849 157 158
f 114 158 5
f 834 114 115
f 819 115 116
f 804 116 117
f 118 804 117
f 774 118 119
f 120 774 119
f 744 120 121
f 122 744 121
f 714 122 123
f 699 123 124
f 125 699 124
f 669 125 126
f 654 126 127
f 128 654 127
f 865 879 864
f 866 880 865
f 866 882 881
f 868 882 867
f 869 883 868
f 869 885 884
f 871 885 870
f 872 886 871
f 873 887 872
f 873 889 888
f 875 889 874
f 876 890 875
f 876 892 891
f 878 892 877
f 880 894 879
f 881 895 880
f 881 897 896
f 882 898 897
f 883 899 898
f 885 899 884
f 886 900 885
f 886 902 901
f 888 902 887
f 889 903 888
f 890 904 889
f 891 905 890
f 892 906 891
f 893 907 892
f 894 910 909
f 895 911 910
f 897 911 896
f 898 912 897
f 899 913 898
f 900 914 899
f 900 916 915
f 902 916 901
f 903 917 902
f 903 919 918
f 905 919 904
f 906 920 905
f 907 921 906
f 907 923 922
f 910 924 909
f 911 925 910
f 912 926 911
f 913 927 912
f 914 928 913
f 914 930 929
f 915 931 930
f 917 931 916
f 918 932 917
f 919 933 918
f 919 935 934
f 920 936 935
f 921 937 936
f 923 937 922
f 925 939 924
f 926 940 925
f 926 942 941
f 927 943 942
f 928 944 943
f 930 944 929
f 931 945 930
f 932 946 931
f 933 947 932
f 934 948 933
f 935 949 934
f 936 950 935
f 937 951 936
f 937 953 952
f 939 955 954
f 940 956 955
f 942 956 941
f 943 957 942
f 944 958 943
f 945 959 944
f 946 960 945
f 946 962 961
f 947 963 962
f 948 964 963
f 949 965 964
f 950 966 965
f 952 966 951
f 953 967 952
f 955 969 954
f 956 970 955
f 956 972 971
f 957 973 972
f 958 974 973
f 960 974 959
f 961 975 960
f 962 976 961
f 963 977 962
f 964 978 963
f 965 979 964
f 966 980 965
f 966 982 981
f 968 982 967
f 970 984 969
f 971 985 970
f 972 986 971
f 973 987 972
f 974 988 973
f 975 989 974
f 976 990 975
f 976 992 991
f 978 992 977
f 979 993 978
f 980 994 979
f 980 996 995
f 982 996 981
f 983 997 982
f 984 1000 999
f 986 1000 985
f 986 1002 1001
f 987 1003 1002
f 989 1003 988
f 989 1005 1004
f 990 1006 1005
f 992 1006 991
f 993 1007 992
f 993 1009 1008
f 994 1010 1009
f 996 1010 995
f 997 1011 996
f 997 1013 1012
f 1000 1014 999
f 1001 1015 1000
f 1002 1016 1001
f 1002 1018 1017
f 1004 1018 1003
f 1005 1019 1004
f 1005 1021 1020
f 1007 1021 1006
f 1008 1022 1007
f 1009 1023 1008
f 1010 1024 1009
f 1011 1025 1010
f 1012 1026 1011
f 1013 1027 1012
f 1014 1030 1029
f 1016 1030 1015
f 1017 1031 1016
f 1018 1032 1017
f 1018 1034 1033
f 1020 1034 1019
f 1021 1035 1020
f 1022 1036 1021
f 1023 1037 1022
f 1024 1038 1023
f 1025 1039 1024
f 1025 1041 1040
f 1026 1042 1041
f 1028 1042 1027
f 1029 1045 1044
f 1031 1045 1030
f 1032 1046 1031
f 1032 1048 1047
f 1033 1049 1048
f 1035 1049 1034
f 1036 1050 1035
f 1037 1051 1036
f 1038 1052 1037
f 1038 1054 1053
f 1039 1055 1054
f 1041 1055 1040
f 1042 1056 1041
f 1043 1057 1042
f 1045 1059 1044
f 1045 1061 1060
f 1047 1061 1046
f 1048 1062 1047
f 1049 1063 1048
f 1050 1064 1049
f 1051 1065 1050
f 1051 1067 1066
f 1052 1068 1067
f 1054 1068 1053
f 1055 1069 1054
f 1056 1070 1055
f 1057 1071 1056
f 1058 1072 1057
f 1059 1075 1074
f 1061 1075 1060
f 1062 1076 1061
f 1063 1077 1062
f 1063 1079 1078
f 1065 1079 1064
f 1066 1080 1065
f 1066 1082 1081
f 1068 1082 1067
f 1069 1083 1068
f 1070 1084 1069
f 1071 1085 1070
f 1072 1086 1071
f 1073 1087 1072
f 158 173 5
f 157 864 158
f 156 865 157
f 156 867 866
f 155 868 867
f 153 868 154
f 153 870 869
f 151 870 152
f 150 871 151
f 149 872 150
f 149 874 873
f 147 874 148
f 146 875 147
f 146 877 876
f 145 878 877
f 144 174 878
f 174 893 878
f 175 908 893
f 908 177 923
f 177 938 923
f 938 179 953
f 179 968 953
f 180 983 968
f 181 998 983
f 998 183 1013
f 183 1028 1013
f 1028 185 1043
f 185 1058 1043
f 1058 187 1073
f 187 1088 1073
f 188 38 1088
f 1087 38 37
f 1087 36 1086
f 1086 35 1085
f 1085 34 1084
f 1084 33 1083
f 1082 33 32
f 1081 32 31
f 1081 30 1080
f 1080 29 1079
f 1078 29 28
f 1078 27 1077
f 1077 26 1076
f 1075 26 25
f 1075 24 1074
f 159 24 1
f 1059 159 160
f 1044 160 161
f 1029 161 162
f 163 1029 162
f 999 163 164
f 165 999 164
f 969 165 166
f 954 166 167
f 939 167 168
f 924 168 169
f 170 924 169
f 171 909 170
f 879 171 172
f 173 879 172
f 1090 1104 1089
f 1091 1105 1090
f 1092 1106 1091
f 1092 1108 1107
f 1094 1108 1093
f 1094 1110 1109
f 1095 1111 1110
f 1097 1111 1096
f 1098 1112 1097
f 1099 1113 1098
f 1099 1115 1114
f 1100 1116 1115
f 1101 1117 1116
f 1102 1118 1117
f 1105 1119 1104
f 1106 1120 1105
f 1107 1121 1106
f 1108 1122 1107
f 1109 1123 1108
f 1110 1124 1109
f 1110 1126 1125
f 1112 1126 1111
f 1113 1127 1112
f 1114 1128 1113
f 1115 1129 1114
f 1115 1131 1130
f 1117 1131 1116
f 1118 1132 1117
f 1119 1135 1134
f 1120 1136 1135
f 1121 1137 1136
f 1122 1138 1137
f 1123 1139 1138
f 1125 1139 1124
f 1125 1141 1140
f 1127 1141 1126
f 1127 1143 1142
f 1129 1143 1128
f 1130 1144 1129
f 1131 1145 1130
f 1132 1146 1131
f 1133 1147 1132
f 1135 1149 1134
f 1136 1150 1135
f 1137 1151 1136
f 1137 1153 1152
f 1139 1153 1138
f 1140 1154 1139
f 1141 1155 1140
f 1142 1156 1141
f 1143 1157 1142
f 1144 1158 1143
f 1145 1159 1144
f 1145 1161 1160
f 1146 1162 1161
f 1148 1162 1147
f 1150 1164 1149
f 1150 1166 1165
f 1151 1167 1166
f 1153 1167 1152
f 1154 1168 1153
f 1154 1170 1169
f 1155 1171 1170
f 1156 1172 1171
f 1158 1172 1157
f 1158 1174 1173
f 1159 1175 1174
f 1161 1175 1160
f 1161 1177 1176
f 1162 1178 1177
f 1164 1180 1179
f 1165 1181 1180
f 1167 1181 1166
f 1168 1182 1167
f 1169 1183 1168
f 1170 1184 1169
f 1171 1185 1170
f 1172 1186 1171
f 1172 1188 1187
f 1174 1188 1173
f 1174 1190 1189
f 1176 1190 1175
f 1177 1191 1176
f 1178 1192 1177
f 1179 1195 1194
f 1181 1195 1180
f 1182 1196 1181
f 1182 1198 1197
f 1184 1198 1183
f 1185 1199 1184
f 1186 1200 1185
f 1186 1202 1201
f 1187 1203 1202
f 1188 1204 1203
f 1190 1204 1189
f 1190 1206 1205
f 1191 1207 1206
f 1193 1207 1192
f 1195 1209 1194
f 1196 1210 1195
f 1197 1211 1196
f 1198 1212 1197
f 1199 1213 1198
f 1200 1214 1199
f 1201 1215 1200
f 1202 1216 1201
f 1203 1217 1202
f 1204 1218 1203
f 1205 1219 1204
f 1205 1221 1220
f 1207 1221 1206
f 1208 1222 1207
f 1209 1225 1224
f 1211 1225 1210
f 1212 1226 1211
f 1212 1228 1227
f 1214 1228 1213
f 1214 1230 1229
f 1216 1230 1215
f 1217 1231 1216
f 1218 1232 1217
f 1218 1234 1233
f 1219 1235 1234
f 1221 1235 1220
f 1221 1237 1236
f 1222 1238 1237
f 1224 1240 1239
f 1226 1240 1225
f 1227 1241 1226
f 1227 1243 1242
f 1228 1244 1243
f 1230 1244 1229
f 1231 1245 1230
f 1232 1246 1231
f 1232 1248 1247
f 1234 1248 1233
f 1235 1249 1234
f 1236 1250 1235
f 1237 1251 1236
f 1238 1252 1237
f 1240 1254 1239
f 1240 1256 1255
f 1242 1256 1241
f 1243 1257 1242
f 1244 1258 1243
f 1245 1259 1244
f 1245 1261 1260
f 1247 1261 1246
f 1248 1262 1247
f 1249 1263 1248
f 1250 1264 1249
f 1251 1265 1250
f 1252 1266 1251
f 1253 1267 1252
f 1255 1269 1254
f 1256 1270 1255
f 1256 1272 1271
f 1258 1272 1257
f 1259 1273 1258
f 1259 1275 1274
f 1261 1275 1260
f 1262 1276 1261
f 1263 1277 1262
f 1263 1279 1278
f 1265 1279 1264
f 1266 1280 1265
f 1266 1282 1281
f 1267 1283 1282
f 1270 1284 1269
f 1270 1286 1285
f 1271 1287 1286
f 1272 1288 1287
f 1274 1288 1273
f 1275 1289 1274
f 1276 1290 1275
f 1277 1291 1276
f 1277 1293 1292
f 1279 1293 1278
f 1280 1294 1279
f 1281 1295 1280
f 1282 1296 1281
f 1283 1297 1282
f 1285 1299 1284
f 1285 1301 1300
f 1287 1301 1286
f 1288 1302 1287
f 1289 1303 1288
f 1290 1304 1289
f 1290 1306 1305
f 1292 1306 1291
f 1292 1308 1307
f 1294 1308 1293
f 1295 1309 1294
f 1296 1310 1295
f 1296 1312 1311
f 1298 1312 1297
f 83 9 3
f 83 1090 1089
f 81 1090 82
f 80 1091 81
f 79 1092 80
f 78 1093 79
f 78 1095 1094
f 77 1096 1095
f 75 1096 76
f 74 1097 75
f 74 1099 1098
f 72 1099 73
f 71 1100 72
f 70 1101 71
f 69 1102 70
f 69 128 1103
f 1103 127 1118
f 1118 126 1133
f 126 1148 1133
f 125 1163 1148
f 1163 123 1178
f 123 1193 1178
f 122 1208 1193
f 1208 120 1223
f 1223 119 1238
f 119 1253 1238
f 118 1268 1253
f 1268 116 1283
f 116 1298 1283
f 1298 114 1313
f 114 173 1313
f 1313 172 1312
f 1312 171 1311
f 1310 171 170
f 1309 170 169
f 1309 168 1308
f 1307 168 167
f 1307 166 1306
f 1306 165 1305
f 1305 164 1304
f 1303 164 163
f 1303 162 1302
f 1302 161 1301
f 1301 160 1300
f 1300 159 1299
f 23 159 1
f 22 1299 23
f 1269 22 21
f 1254 21 20
f 1239 20 19
f 18 1239 19
f 1209 18 17
f 1194 17 16
f 15 1194 16
f 14 1179 15
f 1149 14 13
f 12 1149 13
f 11 1134 12
f 1104 11 10
f 9 1104 10
f 1315 1329 1314
f 1316 1330 1315
f 1317 1331 1316
f 1317 1333 1332
f 1319 1333 1318
f 1319 1335 1334
f 1320 1336 1335
f 1322 1336 1321
f 1323 1337 1322
f 1324 1338 1323
f 1324 1340 1339
f 1325 1341 1340
f 1326 1342 1341
f 1327 1343 1342
f 1330 1344 1329
f 1331 1345 1330
f 1332 1346 1331
f 1333 1347 1332
f 1334 1348 1333
f 1335 1349 1334
f 1335 1351 1350
f 1337 1351 1336
f 1338 1352 1337
f 1339 1353 1338
f 1340 1354 1339
f 1340 1356 1355
f 1342 1356 1341
f 1343 1357 1342
f 1344 1360 1359
f 1345 1361 1360
f 1346 1362 1361
f 1347 1363 1362
f 1348 1364 1363
f 1350 1364 1349
f 1350 1366 1365
f 1352 1366 1351
f 1352 1368 1367
f 1354 1368 1353
f 1355 1369 1354
f 1356 1370 1355
f 1357 1371 1356
f 1358 1372 1357
f 1360 1374 1359
f 1361 1375 1360
f 1362 1376 1361
f 1362 1378 1377
f 1364 1378 1363
f 1365 1379 1364
f 1366 1380 1365
f 1367 1381 1366
f 1368 1382 1367
f 1369 1383 1368
f 1370 1384 1369
f 1370 1386 1385
f 1371 1387 1386
f 1373 1387 1372
f 1375 1389 1374
f 1375 1391 1390
f 1376 1392 1391
f 1378 1392 1377
f 1379 1393 1378
f 1379 1395 1394
f 1380 1396 1395
f 1381 1397 1396
f 1383 1397 1382
f 1383 1399 1398
f 1384 1400 1399
f 1386 1400 1385
f 1386 1402 1401
f 1387 1403 1402
f 1389 1405 1404
f 1390 1406 1405
f 1392 1406 1391
f 1393 1407 1392
f 1394 1408 1393
f 1395 1409 1394
f 1396 1410 1395
f 1397 1411 1396
f 1397 1413 1412
f 1399 1413 1398
f 1399 1415 1414
f 1401 1415 1400
f 1402 1416 1401
f 1403 1417 1402
f 1404 1420 1419
f 1406 1420 1405
f 1407 1421 1406
f 1407 1423 1422
f 1409 1423 1408
f 1410 1424 1409
f 1411 1425 1410
f 1411 1427 1426
f 1412 1428 1427
f 1413 1429 1428
f 1415 1429 1414
f 1415 1431 1430
f 1416 1432 1431
f 1418 1432 1417
f 1420 1434 1419
f 1421 1435 1420
f 1422 1436 1421
f 1423 1437 1422
f 1424 1438 1423
f 1425 1439 1424
f 1426 1440 1425
f 1427 1441 1426
f 1428 1442 1427
f 1429 1443 1428
f 1430 1444 1429
f 1430 1446 1445
f 1432 1446 1431
f 1433 1447 1432
f 1434 1450 1449
f 1436 1450 1435
f 1437 1451 1436
f 1437 1453 1452
f 1439 1453 1438
f 1439 1455 1454
f 1441 1455 1440
f 1442 1456 1441
f 1443 1457 1442
f 1443 1459 1458
f 1444 1460 1459
f 1446 1460 1445
f 1446 1462 1461
f 1447 1463 1462
f 1449 1465 1464
f 1451 1465 1450
f 1452 1466 1451
f 1452 1468 1467
f 1453 1469 1468
f 1455 1469 1454
f 1456 1470 1455
f 1457 1471 1456
f 1457 1473 1472
f 1459 1473 1458
f 1460 1474 1459
f 1461 1475 1460
f 1462 1476 1461
f 1463 1477 1462
f 1465 1479 1464
f 1465 1481 1480
f 1467 1481 1466
f 1468 1482 1467
f 1469 1483 1468
f 1470 1484 1469
f 1470 1486 1485
f 1472 1486 1471
f 1473 1487 1472
f 1474 1488 1473
f 1475 1489 1474
f 1476 1490 1475
f 1477 1491 1476
f 1478 1492 1477
f 1480 1494 1479
f 1481 1495 1480
f 1481 1497 1496
f 1483 1497 1482
f 1484 1498 1483
f 1484 1500 1499
f 1486 1500 1485
f 1487 1501 1486
f 1488 1502 1487
f 1488 1504 1503
f 1490 1504 1489
f 1491 1505 1490
f 1491 1507 1506
f 1492 1508 1507
f 1495 1509 1494
f 1495 1511 1510
f 1496 1512 1511
f 1497 1513 1512
f 1499 1513 1498
f 1500 1514 1499
f 1501 1515 1500
f 1502 1516 1501
f 1502 1518 1517
f 1504 1518 1503
f 1505 1519 1504
f 1506 1520 1505
f 1507 1521 1506
f 1508 1522 1507
f 1510 1524 1509
f 1510 1526 1525
f 1512 1526 1511
f 1513 1527 1512
f 1514 1528 1513
f 1515 1529 1514
f 1515 1531 1530
f 1517 1531 1516
f 1517 1533 1532
f 1519 1533 1518
f 1520 1534 1519
f 1521 1535 1520
f 1521 1537 1536
f 1523 1537 1522
f 98 129 8
f 97 1314 98
f 97 1316 1315
f 95 1316 96
f 94 1317 95
f 93 1318 94
f 93 1320 1319
f 92 1321 1320
f 90 1321 91
f 89 1322 90
f 89 1324 1323
f 87 1324 88
f 86 1325 87
f 85 1326 86
f 85 1328 1327
f 84 53 1328
f 1328 52 1343
f 52 1358 1343
f 1358 50 1373
f 50 1388 1373
f 1388 48 1403
f 48 1418 1403
f 47 1433 1418
f 1433 45 1448
f 1448 44 1463
f 44 1478 1463
f 43 1493 1478
f 1493 41 1508
f 1508 40 1523
f 40 1538 1523
f 39 188 1538
f 1538 187 1537
f 1536 187 186
f 1536 185 1535
f 1534 185 184
f 1534 183 1533
f 1532 183 182
f 1531 182 181
f 1530 181 180
f 1530 179 1529
f 1528 179 178
f 1528 177 1527
f 1527 176 1526
f 1526 175 1525
f 1525 174 1524
f 143 174 6
f 142 1524 143
f 1494 142 141
f 1479 141 140
f 1464 140 139
f 138 1464 139
f 1434 138 137
f 1419 137 136
f 135 1419 136
f 1389 135 134
f 1374 134 133
f 132 1374 133
f 131 1359 132
f 1329 131 130
f 1314 130 129
f 190 205 204
f 190 191 206
f 191 192 207
f 192 193 208
f 194 209 208
f 195 210 209
f 195 196 211
f 197 212 211
f 198 213 212
f 198 199 214
f 200 215 214
f 200 201 216
f 202 217 216
f 203 218 217
f 204 205 220
f 205 206 221
f 206 207 222
f 208 223 222
f 209 224 223
f 210 225 224
f 211 226 225
f 211 212 227
f 212 213 228
f 214 229 228
f 215 230 229
f 216 231 230
f 217 232 231
f 218 233 232
f 220 235 234
f 221 236 235
f 222 237 236
f 223 238 237
f 224 239 238
f 224 225 240
f 226 241 240
f 227 242 241
f 228 243 242
f 228 229 244
f 229 230 245
f 230 231 246
f 231 232 247
f 232 233 248
f 234 235 250
f 236 251 250
f 237 252 251
f 237 238 253
f 239 254 253
f 240 255 254
f 241 256 255
f 242 257 256
f 243 258 257
f 244 259 258
f 245 260 259
f 246 261 260
f 247 262 261
f 248 263 262
f 250 265 264
f 251 266 265
f 251 252 267
f 252 253 268
f 253 254 269
f 254 255 270
f 256 271 270
f 256 257 272
f 257 258 273
f 259 274 273
f 260 275 274
f 260 261 276
f 261 262 277
f 262 263 278
f 265 280 279
f 265 266 281
f 266 267 282
f 268 283 282
f 269 284 283
f 269 270 285
f 270 271 286
f 271 272 287
f 273 288 287
f 273 274 289
f 274 275 290
f 275 276 291
f 276 277 292
f 278 293 292
f 279 280 295
f 280 281 296
f 281 282 297
f 282 283 298
f 283 284 299
f 285 300 299
f 286 301 300
f 287 302 301
f 288 303 302
f 289 304 303
f 290 305 304
f 291 306 305
f 292 307 306
f 293 308 307
f 295 310 309
f 296 311 310
f 297 312 311
f 298 313 312
f 299 314 313
f 300 315 314
f 300 301 316
f 301 302 317
f 303 318 317
f 303 304 319
f 304 305 320
f 305 306 321
f 306 307 322
f 308 323 322
f 309 310 325
f 311 326 325
f 311 312 327
f 312 313 328
f 313 314 329
f 315 330 329
f 316 331 330
f 317 332 331
f 318 333 332
f 319 334 333
f 320 335 334
f 321 336 335
f 322 337 336
f 323 338 337
f 325 340 339
f 325 326 341
f 327 342 341
f 328 343 342
f 329 344 343
f 330 345 344
f 331 346 345
f 331 332 347
f 333 348 347
f 334 349 348
f 335 350 349
f 336 351 350
f 336 337 352
f 338 353 352
f 340 355 354
f 341 356 355
f 341 342 357
f 343 358 357
f 344 359 358
f 344 345 360
f 346 361 360
f 347 362 361
f 348 363 362
f 348 349 364
f 349 350 365
f 350 351 366
f 351 352 367
f 352 353 368
f 354 355 370
f 356 371 370
f 357 372 371
f 357 358 373
f 359 374 373
f 359 360 375
f 360 361 376
f 362 377 376
f 362 363 378
f 364 379 378
f 365 380 379
f 366 381 380
f 367 382 381
f 368 383 382
f 369 370 385
f 370 371 386
f 371 372 387
f 372 373 388
f 373 374 389
f 375 390 389
f 376 391 390
f 377 392 391
f 378 393 392
f 379 394 393
f 379 380 395
f 381 396 395
f 381 382 397
f 382 383 398
f 385 400 399
f 386 401 400
f 387 402 401
f 388 403 402
f 389 404 403
f 389 390 405
f 391 406 405
f 392 407 406
f 393 408 407
f 393 394 409
f 394 395 410
f 395 396 411
f 396 397 412
f 397 398 413
f 1 24 189
f 24 25 190
f 26 191 190
f 27 192 191
f 28 193 192
f 28 29 194
f 29 30 195
f 31 196 195
f 32 197 196
f 33 198 197
f 33 34 199
f 34 35 200
f 35 36 201
f 36 37 202
f 37 38 203
f 2 39 203
f 39 40 218
f 40 41 233
f 41 42 248
f 42 43 263
f 263 43 44
f 44 45 293
f 45 46 308
f 46 47 323
f 47 48 338
f 48 49 353
f 49 50 368
f 50 51 383
f 51 52 398
f 398 52 53
f 53 4 54
f 413 54 55
f 411 412 55
f 411 56 57
f 410 57 58
f 409 58 59
f 407 408 59
f 406 407 60
f 406 61 62
f 404 405 62
f 403 404 63
f 402 403 64
f 401 402 65
f 400 401 66
f 399 400 67
f 9 399 68
f 384 399 9
f 369 384 10
f 12 354 369
f 339 354 12
f 324 339 13
f 15 309 324
f 294 309 15
f 17 279 294
f 264 279 17
f 19 249 264
f 20 234 249
f 219 234 20
f 22 204 219
f 189 204 22
f 415 430 429
f 416 431 430
f 416 417 432
f 418 433 432
f 419 434 433
f 419 420 435
f 421 436 435
f 422 437 436
f 423 438 437
f 423 424 439
f 425 440 439
f 426 441 440
f 426 427 442
f 428 443 442
f 430 445 444
f 431 446 445
f 431 432 447
f 432 433 448
f 433 434 449
f 435 450 449
f 436 451 450
f 436 437 452
f 438 453 452
f 439 454 453
f 440 455 454
f 441 456 455
f 442 457 456
f 443 458 457
f 444 445 460
f 445 446 461
f 447 462 461
f 448 463 462
f 449 464 463
f 450 465 464
f 450 451 466
f 452 467 466
f 453 468 467
f 453 454 469
f 455 470 469
f 456 471 470
f 457 472 471
f 457 458 473
f 460 475 474
f 461 476 475
f 462 477 476
f 463 478 477
f 464 479 478
f 464 465 480
f 465 466 481
f 467 482 481
f 468 483 482
f 469 484 483
f 469 470 485
f 470 471 486
f 471 472 487
f 473 488 487
f 475 490 489
f 476 491 490
f 476 477 492
f 477 478 493
f 478 479 494
f 480 495 494
f 481 496 495
f 482 497 496
f 483 498 497
f 484 499 498
f 485 500 499
f 486 501 500
f 487 502 501
f 487 488 503
f 489 490 505
f 490 491 506
f 492 507 506
f 493 508 507
f 494 509 508
f 495 510 509
f 496 511 510
f 496 497 512
f 497 498 513
f 498 499 514
f 499 500 515
f 500 501 516
f 502 517 516
f 503 518 517
f 505 520 519
f 506 521 520
f 506 507 522
f 507 508 523
f 508 509 524
f 510 525 524
f 511 526 525
f 512 527 526
f 513 528 527
f 514 529 528
f 515 530 529
f 516 531 530
f 516 517 532
f 518 533 532
f 520 535 534
f 521 536 535
f 522 537 536
f 523 538 537
f 524 539 538
f 525 540 539
f 526 541 540
f 526 527 542
f 528 543 542
f 529 544 543
f 530 545 544
f 530 531 546
f 532 547 546
f 533 548 547
f 534 535 550
f 536 551 550
f 536 537 552
f 537 538 553
f 539 554 553
f 539 540 555
f 540 541 556
f 542 557 556
f 543 558 557
f 543 544 559
f 544 545 560
f 546 561 560
f 547 562 561
f 547 548 563
f 550 565 564
f 551 566 565
f 552 567 566
f 552 553 568
f 554 569 568
f 555 570 569
f 555 556 571
f 557 572 571
f 558 573 572
f 559 574 573
f 560 575 574
f 561 576 575
f 562 577 576
f 563 578 577
f 564 565 580
f 566 581 580
f 567 582 581
f 568 583 582
f 568 569 584
f 570 585 584
f 571 586 585
f 572 587 586
f 573 588 587
f 574 589 588
f 575 590 589
f 575 576 591
f 576 577 592
f 578 593 592
f 579 580 595
f 581 596 595
f 582 597 596
f 582 583 598
f 583 584 599
f 585 600 599
f 586 601 600
f 587 602 601
f 588 603 602
f 588 589 604
f 589 590 605
f 591 606 605
f 592 607 606
f 593 608 607
f 595 610 609
f 595 596 611
f 597 612 611
f 598 613 612
f 599 614 613
f 600 615 614
f 601 616 615
f 601 602 617
f 602 603 618
f 604 619 618
f 605 620 619
f 606 621 620
f 607 622 621
f 608 623 622
f 609 610 625
f 611 626 625
f 612 627 626
f 613 628 627
f 613 614 629
f 615 630 629
f 616 631 630
f 616 617 632
f 618 633 632
f 619 634 633
f 620 635 634
f 621 636 635
f 622 637 636
f 623 638 637
f 68 414 83
f 67 415 414
f 67 66 416
f 65 417 416
f 65 64 418
f 63 419 418
f 63 62 420
f 61 421 420
f 60 422 421
f 59 423 422
f 59 58 424
f 57 425 424
f 56 426 425
f 55 427 426
f 54 428 427
f 54 4 84
f 84 85 443
f 85 86 458
f 458 86 87
f 87 88 488
f 488 88 89
f 89 90 518
f 90 91 533
f 91 92 548
f 548 92 93
f 93 94 578
f 578 94 95
f 95 96 608
f 608 96 97
f 97 98 638
f 98 8 99
f 638 99 100
f 637 100 101
f 635 636 101
f 635 102 103
f 634 103 104
f 633 104 105
f 631 632 105
f 631 106 107
f 630 107 108
f 628 629 108
f 628 109 110
f 627 110 111
f 626 111 112
f 624 625 112
f 69 624 113
f 609 624 69
f 594 609 70
f 579 594 71
f 73 564 579
f 549 564 73
f 75 534 549
f 519 534 75
f 504 519 76
f 489 504 77
f 474 489 78
f 80 459 474
f 81 444 459
f 429 444 81
f 83 414 429
f 639 640 655
f 641 656 655
f 642 657 656
f 643 658 657
f 643 644 659
f 644 645 660
f 646 661 660
f 647 662 661
f 648 663 662
f 649 664 663
f 650 665 664
f 651 666 665
f 651 652 667
f 653 668 667
f 655 670 669
f 655 656 671
f 656 657 672
f 657 658 673
f 658 659 674
f 660 675 674
f 660 661 676
f 662 677 676
f 662 663 678
f 664 679 678
f 665 680 679
f 666 681 680
f 667 682 681
f 668 683 682
f 669 670 685
f 670 671 686
f 672 687 686
f 672 673 688
f 674 689 688
f 675 690 689
f 675 676 691
f 677 692 691
f 677 678 693
f 679 694 693
f 680 695 694
f 681 696 695
f 682 697 696
f 682 683 698
f 685 700 699
f 686 701 700
f 687 702 701
f 688 703 702
f 689 704 703
f 689 690 705
f 691 706 705
f 692 707 706
f 693 708 707
f 694 709 708
f 695 710 709
f 695 696 711
f 696 697 712
f 698 713 712
f 700 715 714
f 700 701 716
f 701 702 717
f 702 703 718
f 703 704 719
f 705 720 719
f 706 721 720
f 707 722 721
f 708 723 722
f 709 724 723
f 710 725 724
f 711 726 725
f 712 727 726
f 712 713 728
f 714 715 730
f 715 716 731
f 717 732 731
f 718 733 732
f 719 734 733
f 720 735 734
f 721 736 735
f 722 737 736
f 722 723 738
f 724 739 738
f 724 725 740
f 725 726 741
f 727 742 741
f 728 743 742
f 730 745 744
f 731 746 745
f 731 732 747
f 732 733 748
f 734 749 748
f 735 750 749
f 736 751 750
f 737 752 751
f 738 753 752
f 739 754 753
f 740 755 754
f 741 756 755
f 742 757 756
f 743 758 757
f 745 760 759
f 746 761 760
f 747 762 761
f 748 763 762
f 749 764 763
f 750 765 764
f 751 766 765
f 751 752 767
f 753 768 767
f 754 769 768
f 755 770 769
f 755 756 771
f 756 757 772
f 758 773 772
f 759 760 775
f 761 776 775
f 761 762 777
f 762 763 778
f 764 779 778
f 765 780 779
f 765 766 781
f 767 782 781
f 768 783 782
f 768 769 784
f 769 770 785
f 771 786 785
f 771 772 787
f 772 773 788
f 775 790 789
f 776 791 790
f 777 792 791
f 778 793 792
f 778 779 794
f 780 795 794
f 781 796 795
f 782 797 796
f 782 783 798
f 784 799 798
f 785 800 799
f 786 801 800
f 787 802 801
f 788 803 802
f 789 790 805
f 791 806 805
f 792 807 806
f 793 808 807
f 794 809 808
f 795 810 809
f 796 811 810
f 797 812 811
f 798 813 812
f 799 814 813
f 800 815 814
f 800 801 816
f 801 802 817
f 802 803 818
f 804 805 820
f 805 806 821
f 806 807 822
f 807 808 823
f 809 824 823
f 810 825 824
f 811 826 825
f 812 827 826
f 813 828 827
f 813 814 829
f 815 830 829
f 816 831 830
f 817 832 831
f 818 833 832
f 820 835 834
f 821 836 835
f 822 837 836
f 823 838 837
f 824 839 838
f 824 825 840
f 825 826 841
f 826 827 842
f 828 843 842
f 829 844 843
f 830 845 844
f 831 846 845
f 831 832 847
f 833 848 847
f 835 850 849
f 836 851 850
f 837 852 851
f 838 853 852
f 839 854 853
f 840 855 854
f 841 856 855
f 842 857 856
f 843 858 857
f 844 859 858
f 845 860 859
f 846 861 860
f 847 862 861
f 848 863 862
f 113 639 128
f 112 640 639
f 111 641 640
f 110 642 641
f 110 109 643
f 108 644 643
f 108 107 645
f 106 646 645
f 105 647 646
f 105 104 648
f 104 103 649
f 102 650 649
f 101 651 650
f 101 100 652
f 100 99 653
f 99 8 129
f 129 130 668
f 130 131 683
f 683 131 132
f 132 133 713
f 713 133 134
f 134 135 743
f 135 136 758
f 136 137 773
f 773 137 138
f 138 139 803
f 139 140 818
f 140 141 833
f 833 141 142
f 142 143 863
f 143 6 144
f 863 144 145
f 862 145 146
f 860 861 146
f 860 147 148
f 858 859 148
f 857 858 149
f 856 857 150
f 855 856 151
f 855 152 153
f 853 854 153
f 853 154 155
f 852 155 156
f 851 156 157
f 849 850 157
f 114 849 158
f 834 849 114
f 819 834 115
f 804 819 116
f 118 789 804
f 774 789 118
f 120 759 774
f 744 759 120
f 122 729 744
f 714 729 122
f 699 714 123
f 125 684 699
f 669 684 125
f 654 669 126
f 128 639 654
f 865 880 879
f 866 881 880
f 866 867 882
f 868 883 882
f 869 884 883
f 869 870 885
f 871 886 885
f 872 887 886
f 873 888 887
f 873 874 889
f 875 890 889
f 876 891 890
f 876 877 892
f 878 893 892
f 880 895 894
f 881 896 895
f 881 882 897
f 882 883 898
f 883 884 899
f 885 900 899
f 886 901 900
f 886 887 902
f 888 903 902
f 889 904 903
f 890 905 904
f 891 906 905
f 892 907 906
f 893 908 907
f 894 895 910
f 895 896 911
f 897 912 911
f 898 913 912
f 899 914 913
f 900 915 914
f 900 901 916
f 902 917 916
f 903 918 917
f 903 904 919
f 905 920 919
f 906 921 920
f 907 922 921
f 907 908 923
f 910 925 924
f 911 926 925
f 912 927 926
f 913 928 927
f 914 929 928
f 914 915 930
f 915 916 931
f 917 932 931
f 918 933 932
f 919 934 933
f 919 920 935
f 920 921 936
f 921 922 937
f 923 938 937
f 925 940 939
f 926 941 940
f 926 927 942
f 927 928 943
f 928 929 944
f 930 945 944
f 931 946 945
f 932 947 946
f 933 948 947
f 934 949 948
f 935 950 949
f 936 951 950
f 937 952 951
f 937 938 953
f 939 940 955
f 940 941 956
f 942 957 956
f 943 958 957
f 944 959 958
f 945 960 959
f 946 961 960
f 946 947 962
f 947 948 963
f 948 949 964
f 949 950 965
f 950 951 966
f 952 967 966
f 953 968 967
f 955 970 969
f 956 971 970
f 956 957 972
f 957 958 973
f 958 959 974
f 960 975 974
f 961 976 975
f 962 977 976
f 963 978 977
f 964 979 978
f 965 980 979
f 966 981 980
f 966 967 982
f 968 983 982
f 970 985 984
f 971 986 985
f 972 987 986
f 973 988 987
f 974 989 988
f 975 990 989
f 976 991 990
f 976 977 992
f 978 993 992
f 979 994 993
f 980 995 994
f 980 981 996
f 982 997 996
f 983 998 997
f 984 985 1000
f 986 1001 1000
f 986 987 1002
f 987 988 1003
f 989 1004 1003
f 989 990 1005
f 990 991 1006
f 992 1007 1006
f 993 1008 1007
f 993 994 1009
f 994 995 1010
f 996 1011 1010
f 997 1012 1011
f 997 998 1013
f 1000 1015 1014
f 1001 1016 1015
f 1002 1017 1016
f 1002 1003 1018
f 1004 1019 1018
f 1005 1020 1019
f 1005 1006 1021
f 1007 1022 1021
f 1008 1023 1022
f 1009 1024 1023
f 1010 1025 1024
f 1011 1026 1025
f 1012 1027 1026
f 1013 1028 1027
f 1014 1015 1030
f 1016 1031 1030
f 1017 1032 1031
f 1018 1033 1032
f 1018 1019 1034
f 1020 1035 1034
f 1021 1036 1035
f 1022 1037 1036
f 1023 1038 1037
f 1024 1039 1038
f 1025 1040 1039
f 1025 1026 1041
f 1026 1027 1042
f 1028 1043 1042
f 1029 1030 1045
f 1031 1046 1045
f 1032 1047 1046
f 1032 1033 1048
f 1033 1034 1049
f 1035 1050 1049
f 1036 1051 1050
f 1037 1052 1051
f 1038 1053 1052
f 1038 1039 1054
f 1039 1040 1055
f 1041 1056 1055
f 1042 1057 1056
f 1043 1058 1057
f 1045 1060 1059
f 1045 1046 1061
f 1047 1062 1061
f 1048 1063 1062
f 1049 1064 1063
f 1050 1065 1064
f 1051 1066 1065
f 1051 1052 1067
f 1052 1053 1068
f 1054 1069 1068
f 1055 1070 1069
f 1056 1071 1070
f 1057 1072 1071
f 1058 1073 1072
f 1059 1060 1075
f 1061 1076 1075
f 1062 1077 1076
f 1063 1078 1077
f 1063 1064 1079
f 1065 1080 1079
f 1066 1081 1080
f 1066 1067 1082
f 1068 1083 1082
f 1069 1084 1083
f 1070 1085 1084
f 1071 1086 1085
f 1072 1087 1086
f 1073 1088 1087
f 158 864 173
f 157 865 864
f 156 866 865
f 156 155 867
f 155 154 868
f 153 869 868
f 153 152 870
f 151 871 870
f 150 872 871
f 149 873 872
f 149 148 874
f 147 875 874
f 146 876 875
f 146 145 877
f 145 144 878
f 144 6 174
f 174 175 893
f 175 176 908
f 908 176 177
f 177 178 938
f 938 178 179
f 179 180 968
f 180 181 983
f 181 182 998
f 998 182 183
f 183 184 1028
f 1028 184 185
f 185 186 1058
f 1058 186 187
f 187 188 1088
f 188 2 38
f 1087 1088 38
f 1087 37 36
f 1086 36 35
f 1085 35 34
f 1084 34 33
f 1082 1083 33
f 1081 1082 32
f 1081 31 30
f 1080 30 29
f 1078 1079 29
f 1078 28 27
f 1077 27 26
f 1075 1076 26
f 1075 25 24
f 159 1074 24
f 1059 1074 159
f 1044 1059 160
f 1029 1044 161
f 163 1014 1029
f 999 1014 163
f 165 984 999
f 969 984 165
f 954 969 166
f 939 954 167
f 924 939 168
f 170 909 924
f 171 894 909
f 879 894 171
f 173 864 879
f 1090 1105 1104
f 1091 1106 1105
f 1092 1107 1106
f 1092 1093 1108
f 1094 1109 1108
f 1094 1095 1110
f 1095 1096 1111
f 1097 1112 1111
f 1098 1113 1112
f 1099 1114 1113
f 1099 1100 1115
f 1100 1101 1116
f 1101 1102 1117
f 1102 1103 1118
f 1105 1120 1119
f 1106 1121 1120
f 1107 1122 1121
f 1108 1123 1122
f 1109 1124 1123
f 1110 1125 1124
f 1110 1111 1126
f 1112 1127 1126
f 1113 1128 1127
f 1114 1129 1128
f 1115 1130 1129
f 1115 1116 1131
f 1117 1132 1131
f 1118 1133 1132
f 1119 1120 1135
f 1120 1121 1136
f 1121 1122 1137
f 1122 1123 1138
f 1123 1124 1139
f 1125 1140 1139
f 1125 1126 1141
f 1127 1142 1141
f 1127 1128 1143
f 1129 1144 1143
f 1130 1145 1144
f 1131 1146 1145
f 1132 1147 1146
f 1133 1148 1147
f 1135 1150 1149
f 1136 1151 1150
f 1137 1152 1151
f 1137 1138 1153
f 1139 1154 1153
f 1140 1155 1154
f 1141 1156 1155
f 1142 1157 1156
f 1143 1158 1157
f 1144 1159 1158
f 1145 1160 1159
f 1145 1146 1161
f 1146 1147 1162
f 1148 1163 1162
f 1150 1165 1164
f 1150 1151 1166
f 1151 1152 1167
f 1153 1168 1167
f 1154 1169 1168
f 1154 1155 1170
f 1155 1156 1171
f 1156 1157 1172
f 1158 1173 1172
f 1158 1159 1174
f 1159 1160 1175
f 1161 1176 1175
f 1161 1162 1177
f 1162 1163 1178
f 1164 1165 1180
f 1165 1166 1181
f 1167 1182 1181
f 1168 1183 1182
f 1169 1184 1183
f 1170 1185 1184
f 1171 1186 1185
f 1172 1187 1186
f 1172 1173 1188
f 1174 1189 1188
f 1174 1175 1190
f 1176 1191 1190
f 1177 1192 1191
f 1178 1193 1192
f 1179 1180 1195
f 1181 1196 1195
f 1182 1197 1196
f 1182 1183 1198
f 1184 1199 1198
f 1185 1200 1199
f 1186 1201 1200
f 1186 1187 1202
f 1187 1188 1203
f 1188 1189 1204
f 1190 1205 1204
f 1190 1191 1206
f 1191 1192 1207
f 1193 1208 1207
f 1195 1210 1209
f 1196 1211 1210
f 1197 1212 1211
f 1198 1213 1212
f 1199 1214 1213
f 1200 1215 1214
f 1201 1216 1215
f 1202 1217 1216
f 1203 1218 1217
f 1204 1219 1218
f 1205 1220 1219
f 1205 1206 1221
f 1207 1222 1221
f 1208 1223 1222
f 1209 1210 1225
f 1211 1226 1225
f 1212 1227 1226
f 1212 1213 1228
f 1214 1229 1228
f 1214 1215 1230
f 1216 1231 1230
f 1217 1232 1231
f 1218 1233 1232
f 1218 1219 1234
f 1219 1220 1235
f 1221 1236 1235
f 1221 1222 1237
f 1222 1223 1238
f 1224 1225 1240
f 1226 1241 1240
f 1227 1242 1241
f 1227 1228 1243
f 1228 1229 1244
f 1230 1245 1244
f 1231 1246 1245
f 1232 1247 1246
f 1232 1233 1248
f 1234 1249 1248
f 1235 1250 1249
f 1236 1251 1250
f 1237 1252 1251
f 1238 1253 1252
f 1240 1255 1254
f 1240 1241 1256
f 1242 1257 1256
f 1243 1258 1257
f 1244 1259 1258
f 1245 1260 1259
f 1245 1246 1261
f 1247 1262 1261
f 1248 1263 1262
f 1249 1264 1263
f 1250 1265 1264
f 1251 1266 1265
f 1252 1267 1266
f 1253 1268 1267
f 1255 1270 1269
f 1256 1271 1270
f 1256 1257 1272
f 1258 1273 1272
f 1259 1274 1273
f 1259 1260 1275
f 1261 1276 1275
f 1262 1277 1276
f 1263 1278 1277
f 1263 1264 1279
f 1265 1280 1279
f 1266 1281 1280
f 1266 1267 1282
f 1267 1268 1283
f 1270 1285 1284
f 1270 1271 1286
f 1271 1272 1287
f 1272 1273 1288
f 1274 1289 1288
f 1275 1290 1289
f 1276 1291 1290
f 1277 1292 1291
f 1277 1278 1293
f 1279 1294 1293
f 1280 1295 1294
f 1281 1296 1295
f 1282 1297 1296
f 1283 1298 1297
f 1285 1300 1299
f 1285 1286 1301
f 1287 1302 1301
f 1288 1303 1302
f 1289 1304 1303
f 1290 1305 1304
f 1290 1291 1306
f 1292 1307 1306
f 1292 1293 1308
f 1294 1309 1308
f 1295 1310 1309
f 1296 1311 1310
f 1296 1297 1312
f 1298 1313 1312
f 83 1089 9
f 83 82 1090
f 81 1091 1090
f 80 1092 1091
f 79 1093 1092
f 78 1094 1093
f 78 77 1095
f 77 76 1096
f 75 1097 1096
f 74 1098 1097
f 74 73 1099
f 72 1100 1099
f 71 1101 1100
f 70 1102 1101
f 69 1103 1102
f 69 7 128
f 1103 128 127
f 1118 127 126
f 126 125 1148
f 125 124 1163
f 1163 124 123
f 123 122 1193
f 122 121 1208
f 1208 121 120
f 1223 120 119
f 119 118 1253
f 118 117 1268
f 1268 117 116
f 116 115 1298
f 1298 115 114
f 114 5 173
f 1313 173 172
f 1312 172 171
f 1310 1311 171
f 1309 1310 170
f 1309 169 168
f 1307 1308 168
f 1307 167 166
f 1306 166 165
f 1305 165 164
f 1303 1304 164
f 1303 163 162
f 1302 162 161
f 1301 161 160
f 1300 160 159
f 23 1299 159
f 22 1284 1299
f 1269 1284 22
f 1254 1269 21
f 1239 1254 20
f 18 1224 1239
f 1209 1224 18
f 1194 1209 17
f 15 1179 1194
f 14 1164 1179
f 1149 1164 14
f 12 1134 1149
f 11 1119 1134
f 1104 1119 11
f 9 1089 1104
f 1315 1330 1329
f 1316 1331 1330
f 1317 1332 1331
f 1317 1318 1333
f 1319 1334 1333
f 1319 1320 1335
f 1320 1321 1336
f 1322 1337 1336
f 1323 1338 1337
f 1324 1339 1338
f 1324 1325 1340
f 1325 1326 1341
f 1326 1327 1342
f 1327 1328 1343
f 1330 1345 1344
f 1331 1346 1345
f 1332 1347 1346
f 1333 1348 1347
f 1334 1349 1348
f 1335 1350 1349
f 1335 1336 1351
f 1337 1352 1351
f 1338 1353 1352
f 1339 1354 1353
f 1340 1355 1354
f 1340 1341 1356
f 1342 1357 1356
f 1343 1358 1357
f 1344 1345 1360
f 1345 1346 1361
f 1346 1347 1362
f 1347 1348 1363
f 1348 1349 1364
f 1350 1365 1364
f 1350 1351 1366
f 1352 1367 1366
f 1352 1353 1368
f 1354 1369 1368
f 1355 1370 1369
f 1356 1371 1370
f 1357 1372 1371
f 1358 1373 1372
f 1360 1375 1374
f 1361 1376 1375
f 1362 1377 1376
f 1362 1363 1378
f 1364 1379 1378
f 1365 1380 1379
f 1366 1381 1380
f 1367 1382 1381
f 1368 1383 1382
f 1369 1384 1383
f 1370 1385 1384
f 1370 1371 1386
f 1371 1372 1387
f 1373 1388 1387
f 1375 1390 1389
f 1375 1376 1391
f 1376 1377 1392
f 1378 1393 1392
f 1379 1394 1393
f 1379 1380 1395
f 1380 1381 1396
f 1381 1382 1397
f 1383 1398 1397
f 1383 1384 1399
f 1384 1385 1400
f 1386 1401 1400
f 1386 1387 1402
f 1387 1388 1403
f 1389 1390 1405
f 1390 1391 1406
f 1392 1407 1406
f 1393 1408 1407
f 1394 1409 1408
f 1395 1410 1409
f 1396 1411 1410
f 1397 1412 1411
f 1397 1398 1413
f 1399 1414 1413
f 1399 1400 1415
f 1401 1416 1415
f 1402 1417 1416
f 1403 1418 1417
f 1404 1405 1420
f 1406 1421 1420
f 1407 1422 1421
f 1407 1408 1423
f 1409 1424 1423
f 1410 1425 1424
f 1411 1426 1425
f 1411 1412 1427
f 1412 1413 1428
f 1413 1414 1429
f 1415 1430 1429
f 1415 1416 1431
f 1416 1417 1432
f 1418 1433 1432
f 1420 1435 1434
f 1421 1436 1435
f 1422 1437 1436
f 1423 1438 1437
f 1424 1439 1438
f 1425 1440 1439
f 1426 1441 1440
f 1427 1442 1441
f 1428 1443 1442
f 1429 1444 1443
f 1430 1445 1444
f 1430 1431 1446
f 1432 1447 1446
f 1433 1448 1447
f 1434 1435 1450
f 1436 1451 1450
f 1437 1452 1451
f 1437 1438 1453
f 1439 1454 1453
f 1439 1440 1455
f 1441 1456 1455
f 1442 1457 1456
f 1443 1458 1457
f 1443 1444 1459
f 1444 1445 1460
f 1446 1461 1460
f 1446 1447 1462
f 1447 1448 1463
f 1449 1450 1465
f 1451 1466 1465
f 1452 1467 1466
f 1452 1453 1468
f 1453 1454 1469
f 1455 1470 1469
f 1456 1471 1470
f 1457 1472 1471
f 1457 1458 1473
f 1459 1474 1473
f 1460 1475 1474
f 1461 1476 1475
f 1462 1477 1476
f 1463 1478 1477
f 1465 1480 1479
f 1465 1466 1481
f 1467 1482 1481
f 1468 1483 1482
f 1469 1484 1483
f 1470 1485 1484
f 1470 1471 1486
f 1472 1487 1486
f 1473 1488 1487
f 1474 1489 1488
f 1475 1490 1489
f 1476 1491 1490
f 1477 1492 1491
f 1478 1493 1492
f 1480 1495 1494
f 1481 1496 1495
f 1481 1482 1497
f 1483 1498 1497
f 1484 1499 1498
f 1484 1485 1500
f 1486 1501 1500
f 1487 1502 1501
f 1488 1503 1502
f 1488 1489 1504
f 1490 1505 1504
f 1491 1506 1505
f 1491 1492 1507
f 1492 1493 1508
f 1495 1510 1509
f 1495 1496 1511
f 1496 1497 1512
f 1497 1498 1513
f 1499 1514 1513
f 1500 1515 1514
f 1501 1516 1515
f 1502 1517 1516
f 1502 1503 1518
f 1504 1519 1518
f 1505 1520 1519
f 1506 1521 1520
f 1507 1522 1521
f 1508 1523 1522
f 1510 1525 1524
f 1510 1511 1526
f 1512 1527 1526
f 1513 1528 1527
f 1514 1529 1528
f 1515 1530 1529
f 1515 1516 1531
f 1517 1532 1531
f 1517 1518 1533
f 1519 1534 1533
f 1520 1535 1534
f 1521 1536 1535
f 1521 1522 1537
f 1523 1538 1537
f 98 1314 129
f 97 1315 1314
f 97 96 1316
f 95 1317 1316
f 94 1318 1317
f 93 1319 1318
f 93 92 1320
f 92 91 1321
f 90 1322 1321
f 89 1323 1322
f 89 88 1324
f 87 1325 1324
f 86 1326 1325
f 85 1327 1326
f 85 84 1328
f 84 4 53
f 1328 53 52
f 52 51 1358
f 1358 51 50
f 50 49 1388
f 1388 49 48
f 48 47 1418
f 47 46 1433
f 1433 46 45
f 1448 45 44
f 44 43 1478
f 43 42 1493
f 1493 42 41
f 1508 41 40
f 40 39 1538
f 39 2 188
f 1538 188 187
f 1536 1537 187
f 1536 186 185
f 1534 1535 185
f 1534 184 183
f 1532 1533 183
f 1531 1532 182
f 1530 1531 181
f 1530 180 179
f 1528 1529 179
f 1528 178 177
f 1527 177 176
f 1526 176 175
f 1525 175 174
f 143 1524 174
f 142 1509 1524
f 1494 1509 142
f 1479 1494 141
f 1464 1479 140
f 138 1449 1464
f 1434 1449 138
f 1419 1434 137
f 135 1404 1419
f 1389 1404 135
f 1374 1389 134
f 132 1359 1374
f 131 1344 1359
f 1329 1344 131
f 1314 1329 130
