# Blender 4.4.3
# www.blender.org
o brick_x-1-0.001
v -0.112598 -0.317897 0.889544
v -0.112550 -0.100644 1.103204
v -0.113046 -0.214413 0.784320
v -0.112997 0.002840 0.997980
v 0.119580 -0.317430 0.889016
v 0.119628 -0.100177 1.102676
v 0.119133 -0.213946 0.783793
v 0.119181 0.003307 0.997452
v -0.113018 -0.220881 0.790897
v -0.112990 -0.227349 0.797473
v -0.112962 -0.233817 0.804050
v -0.112934 -0.240284 0.810626
v -0.112906 -0.246752 0.817203
v -0.112878 -0.253220 0.823779
v -0.112850 -0.259687 0.830356
v -0.112822 -0.266155 0.836932
v -0.112794 -0.272623 0.843508
v -0.112766 -0.279091 0.850085
v -0.112738 -0.285558 0.856661
v -0.112710 -0.292026 0.863238
v -0.112682 -0.298494 0.869814
v -0.112654 -0.304961 0.876391
v -0.112626 -0.311429 0.882967
v -0.112595 -0.304318 0.902898
v -0.112592 -0.290740 0.916251
v -0.112589 -0.277162 0.929605
v -0.112586 -0.263583 0.942959
v -0.112583 -0.250005 0.956313
v -0.112580 -0.236427 0.969666
v -0.112577 -0.222849 0.983020
v -0.112574 -0.209270 0.996374
v -0.112571 -0.195692 1.009727
v -0.112568 -0.182114 1.023081
v -0.112565 -0.168535 1.036435
v -0.112562 -0.154957 1.049789
v -0.112559 -0.141379 1.063143
v -0.112556 -0.127800 1.076496
v -0.112553 -0.114222 1.089850
v -0.112578 -0.094176 1.096627
v -0.112606 -0.087708 1.090051
v -0.112634 -0.081240 1.083474
v -0.112662 -0.074773 1.076898
v -0.112690 -0.068305 1.070321
v -0.112718 -0.061837 1.063745
v -0.112746 -0.055370 1.057168
v -0.112774 -0.048902 1.050592
v -0.112802 -0.042434 1.044015
v -0.112830 -0.035966 1.037439
v -0.112858 -0.029499 1.030862
v -0.112885 -0.023031 1.024286
v -0.112913 -0.016563 1.017709
v -0.112941 -0.010096 1.011133
v -0.112969 -0.003628 1.004556
v -0.113000 -0.010738 0.984626
v -0.113003 -0.024317 0.971273
v -0.113006 -0.037895 0.957919
v -0.113009 -0.051473 0.944565
v -0.113012 -0.065052 0.931211
v -0.113015 -0.078630 0.917858
v -0.113018 -0.092208 0.904504
v -0.113021 -0.105787 0.891150
v -0.113025 -0.119365 0.877796
v -0.113028 -0.132943 0.864443
v -0.113031 -0.146522 0.851089
v -0.113034 -0.160100 0.837735
v -0.113037 -0.173678 0.824381
v -0.113040 -0.187257 0.811028
v -0.113043 -0.200835 0.797674
v 0.104622 -0.213976 0.783826
v 0.090110 -0.214005 0.783859
v 0.075599 -0.214034 0.783892
v 0.061088 -0.214063 0.783925
v 0.046577 -0.214092 0.783957
v 0.032066 -0.214122 0.783991
v 0.017555 -0.214151 0.784023
v 0.003044 -0.214180 0.784056
v -0.011468 -0.214209 0.784089
v -0.025979 -0.214238 0.784122
v -0.040490 -0.214267 0.784155
v -0.055001 -0.214297 0.784188
v -0.069512 -0.214326 0.784221
v -0.084023 -0.214355 0.784254
v -0.098535 -0.214384 0.784287
v -0.098486 0.002869 0.997947
v -0.083975 0.002898 0.997914
v -0.069464 0.002927 0.997881
v -0.054953 0.002957 0.997848
v -0.040442 0.002986 0.997815
v -0.025930 0.003015 0.997782
v -0.011419 0.003044 0.997749
v 0.003092 0.003073 0.997716
v 0.017603 0.003103 0.997683
v 0.032114 0.003132 0.997650
v 0.046625 0.003161 0.997617
v 0.061137 0.003190 0.997584
v 0.075648 0.003219 0.997551
v 0.090159 0.003248 0.997518
v 0.104670 0.003278 0.997485
v 0.119178 -0.010271 0.984099
v 0.119175 -0.023850 0.970745
v 0.119172 -0.037428 0.957391
v 0.119169 -0.051006 0.944038
v 0.119166 -0.064585 0.930684
v 0.119163 -0.078163 0.917330
v 0.119160 -0.091741 0.903976
v 0.119157 -0.105320 0.890623
v 0.119154 -0.118898 0.877269
v 0.119151 -0.132476 0.863915
v 0.119148 -0.146055 0.850561
v 0.119145 -0.159633 0.837208
v 0.119142 -0.173211 0.823854
v 0.119139 -0.186790 0.810500
v 0.119136 -0.200368 0.797146
v 0.119552 -0.310962 0.882440
v 0.119524 -0.304494 0.875863
v 0.119496 -0.298027 0.869287
v 0.119468 -0.291559 0.862710
v 0.119440 -0.285091 0.856134
v 0.119412 -0.278624 0.849558
v 0.119384 -0.272156 0.842981
v 0.119356 -0.265688 0.836405
v 0.119328 -0.259220 0.829828
v 0.119300 -0.252753 0.823252
v 0.119273 -0.246285 0.816675
v 0.119245 -0.239817 0.810099
v 0.119217 -0.233350 0.803522
v 0.119189 -0.226882 0.796946
v 0.119161 -0.220414 0.790369
v 0.119209 -0.003161 1.004029
v 0.119237 -0.009629 1.010605
v 0.119265 -0.016096 1.017182
v 0.119293 -0.022564 1.023758
v 0.119321 -0.029032 1.030335
v 0.119349 -0.035499 1.036911
v 0.119377 -0.041967 1.043488
v 0.119405 -0.048435 1.050064
v 0.119433 -0.054903 1.056641
v 0.119461 -0.061370 1.063217
v 0.119489 -0.067838 1.069794
v 0.119517 -0.074306 1.076370
v 0.119545 -0.080773 1.082947
v 0.119572 -0.087241 1.089523
v 0.119600 -0.093709 1.096100
v 0.119625 -0.113755 1.089323
v 0.119622 -0.127333 1.075969
v 0.119619 -0.140912 1.062615
v 0.119616 -0.154490 1.049261
v 0.119613 -0.168068 1.035908
v 0.119610 -0.181646 1.022554
v 0.119607 -0.195225 1.009200
v 0.119604 -0.208803 0.995846
v 0.119601 -0.222382 0.982493
v 0.119598 -0.235960 0.969139
v 0.119595 -0.249538 0.955785
v 0.119592 -0.263116 0.942431
v 0.119589 -0.276695 0.929078
v 0.119586 -0.290273 0.915724
v 0.119583 -0.303851 0.902370
v -0.098087 -0.317868 0.889511
v -0.083576 -0.317838 0.889478
v -0.069065 -0.317809 0.889445
v -0.054554 -0.317780 0.889412
v -0.040043 -0.317751 0.889379
v -0.025532 -0.317722 0.889346
v -0.011020 -0.317693 0.889313
v 0.003491 -0.317663 0.889280
v 0.018002 -0.317634 0.889247
v 0.032513 -0.317605 0.889214
v 0.047024 -0.317576 0.889181
v 0.061535 -0.317547 0.889148
v 0.076047 -0.317517 0.889115
v 0.090558 -0.317488 0.889082
v 0.105069 -0.317459 0.889049
v 0.105117 -0.100206 1.102709
v 0.090606 -0.100235 1.102742
v 0.076095 -0.100264 1.102775
v 0.061584 -0.100293 1.102808
v 0.047073 -0.100322 1.102841
v 0.032561 -0.100352 1.102874
v 0.018050 -0.100381 1.102907
v 0.003539 -0.100410 1.102940
v -0.010972 -0.100439 1.102973
v -0.025483 -0.100468 1.103006
v -0.039994 -0.100498 1.103039
v -0.054505 -0.100527 1.103072
v -0.069017 -0.100556 1.103105
v -0.083528 -0.100585 1.103138
v -0.098039 -0.100614 1.103171
v -0.112623 -0.297851 0.896321
v -0.112620 -0.284272 0.909675
v -0.112617 -0.270694 0.923029
v -0.112614 -0.257116 0.936382
v -0.112611 -0.243537 0.949736
v -0.112608 -0.229959 0.963090
v -0.112605 -0.216381 0.976444
v -0.112602 -0.202802 0.989797
v -0.112599 -0.189224 1.003151
v -0.112596 -0.175646 1.016505
v -0.112593 -0.162067 1.029859
v -0.112590 -0.148489 1.043212
v -0.112587 -0.134911 1.056566
v -0.112584 -0.121332 1.069920
v -0.112581 -0.107754 1.083273
v -0.112651 -0.291383 0.889745
v -0.112648 -0.277805 0.903098
v -0.112645 -0.264226 0.916452
v -0.112642 -0.250648 0.929806
v -0.112639 -0.237070 0.943160
v -0.112636 -0.223491 0.956513
v -0.112633 -0.209913 0.969867
v -0.112630 -0.196335 0.983221
v -0.112627 -0.182756 0.996575
v -0.112624 -0.169178 1.009928
v -0.112621 -0.155600 1.023282
v -0.112618 -0.142021 1.036636
v -0.112615 -0.128443 1.049989
v -0.112612 -0.114865 1.063343
v -0.112609 -0.101286 1.076697
v -0.112679 -0.284915 0.883168
v -0.112676 -0.271337 0.896522
v -0.112673 -0.257759 0.909876
v -0.112670 -0.244180 0.923229
v -0.112667 -0.230602 0.936583
v -0.112664 -0.217024 0.949937
v -0.112661 -0.203445 0.963291
v -0.112658 -0.189867 0.976644
v -0.112655 -0.176289 0.989998
v -0.112652 -0.162710 1.003352
v -0.112649 -0.149132 1.016706
v -0.112646 -0.135554 1.030059
v -0.112643 -0.121975 1.043413
v -0.112640 -0.108397 1.056767
v -0.112637 -0.094819 1.070121
v -0.112707 -0.278448 0.876592
v -0.112704 -0.264869 0.889945
v -0.112701 -0.251291 0.903299
v -0.112698 -0.237713 0.916653
v -0.112695 -0.224134 0.930007
v -0.112692 -0.210556 0.943360
v -0.112689 -0.196978 0.956714
v -0.112686 -0.183399 0.970068
v -0.112683 -0.169821 0.983422
v -0.112680 -0.156243 0.996775
v -0.112677 -0.142664 1.010129
v -0.112674 -0.129086 1.023483
v -0.112671 -0.115508 1.036837
v -0.112668 -0.101929 1.050190
v -0.112665 -0.088351 1.063544
v -0.112735 -0.271980 0.870015
v -0.112732 -0.258402 0.883369
v -0.112729 -0.244823 0.896723
v -0.112726 -0.231245 0.910076
v -0.112723 -0.217667 0.923430
v -0.112720 -0.204088 0.936784
v -0.112717 -0.190510 0.950138
v -0.112714 -0.176932 0.963491
v -0.112711 -0.163353 0.976845
v -0.112708 -0.149775 0.990199
v -0.112705 -0.136197 1.003553
v -0.112702 -0.122618 1.016906
v -0.112699 -0.109040 1.030260
v -0.112696 -0.095462 1.043614
v -0.112693 -0.081883 1.056968
v -0.112763 -0.265512 0.863439
v -0.112760 -0.251934 0.876792
v -0.112757 -0.238356 0.890146
v -0.112754 -0.224777 0.903500
v -0.112751 -0.211199 0.916854
v -0.112748 -0.197621 0.930207
v -0.112745 -0.184042 0.943561
v -0.112742 -0.170464 0.956915
v -0.112739 -0.156886 0.970269
v -0.112736 -0.143307 0.983622
v -0.112733 -0.129729 0.996976
v -0.112730 -0.116151 1.010330
v -0.112727 -0.102572 1.023684
v -0.112724 -0.088994 1.037037
v -0.112721 -0.075416 1.050391
v -0.112791 -0.259044 0.856862
v -0.112788 -0.245466 0.870216
v -0.112785 -0.231888 0.883570
v -0.112782 -0.218310 0.896923
v -0.112779 -0.204731 0.910277
v -0.112776 -0.191153 0.923631
v -0.112773 -0.177575 0.936985
v -0.112770 -0.163996 0.950338
v -0.112767 -0.150418 0.963692
v -0.112764 -0.136840 0.977046
v -0.112761 -0.123261 0.990400
v -0.112758 -0.109683 1.003753
v -0.112755 -0.096105 1.017107
v -0.112752 -0.082526 1.030461
v -0.112749 -0.068948 1.043815
v -0.112819 -0.252577 0.850286
v -0.112816 -0.238998 0.863639
v -0.112813 -0.225420 0.876993
v -0.112810 -0.211842 0.890347
v -0.112807 -0.198263 0.903701
v -0.112804 -0.184685 0.917054
v -0.112801 -0.171107 0.930408
v -0.112798 -0.157528 0.943762
v -0.112795 -0.143950 0.957116
v -0.112792 -0.130372 0.970469
v -0.112789 -0.116793 0.983823
v -0.112786 -0.103215 0.997177
v -0.112783 -0.089637 1.010531
v -0.112780 -0.076058 1.023884
v -0.112777 -0.062480 1.037238
v -0.112847 -0.246109 0.843709
v -0.112844 -0.232531 0.857063
v -0.112841 -0.218952 0.870417
v -0.112838 -0.205374 0.883770
v -0.112835 -0.191796 0.897124
v -0.112832 -0.178217 0.910478
v -0.112829 -0.164639 0.923832
v -0.112826 -0.151061 0.937185
v -0.112823 -0.137482 0.950539
v -0.112820 -0.123904 0.963893
v -0.112817 -0.110326 0.977247
v -0.112814 -0.096747 0.990600
v -0.112811 -0.083169 1.003954
v -0.112808 -0.069591 1.017308
v -0.112805 -0.056012 1.030662
v -0.112875 -0.239641 0.837133
v -0.112872 -0.226063 0.850487
v -0.112869 -0.212485 0.863840
v -0.112866 -0.198906 0.877194
v -0.112863 -0.185328 0.890548
v -0.112860 -0.171750 0.903901
v -0.112857 -0.158171 0.917255
v -0.112854 -0.144593 0.930609
v -0.112851 -0.131015 0.943963
v -0.112848 -0.117436 0.957316
v -0.112845 -0.103858 0.970670
v -0.112842 -0.090280 0.984024
v -0.112839 -0.076701 0.997378
v -0.112836 -0.063123 1.010731
v -0.112833 -0.049545 1.024085
v -0.112903 -0.233174 0.830556
v -0.112900 -0.219595 0.843910
v -0.112897 -0.206017 0.857264
v -0.112894 -0.192439 0.870618
v -0.112891 -0.178860 0.883971
v -0.112888 -0.165282 0.897325
v -0.112885 -0.151704 0.910679
v -0.112882 -0.138125 0.924032
v -0.112879 -0.124547 0.937386
v -0.112876 -0.110969 0.950740
v -0.112873 -0.097390 0.964094
v -0.112870 -0.083812 0.977447
v -0.112867 -0.070234 0.990801
v -0.112864 -0.056655 1.004155
v -0.112861 -0.043077 1.017509
v -0.112931 -0.226706 0.823980
v -0.112928 -0.213128 0.837334
v -0.112925 -0.199549 0.850687
v -0.112922 -0.185971 0.864041
v -0.112919 -0.172393 0.877395
v -0.112916 -0.158814 0.890749
v -0.112913 -0.145236 0.904102
v -0.112910 -0.131658 0.917456
v -0.112907 -0.118079 0.930810
v -0.112904 -0.104501 0.944164
v -0.112901 -0.090923 0.957517
v -0.112898 -0.077344 0.970871
v -0.112895 -0.063766 0.984225
v -0.112892 -0.050188 0.997578
v -0.112889 -0.036609 1.010932
v -0.112959 -0.220238 0.817403
v -0.112956 -0.206660 0.830757
v -0.112953 -0.193082 0.844111
v -0.112950 -0.179503 0.857465
v -0.112947 -0.165925 0.870818
v -0.112944 -0.152347 0.884172
v -0.112941 -0.138768 0.897526
v -0.112938 -0.125190 0.910879
v -0.112935 -0.111612 0.924233
v -0.112932 -0.098033 0.937587
v -0.112929 -0.084455 0.950941
v -0.112926 -0.070877 0.964294
v -0.112923 -0.057298 0.977648
v -0.112920 -0.043720 0.991002
v -0.112916 -0.030142 1.004356
v -0.112987 -0.213771 0.810827
v -0.112984 -0.200192 0.824181
v -0.112981 -0.186614 0.837534
v -0.112978 -0.173036 0.850888
v -0.112975 -0.159457 0.864242
v -0.112972 -0.145879 0.877596
v -0.112969 -0.132301 0.890949
v -0.112966 -0.118722 0.904303
v -0.112963 -0.105144 0.917657
v -0.112960 -0.091566 0.931010
v -0.112957 -0.077987 0.944364
v -0.112953 -0.064409 0.957718
v -0.112950 -0.050831 0.971072
v -0.112947 -0.037252 0.984425
v -0.112944 -0.023674 0.997779
v -0.113015 -0.207303 0.804250
v -0.113012 -0.193724 0.817604
v -0.113009 -0.180146 0.830958
v -0.113006 -0.166568 0.844312
v -0.113003 -0.152989 0.857665
v -0.113000 -0.139411 0.871019
v -0.112997 -0.125833 0.884373
v -0.112994 -0.112255 0.897727
v -0.112991 -0.098676 0.911080
v -0.112987 -0.085098 0.924434
v -0.112984 -0.071520 0.937788
v -0.112981 -0.057941 0.951141
v -0.112978 -0.044363 0.964495
v -0.112975 -0.030785 0.977849
v -0.112972 -0.017206 0.991203
v -0.098531 -0.200806 0.797641
v -0.098528 -0.187228 0.810995
v -0.098525 -0.173649 0.824348
v -0.098522 -0.160071 0.837702
v -0.098519 -0.146493 0.851056
v -0.098516 -0.132914 0.864410
v -0.098513 -0.119336 0.877763
v -0.098510 -0.105758 0.891117
v -0.098507 -0.092179 0.904471
v -0.098504 -0.078601 0.917825
v -0.098501 -0.065023 0.931178
v -0.098498 -0.051444 0.944532
v -0.098495 -0.037866 0.957886
v -0.098492 -0.024288 0.971240
v -0.098489 -0.010709 0.984593
v -0.084020 -0.200777 0.797608
v -0.084017 -0.187198 0.810962
v -0.084014 -0.173620 0.824315
v -0.084011 -0.160042 0.837669
v -0.084008 -0.146463 0.851023
v -0.084005 -0.132885 0.864377
v -0.084002 -0.119307 0.877730
v -0.083999 -0.105728 0.891084
v -0.083996 -0.092150 0.904438
v -0.083993 -0.078572 0.917792
v -0.083990 -0.064993 0.931145
v -0.083987 -0.051415 0.944499
v -0.083984 -0.037837 0.957853
v -0.083981 -0.024258 0.971207
v -0.083978 -0.010680 0.984560
v -0.069509 -0.200748 0.797575
v -0.069506 -0.187169 0.810929
v -0.069503 -0.173591 0.824282
v -0.069500 -0.160013 0.837636
v -0.069497 -0.146434 0.850990
v -0.069494 -0.132856 0.864344
v -0.069491 -0.119278 0.877697
v -0.069488 -0.105699 0.891051
v -0.069485 -0.092121 0.904405
v -0.069482 -0.078543 0.917759
v -0.069479 -0.064964 0.931112
v -0.069476 -0.051386 0.944466
v -0.069473 -0.037808 0.957820
v -0.069470 -0.024229 0.971174
v -0.069467 -0.010651 0.984527
v -0.054998 -0.200718 0.797542
v -0.054995 -0.187140 0.810896
v -0.054992 -0.173562 0.824250
v -0.054989 -0.159983 0.837603
v -0.054986 -0.146405 0.850957
v -0.054983 -0.132827 0.864311
v -0.054980 -0.119248 0.877664
v -0.054977 -0.105670 0.891018
v -0.054974 -0.092092 0.904372
v -0.054971 -0.078513 0.917726
v -0.054968 -0.064935 0.931079
v -0.054965 -0.051357 0.944433
v -0.054962 -0.037778 0.957787
v -0.054959 -0.024200 0.971141
v -0.054956 -0.010622 0.984494
v -0.040487 -0.200689 0.797509
v -0.040484 -0.187111 0.810863
v -0.040481 -0.173533 0.824217
v -0.040478 -0.159954 0.837570
v -0.040475 -0.146376 0.850924
v -0.040472 -0.132798 0.864278
v -0.040469 -0.119219 0.877631
v -0.040466 -0.105641 0.890985
v -0.040463 -0.092063 0.904339
v -0.040460 -0.078484 0.917693
v -0.040457 -0.064906 0.931046
v -0.040454 -0.051328 0.944400
v -0.040451 -0.037749 0.957754
v -0.040448 -0.024171 0.971108
v -0.040445 -0.010593 0.984461
v -0.025976 -0.200660 0.797476
v -0.025973 -0.187082 0.810830
v -0.025970 -0.173503 0.824184
v -0.025967 -0.159925 0.837537
v -0.025964 -0.146347 0.850891
v -0.025961 -0.132768 0.864245
v -0.025958 -0.119190 0.877599
v -0.025955 -0.105612 0.890952
v -0.025952 -0.092033 0.904306
v -0.025949 -0.078455 0.917660
v -0.025945 -0.064877 0.931013
v -0.025942 -0.051298 0.944367
v -0.025939 -0.037720 0.957721
v -0.025936 -0.024142 0.971075
v -0.025933 -0.010563 0.984428
v -0.011465 -0.200631 0.797443
v -0.011462 -0.187052 0.810797
v -0.011459 -0.173474 0.824151
v -0.011456 -0.159896 0.837504
v -0.011452 -0.146317 0.850858
v -0.011449 -0.132739 0.864212
v -0.011446 -0.119161 0.877566
v -0.011443 -0.105582 0.890919
v -0.011440 -0.092004 0.904273
v -0.011437 -0.078426 0.917627
v -0.011434 -0.064847 0.930981
v -0.011431 -0.051269 0.944334
v -0.011428 -0.037691 0.957688
v -0.011425 -0.024112 0.971042
v -0.011422 -0.010534 0.984395
v 0.003047 -0.200602 0.797410
v 0.003050 -0.187023 0.810764
v 0.003053 -0.173445 0.824118
v 0.003056 -0.159867 0.837471
v 0.003059 -0.146288 0.850825
v 0.003062 -0.132710 0.864179
v 0.003065 -0.119132 0.877533
v 0.003068 -0.105553 0.890886
v 0.003071 -0.091975 0.904240
v 0.003074 -0.078397 0.917594
v 0.003077 -0.064818 0.930948
v 0.003080 -0.051240 0.944301
v 0.003083 -0.037662 0.957655
v 0.003086 -0.024083 0.971009
v 0.003089 -0.010505 0.984363
v 0.017558 -0.200572 0.797377
v 0.017561 -0.186994 0.810731
v 0.017564 -0.173416 0.824085
v 0.017567 -0.159837 0.837438
v 0.017570 -0.146259 0.850792
v 0.017573 -0.132681 0.864146
v 0.017576 -0.119102 0.877500
v 0.017579 -0.105524 0.890853
v 0.017582 -0.091946 0.904207
v 0.017585 -0.078367 0.917561
v 0.017588 -0.064789 0.930915
v 0.017591 -0.051211 0.944268
v 0.017594 -0.037632 0.957622
v 0.017597 -0.024054 0.970976
v 0.017600 -0.010476 0.984330
v 0.032069 -0.200543 0.797344
v 0.032072 -0.186965 0.810698
v 0.032075 -0.173387 0.824052
v 0.032078 -0.159808 0.837405
v 0.032081 -0.146230 0.850759
v 0.032084 -0.132652 0.864113
v 0.032087 -0.119073 0.877467
v 0.032090 -0.105495 0.890820
v 0.032093 -0.091917 0.904174
v 0.032096 -0.078338 0.917528
v 0.032099 -0.064760 0.930882
v 0.032102 -0.051182 0.944235
v 0.032105 -0.037603 0.957589
v 0.032108 -0.024025 0.970943
v 0.032111 -0.010447 0.984297
v 0.046580 -0.200514 0.797311
v 0.046583 -0.186936 0.810665
v 0.046586 -0.173357 0.824019
v 0.046589 -0.159779 0.837372
v 0.046592 -0.146201 0.850726
v 0.046595 -0.132622 0.864080
v 0.046598 -0.119044 0.877434
v 0.046601 -0.105466 0.890787
v 0.046604 -0.091887 0.904141
v 0.046607 -0.078309 0.917495
v 0.046610 -0.064731 0.930849
v 0.046613 -0.051152 0.944202
v 0.046616 -0.037574 0.957556
v 0.046619 -0.023996 0.970910
v 0.046622 -0.010417 0.984264
v 0.061091 -0.200485 0.797278
v 0.061094 -0.186907 0.810632
v 0.061097 -0.173328 0.823986
v 0.061100 -0.159750 0.837340
v 0.061103 -0.146172 0.850693
v 0.061106 -0.132593 0.864047
v 0.061109 -0.119015 0.877401
v 0.061112 -0.105437 0.890754
v 0.061115 -0.091858 0.904108
v 0.061118 -0.078280 0.917462
v 0.061121 -0.064702 0.930816
v 0.061124 -0.051123 0.944169
v 0.061127 -0.037545 0.957523
v 0.061130 -0.023967 0.970877
v 0.061134 -0.010388 0.984231
v 0.075602 -0.200456 0.797245
v 0.075605 -0.186877 0.810599
v 0.075608 -0.173299 0.823953
v 0.075611 -0.159721 0.837307
v 0.075614 -0.146142 0.850660
v 0.075617 -0.132564 0.864014
v 0.075620 -0.118986 0.877368
v 0.075624 -0.105407 0.890721
v 0.075627 -0.091829 0.904075
v 0.075630 -0.078251 0.917429
v 0.075633 -0.064672 0.930783
v 0.075636 -0.051094 0.944136
v 0.075639 -0.037516 0.957490
v 0.075642 -0.023937 0.970844
v 0.075645 -0.010359 0.984198
v 0.090113 -0.200426 0.797212
v 0.090117 -0.186848 0.810566
v 0.090120 -0.173270 0.823920
v 0.090123 -0.159691 0.837274
v 0.090126 -0.146113 0.850627
v 0.090129 -0.132535 0.863981
v 0.090132 -0.118956 0.877335
v 0.090135 -0.105378 0.890689
v 0.090138 -0.091800 0.904042
v 0.090141 -0.078221 0.917396
v 0.090144 -0.064643 0.930750
v 0.090147 -0.051065 0.944103
v 0.090150 -0.037486 0.957457
v 0.090153 -0.023908 0.970811
v 0.090156 -0.010330 0.984165
v 0.104625 -0.200397 0.797179
v 0.104628 -0.186819 0.810533
v 0.104631 -0.173241 0.823887
v 0.104634 -0.159662 0.837241
v 0.104637 -0.146084 0.850594
v 0.104640 -0.132506 0.863948
v 0.104643 -0.118927 0.877302
v 0.104646 -0.105349 0.890656
v 0.104649 -0.091771 0.904009
v 0.104652 -0.078192 0.917363
v 0.104655 -0.064614 0.930717
v 0.104658 -0.051036 0.944071
v 0.104661 -0.037457 0.957424
v 0.104664 -0.023879 0.970778
v 0.104667 -0.010301 0.984132
v 0.119164 -0.206836 0.803723
v 0.119167 -0.193257 0.817077
v 0.119170 -0.179679 0.830430
v 0.119173 -0.166101 0.843784
v 0.119176 -0.152522 0.857138
v 0.119179 -0.138944 0.870492
v 0.119182 -0.125366 0.883845
v 0.119185 -0.111787 0.897199
v 0.119188 -0.098209 0.910553
v 0.119191 -0.084631 0.923907
v 0.119194 -0.071052 0.937260
v 0.119197 -0.057474 0.950614
v 0.119200 -0.043896 0.963968
v 0.119203 -0.030318 0.977322
v 0.119206 -0.016739 0.990675
v 0.119192 -0.213304 0.810299
v 0.119195 -0.199725 0.823653
v 0.119198 -0.186147 0.837007
v 0.119201 -0.172569 0.850361
v 0.119204 -0.158990 0.863714
v 0.119207 -0.145412 0.877068
v 0.119210 -0.131834 0.890422
v 0.119213 -0.118255 0.903776
v 0.119216 -0.104677 0.917129
v 0.119219 -0.091099 0.930483
v 0.119222 -0.077520 0.943837
v 0.119225 -0.063942 0.957191
v 0.119228 -0.050364 0.970544
v 0.119231 -0.036785 0.983898
v 0.119234 -0.023207 0.997252
v 0.119220 -0.219771 0.816876
v 0.119223 -0.206193 0.830230
v 0.119226 -0.192615 0.843583
v 0.119229 -0.179036 0.856937
v 0.119232 -0.165458 0.870291
v 0.119235 -0.151880 0.883645
v 0.119238 -0.138301 0.896998
v 0.119241 -0.124723 0.910352
v 0.119244 -0.111145 0.923706
v 0.119247 -0.097566 0.937060
v 0.119250 -0.083988 0.950413
v 0.119253 -0.070410 0.963767
v 0.119256 -0.056831 0.977121
v 0.119259 -0.043253 0.990474
v 0.119262 -0.029675 1.003828
v 0.119248 -0.226239 0.823452
v 0.119251 -0.212661 0.836806
v 0.119254 -0.199082 0.850160
v 0.119257 -0.185504 0.863514
v 0.119260 -0.171926 0.876867
v 0.119263 -0.158347 0.890221
v 0.119266 -0.144769 0.903575
v 0.119269 -0.131191 0.916929
v 0.119272 -0.117612 0.930282
v 0.119275 -0.104034 0.943636
v 0.119278 -0.090456 0.956990
v 0.119281 -0.076877 0.970343
v 0.119284 -0.063299 0.983697
v 0.119287 -0.049721 0.997051
v 0.119290 -0.036142 1.010405
v 0.119276 -0.232707 0.830029
v 0.119279 -0.219128 0.843383
v 0.119282 -0.205550 0.856736
v 0.119285 -0.191972 0.870090
v 0.119288 -0.178393 0.883444
v 0.119291 -0.164815 0.896798
v 0.119294 -0.151237 0.910151
v 0.119297 -0.137658 0.923505
v 0.119300 -0.124080 0.936859
v 0.119303 -0.110502 0.950212
v 0.119306 -0.096923 0.963566
v 0.119309 -0.083345 0.976920
v 0.119312 -0.069767 0.990274
v 0.119315 -0.056188 1.003627
v 0.119318 -0.042610 1.016981
v 0.119304 -0.239174 0.836605
v 0.119307 -0.225596 0.849959
v 0.119310 -0.212018 0.863313
v 0.119313 -0.198439 0.876667
v 0.119316 -0.184861 0.890020
v 0.119319 -0.171283 0.903374
v 0.119322 -0.157704 0.916728
v 0.119325 -0.144126 0.930081
v 0.119328 -0.130548 0.943435
v 0.119331 -0.116969 0.956789
v 0.119334 -0.103391 0.970143
v 0.119337 -0.089813 0.983496
v 0.119340 -0.076234 0.996850
v 0.119343 -0.062656 1.010204
v 0.119346 -0.049078 1.023558
v 0.119331 -0.245642 0.843182
v 0.119334 -0.232064 0.856536
v 0.119337 -0.218485 0.869889
v 0.119341 -0.204907 0.883243
v 0.119344 -0.191329 0.896597
v 0.119347 -0.177750 0.909950
v 0.119350 -0.164172 0.923304
v 0.119353 -0.150594 0.936658
v 0.119356 -0.137015 0.950012
v 0.119359 -0.123437 0.963365
v 0.119362 -0.109859 0.976719
v 0.119365 -0.096280 0.990073
v 0.119368 -0.082702 1.003427
v 0.119371 -0.069124 1.016780
v 0.119374 -0.055545 1.030134
v 0.119359 -0.252110 0.849758
v 0.119362 -0.238531 0.863112
v 0.119365 -0.224953 0.876466
v 0.119368 -0.211375 0.889820
v 0.119371 -0.197796 0.903173
v 0.119375 -0.184218 0.916527
v 0.119378 -0.170640 0.929881
v 0.119381 -0.157061 0.943234
v 0.119384 -0.143483 0.956588
v 0.119387 -0.129905 0.969942
v 0.119390 -0.116326 0.983296
v 0.119393 -0.102748 0.996649
v 0.119396 -0.089170 1.010003
v 0.119399 -0.075591 1.023357
v 0.119402 -0.062013 1.036711
v 0.119387 -0.258577 0.856335
v 0.119390 -0.244999 0.869689
v 0.119393 -0.231421 0.883042
v 0.119396 -0.217842 0.896396
v 0.119399 -0.204264 0.909750
v 0.119402 -0.190686 0.923103
v 0.119405 -0.177107 0.936457
v 0.119409 -0.163529 0.949811
v 0.119412 -0.149951 0.963165
v 0.119415 -0.136373 0.976518
v 0.119418 -0.122794 0.989872
v 0.119421 -0.109216 1.003226
v 0.119424 -0.095638 1.016580
v 0.119427 -0.082059 1.029933
v 0.119430 -0.068481 1.043287
v 0.119415 -0.265045 0.862911
v 0.119418 -0.251467 0.876265
v 0.119421 -0.237889 0.889619
v 0.119424 -0.224310 0.902972
v 0.119427 -0.210732 0.916326
v 0.119430 -0.197154 0.929680
v 0.119433 -0.183575 0.943034
v 0.119436 -0.169997 0.956387
v 0.119439 -0.156419 0.969741
v 0.119443 -0.142840 0.983095
v 0.119446 -0.129262 0.996449
v 0.119449 -0.115684 1.009802
v 0.119452 -0.102105 1.023156
v 0.119455 -0.088527 1.036510
v 0.119458 -0.074949 1.049864
v 0.119443 -0.271513 0.869488
v 0.119446 -0.257935 0.882841
v 0.119449 -0.244356 0.896195
v 0.119452 -0.230778 0.909549
v 0.119455 -0.217200 0.922903
v 0.119458 -0.203621 0.936256
v 0.119461 -0.190043 0.949610
v 0.119464 -0.176465 0.962964
v 0.119467 -0.162886 0.976318
v 0.119470 -0.149308 0.989671
v 0.119473 -0.135730 1.003025
v 0.119477 -0.122151 1.016379
v 0.119480 -0.108573 1.029733
v 0.119483 -0.094995 1.043086
v 0.119486 -0.081416 1.056440
v 0.119471 -0.277981 0.876064
v 0.119474 -0.264402 0.889418
v 0.119477 -0.250824 0.902772
v 0.119480 -0.237246 0.916125
v 0.119483 -0.223667 0.929479
v 0.119486 -0.210089 0.942833
v 0.119489 -0.196511 0.956187
v 0.119492 -0.182932 0.969540
v 0.119495 -0.169354 0.982894
v 0.119498 -0.155776 0.996248
v 0.119501 -0.142197 1.009602
v 0.119504 -0.128619 1.022955
v 0.119507 -0.115041 1.036309
v 0.119511 -0.101462 1.049663
v 0.119514 -0.087884 1.063017
v 0.119499 -0.284448 0.882641
v 0.119502 -0.270870 0.895994
v 0.119505 -0.257292 0.909348
v 0.119508 -0.243713 0.922702
v 0.119511 -0.230135 0.936056
v 0.119514 -0.216557 0.949409
v 0.119517 -0.202978 0.962763
v 0.119520 -0.189400 0.976117
v 0.119523 -0.175822 0.989471
v 0.119526 -0.162243 1.002824
v 0.119529 -0.148665 1.016178
v 0.119532 -0.135087 1.029532
v 0.119535 -0.121508 1.042886
v 0.119538 -0.107930 1.056239
v 0.119541 -0.094352 1.069593
v 0.119527 -0.290916 0.889217
v 0.119530 -0.277338 0.902571
v 0.119533 -0.263759 0.915925
v 0.119536 -0.250181 0.929278
v 0.119539 -0.236603 0.942632
v 0.119542 -0.223024 0.955986
v 0.119545 -0.209446 0.969340
v 0.119548 -0.195868 0.982693
v 0.119551 -0.182289 0.996047
v 0.119554 -0.168711 1.009401
v 0.119557 -0.155133 1.022755
v 0.119560 -0.141554 1.036108
v 0.119563 -0.127976 1.049462
v 0.119566 -0.114398 1.062816
v 0.119569 -0.100819 1.076169
v 0.119555 -0.297384 0.895794
v 0.119558 -0.283805 0.909147
v 0.119561 -0.270227 0.922501
v 0.119564 -0.256649 0.935855
v 0.119567 -0.243070 0.949209
v 0.119570 -0.229492 0.962562
v 0.119573 -0.215914 0.975916
v 0.119576 -0.202335 0.989270
v 0.119579 -0.188757 1.002624
v 0.119582 -0.175179 1.015977
v 0.119585 -0.161600 1.029331
v 0.119588 -0.148022 1.042685
v 0.119591 -0.134444 1.056038
v 0.119594 -0.120865 1.069392
v 0.119597 -0.107287 1.082746
v 0.105072 -0.303881 0.902403
v 0.105075 -0.290302 0.915757
v 0.105078 -0.276724 0.929111
v 0.105081 -0.263146 0.942464
v 0.105084 -0.249567 0.955818
v 0.105087 -0.235989 0.969172
v 0.105090 -0.222411 0.982526
v 0.105093 -0.208832 0.995879
v 0.105096 -0.195254 1.009233
v 0.105099 -0.181676 1.022587
v 0.105102 -0.168097 1.035941
v 0.105105 -0.154519 1.049294
v 0.105108 -0.140941 1.062648
v 0.105111 -0.127362 1.076002
v 0.105114 -0.113784 1.089355
v 0.090561 -0.303910 0.902436
v 0.090564 -0.290332 0.915790
v 0.090567 -0.276753 0.929144
v 0.090570 -0.263175 0.942497
v 0.090573 -0.249597 0.955851
v 0.090576 -0.236018 0.969205
v 0.090579 -0.222440 0.982559
v 0.090582 -0.208862 0.995912
v 0.090585 -0.195283 1.009266
v 0.090588 -0.181705 1.022620
v 0.090591 -0.168127 1.035973
v 0.090594 -0.154548 1.049327
v 0.090597 -0.140970 1.062681
v 0.090600 -0.127392 1.076035
v 0.090603 -0.113813 1.089388
v 0.076050 -0.303939 0.902469
v 0.076053 -0.290361 0.915823
v 0.076056 -0.276782 0.929177
v 0.076059 -0.263204 0.942530
v 0.076062 -0.249626 0.955884
v 0.076065 -0.236047 0.969238
v 0.076068 -0.222469 0.982592
v 0.076071 -0.208891 0.995945
v 0.076074 -0.195312 1.009299
v 0.076077 -0.181734 1.022653
v 0.076080 -0.168156 1.036006
v 0.076083 -0.154577 1.049360
v 0.076086 -0.140999 1.062714
v 0.076089 -0.127421 1.076068
v 0.076092 -0.113842 1.089421
v 0.061538 -0.303968 0.902502
v 0.061541 -0.290390 0.915856
v 0.061544 -0.276812 0.929209
v 0.061547 -0.263233 0.942563
v 0.061550 -0.249655 0.955917
v 0.061554 -0.236077 0.969271
v 0.061557 -0.222498 0.982624
v 0.061560 -0.208920 0.995978
v 0.061563 -0.195342 1.009332
v 0.061566 -0.181763 1.022686
v 0.061569 -0.168185 1.036039
v 0.061572 -0.154607 1.049393
v 0.061575 -0.141028 1.062747
v 0.061578 -0.127450 1.076101
v 0.061581 -0.113872 1.089454
v 0.047027 -0.303997 0.902535
v 0.047030 -0.290419 0.915889
v 0.047033 -0.276841 0.929242
v 0.047036 -0.263262 0.942596
v 0.047039 -0.249684 0.955950
v 0.047042 -0.236106 0.969304
v 0.047045 -0.222527 0.982657
v 0.047048 -0.208949 0.996011
v 0.047051 -0.195371 1.009365
v 0.047054 -0.181792 1.022719
v 0.047057 -0.168214 1.036072
v 0.047060 -0.154636 1.049426
v 0.047064 -0.141057 1.062780
v 0.047067 -0.127479 1.076134
v 0.047070 -0.113901 1.089487
v 0.032516 -0.304027 0.902568
v 0.032519 -0.290448 0.915922
v 0.032522 -0.276870 0.929275
v 0.032525 -0.263292 0.942629
v 0.032528 -0.249713 0.955983
v 0.032531 -0.236135 0.969337
v 0.032534 -0.222557 0.982690
v 0.032537 -0.208978 0.996044
v 0.032540 -0.195400 1.009398
v 0.032543 -0.181822 1.022752
v 0.032546 -0.168243 1.036105
v 0.032549 -0.154665 1.049459
v 0.032552 -0.141087 1.062813
v 0.032555 -0.127508 1.076167
v 0.032558 -0.113930 1.089520
v 0.018005 -0.304056 0.902601
v 0.018008 -0.290477 0.915955
v 0.018011 -0.276899 0.929308
v 0.018014 -0.263321 0.942662
v 0.018017 -0.249742 0.956016
v 0.018020 -0.236164 0.969370
v 0.018023 -0.222586 0.982723
v 0.018026 -0.209007 0.996077
v 0.018029 -0.195429 1.009431
v 0.018032 -0.181851 1.022785
v 0.018035 -0.168272 1.036138
v 0.018038 -0.154694 1.049492
v 0.018041 -0.141116 1.062846
v 0.018044 -0.127537 1.076200
v 0.018047 -0.113959 1.089553
v 0.003494 -0.304085 0.902634
v 0.003497 -0.290507 0.915988
v 0.003500 -0.276928 0.929341
v 0.003503 -0.263350 0.942695
v 0.003506 -0.249772 0.956049
v 0.003509 -0.236193 0.969403
v 0.003512 -0.222615 0.982756
v 0.003515 -0.209037 0.996110
v 0.003518 -0.195458 1.009464
v 0.003521 -0.181880 1.022817
v 0.003524 -0.168302 1.036171
v 0.003527 -0.154723 1.049525
v 0.003530 -0.141145 1.062879
v 0.003533 -0.127567 1.076232
v 0.003536 -0.113988 1.089586
v -0.011017 -0.304114 0.902667
v -0.011014 -0.290536 0.916021
v -0.011011 -0.276958 0.929374
v -0.011008 -0.263379 0.942728
v -0.011005 -0.249801 0.956082
v -0.011002 -0.236223 0.969436
v -0.010999 -0.222644 0.982789
v -0.010996 -0.209066 0.996143
v -0.010993 -0.195488 1.009497
v -0.010990 -0.181909 1.022851
v -0.010987 -0.168331 1.036204
v -0.010984 -0.154753 1.049558
v -0.010981 -0.141174 1.062912
v -0.010978 -0.127596 1.076265
v -0.010975 -0.114018 1.089619
v -0.025529 -0.304143 0.902700
v -0.025526 -0.290565 0.916054
v -0.025522 -0.276987 0.929407
v -0.025519 -0.263408 0.942761
v -0.025516 -0.249830 0.956115
v -0.025513 -0.236252 0.969469
v -0.025510 -0.222673 0.982822
v -0.025507 -0.209095 0.996176
v -0.025504 -0.195517 1.009530
v -0.025501 -0.181938 1.022883
v -0.025498 -0.168360 1.036237
v -0.025495 -0.154782 1.049591
v -0.025492 -0.141203 1.062945
v -0.025489 -0.127625 1.076298
v -0.025486 -0.114047 1.089652
v -0.040040 -0.304173 0.902733
v -0.040037 -0.290594 0.916086
v -0.040034 -0.277016 0.929440
v -0.040031 -0.263438 0.942794
v -0.040028 -0.249859 0.956148
v -0.040025 -0.236281 0.969501
v -0.040022 -0.222703 0.982855
v -0.040019 -0.209124 0.996209
v -0.040016 -0.195546 1.009563
v -0.040012 -0.181968 1.022916
v -0.040009 -0.168389 1.036270
v -0.040006 -0.154811 1.049624
v -0.040003 -0.141233 1.062978
v -0.040000 -0.127654 1.076331
v -0.039997 -0.114076 1.089685
v -0.054551 -0.304202 0.902766
v -0.054548 -0.290623 0.916119
v -0.054545 -0.277045 0.929473
v -0.054542 -0.263467 0.942827
v -0.054539 -0.249888 0.956181
v -0.054536 -0.236310 0.969534
v -0.054533 -0.222732 0.982888
v -0.054530 -0.209153 0.996242
v -0.054527 -0.195575 1.009596
v -0.054524 -0.181997 1.022949
v -0.054521 -0.168418 1.036303
v -0.054518 -0.154840 1.049657
v -0.054515 -0.141262 1.063011
v -0.054512 -0.127683 1.076364
v -0.054509 -0.114105 1.089718
v -0.069062 -0.304231 0.902799
v -0.069059 -0.290653 0.916152
v -0.069056 -0.277074 0.929506
v -0.069053 -0.263496 0.942860
v -0.069050 -0.249918 0.956214
v -0.069047 -0.236339 0.969567
v -0.069044 -0.222761 0.982921
v -0.069041 -0.209183 0.996275
v -0.069038 -0.195604 1.009629
v -0.069035 -0.182026 1.022982
v -0.069032 -0.168448 1.036336
v -0.069029 -0.154869 1.049690
v -0.069026 -0.141291 1.063044
v -0.069023 -0.127713 1.076397
v -0.069020 -0.114134 1.089751
v -0.083573 -0.304260 0.902832
v -0.083570 -0.290682 0.916185
v -0.083567 -0.277103 0.929539
v -0.083564 -0.263525 0.942893
v -0.083561 -0.249947 0.956247
v -0.083558 -0.236368 0.969600
v -0.083555 -0.222790 0.982954
v -0.083552 -0.209212 0.996308
v -0.083549 -0.195633 1.009662
v -0.083546 -0.182055 1.023015
v -0.083543 -0.168477 1.036369
v -0.083540 -0.154898 1.049723
v -0.083537 -0.141320 1.063076
v -0.083534 -0.127742 1.076430
v -0.083531 -0.114163 1.089784
v -0.098084 -0.304289 0.902865
v -0.098081 -0.290711 0.916218
v -0.098078 -0.277133 0.929572
v -0.098075 -0.263554 0.942926
v -0.098072 -0.249976 0.956280
v -0.098069 -0.236398 0.969633
v -0.098066 -0.222819 0.982987
v -0.098063 -0.209241 0.996341
v -0.098060 -0.195663 1.009695
v -0.098057 -0.182084 1.023048
v -0.098054 -0.168506 1.036402
v -0.098051 -0.154928 1.049756
v -0.098048 -0.141349 1.063110
v -0.098045 -0.127771 1.076463
v -0.098042 -0.114193 1.089817
v -0.098507 -0.220852 0.790864
v -0.083995 -0.220823 0.790831
v -0.069484 -0.220794 0.790798
v -0.054973 -0.220764 0.790765
v -0.040462 -0.220735 0.790732
v -0.025951 -0.220706 0.790699
v -0.011440 -0.220677 0.790666
v 0.003071 -0.220648 0.790633
v 0.017583 -0.220618 0.790600
v 0.032094 -0.220589 0.790567
v 0.046605 -0.220560 0.790534
v 0.061116 -0.220531 0.790501
v 0.075627 -0.220502 0.790468
v 0.090138 -0.220473 0.790435
v 0.104650 -0.220443 0.790402
v -0.098479 -0.227320 0.797440
v -0.083967 -0.227290 0.797407
v -0.069456 -0.227261 0.797374
v -0.054945 -0.227232 0.797341
v -0.040434 -0.227203 0.797308
v -0.025923 -0.227174 0.797275
v -0.011412 -0.227145 0.797242
v 0.003099 -0.227115 0.797209
v 0.017611 -0.227086 0.797176
v 0.032122 -0.227057 0.797143
v 0.046633 -0.227028 0.797110
v 0.061144 -0.226999 0.797078
v 0.075655 -0.226969 0.797045
v 0.090166 -0.226940 0.797012
v 0.104678 -0.226911 0.796979
v -0.098451 -0.233787 0.804017
v -0.083940 -0.233758 0.803984
v -0.069428 -0.233729 0.803951
v -0.054917 -0.233700 0.803918
v -0.040406 -0.233671 0.803885
v -0.025895 -0.233641 0.803852
v -0.011384 -0.233612 0.803819
v 0.003127 -0.233583 0.803786
v 0.017639 -0.233554 0.803753
v 0.032150 -0.233525 0.803720
v 0.046661 -0.233496 0.803687
v 0.061172 -0.233466 0.803654
v 0.075683 -0.233437 0.803621
v 0.090194 -0.233408 0.803588
v 0.104705 -0.233379 0.803555
v -0.098423 -0.240255 0.810593
v -0.083912 -0.240226 0.810560
v -0.069400 -0.240197 0.810527
v -0.054889 -0.240168 0.810494
v -0.040378 -0.240138 0.810461
v -0.025867 -0.240109 0.810428
v -0.011356 -0.240080 0.810395
v 0.003155 -0.240051 0.810362
v 0.017667 -0.240022 0.810329
v 0.032178 -0.239992 0.810296
v 0.046689 -0.239963 0.810263
v 0.061200 -0.239934 0.810230
v 0.075711 -0.239905 0.810198
v 0.090222 -0.239876 0.810165
v 0.104733 -0.239846 0.810132
v -0.098395 -0.246723 0.817170
v -0.083884 -0.246694 0.817137
v -0.069372 -0.246664 0.817104
v -0.054861 -0.246635 0.817071
v -0.040350 -0.246606 0.817038
v -0.025839 -0.246577 0.817005
v -0.011328 -0.246548 0.816972
v 0.003183 -0.246518 0.816939
v 0.017694 -0.246489 0.816906
v 0.032206 -0.246460 0.816873
v 0.046717 -0.246431 0.816840
v 0.061228 -0.246402 0.816807
v 0.075739 -0.246373 0.816774
v 0.090250 -0.246343 0.816741
v 0.104761 -0.246314 0.816708
v -0.098367 -0.253191 0.823746
v -0.083856 -0.253161 0.823713
v -0.069345 -0.253132 0.823680
v -0.054833 -0.253103 0.823647
v -0.040322 -0.253074 0.823614
v -0.025811 -0.253045 0.823581
v -0.011300 -0.253015 0.823548
v 0.003211 -0.252986 0.823515
v 0.017722 -0.252957 0.823482
v 0.032234 -0.252928 0.823449
v 0.046745 -0.252899 0.823416
v 0.061256 -0.252869 0.823383
v 0.075767 -0.252840 0.823350
v 0.090278 -0.252811 0.823318
v 0.104789 -0.252782 0.823285
v -0.098339 -0.259658 0.830323
v -0.083828 -0.259629 0.830290
v -0.069317 -0.259600 0.830257
v -0.054805 -0.259571 0.830224
v -0.040294 -0.259541 0.830191
v -0.025783 -0.259512 0.830158
v -0.011272 -0.259483 0.830125
v 0.003239 -0.259454 0.830092
v 0.017750 -0.259425 0.830059
v 0.032262 -0.259396 0.830026
v 0.046773 -0.259366 0.829993
v 0.061284 -0.259337 0.829960
v 0.075795 -0.259308 0.829927
v 0.090306 -0.259279 0.829894
v 0.104817 -0.259250 0.829861
v -0.098311 -0.266126 0.836899
v -0.083800 -0.266097 0.836866
v -0.069289 -0.266068 0.836833
v -0.054777 -0.266038 0.836800
v -0.040266 -0.266009 0.836767
v -0.025755 -0.265980 0.836734
v -0.011244 -0.265951 0.836701
v 0.003267 -0.265922 0.836668
v 0.017778 -0.265892 0.836635
v 0.032289 -0.265863 0.836602
v 0.046801 -0.265834 0.836569
v 0.061312 -0.265805 0.836536
v 0.075823 -0.265776 0.836503
v 0.090334 -0.265746 0.836470
v 0.104845 -0.265717 0.836438
v -0.098283 -0.272594 0.843476
v -0.083772 -0.272564 0.843443
v -0.069261 -0.272535 0.843410
v -0.054750 -0.272506 0.843377
v -0.040238 -0.272477 0.843344
v -0.025727 -0.272448 0.843311
v -0.011216 -0.272419 0.843278
v 0.003295 -0.272389 0.843245
v 0.017806 -0.272360 0.843212
v 0.032317 -0.272331 0.843179
v 0.046829 -0.272302 0.843146
v 0.061340 -0.272273 0.843113
v 0.075851 -0.272243 0.843080
v 0.090362 -0.272214 0.843047
v 0.104873 -0.272185 0.843014
v -0.098255 -0.279061 0.850052
v -0.083744 -0.279032 0.850019
v -0.069233 -0.279003 0.849986
v -0.054722 -0.278974 0.849953
v -0.040210 -0.278945 0.849920
v -0.025699 -0.278915 0.849887
v -0.011188 -0.278886 0.849854
v 0.003323 -0.278857 0.849821
v 0.017834 -0.278828 0.849788
v 0.032345 -0.278799 0.849755
v 0.046856 -0.278769 0.849722
v 0.061368 -0.278740 0.849689
v 0.075879 -0.278711 0.849656
v 0.090390 -0.278682 0.849623
v 0.104901 -0.278653 0.849590
v -0.098227 -0.285529 0.856628
v -0.083716 -0.285500 0.856596
v -0.069205 -0.285471 0.856563
v -0.054694 -0.285442 0.856530
v -0.040182 -0.285412 0.856497
v -0.025671 -0.285383 0.856464
v -0.011160 -0.285354 0.856431
v 0.003351 -0.285325 0.856398
v 0.017862 -0.285296 0.856365
v 0.032373 -0.285266 0.856332
v 0.046884 -0.285237 0.856299
v 0.061396 -0.285208 0.856266
v 0.075907 -0.285179 0.856233
v 0.090418 -0.285150 0.856200
v 0.104929 -0.285120 0.856167
v -0.098199 -0.291997 0.863205
v -0.083688 -0.291968 0.863172
v -0.069177 -0.291938 0.863139
v -0.054666 -0.291909 0.863106
v -0.040155 -0.291880 0.863073
v -0.025643 -0.291851 0.863040
v -0.011132 -0.291822 0.863007
v 0.003379 -0.291792 0.862974
v 0.017890 -0.291763 0.862941
v 0.032401 -0.291734 0.862908
v 0.046912 -0.291705 0.862875
v 0.061424 -0.291676 0.862842
v 0.075935 -0.291647 0.862809
v 0.090446 -0.291617 0.862776
v 0.104957 -0.291588 0.862743
v -0.098171 -0.298464 0.869781
v -0.083660 -0.298435 0.869748
v -0.069149 -0.298406 0.869716
v -0.054638 -0.298377 0.869683
v -0.040127 -0.298348 0.869650
v -0.025615 -0.298319 0.869617
v -0.011104 -0.298289 0.869584
v 0.003407 -0.298260 0.869551
v 0.017918 -0.298231 0.869518
v 0.032429 -0.298202 0.869485
v 0.046940 -0.298173 0.869452
v 0.061452 -0.298143 0.869419
v 0.075963 -0.298114 0.869386
v 0.090474 -0.298085 0.869353
v 0.104985 -0.298056 0.869320
v -0.098143 -0.304932 0.876358
v -0.083632 -0.304903 0.876325
v -0.069121 -0.304874 0.876292
v -0.054610 -0.304845 0.876259
v -0.040099 -0.304815 0.876226
v -0.025587 -0.304786 0.876193
v -0.011076 -0.304757 0.876160
v 0.003435 -0.304728 0.876127
v 0.017946 -0.304699 0.876094
v 0.032457 -0.304669 0.876061
v 0.046968 -0.304640 0.876028
v 0.061479 -0.304611 0.875995
v 0.075991 -0.304582 0.875962
v 0.090502 -0.304553 0.875929
v 0.105013 -0.304524 0.875896
v -0.098115 -0.311400 0.882934
v -0.083604 -0.311371 0.882901
v -0.069093 -0.311342 0.882868
v -0.054582 -0.311312 0.882836
v -0.040071 -0.311283 0.882803
v -0.025560 -0.311254 0.882770
v -0.011048 -0.311225 0.882737
v 0.003463 -0.311196 0.882704
v 0.017974 -0.311166 0.882671
v 0.032485 -0.311137 0.882638
v 0.046996 -0.311108 0.882605
v 0.061507 -0.311079 0.882572
v 0.076019 -0.311050 0.882539
v 0.090530 -0.311020 0.882506
v 0.105041 -0.310991 0.882473
v 0.104698 -0.003190 1.004062
v 0.090187 -0.003219 1.004095
v 0.075676 -0.003248 1.004128
v 0.061164 -0.003278 1.004161
v 0.046653 -0.003307 1.004194
v 0.032142 -0.003336 1.004227
v 0.017631 -0.003365 1.004260
v 0.003120 -0.003394 1.004293
v -0.011391 -0.003424 1.004326
v -0.025902 -0.003453 1.004359
v -0.040414 -0.003482 1.004392
v -0.054925 -0.003511 1.004425
v -0.069436 -0.003540 1.004458
v -0.083947 -0.003569 1.004490
v -0.098458 -0.003599 1.004524
v 0.104726 -0.009658 1.010638
v 0.090215 -0.009687 1.010671
v 0.075704 -0.009716 1.010704
v 0.061192 -0.009745 1.010737
v 0.046681 -0.009774 1.010770
v 0.032170 -0.009804 1.010803
v 0.017659 -0.009833 1.010836
v 0.003148 -0.009862 1.010869
v -0.011363 -0.009891 1.010902
v -0.025874 -0.009920 1.010935
v -0.040386 -0.009950 1.010968
v -0.054897 -0.009979 1.011001
v -0.069408 -0.010008 1.011034
v -0.083919 -0.010037 1.011067
v -0.098430 -0.010066 1.011100
v 0.104754 -0.016125 1.017215
v 0.090243 -0.016155 1.017248
v 0.075732 -0.016184 1.017281
v 0.061220 -0.016213 1.017314
v 0.046709 -0.016242 1.017347
v 0.032198 -0.016271 1.017380
v 0.017687 -0.016301 1.017413
v 0.003176 -0.016330 1.017446
v -0.011335 -0.016359 1.017479
v -0.025847 -0.016388 1.017512
v -0.040358 -0.016417 1.017545
v -0.054869 -0.016447 1.017578
v -0.069380 -0.016476 1.017611
v -0.083891 -0.016505 1.017643
v -0.098402 -0.016534 1.017676
v 0.104782 -0.022593 1.023791
v 0.090271 -0.022622 1.023824
v 0.075760 -0.022652 1.023857
v 0.061248 -0.022681 1.023890
v 0.046737 -0.022710 1.023923
v 0.032226 -0.022739 1.023956
v 0.017715 -0.022768 1.023989
v 0.003204 -0.022797 1.024022
v -0.011307 -0.022827 1.024055
v -0.025819 -0.022856 1.024088
v -0.040330 -0.022885 1.024121
v -0.054841 -0.022914 1.024154
v -0.069352 -0.022943 1.024187
v -0.083863 -0.022973 1.024220
v -0.098374 -0.023002 1.024253
v 0.104810 -0.029061 1.030368
v 0.090299 -0.029090 1.030401
v 0.075787 -0.029119 1.030434
v 0.061276 -0.029148 1.030467
v 0.046765 -0.029178 1.030500
v 0.032254 -0.029207 1.030533
v 0.017743 -0.029236 1.030566
v 0.003232 -0.029265 1.030599
v -0.011279 -0.029294 1.030632
v -0.025791 -0.029324 1.030665
v -0.040302 -0.029353 1.030698
v -0.054813 -0.029382 1.030730
v -0.069324 -0.029411 1.030764
v -0.083835 -0.029440 1.030796
v -0.098346 -0.029470 1.030829
v 0.104838 -0.035529 1.036944
v 0.090327 -0.035558 1.036977
v 0.075815 -0.035587 1.037010
v 0.061304 -0.035616 1.037043
v 0.046793 -0.035645 1.037076
v 0.032282 -0.035675 1.037109
v 0.017771 -0.035704 1.037142
v 0.003260 -0.035733 1.037175
v -0.011252 -0.035762 1.037208
v -0.025763 -0.035791 1.037241
v -0.040274 -0.035820 1.037274
v -0.054785 -0.035850 1.037307
v -0.069296 -0.035879 1.037340
v -0.083807 -0.035908 1.037373
v -0.098318 -0.035937 1.037406
v 0.104866 -0.041996 1.043521
v 0.090355 -0.042025 1.043554
v 0.075843 -0.042055 1.043587
v 0.061332 -0.042084 1.043620
v 0.046821 -0.042113 1.043653
v 0.032310 -0.042142 1.043686
v 0.017799 -0.042171 1.043719
v 0.003288 -0.042201 1.043752
v -0.011224 -0.042230 1.043785
v -0.025735 -0.042259 1.043818
v -0.040246 -0.042288 1.043851
v -0.054757 -0.042317 1.043883
v -0.069268 -0.042347 1.043916
v -0.083779 -0.042376 1.043949
v -0.098290 -0.042405 1.043982
v 0.104894 -0.048464 1.050097
v 0.090382 -0.048493 1.050130
v 0.075871 -0.048522 1.050163
v 0.061360 -0.048552 1.050196
v 0.046849 -0.048581 1.050229
v 0.032338 -0.048610 1.050262
v 0.017827 -0.048639 1.050295
v 0.003316 -0.048668 1.050328
v -0.011196 -0.048698 1.050361
v -0.025707 -0.048727 1.050394
v -0.040218 -0.048756 1.050427
v -0.054729 -0.048785 1.050460
v -0.069240 -0.048814 1.050493
v -0.083751 -0.048843 1.050526
v -0.098263 -0.048873 1.050559
v 0.104922 -0.054932 1.056674
v 0.090410 -0.054961 1.056707
v 0.075899 -0.054990 1.056740
v 0.061388 -0.055019 1.056773
v 0.046877 -0.055048 1.056806
v 0.032366 -0.055078 1.056839
v 0.017855 -0.055107 1.056872
v 0.003343 -0.055136 1.056905
v -0.011168 -0.055165 1.056938
v -0.025679 -0.055194 1.056970
v -0.040190 -0.055224 1.057003
v -0.054701 -0.055253 1.057036
v -0.069212 -0.055282 1.057069
v -0.083723 -0.055311 1.057102
v -0.098235 -0.055340 1.057135
v 0.104950 -0.061399 1.063250
v 0.090438 -0.061429 1.063283
v 0.075927 -0.061458 1.063316
v 0.061416 -0.061487 1.063349
v 0.046905 -0.061516 1.063382
v 0.032394 -0.061545 1.063415
v 0.017883 -0.061575 1.063448
v 0.003371 -0.061604 1.063481
v -0.011140 -0.061633 1.063514
v -0.025651 -0.061662 1.063547
v -0.040162 -0.061691 1.063580
v -0.054673 -0.061721 1.063613
v -0.069184 -0.061750 1.063646
v -0.083695 -0.061779 1.063679
v -0.098207 -0.061808 1.063712
v 0.104977 -0.067867 1.069827
v 0.090466 -0.067896 1.069860
v 0.075955 -0.067926 1.069893
v 0.061444 -0.067955 1.069926
v 0.046933 -0.067984 1.069959
v 0.032422 -0.068013 1.069992
v 0.017911 -0.068042 1.070025
v 0.003399 -0.068071 1.070058
v -0.011112 -0.068101 1.070091
v -0.025623 -0.068130 1.070123
v -0.040134 -0.068159 1.070156
v -0.054645 -0.068188 1.070189
v -0.069156 -0.068217 1.070222
v -0.083668 -0.068247 1.070255
v -0.098179 -0.068276 1.070288
v 0.105005 -0.074335 1.076403
v 0.090494 -0.074364 1.076436
v 0.075983 -0.074393 1.076469
v 0.061472 -0.074422 1.076502
v 0.046961 -0.074452 1.076535
v 0.032450 -0.074481 1.076568
v 0.017938 -0.074510 1.076601
v 0.003427 -0.074539 1.076634
v -0.011084 -0.074568 1.076667
v -0.025595 -0.074598 1.076700
v -0.040106 -0.074627 1.076733
v -0.054617 -0.074656 1.076766
v -0.069128 -0.074685 1.076799
v -0.083640 -0.074714 1.076832
v -0.098151 -0.074743 1.076865
v 0.105033 -0.080803 1.082980
v 0.090522 -0.080832 1.083013
v 0.076011 -0.080861 1.083046
v 0.061500 -0.080890 1.083079
v 0.046989 -0.080919 1.083112
v 0.032478 -0.080949 1.083145
v 0.017966 -0.080978 1.083178
v 0.003455 -0.081007 1.083211
v -0.011056 -0.081036 1.083243
v -0.025567 -0.081065 1.083277
v -0.040078 -0.081094 1.083309
v -0.054589 -0.081124 1.083342
v -0.069100 -0.081153 1.083375
v -0.083612 -0.081182 1.083408
v -0.098123 -0.081211 1.083441
v 0.105061 -0.087270 1.089556
v 0.090550 -0.087299 1.089589
v 0.076039 -0.087329 1.089622
v 0.061528 -0.087358 1.089655
v 0.047017 -0.087387 1.089688
v 0.032506 -0.087416 1.089721
v 0.017994 -0.087445 1.089754
v 0.003483 -0.087475 1.089787
v -0.011028 -0.087504 1.089820
v -0.025539 -0.087533 1.089853
v -0.040050 -0.087562 1.089886
v -0.054561 -0.087591 1.089919
v -0.069073 -0.087621 1.089952
v -0.083584 -0.087650 1.089985
v -0.098095 -0.087679 1.090018
v 0.105089 -0.093738 1.096133
v 0.090578 -0.093767 1.096166
v 0.076067 -0.093796 1.096199
v 0.061556 -0.093826 1.096232
v 0.047045 -0.093855 1.096265
v 0.032533 -0.093884 1.096298
v 0.018022 -0.093913 1.096331
v 0.003511 -0.093942 1.096364
v -0.011000 -0.093971 1.096396
v -0.025511 -0.094001 1.096429
v -0.040022 -0.094030 1.096462
v -0.054533 -0.094059 1.096495
v -0.069045 -0.094088 1.096528
v -0.083556 -0.094117 1.096561
v -0.098067 -0.094147 1.096594
s 0
f 190 204 189
f 190 206 205
f 191 207 206
f 192 208 207
f 194 208 193
f 195 209 194
f 195 211 210
f 197 211 196
f 198 212 197
f 198 214 213
f 200 214 199
f 200 216 215
f 202 216 201
f 203 217 202
f 204 220 219
f 205 221 220
f 206 222 221
f 208 222 207
f 209 223 208
f 210 224 209
f 211 225 210
f 211 227 226
f 212 228 227
f 214 228 213
f 215 229 214
f 216 230 215
f 217 231 216
f 218 232 217
f 220 234 219
f 221 235 220
f 222 236 221
f 223 237 222
f 224 238 223
f 224 240 239
f 226 240 225
f 227 241 226
f 228 242 227
f 228 244 243
f 229 245 244
f 230 246 245
f 231 247 246
f 232 248 247
f 234 250 249
f 236 250 235
f 237 251 236
f 237 253 252
f 239 253 238
f 240 254 239
f 241 255 240
f 242 256 241
f 243 257 242
f 244 258 243
f 245 259 244
f 246 260 245
f 247 261 246
f 248 262 247
f 250 264 249
f 251 265 250
f 251 267 266
f 252 268 267
f 253 269 268
f 254 270 269
f 256 270 255
f 256 272 271
f 257 273 272
f 259 273 258
f 260 274 259
f 260 276 275
f 261 277 276
f 262 278 277
f 265 279 264
f 265 281 280
f 266 282 281
f 268 282 267
f 269 283 268
f 269 285 284
f 270 286 285
f 271 287 286
f 273 287 272
f 273 289 288
f 274 290 289
f 275 291 290
f 276 292 291
f 278 292 277
f 279 295 294
f 280 296 295
f 281 297 296
f 282 298 297
f 283 299 298
f 285 299 284
f 286 300 285
f 287 301 286
f 288 302 287
f 289 303 288
f 290 304 289
f 291 305 290
f 292 306 291
f 293 307 292
f 295 309 294
f 296 310 295
f 297 311 296
f 298 312 297
f 299 313 298
f 300 314 299
f 300 316 315
f 301 317 316
f 303 317 302
f 303 319 318
f 304 320 319
f 305 321 320
f 306 322 321
f 308 322 307
f 309 325 324
f 311 325 310
f 311 327 326
f 312 328 327
f 313 329 328
f 315 329 314
f 316 330 315
f 317 331 316
f 318 332 317
f 319 333 318
f 320 334 319
f 321 335 320
f 322 336 321
f 323 337 322
f 325 339 324
f 325 341 340
f 327 341 326
f 328 342 327
f 329 343 328
f 330 344 329
f 331 345 330
f 331 347 346
f 333 347 332
f 334 348 333
f 335 349 334
f 336 350 335
f 336 352 351
f 338 352 337
f 340 354 339
f 341 355 340
f 341 357 356
f 343 357 342
f 344 358 343
f 344 360 359
f 346 360 345
f 347 361 346
f 348 362 347
f 348 364 363
f 349 365 364
f 350 366 365
f 351 367 366
f 352 368 367
f 354 370 369
f 356 370 355
f 357 371 356
f 357 373 372
f 359 373 358
f 359 375 374
f 360 376 375
f 362 376 361
f 362 378 377
f 364 378 363
f 365 379 364
f 366 380 365
f 367 381 366
f 368 382 367
f 369 385 384
f 370 386 385
f 371 387 386
f 372 388 387
f 373 389 388
f 375 389 374
f 376 390 375
f 377 391 376
f 378 392 377
f 379 393 378
f 379 395 394
f 381 395 380
f 381 397 396
f 382 398 397
f 385 399 384
f 386 400 385
f 387 401 386
f 388 402 387
f 389 403 388
f 389 405 404
f 391 405 390
f 392 406 391
f 393 407 392
f 393 409 408
f 394 410 409
f 395 411 410
f 396 412 411
f 397 413 412
f 1 189 23
f 24 190 189
f 26 190 25
f 27 191 26
f 28 192 27
f 28 194 193
f 29 195 194
f 31 195 30
f 32 196 31
f 33 197 32
f 33 199 198
f 34 200 199
f 35 201 200
f 36 202 201
f 37 203 202
f 2 203 38
f 39 218 203
f 40 233 218
f 41 248 233
f 42 263 248
f 263 44 278
f 44 293 278
f 45 308 293
f 46 323 308
f 47 338 323
f 48 353 338
f 49 368 353
f 50 383 368
f 51 398 383
f 398 53 413
f 53 54 413
f 413 55 412
f 411 55 56
f 411 57 410
f 410 58 409
f 409 59 408
f 407 59 60
f 406 60 61
f 406 62 405
f 404 62 63
f 403 63 64
f 402 64 65
f 401 65 66
f 400 66 67
f 399 67 68
f 9 68 3
f 384 9 10
f 369 10 11
f 12 369 11
f 339 12 13
f 324 13 14
f 15 324 14
f 294 15 16
f 17 294 16
f 264 17 18
f 19 264 18
f 20 249 19
f 219 20 21
f 22 219 21
f 189 22 23
f 415 429 414
f 416 430 415
f 416 432 431
f 418 432 417
f 419 433 418
f 419 435 434
f 421 435 420
f 422 436 421
f 423 437 422
f 423 439 438
f 425 439 424
f 426 440 425
f 426 442 441
f 428 442 427
f 430 444 429
f 431 445 430
f 431 447 446
f 432 448 447
f 433 449 448
f 435 449 434
f 436 450 435
f 436 452 451
f 438 452 437
f 439 453 438
f 440 454 439
f 441 455 440
f 442 456 441
f 443 457 442
f 444 460 459
f 445 461 460
f 447 461 446
f 448 462 447
f 449 463 448
f 450 464 449
f 450 466 465
f 452 466 451
f 453 467 452
f 453 469 468
f 455 469 454
f 456 470 455
f 457 471 456
f 457 473 472
f 460 474 459
f 461 475 460
f 462 476 461
f 463 477 462
f 464 478 463
f 464 480 479
f 465 481 480
f 467 481 466
f 468 482 467
f 469 483 468
f 469 485 484
f 470 486 485
f 471 487 486
f 473 487 472
f 475 489 474
f 476 490 475
f 476 492 491
f 477 493 492
f 478 494 493
f 480 494 479
f 481 495 480
f 482 496 481
f 483 497 482
f 484 498 483
f 485 499 484
f 486 500 485
f 487 501 486
f 487 503 502
f 489 505 504
f 490 506 505
f 492 506 491
f 493 507 492
f 494 508 493
f 495 509 494
f 496 510 495
f 496 512 511
f 497 513 512
f 498 514 513
f 499 515 514
f 500 516 515
f 502 516 501
f 503 517 502
f 505 519 504
f 506 520 505
f 506 522 521
f 507 523 522
f 508 524 523
f 510 524 509
f 511 525 510
f 512 526 511
f 513 527 512
f 514 528 513
f 515 529 514
f 516 530 515
f 516 532 531
f 518 532 517
f 520 534 519
f 521 535 520
f 522 536 521
f 523 537 522
f 524 538 523
f 525 539 524
f 526 540 525
f 526 542 541
f 528 542 527
f 529 543 528
f 530 544 529
f 530 546 545
f 532 546 531
f 533 547 532
f 534 550 549
f 536 550 535
f 536 552 551
f 537 553 552
f 539 553 538
f 539 555 554
f 540 556 555
f 542 556 541
f 543 557 542
f 543 559 558
f 544 560 559
f 546 560 545
f 547 561 546
f 547 563 562
f 550 564 549
f 551 565 550
f 552 566 551
f 552 568 567
f 554 568 553
f 555 569 554
f 555 571 570
f 557 571 556
f 558 572 557
f 559 573 558
f 560 574 559
f 561 575 560
f 562 576 561
f 563 577 562
f 564 580 579
f 566 580 565
f 567 581 566
f 568 582 567
f 568 584 583
f 570 584 569
f 571 585 570
f 572 586 571
f 573 587 572
f 574 588 573
f 575 589 574
f 575 591 590
f 576 592 591
f 578 592 577
f 579 595 594
f 581 595 580
f 582 596 581
f 582 598 597
f 583 599 598
f 585 599 584
f 586 600 585
f 587 601 586
f 588 602 587
f 588 604 603
f 589 605 604
f 591 605 590
f 592 606 591
f 593 607 592
f 595 609 594
f 595 611 610
f 597 611 596
f 598 612 597
f 599 613 598
f 600 614 599
f 601 615 600
f 601 617 616
f 602 618 617
f 604 618 603
f 605 619 604
f 606 620 605
f 607 621 606
f 608 622 607
f 609 625 624
f 611 625 610
f 612 626 611
f 613 627 612
f 613 629 628
f 615 629 614
f 616 630 615
f 616 632 631
f 618 632 617
f 619 633 618
f 620 634 619
f 621 635 620
f 622 636 621
f 623 637 622
f 68 83 3
f 67 414 68
f 67 416 415
f 65 416 66
f 65 418 417
f 63 418 64
f 63 420 419
f 61 420 62
f 60 421 61
f 59 422 60
f 59 424 423
f 57 424 58
f 56 425 57
f 55 426 56
f 54 427 55
f 54 84 428
f 84 443 428
f 85 458 443
f 458 87 473
f 87 488 473
f 488 89 503
f 89 518 503
f 90 533 518
f 91 548 533
f 548 93 563
f 93 578 563
f 578 95 593
f 95 608 593
f 608 97 623
f 97 638 623
f 98 99 638
f 638 100 637
f 637 101 636
f 635 101 102
f 635 103 634
f 634 104 633
f 633 105 632
f 631 105 106
f 631 107 630
f 630 108 629
f 628 108 109
f 628 110 627
f 627 111 626
f 626 112 625
f 624 112 113
f 69 113 7
f 609 69 70
f 594 70 71
f 579 71 72
f 73 579 72
f 549 73 74
f 75 549 74
f 519 75 76
f 504 76 77
f 489 77 78
f 474 78 79
f 80 474 79
f 81 459 80
f 429 81 82
f 83 429 82
f 639 655 654
f 641 655 640
f 642 656 641
f 643 657 642
f 643 659 658
f 644 660 659
f 646 660 645
f 647 661 646
f 648 662 647
f 649 663 648
f 650 664 649
f 651 665 650
f 651 667 666
f 653 667 652
f 655 669 654
f 655 671 670
f 656 672 671
f 657 673 672
f 658 674 673
f 660 674 659
f 660 676 675
f 662 676 661
f 662 678 677
f 664 678 663
f 665 679 664
f 666 680 665
f 667 681 666
f 668 682 667
f 669 685 684
f 670 686 685
f 672 686 671
f 672 688 687
f 674 688 673
f 675 689 674
f 675 691 690
f 677 691 676
f 677 693 692
f 679 693 678
f 680 694 679
f 681 695 680
f 682 696 681
f 682 698 697
f 685 699 684
f 686 700 685
f 687 701 686
f 688 702 687
f 689 703 688
f 689 705 704
f 691 705 690
f 692 706 691
f 693 707 692
f 694 708 693
f 695 709 694
f 695 711 710
f 696 712 711
f 698 712 697
f 700 714 699
f 700 716 715
f 701 717 716
f 702 718 717
f 703 719 718
f 705 719 704
f 706 720 705
f 707 721 706
f 708 722 707
f 709 723 708
f 710 724 709
f 711 725 710
f 712 726 711
f 712 728 727
f 714 730 729
f 715 731 730
f 717 731 716
f 718 732 717
f 719 733 718
f 720 734 719
f 721 735 720
f 722 736 721
f 722 738 737
f 724 738 723
f 724 740 739
f 725 741 740
f 727 741 726
f 728 742 727
f 730 744 729
f 731 745 730
f 731 747 746
f 732 748 747
f 734 748 733
f 735 749 734
f 736 750 735
f 737 751 736
f 738 752 737
f 739 753 738
f 740 754 739
f 741 755 740
f 742 756 741
f 743 757 742
f 745 759 744
f 746 760 745
f 747 761 746
f 748 762 747
f 749 763 748
f 750 764 749
f 751 765 750
f 751 767 766
f 753 767 752
f 754 768 753
f 755 769 754
f 755 771 770
f 756 772 771
f 758 772 757
f 759 775 774
f 761 775 760
f 761 777 776
f 762 778 777
f 764 778 763
f 765 779 764
f 765 781 780
f 767 781 766
f 768 782 767
f 768 784 783
f 769 785 784
f 771 785 770
f 771 787 786
f 772 788 787
f 775 789 774
f 776 790 775
f 777 791 776
f 778 792 777
f 778 794 793
f 780 794 779
f 781 795 780
f 782 796 781
f 782 798 797
f 784 798 783
f 785 799 784
f 786 800 785
f 787 801 786
f 788 802 787
f 789 805 804
f 791 805 790
f 792 806 791
f 793 807 792
f 794 808 793
f 795 809 794
f 796 810 795
f 797 811 796
f 798 812 797
f 799 813 798
f 800 814 799
f 800 816 815
f 801 817 816
f 802 818 817
f 804 820 819
f 805 821 820
f 806 822 821
f 807 823 822
f 809 823 808
f 810 824 809
f 811 825 810
f 812 826 811
f 813 827 812
f 813 829 828
f 815 829 814
f 816 830 815
f 817 831 816
f 818 832 817
f 820 834 819
f 821 835 820
f 822 836 821
f 823 837 822
f 824 838 823
f 824 840 839
f 825 841 840
f 826 842 841
f 828 842 827
f 829 843 828
f 830 844 829
f 831 845 830
f 831 847 846
f 833 847 832
f 835 849 834
f 836 850 835
f 837 851 836
f 838 852 837
f 839 853 838
f 840 854 839
f 841 855 840
f 842 856 841
f 843 857 842
f 844 858 843
f 845 859 844
f 846 860 845
f 847 861 846
f 848 862 847
f 113 128 7
f 112 639 113
f 111 640 112
f 110 641 111
f 110 643 642
f 108 643 109
f 108 645 644
f 106 645 107
f 105 646 106
f 105 648 647
f 104 649 648
f 102 649 103
f 101 650 102
f 101 652 651
f 100 653 652
f 99 129 653
f 129 668 653
f 130 683 668
f 683 132 698
f 132 713 698
f 713 134 728
f 134 743 728
f 135 758 743
f 136 773 758
f 773 138 788
f 138 803 788
f 139 818 803
f 140 833 818
f 833 142 848
f 142 863 848
f 143 144 863
f 863 145 862
f 862 146 861
f 860 146 147
f 860 148 859
f 858 148 149
f 857 149 150
f 856 150 151
f 855 151 152
f 855 153 854
f 853 153 154
f 853 155 852
f 852 156 851
f 851 157 850
f 849 157 158
f 114 158 5
f 834 114 115
f 819 115 116
f 804 116 117
f 118 804 117
f 774 118 119
f 120 774 119
f 744 120 121
f 122 744 121
f 714 122 123
f 699 123 124
f 125 699 124
f 669 125 126
f 654 126 127
f 128 654 127
f 865 879 864
f 866 880 865
f 866 882 881
f 868 882 867
f 869 883 868
f 869 885 884
f 871 885 870
f 872 886 871
f 873 887 872
f 873 889 888
f 875 889 874
f 876 890 875
f 876 892 891
f 878 892 877
f 880 894 879
f 881 895 880
f 881 897 896
f 882 898 897
f 883 899 898
f 885 899 884
f 886 900 885
f 886 902 901
f 888 902 887
f 889 903 888
f 890 904 889
f 891 905 890
f 892 906 891
f 893 907 892
f 894 910 909
f 895 911 910
f 897 911 896
f 898 912 897
f 899 913 898
f 900 914 899
f 900 916 915
f 902 916 901
f 903 917 902
f 903 919 918
f 905 919 904
f 906 920 905
f 907 921 906
f 907 923 922
f 910 924 909
f 911 925 910
f 912 926 911
f 913 927 912
f 914 928 913
f 914 930 929
f 915 931 930
f 917 931 916
f 918 932 917
f 919 933 918
f 919 935 934
f 920 936 935
f 921 937 936
f 923 937 922
f 925 939 924
f 926 940 925
f 926 942 941
f 927 943 942
f 928 944 943
f 930 944 929
f 931 945 930
f 932 946 931
f 933 947 932
f 934 948 933
f 935 949 934
f 936 950 935
f 937 951 936
f 937 953 952
f 939 955 954
f 940 956 955
f 942 956 941
f 943 957 942
f 944 958 943
f 945 959 944
f 946 960 945
f 946 962 961
f 947 963 962
f 948 964 963
f 949 965 964
f 950 966 965
f 952 966 951
f 953 967 952
f 955 969 954
f 956 970 955
f 956 972 971
f 957 973 972
f 958 974 973
f 960 974 959
f 961 975 960
f 962 976 961
f 963 977 962
f 964 978 963
f 965 979 964
f 966 980 965
f 966 982 981
f 968 982 967
f 970 984 969
f 971 985 970
f 972 986 971
f 973 987 972
f 974 988 973
f 975 989 974
f 976 990 975
f 976 992 991
f 978 992 977
f 979 993 978
f 980 994 979
f 980 996 995
f 982 996 981
f 983 997 982
f 984 1000 999
f 986 1000 985
f 986 1002 1001
f 987 1003 1002
f 989 1003 988
f 989 1005 1004
f 990 1006 1005
f 992 1006 991
f 993 1007 992
f 993 1009 1008
f 994 1010 1009
f 996 1010 995
f 997 1011 996
f 997 1013 1012
f 1000 1014 999
f 1001 1015 1000
f 1002 1016 1001
f 1002 1018 1017
f 1004 1018 1003
f 1005 1019 1004
f 1005 1021 1020
f 1007 1021 1006
f 1008 1022 1007
f 1009 1023 1008
f 1010 1024 1009
f 1011 1025 1010
f 1012 1026 1011
f 1013 1027 1012
f 1014 1030 1029
f 1016 1030 1015
f 1017 1031 1016
f 1018 1032 1017
f 1018 1034 1033
f 1020 1034 1019
f 1021 1035 1020
f 1022 1036 1021
f 1023 1037 1022
f 1024 1038 1023
f 1025 1039 1024
f 1025 1041 1040
f 1026 1042 1041
f 1028 1042 1027
f 1029 1045 1044
f 1031 1045 1030
f 1032 1046 1031
f 1032 1048 1047
f 1033 1049 1048
f 1035 1049 1034
f 1036 1050 1035
f 1037 1051 1036
f 1038 1052 1037
f 1038 1054 1053
f 1039 1055 1054
f 1041 1055 1040
f 1042 1056 1041
f 1043 1057 1042
f 1045 1059 1044
f 1045 1061 1060
f 1047 1061 1046
f 1048 1062 1047
f 1049 1063 1048
f 1050 1064 1049
f 1051 1065 1050
f 1051 1067 1066
f 1052 1068 1067
f 1054 1068 1053
f 1055 1069 1054
f 1056 1070 1055
f 1057 1071 1056
f 1058 1072 1057
f 1059 1075 1074
f 1061 1075 1060
f 1062 1076 1061
f 1063 1077 1062
f 1063 1079 1078
f 1065 1079 1064
f 1066 1080 1065
f 1066 1082 1081
f 1068 1082 1067
f 1069 1083 1068
f 1070 1084 1069
f 1071 1085 1070
f 1072 1086 1071
f 1073 1087 1072
f 158 173 5
f 157 864 158
f 156 865 157
f 156 867 866
f 155 868 867
f 153 868 154
f 153 870 869
f 151 870 152
f 150 871 151
f 149 872 150
f 149 874 873
f 147 874 148
f 146 875 147
f 146 877 876
f 145 878 877
f 144 174 878
f 174 893 878
f 175 908 893
f 908 177 923
f 177 938 923
f 938 179 953
f 179 968 953
f 180 983 968
f 181 998 983
f 998 183 1013
f 183 1028 1013
f 1028 185 1043
f 185 1058 1043
f 1058 187 1073
f 187 1088 1073
f 188 38 1088
f 1087 38 37
f 1087 36 1086
f 1086 35 1085
f 1085 34 1084
f 1084 33 1083
f 1082 33 32
f 1081 32 31
f 1081 30 1080
f 1080 29 1079
f 1078 29 28
f 1078 27 1077
f 1077 26 1076
f 1075 26 25
f 1075 24 1074
f 159 24 1
f 1059 159 160
f 1044 160 161
f 1029 161 162
f 163 1029 162
f 999 163 164
f 165 999 164
f 969 165 166
f 954 166 167
f 939 167 168
f 924 168 169
f 170 924 169
f 171 909 170
f 879 171 172
f 173 879 172
f 1090 1104 1089
f 1091 1105 1090
f 1092 1106 1091
f 1092 1108 1107
f 1094 1108 1093
f 1094 1110 1109
f 1095 1111 1110
f 1097 1111 1096
f 1098 1112 1097
f 1099 1113 1098
f 1099 1115 1114
f 1100 1116 1115
f 1101 1117 1116
f 1102 1118 1117
f 1105 1119 1104
f 1106 1120 1105
f 1107 1121 1106
f 1108 1122 1107
f 1109 1123 1108
f 1110 1124 1109
f 1110 1126 1125
f 1112 1126 1111
f 1113 1127 1112
f 1114 1128 1113
f 1115 1129 1114
f 1115 1131 1130
f 1117 1131 1116
f 1118 1132 1117
f 1119 1135 1134
f 1120 1136 1135
f 1121 1137 1136
f 1122 1138 1137
f 1123 1139 1138
f 1125 1139 1124
f 1125 1141 1140
f 1127 1141 1126
f 1127 1143 1142
f 1129 1143 1128
f 1130 1144 1129
f 1131 1145 1130
f 1132 1146 1131
f 1133 1147 1132
f 1135 1149 1134
f 1136 1150 1135
f 1137 1151 1136
f 1137 1153 1152
f 1139 1153 1138
f 1140 1154 1139
f 1141 1155 1140
f 1142 1156 1141
f 1143 1157 1142
f 1144 1158 1143
f 1145 1159 1144
f 1145 1161 1160
f 1146 1162 1161
f 1148 1162 1147
f 1150 1164 1149
f 1150 1166 1165
f 1151 1167 1166
f 1153 1167 1152
f 1154 1168 1153
f 1154 1170 1169
f 1155 1171 1170
f 1156 1172 1171
f 1158 1172 1157
f 1158 1174 1173
f 1159 1175 1174
f 1161 1175 1160
f 1161 1177 1176
f 1162 1178 1177
f 1164 1180 1179
f 1165 1181 1180
f 1167 1181 1166
f 1168 1182 1167
f 1169 1183 1168
f 1170 1184 1169
f 1171 1185 1170
f 1172 1186 1171
f 1172 1188 1187
f 1174 1188 1173
f 1174 1190 1189
f 1176 1190 1175
f 1177 1191 1176
f 1178 1192 1177
f 1179 1195 1194
f 1181 1195 1180
f 1182 1196 1181
f 1182 1198 1197
f 1184 1198 1183
f 1185 1199 1184
f 1186 1200 1185
f 1186 1202 1201
f 1187 1203 1202
f 1188 1204 1203
f 1190 1204 1189
f 1190 1206 1205
f 1191 1207 1206
f 1193 1207 1192
f 1195 1209 1194
f 1196 1210 1195
f 1197 1211 1196
f 1198 1212 1197
f 1199 1213 1198
f 1200 1214 1199
f 1201 1215 1200
f 1202 1216 1201
f 1203 1217 1202
f 1204 1218 1203
f 1205 1219 1204
f 1205 1221 1220
f 1207 1221 1206
f 1208 1222 1207
f 1209 1225 1224
f 1211 1225 1210
f 1212 1226 1211
f 1212 1228 1227
f 1214 1228 1213
f 1214 1230 1229
f 1216 1230 1215
f 1217 1231 1216
f 1218 1232 1217
f 1218 1234 1233
f 1219 1235 1234
f 1221 1235 1220
f 1221 1237 1236
f 1222 1238 1237
f 1224 1240 1239
f 1226 1240 1225
f 1227 1241 1226
f 1227 1243 1242
f 1228 1244 1243
f 1230 1244 1229
f 1231 1245 1230
f 1232 1246 1231
f 1232 1248 1247
f 1234 1248 1233
f 1235 1249 1234
f 1236 1250 1235
f 1237 1251 1236
f 1238 1252 1237
f 1240 1254 1239
f 1240 1256 1255
f 1242 1256 1241
f 1243 1257 1242
f 1244 1258 1243
f 1245 1259 1244
f 1245 1261 1260
f 1247 1261 1246
f 1248 1262 1247
f 1249 1263 1248
f 1250 1264 1249
f 1251 1265 1250
f 1252 1266 1251
f 1253 1267 1252
f 1255 1269 1254
f 1256 1270 1255
f 1256 1272 1271
f 1258 1272 1257
f 1259 1273 1258
f 1259 1275 1274
f 1261 1275 1260
f 1262 1276 1261
f 1263 1277 1262
f 1263 1279 1278
f 1265 1279 1264
f 1266 1280 1265
f 1266 1282 1281
f 1267 1283 1282
f 1270 1284 1269
f 1270 1286 1285
f 1271 1287 1286
f 1272 1288 1287
f 1274 1288 1273
f 1275 1289 1274
f 1276 1290 1275
f 1277 1291 1276
f 1277 1293 1292
f 1279 1293 1278
f 1280 1294 1279
f 1281 1295 1280
f 1282 1296 1281
f 1283 1297 1282
f 1285 1299 1284
f 1285 1301 1300
f 1287 1301 1286
f 1288 1302 1287
f 1289 1303 1288
f 1290 1304 1289
f 1290 1306 1305
f 1292 1306 1291
f 1292 1308 1307
f 1294 1308 1293
f 1295 1309 1294
f 1296 1310 1295
f 1296 1312 1311
f 1298 1312 1297
f 83 9 3
f 83 1090 1089
f 81 1090 82
f 80 1091 81
f 79 1092 80
f 78 1093 79
f 78 1095 1094
f 77 1096 1095
f 75 1096 76
f 74 1097 75
f 74 1099 1098
f 72 1099 73
f 71 1100 72
f 70 1101 71
f 69 1102 70
f 69 128 1103
f 1103 127 1118
f 1118 126 1133
f 126 1148 1133
f 125 1163 1148
f 1163 123 1178
f 123 1193 1178
f 122 1208 1193
f 1208 120 1223
f 1223 119 1238
f 119 1253 1238
f 118 1268 1253
f 1268 116 1283
f 116 1298 1283
f 1298 114 1313
f 114 173 1313
f 1313 172 1312
f 1312 171 1311
f 1310 171 170
f 1309 170 169
f 1309 168 1308
f 1307 168 167
f 1307 166 1306
f 1306 165 1305
f 1305 164 1304
f 1303 164 163
f 1303 162 1302
f 1302 161 1301
f 1301 160 1300
f 1300 159 1299
f 23 159 1
f 22 1299 23
f 1269 22 21
f 1254 21 20
f 1239 20 19
f 18 1239 19
f 1209 18 17
f 1194 17 16
f 15 1194 16
f 14 1179 15
f 1149 14 13
f 12 1149 13
f 11 1134 12
f 1104 11 10
f 9 1104 10
f 1315 1329 1314
f 1316 1330 1315
f 1317 1331 1316
f 1317 1333 1332
f 1319 1333 1318
f 1319 1335 1334
f 1320 1336 1335
f 1322 1336 1321
f 1323 1337 1322
f 1324 1338 1323
f 1324 1340 1339
f 1325 1341 1340
f 1326 1342 1341
f 1327 1343 1342
f 1330 1344 1329
f 1331 1345 1330
f 1332 1346 1331
f 1333 1347 1332
f 1334 1348 1333
f 1335 1349 1334
f 1335 1351 1350
f 1337 1351 1336
f 1338 1352 1337
f 1339 1353 1338
f 1340 1354 1339
f 1340 1356 1355
f 1342 1356 1341
f 1343 1357 1342
f 1344 1360 1359
f 1345 1361 1360
f 1346 1362 1361
f 1347 1363 1362
f 1348 1364 1363
f 1350 1364 1349
f 1350 1366 1365
f 1352 1366 1351
f 1352 1368 1367
f 1354 1368 1353
f 1355 1369 1354
f 1356 1370 1355
f 1357 1371 1356
f 1358 1372 1357
f 1360 1374 1359
f 1361 1375 1360
f 1362 1376 1361
f 1362 1378 1377
f 1364 1378 1363
f 1365 1379 1364
f 1366 1380 1365
f 1367 1381 1366
f 1368 1382 1367
f 1369 1383 1368
f 1370 1384 1369
f 1370 1386 1385
f 1371 1387 1386
f 1373 1387 1372
f 1375 1389 1374
f 1375 1391 1390
f 1376 1392 1391
f 1378 1392 1377
f 1379 1393 1378
f 1379 1395 1394
f 1380 1396 1395
f 1381 1397 1396
f 1383 1397 1382
f 1383 1399 1398
f 1384 1400 1399
f 1386 1400 1385
f 1386 1402 1401
f 1387 1403 1402
f 1389 1405 1404
f 1390 1406 1405
f 1392 1406 1391
f 1393 1407 1392
f 1394 1408 1393
f 1395 1409 1394
f 1396 1410 1395
f 1397 1411 1396
f 1397 1413 1412
f 1399 1413 1398
f 1399 1415 1414
f 1401 1415 1400
f 1402 1416 1401
f 1403 1417 1402
f 1404 1420 1419
f 1406 1420 1405
f 1407 1421 1406
f 1407 1423 1422
f 1409 1423 1408
f 1410 1424 1409
f 1411 1425 1410
f 1411 1427 1426
f 1412 1428 1427
f 1413 1429 1428
f 1415 1429 1414
f 1415 1431 1430
f 1416 1432 1431
f 1418 1432 1417
f 1420 1434 1419
f 1421 1435 1420
f 1422 1436 1421
f 1423 1437 1422
f 1424 1438 1423
f 1425 1439 1424
f 1426 1440 1425
f 1427 1441 1426
f 1428 1442 1427
f 1429 1443 1428
f 1430 1444 1429
f 1430 1446 1445
f 1432 1446 1431
f 1433 1447 1432
f 1434 1450 1449
f 1436 1450 1435
f 1437 1451 1436
f 1437 1453 1452
f 1439 1453 1438
f 1439 1455 1454
f 1441 1455 1440
f 1442 1456 1441
f 1443 1457 1442
f 1443 1459 1458
f 1444 1460 1459
f 1446 1460 1445
f 1446 1462 1461
f 1447 1463 1462
f 1449 1465 1464
f 1451 1465 1450
f 1452 1466 1451
f 1452 1468 1467
f 1453 1469 1468
f 1455 1469 1454
f 1456 1470 1455
f 1457 1471 1456
f 1457 1473 1472
f 1459 1473 1458
f 1460 1474 1459
f 1461 1475 1460
f 1462 1476 1461
f 1463 1477 1462
f 1465 1479 1464
f 1465 1481 1480
f 1467 1481 1466
f 1468 1482 1467
f 1469 1483 1468
f 1470 1484 1469
f 1470 1486 1485
f 1472 1486 1471
f 1473 1487 1472
f 1474 1488 1473
f 1475 1489 1474
f 1476 1490 1475
f 1477 1491 1476
f 1478 1492 1477
f 1480 1494 1479
f 1481 1495 1480
f 1481 1497 1496
f 1483 1497 1482
f 1484 1498 1483
f 1484 1500 1499
f 1486 1500 1485
f 1487 1501 1486
f 1488 1502 1487
f 1488 1504 1503
f 1490 1504 1489
f 1491 1505 1490
f 1491 1507 1506
f 1492 1508 1507
f 1495 1509 1494
f 1495 1511 1510
f 1496 1512 1511
f 1497 1513 1512
f 1499 1513 1498
f 1500 1514 1499
f 1501 1515 1500
f 1502 1516 1501
f 1502 1518 1517
f 1504 1518 1503
f 1505 1519 1504
f 1506 1520 1505
f 1507 1521 1506
f 1508 1522 1507
f 1510 1524 1509
f 1510 1526 1525
f 1512 1526 1511
f 1513 1527 1512
f 1514 1528 1513
f 1515 1529 1514
f 1515 1531 1530
f 1517 1531 1516
f 1517 1533 1532
f 1519 1533 1518
f 1520 1534 1519
f 1521 1535 1520
f 1521 1537 1536
f 1523 1537 1522
f 98 129 8
f 97 1314 98
f 97 1316 1315
f 95 1316 96
f 94 1317 95
f 93 1318 94
f 93 1320 1319
f 92 1321 1320
f 90 1321 91
f 89 1322 90
f 89 1324 1323
f 87 1324 88
f 86 1325 87
f 85 1326 86
f 85 1328 1327
f 84 53 1328
f 1328 52 1343
f 52 1358 1343
f 1358 50 1373
f 50 1388 1373
f 1388 48 1403
f 48 1418 1403
f 47 1433 1418
f 1433 45 1448
f 1448 44 1463
f 44 1478 1463
f 43 1493 1478
f 1493 41 1508
f 1508 40 1523
f 40 1538 1523
f 39 188 1538
f 1538 187 1537
f 1536 187 186
f 1536 185 1535
f 1534 185 184
f 1534 183 1533
f 1532 183 182
f 1531 182 181
f 1530 181 180
f 1530 179 1529
f 1528 179 178
f 1528 177 1527
f 1527 176 1526
f 1526 175 1525
f 1525 174 1524
f 143 174 6
f 142 1524 143
f 1494 142 141
f 1479 141 140
f 1464 140 139
f 138 1464 139
f 1434 138 137
f 1419 137 136
f 135 1419 136
f 1389 135 134
f 1374 134 133
f 132 1374 133
f 131 1359 132
f 1329 131 130
f 1314 130 129
f 190 205 204
f 190 191 206
f 191 192 207
f 192 193 208
f 194 209 208
f 195 210 209
f 195 196 211
f 197 212 211
f 198 213 212
f 198 199 214
f 200 215 214
f 200 201 216
f 202 217 216
f 203 218 217
f 204 205 220
f 205 206 221
f 206 207 222
f 208 223 222
f 209 224 223
f 210 225 224
f 211 226 225
f 211 212 227
f 212 213 228
f 214 229 228
f 215 230 229
f 216 231 230
f 217 232 231
f 218 233 232
f 220 235 234
f 221 236 235
f 222 237 236
f 223 238 237
f 224 239 238
f 224 225 240
f 226 241 240
f 227 242 241
f 228 243 242
f 228 229 244
f 229 230 245
f 230 231 246
f 231 232 247
f 232 233 248
f 234 235 250
f 236 251 250
f 237 252 251
f 237 238 253
f 239 254 253
f 240 255 254
f 241 256 255
f 242 257 256
f 243 258 257
f 244 259 258
f 245 260 259
f 246 261 260
f 247 262 261
f 248 263 262
f 250 265 264
f 251 266 265
f 251 252 267
f 252 253 268
f 253 254 269
f 254 255 270
f 256 271 270
f 256 257 272
f 257 258 273
f 259 274 273
f 260 275 274
f 260 261 276
f 261 262 277
f 262 263 278
f 265 280 279
f 265 266 281
f 266 267 282
f 268 283 282
f 269 284 283
f 269 270 285
f 270 271 286
f 271 272 287
f 273 288 287
f 273 274 289
f 274 275 290
f 275 276 291
f 276 277 292
f 278 293 292
f 279 280 295
f 280 281 296
f 281 282 297
f 282 283 298
f 283 284 299
f 285 300 299
f 286 301 300
f 287 302 301
f 288 303 302
f 289 304 303
f 290 305 304
f 291 306 305
f 292 307 306
f 293 308 307
f 295 310 309
f 296 311 310
f 297 312 311
f 298 313 312
f 299 314 313
f 300 315 314
f 300 301 316
f 301 302 317
f 303 318 317
f 303 304 319
f 304 305 320
f 305 306 321
f 306 307 322
f 308 323 322
f 309 310 325
f 311 326 325
f 311 312 327
f 312 313 328
f 313 314 329
f 315 330 329
f 316 331 330
f 317 332 331
f 318 333 332
f 319 334 333
f 320 335 334
f 321 336 335
f 322 337 336
f 323 338 337
f 325 340 339
f 325 326 341
f 327 342 341
f 328 343 342
f 329 344 343
f 330 345 344
f 331 346 345
f 331 332 347
f 333 348 347
f 334 349 348
f 335 350 349
f 336 351 350
f 336 337 352
f 338 353 352
f 340 355 354
f 341 356 355
f 341 342 357
f 343 358 357
f 344 359 358
f 344 345 360
f 346 361 360
f 347 362 361
f 348 363 362
f 348 349 364
f 349 350 365
f 350 351 366
f 351 352 367
f 352 353 368
f 354 355 370
f 356 371 370
f 357 372 371
f 357 358 373
f 359 374 373
f 359 360 375
f 360 361 376
f 362 377 376
f 362 363 378
f 364 379 378
f 365 380 379
f 366 381 380
f 367 382 381
f 368 383 382
f 369 370 385
f 370 371 386
f 371 372 387
f 372 373 388
f 373 374 389
f 375 390 389
f 376 391 390
f 377 392 391
f 378 393 392
f 379 394 393
f 379 380 395
f 381 396 395
f 381 382 397
f 382 383 398
f 385 400 399
f 386 401 400
f 387 402 401
f 388 403 402
f 389 404 403
f 389 390 405
f 391 406 405
f 392 407 406
f 393 408 407
f 393 394 409
f 394 395 410
f 395 396 411
f 396 397 412
f 397 398 413
f 1 24 189
f 24 25 190
f 26 191 190
f 27 192 191
f 28 193 192
f 28 29 194
f 29 30 195
f 31 196 195
f 32 197 196
f 33 198 197
f 33 34 199
f 34 35 200
f 35 36 201
f 36 37 202
f 37 38 203
f 2 39 203
f 39 40 218
f 40 41 233
f 41 42 248
f 42 43 263
f 263 43 44
f 44 45 293
f 45 46 308
f 46 47 323
f 47 48 338
f 48 49 353
f 49 50 368
f 50 51 383
f 51 52 398
f 398 52 53
f 53 4 54
f 413 54 55
f 411 412 55
f 411 56 57
f 410 57 58
f 409 58 59
f 407 408 59
f 406 407 60
f 406 61 62
f 404 405 62
f 403 404 63
f 402 403 64
f 401 402 65
f 400 401 66
f 399 400 67
f 9 399 68
f 384 399 9
f 369 384 10
f 12 354 369
f 339 354 12
f 324 339 13
f 15 309 324
f 294 309 15
f 17 279 294
f 264 279 17
f 19 249 264
f 20 234 249
f 219 234 20
f 22 204 219
f 189 204 22
f 415 430 429
f 416 431 430
f 416 417 432
f 418 433 432
f 419 434 433
f 419 420 435
f 421 436 435
f 422 437 436
f 423 438 437
f 423 424 439
f 425 440 439
f 426 441 440
f 426 427 442
f 428 443 442
f 430 445 444
f 431 446 445
f 431 432 447
f 432 433 448
f 433 434 449
f 435 450 449
f 436 451 450
f 436 437 452
f 438 453 452
f 439 454 453
f 440 455 454
f 441 456 455
f 442 457 456
f 443 458 457
f 444 445 460
f 445 446 461
f 447 462 461
f 448 463 462
f 449 464 463
f 450 465 464
f 450 451 466
f 452 467 466
f 453 468 467
f 453 454 469
f 455 470 469
f 456 471 470
f 457 472 471
f 457 458 473
f 460 475 474
f 461 476 475
f 462 477 476
f 463 478 477
f 464 479 478
f 464 465 480
f 465 466 481
f 467 482 481
f 468 483 482
f 469 484 483
f 469 470 485
f 470 471 486
f 471 472 487
f 473 488 487
f 475 490 489
f 476 491 490
f 476 477 492
f 477 478 493
f 478 479 494
f 480 495 494
f 481 496 495
f 482 497 496
f 483 498 497
f 484 499 498
f 485 500 499
f 486 501 500
f 487 502 501
f 487 488 503
f 489 490 505
f 490 491 506
f 492 507 506
f 493 508 507
f 494 509 508
f 495 510 509
f 496 511 510
f 496 497 512
f 497 498 513
f 498 499 514
f 499 500 515
f 500 501 516
f 502 517 516
f 503 518 517
f 505 520 519
f 506 521 520
f 506 507 522
f 507 508 523
f 508 509 524
f 510 525 524
f 511 526 525
f 512 527 526
f 513 528 527
f 514 529 528
f 515 530 529
f 516 531 530
f 516 517 532
f 518 533 532
f 520 535 534
f 521 536 535
f 522 537 536
f 523 538 537
f 524 539 538
f 525 540 539
f 526 541 540
f 526 527 542
f 528 543 542
f 529 544 543
f 530 545 544
f 530 531 546
f 532 547 546
f 533 548 547
f 534 535 550
f 536 551 550
f 536 537 552
f 537 538 553
f 539 554 553
f 539 540 555
f 540 541 556
f 542 557 556
f 543 558 557
f 543 544 559
f 544 545 560
f 546 561 560
f 547 562 561
f 547 548 563
f 550 565 564
f 551 566 565
f 552 567 566
f 552 553 568
f 554 569 568
f 555 570 569
f 555 556 571
f 557 572 571
f 558 573 572
f 559 574 573
f 560 575 574
f 561 576 575
f 562 577 576
f 563 578 577
f 564 565 580
f 566 581 580
f 567 582 581
f 568 583 582
f 568 569 584
f 570 585 584
f 571 586 585
f 572 587 586
f 573 588 587
f 574 589 588
f 575 590 589
f 575 576 591
f 576 577 592
f 578 593 592
f 579 580 595
f 581 596 595
f 582 597 596
f 582 583 598
f 583 584 599
f 585 600 599
f 586 601 600
f 587 602 601
f 588 603 602
f 588 589 604
f 589 590 605
f 591 606 605
f 592 607 606
f 593 608 607
f 595 610 609
f 595 596 611
f 597 612 611
f 598 613 612
f 599 614 613
f 600 615 614
f 601 616 615
f 601 602 617
f 602 603 618
f 604 619 618
f 605 620 619
f 606 621 620
f 607 622 621
f 608 623 622
f 609 610 625
f 611 626 625
f 612 627 626
f 613 628 627
f 613 614 629
f 615 630 629
f 616 631 630
f 616 617 632
f 618 633 632
f 619 634 633
f 620 635 634
f 621 636 635
f 622 637 636
f 623 638 637
f 68 414 83
f 67 415 414
f 67 66 416
f 65 417 416
f 65 64 418
f 63 419 418
f 63 62 420
f 61 421 420
f 60 422 421
f 59 423 422
f 59 58 424
f 57 425 424
f 56 426 425
f 55 427 426
f 54 428 427
f 54 4 84
f 84 85 443
f 85 86 458
f 458 86 87
f 87 88 488
f 488 88 89
f 89 90 518
f 90 91 533
f 91 92 548
f 548 92 93
f 93 94 578
f 578 94 95
f 95 96 608
f 608 96 97
f 97 98 638
f 98 8 99
f 638 99 100
f 637 100 101
f 635 636 101
f 635 102 103
f 634 103 104
f 633 104 105
f 631 632 105
f 631 106 107
f 630 107 108
f 628 629 108
f 628 109 110
f 627 110 111
f 626 111 112
f 624 625 112
f 69 624 113
f 609 624 69
f 594 609 70
f 579 594 71
f 73 564 579
f 549 564 73
f 75 534 549
f 519 534 75
f 504 519 76
f 489 504 77
f 474 489 78
f 80 459 474
f 81 444 459
f 429 444 81
f 83 414 429
f 639 640 655
f 641 656 655
f 642 657 656
f 643 658 657
f 643 644 659
f 644 645 660
f 646 661 660
f 647 662 661
f 648 663 662
f 649 664 663
f 650 665 664
f 651 666 665
f 651 652 667
f 653 668 667
f 655 670 669
f 655 656 671
f 656 657 672
f 657 658 673
f 658 659 674
f 660 675 674
f 660 661 676
f 662 677 676
f 662 663 678
f 664 679 678
f 665 680 679
f 666 681 680
f 667 682 681
f 668 683 682
f 669 670 685
f 670 671 686
f 672 687 686
f 672 673 688
f 674 689 688
f 675 690 689
f 675 676 691
f 677 692 691
f 677 678 693
f 679 694 693
f 680 695 694
f 681 696 695
f 682 697 696
f 682 683 698
f 685 700 699
f 686 701 700
f 687 702 701
f 688 703 702
f 689 704 703
f 689 690 705
f 691 706 705
f 692 707 706
f 693 708 707
f 694 709 708
f 695 710 709
f 695 696 711
f 696 697 712
f 698 713 712
f 700 715 714
f 700 701 716
f 701 702 717
f 702 703 718
f 703 704 719
f 705 720 719
f 706 721 720
f 707 722 721
f 708 723 722
f 709 724 723
f 710 725 724
f 711 726 725
f 712 727 726
f 712 713 728
f 714 715 730
f 715 716 731
f 717 732 731
f 718 733 732
f 719 734 733
f 720 735 734
f 721 736 735
f 722 737 736
f 722 723 738
f 724 739 738
f 724 725 740
f 725 726 741
f 727 742 741
f 728 743 742
f 730 745 744
f 731 746 745
f 731 732 747
f 732 733 748
f 734 749 748
f 735 750 749
f 736 751 750
f 737 752 751
f 738 753 752
f 739 754 753
f 740 755 754
f 741 756 755
f 742 757 756
f 743 758 757
f 745 760 759
f 746 761 760
f 747 762 761
f 748 763 762
f 749 764 763
f 750 765 764
f 751 766 765
f 751 752 767
f 753 768 767
f 754 769 768
f 755 770 769
f 755 756 771
f 756 757 772
f 758 773 772
f 759 760 775
f 761 776 775
f 761 762 777
f 762 763 778
f 764 779 778
f 765 780 779
f 765 766 781
f 767 782 781
f 768 783 782
f 768 769 784
f 769 770 785
f 771 786 785
f 771 772 787
f 772 773 788
f 775 790 789
f 776 791 790
f 777 792 791
f 778 793 792
f 778 779 794
f 780 795 794
f 781 796 795
f 782 797 796
f 782 783 798
f 784 799 798
f 785 800 799
f 786 801 800
f 787 802 801
f 788 803 802
f 789 790 805
f 791 806 805
f 792 807 806
f 793 808 807
f 794 809 808
f 795 810 809
f 796 811 810
f 797 812 811
f 798 813 812
f 799 814 813
f 800 815 814
f 800 801 816
f 801 802 817
f 802 803 818
f 804 805 820
f 805 806 821
f 806 807 822
f 807 808 823
f 809 824 823
f 810 825 824
f 811 826 825
f 812 827 826
f 813 828 827
f 813 814 829
f 815 830 829
f 816 831 830
f 817 832 831
f 818 833 832
f 820 835 834
f 821 836 835
f 822 837 836
f 823 838 837
f 824 839 838
f 824 825 840
f 825 826 841
f 826 827 842
f 828 843 842
f 829 844 843
f 830 845 844
f 831 846 845
f 831 832 847
f 833 848 847
f 835 850 849
f 836 851 850
f 837 852 851
f 838 853 852
f 839 854 853
f 840 855 854
f 841 856 855
f 842 857 856
f 843 858 857
f 844 859 858
f 845 860 859
f 846 861 860
f 847 862 861
f 848 863 862
f 113 639 128
f 112 640 639
f 111 641 640
f 110 642 641
f 110 109 643
f 108 644 643
f 108 107 645
f 106 646 645
f 105 647 646
f 105 104 648
f 104 103 649
f 102 650 649
f 101 651 650
f 101 100 652
f 100 99 653
f 99 8 129
f 129 130 668
f 130 131 683
f 683 131 132
f 132 133 713
f 713 133 134
f 134 135 743
f 135 136 758
f 136 137 773
f 773 137 138
f 138 139 803
f 139 140 818
f 140 141 833
f 833 141 142
f 142 143 863
f 143 6 144
f 863 144 145
f 862 145 146
f 860 861 146
f 860 147 148
f 858 859 148
f 857 858 149
f 856 857 150
f 855 856 151
f 855 152 153
f 853 854 153
f 853 154 155
f 852 155 156
f 851 156 157
f 849 850 157
f 114 849 158
f 834 849 114
f 819 834 115
f 804 819 116
f 118 789 804
f 774 789 118
f 120 759 774
f 744 759 120
f 122 729 744
f 714 729 122
f 699 714 123
f 125 684 699
f 669 684 125
f 654 669 126
f 128 639 654
f 865 880 879
f 866 881 880
f 866 867 882
f 868 883 882
f 869 884 883
f 869 870 885
f 871 886 885
f 872 887 886
f 873 888 887
f 873 874 889
f 875 890 889
f 876 891 890
f 876 877 892
f 878 893 892
f 880 895 894
f 881 896 895
f 881 882 897
f 882 883 898
f 883 884 899
f 885 900 899
f 886 901 900
f 886 887 902
f 888 903 902
f 889 904 903
f 890 905 904
f 891 906 905
f 892 907 906
f 893 908 907
f 894 895 910
f 895 896 911
f 897 912 911
f 898 913 912
f 899 914 913
f 900 915 914
f 900 901 916
f 902 917 916
f 903 918 917
f 903 904 919
f 905 920 919
f 906 921 920
f 907 922 921
f 907 908 923
f 910 925 924
f 911 926 925
f 912 927 926
f 913 928 927
f 914 929 928
f 914 915 930
f 915 916 931
f 917 932 931
f 918 933 932
f 919 934 933
f 919 920 935
f 920 921 936
f 921 922 937
f 923 938 937
f 925 940 939
f 926 941 940
f 926 927 942
f 927 928 943
f 928 929 944
f 930 945 944
f 931 946 945
f 932 947 946
f 933 948 947
f 934 949 948
f 935 950 949
f 936 951 950
f 937 952 951
f 937 938 953
f 939 940 955
f 940 941 956
f 942 957 956
f 943 958 957
f 944 959 958
f 945 960 959
f 946 961 960
f 946 947 962
f 947 948 963
f 948 949 964
f 949 950 965
f 950 951 966
f 952 967 966
f 953 968 967
f 955 970 969
f 956 971 970
f 956 957 972
f 957 958 973
f 958 959 974
f 960 975 974
f 961 976 975
f 962 977 976
f 963 978 977
f 964 979 978
f 965 980 979
f 966 981 980
f 966 967 982
f 968 983 982
f 970 985 984
f 971 986 985
f 972 987 986
f 973 988 987
f 974 989 988
f 975 990 989
f 976 991 990
f 976 977 992
f 978 993 992
f 979 994 993
f 980 995 994
f 980 981 996
f 982 997 996
f 983 998 997
f 984 985 1000
f 986 1001 1000
f 986 987 1002
f 987 988 1003
f 989 1004 1003
f 989 990 1005
f 990 991 1006
f 992 1007 1006
f 993 1008 1007
f 993 994 1009
f 994 995 1010
f 996 1011 1010
f 997 1012 1011
f 997 998 1013
f 1000 1015 1014
f 1001 1016 1015
f 1002 1017 1016
f 1002 1003 1018
f 1004 1019 1018
f 1005 1020 1019
f 1005 1006 1021
f 1007 1022 1021
f 1008 1023 1022
f 1009 1024 1023
f 1010 1025 1024
f 1011 1026 1025
f 1012 1027 1026
f 1013 1028 1027
f 1014 1015 1030
f 1016 1031 1030
f 1017 1032 1031
f 1018 1033 1032
f 1018 1019 1034
f 1020 1035 1034
f 1021 1036 1035
f 1022 1037 1036
f 1023 1038 1037
f 1024 1039 1038
f 1025 1040 1039
f 1025 1026 1041
f 1026 1027 1042
f 1028 1043 1042
f 1029 1030 1045
f 1031 1046 1045
f 1032 1047 1046
f 1032 1033 1048
f 1033 1034 1049
f 1035 1050 1049
f 1036 1051 1050
f 1037 1052 1051
f 1038 1053 1052
f 1038 1039 1054
f 1039 1040 1055
f 1041 1056 1055
f 1042 1057 1056
f 1043 1058 1057
f 1045 1060 1059
f 1045 1046 1061
f 1047 1062 1061
f 1048 1063 1062
f 1049 1064 1063
f 1050 1065 1064
f 1051 1066 1065
f 1051 1052 1067
f 1052 1053 1068
f 1054 1069 1068
f 1055 1070 1069
f 1056 1071 1070
f 1057 1072 1071
f 1058 1073 1072
f 1059 1060 1075
f 1061 1076 1075
f 1062 1077 1076
f 1063 1078 1077
f 1063 1064 1079
f 1065 1080 1079
f 1066 1081 1080
f 1066 1067 1082
f 1068 1083 1082
f 1069 1084 1083
f 1070 1085 1084
f 1071 1086 1085
f 1072 1087 1086
f 1073 1088 1087
f 158 864 173
f 157 865 864
f 156 866 865
f 156 155 867
f 155 154 868
f 153 869 868
f 153 152 870
f 151 871 870
f 150 872 871
f 149 873 872
f 149 148 874
f 147 875 874
f 146 876 875
f 146 145 877
f 145 144 878
f 144 6 174
f 174 175 893
f 175 176 908
f 908 176 177
f 177 178 938
f 938 178 179
f 179 180 968
f 180 181 983
f 181 182 998
f 998 182 183
f 183 184 1028
f 1028 184 185
f 185 186 1058
f 1058 186 187
f 187 188 1088
f 188 2 38
f 1087 1088 38
f 1087 37 36
f 1086 36 35
f 1085 35 34
f 1084 34 33
f 1082 1083 33
f 1081 1082 32
f 1081 31 30
f 1080 30 29
f 1078 1079 29
f 1078 28 27
f 1077 27 26
f 1075 1076 26
f 1075 25 24
f 159 1074 24
f 1059 1074 159
f 1044 1059 160
f 1029 1044 161
f 163 1014 1029
f 999 1014 163
f 165 984 999
f 969 984 165
f 954 969 166
f 939 954 167
f 924 939 168
f 170 909 924
f 171 894 909
f 879 894 171
f 173 864 879
f 1090 1105 1104
f 1091 1106 1105
f 1092 1107 1106
f 1092 1093 1108
f 1094 1109 1108
f 1094 1095 1110
f 1095 1096 1111
f 1097 1112 1111
f 1098 1113 1112
f 1099 1114 1113
f 1099 1100 1115
f 1100 1101 1116
f 1101 1102 1117
f 1102 1103 1118
f 1105 1120 1119
f 1106 1121 1120
f 1107 1122 1121
f 1108 1123 1122
f 1109 1124 1123
f 1110 1125 1124
f 1110 1111 1126
f 1112 1127 1126
f 1113 1128 1127
f 1114 1129 1128
f 1115 1130 1129
f 1115 1116 1131
f 1117 1132 1131
f 1118 1133 1132
f 1119 1120 1135
f 1120 1121 1136
f 1121 1122 1137
f 1122 1123 1138
f 1123 1124 1139
f 1125 1140 1139
f 1125 1126 1141
f 1127 1142 1141
f 1127 1128 1143
f 1129 1144 1143
f 1130 1145 1144
f 1131 1146 1145
f 1132 1147 1146
f 1133 1148 1147
f 1135 1150 1149
f 1136 1151 1150
f 1137 1152 1151
f 1137 1138 1153
f 1139 1154 1153
f 1140 1155 1154
f 1141 1156 1155
f 1142 1157 1156
f 1143 1158 1157
f 1144 1159 1158
f 1145 1160 1159
f 1145 1146 1161
f 1146 1147 1162
f 1148 1163 1162
f 1150 1165 1164
f 1150 1151 1166
f 1151 1152 1167
f 1153 1168 1167
f 1154 1169 1168
f 1154 1155 1170
f 1155 1156 1171
f 1156 1157 1172
f 1158 1173 1172
f 1158 1159 1174
f 1159 1160 1175
f 1161 1176 1175
f 1161 1162 1177
f 1162 1163 1178
f 1164 1165 1180
f 1165 1166 1181
f 1167 1182 1181
f 1168 1183 1182
f 1169 1184 1183
f 1170 1185 1184
f 1171 1186 1185
f 1172 1187 1186
f 1172 1173 1188
f 1174 1189 1188
f 1174 1175 1190
f 1176 1191 1190
f 1177 1192 1191
f 1178 1193 1192
f 1179 1180 1195
f 1181 1196 1195
f 1182 1197 1196
f 1182 1183 1198
f 1184 1199 1198
f 1185 1200 1199
f 1186 1201 1200
f 1186 1187 1202
f 1187 1188 1203
f 1188 1189 1204
f 1190 1205 1204
f 1190 1191 1206
f 1191 1192 1207
f 1193 1208 1207
f 1195 1210 1209
f 1196 1211 1210
f 1197 1212 1211
f 1198 1213 1212
f 1199 1214 1213
f 1200 1215 1214
f 1201 1216 1215
f 1202 1217 1216
f 1203 1218 1217
f 1204 1219 1218
f 1205 1220 1219
f 1205 1206 1221
f 1207 1222 1221
f 1208 1223 1222
f 1209 1210 1225
f 1211 1226 1225
f 1212 1227 1226
f 1212 1213 1228
f 1214 1229 1228
f 1214 1215 1230
f 1216 1231 1230
f 1217 1232 1231
f 1218 1233 1232
f 1218 1219 1234
f 1219 1220 1235
f 1221 1236 1235
f 1221 1222 1237
f 1222 1223 1238
f 1224 1225 1240
f 1226 1241 1240
f 1227 1242 1241
f 1227 1228 1243
f 1228 1229 1244
f 1230 1245 1244
f 1231 1246 1245
f 1232 1247 1246
f 1232 1233 1248
f 1234 1249 1248
f 1235 1250 1249
f 1236 1251 1250
f 1237 1252 1251
f 1238 1253 1252
f 1240 1255 1254
f 1240 1241 1256
f 1242 1257 1256
f 1243 1258 1257
f 1244 1259 1258
f 1245 1260 1259
f 1245 1246 1261
f 1247 1262 1261
f 1248 1263 1262
f 1249 1264 1263
f 1250 1265 1264
f 1251 1266 1265
f 1252 1267 1266
f 1253 1268 1267
f 1255 1270 1269
f 1256 1271 1270
f 1256 1257 1272
f 1258 1273 1272
f 1259 1274 1273
f 1259 1260 1275
f 1261 1276 1275
f 1262 1277 1276
f 1263 1278 1277
f 1263 1264 1279
f 1265 1280 1279
f 1266 1281 1280
f 1266 1267 1282
f 1267 1268 1283
f 1270 1285 1284
f 1270 1271 1286
f 1271 1272 1287
f 1272 1273 1288
f 1274 1289 1288
f 1275 1290 1289
f 1276 1291 1290
f 1277 1292 1291
f 1277 1278 1293
f 1279 1294 1293
f 1280 1295 1294
f 1281 1296 1295
f 1282 1297 1296
f 1283 1298 1297
f 1285 1300 1299
f 1285 1286 1301
f 1287 1302 1301
f 1288 1303 1302
f 1289 1304 1303
f 1290 1305 1304
f 1290 1291 1306
f 1292 1307 1306
f 1292 1293 1308
f 1294 1309 1308
f 1295 1310 1309
f 1296 1311 1310
f 1296 1297 1312
f 1298 1313 1312
f 83 1089 9
f 83 82 1090
f 81 1091 1090
f 80 1092 1091
f 79 1093 1092
f 78 1094 1093
f 78 77 1095
f 77 76 1096
f 75 1097 1096
f 74 1098 1097
f 74 73 1099
f 72 1100 1099
f 71 1101 1100
f 70 1102 1101
f 69 1103 1102
f 69 7 128
f 1103 128 127
f 1118 127 126
f 126 125 1148
f 125 124 1163
f 1163 124 123
f 123 122 1193
f 122 121 1208
f 1208 121 120
f 1223 120 119
f 119 118 1253
f 118 117 1268
f 1268 117 116
f 116 115 1298
f 1298 115 114
f 114 5 173
f 1313 173 172
f 1312 172 171
f 1310 1311 171
f 1309 1310 170
f 1309 169 168
f 1307 1308 168
f 1307 167 166
f 1306 166 165
f 1305 165 164
f 1303 1304 164
f 1303 163 162
f 1302 162 161
f 1301 161 160
f 1300 160 159
f 23 1299 159
f 22 1284 1299
f 1269 1284 22
f 1254 1269 21
f 1239 1254 20
f 18 1224 1239
f 1209 1224 18
f 1194 1209 17
f 15 1179 1194
f 14 1164 1179
f 1149 1164 14
f 12 1134 1149
f 11 1119 1134
f 1104 1119 11
f 9 1089 1104
f 1315 1330 1329
f 1316 1331 1330
f 1317 1332 1331
f 1317 1318 1333
f 1319 1334 1333
f 1319 1320 1335
f 1320 1321 1336
f 1322 1337 1336
f 1323 1338 1337
f 1324 1339 1338
f 1324 1325 1340
f 1325 1326 1341
f 1326 1327 1342
f 1327 1328 1343
f 1330 1345 1344
f 1331 1346 1345
f 1332 1347 1346
f 1333 1348 1347
f 1334 1349 1348
f 1335 1350 1349
f 1335 1336 1351
f 1337 1352 1351
f 1338 1353 1352
f 1339 1354 1353
f 1340 1355 1354
f 1340 1341 1356
f 1342 1357 1356
f 1343 1358 1357
f 1344 1345 1360
f 1345 1346 1361
f 1346 1347 1362
f 1347 1348 1363
f 1348 1349 1364
f 1350 1365 1364
f 1350 1351 1366
f 1352 1367 1366
f 1352 1353 1368
f 1354 1369 1368
f 1355 1370 1369
f 1356 1371 1370
f 1357 1372 1371
f 1358 1373 1372
f 1360 1375 1374
f 1361 1376 1375
f 1362 1377 1376
f 1362 1363 1378
f 1364 1379 1378
f 1365 1380 1379
f 1366 1381 1380
f 1367 1382 1381
f 1368 1383 1382
f 1369 1384 1383
f 1370 1385 1384
f 1370 1371 1386
f 1371 1372 1387
f 1373 1388 1387
f 1375 1390 1389
f 1375 1376 1391
f 1376 1377 1392
f 1378 1393 1392
f 1379 1394 1393
f 1379 1380 1395
f 1380 1381 1396
f 1381 1382 1397
f 1383 1398 1397
f 1383 1384 1399
f 1384 1385 1400
f 1386 1401 1400
f 1386 1387 1402
f 1387 1388 1403
f 1389 1390 1405
f 1390 1391 1406
f 1392 1407 1406
f 1393 1408 1407
f 1394 1409 1408
f 1395 1410 1409
f 1396 1411 1410
f 1397 1412 1411
f 1397 1398 1413
f 1399 1414 1413
f 1399 1400 1415
f 1401 1416 1415
f 1402 1417 1416
f 1403 1418 1417
f 1404 1405 1420
f 1406 1421 1420
f 1407 1422 1421
f 1407 1408 1423
f 1409 1424 1423
f 1410 1425 1424
f 1411 1426 1425
f 1411 1412 1427
f 1412 1413 1428
f 1413 1414 1429
f 1415 1430 1429
f 1415 1416 1431
f 1416 1417 1432
f 1418 1433 1432
f 1420 1435 1434
f 1421 1436 1435
f 1422 1437 1436
f 1423 1438 1437
f 1424 1439 1438
f 1425 1440 1439
f 1426 1441 1440
f 1427 1442 1441
f 1428 1443 1442
f 1429 1444 1443
f 1430 1445 1444
f 1430 1431 1446
f 1432 1447 1446
f 1433 1448 1447
f 1434 1435 1450
f 1436 1451 1450
f 1437 1452 1451
f 1437 1438 1453
f 1439 1454 1453
f 1439 1440 1455
f 1441 1456 1455
f 1442 1457 1456
f 1443 1458 1457
f 1443 1444 1459
f 1444 1445 1460
f 1446 1461 1460
f 1446 1447 1462
f 1447 1448 1463
f 1449 1450 1465
f 1451 1466 1465
f 1452 1467 1466
f 1452 1453 1468
f 1453 1454 1469
f 1455 1470 1469
f 1456 1471 1470
f 1457 1472 1471
f 1457 1458 1473
f 1459 1474 1473
f 1460 1475 1474
f 1461 1476 1475
f 1462 1477 1476
f 1463 1478 1477
f 1465 1480 1479
f 1465 1466 1481
f 1467 1482 1481
f 1468 1483 1482
f 1469 1484 1483
f 1470 1485 1484
f 1470 1471 1486
f 1472 1487 1486
f 1473 1488 1487
f 1474 1489 1488
f 1475 1490 1489
f 1476 1491 1490
f 1477 1492 1491
f 1478 1493 1492
f 1480 1495 1494
f 1481 1496 1495
f 1481 1482 1497
f 1483 1498 1497
f 1484 1499 1498
f 1484 1485 1500
f 1486 1501 1500
f 1487 1502 1501
f 1488 1503 1502
f 1488 1489 1504
f 1490 1505 1504
f 1491 1506 1505
f 1491 1492 1507
f 1492 1493 1508
f 1495 1510 1509
f 1495 1496 1511
f 1496 1497 1512
f 1497 1498 1513
f 1499 1514 1513
f 1500 1515 1514
f 1501 1516 1515
f 1502 1517 1516
f 1502 1503 1518
f 1504 1519 1518
f 1505 1520 1519
f 1506 1521 1520
f 1507 1522 1521
f 1508 1523 1522
f 1510 1525 1524
f 1510 1511 1526
f 1512 1527 1526
f 1513 1528 1527
f 1514 1529 1528
f 1515 1530 1529
f 1515 1516 1531
f 1517 1532 1531
f 1517 1518 1533
f 1519 1534 1533
f 1520 1535 1534
f 1521 1536 1535
f 1521 1522 1537
f 1523 1538 1537
f 98 1314 129
f 97 1315 1314
f 97 96 1316
f 95 1317 1316
f 94 1318 1317
f 93 1319 1318
f 93 92 1320
f 92 91 1321
f 90 1322 1321
f 89 1323 1322
f 89 88 1324
f 87 1325 1324
f 86 1326 1325
f 85 1327 1326
f 85 84 1328
f 84 4 53
f 1328 53 52
f 52 51 1358
f 1358 51 50
f 50 49 1388
f 1388 49 48
f 48 47 1418
f 47 46 1433
f 1433 46 45
f 1448 45 44
f 44 43 1478
f 43 42 1493
f 1493 42 41
f 1508 41 40
f 40 39 1538
f 39 2 188
f 1538 188 187
f 1536 1537 187
f 1536 186 185
f 1534 1535 185
f 1534 184 183
f 1532 1533 183
f 1531 1532 182
f 1530 1531 181
f 1530 180 179
f 1528 1529 179
f 1528 178 177
f 1527 177 176
f 1526 176 175
f 1525 175 174
f 143 1524 174
f 142 1509 1524
f 1494 1509 142
f 1479 1494 141
f 1464 1479 140
f 138 1449 1464
f 1434 1449 138
f 1419 1434 137
f 135 1404 1419
f 1389 1404 135
f 1374 1389 134
f 132 1359 1374
f 131 1344 1359
f 1329 1344 131
f 1314 1329 130
