# Blender 4.4.3
# www.blender.org
o brick_x-2-5
v -0.193531 -0.330046 1.024772
v -0.193786 -0.046198 1.135587
v -0.193962 -0.276375 0.887294
v -0.194217 0.007473 0.998109
v 0.038647 -0.329619 1.024212
v 0.038392 -0.045771 1.135027
v 0.038217 -0.275948 0.886734
v 0.037962 0.007900 0.997548
v -0.193935 -0.279729 0.895886
v -0.193908 -0.283084 0.904479
v -0.193881 -0.286438 0.913071
v -0.193854 -0.289793 0.921664
v -0.193827 -0.293147 0.930256
v -0.193800 -0.296502 0.938848
v -0.193773 -0.299856 0.947441
v -0.193747 -0.303211 0.956033
v -0.193720 -0.306565 0.964626
v -0.193693 -0.309919 0.973218
v -0.193666 -0.313274 0.981810
v -0.193639 -0.316628 0.990403
v -0.193612 -0.319983 0.998995
v -0.193585 -0.323337 1.007588
v -0.193558 -0.326692 1.016180
v -0.193547 -0.312306 1.031698
v -0.193563 -0.294565 1.038624
v -0.193579 -0.276825 1.045550
v -0.193595 -0.259084 1.052476
v -0.193611 -0.241344 1.059402
v -0.193627 -0.223603 1.066328
v -0.193643 -0.205863 1.073254
v -0.193659 -0.188122 1.080180
v -0.193675 -0.170382 1.087106
v -0.193691 -0.152641 1.094031
v -0.193707 -0.134901 1.100957
v -0.193722 -0.117160 1.107883
v -0.193738 -0.099420 1.114809
v -0.193754 -0.081679 1.121735
v -0.193770 -0.063939 1.128661
v -0.193813 -0.042844 1.126994
v -0.193840 -0.039489 1.118402
v -0.193867 -0.036135 1.109810
v -0.193894 -0.032781 1.101217
v -0.193921 -0.029426 1.092625
v -0.193948 -0.026072 1.084033
v -0.193974 -0.022717 1.075440
v -0.194001 -0.019363 1.066848
v -0.194028 -0.016008 1.058255
v -0.194055 -0.012654 1.049663
v -0.194082 -0.009299 1.041071
v -0.194109 -0.005945 1.032478
v -0.194136 -0.002590 1.023886
v -0.194163 0.000764 1.015293
v -0.194190 0.004119 1.006701
v -0.194201 -0.010268 0.991183
v -0.194185 -0.028008 0.984257
v -0.194169 -0.045749 0.977331
v -0.194153 -0.063489 0.970405
v -0.194137 -0.081229 0.963479
v -0.194121 -0.098970 0.956553
v -0.194105 -0.116710 0.949627
v -0.194089 -0.134451 0.942701
v -0.194073 -0.152191 0.935775
v -0.194057 -0.169932 0.928850
v -0.194041 -0.187672 0.921924
v -0.194026 -0.205413 0.914998
v -0.194010 -0.223153 0.908072
v -0.193994 -0.240894 0.901146
v -0.193978 -0.258634 0.894220
v 0.023705 -0.275974 0.886769
v 0.009194 -0.276001 0.886804
v -0.005317 -0.276028 0.886839
v -0.019828 -0.276055 0.886874
v -0.034339 -0.276081 0.886909
v -0.048850 -0.276108 0.886944
v -0.063361 -0.276135 0.886979
v -0.077873 -0.276161 0.887014
v -0.092384 -0.276188 0.887049
v -0.106895 -0.276215 0.887084
v -0.121406 -0.276241 0.887119
v -0.135917 -0.276268 0.887154
v -0.150428 -0.276295 0.887189
v -0.164939 -0.276321 0.887224
v -0.179451 -0.276348 0.887259
v -0.179705 0.007500 0.998074
v -0.165194 0.007526 0.998039
v -0.150683 0.007553 0.998004
v -0.136172 0.007580 0.997969
v -0.121661 0.007606 0.997934
v -0.107150 0.007633 0.997899
v -0.092639 0.007660 0.997864
v -0.078127 0.007687 0.997829
v -0.063616 0.007713 0.997794
v -0.049105 0.007740 0.997759
v -0.034594 0.007767 0.997724
v -0.020083 0.007793 0.997689
v -0.005572 0.007820 0.997654
v 0.008940 0.007847 0.997618
v 0.023451 0.007873 0.997584
v 0.037978 -0.009840 0.990623
v 0.037994 -0.027581 0.983697
v 0.038010 -0.045321 0.976771
v 0.038026 -0.063062 0.969845
v 0.038041 -0.080802 0.962919
v 0.038057 -0.098543 0.955993
v 0.038073 -0.116283 0.949067
v 0.038089 -0.134024 0.942141
v 0.038105 -0.151764 0.935215
v 0.038121 -0.169505 0.928289
v 0.038137 -0.187245 0.921363
v 0.038153 -0.204986 0.914438
v 0.038169 -0.222726 0.907512
v 0.038185 -0.240467 0.900586
v 0.038201 -0.258207 0.893660
v 0.038620 -0.326265 1.015620
v 0.038593 -0.322910 1.007027
v 0.038566 -0.319556 0.998435
v 0.038539 -0.316201 0.989843
v 0.038513 -0.312847 0.981250
v 0.038486 -0.309492 0.972658
v 0.038459 -0.306138 0.964065
v 0.038432 -0.302783 0.955473
v 0.038405 -0.299429 0.946881
v 0.038378 -0.296074 0.938288
v 0.038351 -0.292720 0.929696
v 0.038324 -0.289366 0.921103
v 0.038297 -0.286011 0.912511
v 0.038270 -0.282657 0.903919
v 0.038244 -0.279302 0.895326
v 0.037989 0.004546 1.006141
v 0.038016 0.001191 1.014733
v 0.038043 -0.002163 1.023326
v 0.038069 -0.005518 1.031918
v 0.038096 -0.008872 1.040510
v 0.038123 -0.012227 1.049103
v 0.038150 -0.015581 1.057695
v 0.038177 -0.018936 1.066288
v 0.038204 -0.022290 1.074880
v 0.038231 -0.025644 1.083472
v 0.038258 -0.028999 1.092065
v 0.038285 -0.032353 1.100657
v 0.038312 -0.035708 1.109249
v 0.038338 -0.039062 1.117842
v 0.038365 -0.042417 1.126434
v 0.038408 -0.063512 1.128101
v 0.038424 -0.081252 1.121175
v 0.038440 -0.098993 1.114249
v 0.038456 -0.116733 1.107323
v 0.038472 -0.134474 1.100397
v 0.038488 -0.152214 1.093471
v 0.038504 -0.169955 1.086545
v 0.038520 -0.187695 1.079619
v 0.038536 -0.205436 1.072693
v 0.038552 -0.223176 1.065768
v 0.038567 -0.240917 1.058842
v 0.038583 -0.258657 1.051916
v 0.038599 -0.276398 1.044990
v 0.038615 -0.294138 1.038064
v 0.038631 -0.311879 1.031138
v -0.179020 -0.330019 1.024737
v -0.164509 -0.329993 1.024702
v -0.149998 -0.329966 1.024667
v -0.135487 -0.329939 1.024632
v -0.120976 -0.329913 1.024597
v -0.106464 -0.329886 1.024562
v -0.091953 -0.329859 1.024527
v -0.077442 -0.329833 1.024492
v -0.062931 -0.329806 1.024457
v -0.048420 -0.329779 1.024422
v -0.033909 -0.329753 1.024387
v -0.019397 -0.329726 1.024352
v -0.004886 -0.329699 1.024317
v 0.009625 -0.329672 1.024282
v 0.024136 -0.329646 1.024247
v 0.023881 -0.045798 1.135062
v 0.009370 -0.045825 1.135097
v -0.005141 -0.045851 1.135132
v -0.019652 -0.045878 1.135167
v -0.034163 -0.045905 1.135202
v -0.048675 -0.045931 1.135237
v -0.063186 -0.045958 1.135272
v -0.077697 -0.045985 1.135307
v -0.092208 -0.046011 1.135342
v -0.106719 -0.046038 1.135377
v -0.121230 -0.046065 1.135412
v -0.135742 -0.046092 1.135447
v -0.150253 -0.046118 1.135482
v -0.164764 -0.046145 1.135517
v -0.179275 -0.046172 1.135552
v -0.193574 -0.308951 1.023106
v -0.193590 -0.291211 1.030032
v -0.193606 -0.273470 1.036958
v -0.193622 -0.255730 1.043884
v -0.193638 -0.237989 1.050810
v -0.193654 -0.220249 1.057735
v -0.193670 -0.202508 1.064661
v -0.193686 -0.184768 1.071587
v -0.193702 -0.167027 1.078513
v -0.193718 -0.149287 1.085439
v -0.193733 -0.131546 1.092365
v -0.193749 -0.113806 1.099291
v -0.193765 -0.096065 1.106217
v -0.193781 -0.078325 1.113143
v -0.193797 -0.060584 1.120069
v -0.193601 -0.305597 1.014513
v -0.193617 -0.287856 1.021439
v -0.193633 -0.270116 1.028365
v -0.193649 -0.252375 1.035291
v -0.193665 -0.234635 1.042217
v -0.193681 -0.216894 1.049143
v -0.193697 -0.199154 1.056069
v -0.193713 -0.181413 1.062995
v -0.193728 -0.163673 1.069921
v -0.193744 -0.145932 1.076847
v -0.193760 -0.128192 1.083773
v -0.193776 -0.110451 1.090698
v -0.193792 -0.092711 1.097624
v -0.193808 -0.074970 1.104550
v -0.193824 -0.057230 1.111476
v -0.193628 -0.302242 1.005921
v -0.193644 -0.284502 1.012847
v -0.193660 -0.266761 1.019773
v -0.193676 -0.249021 1.026699
v -0.193692 -0.231280 1.033625
v -0.193708 -0.213540 1.040551
v -0.193724 -0.195799 1.047477
v -0.193739 -0.178059 1.054402
v -0.193755 -0.160318 1.061328
v -0.193771 -0.142578 1.068254
v -0.193787 -0.124837 1.075180
v -0.193803 -0.107097 1.082106
v -0.193819 -0.089356 1.089032
v -0.193835 -0.071616 1.095958
v -0.193851 -0.053875 1.102884
v -0.193655 -0.298888 0.997329
v -0.193671 -0.281147 1.004255
v -0.193687 -0.263407 1.011181
v -0.193703 -0.245666 1.018106
v -0.193719 -0.227926 1.025032
v -0.193734 -0.210185 1.031958
v -0.193750 -0.192445 1.038884
v -0.193766 -0.174704 1.045810
v -0.193782 -0.156964 1.052736
v -0.193798 -0.139223 1.059662
v -0.193814 -0.121483 1.066588
v -0.193830 -0.103742 1.073514
v -0.193846 -0.086002 1.080440
v -0.193862 -0.068262 1.087366
v -0.193878 -0.050521 1.094291
v -0.193682 -0.295533 0.988736
v -0.193698 -0.277793 0.995662
v -0.193714 -0.260052 1.002588
v -0.193730 -0.242312 1.009514
v -0.193745 -0.224571 1.016440
v -0.193761 -0.206831 1.023366
v -0.193777 -0.189090 1.030292
v -0.193793 -0.171350 1.037218
v -0.193809 -0.153609 1.044144
v -0.193825 -0.135869 1.051069
v -0.193841 -0.118129 1.057995
v -0.193857 -0.100388 1.064921
v -0.193873 -0.082648 1.071847
v -0.193889 -0.064907 1.078773
v -0.193905 -0.047167 1.085699
v -0.193709 -0.292179 0.980144
v -0.193725 -0.274438 0.987070
v -0.193741 -0.256698 0.993996
v -0.193756 -0.238957 1.000922
v -0.193772 -0.221217 1.007848
v -0.193788 -0.203477 1.014773
v -0.193804 -0.185736 1.021699
v -0.193820 -0.167996 1.028625
v -0.193836 -0.150255 1.035551
v -0.193852 -0.132515 1.042477
v -0.193868 -0.114774 1.049403
v -0.193884 -0.097034 1.056329
v -0.193900 -0.079293 1.063255
v -0.193916 -0.061553 1.070181
v -0.193932 -0.043812 1.077107
v -0.193736 -0.288824 0.971551
v -0.193752 -0.271084 0.978477
v -0.193767 -0.253344 0.985403
v -0.193783 -0.235603 0.992329
v -0.193799 -0.217863 0.999255
v -0.193815 -0.200122 1.006181
v -0.193831 -0.182382 1.013107
v -0.193847 -0.164641 1.020033
v -0.193863 -0.146901 1.026959
v -0.193879 -0.129160 1.033885
v -0.193895 -0.111420 1.040811
v -0.193911 -0.093679 1.047737
v -0.193927 -0.075939 1.054662
v -0.193943 -0.058198 1.061588
v -0.193959 -0.040458 1.068514
v -0.193762 -0.285470 0.962959
v -0.193778 -0.267730 0.969885
v -0.193794 -0.249989 0.976811
v -0.193810 -0.232249 0.983737
v -0.193826 -0.214508 0.990663
v -0.193842 -0.196768 0.997589
v -0.193858 -0.179027 1.004515
v -0.193874 -0.161287 1.011441
v -0.193890 -0.143546 1.018366
v -0.193906 -0.125806 1.025292
v -0.193922 -0.108065 1.032218
v -0.193938 -0.090325 1.039144
v -0.193954 -0.072584 1.046070
v -0.193970 -0.054844 1.052996
v -0.193985 -0.037103 1.059922
v -0.193789 -0.282116 0.954367
v -0.193805 -0.264375 0.961293
v -0.193821 -0.246635 0.968219
v -0.193837 -0.228894 0.975144
v -0.193853 -0.211154 0.982070
v -0.193869 -0.193413 0.988996
v -0.193885 -0.175673 0.995922
v -0.193901 -0.157932 1.002848
v -0.193917 -0.140192 1.009774
v -0.193933 -0.122451 1.016700
v -0.193949 -0.104711 1.023626
v -0.193965 -0.086970 1.030552
v -0.193981 -0.069230 1.037478
v -0.193996 -0.051489 1.044404
v -0.194012 -0.033749 1.051329
v -0.193816 -0.278761 0.945774
v -0.193832 -0.261021 0.952700
v -0.193848 -0.243280 0.959626
v -0.193864 -0.225540 0.966552
v -0.193880 -0.207799 0.973478
v -0.193896 -0.190059 0.980404
v -0.193912 -0.172318 0.987330
v -0.193928 -0.154578 0.994256
v -0.193944 -0.136837 1.001182
v -0.193960 -0.119097 1.008108
v -0.193976 -0.101356 1.015033
v -0.193992 -0.083616 1.021959
v -0.194007 -0.065875 1.028885
v -0.194023 -0.048135 1.035811
v -0.194039 -0.030394 1.042737
v -0.193843 -0.275407 0.937182
v -0.193859 -0.257666 0.944108
v -0.193875 -0.239926 0.951034
v -0.193891 -0.222185 0.957960
v -0.193907 -0.204445 0.964886
v -0.193923 -0.186704 0.971811
v -0.193939 -0.168964 0.978737
v -0.193955 -0.151223 0.985663
v -0.193971 -0.133483 0.992589
v -0.193987 -0.115742 0.999515
v -0.194002 -0.098002 1.006441
v -0.194018 -0.080261 1.013367
v -0.194034 -0.062521 1.020293
v -0.194050 -0.044780 1.027219
v -0.194066 -0.027040 1.034145
v -0.193870 -0.272052 0.928590
v -0.193886 -0.254312 0.935515
v -0.193902 -0.236571 0.942441
v -0.193918 -0.218831 0.949367
v -0.193934 -0.201090 0.956293
v -0.193950 -0.183350 0.963219
v -0.193966 -0.165609 0.970145
v -0.193982 -0.147869 0.977071
v -0.193998 -0.130128 0.983997
v -0.194013 -0.112388 0.990923
v -0.194029 -0.094647 0.997849
v -0.194045 -0.076907 1.004775
v -0.194061 -0.059166 1.011701
v -0.194077 -0.041426 1.018626
v -0.194093 -0.023685 1.025552
v -0.193897 -0.268698 0.919997
v -0.193913 -0.250957 0.926923
v -0.193929 -0.233217 0.933849
v -0.193945 -0.215476 0.940775
v -0.193961 -0.197736 0.947701
v -0.193977 -0.179995 0.954627
v -0.193993 -0.162255 0.961553
v -0.194008 -0.144514 0.968479
v -0.194024 -0.126774 0.975404
v -0.194040 -0.109033 0.982330
v -0.194056 -0.091293 0.989256
v -0.194072 -0.073552 0.996182
v -0.194088 -0.055812 1.003108
v -0.194104 -0.038071 1.010034
v -0.194120 -0.020331 1.016960
v -0.193924 -0.265343 0.911405
v -0.193940 -0.247603 0.918331
v -0.193956 -0.229862 0.925257
v -0.193972 -0.212122 0.932183
v -0.193988 -0.194381 0.939108
v -0.194004 -0.176641 0.946034
v -0.194019 -0.158900 0.952960
v -0.194035 -0.141160 0.959886
v -0.194051 -0.123419 0.966812
v -0.194067 -0.105679 0.973738
v -0.194083 -0.087938 0.980664
v -0.194099 -0.070198 0.987590
v -0.194115 -0.052457 0.994516
v -0.194131 -0.034717 1.001442
v -0.194147 -0.016976 1.008368
v -0.193951 -0.261989 0.902812
v -0.193967 -0.244248 0.909738
v -0.193983 -0.226508 0.916664
v -0.193999 -0.208767 0.923590
v -0.194015 -0.191027 0.930516
v -0.194030 -0.173286 0.937442
v -0.194046 -0.155546 0.944368
v -0.194062 -0.137805 0.951294
v -0.194078 -0.120065 0.958220
v -0.194094 -0.102324 0.965146
v -0.194110 -0.084584 0.972072
v -0.194126 -0.066843 0.978997
v -0.194142 -0.049103 0.985923
v -0.194158 -0.031362 0.992849
v -0.194174 -0.013622 0.999775
v -0.179467 -0.258608 0.894185
v -0.179482 -0.240867 0.901111
v -0.179498 -0.223127 0.908037
v -0.179514 -0.205386 0.914963
v -0.179530 -0.187646 0.921889
v -0.179546 -0.169905 0.928815
v -0.179562 -0.152165 0.935740
v -0.179578 -0.134424 0.942666
v -0.179594 -0.116684 0.949592
v -0.179610 -0.098943 0.956518
v -0.179626 -0.081203 0.963444
v -0.179642 -0.063462 0.970370
v -0.179658 -0.045722 0.977296
v -0.179674 -0.027981 0.984222
v -0.179690 -0.010241 0.991148
v -0.164955 -0.258581 0.894150
v -0.164971 -0.240840 0.901076
v -0.164987 -0.223100 0.908002
v -0.165003 -0.205360 0.914928
v -0.165019 -0.187619 0.921854
v -0.165035 -0.169879 0.928780
v -0.165051 -0.152138 0.935705
v -0.165067 -0.134398 0.942631
v -0.165083 -0.116657 0.949557
v -0.165099 -0.098917 0.956483
v -0.165115 -0.081176 0.963409
v -0.165131 -0.063436 0.970335
v -0.165147 -0.045695 0.977261
v -0.165162 -0.027955 0.984187
v -0.165178 -0.010214 0.991113
v -0.150444 -0.258554 0.894115
v -0.150460 -0.240814 0.901041
v -0.150476 -0.223073 0.907967
v -0.150492 -0.205333 0.914893
v -0.150508 -0.187592 0.921819
v -0.150524 -0.169852 0.928745
v -0.150540 -0.152111 0.935670
v -0.150556 -0.134371 0.942596
v -0.150572 -0.116630 0.949522
v -0.150588 -0.098890 0.956448
v -0.150604 -0.081149 0.963374
v -0.150619 -0.063409 0.970300
v -0.150635 -0.045668 0.977226
v -0.150651 -0.027928 0.984152
v -0.150667 -0.010187 0.991078
v -0.135933 -0.258528 0.894080
v -0.135949 -0.240787 0.901006
v -0.135965 -0.223047 0.907932
v -0.135981 -0.205306 0.914858
v -0.135997 -0.187566 0.921784
v -0.136013 -0.169825 0.928710
v -0.136029 -0.152085 0.935635
v -0.136045 -0.134344 0.942561
v -0.136061 -0.116604 0.949487
v -0.136076 -0.098863 0.956413
v -0.136092 -0.081123 0.963339
v -0.136108 -0.063382 0.970265
v -0.136124 -0.045642 0.977191
v -0.136140 -0.027901 0.984117
v -0.136156 -0.010161 0.991043
v -0.121422 -0.258501 0.894045
v -0.121438 -0.240760 0.900971
v -0.121454 -0.223020 0.907897
v -0.121470 -0.205279 0.914823
v -0.121486 -0.187539 0.921749
v -0.121502 -0.169798 0.928675
v -0.121518 -0.152058 0.935600
v -0.121533 -0.134317 0.942526
v -0.121549 -0.116577 0.949452
v -0.121565 -0.098836 0.956378
v -0.121581 -0.081096 0.963304
v -0.121597 -0.063356 0.970230
v -0.121613 -0.045615 0.977156
v -0.121629 -0.027875 0.984082
v -0.121645 -0.010134 0.991008
v -0.106911 -0.258474 0.894010
v -0.106927 -0.240734 0.900936
v -0.106943 -0.222993 0.907862
v -0.106959 -0.205253 0.914788
v -0.106975 -0.187512 0.921714
v -0.106990 -0.169772 0.928639
v -0.107006 -0.152031 0.935565
v -0.107022 -0.134291 0.942491
v -0.107038 -0.116550 0.949417
v -0.107054 -0.098810 0.956343
v -0.107070 -0.081069 0.963269
v -0.107086 -0.063329 0.970195
v -0.107102 -0.045588 0.977121
v -0.107118 -0.027848 0.984047
v -0.107134 -0.010107 0.990973
v -0.092400 -0.258447 0.893975
v -0.092416 -0.240707 0.900901
v -0.092432 -0.222967 0.907827
v -0.092447 -0.205226 0.914753
v -0.092463 -0.187486 0.921679
v -0.092479 -0.169745 0.928604
v -0.092495 -0.152005 0.935530
v -0.092511 -0.134264 0.942456
v -0.092527 -0.116524 0.949382
v -0.092543 -0.098783 0.956308
v -0.092559 -0.081043 0.963234
v -0.092575 -0.063302 0.970160
v -0.092591 -0.045562 0.977086
v -0.092607 -0.027821 0.984012
v -0.092623 -0.010081 0.990938
v -0.077888 -0.258421 0.893940
v -0.077904 -0.240680 0.900866
v -0.077920 -0.222940 0.907792
v -0.077936 -0.205199 0.914718
v -0.077952 -0.187459 0.921644
v -0.077968 -0.169718 0.928569
v -0.077984 -0.151978 0.935495
v -0.078000 -0.134237 0.942421
v -0.078016 -0.116497 0.949347
v -0.078032 -0.098756 0.956273
v -0.078048 -0.081016 0.963199
v -0.078064 -0.063275 0.970125
v -0.078080 -0.045535 0.977051
v -0.078096 -0.027794 0.983977
v -0.078111 -0.010054 0.990903
v -0.063377 -0.258394 0.893905
v -0.063393 -0.240654 0.900831
v -0.063409 -0.222913 0.907757
v -0.063425 -0.205173 0.914683
v -0.063441 -0.187432 0.921609
v -0.063457 -0.169692 0.928534
v -0.063473 -0.151951 0.935460
v -0.063489 -0.134211 0.942386
v -0.063505 -0.116470 0.949312
v -0.063521 -0.098730 0.956238
v -0.063537 -0.080989 0.963164
v -0.063553 -0.063249 0.970090
v -0.063568 -0.045508 0.977016
v -0.063584 -0.027768 0.983942
v -0.063600 -0.010027 0.990868
v -0.048866 -0.258367 0.893870
v -0.048882 -0.240627 0.900796
v -0.048898 -0.222886 0.907722
v -0.048914 -0.205146 0.914648
v -0.048930 -0.187405 0.921574
v -0.048946 -0.169665 0.928499
v -0.048962 -0.151924 0.935425
v -0.048978 -0.134184 0.942351
v -0.048994 -0.116443 0.949277
v -0.049010 -0.098703 0.956203
v -0.049025 -0.080963 0.963129
v -0.049041 -0.063222 0.970055
v -0.049057 -0.045482 0.976981
v -0.049073 -0.027741 0.983907
v -0.049089 -0.010001 0.990833
v -0.034355 -0.258341 0.893835
v -0.034371 -0.240600 0.900761
v -0.034387 -0.222860 0.907687
v -0.034403 -0.205119 0.914613
v -0.034419 -0.187379 0.921539
v -0.034435 -0.169638 0.928464
v -0.034451 -0.151898 0.935390
v -0.034467 -0.134157 0.942316
v -0.034482 -0.116417 0.949242
v -0.034498 -0.098676 0.956168
v -0.034514 -0.080936 0.963094
v -0.034530 -0.063195 0.970020
v -0.034546 -0.045455 0.976946
v -0.034562 -0.027714 0.983872
v -0.034578 -0.009974 0.990798
v -0.019844 -0.258314 0.893800
v -0.019860 -0.240574 0.900726
v -0.019876 -0.222833 0.907652
v -0.019892 -0.205093 0.914578
v -0.019908 -0.187352 0.921503
v -0.019924 -0.169612 0.928429
v -0.019939 -0.151871 0.935355
v -0.019955 -0.134131 0.942281
v -0.019971 -0.116390 0.949207
v -0.019987 -0.098650 0.956133
v -0.020003 -0.080909 0.963059
v -0.020019 -0.063169 0.969985
v -0.020035 -0.045428 0.976911
v -0.020051 -0.027688 0.983837
v -0.020067 -0.009947 0.990763
v -0.005333 -0.258287 0.893765
v -0.005349 -0.240547 0.900691
v -0.005365 -0.222806 0.907617
v -0.005381 -0.205066 0.914543
v -0.005396 -0.187325 0.921468
v -0.005412 -0.169585 0.928394
v -0.005428 -0.151844 0.935320
v -0.005444 -0.134104 0.942246
v -0.005460 -0.116363 0.949172
v -0.005476 -0.098623 0.956098
v -0.005492 -0.080882 0.963024
v -0.005508 -0.063142 0.969950
v -0.005524 -0.045401 0.976876
v -0.005540 -0.027661 0.983802
v -0.005556 -0.009920 0.990728
v 0.009178 -0.258261 0.893730
v 0.009162 -0.240520 0.900656
v 0.009147 -0.222780 0.907582
v 0.009131 -0.205039 0.914508
v 0.009115 -0.187299 0.921433
v 0.009099 -0.169558 0.928359
v 0.009083 -0.151818 0.935285
v 0.009067 -0.134077 0.942211
v 0.009051 -0.116337 0.949137
v 0.009035 -0.098596 0.956063
v 0.009019 -0.080856 0.962989
v 0.009003 -0.063115 0.969915
v 0.008987 -0.045375 0.976841
v 0.008971 -0.027634 0.983767
v 0.008955 -0.009894 0.990693
v 0.023690 -0.258234 0.893695
v 0.023674 -0.240493 0.900621
v 0.023658 -0.222753 0.907547
v 0.023642 -0.205012 0.914473
v 0.023626 -0.187272 0.921398
v 0.023610 -0.169531 0.928324
v 0.023594 -0.151791 0.935250
v 0.023578 -0.134051 0.942176
v 0.023562 -0.116310 0.949102
v 0.023546 -0.098570 0.956028
v 0.023530 -0.080829 0.962954
v 0.023514 -0.063089 0.969880
v 0.023498 -0.045348 0.976806
v 0.023483 -0.027608 0.983732
v 0.023467 -0.009867 0.990658
v 0.038228 -0.261562 0.902252
v 0.038212 -0.243821 0.909178
v 0.038196 -0.226081 0.916104
v 0.038180 -0.208340 0.923030
v 0.038164 -0.190600 0.929956
v 0.038148 -0.172859 0.936882
v 0.038132 -0.155119 0.943808
v 0.038116 -0.137378 0.950734
v 0.038100 -0.119638 0.957659
v 0.038084 -0.101897 0.964585
v 0.038068 -0.084157 0.971511
v 0.038052 -0.066416 0.978437
v 0.038037 -0.048676 0.985363
v 0.038021 -0.030935 0.992289
v 0.038005 -0.013195 0.999215
v 0.038255 -0.264916 0.910845
v 0.038239 -0.247176 0.917771
v 0.038223 -0.229435 0.924696
v 0.038207 -0.211695 0.931622
v 0.038191 -0.193954 0.938548
v 0.038175 -0.176214 0.945474
v 0.038159 -0.158473 0.952400
v 0.038143 -0.140733 0.959326
v 0.038127 -0.122992 0.966252
v 0.038111 -0.105252 0.973178
v 0.038095 -0.087511 0.980104
v 0.038079 -0.069771 0.987030
v 0.038063 -0.052030 0.993955
v 0.038047 -0.034290 1.000881
v 0.038032 -0.016549 1.007807
v 0.038281 -0.268271 0.919437
v 0.038266 -0.250530 0.926363
v 0.038250 -0.232790 0.933289
v 0.038234 -0.215049 0.940215
v 0.038218 -0.197309 0.947141
v 0.038202 -0.179568 0.954067
v 0.038186 -0.161828 0.960992
v 0.038170 -0.144087 0.967918
v 0.038154 -0.126347 0.974844
v 0.038138 -0.108606 0.981770
v 0.038122 -0.090866 0.988696
v 0.038106 -0.073125 0.995622
v 0.038090 -0.055385 1.002548
v 0.038074 -0.037644 1.009474
v 0.038058 -0.019904 1.016400
v 0.038308 -0.271625 0.928029
v 0.038292 -0.253885 0.934955
v 0.038276 -0.236144 0.941881
v 0.038261 -0.218404 0.948807
v 0.038245 -0.200663 0.955733
v 0.038229 -0.182923 0.962659
v 0.038213 -0.165182 0.969585
v 0.038197 -0.147442 0.976511
v 0.038181 -0.129701 0.983437
v 0.038165 -0.111961 0.990363
v 0.038149 -0.094220 0.997288
v 0.038133 -0.076480 1.004214
v 0.038117 -0.058739 1.011140
v 0.038101 -0.040999 1.018066
v 0.038085 -0.023258 1.024992
v 0.038335 -0.274980 0.936622
v 0.038319 -0.257239 0.943548
v 0.038303 -0.239499 0.950474
v 0.038287 -0.221758 0.957399
v 0.038272 -0.204018 0.964325
v 0.038256 -0.186277 0.971251
v 0.038240 -0.168537 0.978177
v 0.038224 -0.150796 0.985103
v 0.038208 -0.133056 0.992029
v 0.038192 -0.115315 0.998955
v 0.038176 -0.097575 1.005881
v 0.038160 -0.079834 1.012807
v 0.038144 -0.062094 1.019733
v 0.038128 -0.044353 1.026659
v 0.038112 -0.026613 1.033584
v 0.038362 -0.278334 0.945214
v 0.038346 -0.260593 0.952140
v 0.038330 -0.242853 0.959066
v 0.038314 -0.225112 0.965992
v 0.038298 -0.207372 0.972918
v 0.038283 -0.189632 0.979844
v 0.038267 -0.171891 0.986770
v 0.038251 -0.154151 0.993695
v 0.038235 -0.136410 1.000621
v 0.038219 -0.118670 1.007547
v 0.038203 -0.100929 1.014473
v 0.038187 -0.083189 1.021399
v 0.038171 -0.065448 1.028325
v 0.038155 -0.047708 1.035251
v 0.038139 -0.029967 1.042177
v 0.038389 -0.281688 0.953807
v 0.038373 -0.263948 0.960732
v 0.038357 -0.246207 0.967658
v 0.038341 -0.228467 0.974584
v 0.038325 -0.210726 0.981510
v 0.038309 -0.192986 0.988436
v 0.038293 -0.175245 0.995362
v 0.038278 -0.157505 1.002288
v 0.038262 -0.139765 1.009214
v 0.038246 -0.122024 1.016140
v 0.038230 -0.104284 1.023066
v 0.038214 -0.086543 1.029992
v 0.038198 -0.068803 1.036917
v 0.038182 -0.051062 1.043843
v 0.038166 -0.033322 1.050769
v 0.038416 -0.285043 0.962399
v 0.038400 -0.267302 0.969325
v 0.038384 -0.249562 0.976251
v 0.038368 -0.231821 0.983177
v 0.038352 -0.214081 0.990103
v 0.038336 -0.196340 0.997028
v 0.038320 -0.178600 1.003954
v 0.038304 -0.160859 1.010880
v 0.038289 -0.143119 1.017806
v 0.038273 -0.125378 1.024732
v 0.038257 -0.107638 1.031658
v 0.038241 -0.089897 1.038584
v 0.038225 -0.072157 1.045510
v 0.038209 -0.054417 1.052436
v 0.038193 -0.036676 1.059362
v 0.038443 -0.288397 0.970991
v 0.038427 -0.270657 0.977917
v 0.038411 -0.252916 0.984843
v 0.038395 -0.235176 0.991769
v 0.038379 -0.217435 0.998695
v 0.038363 -0.199695 1.005621
v 0.038347 -0.181954 1.012547
v 0.038331 -0.164214 1.019473
v 0.038315 -0.146473 1.026399
v 0.038300 -0.128733 1.033324
v 0.038284 -0.110992 1.040250
v 0.038268 -0.093252 1.047176
v 0.038252 -0.075511 1.054102
v 0.038236 -0.057771 1.061028
v 0.038220 -0.040030 1.067954
v 0.038470 -0.291752 0.979584
v 0.038454 -0.274011 0.986510
v 0.038438 -0.256271 0.993436
v 0.038422 -0.238530 1.000361
v 0.038406 -0.220790 1.007287
v 0.038390 -0.203049 1.014213
v 0.038374 -0.185309 1.021139
v 0.038358 -0.167568 1.028065
v 0.038342 -0.149828 1.034991
v 0.038326 -0.132087 1.041917
v 0.038310 -0.114347 1.048843
v 0.038295 -0.096606 1.055769
v 0.038279 -0.078866 1.062695
v 0.038263 -0.061125 1.069620
v 0.038247 -0.043385 1.076546
v 0.038497 -0.295106 0.988176
v 0.038481 -0.277366 0.995102
v 0.038465 -0.259625 1.002028
v 0.038449 -0.241885 1.008954
v 0.038433 -0.224144 1.015880
v 0.038417 -0.206404 1.022806
v 0.038401 -0.188663 1.029732
v 0.038385 -0.170923 1.036657
v 0.038369 -0.153182 1.043583
v 0.038353 -0.135442 1.050509
v 0.038337 -0.117701 1.057435
v 0.038321 -0.099961 1.064361
v 0.038306 -0.082220 1.071287
v 0.038290 -0.064480 1.078213
v 0.038274 -0.046739 1.085139
v 0.038524 -0.298461 0.996768
v 0.038508 -0.280720 1.003694
v 0.038492 -0.262980 1.010620
v 0.038476 -0.245239 1.017546
v 0.038460 -0.227499 1.024472
v 0.038444 -0.209758 1.031398
v 0.038428 -0.192018 1.038324
v 0.038412 -0.174277 1.045250
v 0.038396 -0.156537 1.052176
v 0.038380 -0.138796 1.059102
v 0.038364 -0.121056 1.066028
v 0.038348 -0.103315 1.072953
v 0.038332 -0.085575 1.079879
v 0.038317 -0.067834 1.086805
v 0.038301 -0.050094 1.093731
v 0.038550 -0.301815 1.005361
v 0.038535 -0.284075 1.012287
v 0.038519 -0.266334 1.019213
v 0.038503 -0.248594 1.026139
v 0.038487 -0.230853 1.033064
v 0.038471 -0.213113 1.039990
v 0.038455 -0.195372 1.046916
v 0.038439 -0.177632 1.053842
v 0.038423 -0.159891 1.060768
v 0.038407 -0.142151 1.067694
v 0.038391 -0.124410 1.074620
v 0.038375 -0.106670 1.081546
v 0.038359 -0.088929 1.088472
v 0.038343 -0.071189 1.095398
v 0.038327 -0.053448 1.102324
v 0.038577 -0.305170 1.013953
v 0.038561 -0.287429 1.020879
v 0.038546 -0.269689 1.027805
v 0.038530 -0.251948 1.034731
v 0.038514 -0.234208 1.041657
v 0.038498 -0.216467 1.048583
v 0.038482 -0.198727 1.055509
v 0.038466 -0.180986 1.062435
v 0.038450 -0.163246 1.069360
v 0.038434 -0.145505 1.076286
v 0.038418 -0.127765 1.083212
v 0.038402 -0.110024 1.090138
v 0.038386 -0.092284 1.097064
v 0.038370 -0.074543 1.103990
v 0.038354 -0.056803 1.110916
v 0.038604 -0.308524 1.022546
v 0.038588 -0.290784 1.029472
v 0.038572 -0.273043 1.036397
v 0.038557 -0.255303 1.043323
v 0.038541 -0.237562 1.050249
v 0.038525 -0.219822 1.057175
v 0.038509 -0.202081 1.064101
v 0.038493 -0.184341 1.071027
v 0.038477 -0.166600 1.077953
v 0.038461 -0.148860 1.084879
v 0.038445 -0.131119 1.091805
v 0.038429 -0.113379 1.098731
v 0.038413 -0.095638 1.105657
v 0.038397 -0.077898 1.112582
v 0.038381 -0.060157 1.119508
v 0.024120 -0.311905 1.031173
v 0.024104 -0.294165 1.038099
v 0.024088 -0.276424 1.045025
v 0.024072 -0.258684 1.051951
v 0.024056 -0.240943 1.058877
v 0.024040 -0.223203 1.065803
v 0.024024 -0.205462 1.072728
v 0.024009 -0.187722 1.079654
v 0.023993 -0.169981 1.086580
v 0.023977 -0.152241 1.093506
v 0.023961 -0.134500 1.100432
v 0.023945 -0.116760 1.107358
v 0.023929 -0.099019 1.114284
v 0.023913 -0.081279 1.121210
v 0.023897 -0.063538 1.128136
v 0.009609 -0.311932 1.031208
v 0.009593 -0.294191 1.038134
v 0.009577 -0.276451 1.045060
v 0.009561 -0.258710 1.051986
v 0.009545 -0.240970 1.058912
v 0.009529 -0.223229 1.065838
v 0.009513 -0.205489 1.072763
v 0.009497 -0.187748 1.079689
v 0.009481 -0.170008 1.086615
v 0.009466 -0.152268 1.093541
v 0.009450 -0.134527 1.100467
v 0.009434 -0.116787 1.107393
v 0.009418 -0.099046 1.114319
v 0.009402 -0.081306 1.121245
v 0.009386 -0.063565 1.128171
v -0.004902 -0.311959 1.031243
v -0.004918 -0.294218 1.038169
v -0.004934 -0.276478 1.045095
v -0.004950 -0.258737 1.052021
v -0.004966 -0.240997 1.058947
v -0.004982 -0.223256 1.065873
v -0.004998 -0.205516 1.072798
v -0.005014 -0.187775 1.079724
v -0.005030 -0.170035 1.086650
v -0.005046 -0.152294 1.093576
v -0.005062 -0.134554 1.100502
v -0.005077 -0.116813 1.107428
v -0.005093 -0.099073 1.114354
v -0.005109 -0.081332 1.121280
v -0.005125 -0.063592 1.128206
v -0.019413 -0.311985 1.031278
v -0.019429 -0.294245 1.038204
v -0.019445 -0.276504 1.045130
v -0.019461 -0.258764 1.052056
v -0.019477 -0.241023 1.058982
v -0.019493 -0.223283 1.065908
v -0.019509 -0.205542 1.072834
v -0.019525 -0.187802 1.079759
v -0.019541 -0.170061 1.086685
v -0.019557 -0.152321 1.093611
v -0.019573 -0.134580 1.100537
v -0.019589 -0.116840 1.107463
v -0.019605 -0.099099 1.114389
v -0.019620 -0.081359 1.121315
v -0.019636 -0.063618 1.128241
v -0.033925 -0.312012 1.031313
v -0.033941 -0.294272 1.038239
v -0.033956 -0.276531 1.045165
v -0.033972 -0.258791 1.052091
v -0.033988 -0.241050 1.059017
v -0.034004 -0.223310 1.065943
v -0.034020 -0.205569 1.072868
v -0.034036 -0.187829 1.079794
v -0.034052 -0.170088 1.086720
v -0.034068 -0.152348 1.093646
v -0.034084 -0.134607 1.100572
v -0.034100 -0.116867 1.107498
v -0.034116 -0.099126 1.114424
v -0.034132 -0.081386 1.121350
v -0.034148 -0.063645 1.128276
v -0.048436 -0.312039 1.031348
v -0.048452 -0.294298 1.038274
v -0.048468 -0.276558 1.045200
v -0.048484 -0.258817 1.052126
v -0.048499 -0.241077 1.059052
v -0.048515 -0.223336 1.065978
v -0.048531 -0.205596 1.072904
v -0.048547 -0.187855 1.079829
v -0.048563 -0.170115 1.086755
v -0.048579 -0.152374 1.093681
v -0.048595 -0.134634 1.100607
v -0.048611 -0.116893 1.107533
v -0.048627 -0.099153 1.114459
v -0.048643 -0.081412 1.121385
v -0.048659 -0.063672 1.128311
v -0.062947 -0.312065 1.031383
v -0.062963 -0.294325 1.038309
v -0.062979 -0.276584 1.045235
v -0.062995 -0.258844 1.052161
v -0.063011 -0.241103 1.059087
v -0.063027 -0.223363 1.066013
v -0.063042 -0.205622 1.072939
v -0.063058 -0.187882 1.079865
v -0.063074 -0.170141 1.086790
v -0.063090 -0.152401 1.093716
v -0.063106 -0.134661 1.100642
v -0.063122 -0.116920 1.107568
v -0.063138 -0.099180 1.114494
v -0.063154 -0.081439 1.121420
v -0.063170 -0.063699 1.128346
v -0.077458 -0.312092 1.031418
v -0.077474 -0.294352 1.038344
v -0.077490 -0.276611 1.045270
v -0.077506 -0.258871 1.052196
v -0.077522 -0.241130 1.059122
v -0.077538 -0.223390 1.066048
v -0.077554 -0.205649 1.072973
v -0.077570 -0.187909 1.079899
v -0.077585 -0.170168 1.086825
v -0.077601 -0.152428 1.093751
v -0.077617 -0.134687 1.100677
v -0.077633 -0.116947 1.107603
v -0.077649 -0.099206 1.114529
v -0.077665 -0.081466 1.121455
v -0.077681 -0.063725 1.128381
v -0.091969 -0.312119 1.031453
v -0.091985 -0.294378 1.038379
v -0.092001 -0.276638 1.045305
v -0.092017 -0.258897 1.052231
v -0.092033 -0.241157 1.059157
v -0.092049 -0.223416 1.066083
v -0.092065 -0.205676 1.073009
v -0.092081 -0.187935 1.079934
v -0.092097 -0.170195 1.086860
v -0.092113 -0.152454 1.093786
v -0.092128 -0.134714 1.100712
v -0.092144 -0.116973 1.107638
v -0.092160 -0.099233 1.114564
v -0.092176 -0.081492 1.121490
v -0.092192 -0.063752 1.128416
v -0.106480 -0.312145 1.031488
v -0.106496 -0.294405 1.038414
v -0.106512 -0.276665 1.045340
v -0.106528 -0.258924 1.052266
v -0.106544 -0.241184 1.059192
v -0.106560 -0.223443 1.066118
v -0.106576 -0.205703 1.073044
v -0.106592 -0.187962 1.079970
v -0.106608 -0.170222 1.086895
v -0.106624 -0.152481 1.093821
v -0.106640 -0.134741 1.100747
v -0.106656 -0.117000 1.107673
v -0.106671 -0.099260 1.114599
v -0.106687 -0.081519 1.121525
v -0.106703 -0.063779 1.128451
v -0.120991 -0.312172 1.031523
v -0.121007 -0.294432 1.038449
v -0.121023 -0.276691 1.045375
v -0.121039 -0.258951 1.052301
v -0.121055 -0.241210 1.059227
v -0.121071 -0.223470 1.066153
v -0.121087 -0.205729 1.073079
v -0.121103 -0.187989 1.080004
v -0.121119 -0.170248 1.086930
v -0.121135 -0.152508 1.093856
v -0.121151 -0.134767 1.100782
v -0.121167 -0.117027 1.107708
v -0.121183 -0.099286 1.114634
v -0.121199 -0.081546 1.121560
v -0.121214 -0.063805 1.128486
v -0.135503 -0.312199 1.031558
v -0.135519 -0.294458 1.038484
v -0.135535 -0.276718 1.045410
v -0.135550 -0.258977 1.052336
v -0.135566 -0.241237 1.059262
v -0.135582 -0.223496 1.066188
v -0.135598 -0.205756 1.073114
v -0.135614 -0.188015 1.080040
v -0.135630 -0.170275 1.086965
v -0.135646 -0.152534 1.093891
v -0.135662 -0.134794 1.100817
v -0.135678 -0.117054 1.107743
v -0.135694 -0.099313 1.114669
v -0.135710 -0.081573 1.121595
v -0.135726 -0.063832 1.128521
v -0.150014 -0.312226 1.031593
v -0.150030 -0.294485 1.038519
v -0.150046 -0.276745 1.045445
v -0.150062 -0.259004 1.052371
v -0.150078 -0.241264 1.059297
v -0.150093 -0.223523 1.066223
v -0.150109 -0.205783 1.073149
v -0.150125 -0.188042 1.080075
v -0.150141 -0.170302 1.087000
v -0.150157 -0.152561 1.093926
v -0.150173 -0.134821 1.100852
v -0.150189 -0.117080 1.107778
v -0.150205 -0.099340 1.114704
v -0.150221 -0.081599 1.121630
v -0.150237 -0.063859 1.128556
v -0.164525 -0.312252 1.031628
v -0.164541 -0.294512 1.038554
v -0.164557 -0.276771 1.045480
v -0.164573 -0.259031 1.052406
v -0.164589 -0.241290 1.059332
v -0.164605 -0.223550 1.066258
v -0.164621 -0.205809 1.073184
v -0.164636 -0.188069 1.080110
v -0.164652 -0.170328 1.087035
v -0.164668 -0.152588 1.093961
v -0.164684 -0.134847 1.100887
v -0.164700 -0.117107 1.107813
v -0.164716 -0.099366 1.114739
v -0.164732 -0.081626 1.121665
v -0.164748 -0.063885 1.128591
v -0.179036 -0.312279 1.031663
v -0.179052 -0.294538 1.038589
v -0.179068 -0.276798 1.045515
v -0.179084 -0.259058 1.052441
v -0.179100 -0.241317 1.059367
v -0.179116 -0.223577 1.066293
v -0.179132 -0.205836 1.073219
v -0.179148 -0.188096 1.080145
v -0.179164 -0.170355 1.087070
v -0.179179 -0.152615 1.093996
v -0.179195 -0.134874 1.100922
v -0.179211 -0.117134 1.107848
v -0.179227 -0.099393 1.114774
v -0.179243 -0.081653 1.121700
v -0.179259 -0.063912 1.128626
v -0.179424 -0.279703 0.895851
v -0.164913 -0.279676 0.895816
v -0.150401 -0.279649 0.895781
v -0.135890 -0.279623 0.895746
v -0.121379 -0.279596 0.895711
v -0.106868 -0.279569 0.895676
v -0.092357 -0.279542 0.895641
v -0.077846 -0.279516 0.895606
v -0.063335 -0.279489 0.895571
v -0.048823 -0.279462 0.895536
v -0.034312 -0.279436 0.895501
v -0.019801 -0.279409 0.895466
v -0.005290 -0.279382 0.895431
v 0.009221 -0.279356 0.895396
v 0.023732 -0.279329 0.895361
v -0.179397 -0.283057 0.904444
v -0.164886 -0.283030 0.904409
v -0.150375 -0.283004 0.904374
v -0.135863 -0.282977 0.904339
v -0.121352 -0.282950 0.904304
v -0.106841 -0.282924 0.904269
v -0.092330 -0.282897 0.904234
v -0.077819 -0.282870 0.904199
v -0.063308 -0.282844 0.904164
v -0.048796 -0.282817 0.904129
v -0.034285 -0.282790 0.904094
v -0.019774 -0.282763 0.904059
v -0.005263 -0.282737 0.904024
v 0.009248 -0.282710 0.903989
v 0.023759 -0.282683 0.903954
v -0.179370 -0.286412 0.913036
v -0.164859 -0.286385 0.913001
v -0.150348 -0.286358 0.912966
v -0.135836 -0.286331 0.912931
v -0.121325 -0.286305 0.912896
v -0.106814 -0.286278 0.912861
v -0.092303 -0.286251 0.912826
v -0.077792 -0.286225 0.912791
v -0.063281 -0.286198 0.912756
v -0.048770 -0.286171 0.912721
v -0.034258 -0.286145 0.912686
v -0.019747 -0.286118 0.912651
v -0.005236 -0.286091 0.912616
v 0.009275 -0.286064 0.912581
v 0.023786 -0.286038 0.912546
v -0.179343 -0.289766 0.921629
v -0.164832 -0.289739 0.921594
v -0.150321 -0.289713 0.921559
v -0.135810 -0.289686 0.921524
v -0.121298 -0.289659 0.921489
v -0.106787 -0.289633 0.921454
v -0.092276 -0.289606 0.921419
v -0.077765 -0.289579 0.921384
v -0.063254 -0.289552 0.921349
v -0.048743 -0.289526 0.921314
v -0.034231 -0.289499 0.921278
v -0.019720 -0.289472 0.921243
v -0.005209 -0.289446 0.921209
v 0.009302 -0.289419 0.921173
v 0.023813 -0.289392 0.921138
v -0.179316 -0.293120 0.930221
v -0.164805 -0.293094 0.930186
v -0.150294 -0.293067 0.930151
v -0.135783 -0.293040 0.930116
v -0.121272 -0.293014 0.930081
v -0.106760 -0.292987 0.930046
v -0.092249 -0.292960 0.930011
v -0.077738 -0.292934 0.929976
v -0.063227 -0.292907 0.929941
v -0.048716 -0.292880 0.929906
v -0.034205 -0.292853 0.929871
v -0.019693 -0.292827 0.929836
v -0.005182 -0.292800 0.929801
v 0.009329 -0.292773 0.929766
v 0.023840 -0.292747 0.929731
v -0.179289 -0.296475 0.938813
v -0.164778 -0.296448 0.938778
v -0.150267 -0.296422 0.938743
v -0.135756 -0.296395 0.938708
v -0.121245 -0.296368 0.938673
v -0.106733 -0.296341 0.938638
v -0.092222 -0.296315 0.938603
v -0.077711 -0.296288 0.938568
v -0.063200 -0.296261 0.938533
v -0.048689 -0.296235 0.938498
v -0.034178 -0.296208 0.938463
v -0.019667 -0.296181 0.938428
v -0.005155 -0.296155 0.938393
v 0.009356 -0.296128 0.938358
v 0.023867 -0.296101 0.938323
v -0.179262 -0.299829 0.947406
v -0.164751 -0.299803 0.947371
v -0.150240 -0.299776 0.947336
v -0.135729 -0.299749 0.947301
v -0.121218 -0.299723 0.947266
v -0.106707 -0.299696 0.947231
v -0.092195 -0.299669 0.947196
v -0.077684 -0.299642 0.947161
v -0.063173 -0.299616 0.947126
v -0.048662 -0.299589 0.947091
v -0.034151 -0.299562 0.947056
v -0.019640 -0.299536 0.947021
v -0.005128 -0.299509 0.946986
v 0.009383 -0.299482 0.946951
v 0.023894 -0.299456 0.946916
v -0.179235 -0.303184 0.955998
v -0.164724 -0.303157 0.955963
v -0.150213 -0.303130 0.955928
v -0.135702 -0.303104 0.955893
v -0.121191 -0.303077 0.955858
v -0.106680 -0.303050 0.955823
v -0.092168 -0.303024 0.955788
v -0.077657 -0.302997 0.955753
v -0.063146 -0.302970 0.955718
v -0.048635 -0.302944 0.955683
v -0.034124 -0.302917 0.955648
v -0.019613 -0.302890 0.955613
v -0.005102 -0.302863 0.955578
v 0.009410 -0.302837 0.955543
v 0.023921 -0.302810 0.955508
v -0.179209 -0.306538 0.964591
v -0.164697 -0.306512 0.964556
v -0.150186 -0.306485 0.964521
v -0.135675 -0.306458 0.964486
v -0.121164 -0.306432 0.964450
v -0.106653 -0.306405 0.964415
v -0.092142 -0.306378 0.964381
v -0.077630 -0.306351 0.964345
v -0.063119 -0.306325 0.964310
v -0.048608 -0.306298 0.964275
v -0.034097 -0.306271 0.964240
v -0.019586 -0.306245 0.964205
v -0.005075 -0.306218 0.964170
v 0.009436 -0.306191 0.964135
v 0.023948 -0.306165 0.964100
v -0.179182 -0.309893 0.973183
v -0.164670 -0.309866 0.973148
v -0.150159 -0.309839 0.973113
v -0.135648 -0.309813 0.973078
v -0.121137 -0.309786 0.973043
v -0.106626 -0.309759 0.973008
v -0.092115 -0.309733 0.972973
v -0.077604 -0.309706 0.972938
v -0.063092 -0.309679 0.972903
v -0.048581 -0.309652 0.972868
v -0.034070 -0.309626 0.972833
v -0.019559 -0.309599 0.972798
v -0.005048 -0.309572 0.972763
v 0.009463 -0.309546 0.972728
v 0.023975 -0.309519 0.972693
v -0.179155 -0.313247 0.981775
v -0.164644 -0.313221 0.981740
v -0.150132 -0.313194 0.981705
v -0.135621 -0.313167 0.981670
v -0.121110 -0.313140 0.981635
v -0.106599 -0.313114 0.981600
v -0.092088 -0.313087 0.981565
v -0.077577 -0.313060 0.981530
v -0.063065 -0.313034 0.981495
v -0.048554 -0.313007 0.981460
v -0.034043 -0.312980 0.981425
v -0.019532 -0.312954 0.981390
v -0.005021 -0.312927 0.981355
v 0.009490 -0.312900 0.981320
v 0.024001 -0.312873 0.981285
v -0.179128 -0.316602 0.990368
v -0.164617 -0.316575 0.990333
v -0.150105 -0.316548 0.990298
v -0.135594 -0.316522 0.990263
v -0.121083 -0.316495 0.990228
v -0.106572 -0.316468 0.990193
v -0.092061 -0.316441 0.990158
v -0.077550 -0.316415 0.990123
v -0.063039 -0.316388 0.990088
v -0.048527 -0.316361 0.990053
v -0.034016 -0.316335 0.990018
v -0.019505 -0.316308 0.989983
v -0.004994 -0.316281 0.989948
v 0.009517 -0.316255 0.989913
v 0.024028 -0.316228 0.989878
v -0.179101 -0.319956 0.998960
v -0.164590 -0.319929 0.998925
v -0.150079 -0.319903 0.998890
v -0.135567 -0.319876 0.998855
v -0.121056 -0.319849 0.998820
v -0.106545 -0.319823 0.998785
v -0.092034 -0.319796 0.998750
v -0.077523 -0.319769 0.998715
v -0.063012 -0.319743 0.998680
v -0.048501 -0.319716 0.998645
v -0.033989 -0.319689 0.998610
v -0.019478 -0.319662 0.998575
v -0.004967 -0.319636 0.998540
v 0.009544 -0.319609 0.998505
v 0.024055 -0.319582 0.998470
v -0.179074 -0.323311 1.007553
v -0.164563 -0.323284 1.007517
v -0.150052 -0.323257 1.007482
v -0.135541 -0.323230 1.007447
v -0.121029 -0.323204 1.007412
v -0.106518 -0.323177 1.007377
v -0.092007 -0.323150 1.007342
v -0.077496 -0.323124 1.007307
v -0.062985 -0.323097 1.007272
v -0.048474 -0.323070 1.007237
v -0.033962 -0.323044 1.007202
v -0.019451 -0.323017 1.007167
v -0.004940 -0.322990 1.007132
v 0.009571 -0.322963 1.007097
v 0.024082 -0.322937 1.007062
v -0.179047 -0.326665 1.016145
v -0.164536 -0.326638 1.016110
v -0.150025 -0.326612 1.016075
v -0.135514 -0.326585 1.016040
v -0.121002 -0.326558 1.016005
v -0.106491 -0.326532 1.015970
v -0.091980 -0.326505 1.015935
v -0.077469 -0.326478 1.015900
v -0.062958 -0.326451 1.015865
v -0.048447 -0.326425 1.015830
v -0.033936 -0.326398 1.015795
v -0.019424 -0.326371 1.015760
v -0.004913 -0.326345 1.015725
v 0.009598 -0.326318 1.015690
v 0.024109 -0.326291 1.015655
v 0.023478 0.004519 1.006176
v 0.008966 0.004492 1.006211
v -0.005545 0.004466 1.006246
v -0.020056 0.004439 1.006281
v -0.034567 0.004412 1.006316
v -0.049078 0.004385 1.006351
v -0.063589 0.004359 1.006386
v -0.078101 0.004332 1.006421
v -0.092612 0.004305 1.006456
v -0.107123 0.004279 1.006491
v -0.121634 0.004252 1.006526
v -0.136145 0.004225 1.006561
v -0.150656 0.004199 1.006596
v -0.165167 0.004172 1.006631
v -0.179679 0.004145 1.006666
v 0.023504 0.001165 1.014768
v 0.008993 0.001138 1.014803
v -0.005518 0.001111 1.014838
v -0.020029 0.001084 1.014873
v -0.034540 0.001058 1.014908
v -0.049051 0.001031 1.014943
v -0.063562 0.001004 1.014978
v -0.078074 0.000978 1.015013
v -0.092585 0.000951 1.015048
v -0.107096 0.000924 1.015083
v -0.121607 0.000898 1.015118
v -0.136118 0.000871 1.015153
v -0.150629 0.000844 1.015188
v -0.165141 0.000817 1.015223
v -0.179652 0.000791 1.015258
v 0.023531 -0.002190 1.023361
v 0.009020 -0.002217 1.023396
v -0.005491 -0.002243 1.023431
v -0.020002 -0.002270 1.023466
v -0.034513 -0.002297 1.023501
v -0.049024 -0.002323 1.023536
v -0.063536 -0.002350 1.023571
v -0.078047 -0.002377 1.023606
v -0.092558 -0.002404 1.023641
v -0.107069 -0.002430 1.023676
v -0.121580 -0.002457 1.023711
v -0.136091 -0.002484 1.023746
v -0.150602 -0.002510 1.023781
v -0.165114 -0.002537 1.023816
v -0.179625 -0.002564 1.023851
v 0.023558 -0.005544 1.031953
v 0.009047 -0.005571 1.031988
v -0.005464 -0.005598 1.032023
v -0.019975 -0.005625 1.032058
v -0.034486 -0.005651 1.032093
v -0.048997 -0.005678 1.032128
v -0.063509 -0.005705 1.032163
v -0.078020 -0.005731 1.032198
v -0.092531 -0.005758 1.032233
v -0.107042 -0.005785 1.032268
v -0.121553 -0.005811 1.032303
v -0.136064 -0.005838 1.032338
v -0.150576 -0.005865 1.032373
v -0.165087 -0.005891 1.032408
v -0.179598 -0.005918 1.032443
v 0.023585 -0.008899 1.040545
v 0.009074 -0.008926 1.040580
v -0.005437 -0.008952 1.040615
v -0.019948 -0.008979 1.040650
v -0.034459 -0.009006 1.040685
v -0.048971 -0.009032 1.040720
v -0.063482 -0.009059 1.040756
v -0.077993 -0.009086 1.040791
v -0.092504 -0.009112 1.040825
v -0.107015 -0.009139 1.040861
v -0.121526 -0.009166 1.040896
v -0.136038 -0.009193 1.040931
v -0.150549 -0.009219 1.040966
v -0.165060 -0.009246 1.041001
v -0.179571 -0.009273 1.041036
v 0.023612 -0.012253 1.049138
v 0.009101 -0.012280 1.049173
v -0.005410 -0.012307 1.049208
v -0.019921 -0.012333 1.049243
v -0.034433 -0.012360 1.049278
v -0.048944 -0.012387 1.049313
v -0.063455 -0.012413 1.049348
v -0.077966 -0.012440 1.049383
v -0.092477 -0.012467 1.049418
v -0.106988 -0.012494 1.049453
v -0.121499 -0.012520 1.049488
v -0.136011 -0.012547 1.049523
v -0.150522 -0.012574 1.049558
v -0.165033 -0.012600 1.049593
v -0.179544 -0.012627 1.049628
v 0.023639 -0.015608 1.057730
v 0.009128 -0.015634 1.057765
v -0.005383 -0.015661 1.057800
v -0.019894 -0.015688 1.057835
v -0.034406 -0.015715 1.057870
v -0.048917 -0.015741 1.057905
v -0.063428 -0.015768 1.057940
v -0.077939 -0.015795 1.057975
v -0.092450 -0.015821 1.058010
v -0.106961 -0.015848 1.058045
v -0.121473 -0.015875 1.058080
v -0.135984 -0.015901 1.058115
v -0.150495 -0.015928 1.058150
v -0.165006 -0.015955 1.058185
v -0.179517 -0.015982 1.058220
v 0.023666 -0.018962 1.066323
v 0.009155 -0.018989 1.066358
v -0.005356 -0.019016 1.066393
v -0.019868 -0.019042 1.066428
v -0.034379 -0.019069 1.066463
v -0.048890 -0.019096 1.066498
v -0.063401 -0.019122 1.066533
v -0.077912 -0.019149 1.066568
v -0.092423 -0.019176 1.066603
v -0.106934 -0.019203 1.066638
v -0.121446 -0.019229 1.066673
v -0.135957 -0.019256 1.066708
v -0.150468 -0.019283 1.066743
v -0.164979 -0.019309 1.066778
v -0.179490 -0.019336 1.066813
v 0.023693 -0.022317 1.074915
v 0.009182 -0.022343 1.074950
v -0.005330 -0.022370 1.074985
v -0.019841 -0.022397 1.075020
v -0.034352 -0.022423 1.075055
v -0.048863 -0.022450 1.075090
v -0.063374 -0.022477 1.075125
v -0.077885 -0.022504 1.075160
v -0.092396 -0.022530 1.075195
v -0.106908 -0.022557 1.075230
v -0.121419 -0.022584 1.075265
v -0.135930 -0.022610 1.075300
v -0.150441 -0.022637 1.075335
v -0.164952 -0.022664 1.075370
v -0.179463 -0.022690 1.075405
v 0.023720 -0.025671 1.083507
v 0.009209 -0.025698 1.083542
v -0.005303 -0.025725 1.083577
v -0.019814 -0.025751 1.083612
v -0.034325 -0.025778 1.083647
v -0.048836 -0.025805 1.083682
v -0.063347 -0.025831 1.083717
v -0.077858 -0.025858 1.083752
v -0.092370 -0.025885 1.083787
v -0.106881 -0.025911 1.083822
v -0.121392 -0.025938 1.083858
v -0.135903 -0.025965 1.083892
v -0.150414 -0.025992 1.083928
v -0.164925 -0.026018 1.083963
v -0.179436 -0.026045 1.083997
v 0.023747 -0.029026 1.092100
v 0.009235 -0.029052 1.092135
v -0.005276 -0.029079 1.092170
v -0.019787 -0.029106 1.092205
v -0.034298 -0.029132 1.092240
v -0.048809 -0.029159 1.092275
v -0.063320 -0.029186 1.092310
v -0.077831 -0.029212 1.092345
v -0.092343 -0.029239 1.092380
v -0.106854 -0.029266 1.092415
v -0.121365 -0.029293 1.092450
v -0.135876 -0.029319 1.092485
v -0.150387 -0.029346 1.092520
v -0.164898 -0.029373 1.092555
v -0.179410 -0.029399 1.092590
v 0.023774 -0.032380 1.100692
v 0.009262 -0.032407 1.100727
v -0.005249 -0.032433 1.100762
v -0.019760 -0.032460 1.100797
v -0.034271 -0.032487 1.100832
v -0.048782 -0.032514 1.100867
v -0.063293 -0.032540 1.100902
v -0.077805 -0.032567 1.100937
v -0.092316 -0.032594 1.100972
v -0.106827 -0.032620 1.101007
v -0.121338 -0.032647 1.101042
v -0.135849 -0.032674 1.101077
v -0.150360 -0.032700 1.101112
v -0.164871 -0.032727 1.101147
v -0.179383 -0.032754 1.101182
v 0.023800 -0.035735 1.109285
v 0.009289 -0.035761 1.109320
v -0.005222 -0.035788 1.109354
v -0.019733 -0.035815 1.109390
v -0.034244 -0.035841 1.109425
v -0.048755 -0.035868 1.109460
v -0.063267 -0.035895 1.109495
v -0.077778 -0.035921 1.109530
v -0.092289 -0.035948 1.109565
v -0.106800 -0.035975 1.109600
v -0.121311 -0.036001 1.109635
v -0.135822 -0.036028 1.109670
v -0.150333 -0.036055 1.109705
v -0.164845 -0.036082 1.109740
v -0.179356 -0.036108 1.109775
v 0.023827 -0.039089 1.117877
v 0.009316 -0.039116 1.117912
v -0.005195 -0.039142 1.117947
v -0.019706 -0.039169 1.117982
v -0.034217 -0.039196 1.118017
v -0.048728 -0.039222 1.118052
v -0.063240 -0.039249 1.118087
v -0.077751 -0.039276 1.118122
v -0.092262 -0.039303 1.118157
v -0.106773 -0.039329 1.118192
v -0.121284 -0.039356 1.118227
v -0.135795 -0.039383 1.118262
v -0.150307 -0.039409 1.118297
v -0.164818 -0.039436 1.118332
v -0.179329 -0.039463 1.118367
v 0.023854 -0.042443 1.126469
v 0.009343 -0.042470 1.126504
v -0.005168 -0.042497 1.126539
v -0.019679 -0.042524 1.126574
v -0.034190 -0.042550 1.126609
v -0.048702 -0.042577 1.126644
v -0.063213 -0.042604 1.126679
v -0.077724 -0.042630 1.126714
v -0.092235 -0.042657 1.126749
v -0.106746 -0.042684 1.126784
v -0.121257 -0.042710 1.126819
v -0.135768 -0.042737 1.126854
v -0.150280 -0.042764 1.126889
v -0.164791 -0.042790 1.126925
v -0.179302 -0.042817 1.126959
s 0
f 190 204 189
f 190 206 205
f 191 207 206
f 192 208 207
f 194 208 193
f 195 209 194
f 195 211 210
f 197 211 196
f 198 212 197
f 198 214 213
f 200 214 199
f 200 216 215
f 202 216 201
f 203 217 202
f 204 220 219
f 205 221 220
f 206 222 221
f 208 222 207
f 209 223 208
f 210 224 209
f 211 225 210
f 211 227 226
f 212 228 227
f 214 228 213
f 215 229 214
f 216 230 215
f 217 231 216
f 218 232 217
f 220 234 219
f 221 235 220
f 222 236 221
f 223 237 222
f 224 238 223
f 224 240 239
f 226 240 225
f 227 241 226
f 228 242 227
f 228 244 243
f 229 245 244
f 230 246 245
f 231 247 246
f 232 248 247
f 234 250 249
f 236 250 235
f 237 251 236
f 237 253 252
f 239 253 238
f 240 254 239
f 241 255 240
f 242 256 241
f 243 257 242
f 244 258 243
f 245 259 244
f 246 260 245
f 247 261 246
f 248 262 247
f 250 264 249
f 251 265 250
f 251 267 266
f 252 268 267
f 253 269 268
f 254 270 269
f 256 270 255
f 256 272 271
f 257 273 272
f 259 273 258
f 260 274 259
f 260 276 275
f 261 277 276
f 262 278 277
f 265 279 264
f 265 281 280
f 266 282 281
f 268 282 267
f 269 283 268
f 269 285 284
f 270 286 285
f 271 287 286
f 273 287 272
f 273 289 288
f 274 290 289
f 275 291 290
f 276 292 291
f 278 292 277
f 279 295 294
f 280 296 295
f 281 297 296
f 282 298 297
f 283 299 298
f 285 299 284
f 286 300 285
f 287 301 286
f 288 302 287
f 289 303 288
f 290 304 289
f 291 305 290
f 292 306 291
f 293 307 292
f 295 309 294
f 296 310 295
f 297 311 296
f 298 312 297
f 299 313 298
f 300 314 299
f 300 316 315
f 301 317 316
f 303 317 302
f 303 319 318
f 304 320 319
f 305 321 320
f 306 322 321
f 308 322 307
f 309 325 324
f 311 325 310
f 311 327 326
f 312 328 327
f 313 329 328
f 315 329 314
f 316 330 315
f 317 331 316
f 318 332 317
f 319 333 318
f 320 334 319
f 321 335 320
f 322 336 321
f 323 337 322
f 325 339 324
f 325 341 340
f 327 341 326
f 328 342 327
f 329 343 328
f 330 344 329
f 331 345 330
f 331 347 346
f 333 347 332
f 334 348 333
f 335 349 334
f 336 350 335
f 336 352 351
f 338 352 337
f 340 354 339
f 341 355 340
f 341 357 356
f 343 357 342
f 344 358 343
f 344 360 359
f 346 360 345
f 347 361 346
f 348 362 347
f 348 364 363
f 349 365 364
f 350 366 365
f 351 367 366
f 352 368 367
f 354 370 369
f 356 370 355
f 357 371 356
f 357 373 372
f 359 373 358
f 359 375 374
f 360 376 375
f 362 376 361
f 362 378 377
f 364 378 363
f 365 379 364
f 366 380 365
f 367 381 366
f 368 382 367
f 369 385 384
f 370 386 385
f 371 387 386
f 372 388 387
f 373 389 388
f 375 389 374
f 376 390 375
f 377 391 376
f 378 392 377
f 379 393 378
f 379 395 394
f 381 395 380
f 381 397 396
f 382 398 397
f 385 399 384
f 386 400 385
f 387 401 386
f 388 402 387
f 389 403 388
f 389 405 404
f 391 405 390
f 392 406 391
f 393 407 392
f 393 409 408
f 394 410 409
f 395 411 410
f 396 412 411
f 397 413 412
f 1 189 23
f 24 190 189
f 26 190 25
f 27 191 26
f 28 192 27
f 28 194 193
f 29 195 194
f 31 195 30
f 32 196 31
f 33 197 32
f 33 199 198
f 34 200 199
f 35 201 200
f 36 202 201
f 37 203 202
f 2 203 38
f 39 218 203
f 40 233 218
f 41 248 233
f 42 263 248
f 263 44 278
f 44 293 278
f 45 308 293
f 46 323 308
f 47 338 323
f 48 353 338
f 49 368 353
f 50 383 368
f 51 398 383
f 398 53 413
f 53 54 413
f 413 55 412
f 411 55 56
f 411 57 410
f 410 58 409
f 409 59 408
f 407 59 60
f 406 60 61
f 406 62 405
f 404 62 63
f 403 63 64
f 402 64 65
f 401 65 66
f 400 66 67
f 399 67 68
f 9 68 3
f 384 9 10
f 369 10 11
f 12 369 11
f 339 12 13
f 324 13 14
f 15 324 14
f 294 15 16
f 17 294 16
f 264 17 18
f 19 264 18
f 20 249 19
f 219 20 21
f 22 219 21
f 189 22 23
f 415 429 414
f 416 430 415
f 416 432 431
f 418 432 417
f 419 433 418
f 419 435 434
f 421 435 420
f 422 436 421
f 423 437 422
f 423 439 438
f 425 439 424
f 426 440 425
f 426 442 441
f 428 442 427
f 430 444 429
f 431 445 430
f 431 447 446
f 432 448 447
f 433 449 448
f 435 449 434
f 436 450 435
f 436 452 451
f 438 452 437
f 439 453 438
f 440 454 439
f 441 455 440
f 442 456 441
f 443 457 442
f 444 460 459
f 445 461 460
f 447 461 446
f 448 462 447
f 449 463 448
f 450 464 449
f 450 466 465
f 452 466 451
f 453 467 452
f 453 469 468
f 455 469 454
f 456 470 455
f 457 471 456
f 457 473 472
f 460 474 459
f 461 475 460
f 462 476 461
f 463 477 462
f 464 478 463
f 464 480 479
f 465 481 480
f 467 481 466
f 468 482 467
f 469 483 468
f 469 485 484
f 470 486 485
f 471 487 486
f 473 487 472
f 475 489 474
f 476 490 475
f 476 492 491
f 477 493 492
f 478 494 493
f 480 494 479
f 481 495 480
f 482 496 481
f 483 497 482
f 484 498 483
f 485 499 484
f 486 500 485
f 487 501 486
f 487 503 502
f 489 505 504
f 490 506 505
f 492 506 491
f 493 507 492
f 494 508 493
f 495 509 494
f 496 510 495
f 496 512 511
f 497 513 512
f 498 514 513
f 499 515 514
f 500 516 515
f 502 516 501
f 503 517 502
f 505 519 504
f 506 520 505
f 506 522 521
f 507 523 522
f 508 524 523
f 510 524 509
f 511 525 510
f 512 526 511
f 513 527 512
f 514 528 513
f 515 529 514
f 516 530 515
f 516 532 531
f 518 532 517
f 520 534 519
f 521 535 520
f 522 536 521
f 523 537 522
f 524 538 523
f 525 539 524
f 526 540 525
f 526 542 541
f 528 542 527
f 529 543 528
f 530 544 529
f 530 546 545
f 532 546 531
f 533 547 532
f 534 550 549
f 536 550 535
f 536 552 551
f 537 553 552
f 539 553 538
f 539 555 554
f 540 556 555
f 542 556 541
f 543 557 542
f 543 559 558
f 544 560 559
f 546 560 545
f 547 561 546
f 547 563 562
f 550 564 549
f 551 565 550
f 552 566 551
f 552 568 567
f 554 568 553
f 555 569 554
f 555 571 570
f 557 571 556
f 558 572 557
f 559 573 558
f 560 574 559
f 561 575 560
f 562 576 561
f 563 577 562
f 564 580 579
f 566 580 565
f 567 581 566
f 568 582 567
f 568 584 583
f 570 584 569
f 571 585 570
f 572 586 571
f 573 587 572
f 574 588 573
f 575 589 574
f 575 591 590
f 576 592 591
f 578 592 577
f 579 595 594
f 581 595 580
f 582 596 581
f 582 598 597
f 583 599 598
f 585 599 584
f 586 600 585
f 587 601 586
f 588 602 587
f 588 604 603
f 589 605 604
f 591 605 590
f 592 606 591
f 593 607 592
f 595 609 594
f 595 611 610
f 597 611 596
f 598 612 597
f 599 613 598
f 600 614 599
f 601 615 600
f 601 617 616
f 602 618 617
f 604 618 603
f 605 619 604
f 606 620 605
f 607 621 606
f 608 622 607
f 609 625 624
f 611 625 610
f 612 626 611
f 613 627 612
f 613 629 628
f 615 629 614
f 616 630 615
f 616 632 631
f 618 632 617
f 619 633 618
f 620 634 619
f 621 635 620
f 622 636 621
f 623 637 622
f 68 83 3
f 67 414 68
f 67 416 415
f 65 416 66
f 65 418 417
f 63 418 64
f 63 420 419
f 61 420 62
f 60 421 61
f 59 422 60
f 59 424 423
f 57 424 58
f 56 425 57
f 55 426 56
f 54 427 55
f 54 84 428
f 84 443 428
f 85 458 443
f 458 87 473
f 87 488 473
f 488 89 503
f 89 518 503
f 90 533 518
f 91 548 533
f 548 93 563
f 93 578 563
f 578 95 593
f 95 608 593
f 608 97 623
f 97 638 623
f 98 99 638
f 638 100 637
f 637 101 636
f 635 101 102
f 635 103 634
f 634 104 633
f 633 105 632
f 631 105 106
f 631 107 630
f 630 108 629
f 628 108 109
f 628 110 627
f 627 111 626
f 626 112 625
f 624 112 113
f 69 113 7
f 609 69 70
f 594 70 71
f 579 71 72
f 73 579 72
f 549 73 74
f 75 549 74
f 519 75 76
f 504 76 77
f 489 77 78
f 474 78 79
f 80 474 79
f 81 459 80
f 429 81 82
f 83 429 82
f 639 655 654
f 641 655 640
f 642 656 641
f 643 657 642
f 643 659 658
f 644 660 659
f 646 660 645
f 647 661 646
f 648 662 647
f 649 663 648
f 650 664 649
f 651 665 650
f 651 667 666
f 653 667 652
f 655 669 654
f 655 671 670
f 656 672 671
f 657 673 672
f 658 674 673
f 660 674 659
f 660 676 675
f 662 676 661
f 662 678 677
f 664 678 663
f 665 679 664
f 666 680 665
f 667 681 666
f 668 682 667
f 669 685 684
f 670 686 685
f 672 686 671
f 672 688 687
f 674 688 673
f 675 689 674
f 675 691 690
f 677 691 676
f 677 693 692
f 679 693 678
f 680 694 679
f 681 695 680
f 682 696 681
f 682 698 697
f 685 699 684
f 686 700 685
f 687 701 686
f 688 702 687
f 689 703 688
f 689 705 704
f 691 705 690
f 692 706 691
f 693 707 692
f 694 708 693
f 695 709 694
f 695 711 710
f 696 712 711
f 698 712 697
f 700 714 699
f 700 716 715
f 701 717 716
f 702 718 717
f 703 719 718
f 705 719 704
f 706 720 705
f 707 721 706
f 708 722 707
f 709 723 708
f 710 724 709
f 711 725 710
f 712 726 711
f 712 728 727
f 714 730 729
f 715 731 730
f 717 731 716
f 718 732 717
f 719 733 718
f 720 734 719
f 721 735 720
f 722 736 721
f 722 738 737
f 724 738 723
f 724 740 739
f 725 741 740
f 727 741 726
f 728 742 727
f 730 744 729
f 731 745 730
f 731 747 746
f 732 748 747
f 734 748 733
f 735 749 734
f 736 750 735
f 737 751 736
f 738 752 737
f 739 753 738
f 740 754 739
f 741 755 740
f 742 756 741
f 743 757 742
f 745 759 744
f 746 760 745
f 747 761 746
f 748 762 747
f 749 763 748
f 750 764 749
f 751 765 750
f 751 767 766
f 753 767 752
f 754 768 753
f 755 769 754
f 755 771 770
f 756 772 771
f 758 772 757
f 759 775 774
f 761 775 760
f 761 777 776
f 762 778 777
f 764 778 763
f 765 779 764
f 765 781 780
f 767 781 766
f 768 782 767
f 768 784 783
f 769 785 784
f 771 785 770
f 771 787 786
f 772 788 787
f 775 789 774
f 776 790 775
f 777 791 776
f 778 792 777
f 778 794 793
f 780 794 779
f 781 795 780
f 782 796 781
f 782 798 797
f 784 798 783
f 785 799 784
f 786 800 785
f 787 801 786
f 788 802 787
f 789 805 804
f 791 805 790
f 792 806 791
f 793 807 792
f 794 808 793
f 795 809 794
f 796 810 795
f 797 811 796
f 798 812 797
f 799 813 798
f 800 814 799
f 800 816 815
f 801 817 816
f 802 818 817
f 804 820 819
f 805 821 820
f 806 822 821
f 807 823 822
f 809 823 808
f 810 824 809
f 811 825 810
f 812 826 811
f 813 827 812
f 813 829 828
f 815 829 814
f 816 830 815
f 817 831 816
f 818 832 817
f 820 834 819
f 821 835 820
f 822 836 821
f 823 837 822
f 824 838 823
f 824 840 839
f 825 841 840
f 826 842 841
f 828 842 827
f 829 843 828
f 830 844 829
f 831 845 830
f 831 847 846
f 833 847 832
f 835 849 834
f 836 850 835
f 837 851 836
f 838 852 837
f 839 853 838
f 840 854 839
f 841 855 840
f 842 856 841
f 843 857 842
f 844 858 843
f 845 859 844
f 846 860 845
f 847 861 846
f 848 862 847
f 113 128 7
f 112 639 113
f 111 640 112
f 110 641 111
f 110 643 642
f 108 643 109
f 108 645 644
f 106 645 107
f 105 646 106
f 105 648 647
f 104 649 648
f 102 649 103
f 101 650 102
f 101 652 651
f 100 653 652
f 99 129 653
f 129 668 653
f 130 683 668
f 683 132 698
f 132 713 698
f 713 134 728
f 134 743 728
f 135 758 743
f 136 773 758
f 773 138 788
f 138 803 788
f 139 818 803
f 140 833 818
f 833 142 848
f 142 863 848
f 143 144 863
f 863 145 862
f 862 146 861
f 860 146 147
f 860 148 859
f 858 148 149
f 857 149 150
f 856 150 151
f 855 151 152
f 855 153 854
f 853 153 154
f 853 155 852
f 852 156 851
f 851 157 850
f 849 157 158
f 114 158 5
f 834 114 115
f 819 115 116
f 804 116 117
f 118 804 117
f 774 118 119
f 120 774 119
f 744 120 121
f 122 744 121
f 714 122 123
f 699 123 124
f 125 699 124
f 669 125 126
f 654 126 127
f 128 654 127
f 865 879 864
f 866 880 865
f 866 882 881
f 868 882 867
f 869 883 868
f 869 885 884
f 871 885 870
f 872 886 871
f 873 887 872
f 873 889 888
f 875 889 874
f 876 890 875
f 876 892 891
f 878 892 877
f 880 894 879
f 881 895 880
f 881 897 896
f 882 898 897
f 883 899 898
f 885 899 884
f 886 900 885
f 886 902 901
f 888 902 887
f 889 903 888
f 890 904 889
f 891 905 890
f 892 906 891
f 893 907 892
f 894 910 909
f 895 911 910
f 897 911 896
f 898 912 897
f 899 913 898
f 900 914 899
f 900 916 915
f 902 916 901
f 903 917 902
f 903 919 918
f 905 919 904
f 906 920 905
f 907 921 906
f 907 923 922
f 910 924 909
f 911 925 910
f 912 926 911
f 913 927 912
f 914 928 913
f 914 930 929
f 915 931 930
f 917 931 916
f 918 932 917
f 919 933 918
f 919 935 934
f 920 936 935
f 921 937 936
f 923 937 922
f 925 939 924
f 926 940 925
f 926 942 941
f 927 943 942
f 928 944 943
f 930 944 929
f 931 945 930
f 932 946 931
f 933 947 932
f 934 948 933
f 935 949 934
f 936 950 935
f 937 951 936
f 937 953 952
f 939 955 954
f 940 956 955
f 942 956 941
f 943 957 942
f 944 958 943
f 945 959 944
f 946 960 945
f 946 962 961
f 947 963 962
f 948 964 963
f 949 965 964
f 950 966 965
f 952 966 951
f 953 967 952
f 955 969 954
f 956 970 955
f 956 972 971
f 957 973 972
f 958 974 973
f 960 974 959
f 961 975 960
f 962 976 961
f 963 977 962
f 964 978 963
f 965 979 964
f 966 980 965
f 966 982 981
f 968 982 967
f 970 984 969
f 971 985 970
f 972 986 971
f 973 987 972
f 974 988 973
f 975 989 974
f 976 990 975
f 976 992 991
f 978 992 977
f 979 993 978
f 980 994 979
f 980 996 995
f 982 996 981
f 983 997 982
f 984 1000 999
f 986 1000 985
f 986 1002 1001
f 987 1003 1002
f 989 1003 988
f 989 1005 1004
f 990 1006 1005
f 992 1006 991
f 993 1007 992
f 993 1009 1008
f 994 1010 1009
f 996 1010 995
f 997 1011 996
f 997 1013 1012
f 1000 1014 999
f 1001 1015 1000
f 1002 1016 1001
f 1002 1018 1017
f 1004 1018 1003
f 1005 1019 1004
f 1005 1021 1020
f 1007 1021 1006
f 1008 1022 1007
f 1009 1023 1008
f 1010 1024 1009
f 1011 1025 1010
f 1012 1026 1011
f 1013 1027 1012
f 1014 1030 1029
f 1016 1030 1015
f 1017 1031 1016
f 1018 1032 1017
f 1018 1034 1033
f 1020 1034 1019
f 1021 1035 1020
f 1022 1036 1021
f 1023 1037 1022
f 1024 1038 1023
f 1025 1039 1024
f 1025 1041 1040
f 1026 1042 1041
f 1028 1042 1027
f 1029 1045 1044
f 1031 1045 1030
f 1032 1046 1031
f 1032 1048 1047
f 1033 1049 1048
f 1035 1049 1034
f 1036 1050 1035
f 1037 1051 1036
f 1038 1052 1037
f 1038 1054 1053
f 1039 1055 1054
f 1041 1055 1040
f 1042 1056 1041
f 1043 1057 1042
f 1045 1059 1044
f 1045 1061 1060
f 1047 1061 1046
f 1048 1062 1047
f 1049 1063 1048
f 1050 1064 1049
f 1051 1065 1050
f 1051 1067 1066
f 1052 1068 1067
f 1054 1068 1053
f 1055 1069 1054
f 1056 1070 1055
f 1057 1071 1056
f 1058 1072 1057
f 1059 1075 1074
f 1061 1075 1060
f 1062 1076 1061
f 1063 1077 1062
f 1063 1079 1078
f 1065 1079 1064
f 1066 1080 1065
f 1066 1082 1081
f 1068 1082 1067
f 1069 1083 1068
f 1070 1084 1069
f 1071 1085 1070
f 1072 1086 1071
f 1073 1087 1072
f 158 173 5
f 157 864 158
f 156 865 157
f 156 867 866
f 155 868 867
f 153 868 154
f 153 870 869
f 151 870 152
f 150 871 151
f 149 872 150
f 149 874 873
f 147 874 148
f 146 875 147
f 146 877 876
f 145 878 877
f 144 174 878
f 174 893 878
f 175 908 893
f 908 177 923
f 177 938 923
f 938 179 953
f 179 968 953
f 180 983 968
f 181 998 983
f 998 183 1013
f 183 1028 1013
f 1028 185 1043
f 185 1058 1043
f 1058 187 1073
f 187 1088 1073
f 188 38 1088
f 1087 38 37
f 1087 36 1086
f 1086 35 1085
f 1085 34 1084
f 1084 33 1083
f 1082 33 32
f 1081 32 31
f 1081 30 1080
f 1080 29 1079
f 1078 29 28
f 1078 27 1077
f 1077 26 1076
f 1075 26 25
f 1075 24 1074
f 159 24 1
f 1059 159 160
f 1044 160 161
f 1029 161 162
f 163 1029 162
f 999 163 164
f 165 999 164
f 969 165 166
f 954 166 167
f 939 167 168
f 924 168 169
f 170 924 169
f 171 909 170
f 879 171 172
f 173 879 172
f 1090 1104 1089
f 1091 1105 1090
f 1092 1106 1091
f 1092 1108 1107
f 1094 1108 1093
f 1094 1110 1109
f 1095 1111 1110
f 1097 1111 1096
f 1098 1112 1097
f 1099 1113 1098
f 1099 1115 1114
f 1100 1116 1115
f 1101 1117 1116
f 1102 1118 1117
f 1105 1119 1104
f 1106 1120 1105
f 1107 1121 1106
f 1108 1122 1107
f 1109 1123 1108
f 1110 1124 1109
f 1110 1126 1125
f 1112 1126 1111
f 1113 1127 1112
f 1114 1128 1113
f 1115 1129 1114
f 1115 1131 1130
f 1117 1131 1116
f 1118 1132 1117
f 1119 1135 1134
f 1120 1136 1135
f 1121 1137 1136
f 1122 1138 1137
f 1123 1139 1138
f 1125 1139 1124
f 1125 1141 1140
f 1127 1141 1126
f 1127 1143 1142
f 1129 1143 1128
f 1130 1144 1129
f 1131 1145 1130
f 1132 1146 1131
f 1133 1147 1132
f 1135 1149 1134
f 1136 1150 1135
f 1137 1151 1136
f 1137 1153 1152
f 1139 1153 1138
f 1140 1154 1139
f 1141 1155 1140
f 1142 1156 1141
f 1143 1157 1142
f 1144 1158 1143
f 1145 1159 1144
f 1145 1161 1160
f 1146 1162 1161
f 1148 1162 1147
f 1150 1164 1149
f 1150 1166 1165
f 1151 1167 1166
f 1153 1167 1152
f 1154 1168 1153
f 1154 1170 1169
f 1155 1171 1170
f 1156 1172 1171
f 1158 1172 1157
f 1158 1174 1173
f 1159 1175 1174
f 1161 1175 1160
f 1161 1177 1176
f 1162 1178 1177
f 1164 1180 1179
f 1165 1181 1180
f 1167 1181 1166
f 1168 1182 1167
f 1169 1183 1168
f 1170 1184 1169
f 1171 1185 1170
f 1172 1186 1171
f 1172 1188 1187
f 1174 1188 1173
f 1174 1190 1189
f 1176 1190 1175
f 1177 1191 1176
f 1178 1192 1177
f 1179 1195 1194
f 1181 1195 1180
f 1182 1196 1181
f 1182 1198 1197
f 1184 1198 1183
f 1185 1199 1184
f 1186 1200 1185
f 1186 1202 1201
f 1187 1203 1202
f 1188 1204 1203
f 1190 1204 1189
f 1190 1206 1205
f 1191 1207 1206
f 1193 1207 1192
f 1195 1209 1194
f 1196 1210 1195
f 1197 1211 1196
f 1198 1212 1197
f 1199 1213 1198
f 1200 1214 1199
f 1201 1215 1200
f 1202 1216 1201
f 1203 1217 1202
f 1204 1218 1203
f 1205 1219 1204
f 1205 1221 1220
f 1207 1221 1206
f 1208 1222 1207
f 1209 1225 1224
f 1211 1225 1210
f 1212 1226 1211
f 1212 1228 1227
f 1214 1228 1213
f 1214 1230 1229
f 1216 1230 1215
f 1217 1231 1216
f 1218 1232 1217
f 1218 1234 1233
f 1219 1235 1234
f 1221 1235 1220
f 1221 1237 1236
f 1222 1238 1237
f 1224 1240 1239
f 1226 1240 1225
f 1227 1241 1226
f 1227 1243 1242
f 1228 1244 1243
f 1230 1244 1229
f 1231 1245 1230
f 1232 1246 1231
f 1232 1248 1247
f 1234 1248 1233
f 1235 1249 1234
f 1236 1250 1235
f 1237 1251 1236
f 1238 1252 1237
f 1240 1254 1239
f 1240 1256 1255
f 1242 1256 1241
f 1243 1257 1242
f 1244 1258 1243
f 1245 1259 1244
f 1245 1261 1260
f 1247 1261 1246
f 1248 1262 1247
f 1249 1263 1248
f 1250 1264 1249
f 1251 1265 1250
f 1252 1266 1251
f 1253 1267 1252
f 1255 1269 1254
f 1256 1270 1255
f 1256 1272 1271
f 1258 1272 1257
f 1259 1273 1258
f 1259 1275 1274
f 1261 1275 1260
f 1262 1276 1261
f 1263 1277 1262
f 1263 1279 1278
f 1265 1279 1264
f 1266 1280 1265
f 1266 1282 1281
f 1267 1283 1282
f 1270 1284 1269
f 1270 1286 1285
f 1271 1287 1286
f 1272 1288 1287
f 1274 1288 1273
f 1275 1289 1274
f 1276 1290 1275
f 1277 1291 1276
f 1277 1293 1292
f 1279 1293 1278
f 1280 1294 1279
f 1281 1295 1280
f 1282 1296 1281
f 1283 1297 1282
f 1285 1299 1284
f 1285 1301 1300
f 1287 1301 1286
f 1288 1302 1287
f 1289 1303 1288
f 1290 1304 1289
f 1290 1306 1305
f 1292 1306 1291
f 1292 1308 1307
f 1294 1308 1293
f 1295 1309 1294
f 1296 1310 1295
f 1296 1312 1311
f 1298 1312 1297
f 83 9 3
f 83 1090 1089
f 81 1090 82
f 80 1091 81
f 79 1092 80
f 78 1093 79
f 78 1095 1094
f 77 1096 1095
f 75 1096 76
f 74 1097 75
f 74 1099 1098
f 72 1099 73
f 71 1100 72
f 70 1101 71
f 69 1102 70
f 69 128 1103
f 1103 127 1118
f 1118 126 1133
f 126 1148 1133
f 125 1163 1148
f 1163 123 1178
f 123 1193 1178
f 122 1208 1193
f 1208 120 1223
f 1223 119 1238
f 119 1253 1238
f 118 1268 1253
f 1268 116 1283
f 116 1298 1283
f 1298 114 1313
f 114 173 1313
f 1313 172 1312
f 1312 171 1311
f 1310 171 170
f 1309 170 169
f 1309 168 1308
f 1307 168 167
f 1307 166 1306
f 1306 165 1305
f 1305 164 1304
f 1303 164 163
f 1303 162 1302
f 1302 161 1301
f 1301 160 1300
f 1300 159 1299
f 23 159 1
f 22 1299 23
f 1269 22 21
f 1254 21 20
f 1239 20 19
f 18 1239 19
f 1209 18 17
f 1194 17 16
f 15 1194 16
f 14 1179 15
f 1149 14 13
f 12 1149 13
f 11 1134 12
f 1104 11 10
f 9 1104 10
f 1315 1329 1314
f 1316 1330 1315
f 1317 1331 1316
f 1317 1333 1332
f 1319 1333 1318
f 1319 1335 1334
f 1320 1336 1335
f 1322 1336 1321
f 1323 1337 1322
f 1324 1338 1323
f 1324 1340 1339
f 1325 1341 1340
f 1326 1342 1341
f 1327 1343 1342
f 1330 1344 1329
f 1331 1345 1330
f 1332 1346 1331
f 1333 1347 1332
f 1334 1348 1333
f 1335 1349 1334
f 1335 1351 1350
f 1337 1351 1336
f 1338 1352 1337
f 1339 1353 1338
f 1340 1354 1339
f 1340 1356 1355
f 1342 1356 1341
f 1343 1357 1342
f 1344 1360 1359
f 1345 1361 1360
f 1346 1362 1361
f 1347 1363 1362
f 1348 1364 1363
f 1350 1364 1349
f 1350 1366 1365
f 1352 1366 1351
f 1352 1368 1367
f 1354 1368 1353
f 1355 1369 1354
f 1356 1370 1355
f 1357 1371 1356
f 1358 1372 1357
f 1360 1374 1359
f 1361 1375 1360
f 1362 1376 1361
f 1362 1378 1377
f 1364 1378 1363
f 1365 1379 1364
f 1366 1380 1365
f 1367 1381 1366
f 1368 1382 1367
f 1369 1383 1368
f 1370 1384 1369
f 1370 1386 1385
f 1371 1387 1386
f 1373 1387 1372
f 1375 1389 1374
f 1375 1391 1390
f 1376 1392 1391
f 1378 1392 1377
f 1379 1393 1378
f 1379 1395 1394
f 1380 1396 1395
f 1381 1397 1396
f 1383 1397 1382
f 1383 1399 1398
f 1384 1400 1399
f 1386 1400 1385
f 1386 1402 1401
f 1387 1403 1402
f 1389 1405 1404
f 1390 1406 1405
f 1392 1406 1391
f 1393 1407 1392
f 1394 1408 1393
f 1395 1409 1394
f 1396 1410 1395
f 1397 1411 1396
f 1397 1413 1412
f 1399 1413 1398
f 1399 1415 1414
f 1401 1415 1400
f 1402 1416 1401
f 1403 1417 1402
f 1404 1420 1419
f 1406 1420 1405
f 1407 1421 1406
f 1407 1423 1422
f 1409 1423 1408
f 1410 1424 1409
f 1411 1425 1410
f 1411 1427 1426
f 1412 1428 1427
f 1413 1429 1428
f 1415 1429 1414
f 1415 1431 1430
f 1416 1432 1431
f 1418 1432 1417
f 1420 1434 1419
f 1421 1435 1420
f 1422 1436 1421
f 1423 1437 1422
f 1424 1438 1423
f 1425 1439 1424
f 1426 1440 1425
f 1427 1441 1426
f 1428 1442 1427
f 1429 1443 1428
f 1430 1444 1429
f 1430 1446 1445
f 1432 1446 1431
f 1433 1447 1432
f 1434 1450 1449
f 1436 1450 1435
f 1437 1451 1436
f 1437 1453 1452
f 1439 1453 1438
f 1439 1455 1454
f 1441 1455 1440
f 1442 1456 1441
f 1443 1457 1442
f 1443 1459 1458
f 1444 1460 1459
f 1446 1460 1445
f 1446 1462 1461
f 1447 1463 1462
f 1449 1465 1464
f 1451 1465 1450
f 1452 1466 1451
f 1452 1468 1467
f 1453 1469 1468
f 1455 1469 1454
f 1456 1470 1455
f 1457 1471 1456
f 1457 1473 1472
f 1459 1473 1458
f 1460 1474 1459
f 1461 1475 1460
f 1462 1476 1461
f 1463 1477 1462
f 1465 1479 1464
f 1465 1481 1480
f 1467 1481 1466
f 1468 1482 1467
f 1469 1483 1468
f 1470 1484 1469
f 1470 1486 1485
f 1472 1486 1471
f 1473 1487 1472
f 1474 1488 1473
f 1475 1489 1474
f 1476 1490 1475
f 1477 1491 1476
f 1478 1492 1477
f 1480 1494 1479
f 1481 1495 1480
f 1481 1497 1496
f 1483 1497 1482
f 1484 1498 1483
f 1484 1500 1499
f 1486 1500 1485
f 1487 1501 1486
f 1488 1502 1487
f 1488 1504 1503
f 1490 1504 1489
f 1491 1505 1490
f 1491 1507 1506
f 1492 1508 1507
f 1495 1509 1494
f 1495 1511 1510
f 1496 1512 1511
f 1497 1513 1512
f 1499 1513 1498
f 1500 1514 1499
f 1501 1515 1500
f 1502 1516 1501
f 1502 1518 1517
f 1504 1518 1503
f 1505 1519 1504
f 1506 1520 1505
f 1507 1521 1506
f 1508 1522 1507
f 1510 1524 1509
f 1510 1526 1525
f 1512 1526 1511
f 1513 1527 1512
f 1514 1528 1513
f 1515 1529 1514
f 1515 1531 1530
f 1517 1531 1516
f 1517 1533 1532
f 1519 1533 1518
f 1520 1534 1519
f 1521 1535 1520
f 1521 1537 1536
f 1523 1537 1522
f 98 129 8
f 97 1314 98
f 97 1316 1315
f 95 1316 96
f 94 1317 95
f 93 1318 94
f 93 1320 1319
f 92 1321 1320
f 90 1321 91
f 89 1322 90
f 89 1324 1323
f 87 1324 88
f 86 1325 87
f 85 1326 86
f 85 1328 1327
f 84 53 1328
f 1328 52 1343
f 52 1358 1343
f 1358 50 1373
f 50 1388 1373
f 1388 48 1403
f 48 1418 1403
f 47 1433 1418
f 1433 45 1448
f 1448 44 1463
f 44 1478 1463
f 43 1493 1478
f 1493 41 1508
f 1508 40 1523
f 40 1538 1523
f 39 188 1538
f 1538 187 1537
f 1536 187 186
f 1536 185 1535
f 1534 185 184
f 1534 183 1533
f 1532 183 182
f 1531 182 181
f 1530 181 180
f 1530 179 1529
f 1528 179 178
f 1528 177 1527
f 1527 176 1526
f 1526 175 1525
f 1525 174 1524
f 143 174 6
f 142 1524 143
f 1494 142 141
f 1479 141 140
f 1464 140 139
f 138 1464 139
f 1434 138 137
f 1419 137 136
f 135 1419 136
f 1389 135 134
f 1374 134 133
f 132 1374 133
f 131 1359 132
f 1329 131 130
f 1314 130 129
f 190 205 204
f 190 191 206
f 191 192 207
f 192 193 208
f 194 209 208
f 195 210 209
f 195 196 211
f 197 212 211
f 198 213 212
f 198 199 214
f 200 215 214
f 200 201 216
f 202 217 216
f 203 218 217
f 204 205 220
f 205 206 221
f 206 207 222
f 208 223 222
f 209 224 223
f 210 225 224
f 211 226 225
f 211 212 227
f 212 213 228
f 214 229 228
f 215 230 229
f 216 231 230
f 217 232 231
f 218 233 232
f 220 235 234
f 221 236 235
f 222 237 236
f 223 238 237
f 224 239 238
f 224 225 240
f 226 241 240
f 227 242 241
f 228 243 242
f 228 229 244
f 229 230 245
f 230 231 246
f 231 232 247
f 232 233 248
f 234 235 250
f 236 251 250
f 237 252 251
f 237 238 253
f 239 254 253
f 240 255 254
f 241 256 255
f 242 257 256
f 243 258 257
f 244 259 258
f 245 260 259
f 246 261 260
f 247 262 261
f 248 263 262
f 250 265 264
f 251 266 265
f 251 252 267
f 252 253 268
f 253 254 269
f 254 255 270
f 256 271 270
f 256 257 272
f 257 258 273
f 259 274 273
f 260 275 274
f 260 261 276
f 261 262 277
f 262 263 278
f 265 280 279
f 265 266 281
f 266 267 282
f 268 283 282
f 269 284 283
f 269 270 285
f 270 271 286
f 271 272 287
f 273 288 287
f 273 274 289
f 274 275 290
f 275 276 291
f 276 277 292
f 278 293 292
f 279 280 295
f 280 281 296
f 281 282 297
f 282 283 298
f 283 284 299
f 285 300 299
f 286 301 300
f 287 302 301
f 288 303 302
f 289 304 303
f 290 305 304
f 291 306 305
f 292 307 306
f 293 308 307
f 295 310 309
f 296 311 310
f 297 312 311
f 298 313 312
f 299 314 313
f 300 315 314
f 300 301 316
f 301 302 317
f 303 318 317
f 303 304 319
f 304 305 320
f 305 306 321
f 306 307 322
f 308 323 322
f 309 310 325
f 311 326 325
f 311 312 327
f 312 313 328
f 313 314 329
f 315 330 329
f 316 331 330
f 317 332 331
f 318 333 332
f 319 334 333
f 320 335 334
f 321 336 335
f 322 337 336
f 323 338 337
f 325 340 339
f 325 326 341
f 327 342 341
f 328 343 342
f 329 344 343
f 330 345 344
f 331 346 345
f 331 332 347
f 333 348 347
f 334 349 348
f 335 350 349
f 336 351 350
f 336 337 352
f 338 353 352
f 340 355 354
f 341 356 355
f 341 342 357
f 343 358 357
f 344 359 358
f 344 345 360
f 346 361 360
f 347 362 361
f 348 363 362
f 348 349 364
f 349 350 365
f 350 351 366
f 351 352 367
f 352 353 368
f 354 355 370
f 356 371 370
f 357 372 371
f 357 358 373
f 359 374 373
f 359 360 375
f 360 361 376
f 362 377 376
f 362 363 378
f 364 379 378
f 365 380 379
f 366 381 380
f 367 382 381
f 368 383 382
f 369 370 385
f 370 371 386
f 371 372 387
f 372 373 388
f 373 374 389
f 375 390 389
f 376 391 390
f 377 392 391
f 378 393 392
f 379 394 393
f 379 380 395
f 381 396 395
f 381 382 397
f 382 383 398
f 385 400 399
f 386 401 400
f 387 402 401
f 388 403 402
f 389 404 403
f 389 390 405
f 391 406 405
f 392 407 406
f 393 408 407
f 393 394 409
f 394 395 410
f 395 396 411
f 396 397 412
f 397 398 413
f 1 24 189
f 24 25 190
f 26 191 190
f 27 192 191
f 28 193 192
f 28 29 194
f 29 30 195
f 31 196 195
f 32 197 196
f 33 198 197
f 33 34 199
f 34 35 200
f 35 36 201
f 36 37 202
f 37 38 203
f 2 39 203
f 39 40 218
f 40 41 233
f 41 42 248
f 42 43 263
f 263 43 44
f 44 45 293
f 45 46 308
f 46 47 323
f 47 48 338
f 48 49 353
f 49 50 368
f 50 51 383
f 51 52 398
f 398 52 53
f 53 4 54
f 413 54 55
f 411 412 55
f 411 56 57
f 410 57 58
f 409 58 59
f 407 408 59
f 406 407 60
f 406 61 62
f 404 405 62
f 403 404 63
f 402 403 64
f 401 402 65
f 400 401 66
f 399 400 67
f 9 399 68
f 384 399 9
f 369 384 10
f 12 354 369
f 339 354 12
f 324 339 13
f 15 309 324
f 294 309 15
f 17 279 294
f 264 279 17
f 19 249 264
f 20 234 249
f 219 234 20
f 22 204 219
f 189 204 22
f 415 430 429
f 416 431 430
f 416 417 432
f 418 433 432
f 419 434 433
f 419 420 435
f 421 436 435
f 422 437 436
f 423 438 437
f 423 424 439
f 425 440 439
f 426 441 440
f 426 427 442
f 428 443 442
f 430 445 444
f 431 446 445
f 431 432 447
f 432 433 448
f 433 434 449
f 435 450 449
f 436 451 450
f 436 437 452
f 438 453 452
f 439 454 453
f 440 455 454
f 441 456 455
f 442 457 456
f 443 458 457
f 444 445 460
f 445 446 461
f 447 462 461
f 448 463 462
f 449 464 463
f 450 465 464
f 450 451 466
f 452 467 466
f 453 468 467
f 453 454 469
f 455 470 469
f 456 471 470
f 457 472 471
f 457 458 473
f 460 475 474
f 461 476 475
f 462 477 476
f 463 478 477
f 464 479 478
f 464 465 480
f 465 466 481
f 467 482 481
f 468 483 482
f 469 484 483
f 469 470 485
f 470 471 486
f 471 472 487
f 473 488 487
f 475 490 489
f 476 491 490
f 476 477 492
f 477 478 493
f 478 479 494
f 480 495 494
f 481 496 495
f 482 497 496
f 483 498 497
f 484 499 498
f 485 500 499
f 486 501 500
f 487 502 501
f 487 488 503
f 489 490 505
f 490 491 506
f 492 507 506
f 493 508 507
f 494 509 508
f 495 510 509
f 496 511 510
f 496 497 512
f 497 498 513
f 498 499 514
f 499 500 515
f 500 501 516
f 502 517 516
f 503 518 517
f 505 520 519
f 506 521 520
f 506 507 522
f 507 508 523
f 508 509 524
f 510 525 524
f 511 526 525
f 512 527 526
f 513 528 527
f 514 529 528
f 515 530 529
f 516 531 530
f 516 517 532
f 518 533 532
f 520 535 534
f 521 536 535
f 522 537 536
f 523 538 537
f 524 539 538
f 525 540 539
f 526 541 540
f 526 527 542
f 528 543 542
f 529 544 543
f 530 545 544
f 530 531 546
f 532 547 546
f 533 548 547
f 534 535 550
f 536 551 550
f 536 537 552
f 537 538 553
f 539 554 553
f 539 540 555
f 540 541 556
f 542 557 556
f 543 558 557
f 543 544 559
f 544 545 560
f 546 561 560
f 547 562 561
f 547 548 563
f 550 565 564
f 551 566 565
f 552 567 566
f 552 553 568
f 554 569 568
f 555 570 569
f 555 556 571
f 557 572 571
f 558 573 572
f 559 574 573
f 560 575 574
f 561 576 575
f 562 577 576
f 563 578 577
f 564 565 580
f 566 581 580
f 567 582 581
f 568 583 582
f 568 569 584
f 570 585 584
f 571 586 585
f 572 587 586
f 573 588 587
f 574 589 588
f 575 590 589
f 575 576 591
f 576 577 592
f 578 593 592
f 579 580 595
f 581 596 595
f 582 597 596
f 582 583 598
f 583 584 599
f 585 600 599
f 586 601 600
f 587 602 601
f 588 603 602
f 588 589 604
f 589 590 605
f 591 606 605
f 592 607 606
f 593 608 607
f 595 610 609
f 595 596 611
f 597 612 611
f 598 613 612
f 599 614 613
f 600 615 614
f 601 616 615
f 601 602 617
f 602 603 618
f 604 619 618
f 605 620 619
f 606 621 620
f 607 622 621
f 608 623 622
f 609 610 625
f 611 626 625
f 612 627 626
f 613 628 627
f 613 614 629
f 615 630 629
f 616 631 630
f 616 617 632
f 618 633 632
f 619 634 633
f 620 635 634
f 621 636 635
f 622 637 636
f 623 638 637
f 68 414 83
f 67 415 414
f 67 66 416
f 65 417 416
f 65 64 418
f 63 419 418
f 63 62 420
f 61 421 420
f 60 422 421
f 59 423 422
f 59 58 424
f 57 425 424
f 56 426 425
f 55 427 426
f 54 428 427
f 54 4 84
f 84 85 443
f 85 86 458
f 458 86 87
f 87 88 488
f 488 88 89
f 89 90 518
f 90 91 533
f 91 92 548
f 548 92 93
f 93 94 578
f 578 94 95
f 95 96 608
f 608 96 97
f 97 98 638
f 98 8 99
f 638 99 100
f 637 100 101
f 635 636 101
f 635 102 103
f 634 103 104
f 633 104 105
f 631 632 105
f 631 106 107
f 630 107 108
f 628 629 108
f 628 109 110
f 627 110 111
f 626 111 112
f 624 625 112
f 69 624 113
f 609 624 69
f 594 609 70
f 579 594 71
f 73 564 579
f 549 564 73
f 75 534 549
f 519 534 75
f 504 519 76
f 489 504 77
f 474 489 78
f 80 459 474
f 81 444 459
f 429 444 81
f 83 414 429
f 639 640 655
f 641 656 655
f 642 657 656
f 643 658 657
f 643 644 659
f 644 645 660
f 646 661 660
f 647 662 661
f 648 663 662
f 649 664 663
f 650 665 664
f 651 666 665
f 651 652 667
f 653 668 667
f 655 670 669
f 655 656 671
f 656 657 672
f 657 658 673
f 658 659 674
f 660 675 674
f 660 661 676
f 662 677 676
f 662 663 678
f 664 679 678
f 665 680 679
f 666 681 680
f 667 682 681
f 668 683 682
f 669 670 685
f 670 671 686
f 672 687 686
f 672 673 688
f 674 689 688
f 675 690 689
f 675 676 691
f 677 692 691
f 677 678 693
f 679 694 693
f 680 695 694
f 681 696 695
f 682 697 696
f 682 683 698
f 685 700 699
f 686 701 700
f 687 702 701
f 688 703 702
f 689 704 703
f 689 690 705
f 691 706 705
f 692 707 706
f 693 708 707
f 694 709 708
f 695 710 709
f 695 696 711
f 696 697 712
f 698 713 712
f 700 715 714
f 700 701 716
f 701 702 717
f 702 703 718
f 703 704 719
f 705 720 719
f 706 721 720
f 707 722 721
f 708 723 722
f 709 724 723
f 710 725 724
f 711 726 725
f 712 727 726
f 712 713 728
f 714 715 730
f 715 716 731
f 717 732 731
f 718 733 732
f 719 734 733
f 720 735 734
f 721 736 735
f 722 737 736
f 722 723 738
f 724 739 738
f 724 725 740
f 725 726 741
f 727 742 741
f 728 743 742
f 730 745 744
f 731 746 745
f 731 732 747
f 732 733 748
f 734 749 748
f 735 750 749
f 736 751 750
f 737 752 751
f 738 753 752
f 739 754 753
f 740 755 754
f 741 756 755
f 742 757 756
f 743 758 757
f 745 760 759
f 746 761 760
f 747 762 761
f 748 763 762
f 749 764 763
f 750 765 764
f 751 766 765
f 751 752 767
f 753 768 767
f 754 769 768
f 755 770 769
f 755 756 771
f 756 757 772
f 758 773 772
f 759 760 775
f 761 776 775
f 761 762 777
f 762 763 778
f 764 779 778
f 765 780 779
f 765 766 781
f 767 782 781
f 768 783 782
f 768 769 784
f 769 770 785
f 771 786 785
f 771 772 787
f 772 773 788
f 775 790 789
f 776 791 790
f 777 792 791
f 778 793 792
f 778 779 794
f 780 795 794
f 781 796 795
f 782 797 796
f 782 783 798
f 784 799 798
f 785 800 799
f 786 801 800
f 787 802 801
f 788 803 802
f 789 790 805
f 791 806 805
f 792 807 806
f 793 808 807
f 794 809 808
f 795 810 809
f 796 811 810
f 797 812 811
f 798 813 812
f 799 814 813
f 800 815 814
f 800 801 816
f 801 802 817
f 802 803 818
f 804 805 820
f 805 806 821
f 806 807 822
f 807 808 823
f 809 824 823
f 810 825 824
f 811 826 825
f 812 827 826
f 813 828 827
f 813 814 829
f 815 830 829
f 816 831 830
f 817 832 831
f 818 833 832
f 820 835 834
f 821 836 835
f 822 837 836
f 823 838 837
f 824 839 838
f 824 825 840
f 825 826 841
f 826 827 842
f 828 843 842
f 829 844 843
f 830 845 844
f 831 846 845
f 831 832 847
f 833 848 847
f 835 850 849
f 836 851 850
f 837 852 851
f 838 853 852
f 839 854 853
f 840 855 854
f 841 856 855
f 842 857 856
f 843 858 857
f 844 859 858
f 845 860 859
f 846 861 860
f 847 862 861
f 848 863 862
f 113 639 128
f 112 640 639
f 111 641 640
f 110 642 641
f 110 109 643
f 108 644 643
f 108 107 645
f 106 646 645
f 105 647 646
f 105 104 648
f 104 103 649
f 102 650 649
f 101 651 650
f 101 100 652
f 100 99 653
f 99 8 129
f 129 130 668
f 130 131 683
f 683 131 132
f 132 133 713
f 713 133 134
f 134 135 743
f 135 136 758
f 136 137 773
f 773 137 138
f 138 139 803
f 139 140 818
f 140 141 833
f 833 141 142
f 142 143 863
f 143 6 144
f 863 144 145
f 862 145 146
f 860 861 146
f 860 147 148
f 858 859 148
f 857 858 149
f 856 857 150
f 855 856 151
f 855 152 153
f 853 854 153
f 853 154 155
f 852 155 156
f 851 156 157
f 849 850 157
f 114 849 158
f 834 849 114
f 819 834 115
f 804 819 116
f 118 789 804
f 774 789 118
f 120 759 774
f 744 759 120
f 122 729 744
f 714 729 122
f 699 714 123
f 125 684 699
f 669 684 125
f 654 669 126
f 128 639 654
f 865 880 879
f 866 881 880
f 866 867 882
f 868 883 882
f 869 884 883
f 869 870 885
f 871 886 885
f 872 887 886
f 873 888 887
f 873 874 889
f 875 890 889
f 876 891 890
f 876 877 892
f 878 893 892
f 880 895 894
f 881 896 895
f 881 882 897
f 882 883 898
f 883 884 899
f 885 900 899
f 886 901 900
f 886 887 902
f 888 903 902
f 889 904 903
f 890 905 904
f 891 906 905
f 892 907 906
f 893 908 907
f 894 895 910
f 895 896 911
f 897 912 911
f 898 913 912
f 899 914 913
f 900 915 914
f 900 901 916
f 902 917 916
f 903 918 917
f 903 904 919
f 905 920 919
f 906 921 920
f 907 922 921
f 907 908 923
f 910 925 924
f 911 926 925
f 912 927 926
f 913 928 927
f 914 929 928
f 914 915 930
f 915 916 931
f 917 932 931
f 918 933 932
f 919 934 933
f 919 920 935
f 920 921 936
f 921 922 937
f 923 938 937
f 925 940 939
f 926 941 940
f 926 927 942
f 927 928 943
f 928 929 944
f 930 945 944
f 931 946 945
f 932 947 946
f 933 948 947
f 934 949 948
f 935 950 949
f 936 951 950
f 937 952 951
f 937 938 953
f 939 940 955
f 940 941 956
f 942 957 956
f 943 958 957
f 944 959 958
f 945 960 959
f 946 961 960
f 946 947 962
f 947 948 963
f 948 949 964
f 949 950 965
f 950 951 966
f 952 967 966
f 953 968 967
f 955 970 969
f 956 971 970
f 956 957 972
f 957 958 973
f 958 959 974
f 960 975 974
f 961 976 975
f 962 977 976
f 963 978 977
f 964 979 978
f 965 980 979
f 966 981 980
f 966 967 982
f 968 983 982
f 970 985 984
f 971 986 985
f 972 987 986
f 973 988 987
f 974 989 988
f 975 990 989
f 976 991 990
f 976 977 992
f 978 993 992
f 979 994 993
f 980 995 994
f 980 981 996
f 982 997 996
f 983 998 997
f 984 985 1000
f 986 1001 1000
f 986 987 1002
f 987 988 1003
f 989 1004 1003
f 989 990 1005
f 990 991 1006
f 992 1007 1006
f 993 1008 1007
f 993 994 1009
f 994 995 1010
f 996 1011 1010
f 997 1012 1011
f 997 998 1013
f 1000 1015 1014
f 1001 1016 1015
f 1002 1017 1016
f 1002 1003 1018
f 1004 1019 1018
f 1005 1020 1019
f 1005 1006 1021
f 1007 1022 1021
f 1008 1023 1022
f 1009 1024 1023
f 1010 1025 1024
f 1011 1026 1025
f 1012 1027 1026
f 1013 1028 1027
f 1014 1015 1030
f 1016 1031 1030
f 1017 1032 1031
f 1018 1033 1032
f 1018 1019 1034
f 1020 1035 1034
f 1021 1036 1035
f 1022 1037 1036
f 1023 1038 1037
f 1024 1039 1038
f 1025 1040 1039
f 1025 1026 1041
f 1026 1027 1042
f 1028 1043 1042
f 1029 1030 1045
f 1031 1046 1045
f 1032 1047 1046
f 1032 1033 1048
f 1033 1034 1049
f 1035 1050 1049
f 1036 1051 1050
f 1037 1052 1051
f 1038 1053 1052
f 1038 1039 1054
f 1039 1040 1055
f 1041 1056 1055
f 1042 1057 1056
f 1043 1058 1057
f 1045 1060 1059
f 1045 1046 1061
f 1047 1062 1061
f 1048 1063 1062
f 1049 1064 1063
f 1050 1065 1064
f 1051 1066 1065
f 1051 1052 1067
f 1052 1053 1068
f 1054 1069 1068
f 1055 1070 1069
f 1056 1071 1070
f 1057 1072 1071
f 1058 1073 1072
f 1059 1060 1075
f 1061 1076 1075
f 1062 1077 1076
f 1063 1078 1077
f 1063 1064 1079
f 1065 1080 1079
f 1066 1081 1080
f 1066 1067 1082
f 1068 1083 1082
f 1069 1084 1083
f 1070 1085 1084
f 1071 1086 1085
f 1072 1087 1086
f 1073 1088 1087
f 158 864 173
f 157 865 864
f 156 866 865
f 156 155 867
f 155 154 868
f 153 869 868
f 153 152 870
f 151 871 870
f 150 872 871
f 149 873 872
f 149 148 874
f 147 875 874
f 146 876 875
f 146 145 877
f 145 144 878
f 144 6 174
f 174 175 893
f 175 176 908
f 908 176 177
f 177 178 938
f 938 178 179
f 179 180 968
f 180 181 983
f 181 182 998
f 998 182 183
f 183 184 1028
f 1028 184 185
f 185 186 1058
f 1058 186 187
f 187 188 1088
f 188 2 38
f 1087 1088 38
f 1087 37 36
f 1086 36 35
f 1085 35 34
f 1084 34 33
f 1082 1083 33
f 1081 1082 32
f 1081 31 30
f 1080 30 29
f 1078 1079 29
f 1078 28 27
f 1077 27 26
f 1075 1076 26
f 1075 25 24
f 159 1074 24
f 1059 1074 159
f 1044 1059 160
f 1029 1044 161
f 163 1014 1029
f 999 1014 163
f 165 984 999
f 969 984 165
f 954 969 166
f 939 954 167
f 924 939 168
f 170 909 924
f 171 894 909
f 879 894 171
f 173 864 879
f 1090 1105 1104
f 1091 1106 1105
f 1092 1107 1106
f 1092 1093 1108
f 1094 1109 1108
f 1094 1095 1110
f 1095 1096 1111
f 1097 1112 1111
f 1098 1113 1112
f 1099 1114 1113
f 1099 1100 1115
f 1100 1101 1116
f 1101 1102 1117
f 1102 1103 1118
f 1105 1120 1119
f 1106 1121 1120
f 1107 1122 1121
f 1108 1123 1122
f 1109 1124 1123
f 1110 1125 1124
f 1110 1111 1126
f 1112 1127 1126
f 1113 1128 1127
f 1114 1129 1128
f 1115 1130 1129
f 1115 1116 1131
f 1117 1132 1131
f 1118 1133 1132
f 1119 1120 1135
f 1120 1121 1136
f 1121 1122 1137
f 1122 1123 1138
f 1123 1124 1139
f 1125 1140 1139
f 1125 1126 1141
f 1127 1142 1141
f 1127 1128 1143
f 1129 1144 1143
f 1130 1145 1144
f 1131 1146 1145
f 1132 1147 1146
f 1133 1148 1147
f 1135 1150 1149
f 1136 1151 1150
f 1137 1152 1151
f 1137 1138 1153
f 1139 1154 1153
f 1140 1155 1154
f 1141 1156 1155
f 1142 1157 1156
f 1143 1158 1157
f 1144 1159 1158
f 1145 1160 1159
f 1145 1146 1161
f 1146 1147 1162
f 1148 1163 1162
f 1150 1165 1164
f 1150 1151 1166
f 1151 1152 1167
f 1153 1168 1167
f 1154 1169 1168
f 1154 1155 1170
f 1155 1156 1171
f 1156 1157 1172
f 1158 1173 1172
f 1158 1159 1174
f 1159 1160 1175
f 1161 1176 1175
f 1161 1162 1177
f 1162 1163 1178
f 1164 1165 1180
f 1165 1166 1181
f 1167 1182 1181
f 1168 1183 1182
f 1169 1184 1183
f 1170 1185 1184
f 1171 1186 1185
f 1172 1187 1186
f 1172 1173 1188
f 1174 1189 1188
f 1174 1175 1190
f 1176 1191 1190
f 1177 1192 1191
f 1178 1193 1192
f 1179 1180 1195
f 1181 1196 1195
f 1182 1197 1196
f 1182 1183 1198
f 1184 1199 1198
f 1185 1200 1199
f 1186 1201 1200
f 1186 1187 1202
f 1187 1188 1203
f 1188 1189 1204
f 1190 1205 1204
f 1190 1191 1206
f 1191 1192 1207
f 1193 1208 1207
f 1195 1210 1209
f 1196 1211 1210
f 1197 1212 1211
f 1198 1213 1212
f 1199 1214 1213
f 1200 1215 1214
f 1201 1216 1215
f 1202 1217 1216
f 1203 1218 1217
f 1204 1219 1218
f 1205 1220 1219
f 1205 1206 1221
f 1207 1222 1221
f 1208 1223 1222
f 1209 1210 1225
f 1211 1226 1225
f 1212 1227 1226
f 1212 1213 1228
f 1214 1229 1228
f 1214 1215 1230
f 1216 1231 1230
f 1217 1232 1231
f 1218 1233 1232
f 1218 1219 1234
f 1219 1220 1235
f 1221 1236 1235
f 1221 1222 1237
f 1222 1223 1238
f 1224 1225 1240
f 1226 1241 1240
f 1227 1242 1241
f 1227 1228 1243
f 1228 1229 1244
f 1230 1245 1244
f 1231 1246 1245
f 1232 1247 1246
f 1232 1233 1248
f 1234 1249 1248
f 1235 1250 1249
f 1236 1251 1250
f 1237 1252 1251
f 1238 1253 1252
f 1240 1255 1254
f 1240 1241 1256
f 1242 1257 1256
f 1243 1258 1257
f 1244 1259 1258
f 1245 1260 1259
f 1245 1246 1261
f 1247 1262 1261
f 1248 1263 1262
f 1249 1264 1263
f 1250 1265 1264
f 1251 1266 1265
f 1252 1267 1266
f 1253 1268 1267
f 1255 1270 1269
f 1256 1271 1270
f 1256 1257 1272
f 1258 1273 1272
f 1259 1274 1273
f 1259 1260 1275
f 1261 1276 1275
f 1262 1277 1276
f 1263 1278 1277
f 1263 1264 1279
f 1265 1280 1279
f 1266 1281 1280
f 1266 1267 1282
f 1267 1268 1283
f 1270 1285 1284
f 1270 1271 1286
f 1271 1272 1287
f 1272 1273 1288
f 1274 1289 1288
f 1275 1290 1289
f 1276 1291 1290
f 1277 1292 1291
f 1277 1278 1293
f 1279 1294 1293
f 1280 1295 1294
f 1281 1296 1295
f 1282 1297 1296
f 1283 1298 1297
f 1285 1300 1299
f 1285 1286 1301
f 1287 1302 1301
f 1288 1303 1302
f 1289 1304 1303
f 1290 1305 1304
f 1290 1291 1306
f 1292 1307 1306
f 1292 1293 1308
f 1294 1309 1308
f 1295 1310 1309
f 1296 1311 1310
f 1296 1297 1312
f 1298 1313 1312
f 83 1089 9
f 83 82 1090
f 81 1091 1090
f 80 1092 1091
f 79 1093 1092
f 78 1094 1093
f 78 77 1095
f 77 76 1096
f 75 1097 1096
f 74 1098 1097
f 74 73 1099
f 72 1100 1099
f 71 1101 1100
f 70 1102 1101
f 69 1103 1102
f 69 7 128
f 1103 128 127
f 1118 127 126
f 126 125 1148
f 125 124 1163
f 1163 124 123
f 123 122 1193
f 122 121 1208
f 1208 121 120
f 1223 120 119
f 119 118 1253
f 118 117 1268
f 1268 117 116
f 116 115 1298
f 1298 115 114
f 114 5 173
f 1313 173 172
f 1312 172 171
f 1310 1311 171
f 1309 1310 170
f 1309 169 168
f 1307 1308 168
f 1307 167 166
f 1306 166 165
f 1305 165 164
f 1303 1304 164
f 1303 163 162
f 1302 162 161
f 1301 161 160
f 1300 160 159
f 23 1299 159
f 22 1284 1299
f 1269 1284 22
f 1254 1269 21
f 1239 1254 20
f 18 1224 1239
f 1209 1224 18
f 1194 1209 17
f 15 1179 1194
f 14 1164 1179
f 1149 1164 14
f 12 1134 1149
f 11 1119 1134
f 1104 1119 11
f 9 1089 1104
f 1315 1330 1329
f 1316 1331 1330
f 1317 1332 1331
f 1317 1318 1333
f 1319 1334 1333
f 1319 1320 1335
f 1320 1321 1336
f 1322 1337 1336
f 1323 1338 1337
f 1324 1339 1338
f 1324 1325 1340
f 1325 1326 1341
f 1326 1327 1342
f 1327 1328 1343
f 1330 1345 1344
f 1331 1346 1345
f 1332 1347 1346
f 1333 1348 1347
f 1334 1349 1348
f 1335 1350 1349
f 1335 1336 1351
f 1337 1352 1351
f 1338 1353 1352
f 1339 1354 1353
f 1340 1355 1354
f 1340 1341 1356
f 1342 1357 1356
f 1343 1358 1357
f 1344 1345 1360
f 1345 1346 1361
f 1346 1347 1362
f 1347 1348 1363
f 1348 1349 1364
f 1350 1365 1364
f 1350 1351 1366
f 1352 1367 1366
f 1352 1353 1368
f 1354 1369 1368
f 1355 1370 1369
f 1356 1371 1370
f 1357 1372 1371
f 1358 1373 1372
f 1360 1375 1374
f 1361 1376 1375
f 1362 1377 1376
f 1362 1363 1378
f 1364 1379 1378
f 1365 1380 1379
f 1366 1381 1380
f 1367 1382 1381
f 1368 1383 1382
f 1369 1384 1383
f 1370 1385 1384
f 1370 1371 1386
f 1371 1372 1387
f 1373 1388 1387
f 1375 1390 1389
f 1375 1376 1391
f 1376 1377 1392
f 1378 1393 1392
f 1379 1394 1393
f 1379 1380 1395
f 1380 1381 1396
f 1381 1382 1397
f 1383 1398 1397
f 1383 1384 1399
f 1384 1385 1400
f 1386 1401 1400
f 1386 1387 1402
f 1387 1388 1403
f 1389 1390 1405
f 1390 1391 1406
f 1392 1407 1406
f 1393 1408 1407
f 1394 1409 1408
f 1395 1410 1409
f 1396 1411 1410
f 1397 1412 1411
f 1397 1398 1413
f 1399 1414 1413
f 1399 1400 1415
f 1401 1416 1415
f 1402 1417 1416
f 1403 1418 1417
f 1404 1405 1420
f 1406 1421 1420
f 1407 1422 1421
f 1407 1408 1423
f 1409 1424 1423
f 1410 1425 1424
f 1411 1426 1425
f 1411 1412 1427
f 1412 1413 1428
f 1413 1414 1429
f 1415 1430 1429
f 1415 1416 1431
f 1416 1417 1432
f 1418 1433 1432
f 1420 1435 1434
f 1421 1436 1435
f 1422 1437 1436
f 1423 1438 1437
f 1424 1439 1438
f 1425 1440 1439
f 1426 1441 1440
f 1427 1442 1441
f 1428 1443 1442
f 1429 1444 1443
f 1430 1445 1444
f 1430 1431 1446
f 1432 1447 1446
f 1433 1448 1447
f 1434 1435 1450
f 1436 1451 1450
f 1437 1452 1451
f 1437 1438 1453
f 1439 1454 1453
f 1439 1440 1455
f 1441 1456 1455
f 1442 1457 1456
f 1443 1458 1457
f 1443 1444 1459
f 1444 1445 1460
f 1446 1461 1460
f 1446 1447 1462
f 1447 1448 1463
f 1449 1450 1465
f 1451 1466 1465
f 1452 1467 1466
f 1452 1453 1468
f 1453 1454 1469
f 1455 1470 1469
f 1456 1471 1470
f 1457 1472 1471
f 1457 1458 1473
f 1459 1474 1473
f 1460 1475 1474
f 1461 1476 1475
f 1462 1477 1476
f 1463 1478 1477
f 1465 1480 1479
f 1465 1466 1481
f 1467 1482 1481
f 1468 1483 1482
f 1469 1484 1483
f 1470 1485 1484
f 1470 1471 1486
f 1472 1487 1486
f 1473 1488 1487
f 1474 1489 1488
f 1475 1490 1489
f 1476 1491 1490
f 1477 1492 1491
f 1478 1493 1492
f 1480 1495 1494
f 1481 1496 1495
f 1481 1482 1497
f 1483 1498 1497
f 1484 1499 1498
f 1484 1485 1500
f 1486 1501 1500
f 1487 1502 1501
f 1488 1503 1502
f 1488 1489 1504
f 1490 1505 1504
f 1491 1506 1505
f 1491 1492 1507
f 1492 1493 1508
f 1495 1510 1509
f 1495 1496 1511
f 1496 1497 1512
f 1497 1498 1513
f 1499 1514 1513
f 1500 1515 1514
f 1501 1516 1515
f 1502 1517 1516
f 1502 1503 1518
f 1504 1519 1518
f 1505 1520 1519
f 1506 1521 1520
f 1507 1522 1521
f 1508 1523 1522
f 1510 1525 1524
f 1510 1511 1526
f 1512 1527 1526
f 1513 1528 1527
f 1514 1529 1528
f 1515 1530 1529
f 1515 1516 1531
f 1517 1532 1531
f 1517 1518 1533
f 1519 1534 1533
f 1520 1535 1534
f 1521 1536 1535
f 1521 1522 1537
f 1523 1538 1537
f 98 1314 129
f 97 1315 1314
f 97 96 1316
f 95 1317 1316
f 94 1318 1317
f 93 1319 1318
f 93 92 1320
f 92 91 1321
f 90 1322 1321
f 89 1323 1322
f 89 88 1324
f 87 1325 1324
f 86 1326 1325
f 85 1327 1326
f 85 84 1328
f 84 4 53
f 1328 53 52
f 52 51 1358
f 1358 51 50
f 50 49 1388
f 1388 49 48
f 48 47 1418
f 47 46 1433
f 1433 46 45
f 1448 45 44
f 44 43 1478
f 43 42 1493
f 1493 42 41
f 1508 41 40
f 40 39 1538
f 39 2 188
f 1538 188 187
f 1536 1537 187
f 1536 186 185
f 1534 1535 185
f 1534 184 183
f 1532 1533 183
f 1531 1532 182
f 1530 1531 181
f 1530 180 179
f 1528 1529 179
f 1528 178 177
f 1527 177 176
f 1526 176 175
f 1525 175 174
f 143 1524 174
f 142 1509 1524
f 1494 1509 142
f 1479 1494 141
f 1464 1479 140
f 138 1449 1464
f 1434 1449 138
f 1419 1434 137
f 135 1404 1419
f 1389 1404 135
f 1374 1389 134
f 132 1359 1374
f 131 1344 1359
f 1329 1344 131
f 1314 1329 130
